  0
SECTION
  2
HEADER
  9
$ANGBASE
  50
0.0
  9
$ANGDIR
  70
1
  9
$MEASUREMENT
  70
1
  0
ENDSEC
  0
SECTION
  2
TABLES
  0
TABLE
  2
LTYPE
  70
4
  0
LTYPE
  5
40F
  2
CONTINUOUS
  70
0
  3
Solid line
  72
65
  73
0
  40
0.0
  0
LTYPE
  5
410
  2
DASHDOT
 70
0
  3
Dash Dot ____ _ ____ _
 72
65
 73
4
 40
2.0
 49
1.25
 49
-0.25
 49
0.25
 49
-0.25
  0
LTYPE
  5
411
  2
DASHED
 70
0
  3
Dashed __ __ __ __ __
 72
65
 73
2
 40
0.75
 49
0.5
 49
-0.25
  0
LTYPE
  5
43B
  2
DOTTED
 70
0
  3
Dotted .  .  .  .
 72
65
 73
2
 40
0.2
 49
0.0
 49
-0.2
  0
ENDTAB
  0
TABLE
  2
STYLE
  70
4
  0
STYLE
  2
KICAD
  70
0
  40
0
  41
1
  42
1
  50
0
  71
0
  3
isocp.shx
  0
STYLE
  2
KICADB
  70
0
  40
0
  41
1
  42
1
  50
0
  71
0
  3
isocp.shx
  0
STYLE
  2
KICADI
  70
0
  40
0
  41
1
  42
1
  50
15
  71
0
  3
isocp.shx
  0
STYLE
  2
KICADBI
  70
0
  40
0
  41
1
  42
1
  50
15
  71
0
  3
isocp.shx
  0
ENDTAB
  0
TABLE
  2
LAYER
  70
1
  0
LAYER
  2
BLACK
  70
0
  62
7
  6
CONTINUOUS
  0
ENDTAB
  0
ENDSEC
  0
SECTION
  2
ENTITIES
0
LINE
8
BLACK
6
CONTINUOUS
10
88.0942170000000004
20
-38.9960629999999995
11
88.1037809999999979
21
-39.0022090000000006
0
LINE
8
BLACK
6
CONTINUOUS
10
88.1037809999999979
20
-39.0022090000000006
11
88.1149690000000021
21
-39.0042299999999997
0
LINE
8
BLACK
6
CONTINUOUS
10
88.1149690000000021
20
-39.0042299999999997
11
90.0875489999999957
21
-39.9919999999999973
0
LINE
8
BLACK
6
CONTINUOUS
10
90.0875489999999957
20
-39.9919999999999973
11
100.9119999999999919
21
-39.9919999999999973
0
LINE
8
BLACK
6
CONTINUOUS
10
100.9119999999999919
20
-39.9919999999999973
11
103.0579999999999927
21
-39.9919999999999973
0
LINE
8
BLACK
6
CONTINUOUS
10
103.0579999999999927
20
-39.9919999999999973
11
116.0284509999999898
21
-39.9919999999999973
0
LINE
8
BLACK
6
CONTINUOUS
10
116.0284509999999898
20
-39.9919999999999973
11
118.0010309999999976
21
-39.0042299999999997
0
LINE
8
BLACK
6
CONTINUOUS
10
118.0010309999999976
20
-39.0042299999999997
11
118.0347879999999918
21
-38.9929890000000015
0
LINE
8
BLACK
6
CONTINUOUS
10
118.0347879999999918
20
-38.9929890000000015
11
118.0460920000000016
21
-38.9942020000000014
0
LINE
8
BLACK
6
CONTINUOUS
10
118.0460920000000016
20
-38.9942020000000014
11
118.0569999999999879
21
-38.9909999999999997
0
LINE
8
BLACK
6
CONTINUOUS
10
118.0569999999999879
20
-38.9909999999999997
11
122.0569999999999879
21
-38.9909999999999997
0
LINE
8
BLACK
6
CONTINUOUS
10
122.0569999999999879
20
-38.9909999999999997
11
122.0572059999999937
21
-38.9910289999999975
0
LINE
8
BLACK
6
CONTINUOUS
10
122.0572059999999937
20
-38.9910289999999975
11
122.2523689999999874
21
-39.0079179999999965
0
LINE
8
BLACK
6
CONTINUOUS
10
122.2523689999999874
20
-39.0079179999999965
11
122.4419499999999914
21
-39.0585469999999972
0
LINE
8
BLACK
6
CONTINUOUS
10
122.4419499999999914
20
-39.0585469999999972
11
122.6198499999999996
21
-39.1413469999999961
0
LINE
8
BLACK
6
CONTINUOUS
10
122.6198499999999996
20
-39.1413469999999961
11
122.7806569999999908
21
-39.2537979999999962
0
LINE
8
BLACK
6
CONTINUOUS
10
122.7806569999999908
20
-39.2537979999999962
11
122.9194789999999955
21
-39.3924809999999965
0
LINE
8
BLACK
6
CONTINUOUS
10
122.9194789999999955
20
-39.3924809999999965
11
123.0320909999999941
21
-39.553174999999996
0
LINE
8
BLACK
6
CONTINUOUS
10
123.0320909999999941
20
-39.553174999999996
11
123.1150689999999912
21
-39.7309920000000005
0
LINE
8
BLACK
6
CONTINUOUS
10
123.1150689999999912
20
-39.7309920000000005
11
123.1658869999999979
21
-39.9205229999999958
0
LINE
8
BLACK
6
CONTINUOUS
10
123.1658869999999979
20
-39.9205229999999958
11
123.1829999999999927
21
-40.1159989999999951
0
LINE
8
BLACK
6
CONTINUOUS
10
123.1829999999999927
20
-40.1159989999999951
11
123.1829999999999927
21
-40.1159999999999997
0
LINE
8
BLACK
6
CONTINUOUS
10
123.1829999999999927
20
-40.1159999999999997
11
123.1829999999999927
21
-44.1159999999999997
0
LINE
8
BLACK
6
CONTINUOUS
10
123.1829999999999927
20
-44.1159999999999997
11
123.177937
21
-44.1512169999999955
0
LINE
8
BLACK
6
CONTINUOUS
10
123.177937
20
-44.1512169999999955
11
123.1718089999999961
21
-44.1607509999999976
0
LINE
8
BLACK
6
CONTINUOUS
10
123.1718089999999961
20
-44.1607509999999976
11
123.1698029999999875
21
-44.1719019999999958
0
LINE
8
BLACK
6
CONTINUOUS
10
123.1698029999999875
20
-44.1719019999999958
11
122.1829999999999927
21
-46.1455079999999995
0
LINE
8
BLACK
6
CONTINUOUS
10
122.1829999999999927
20
-46.1455079999999995
11
122.1829999999999927
21
-72.0864919999999927
0
LINE
8
BLACK
6
CONTINUOUS
10
122.1829999999999927
20
-72.0864919999999927
11
123.1698029999999875
21
-74.0600979999999964
0
LINE
8
BLACK
6
CONTINUOUS
10
123.1698029999999875
20
-74.0600979999999964
11
123.1810239999999936
21
-74.0938620000000014
0
LINE
8
BLACK
6
CONTINUOUS
10
123.1810239999999936
20
-74.0938620000000014
11
123.1798069999999967
21
-74.105126999999996
0
LINE
8
BLACK
6
CONTINUOUS
10
123.1798069999999967
20
-74.105126999999996
11
123.1829999999999927
21
-74.1159999999999997
0
LINE
8
BLACK
6
CONTINUOUS
10
123.1829999999999927
20
-74.1159999999999997
11
123.1829999999999927
21
-78.1159999999999997
0
LINE
8
BLACK
6
CONTINUOUS
10
123.1829999999999927
20
-78.1159999999999997
11
123.1659089999999992
21
-78.3113539999999944
0
LINE
8
BLACK
6
CONTINUOUS
10
123.1659089999999992
20
-78.3113539999999944
11
123.1151539999999898
21
-78.5007729999999952
0
LINE
8
BLACK
6
CONTINUOUS
10
123.1151539999999898
20
-78.5007729999999952
11
123.0322789999999884
21
-78.6784999999999997
0
LINE
8
BLACK
6
CONTINUOUS
10
123.0322789999999884
20
-78.6784999999999997
11
122.9197999999999951
21
-78.8391359999999963
0
LINE
8
BLACK
6
CONTINUOUS
10
122.9197999999999951
20
-78.8391359999999963
11
122.7811359999999894
21
-78.977800000000002
0
LINE
8
BLACK
6
CONTINUOUS
10
122.7811359999999894
20
-78.977800000000002
11
122.6204999999999927
21
-79.0902789999999953
0
LINE
8
BLACK
6
CONTINUOUS
10
122.6204999999999927
20
-79.0902789999999953
11
122.4427729999999883
21
-79.1731539999999967
0
LINE
8
BLACK
6
CONTINUOUS
10
122.4427729999999883
20
-79.1731539999999967
11
122.2533539999999874
21
-79.2239089999999919
0
LINE
8
BLACK
6
CONTINUOUS
10
122.2533539999999874
20
-79.2239089999999919
11
122.0579999999999927
21
-79.2409999999999997
0
LINE
8
BLACK
6
CONTINUOUS
10
122.0579999999999927
20
-79.2409999999999997
11
118.0579999999999927
21
-79.2409999999999997
0
LINE
8
BLACK
6
CONTINUOUS
10
118.0579999999999927
20
-79.2409999999999997
11
118.0227829999999898
21
-79.2359369999999927
0
LINE
8
BLACK
6
CONTINUOUS
10
118.0227829999999898
20
-79.2359369999999927
11
118.0132479999999902
21
-79.229809000000003
0
LINE
8
BLACK
6
CONTINUOUS
10
118.0132479999999902
20
-79.229809000000003
11
118.0020979999999895
21
-79.2278029999999944
0
LINE
8
BLACK
6
CONTINUOUS
10
118.0020979999999895
20
-79.2278029999999944
11
116.028492
21
-78.2409999999999997
0
LINE
8
BLACK
6
CONTINUOUS
10
116.028492
20
-78.2409999999999997
11
90.0875079999999997
21
-78.2409999999999997
0
LINE
8
BLACK
6
CONTINUOUS
10
90.0875079999999997
20
-78.2409999999999997
11
88.113901999999996
21
-79.2278029999999944
0
LINE
8
BLACK
6
CONTINUOUS
10
88.113901999999996
20
-79.2278029999999944
11
88.0801379999999909
21
-79.2390240000000006
0
LINE
8
BLACK
6
CONTINUOUS
10
88.0801379999999909
20
-79.2390240000000006
11
88.0688719999999989
21
-79.2378069999999894
0
LINE
8
BLACK
6
CONTINUOUS
10
88.0688719999999989
20
-79.2378069999999894
11
88.0579999999999927
21
-79.2409999999999997
0
LINE
8
BLACK
6
CONTINUOUS
10
88.0579999999999927
20
-79.2409999999999997
11
84.0579999999999927
21
-79.2409999999999997
0
LINE
8
BLACK
6
CONTINUOUS
10
84.0579999999999927
20
-79.2409999999999997
11
83.862645999999998
21
-79.2239089999999919
0
LINE
8
BLACK
6
CONTINUOUS
10
83.862645999999998
20
-79.2239089999999919
11
83.6732269999999971
21
-79.1731539999999967
0
LINE
8
BLACK
6
CONTINUOUS
10
83.6732269999999971
20
-79.1731539999999967
11
83.4954999999999927
21
-79.0902789999999953
0
LINE
8
BLACK
6
CONTINUOUS
10
83.4954999999999927
20
-79.0902789999999953
11
83.3348639999999961
21
-78.977800000000002
0
LINE
8
BLACK
6
CONTINUOUS
10
83.3348639999999961
20
-78.977800000000002
11
83.1961999999999904
21
-78.8391359999999963
0
LINE
8
BLACK
6
CONTINUOUS
10
83.1961999999999904
20
-78.8391359999999963
11
83.083720999999997
21
-78.6784999999999997
0
LINE
8
BLACK
6
CONTINUOUS
10
83.083720999999997
20
-78.6784999999999997
11
83.0008459999999957
21
-78.5007729999999952
0
LINE
8
BLACK
6
CONTINUOUS
10
83.0008459999999957
20
-78.5007729999999952
11
82.9500910000000005
21
-78.3113539999999944
0
LINE
8
BLACK
6
CONTINUOUS
10
82.9500910000000005
20
-78.3113539999999944
11
82.9329999999999927
21
-78.1159999999999997
0
LINE
8
BLACK
6
CONTINUOUS
10
82.9329999999999927
20
-78.1159999999999997
11
82.9329999999999927
21
-74.1159999999999997
0
LINE
8
BLACK
6
CONTINUOUS
10
82.9329999999999927
20
-74.1159999999999997
11
82.9380629999999996
21
-74.0807829999999967
0
LINE
8
BLACK
6
CONTINUOUS
10
82.9380629999999996
20
-74.0807829999999967
11
82.9441899999999919
21
-74.0712479999999971
0
LINE
8
BLACK
6
CONTINUOUS
10
82.9441899999999919
20
-74.0712479999999971
11
82.946196999999998
21
-74.0600979999999964
0
LINE
8
BLACK
6
CONTINUOUS
10
82.946196999999998
20
-74.0600979999999964
11
83.9329999999999927
21
-72.0864919999999927
0
LINE
8
BLACK
6
CONTINUOUS
10
83.9329999999999927
20
-72.0864919999999927
11
83.9329999999999927
21
-46.1455079999999995
0
LINE
8
BLACK
6
CONTINUOUS
10
83.9329999999999927
20
-46.1455079999999995
11
82.946196999999998
21
-44.1719019999999958
0
LINE
8
BLACK
6
CONTINUOUS
10
82.946196999999998
20
-44.1719019999999958
11
82.9349759999999918
21
-44.1381379999999979
0
LINE
8
BLACK
6
CONTINUOUS
10
82.9349759999999918
20
-44.1381379999999979
11
82.9361919999999913
21
-44.1268719999999988
0
LINE
8
BLACK
6
CONTINUOUS
10
82.9361919999999913
20
-44.1268719999999988
11
82.9329999999999927
21
-44.1160009999999971
0
LINE
8
BLACK
6
CONTINUOUS
10
82.9329999999999927
20
-44.1160009999999971
11
82.9329689999999999
21
-40.1160009999999971
0
LINE
8
BLACK
6
CONTINUOUS
10
82.9329689999999999
20
-40.1160009999999971
11
82.9329689999999999
21
-40.1159989999999951
0
LINE
8
BLACK
6
CONTINUOUS
10
82.9329689999999999
20
-40.1159989999999951
11
82.9498880000000014
21
-39.9216249999999988
0
LINE
8
BLACK
6
CONTINUOUS
10
82.9498880000000014
20
-39.9216249999999988
11
83.0001340000000027
21
-39.7330970000000008
0
LINE
8
BLACK
6
CONTINUOUS
10
83.0001340000000027
20
-39.7330970000000008
11
83.0821979999999911
21
-39.5560849999999959
0
LINE
8
BLACK
6
CONTINUOUS
10
83.0821979999999911
20
-39.5560849999999959
11
83.19361099999999
21
-39.3959130000000002
0
LINE
8
BLACK
6
CONTINUOUS
10
83.19361099999999
20
-39.3959130000000002
11
83.3310209999999927
21
-39.2573989999999995
0
LINE
8
BLACK
6
CONTINUOUS
10
83.3310209999999927
20
-39.2573989999999995
11
83.4902960000000007
21
-39.1447080000000014
0
LINE
8
BLACK
6
CONTINUOUS
10
83.4902960000000007
20
-39.1447080000000014
11
83.6666460000000001
21
-39.0612309999999994
0
LINE
8
BLACK
6
CONTINUOUS
10
83.6666460000000001
20
-39.0612309999999994
11
83.8547669999999954
21
-39.0094780000000014
0
LINE
8
BLACK
6
CONTINUOUS
10
83.8547669999999954
20
-39.0094780000000014
11
84.0489999999999924
21
-38.9910050000000012
0
LINE
8
BLACK
6
CONTINUOUS
10
84.0489999999999924
20
-38.9910050000000012
11
84.0495619999999946
21
-38.9911279999999962
0
LINE
8
BLACK
6
CONTINUOUS
10
84.0495619999999946
20
-38.9911279999999962
11
84.0499999999999972
21
-38.9909999999999997
0
LINE
8
BLACK
6
CONTINUOUS
10
84.0499999999999972
20
-38.9909999999999997
11
88.0589999999999975
21
-38.9909999999999997
0
LINE
8
BLACK
6
CONTINUOUS
10
88.0589999999999975
20
-38.9909999999999997
11
88.0942170000000004
21
-38.9960629999999995
0
LINE
8
BLACK
6
CONTINUOUS
10
122.0571249999999992
20
-39.2409999999999997
11
122.0570539999999937
21
-39.2409829999999999
0
LINE
8
BLACK
6
CONTINUOUS
10
122.0570539999999937
20
-39.2409829999999999
11
122.0569999999999879
21
-39.2409999999999997
0
LINE
8
BLACK
6
CONTINUOUS
10
122.0569999999999879
20
-39.2409999999999997
11
118.0865489999999909
21
-39.2409999999999997
0
LINE
8
BLACK
6
CONTINUOUS
10
118.0865489999999909
20
-39.2409999999999997
11
116.1139689999999973
21
-40.2287699999999973
0
LINE
8
BLACK
6
CONTINUOUS
10
116.1139689999999973
20
-40.2287699999999973
11
116.0802119999999888
21
-40.2400109999999955
0
LINE
8
BLACK
6
CONTINUOUS
10
116.0802119999999888
20
-40.2400109999999955
11
116.0689069999999958
21
-40.2387969999999981
0
LINE
8
BLACK
6
CONTINUOUS
10
116.0689069999999958
20
-40.2387969999999981
11
116.0579999999999927
21
-40.2419999999999973
0
LINE
8
BLACK
6
CONTINUOUS
10
116.0579999999999927
20
-40.2419999999999973
11
103.0579999999999927
21
-40.2419999999999973
0
LINE
8
BLACK
6
CONTINUOUS
10
103.0579999999999927
20
-40.2419999999999973
11
100.9119999999999919
21
-40.2419999999999973
0
LINE
8
BLACK
6
CONTINUOUS
10
100.9119999999999919
20
-40.2419999999999973
11
90.0579999999999927
21
-40.2419999999999973
0
LINE
8
BLACK
6
CONTINUOUS
10
90.0579999999999927
20
-40.2419999999999973
11
90.0227829999999898
21
-40.2369369999999975
0
LINE
8
BLACK
6
CONTINUOUS
10
90.0227829999999898
20
-40.2369369999999975
11
90.0132179999999948
21
-40.2307899999999989
0
LINE
8
BLACK
6
CONTINUOUS
10
90.0132179999999948
20
-40.2307899999999989
11
90.0020310000000023
21
-40.2287699999999973
0
LINE
8
BLACK
6
CONTINUOUS
10
90.0020310000000023
20
-40.2287699999999973
11
88.0294509999999946
21
-39.2409999999999997
0
LINE
8
BLACK
6
CONTINUOUS
10
88.0294509999999946
20
-39.2409999999999997
11
84.0506000000000029
21
-39.2409999999999997
0
LINE
8
BLACK
6
CONTINUOUS
10
84.0506000000000029
20
-39.2409999999999997
11
83.965256999999994
21
-39.2416399999999967
0
LINE
8
BLACK
6
CONTINUOUS
10
83.965256999999994
20
-39.2416399999999967
11
83.7972989999999953
21
-39.2762729999999962
0
LINE
8
BLACK
6
CONTINUOUS
10
83.7972989999999953
20
-39.2762729999999962
11
83.6392589999999956
21
-39.3428490000000011
0
LINE
8
BLACK
6
CONTINUOUS
10
83.6392589999999956
20
-39.3428490000000011
11
83.4971469999999982
21
-39.4388359999999949
0
LINE
8
BLACK
6
CONTINUOUS
10
83.4971469999999982
20
-39.4388359999999949
11
83.3763709999999918
21
-39.5605819999999966
0
LINE
8
BLACK
6
CONTINUOUS
10
83.3763709999999918
20
-39.5605819999999966
11
83.2815239999999903
21
-39.7034570000000002
0
LINE
8
BLACK
6
CONTINUOUS
10
83.2815239999999903
20
-39.7034570000000002
11
83.2162139999999937
21
-39.8620249999999956
0
LINE
8
BLACK
6
CONTINUOUS
10
83.2162139999999937
20
-39.8620249999999956
11
83.1829259999999948
21
-40.0302539999999993
0
LINE
8
BLACK
6
CONTINUOUS
10
83.1829259999999948
20
-40.0302539999999993
11
83.1829680000000025
21
-40.1159979999999976
0
LINE
8
BLACK
6
CONTINUOUS
10
83.1829680000000025
20
-40.1159979999999976
11
83.1829689999999999
21
-40.1159989999999951
0
LINE
8
BLACK
6
CONTINUOUS
10
83.1829689999999999
20
-40.1159989999999951
11
83.1829989999999952
21
-44.0864909999999952
0
LINE
8
BLACK
6
CONTINUOUS
10
83.1829989999999952
20
-44.0864909999999952
11
84.1698030000000017
21
-46.0600979999999964
0
LINE
8
BLACK
6
CONTINUOUS
10
84.1698030000000017
20
-46.0600979999999964
11
84.1810239999999936
21
-46.0938620000000014
0
LINE
8
BLACK
6
CONTINUOUS
10
84.1810239999999936
20
-46.0938620000000014
11
84.1798069999999967
21
-46.105126999999996
0
LINE
8
BLACK
6
CONTINUOUS
10
84.1798069999999967
20
-46.105126999999996
11
84.1829999999999927
21
-46.1159999999999997
0
LINE
8
BLACK
6
CONTINUOUS
10
84.1829999999999927
20
-46.1159999999999997
11
84.1829999999999927
21
-72.1159999999999997
0
LINE
8
BLACK
6
CONTINUOUS
10
84.1829999999999927
20
-72.1159999999999997
11
84.177937
21
-72.1512170000000026
0
LINE
8
BLACK
6
CONTINUOUS
10
84.177937
20
-72.1512170000000026
11
84.1718089999999961
21
-72.1607509999999905
0
LINE
8
BLACK
6
CONTINUOUS
10
84.1718089999999961
20
-72.1607509999999905
11
84.1698030000000017
21
-72.1719020000000029
0
LINE
8
BLACK
6
CONTINUOUS
10
84.1698030000000017
20
-72.1719020000000029
11
83.1829999999999927
21
-74.1455079999999924
0
LINE
8
BLACK
6
CONTINUOUS
10
83.1829999999999927
20
-74.1455079999999924
11
83.1829999999999927
21
-78.1159999999999997
0
LINE
8
BLACK
6
CONTINUOUS
10
83.1829999999999927
20
-78.1159999999999997
11
83.1829999999999927
21
-78.2021799999999985
0
LINE
8
BLACK
6
CONTINUOUS
10
83.1829999999999927
20
-78.2021799999999985
11
83.2166259999999909
21
-78.3712280000000021
0
LINE
8
BLACK
6
CONTINUOUS
10
83.2166259999999909
20
-78.3712280000000021
11
83.2825849999999974
21
-78.5304679999999991
0
LINE
8
BLACK
6
CONTINUOUS
10
83.2825849999999974
20
-78.5304679999999991
11
83.378343000000001
21
-78.6737799999999936
0
LINE
8
BLACK
6
CONTINUOUS
10
83.378343000000001
20
-78.6737799999999936
11
83.5002199999999988
21
-78.7956569999999914
0
LINE
8
BLACK
6
CONTINUOUS
10
83.5002199999999988
20
-78.7956569999999914
11
83.6435319999999933
21
-78.891414999999995
0
LINE
8
BLACK
6
CONTINUOUS
10
83.6435319999999933
20
-78.891414999999995
11
83.8027719999999903
21
-78.9573740000000015
0
LINE
8
BLACK
6
CONTINUOUS
10
83.8027719999999903
20
-78.9573740000000015
11
83.9718199999999939
21
-78.9909999999999997
0
LINE
8
BLACK
6
CONTINUOUS
10
83.9718199999999939
20
-78.9909999999999997
11
84.0579999999999927
21
-78.9909999999999997
0
LINE
8
BLACK
6
CONTINUOUS
10
84.0579999999999927
20
-78.9909999999999997
11
88.028492
21
-78.9909999999999997
0
LINE
8
BLACK
6
CONTINUOUS
10
88.028492
20
-78.9909999999999997
11
90.0020979999999895
21
-78.0041969999999907
0
LINE
8
BLACK
6
CONTINUOUS
10
90.0020979999999895
20
-78.0041969999999907
11
90.0358619999999945
21
-77.9929759999999987
0
LINE
8
BLACK
6
CONTINUOUS
10
90.0358619999999945
20
-77.9929759999999987
11
90.047126999999989
21
-77.9941919999999982
0
LINE
8
BLACK
6
CONTINUOUS
10
90.047126999999989
20
-77.9941919999999982
11
90.0579999999999927
21
-77.9909999999999997
0
LINE
8
BLACK
6
CONTINUOUS
10
90.0579999999999927
20
-77.9909999999999997
11
116.0579999999999927
21
-77.9909999999999997
0
LINE
8
BLACK
6
CONTINUOUS
10
116.0579999999999927
20
-77.9909999999999997
11
116.0932169999999957
21
-77.9960629999999924
0
LINE
8
BLACK
6
CONTINUOUS
10
116.0932169999999957
20
-77.9960629999999924
11
116.1027509999999978
21
-78.0021899999999988
0
LINE
8
BLACK
6
CONTINUOUS
10
116.1027509999999978
20
-78.0021899999999988
11
116.113901999999996
21
-78.0041969999999907
0
LINE
8
BLACK
6
CONTINUOUS
10
116.113901999999996
20
-78.0041969999999907
11
118.0875079999999997
21
-78.9909999999999997
0
LINE
8
BLACK
6
CONTINUOUS
10
118.0875079999999997
20
-78.9909999999999997
11
122.0579999999999927
21
-78.9909999999999997
0
LINE
8
BLACK
6
CONTINUOUS
10
122.0579999999999927
20
-78.9909999999999997
11
122.1441799999999915
21
-78.9909999999999997
0
LINE
8
BLACK
6
CONTINUOUS
10
122.1441799999999915
20
-78.9909999999999997
11
122.3132279999999952
21
-78.9573740000000015
0
LINE
8
BLACK
6
CONTINUOUS
10
122.3132279999999952
20
-78.9573740000000015
11
122.4724679999999921
21
-78.891414999999995
0
LINE
8
BLACK
6
CONTINUOUS
10
122.4724679999999921
20
-78.891414999999995
11
122.6157800000000009
21
-78.7956569999999914
0
LINE
8
BLACK
6
CONTINUOUS
10
122.6157800000000009
20
-78.7956569999999914
11
122.7376569999999987
21
-78.6737799999999936
0
LINE
8
BLACK
6
CONTINUOUS
10
122.7376569999999987
20
-78.6737799999999936
11
122.833414999999988
21
-78.5304679999999991
0
LINE
8
BLACK
6
CONTINUOUS
10
122.833414999999988
20
-78.5304679999999991
11
122.8993739999999946
21
-78.3712280000000021
0
LINE
8
BLACK
6
CONTINUOUS
10
122.8993739999999946
20
-78.3712280000000021
11
122.9329999999999927
21
-78.2021799999999985
0
LINE
8
BLACK
6
CONTINUOUS
10
122.9329999999999927
20
-78.2021799999999985
11
122.9329999999999927
21
-78.1159999999999997
0
LINE
8
BLACK
6
CONTINUOUS
10
122.9329999999999927
20
-78.1159999999999997
11
122.9329999999999927
21
-74.1455079999999924
0
LINE
8
BLACK
6
CONTINUOUS
10
122.9329999999999927
20
-74.1455079999999924
11
121.946196999999998
21
-72.1719020000000029
0
LINE
8
BLACK
6
CONTINUOUS
10
121.946196999999998
20
-72.1719020000000029
11
121.9349759999999918
21
-72.1381379999999979
0
LINE
8
BLACK
6
CONTINUOUS
10
121.9349759999999918
20
-72.1381379999999979
11
121.9361919999999913
21
-72.1268719999999917
0
LINE
8
BLACK
6
CONTINUOUS
10
121.9361919999999913
20
-72.1268719999999917
11
121.9329999999999927
21
-72.1159999999999997
0
LINE
8
BLACK
6
CONTINUOUS
10
121.9329999999999927
20
-72.1159999999999997
11
121.9329999999999927
21
-46.1159999999999997
0
LINE
8
BLACK
6
CONTINUOUS
10
121.9329999999999927
20
-46.1159999999999997
11
121.9380629999999996
21
-46.0807829999999967
0
LINE
8
BLACK
6
CONTINUOUS
10
121.9380629999999996
20
-46.0807829999999967
11
121.9441899999999919
21
-46.0712479999999971
0
LINE
8
BLACK
6
CONTINUOUS
10
121.9441899999999919
20
-46.0712479999999971
11
121.946196999999998
21
-46.0600979999999964
0
LINE
8
BLACK
6
CONTINUOUS
10
121.946196999999998
20
-46.0600979999999964
11
122.9329999999999927
21
-44.0864919999999998
0
LINE
8
BLACK
6
CONTINUOUS
10
122.9329999999999927
20
-44.0864919999999998
11
122.9329999999999927
21
-40.1159999999999997
0
LINE
8
BLACK
6
CONTINUOUS
10
122.9329999999999927
20
-40.1159999999999997
11
122.9329999999999927
21
-40.1159989999999951
0
LINE
8
BLACK
6
CONTINUOUS
10
122.9329999999999927
20
-40.1159989999999951
11
122.9329949999999911
21
-40.0297649999999976
0
LINE
8
BLACK
6
CONTINUOUS
10
122.9329949999999911
20
-40.0297649999999976
11
122.8993269999999995
21
-39.8606139999999982
0
LINE
8
BLACK
6
CONTINUOUS
10
122.8993269999999995
20
-39.8606139999999982
11
122.8332860000000011
21
-39.7012900000000002
0
LINE
8
BLACK
6
CONTINUOUS
10
122.8332860000000011
20
-39.7012900000000002
11
122.7374129999999894
21
-39.5579229999999953
0
LINE
8
BLACK
6
CONTINUOUS
10
122.7374129999999894
20
-39.5579229999999953
11
122.615397999999999
21
-39.4360289999999978
0
LINE
8
BLACK
6
CONTINUOUS
10
122.615397999999999
20
-39.4360289999999978
11
122.4719349999999878
21
-39.3402999999999992
0
LINE
8
BLACK
6
CONTINUOUS
10
122.4719349999999878
20
-39.3402999999999992
11
122.3125439999999884
21
-39.2744179999999972
0
LINE
8
BLACK
6
CONTINUOUS
10
122.3125439999999884
20
-39.2744179999999972
11
122.1433600000000013
21
-39.2409189999999981
0
LINE
8
BLACK
6
CONTINUOUS
10
122.1433600000000013
20
-39.2409189999999981
11
122.0571249999999992
21
-39.2409999999999997
  0
ENDSEC
  0
EOF
