<?xml version="1.0" standalone="no"?>
 <!DOCTYPE svg PUBLIC "-//W3C//DTD SVG 1.1//EN" 
 "http://www.w3.org/Graphics/SVG/1.1/DTD/svg11.dtd"> 
<svg
  xmlns:svg="http://www.w3.org/2000/svg"
  xmlns="http://www.w3.org/2000/svg"
  xmlns:xlink="http://www.w3.org/1999/xlink"
  version="1.1"
  width="210.007200mm" height="148.005800mm" viewBox="0.000000 0.000000 210.007200 148.005800">
<title>SVG Image created as PQ_PL2-Edge_Cuts.svg date 2024/01/09 11:59:29 </title>
  <desc>Image generated by PCBNEW </desc>
<g style="fill:#000000; fill-opacity:1.000000;stroke:#000000; stroke-opacity:1.000000;
stroke-linecap:round; stroke-linejoin:round;"
 transform="translate(0 0) scale(1 1)">
</g>
<g style="fill:#000000; fill-opacity:0.0; 
stroke:#000000; stroke-width:0.000000; stroke-opacity:1; 
stroke-linecap:round; stroke-linejoin:round;">
</g>
<g style="fill:#000000; fill-opacity:0.0; 
stroke:#000000; stroke-width:0.250000; stroke-opacity:1; 
stroke-linecap:round; stroke-linejoin:round;">
<path d="M122.058000 79.116000 A1.000000 1.000000 0.0 0 0 123.058000 78.116000" />
<path d="M116.058000 78.116000
L90.058000 78.116000
" />
<path d="M83.058000 78.116000 A1.000000 1.000000 0.0 0 0 84.058000 79.116000" />
<path d="M84.049999 39.116001 A1.000031 1.000031 0.0 0 0 83.057968 40.116000" />
<path d="M118.058000 79.116000
L122.058000 79.116000
" />
<path d="M116.058000 78.116000
L118.058000 79.116000
" />
<path d="M116.058000 40.117000
L118.057000 39.116000
" />
<path d="M84.050000 39.116000
L88.059000 39.116000
" />
<path d="M83.058000 44.116000
L83.057969 40.116000
" />
<path d="M84.058000 46.116000
L83.058000 44.116000
" />
<path d="M122.058000 46.116000
L122.058000 72.116000
" />
<path d="M90.058000 40.117000
L100.912000 40.117000
" />
<path d="M90.058000 78.116000
L88.058000 79.116000
" />
<path d="M123.058000 44.116000
L122.058000 46.116000
" />
<path d="M83.058000 78.116000
L83.058000 74.116000
" />
<path d="M103.058000 40.117000
L116.058000 40.117000
" />
<path d="M123.058000 74.116000
L123.058000 78.116000
" />
<path d="M88.059000 39.116000
L90.058000 40.117000
" />
<path d="M118.057000 39.116000
L122.057000 39.116000
" />
<path d="M123.058000 44.116000
L123.058000 40.116000
" />
<path d="M100.912000 40.117000
L103.058000 40.117000
" />
<path d="M123.057999 40.115999 A1.000000 1.000000 0.0 0 0 122.056999 39.115999" />
<path d="M84.058000 72.116000
L84.058000 46.116000
" />
<path d="M83.058000 74.116000
L84.058000 72.116000
" />
<path d="M88.058000 79.116000
L84.058000 79.116000
" />
<path d="M122.058000 72.116000
L123.058000 74.116000
" />
<g >
</g>
<g >
</g>
<g >
</g>
<g >
</g>
<g >
</g>
<g >
</g>
<g >
</g>
<g >
</g>
<g >
</g>
<g >
</g>
<g >
</g>
<g >
</g>
<g >
</g>
<g >
</g>
<g >
</g>
<g >
</g>
<g >
</g>
<g >
</g>
<g >
</g>
<g >
</g>
<g >
</g>
<g >
</g>
<g >
</g>
<g >
</g>
<g >
</g>
<g >
</g>
<g >
</g>
<g >
</g>
<g >
</g>
<g >
</g>
<g >
</g>
<g >
</g>
<g >
</g>
<g >
</g>
<g >
</g>
<g >
</g>
<g >
</g>
<g >
</g>
<g >
</g>
<g >
</g>
<g >
</g>
<g >
</g>
<g >
</g>
<g >
</g>
<g >
</g>
<g >
</g>
<g >
</g>
<g >
</g>
<g >
</g>
<g >
</g>
<g >
</g>
<g >
</g>
<g >
</g>
<g >
</g>
<g >
</g>
<g >
</g>
<g >
</g>
<g >
</g>
<g >
</g>
<g >
</g>
<g >
</g>
<g >
</g>
<g >
</g>
<g >
</g>
<g >
</g>
<g >
</g>
<g >
</g>
<g >
</g>
<g >
</g>
<g >
</g>
<g >
</g>
<g >
</g>
<g >
</g>
<g >
</g>
<g >
</g>
<g >
</g>
<g >
</g>
<g >
</g>
<g >
</g>
<g >
</g>
<g >
</g>
<g >
</g>
<g >
</g>
<g >
</g>
</g> 
</svg>
