  0
SECTION
  2
HEADER
  9
$ANGBASE
  50
0.0
  9
$ANGDIR
  70
1
  9
$MEASUREMENT
  70
1
  0
ENDSEC
  0
SECTION
  2
TABLES
  0
TABLE
  2
LTYPE
  70
4
  0
LTYPE
  5
40F
  2
CONTINUOUS
  70
0
  3
Solid line
  72
65
  73
0
  40
0.0
  0
LTYPE
  5
410
  2
DASHDOT
 70
0
  3
Dash Dot ____ _ ____ _
 72
65
 73
4
 40
2.0
 49
1.25
 49
-0.25
 49
0.25
 49
-0.25
  0
LTYPE
  5
411
  2
DASHED
 70
0
  3
Dashed __ __ __ __ __
 72
65
 73
2
 40
0.75
 49
0.5
 49
-0.25
  0
LTYPE
  5
43B
  2
DOTTED
 70
0
  3
Dotted .  .  .  .
 72
65
 73
2
 40
0.2
 49
0.0
 49
-0.2
  0
ENDTAB
  0
TABLE
  2
STYLE
  70
4
  0
STYLE
  2
KICAD
  70
0
  40
0
  41
1
  42
1
  50
0
  71
0
  3
isocp.shx
  0
STYLE
  2
KICADB
  70
0
  40
0
  41
1
  42
1
  50
0
  71
0
  3
isocp.shx
  0
STYLE
  2
KICADI
  70
0
  40
0
  41
1
  42
1
  50
15
  71
0
  3
isocp.shx
  0
STYLE
  2
KICADBI
  70
0
  40
0
  41
1
  42
1
  50
15
  71
0
  3
isocp.shx
  0
ENDTAB
  0
TABLE
  2
LAYER
  70
1
  0
LAYER
  2
BLACK
  70
0
  62
7
  6
CONTINUOUS
  0
ENDTAB
  0
ENDSEC
  0
SECTION
  2
ENTITIES
0
LINE
8
BLACK
6
CONTINUOUS
10
113.0458339999999993
20
-34.9193409999999957
11
113.0509950000000003
21
-34.9236709999999988
0
LINE
8
BLACK
6
CONTINUOUS
10
113.0509950000000003
20
-34.9236709999999988
11
113.0585880000000003
21
-34.9253969999999967
0
LINE
8
BLACK
6
CONTINUOUS
10
113.0585880000000003
20
-34.9253969999999967
11
113.0739090000000004
21
-34.942898999999997
0
LINE
8
BLACK
6
CONTINUOUS
10
113.0739090000000004
20
-34.942898999999997
11
113.0851339999999965
21
-34.9523179999999982
0
LINE
8
BLACK
6
CONTINUOUS
10
113.0851339999999965
20
-34.9523179999999982
11
113.0858849999999904
21
-34.9565799999999953
0
LINE
8
BLACK
6
CONTINUOUS
10
113.0858849999999904
20
-34.9565799999999953
11
113.0891189999999966
21
-34.9602739999999983
0
LINE
8
BLACK
6
CONTINUOUS
10
113.0891189999999966
20
-34.9602739999999983
11
113.1591059999999942
21
-35.123591999999995
0
LINE
8
BLACK
6
CONTINUOUS
10
113.1591059999999942
20
-35.123591999999995
11
113.3294829999999962
21
-35.4354510000000005
0
LINE
8
BLACK
6
CONTINUOUS
10
113.3294829999999962
20
-35.4354510000000005
11
113.5287119999999987
21
-35.7297170000000008
0
LINE
8
BLACK
6
CONTINUOUS
10
113.5287119999999987
20
-35.7297170000000008
11
113.7549889999999948
21
-36.0037289999999999
0
LINE
8
BLACK
6
CONTINUOUS
10
113.7549889999999948
20
-36.0037289999999999
11
114.0062709999999981
21
-36.2550109999999961
0
LINE
8
BLACK
6
CONTINUOUS
10
114.0062709999999981
20
-36.2550109999999961
11
114.2802829999999972
21
-36.4812879999999993
0
LINE
8
BLACK
6
CONTINUOUS
10
114.2802829999999972
20
-36.4812879999999993
11
114.5745489999999904
21
-36.6805170000000018
0
LINE
8
BLACK
6
CONTINUOUS
10
114.5745489999999904
20
-36.6805170000000018
11
114.8864079999999888
21
-36.8508939999999967
0
LINE
8
BLACK
6
CONTINUOUS
10
114.8864079999999888
20
-36.8508939999999967
11
115.0497259999999926
21
-36.9208810000000014
0
LINE
8
BLACK
6
CONTINUOUS
10
115.0497259999999926
20
-36.9208810000000014
11
115.0652079999999984
21
-36.934433999999996
0
LINE
8
BLACK
6
CONTINUOUS
10
115.0652079999999984
20
-36.934433999999996
11
115.0776350000000008
21
-36.9416089999999997
0
LINE
8
BLACK
6
CONTINUOUS
10
115.0776350000000008
20
-36.9416089999999997
11
115.0796129999999948
21
-36.9470430000000007
0
LINE
8
BLACK
6
CONTINUOUS
10
115.0796129999999948
20
-36.9470430000000007
11
115.0846030000000013
21
-36.9514119999999977
0
LINE
8
BLACK
6
CONTINUOUS
10
115.0846030000000013
20
-36.9514119999999977
11
115.090250999999995
21
-36.9762699999999995
0
LINE
8
BLACK
6
CONTINUOUS
10
115.090250999999995
20
-36.9762699999999995
11
115.0951819999999941
21
-36.9898179999999996
0
LINE
8
BLACK
6
CONTINUOUS
10
115.0951819999999941
20
-36.9898179999999996
11
115.0951819999999941
21
-62.9898179999999996
0
LINE
8
BLACK
6
CONTINUOUS
10
115.0951819999999941
20
-62.9898179999999996
11
115.0906589999999881
21
-63.0154700000000005
0
LINE
8
BLACK
6
CONTINUOUS
10
115.0906589999999881
20
-63.0154700000000005
11
115.0863279999999946
21
-63.020629999999997
0
LINE
8
BLACK
6
CONTINUOUS
10
115.0863279999999946
20
-63.020629999999997
11
115.0846030000000013
21
-63.0282239999999945
0
LINE
8
BLACK
6
CONTINUOUS
10
115.0846030000000013
20
-63.0282239999999945
11
115.0671019999999913
21
-63.0435429999999997
0
LINE
8
BLACK
6
CONTINUOUS
10
115.0671019999999913
20
-63.0435429999999997
11
115.0576819999999998
21
-63.0547699999999978
0
LINE
8
BLACK
6
CONTINUOUS
10
115.0576819999999998
20
-63.0547699999999978
11
115.0534179999999935
21
-63.0555209999999988
0
LINE
8
BLACK
6
CONTINUOUS
10
115.0534179999999935
20
-63.0555209999999988
11
115.0497249999999951
21
-63.0587549999999979
0
LINE
8
BLACK
6
CONTINUOUS
10
115.0497249999999951
20
-63.0587549999999979
11
115.0497179999999986
21
-63.0587379999999982
0
LINE
8
BLACK
6
CONTINUOUS
10
115.0497179999999986
20
-63.0587379999999982
11
114.8863989999999973
21
-63.1287239999999983
0
LINE
8
BLACK
6
CONTINUOUS
10
114.8863989999999973
20
-63.1287239999999983
11
114.5745379999999898
21
-63.2990999999999957
0
LINE
8
BLACK
6
CONTINUOUS
10
114.5745379999999898
20
-63.2990999999999957
11
114.2802700000000016
21
-63.4983289999999982
0
LINE
8
BLACK
6
CONTINUOUS
10
114.2802700000000016
20
-63.4983289999999982
11
114.0062569999999909
21
-63.7246079999999964
0
LINE
8
BLACK
6
CONTINUOUS
10
114.0062569999999909
20
-63.7246079999999964
11
113.7549769999999967
21
-63.9758919999999947
0
LINE
8
BLACK
6
CONTINUOUS
10
113.7549769999999967
20
-63.9758919999999947
11
113.5287009999999981
21
-64.2499069999999932
0
LINE
8
BLACK
6
CONTINUOUS
10
113.5287009999999981
20
-64.2499069999999932
11
113.3294759999999997
21
-64.5441769999999906
0
LINE
8
BLACK
6
CONTINUOUS
10
113.3294759999999997
20
-64.5441769999999906
11
113.1591039999999992
21
-64.856039999999993
0
LINE
8
BLACK
6
CONTINUOUS
10
113.1591039999999992
20
-64.856039999999993
11
113.0891199999999941
21
-65.0193610000000035
0
LINE
8
BLACK
6
CONTINUOUS
10
113.0891199999999941
20
-65.0193610000000035
11
113.0891189999999966
21
-65.0193610000000035
0
LINE
8
BLACK
6
CONTINUOUS
10
113.0891189999999966
20
-65.0193610000000035
11
113.0755659999999949
21
-65.0348429999999951
0
LINE
8
BLACK
6
CONTINUOUS
10
113.0755659999999949
20
-65.0348429999999951
11
113.0683909999999912
21
-65.047270999999995
0
LINE
8
BLACK
6
CONTINUOUS
10
113.0683909999999912
20
-65.047270999999995
11
113.0629549999999881
21
-65.0492490000000032
0
LINE
8
BLACK
6
CONTINUOUS
10
113.0629549999999881
20
-65.0492490000000032
11
113.0585889999999978
21
-65.054237999999998
0
LINE
8
BLACK
6
CONTINUOUS
10
113.0585889999999978
20
-65.054237999999998
11
113.0337260000000015
21
-65.0598880000000008
0
LINE
8
BLACK
6
CONTINUOUS
10
113.0337260000000015
20
-65.0598880000000008
11
113.0201819999999913
21
-65.0648180000000025
0
LINE
8
BLACK
6
CONTINUOUS
10
113.0201819999999913
20
-65.0648180000000025
11
87.0201819999999913
21
-65.0648180000000025
0
LINE
8
BLACK
6
CONTINUOUS
10
87.0201819999999913
20
-65.0648180000000025
11
86.9945299999999975
21
-65.0602949999999964
0
LINE
8
BLACK
6
CONTINUOUS
10
86.9945299999999975
20
-65.0602949999999964
11
86.9893689999999964
21
-65.055964000000003
0
LINE
8
BLACK
6
CONTINUOUS
10
86.9893689999999964
20
-65.055964000000003
11
86.9817759999999964
21
-65.0542389999999955
0
LINE
8
BLACK
6
CONTINUOUS
10
86.9817759999999964
20
-65.0542389999999955
11
86.9664539999999988
21
-65.0367359999999906
0
LINE
8
BLACK
6
CONTINUOUS
10
86.9664539999999988
20
-65.0367359999999906
11
86.9552300000000002
21
-65.027317999999994
0
LINE
8
BLACK
6
CONTINUOUS
10
86.9552300000000002
20
-65.027317999999994
11
86.9544779999999946
21
-65.0230549999999994
0
LINE
8
BLACK
6
CONTINUOUS
10
86.9544779999999946
20
-65.0230549999999994
11
86.9512450000000001
21
-65.019362000000001
0
LINE
8
BLACK
6
CONTINUOUS
10
86.9512450000000001
20
-65.019362000000001
11
86.9512440000000026
21
-65.019362000000001
0
LINE
8
BLACK
6
CONTINUOUS
10
86.9512440000000026
20
-65.019362000000001
11
86.8812580000000025
21
-64.8560429999999997
0
LINE
8
BLACK
6
CONTINUOUS
10
86.8812580000000025
20
-64.8560429999999997
11
86.710881999999998
21
-64.5441840000000013
0
LINE
8
BLACK
6
CONTINUOUS
10
86.710881999999998
20
-64.5441840000000013
11
86.5116539999999929
21
-64.2499169999999964
0
LINE
8
BLACK
6
CONTINUOUS
10
86.5116539999999929
20
-64.2499169999999964
11
86.2853769999999969
21
-63.9759049999999974
0
LINE
8
BLACK
6
CONTINUOUS
10
86.2853769999999969
20
-63.9759049999999974
11
86.0340949999999935
21
-63.724622999999994
0
LINE
8
BLACK
6
CONTINUOUS
10
86.0340949999999935
20
-63.724622999999994
11
85.7600829999999945
21
-63.498345999999998
0
LINE
8
BLACK
6
CONTINUOUS
10
85.7600829999999945
20
-63.498345999999998
11
85.4658159999999896
21
-63.299118
0
LINE
8
BLACK
6
CONTINUOUS
10
85.4658159999999896
20
-63.299118
11
85.1539569999999912
21
-63.1287419999999955
0
LINE
8
BLACK
6
CONTINUOUS
10
85.1539569999999912
20
-63.1287419999999955
11
84.9906379999999899
21
-63.0587559999999954
0
LINE
8
BLACK
6
CONTINUOUS
10
84.9906379999999899
20
-63.0587559999999954
11
84.9906379999999899
21
-63.0587549999999979
0
LINE
8
BLACK
6
CONTINUOUS
10
84.9906379999999899
20
-63.0587549999999979
11
84.9751550000000009
21
-63.0452009999999987
0
LINE
8
BLACK
6
CONTINUOUS
10
84.9751550000000009
20
-63.0452009999999987
11
84.9627289999999959
21
-63.0380269999999996
0
LINE
8
BLACK
6
CONTINUOUS
10
84.9627289999999959
20
-63.0380269999999996
11
84.9607499999999902
21
-63.032591999999994
0
LINE
8
BLACK
6
CONTINUOUS
10
84.9607499999999902
20
-63.032591999999994
11
84.9557609999999954
21
-63.0282239999999945
0
LINE
8
BLACK
6
CONTINUOUS
10
84.9557609999999954
20
-63.0282239999999945
11
84.9501109999999926
21
-63.0033600000000007
0
LINE
8
BLACK
6
CONTINUOUS
10
84.9501109999999926
20
-63.0033600000000007
11
84.9451820000000026
21
-62.9898179999999996
0
LINE
8
BLACK
6
CONTINUOUS
10
84.9451820000000026
20
-62.9898179999999996
11
84.9451820000000026
21
-36.9898179999999996
0
LINE
8
BLACK
6
CONTINUOUS
10
84.9451820000000026
20
-36.9898179999999996
11
84.9497049999999945
21
-36.9641659999999987
0
LINE
8
BLACK
6
CONTINUOUS
10
84.9497049999999945
20
-36.9641659999999987
11
84.9540360000000021
21
-36.9590040000000002
0
LINE
8
BLACK
6
CONTINUOUS
10
84.9540360000000021
20
-36.9590040000000002
11
84.9557609999999954
21
-36.9514129999999952
0
LINE
8
BLACK
6
CONTINUOUS
10
84.9557609999999954
20
-36.9514129999999952
11
84.9732609999999937
21
-36.936091999999995
0
LINE
8
BLACK
6
CONTINUOUS
10
84.9732609999999937
20
-36.936091999999995
11
84.9826819999999969
21
-36.9248660000000015
0
LINE
8
BLACK
6
CONTINUOUS
10
84.9826819999999969
20
-36.9248660000000015
11
84.986943999999994
21
-36.9241139999999959
0
LINE
8
BLACK
6
CONTINUOUS
10
84.986943999999994
20
-36.9241139999999959
11
84.9906379999999899
21
-36.9208810000000014
0
LINE
8
BLACK
6
CONTINUOUS
10
84.9906379999999899
20
-36.9208810000000014
11
84.9906299999999959
21
-36.9208640000000017
0
LINE
8
BLACK
6
CONTINUOUS
10
84.9906299999999959
20
-36.9208640000000017
11
85.1539479999999998
21
-36.8508759999999995
0
LINE
8
BLACK
6
CONTINUOUS
10
85.1539479999999998
20
-36.8508759999999995
11
85.4658050000000031
21
-36.6804989999999975
0
LINE
8
BLACK
6
CONTINUOUS
10
85.4658050000000031
20
-36.6804989999999975
11
85.7600699999999989
21
-36.4812709999999996
0
LINE
8
BLACK
6
CONTINUOUS
10
85.7600699999999989
20
-36.4812709999999996
11
86.0340819999999979
21
-36.254995000000001
0
LINE
8
BLACK
6
CONTINUOUS
10
86.0340819999999979
20
-36.254995000000001
11
86.2853640000000013
21
-36.0037159999999972
0
LINE
8
BLACK
6
CONTINUOUS
10
86.2853640000000013
20
-36.0037159999999972
11
86.5116429999999923
21
-35.7297069999999977
0
LINE
8
BLACK
6
CONTINUOUS
10
86.5116429999999923
20
-35.7297069999999977
11
86.7108739999999898
21
-35.4354439999999968
0
LINE
8
BLACK
6
CONTINUOUS
10
86.7108739999999898
20
-35.4354439999999968
11
86.8812559999999934
21
-35.1235889999999955
0
LINE
8
BLACK
6
CONTINUOUS
10
86.8812559999999934
20
-35.1235889999999955
11
86.9512450000000001
21
-34.9602719999999962
0
LINE
8
BLACK
6
CONTINUOUS
10
86.9512450000000001
20
-34.9602719999999962
11
86.9512459999999976
21
-34.9602730000000008
0
LINE
8
BLACK
6
CONTINUOUS
10
86.9512459999999976
20
-34.9602730000000008
11
86.9647980000000018
21
-34.9447909999999951
0
LINE
8
BLACK
6
CONTINUOUS
10
86.9647980000000018
20
-34.9447909999999951
11
86.9719729999999913
21
-34.9323649999999972
0
LINE
8
BLACK
6
CONTINUOUS
10
86.9719729999999913
20
-34.9323649999999972
11
86.9774079999999969
21
-34.9303859999999986
0
LINE
8
BLACK
6
CONTINUOUS
10
86.9774079999999969
20
-34.9303859999999986
11
86.9817769999999939
21
-34.9253959999999992
0
LINE
8
BLACK
6
CONTINUOUS
10
86.9817769999999939
20
-34.9253959999999992
11
87.0066360000000003
21
-34.9197479999999985
0
LINE
8
BLACK
6
CONTINUOUS
10
87.0066360000000003
20
-34.9197479999999985
11
87.0201819999999913
21
-34.9148179999999968
0
LINE
8
BLACK
6
CONTINUOUS
10
87.0201819999999913
20
-34.9148179999999968
11
113.0201819999999913
21
-34.9148179999999968
0
LINE
8
BLACK
6
CONTINUOUS
10
113.0201819999999913
20
-34.9148179999999968
11
113.0458339999999993
21
-34.9193409999999957
0
LINE
8
BLACK
6
CONTINUOUS
10
87.0670199999999994
20
-35.0648179999999954
11
86.9276940000000025
21
-35.3514319999999955
0
LINE
8
BLACK
6
CONTINUOUS
10
86.9276940000000025
20
-35.3514319999999955
11
86.7354619999999983
21
-35.6666680000000014
0
LINE
8
BLACK
6
CONTINUOUS
10
86.7354619999999983
20
-35.6666680000000014
11
86.5141579999999948
21
-35.9622209999999995
0
LINE
8
BLACK
6
CONTINUOUS
10
86.5141579999999948
20
-35.9622209999999995
11
86.2657839999999965
21
-36.2354179999999957
0
LINE
8
BLACK
6
CONTINUOUS
10
86.2657839999999965
20
-36.2354179999999957
11
85.9925829999999962
21
-36.4837890000000016
0
LINE
8
BLACK
6
CONTINUOUS
10
85.9925829999999962
20
-36.4837890000000016
11
85.6970280000000031
21
-36.705089000000001
0
LINE
8
BLACK
6
CONTINUOUS
10
85.6970280000000031
20
-36.705089000000001
11
85.3817899999999952
21
-36.897317000000001
0
LINE
8
BLACK
6
CONTINUOUS
10
85.3817899999999952
20
-36.897317000000001
11
85.0951819999999941
21
-37.0366349999999969
0
LINE
8
BLACK
6
CONTINUOUS
10
85.0951819999999941
20
-37.0366349999999969
11
85.0951819999999941
21
-62.942978999999994
0
LINE
8
BLACK
6
CONTINUOUS
10
85.0951819999999941
20
-62.942978999999994
11
85.3817990000000009
21
-63.0822999999999965
0
LINE
8
BLACK
6
CONTINUOUS
10
85.3817990000000009
20
-63.0822999999999965
11
85.6970400000000012
21
-63.2745269999999991
0
LINE
8
BLACK
6
CONTINUOUS
10
85.6970400000000012
20
-63.2745269999999991
11
85.9925969999999893
21
-63.4958290000000005
0
LINE
8
BLACK
6
CONTINUOUS
10
85.9925969999999893
20
-63.4958290000000005
11
86.2657969999999921
21
-63.7442029999999988
0
LINE
8
BLACK
6
CONTINUOUS
10
86.2657969999999921
20
-63.7442029999999988
11
86.5141709999999904
21
-64.0174030000000016
0
LINE
8
BLACK
6
CONTINUOUS
10
86.5141709999999904
20
-64.0174030000000016
11
86.7354729999999989
21
-64.3129600000000039
0
LINE
8
BLACK
6
CONTINUOUS
10
86.7354729999999989
20
-64.3129600000000039
11
86.9277000000000015
21
-64.62820099999999
0
LINE
8
BLACK
6
CONTINUOUS
10
86.9277000000000015
20
-64.62820099999999
11
87.0670199999999994
21
-64.9148179999999968
0
LINE
8
BLACK
6
CONTINUOUS
10
87.0670199999999994
20
-64.9148179999999968
11
112.9733419999999882
21
-64.9148179999999968
0
LINE
8
BLACK
6
CONTINUOUS
10
112.9733419999999882
20
-64.9148179999999968
11
113.1126579999999962
21
-64.6281979999999976
0
LINE
8
BLACK
6
CONTINUOUS
10
113.1126579999999962
20
-64.6281979999999976
11
113.3048829999999896
21
-64.3129529999999932
0
LINE
8
BLACK
6
CONTINUOUS
10
113.3048829999999896
20
-64.3129529999999932
11
113.5261819999999915
21
-64.0173929999999984
0
LINE
8
BLACK
6
CONTINUOUS
10
113.5261819999999915
20
-64.0173929999999984
11
113.7745549999999923
21
-63.7441889999999987
0
LINE
8
BLACK
6
CONTINUOUS
10
113.7745549999999923
20
-63.7441889999999987
11
114.0477559999999926
21
-63.4958129999999983
0
LINE
8
BLACK
6
CONTINUOUS
10
114.0477559999999926
20
-63.4958129999999983
11
114.3433129999999949
21
-63.2745099999999994
0
LINE
8
BLACK
6
CONTINUOUS
10
114.3433129999999949
20
-63.2745099999999994
11
114.6585549999999927
21
-63.0822819999999993
0
LINE
8
BLACK
6
CONTINUOUS
10
114.6585549999999927
20
-63.0822819999999993
11
114.9451819999999884
21
-62.9429569999999998
0
LINE
8
BLACK
6
CONTINUOUS
10
114.9451819999999884
20
-62.9429569999999998
11
114.9451819999999884
21
-37.0366569999999982
0
LINE
8
BLACK
6
CONTINUOUS
10
114.9451819999999884
20
-37.0366569999999982
11
114.6585649999999958
21
-36.8973349999999982
0
LINE
8
BLACK
6
CONTINUOUS
10
114.6585649999999958
20
-36.8973349999999982
11
114.343324999999993
21
-36.7051069999999982
0
LINE
8
BLACK
6
CONTINUOUS
10
114.343324999999993
20
-36.7051069999999982
11
114.0477689999999882
21
-36.4838049999999967
0
LINE
8
BLACK
6
CONTINUOUS
10
114.0477689999999882
20
-36.4838049999999967
11
113.7745689999999996
21
-36.2354309999999984
0
LINE
8
BLACK
6
CONTINUOUS
10
113.7745689999999996
20
-36.2354309999999984
11
113.5261950000000013
21
-35.9622309999999956
0
LINE
8
BLACK
6
CONTINUOUS
10
113.5261950000000013
20
-35.9622309999999956
11
113.3048929999999928
21
-35.6666749999999979
0
LINE
8
BLACK
6
CONTINUOUS
10
113.3048929999999928
20
-35.6666749999999979
11
113.1126649999999927
21
-35.3514349999999951
0
LINE
8
BLACK
6
CONTINUOUS
10
113.1126649999999927
20
-35.3514349999999951
11
112.9733429999999998
21
-35.0648179999999954
0
LINE
8
BLACK
6
CONTINUOUS
10
112.9733429999999998
20
-35.0648179999999954
11
87.0670199999999994
21
-35.0648179999999954
  0
ENDSEC
  0
EOF
