  0
SECTION
  2
HEADER
  9
$ANGBASE
  50
0.0
  9
$ANGDIR
  70
1
  9
$MEASUREMENT
  70
1
  0
ENDSEC
  0
SECTION
  2
TABLES
  0
TABLE
  2
LTYPE
  70
4
  0
LTYPE
  5
40F
  2
CONTINUOUS
  70
0
  3
Solid line
  72
65
  73
0
  40
0.0
  0
LTYPE
  5
410
  2
DASHDOT
 70
0
  3
Dash Dot ____ _ ____ _
 72
65
 73
4
 40
2.0
 49
1.25
 49
-0.25
 49
0.25
 49
-0.25
  0
LTYPE
  5
411
  2
DASHED
 70
0
  3
Dashed __ __ __ __ __
 72
65
 73
2
 40
0.75
 49
0.5
 49
-0.25
  0
LTYPE
  5
43B
  2
DOTTED
 70
0
  3
Dotted .  .  .  .
 72
65
 73
2
 40
0.2
 49
0.0
 49
-0.2
  0
ENDTAB
  0
TABLE
  2
STYLE
  70
4
  0
STYLE
  2
KICAD
  70
0
  40
0
  41
1
  42
1
  50
0
  71
0
  3
isocp.shx
  0
STYLE
  2
KICADB
  70
0
  40
0
  41
1
  42
1
  50
0
  71
0
  3
isocp.shx
  0
STYLE
  2
KICADI
  70
0
  40
0
  41
1
  42
1
  50
15
  71
0
  3
isocp.shx
  0
STYLE
  2
KICADBI
  70
0
  40
0
  41
1
  42
1
  50
15
  71
0
  3
isocp.shx
  0
ENDTAB
  0
TABLE
  2
LAYER
  70
1
  0
LAYER
  2
BLACK
  70
0
  62
7
  6
CONTINUOUS
  0
ENDTAB
  0
ENDSEC
  0
SECTION
  2
ENTITIES
0
LINE
8
BLACK
6
CONTINUOUS
10
111.3020209999999963
20
-68.1418919999999986
11
111.3166659999999979
21
-68.1772469999999942
0
LINE
8
BLACK
6
CONTINUOUS
10
111.3166659999999979
20
-68.1772469999999942
11
111.3166659999999979
21
-68.4629609999999929
0
LINE
8
BLACK
6
CONTINUOUS
10
111.3166659999999979
20
-68.4629609999999929
11
111.3135159999999928
21
-68.4705629999999985
0
LINE
8
BLACK
6
CONTINUOUS
10
111.3135159999999928
20
-68.4705629999999985
11
111.3140999999999963
21
-68.4787719999999922
0
LINE
8
BLACK
6
CONTINUOUS
10
111.3140999999999963
20
-68.4787719999999922
11
111.2950529999999958
21
-68.5359150000000028
0
LINE
8
BLACK
6
CONTINUOUS
10
111.2950529999999958
20
-68.5359150000000028
11
111.2874269999999939
21
-68.5447070000000025
0
LINE
8
BLACK
6
CONTINUOUS
10
111.2874269999999939
20
-68.5447070000000025
11
111.2829739999999958
21
-68.555458999999999
0
LINE
8
BLACK
6
CONTINUOUS
10
111.2829739999999958
20
-68.555458999999999
11
111.2448779999999999
21
-68.5935549999999949
0
LINE
8
BLACK
6
CONTINUOUS
10
111.2448779999999999
20
-68.5935549999999949
11
111.2341259999999892
21
-68.598007999999993
0
LINE
8
BLACK
6
CONTINUOUS
10
111.2341259999999892
20
-68.598007999999993
11
111.2253339999999895
21
-68.6056339999999949
0
LINE
8
BLACK
6
CONTINUOUS
10
111.2253339999999895
20
-68.6056339999999949
11
111.1681919999999906
21
-68.6246809999999954
0
LINE
8
BLACK
6
CONTINUOUS
10
111.1681919999999906
20
-68.6246809999999954
11
111.1599829999999969
21
-68.6240969999999919
0
LINE
8
BLACK
6
CONTINUOUS
10
111.1599829999999969
20
-68.6240969999999919
11
111.1523809999999912
21
-68.627246999999997
0
LINE
8
BLACK
6
CONTINUOUS
10
111.1523809999999912
20
-68.627246999999997
11
111.1142849999999953
21
-68.627246999999997
0
LINE
8
BLACK
6
CONTINUOUS
10
111.1142849999999953
20
-68.627246999999997
11
111.0789299999999997
21
-68.6126019999999954
0
LINE
8
BLACK
6
CONTINUOUS
10
111.0789299999999997
20
-68.6126019999999954
11
111.0642849999999981
21
-68.5772469999999998
0
LINE
8
BLACK
6
CONTINUOUS
10
111.0642849999999981
20
-68.5772469999999998
11
111.0789299999999997
21
-68.54189199999999
0
LINE
8
BLACK
6
CONTINUOUS
10
111.0789299999999997
20
-68.54189199999999
11
111.1142849999999953
21
-68.5272470000000027
0
LINE
8
BLACK
6
CONTINUOUS
10
111.1142849999999953
20
-68.5272470000000027
11
111.1442679999999967
21
-68.5272470000000027
0
LINE
8
BLACK
6
CONTINUOUS
10
111.1442679999999967
20
-68.5272470000000027
11
111.1825139999999976
21
-68.5144980000000032
0
LINE
8
BLACK
6
CONTINUOUS
10
111.1825139999999976
20
-68.5144980000000032
11
111.2039169999999899
21
-68.4930949999999967
0
LINE
8
BLACK
6
CONTINUOUS
10
111.2039169999999899
20
-68.4930949999999967
11
111.2166659999999894
21
-68.4548479999999984
0
LINE
8
BLACK
6
CONTINUOUS
10
111.2166659999999894
20
-68.4548479999999984
11
111.2166659999999894
21
-68.1772469999999942
0
LINE
8
BLACK
6
CONTINUOUS
10
111.2166659999999894
20
-68.1772469999999942
11
111.2313109999999909
21
-68.1418919999999986
0
LINE
8
BLACK
6
CONTINUOUS
10
111.2313109999999909
20
-68.1418919999999986
11
111.2666660000000007
21
-68.127246999999997
0
LINE
8
BLACK
6
CONTINUOUS
10
111.2666660000000007
20
-68.127246999999997
11
111.3020209999999963
21
-68.1418919999999986
0
LINE
8
BLACK
6
CONTINUOUS
10
111.6829199999999958
20
-68.133979999999994
11
111.6995909999999981
21
-68.1396179999999987
0
LINE
8
BLACK
6
CONTINUOUS
10
111.6995909999999981
20
-68.1396179999999987
11
111.7003789999999981
21
-68.1412109999999984
0
LINE
8
BLACK
6
CONTINUOUS
10
111.7003789999999981
20
-68.1412109999999984
11
111.702021000000002
21
-68.1418919999999986
0
LINE
8
BLACK
6
CONTINUOUS
10
111.702021000000002
20
-68.1418919999999986
11
111.708753999999999
21
-68.1581469999999996
0
LINE
8
BLACK
6
CONTINUOUS
10
111.708753999999999
20
-68.1581469999999996
11
111.7165549999999996
21
-68.1739209999999929
0
LINE
8
BLACK
6
CONTINUOUS
10
111.7165549999999996
20
-68.1739209999999929
11
111.7159849999999892
21
-68.1756039999999928
0
LINE
8
BLACK
6
CONTINUOUS
10
111.7159849999999892
20
-68.1756039999999928
11
111.7166659999999894
21
-68.1772469999999942
0
LINE
8
BLACK
6
CONTINUOUS
10
111.7166659999999894
20
-68.1772469999999942
11
111.7099319999999949
21
-68.1935009999999977
0
LINE
8
BLACK
6
CONTINUOUS
10
111.7099319999999949
20
-68.1935009999999977
11
111.7042950000000019
21
-68.210172
0
LINE
8
BLACK
6
CONTINUOUS
10
111.7042950000000019
20
-68.210172
11
111.6309689999999932
21
-68.293972999999994
0
LINE
8
BLACK
6
CONTINUOUS
10
111.6309689999999932
20
-68.293972999999994
11
111.6509319999999974
21
-68.303955000000002
0
LINE
8
BLACK
6
CONTINUOUS
10
111.6509319999999974
20
-68.303955000000002
11
111.6563230000000004
21
-68.3101709999999969
0
LINE
8
BLACK
6
CONTINUOUS
10
111.6563230000000004
20
-68.3101709999999969
11
111.6639249999999919
21
-68.3133199999999903
0
LINE
8
BLACK
6
CONTINUOUS
10
111.6639249999999919
20
-68.3133199999999903
11
111.6829729999999898
21
-68.3323669999999908
0
LINE
8
BLACK
6
CONTINUOUS
10
111.6829729999999898
20
-68.3323669999999908
11
111.6861219999999975
21
-68.3399689999999964
0
LINE
8
BLACK
6
CONTINUOUS
10
111.6861219999999975
20
-68.3399689999999964
11
111.692340999999999
21
-68.3453629999999919
0
LINE
8
BLACK
6
CONTINUOUS
10
111.692340999999999
20
-68.3453629999999919
11
111.7113879999999995
21
-68.383459000000002
0
LINE
8
BLACK
6
CONTINUOUS
10
111.7113879999999995
20
-68.383459000000002
11
111.7122119999999938
21
-68.3950669999999974
0
LINE
8
BLACK
6
CONTINUOUS
10
111.7122119999999938
20
-68.3950669999999974
11
111.7166659999999894
21
-68.4058189999999939
0
LINE
8
BLACK
6
CONTINUOUS
10
111.7166659999999894
20
-68.4058189999999939
11
111.7166659999999894
21
-68.501057000000003
0
LINE
8
BLACK
6
CONTINUOUS
10
111.7166659999999894
20
-68.501057000000003
11
111.7122109999999964
21
-68.511809999999997
0
LINE
8
BLACK
6
CONTINUOUS
10
111.7122109999999964
20
-68.511809999999997
11
111.711387000000002
21
-68.5234169999999949
0
LINE
8
BLACK
6
CONTINUOUS
10
111.711387000000002
20
-68.5234169999999949
11
111.692340999999999
21
-68.5615119999999933
0
LINE
8
BLACK
6
CONTINUOUS
10
111.692340999999999
20
-68.5615119999999933
11
111.6861219999999975
21
-68.5669039999999939
0
LINE
8
BLACK
6
CONTINUOUS
10
111.6861219999999975
20
-68.5669039999999939
11
111.6829740000000015
21
-68.574506999999997
0
LINE
8
BLACK
6
CONTINUOUS
10
111.6829740000000015
20
-68.574506999999997
11
111.6639259999999894
21
-68.5935549999999949
0
LINE
8
BLACK
6
CONTINUOUS
10
111.6639259999999894
20
-68.5935549999999949
11
111.6563230000000004
21
-68.5967040000000026
0
LINE
8
BLACK
6
CONTINUOUS
10
111.6563230000000004
20
-68.5967040000000026
11
111.6509309999999999
21
-68.6029219999999924
0
LINE
8
BLACK
6
CONTINUOUS
10
111.6509309999999999
20
-68.6029219999999924
11
111.6128360000000015
21
-68.6219689999999929
0
LINE
8
BLACK
6
CONTINUOUS
10
111.6128360000000015
20
-68.6219689999999929
11
111.6012259999999969
21
-68.6227930000000015
0
LINE
8
BLACK
6
CONTINUOUS
10
111.6012259999999969
20
-68.6227930000000015
11
111.5904759999999953
21
-68.627246999999997
0
LINE
8
BLACK
6
CONTINUOUS
10
111.5904759999999953
20
-68.627246999999997
11
111.4761899999999883
21
-68.627246999999997
0
LINE
8
BLACK
6
CONTINUOUS
10
111.4761899999999883
20
-68.627246999999997
11
111.4654359999999969
21
-68.6227919999999898
0
LINE
8
BLACK
6
CONTINUOUS
10
111.4654359999999969
20
-68.6227919999999898
11
111.4538299999999964
21
-68.6219679999999954
0
LINE
8
BLACK
6
CONTINUOUS
10
111.4538299999999964
20
-68.6219679999999954
11
111.415734999999998
21
-68.6029219999999924
0
LINE
8
BLACK
6
CONTINUOUS
10
111.415734999999998
20
-68.6029219999999924
11
111.410342
21
-68.5967029999999909
0
LINE
8
BLACK
6
CONTINUOUS
10
111.410342
20
-68.5967029999999909
11
111.4027399999999943
21
-68.5935549999999949
0
LINE
8
BLACK
6
CONTINUOUS
10
111.4027399999999943
20
-68.5935549999999949
11
111.3836919999999964
21
-68.574506999999997
0
LINE
8
BLACK
6
CONTINUOUS
10
111.3836919999999964
20
-68.574506999999997
11
111.3690469999999948
21
-68.5391520000000014
0
LINE
8
BLACK
6
CONTINUOUS
10
111.3690469999999948
20
-68.5391520000000014
11
111.3836919999999964
21
-68.5037969999999916
0
LINE
8
BLACK
6
CONTINUOUS
10
111.3836919999999964
20
-68.5037969999999916
11
111.419046999999992
21
-68.48915199999999
0
LINE
8
BLACK
6
CONTINUOUS
10
111.419046999999992
20
-68.48915199999999
11
111.4544020000000017
21
-68.5037969999999916
0
LINE
8
BLACK
6
CONTINUOUS
10
111.4544020000000017
20
-68.5037969999999916
11
111.4677099999999967
21
-68.5171050000000008
0
LINE
8
BLACK
6
CONTINUOUS
10
111.4677099999999967
20
-68.5171050000000008
11
111.4879940000000005
21
-68.5272470000000027
0
LINE
8
BLACK
6
CONTINUOUS
10
111.4879940000000005
20
-68.5272470000000027
11
111.5786729999999949
21
-68.5272470000000027
0
LINE
8
BLACK
6
CONTINUOUS
10
111.5786729999999949
20
-68.5272470000000027
11
111.5989529999999945
21
-68.5171069999999958
0
LINE
8
BLACK
6
CONTINUOUS
10
111.5989529999999945
20
-68.5171069999999958
11
111.6065239999999932
21
-68.5095359999999971
0
LINE
8
BLACK
6
CONTINUOUS
10
111.6065239999999932
20
-68.5095359999999971
11
111.6166659999999951
21
-68.4892529999999908
0
LINE
8
BLACK
6
CONTINUOUS
10
111.6166659999999951
20
-68.4892529999999908
11
111.6166659999999951
21
-68.4176219999999944
0
LINE
8
BLACK
6
CONTINUOUS
10
111.6166659999999951
20
-68.4176219999999944
11
111.6065249999999907
21
-68.3973399999999998
0
LINE
8
BLACK
6
CONTINUOUS
10
111.6065249999999907
20
-68.3973399999999998
11
111.5989529999999945
21
-68.3897680000000037
0
LINE
8
BLACK
6
CONTINUOUS
10
111.5989529999999945
20
-68.3897680000000037
11
111.5786729999999949
21
-68.3796279999999967
0
LINE
8
BLACK
6
CONTINUOUS
10
111.5786729999999949
20
-68.3796279999999967
11
111.5333329999999989
21
-68.3796279999999967
0
LINE
8
BLACK
6
CONTINUOUS
10
111.5333329999999989
20
-68.3796279999999967
11
111.5170779999999979
21
-68.3728940000000023
0
LINE
8
BLACK
6
CONTINUOUS
10
111.5170779999999979
20
-68.3728940000000023
11
111.5004079999999931
21
-68.3672569999999951
0
LINE
8
BLACK
6
CONTINUOUS
10
111.5004079999999931
20
-68.3672569999999951
11
111.4996189999999956
21
-68.3656629999999979
0
LINE
8
BLACK
6
CONTINUOUS
10
111.4996189999999956
20
-68.3656629999999979
11
111.4979779999999892
21
-68.3649829999999952
0
LINE
8
BLACK
6
CONTINUOUS
10
111.4979779999999892
20
-68.3649829999999952
11
111.4912439999999947
21
-68.3487269999999967
0
LINE
8
BLACK
6
CONTINUOUS
10
111.4912439999999947
20
-68.3487269999999967
11
111.4834439999999915
21
-68.3329540000000009
0
LINE
8
BLACK
6
CONTINUOUS
10
111.4834439999999915
20
-68.3329540000000009
11
111.4840129999999903
21
-68.3312700000000035
0
LINE
8
BLACK
6
CONTINUOUS
10
111.4840129999999903
20
-68.3312700000000035
11
111.4833330000000018
21
-68.3296279999999996
0
LINE
8
BLACK
6
CONTINUOUS
10
111.4833330000000018
20
-68.3296279999999996
11
111.4900659999999988
21
-68.3133729999999986
0
LINE
8
BLACK
6
CONTINUOUS
10
111.4900659999999988
20
-68.3133729999999986
11
111.4957039999999893
21
-68.2967029999999937
0
LINE
8
BLACK
6
CONTINUOUS
10
111.4957039999999893
20
-68.2967029999999937
11
111.5564779999999985
21
-68.2272469999999913
0
LINE
8
BLACK
6
CONTINUOUS
10
111.5564779999999985
20
-68.2272469999999913
11
111.419046999999992
21
-68.2272469999999913
0
LINE
8
BLACK
6
CONTINUOUS
10
111.419046999999992
20
-68.2272469999999913
11
111.3836919999999964
21
-68.212602000000004
0
LINE
8
BLACK
6
CONTINUOUS
10
111.3836919999999964
20
-68.212602000000004
11
111.3690469999999948
21
-68.1772469999999942
0
LINE
8
BLACK
6
CONTINUOUS
10
111.3690469999999948
20
-68.1772469999999942
11
111.3836919999999964
21
-68.1418919999999986
0
LINE
8
BLACK
6
CONTINUOUS
10
111.3836919999999964
20
-68.1418919999999986
11
111.419046999999992
21
-68.127246999999997
0
LINE
8
BLACK
6
CONTINUOUS
10
111.419046999999992
20
-68.127246999999997
11
111.6666659999999922
21
-68.127246999999997
0
LINE
8
BLACK
6
CONTINUOUS
10
111.6666659999999922
20
-68.127246999999997
11
111.6829199999999958
21
-68.133979999999994
0
LINE
8
BLACK
6
CONTINUOUS
10
112.6999999999999886
20
-65.1799999999999926
11
112.7353549999999984
21
-65.1946449999999942
0
LINE
8
BLACK
6
CONTINUOUS
10
112.7353549999999984
20
-65.1946449999999942
11
112.75
21
-65.230000000000004
0
LINE
8
BLACK
6
CONTINUOUS
10
112.75
20
-65.230000000000004
11
112.75
21
-67.769999999999996
0
LINE
8
BLACK
6
CONTINUOUS
10
112.75
20
-67.769999999999996
11
112.7353549999999984
21
-67.8053549999999916
0
LINE
8
BLACK
6
CONTINUOUS
10
112.7353549999999984
20
-67.8053549999999916
11
112.6999999999999886
21
-67.8199999999999932
0
LINE
8
BLACK
6
CONTINUOUS
10
112.6999999999999886
20
-67.8199999999999932
11
87.2999999999999972
21
-67.8199999999999932
0
LINE
8
BLACK
6
CONTINUOUS
10
87.2999999999999972
20
-67.8199999999999932
11
87.2646450000000016
21
-67.8053549999999916
0
LINE
8
BLACK
6
CONTINUOUS
10
87.2646450000000016
20
-67.8053549999999916
11
87.25
21
-67.769999999999996
0
LINE
8
BLACK
6
CONTINUOUS
10
87.25
20
-67.769999999999996
11
87.25
21
-65.230000000000004
0
LINE
8
BLACK
6
CONTINUOUS
10
87.25
20
-65.230000000000004
11
87.2646450000000016
21
-65.1946449999999942
0
LINE
8
BLACK
6
CONTINUOUS
10
87.2646450000000016
20
-65.1946449999999942
11
87.2999999999999972
21
-65.1799999999999926
0
LINE
8
BLACK
6
CONTINUOUS
10
87.2999999999999972
20
-65.1799999999999926
11
112.6999999999999886
21
-65.1799999999999926
0
LINE
8
BLACK
6
CONTINUOUS
10
87.3499999999999943
20
-65.2800000000000011
11
87.3499999999999943
21
-67.7199999999999989
0
LINE
8
BLACK
6
CONTINUOUS
10
87.3499999999999943
20
-67.7199999999999989
11
112.6499999999999915
21
-67.7199999999999989
0
LINE
8
BLACK
6
CONTINUOUS
10
112.6499999999999915
20
-67.7199999999999989
11
112.6499999999999915
21
-65.2800000000000011
0
LINE
8
BLACK
6
CONTINUOUS
10
112.6499999999999915
20
-65.2800000000000011
11
87.3499999999999943
21
-65.2800000000000011
0
LINE
8
BLACK
6
CONTINUOUS
10
111.5549999999999926
20
-64.6200960000000038
11
111.6099040000000002
21
-64.6749999999999972
0
LINE
8
BLACK
6
CONTINUOUS
10
111.6099040000000002
20
-64.6749999999999972
11
111.6299999999999955
21
-64.75
0
LINE
8
BLACK
6
CONTINUOUS
10
111.6299999999999955
20
-64.75
11
111.6099040000000002
21
-64.8250000000000028
0
LINE
8
BLACK
6
CONTINUOUS
10
111.6099040000000002
20
-64.8250000000000028
11
111.5549999999999926
21
-64.8799039999999962
0
LINE
8
BLACK
6
CONTINUOUS
10
111.5549999999999926
20
-64.8799039999999962
11
111.4799999999999898
21
-64.8999999999999915
0
LINE
8
BLACK
6
CONTINUOUS
10
111.4799999999999898
20
-64.8999999999999915
11
111.4050000000000011
21
-64.8799039999999962
0
LINE
8
BLACK
6
CONTINUOUS
10
111.4050000000000011
20
-64.8799039999999962
11
111.3500959999999935
21
-64.8250000000000028
0
LINE
8
BLACK
6
CONTINUOUS
10
111.3500959999999935
20
-64.8250000000000028
11
111.3299999999999983
21
-64.75
0
LINE
8
BLACK
6
CONTINUOUS
10
111.3299999999999983
20
-64.75
11
111.3500959999999935
21
-64.6749999999999972
0
LINE
8
BLACK
6
CONTINUOUS
10
111.3500959999999935
20
-64.6749999999999972
11
111.4050000000000011
21
-64.6200960000000038
0
LINE
8
BLACK
6
CONTINUOUS
10
111.4050000000000011
20
-64.6200960000000038
11
111.4799999999999898
21
-64.5999999999999943
0
LINE
8
BLACK
6
CONTINUOUS
10
111.4799999999999898
20
-64.5999999999999943
11
111.5549999999999926
21
-64.6200960000000038
0
LINE
8
BLACK
6
CONTINUOUS
10
89.9532260000000008
20
-61.5495739999999998
11
89.970799999999997
21
-61.5919999999999987
0
LINE
8
BLACK
6
CONTINUOUS
10
89.970799999999997
20
-61.5919999999999987
11
89.970799999999997
21
-63.5819999999999936
0
LINE
8
BLACK
6
CONTINUOUS
10
89.970799999999997
20
-63.5819999999999936
11
91.9607999999999919
21
-63.5819999999999936
0
LINE
8
BLACK
6
CONTINUOUS
10
91.9607999999999919
20
-63.5819999999999936
11
92.003225999999998
21
-63.5995739999999969
0
LINE
8
BLACK
6
CONTINUOUS
10
92.003225999999998
20
-63.5995739999999969
11
92.0207999999999942
21
-63.6419999999999959
0
LINE
8
BLACK
6
CONTINUOUS
10
92.0207999999999942
20
-63.6419999999999959
11
92.003225999999998
21
-63.6844259999999949
0
LINE
8
BLACK
6
CONTINUOUS
10
92.003225999999998
20
-63.6844259999999949
11
91.9607999999999919
21
-63.7019999999999982
0
LINE
8
BLACK
6
CONTINUOUS
10
91.9607999999999919
20
-63.7019999999999982
11
89.9107999999999947
21
-63.7019999999999982
0
LINE
8
BLACK
6
CONTINUOUS
10
89.9107999999999947
20
-63.7019999999999982
11
89.8683740000000029
21
-63.6844259999999949
0
LINE
8
BLACK
6
CONTINUOUS
10
89.8683740000000029
20
-63.6844259999999949
11
89.8507999999999925
21
-63.6419999999999959
0
LINE
8
BLACK
6
CONTINUOUS
10
89.8507999999999925
20
-63.6419999999999959
11
89.8507999999999925
21
-61.5919999999999987
0
LINE
8
BLACK
6
CONTINUOUS
10
89.8507999999999925
20
-61.5919999999999987
11
89.8683740000000029
21
-61.5495739999999998
0
LINE
8
BLACK
6
CONTINUOUS
10
89.8683740000000029
20
-61.5495739999999998
11
89.9107999999999947
21
-61.5319999999999965
0
LINE
8
BLACK
6
CONTINUOUS
10
89.9107999999999947
20
-61.5319999999999965
11
89.9532260000000008
21
-61.5495739999999998
0
LINE
8
BLACK
6
CONTINUOUS
10
85.3250000000000028
20
-61.3500960000000006
11
85.3799039999999962
21
-61.404999999999994
0
LINE
8
BLACK
6
CONTINUOUS
10
85.3799039999999962
20
-61.404999999999994
11
85.3999999999999915
21
-61.4799999999999969
0
LINE
8
BLACK
6
CONTINUOUS
10
85.3999999999999915
20
-61.4799999999999969
11
85.3799039999999962
21
-61.5549999999999997
0
LINE
8
BLACK
6
CONTINUOUS
10
85.3799039999999962
20
-61.5549999999999997
11
85.3250000000000028
21
-61.6099040000000002
0
LINE
8
BLACK
6
CONTINUOUS
10
85.3250000000000028
20
-61.6099040000000002
11
85.25
21
-61.6299999999999955
0
LINE
8
BLACK
6
CONTINUOUS
10
85.25
20
-61.6299999999999955
11
85.1749999999999972
21
-61.6099040000000002
0
LINE
8
BLACK
6
CONTINUOUS
10
85.1749999999999972
20
-61.6099040000000002
11
85.1200959999999895
21
-61.5549999999999997
0
LINE
8
BLACK
6
CONTINUOUS
10
85.1200959999999895
20
-61.5549999999999997
11
85.0999999999999943
21
-61.4799999999999969
0
LINE
8
BLACK
6
CONTINUOUS
10
85.0999999999999943
20
-61.4799999999999969
11
85.1200959999999895
21
-61.404999999999994
0
LINE
8
BLACK
6
CONTINUOUS
10
85.1200959999999895
20
-61.404999999999994
11
85.1749999999999972
21
-61.3500960000000006
0
LINE
8
BLACK
6
CONTINUOUS
10
85.1749999999999972
20
-61.3500960000000006
11
85.25
21
-61.3299999999999983
0
LINE
8
BLACK
6
CONTINUOUS
10
85.25
20
-61.3299999999999983
11
85.3250000000000028
21
-61.3500960000000006
0
LINE
8
BLACK
6
CONTINUOUS
10
100.4587499999999949
20
-52.851549999999996
11
100.8528669999999892
21
-52.9100119999999947
0
LINE
8
BLACK
6
CONTINUOUS
10
100.8528669999999892
20
-52.9100119999999947
11
101.2393560000000008
21
-53.0068219999999997
0
LINE
8
BLACK
6
CONTINUOUS
10
101.2393560000000008
20
-53.0068219999999997
11
101.6144949999999909
21
-53.1410489999999953
0
LINE
8
BLACK
6
CONTINUOUS
10
101.6144949999999909
20
-53.1410489999999953
11
101.9746710000000007
21
-53.311399999999999
0
LINE
8
BLACK
6
CONTINUOUS
10
101.9746710000000007
20
-53.311399999999999
11
102.3164149999999921
21
-53.5162329999999997
0
LINE
8
BLACK
6
CONTINUOUS
10
102.3164149999999921
20
-53.5162329999999997
11
102.6364370000000008
21
-53.7535779999999974
0
LINE
8
BLACK
6
CONTINUOUS
10
102.6364370000000008
20
-53.7535779999999974
11
102.9316539999999947
21
-54.0211459999999946
0
LINE
8
BLACK
6
CONTINUOUS
10
102.9316539999999947
20
-54.0211459999999946
11
103.1992219999999918
21
-54.3163629999999955
0
LINE
8
BLACK
6
CONTINUOUS
10
103.1992219999999918
20
-54.3163629999999955
11
103.4365669999999966
21
-54.6363849999999971
0
LINE
8
BLACK
6
CONTINUOUS
10
103.4365669999999966
20
-54.6363849999999971
11
103.6413999999999902
21
-54.9781289999999956
0
LINE
8
BLACK
6
CONTINUOUS
10
103.6413999999999902
20
-54.9781289999999956
11
103.811751000000001
21
-55.3383049999999983
0
LINE
8
BLACK
6
CONTINUOUS
10
103.811751000000001
20
-55.3383049999999983
11
103.9459779999999967
21
-55.7134439999999955
0
LINE
8
BLACK
6
CONTINUOUS
10
103.9459779999999967
20
-55.7134439999999955
11
104.0427880000000016
21
-56.099933
0
LINE
8
BLACK
6
CONTINUOUS
10
104.0427880000000016
20
-56.099933
11
104.1012499999999932
21
-56.4940499999999943
0
LINE
8
BLACK
6
CONTINUOUS
10
104.1012499999999932
20
-56.4940499999999943
11
104.1207999999999885
21
-56.8919999999999959
0
LINE
8
BLACK
6
CONTINUOUS
10
104.1207999999999885
20
-56.8919999999999959
11
104.1012499999999932
21
-57.2899499999999975
0
LINE
8
BLACK
6
CONTINUOUS
10
104.1012499999999932
20
-57.2899499999999975
11
104.0427880000000016
21
-57.6840669999999989
0
LINE
8
BLACK
6
CONTINUOUS
10
104.0427880000000016
20
-57.6840669999999989
11
103.9459779999999967
21
-58.0705559999999963
0
LINE
8
BLACK
6
CONTINUOUS
10
103.9459779999999967
20
-58.0705559999999963
11
103.811751000000001
21
-58.4456950000000006
0
LINE
8
BLACK
6
CONTINUOUS
10
103.811751000000001
20
-58.4456950000000006
11
103.6413999999999902
21
-58.8058709999999962
0
LINE
8
BLACK
6
CONTINUOUS
10
103.6413999999999902
20
-58.8058709999999962
11
103.4365669999999966
21
-59.1476149999999947
0
LINE
8
BLACK
6
CONTINUOUS
10
103.4365669999999966
20
-59.1476149999999947
11
103.1992219999999918
21
-59.4676369999999963
0
LINE
8
BLACK
6
CONTINUOUS
10
103.1992219999999918
20
-59.4676369999999963
11
102.9316539999999947
21
-59.7628539999999973
0
LINE
8
BLACK
6
CONTINUOUS
10
102.9316539999999947
20
-59.7628539999999973
11
102.6364370000000008
21
-60.0304219999999944
0
LINE
8
BLACK
6
CONTINUOUS
10
102.6364370000000008
20
-60.0304219999999944
11
102.3164149999999921
21
-60.2677669999999992
0
LINE
8
BLACK
6
CONTINUOUS
10
102.3164149999999921
20
-60.2677669999999992
11
101.9746710000000007
21
-60.4725999999999999
0
LINE
8
BLACK
6
CONTINUOUS
10
101.9746710000000007
20
-60.4725999999999999
11
101.6144949999999909
21
-60.6429509999999965
0
LINE
8
BLACK
6
CONTINUOUS
10
101.6144949999999909
20
-60.6429509999999965
11
101.2393560000000008
21
-60.7771779999999993
0
LINE
8
BLACK
6
CONTINUOUS
10
101.2393560000000008
20
-60.7771779999999993
11
100.8528669999999892
21
-60.8739879999999971
0
LINE
8
BLACK
6
CONTINUOUS
10
100.8528669999999892
20
-60.8739879999999971
11
100.4587499999999949
21
-60.9324499999999958
0
LINE
8
BLACK
6
CONTINUOUS
10
100.4587499999999949
20
-60.9324499999999958
11
100.0608000000000004
21
-60.9519999999999982
0
LINE
8
BLACK
6
CONTINUOUS
10
100.0608000000000004
20
-60.9519999999999982
11
99.6628499999999917
21
-60.9324499999999958
0
LINE
8
BLACK
6
CONTINUOUS
10
99.6628499999999917
20
-60.9324499999999958
11
99.2687329999999974
21
-60.8739879999999971
0
LINE
8
BLACK
6
CONTINUOUS
10
99.2687329999999974
20
-60.8739879999999971
11
98.882244
21
-60.7771779999999993
0
LINE
8
BLACK
6
CONTINUOUS
10
98.882244
20
-60.7771779999999993
11
98.5071049999999957
21
-60.6429509999999965
0
LINE
8
BLACK
6
CONTINUOUS
10
98.5071049999999957
20
-60.6429509999999965
11
98.1469290000000001
21
-60.4725999999999999
0
LINE
8
BLACK
6
CONTINUOUS
10
98.1469290000000001
20
-60.4725999999999999
11
97.8051849999999945
21
-60.2677669999999992
0
LINE
8
BLACK
6
CONTINUOUS
10
97.8051849999999945
20
-60.2677669999999992
11
97.485163
21
-60.0304219999999944
0
LINE
8
BLACK
6
CONTINUOUS
10
97.485163
20
-60.0304219999999944
11
97.189945999999992
21
-59.7628539999999973
0
LINE
8
BLACK
6
CONTINUOUS
10
97.189945999999992
20
-59.7628539999999973
11
96.9223779999999948
21
-59.4676369999999963
0
LINE
8
BLACK
6
CONTINUOUS
10
96.9223779999999948
20
-59.4676369999999963
11
96.68503299999999
21
-59.1476149999999947
0
LINE
8
BLACK
6
CONTINUOUS
10
96.68503299999999
20
-59.1476149999999947
11
96.4801999999999964
21
-58.8058709999999962
0
LINE
8
BLACK
6
CONTINUOUS
10
96.4801999999999964
20
-58.8058709999999962
11
96.3098489999999998
21
-58.4456950000000006
0
LINE
8
BLACK
6
CONTINUOUS
10
96.3098489999999998
20
-58.4456950000000006
11
96.17562199999999
21
-58.0705559999999963
0
LINE
8
BLACK
6
CONTINUOUS
10
96.17562199999999
20
-58.0705559999999963
11
96.0788119999999992
21
-57.6840669999999989
0
LINE
8
BLACK
6
CONTINUOUS
10
96.0788119999999992
20
-57.6840669999999989
11
96.0203499999999934
21
-57.2899499999999975
0
LINE
8
BLACK
6
CONTINUOUS
10
96.0203499999999934
20
-57.2899499999999975
11
96.0007999999999981
21
-56.8919999999999959
0
LINE
8
BLACK
6
CONTINUOUS
10
96.0007999999999981
20
-56.8919999999999959
11
96.0203499999999934
21
-56.4940499999999943
0
LINE
8
BLACK
6
CONTINUOUS
10
96.0203499999999934
20
-56.4940499999999943
11
96.0788119999999992
21
-56.099933
0
LINE
8
BLACK
6
CONTINUOUS
10
96.0788119999999992
20
-56.099933
11
96.17562199999999
21
-55.7134439999999955
0
LINE
8
BLACK
6
CONTINUOUS
10
96.17562199999999
20
-55.7134439999999955
11
96.3098489999999998
21
-55.3383049999999983
0
LINE
8
BLACK
6
CONTINUOUS
10
96.3098489999999998
20
-55.3383049999999983
11
96.4801999999999964
21
-54.9781289999999956
0
LINE
8
BLACK
6
CONTINUOUS
10
96.4801999999999964
20
-54.9781289999999956
11
96.68503299999999
21
-54.6363849999999971
0
LINE
8
BLACK
6
CONTINUOUS
10
96.68503299999999
20
-54.6363849999999971
11
96.9223779999999948
21
-54.3163629999999955
0
LINE
8
BLACK
6
CONTINUOUS
10
96.9223779999999948
20
-54.3163629999999955
11
97.189945999999992
21
-54.0211459999999946
0
LINE
8
BLACK
6
CONTINUOUS
10
97.189945999999992
20
-54.0211459999999946
11
97.485163
21
-53.7535779999999974
0
LINE
8
BLACK
6
CONTINUOUS
10
97.485163
20
-53.7535779999999974
11
97.8051849999999945
21
-53.5162329999999997
0
LINE
8
BLACK
6
CONTINUOUS
10
97.8051849999999945
20
-53.5162329999999997
11
98.1469290000000001
21
-53.311399999999999
0
LINE
8
BLACK
6
CONTINUOUS
10
98.1469290000000001
20
-53.311399999999999
11
98.5071049999999957
21
-53.1410489999999953
0
LINE
8
BLACK
6
CONTINUOUS
10
98.5071049999999957
20
-53.1410489999999953
11
98.882244
21
-53.0068219999999997
0
LINE
8
BLACK
6
CONTINUOUS
10
98.882244
20
-53.0068219999999997
11
99.2687329999999974
21
-52.9100119999999947
0
LINE
8
BLACK
6
CONTINUOUS
10
99.2687329999999974
20
-52.9100119999999947
11
99.6628499999999917
21
-52.851549999999996
0
LINE
8
BLACK
6
CONTINUOUS
10
99.6628499999999917
20
-52.851549999999996
11
100.0608000000000004
21
-52.8320000000000007
0
LINE
8
BLACK
6
CONTINUOUS
10
100.0608000000000004
20
-52.8320000000000007
11
100.4587499999999949
21
-52.851549999999996
0
LINE
8
BLACK
6
CONTINUOUS
10
96.1359779999999944
20
-57.2911149999999978
11
96.1964929999999896
21
-57.6861350000000002
0
LINE
8
BLACK
6
CONTINUOUS
10
96.1964929999999896
20
-57.6861350000000002
11
96.2966610000000003
21
-58.0730059999999995
0
LINE
8
BLACK
6
CONTINUOUS
10
96.2966610000000003
20
-58.0730059999999995
11
96.4354539999999929
21
-58.4477589999999978
0
LINE
8
BLACK
6
CONTINUOUS
10
96.4354539999999929
20
-58.4477589999999978
11
96.6114479999999958
21
-58.8065469999999948
0
LINE
8
BLACK
6
CONTINUOUS
10
96.6114479999999958
20
-58.8065469999999948
11
96.8228369999999927
21
-59.1456889999999973
0
LINE
8
BLACK
6
CONTINUOUS
10
96.8228369999999927
20
-59.1456889999999973
11
97.0674509999999913
21
-59.4617049999999949
0
LINE
8
BLACK
6
CONTINUOUS
10
97.0674509999999913
20
-59.4617049999999949
11
97.3427819999999997
21
-59.7513529999999946
0
LINE
8
BLACK
6
CONTINUOUS
10
97.3427819999999997
20
-59.7513529999999946
11
97.6460029999999932
21
-60.0116599999999991
0
LINE
8
BLACK
6
CONTINUOUS
10
97.6460029999999932
20
-60.0116599999999991
11
97.9740039999999937
21
-60.2399549999999948
0
LINE
8
BLACK
6
CONTINUOUS
10
97.9740039999999937
20
-60.2399549999999948
11
98.3234169999999921
21
-60.4338949999999997
0
LINE
8
BLACK
6
CONTINUOUS
10
98.3234169999999921
20
-60.4338949999999997
11
98.6906589999999966
21
-60.5914909999999978
0
LINE
8
BLACK
6
CONTINUOUS
10
98.6906589999999966
20
-60.5914909999999978
11
99.07195999999999
21
-60.7111249999999956
0
LINE
8
BLACK
6
CONTINUOUS
10
99.07195999999999
20
-60.7111249999999956
11
99.4634080000000012
21
-60.7915700000000001
0
LINE
8
BLACK
6
CONTINUOUS
10
99.4634080000000012
20
-60.7915700000000001
11
99.8609859999999969
21
-60.8320000000000007
0
LINE
8
BLACK
6
CONTINUOUS
10
99.8609859999999969
20
-60.8320000000000007
11
100.2606139999999897
21
-60.8320000000000007
0
LINE
8
BLACK
6
CONTINUOUS
10
100.2606139999999897
20
-60.8320000000000007
11
100.6581919999999997
21
-60.7915700000000001
0
LINE
8
BLACK
6
CONTINUOUS
10
100.6581919999999997
20
-60.7915700000000001
11
101.0496399999999966
21
-60.7111249999999956
0
LINE
8
BLACK
6
CONTINUOUS
10
101.0496399999999966
20
-60.7111249999999956
11
101.43094099999999
21
-60.5914909999999978
0
LINE
8
BLACK
6
CONTINUOUS
10
101.43094099999999
20
-60.5914909999999978
11
101.7981829999999945
21
-60.4338949999999997
0
LINE
8
BLACK
6
CONTINUOUS
10
101.7981829999999945
20
-60.4338949999999997
11
102.147595999999993
21
-60.2399549999999948
0
LINE
8
BLACK
6
CONTINUOUS
10
102.147595999999993
20
-60.2399549999999948
11
102.4755969999999934
21
-60.0116599999999991
0
LINE
8
BLACK
6
CONTINUOUS
10
102.4755969999999934
20
-60.0116599999999991
11
102.7788180000000011
21
-59.7513529999999946
0
LINE
8
BLACK
6
CONTINUOUS
10
102.7788180000000011
20
-59.7513529999999946
11
103.0541489999999953
21
-59.4617049999999949
0
LINE
8
BLACK
6
CONTINUOUS
10
103.0541489999999953
20
-59.4617049999999949
11
103.2987629999999939
21
-59.1456889999999973
0
LINE
8
BLACK
6
CONTINUOUS
10
103.2987629999999939
20
-59.1456889999999973
11
103.5101519999999908
21
-58.8065469999999948
0
LINE
8
BLACK
6
CONTINUOUS
10
103.5101519999999908
20
-58.8065469999999948
11
103.6861459999999937
21
-58.4477589999999978
0
LINE
8
BLACK
6
CONTINUOUS
10
103.6861459999999937
20
-58.4477589999999978
11
103.8249390000000005
21
-58.0730059999999995
0
LINE
8
BLACK
6
CONTINUOUS
10
103.8249390000000005
20
-58.0730059999999995
11
103.925106999999997
21
-57.6861350000000002
0
LINE
8
BLACK
6
CONTINUOUS
10
103.925106999999997
20
-57.6861350000000002
11
103.9856219999999922
21
-57.2911149999999978
0
LINE
8
BLACK
6
CONTINUOUS
10
103.9856219999999922
20
-57.2911149999999978
11
104.0058629999999908
21
-56.8919999999999959
0
LINE
8
BLACK
6
CONTINUOUS
10
104.0058629999999908
20
-56.8919999999999959
11
103.9856219999999922
21
-56.492884999999994
0
LINE
8
BLACK
6
CONTINUOUS
10
103.9856219999999922
20
-56.492884999999994
11
103.925106999999997
21
-56.0978649999999988
0
LINE
8
BLACK
6
CONTINUOUS
10
103.925106999999997
20
-56.0978649999999988
11
103.8249390000000005
21
-55.7109939999999995
0
LINE
8
BLACK
6
CONTINUOUS
10
103.8249390000000005
20
-55.7109939999999995
11
103.6861459999999937
21
-55.336240999999994
0
LINE
8
BLACK
6
CONTINUOUS
10
103.6861459999999937
20
-55.336240999999994
11
103.5101519999999908
21
-54.977452999999997
0
LINE
8
BLACK
6
CONTINUOUS
10
103.5101519999999908
20
-54.977452999999997
11
103.2987629999999939
21
-54.6383109999999945
0
LINE
8
BLACK
6
CONTINUOUS
10
103.2987629999999939
20
-54.6383109999999945
11
103.0541489999999953
21
-54.3222949999999969
0
LINE
8
BLACK
6
CONTINUOUS
10
103.0541489999999953
20
-54.3222949999999969
11
102.7788180000000011
21
-54.0326469999999972
0
LINE
8
BLACK
6
CONTINUOUS
10
102.7788180000000011
20
-54.0326469999999972
11
102.4755969999999934
21
-53.7723399999999998
0
LINE
8
BLACK
6
CONTINUOUS
10
102.4755969999999934
20
-53.7723399999999998
11
102.147595999999993
21
-53.544044999999997
0
LINE
8
BLACK
6
CONTINUOUS
10
102.147595999999993
20
-53.544044999999997
11
101.7981829999999945
21
-53.3501049999999992
0
LINE
8
BLACK
6
CONTINUOUS
10
101.7981829999999945
20
-53.3501049999999992
11
101.43094099999999
21
-53.192508999999994
0
LINE
8
BLACK
6
CONTINUOUS
10
101.43094099999999
20
-53.192508999999994
11
101.0496399999999966
21
-53.0728749999999962
0
LINE
8
BLACK
6
CONTINUOUS
10
101.0496399999999966
20
-53.0728749999999962
11
100.6581919999999997
21
-52.9924299999999988
0
LINE
8
BLACK
6
CONTINUOUS
10
100.6581919999999997
20
-52.9924299999999988
11
100.2606139999999897
21
-52.9519999999999982
0
LINE
8
BLACK
6
CONTINUOUS
10
100.2606139999999897
20
-52.9519999999999982
11
99.8609859999999969
21
-52.9519999999999982
0
LINE
8
BLACK
6
CONTINUOUS
10
99.8609859999999969
20
-52.9519999999999982
11
99.4634080000000012
21
-52.9924299999999988
0
LINE
8
BLACK
6
CONTINUOUS
10
99.4634080000000012
20
-52.9924299999999988
11
99.07195999999999
21
-53.0728749999999962
0
LINE
8
BLACK
6
CONTINUOUS
10
99.07195999999999
20
-53.0728749999999962
11
98.6906589999999966
21
-53.192508999999994
0
LINE
8
BLACK
6
CONTINUOUS
10
98.6906589999999966
20
-53.192508999999994
11
98.3234169999999921
21
-53.3501049999999992
0
LINE
8
BLACK
6
CONTINUOUS
10
98.3234169999999921
20
-53.3501049999999992
11
97.9740039999999937
21
-53.544044999999997
0
LINE
8
BLACK
6
CONTINUOUS
10
97.9740039999999937
20
-53.544044999999997
11
97.6460029999999932
21
-53.7723399999999998
0
LINE
8
BLACK
6
CONTINUOUS
10
97.6460029999999932
20
-53.7723399999999998
11
97.3427819999999997
21
-54.0326469999999972
0
LINE
8
BLACK
6
CONTINUOUS
10
97.3427819999999997
20
-54.0326469999999972
11
97.0674509999999913
21
-54.3222949999999969
0
LINE
8
BLACK
6
CONTINUOUS
10
97.0674509999999913
20
-54.3222949999999969
11
96.8228369999999927
21
-54.6383109999999945
0
LINE
8
BLACK
6
CONTINUOUS
10
96.8228369999999927
20
-54.6383109999999945
11
96.6114479999999958
21
-54.977452999999997
0
LINE
8
BLACK
6
CONTINUOUS
10
96.6114479999999958
20
-54.977452999999997
11
96.4354539999999929
21
-55.336240999999994
0
LINE
8
BLACK
6
CONTINUOUS
10
96.4354539999999929
20
-55.336240999999994
11
96.2966610000000003
21
-55.7109939999999995
0
LINE
8
BLACK
6
CONTINUOUS
10
96.2966610000000003
20
-55.7109939999999995
11
96.1964929999999896
21
-56.0978649999999988
0
LINE
8
BLACK
6
CONTINUOUS
10
96.1964929999999896
20
-56.0978649999999988
11
96.1359779999999944
21
-56.492884999999994
0
LINE
8
BLACK
6
CONTINUOUS
10
96.1359779999999944
20
-56.492884999999994
11
96.1157369999999958
21
-56.8919999999999959
0
LINE
8
BLACK
6
CONTINUOUS
10
96.1157369999999958
20
-56.8919999999999959
11
96.1359779999999944
21
-57.2911149999999978
0
LINE
8
BLACK
6
CONTINUOUS
10
114.8249999999999886
20
-38.3900959999999998
11
114.8799039999999962
21
-38.4450000000000003
0
LINE
8
BLACK
6
CONTINUOUS
10
114.8799039999999962
20
-38.4450000000000003
11
114.8999999999999915
21
-38.519999999999996
0
LINE
8
BLACK
6
CONTINUOUS
10
114.8999999999999915
20
-38.519999999999996
11
114.8799039999999962
21
-38.5949999999999989
0
LINE
8
BLACK
6
CONTINUOUS
10
114.8799039999999962
20
-38.5949999999999989
11
114.8249999999999886
21
-38.6499039999999994
0
LINE
8
BLACK
6
CONTINUOUS
10
114.8249999999999886
20
-38.6499039999999994
11
114.75
21
-38.6700000000000017
0
LINE
8
BLACK
6
CONTINUOUS
10
114.75
20
-38.6700000000000017
11
114.6749999999999972
21
-38.6499039999999994
0
LINE
8
BLACK
6
CONTINUOUS
10
114.6749999999999972
20
-38.6499039999999994
11
114.6200959999999895
21
-38.5949999999999989
0
LINE
8
BLACK
6
CONTINUOUS
10
114.6200959999999895
20
-38.5949999999999989
11
114.5999999999999943
21
-38.519999999999996
0
LINE
8
BLACK
6
CONTINUOUS
10
114.5999999999999943
20
-38.519999999999996
11
114.6200959999999895
21
-38.4450000000000003
0
LINE
8
BLACK
6
CONTINUOUS
10
114.6200959999999895
20
-38.4450000000000003
11
114.6749999999999972
21
-38.3900959999999998
0
LINE
8
BLACK
6
CONTINUOUS
10
114.6749999999999972
20
-38.3900959999999998
11
114.75
21
-38.3699999999999974
0
LINE
8
BLACK
6
CONTINUOUS
10
114.75
20
-38.3699999999999974
11
114.8249999999999886
21
-38.3900959999999998
0
LINE
8
BLACK
6
CONTINUOUS
10
102.1107999999999976
20
-35.8620000000000019
11
102.1532259999999894
21
-35.8795739999999981
0
LINE
8
BLACK
6
CONTINUOUS
10
102.1532259999999894
20
-35.8795739999999981
11
102.1707999999999998
21
-35.921999999999997
0
LINE
8
BLACK
6
CONTINUOUS
10
102.1707999999999998
20
-35.921999999999997
11
102.1707999999999998
21
-38.0420000000000016
0
LINE
8
BLACK
6
CONTINUOUS
10
102.1707999999999998
20
-38.0420000000000016
11
102.1532259999999894
21
-38.0844260000000006
0
LINE
8
BLACK
6
CONTINUOUS
10
102.1532259999999894
20
-38.0844260000000006
11
102.1107999999999976
21
-38.1019999999999968
0
LINE
8
BLACK
6
CONTINUOUS
10
102.1107999999999976
20
-38.1019999999999968
11
96.0507999999999953
21
-38.1019999999999968
0
LINE
8
BLACK
6
CONTINUOUS
10
96.0507999999999953
20
-38.1019999999999968
11
96.0083739999999892
21
-38.0844260000000006
0
LINE
8
BLACK
6
CONTINUOUS
10
96.0083739999999892
20
-38.0844260000000006
11
95.990799999999993
21
-38.0420000000000016
0
LINE
8
BLACK
6
CONTINUOUS
10
95.990799999999993
20
-38.0420000000000016
11
95.990799999999993
21
-35.921999999999997
0
LINE
8
BLACK
6
CONTINUOUS
10
95.990799999999993
20
-35.921999999999997
11
96.0083739999999892
21
-35.8795739999999981
0
LINE
8
BLACK
6
CONTINUOUS
10
96.0083739999999892
20
-35.8795739999999981
11
96.0507999999999953
21
-35.8620000000000019
0
LINE
8
BLACK
6
CONTINUOUS
10
96.0507999999999953
20
-35.8620000000000019
11
102.1107999999999976
21
-35.8620000000000019
0
LINE
8
BLACK
6
CONTINUOUS
10
96.1107999999999976
20
-35.9819999999999993
11
96.1107999999999976
21
-37.9819999999999993
0
LINE
8
BLACK
6
CONTINUOUS
10
96.1107999999999976
20
-37.9819999999999993
11
102.0507999999999953
21
-37.9819999999999993
0
LINE
8
BLACK
6
CONTINUOUS
10
102.0507999999999953
20
-37.9819999999999993
11
102.0507999999999953
21
-35.9819999999999993
0
LINE
8
BLACK
6
CONTINUOUS
10
102.0507999999999953
20
-35.9819999999999993
11
96.1107999999999976
21
-35.9819999999999993
0
LINE
8
BLACK
6
CONTINUOUS
10
104.2132259999999917
20
-36.9395740000000004
11
104.2308000000000021
21
-36.9819999999999993
0
LINE
8
BLACK
6
CONTINUOUS
10
104.2308000000000021
20
-36.9819999999999993
11
104.2308000000000021
21
-38.0420000000000016
0
LINE
8
BLACK
6
CONTINUOUS
10
104.2308000000000021
20
-38.0420000000000016
11
104.2132259999999917
21
-38.0844260000000006
0
LINE
8
BLACK
6
CONTINUOUS
10
104.2132259999999917
20
-38.0844260000000006
11
104.1707999999999998
21
-38.1019999999999968
0
LINE
8
BLACK
6
CONTINUOUS
10
104.1707999999999998
20
-38.1019999999999968
11
103.1107999999999976
21
-38.1019999999999968
0
LINE
8
BLACK
6
CONTINUOUS
10
103.1107999999999976
20
-38.1019999999999968
11
103.0683739999999915
21
-38.0844260000000006
0
LINE
8
BLACK
6
CONTINUOUS
10
103.0683739999999915
20
-38.0844260000000006
11
103.0507999999999953
21
-38.0420000000000016
0
LINE
8
BLACK
6
CONTINUOUS
10
103.0507999999999953
20
-38.0420000000000016
11
103.0683739999999915
21
-37.9995739999999955
0
LINE
8
BLACK
6
CONTINUOUS
10
103.0683739999999915
20
-37.9995739999999955
11
103.1107999999999976
21
-37.9819999999999993
0
LINE
8
BLACK
6
CONTINUOUS
10
103.1107999999999976
20
-37.9819999999999993
11
104.1107999999999976
21
-37.9819999999999993
0
LINE
8
BLACK
6
CONTINUOUS
10
104.1107999999999976
20
-37.9819999999999993
11
104.1107999999999976
21
-36.9819999999999993
0
LINE
8
BLACK
6
CONTINUOUS
10
104.1107999999999976
20
-36.9819999999999993
11
104.1283739999999938
21
-36.9395740000000004
0
LINE
8
BLACK
6
CONTINUOUS
10
104.1283739999999938
20
-36.9395740000000004
11
104.1707999999999998
21
-36.921999999999997
0
LINE
8
BLACK
6
CONTINUOUS
10
104.1707999999999998
20
-36.921999999999997
11
104.2132259999999917
21
-36.9395740000000004
0
LINE
8
BLACK
6
CONTINUOUS
10
110.2107999999999919
20
-35.2819999999999965
11
110.253225999999998
21
-35.2995739999999998
0
LINE
8
BLACK
6
CONTINUOUS
10
110.253225999999998
20
-35.2995739999999998
11
110.2707999999999942
21
-35.3419999999999987
0
LINE
8
BLACK
6
CONTINUOUS
10
110.2707999999999942
20
-35.3419999999999987
11
110.2707999999999942
21
-37.5919999999999987
0
LINE
8
BLACK
6
CONTINUOUS
10
110.2707999999999942
20
-37.5919999999999987
11
110.253225999999998
21
-37.6344259999999977
0
LINE
8
BLACK
6
CONTINUOUS
10
110.253225999999998
20
-37.6344259999999977
11
110.2107999999999919
21
-37.652000000000001
0
LINE
8
BLACK
6
CONTINUOUS
10
110.2107999999999919
20
-37.652000000000001
11
110.168374
21
-37.6344259999999977
0
LINE
8
BLACK
6
CONTINUOUS
10
110.168374
20
-37.6344259999999977
11
110.1507999999999896
21
-37.5919999999999987
0
LINE
8
BLACK
6
CONTINUOUS
10
110.1507999999999896
20
-37.5919999999999987
11
110.1507999999999896
21
-35.402000000000001
0
LINE
8
BLACK
6
CONTINUOUS
10
110.1507999999999896
20
-35.402000000000001
11
107.9607999999999919
21
-35.402000000000001
0
LINE
8
BLACK
6
CONTINUOUS
10
107.9607999999999919
20
-35.402000000000001
11
107.918374
21
-35.3844259999999977
0
LINE
8
BLACK
6
CONTINUOUS
10
107.918374
20
-35.3844259999999977
11
107.9007999999999896
21
-35.3419999999999987
0
LINE
8
BLACK
6
CONTINUOUS
10
107.9007999999999896
20
-35.3419999999999987
11
107.918374
21
-35.2995739999999998
0
LINE
8
BLACK
6
CONTINUOUS
10
107.918374
20
-35.2995739999999998
11
107.9607999999999919
21
-35.2819999999999965
0
LINE
8
BLACK
6
CONTINUOUS
10
107.9607999999999919
20
-35.2819999999999965
11
110.2107999999999919
21
-35.2819999999999965
0
LINE
8
BLACK
6
CONTINUOUS
10
88.5949999999999989
20
-35.1200959999999966
11
88.6499039999999923
21
-35.1749999999999972
0
LINE
8
BLACK
6
CONTINUOUS
10
88.6499039999999923
20
-35.1749999999999972
11
88.6700000000000017
21
-35.25
0
LINE
8
BLACK
6
CONTINUOUS
10
88.6700000000000017
20
-35.25
11
88.6499039999999923
21
-35.3249999999999957
0
LINE
8
BLACK
6
CONTINUOUS
10
88.6499039999999923
20
-35.3249999999999957
11
88.5949999999999989
21
-35.3799039999999962
0
LINE
8
BLACK
6
CONTINUOUS
10
88.5949999999999989
20
-35.3799039999999962
11
88.519999999999996
21
-35.3999999999999986
0
LINE
8
BLACK
6
CONTINUOUS
10
88.519999999999996
20
-35.3999999999999986
11
88.4449999999999932
21
-35.3799039999999962
0
LINE
8
BLACK
6
CONTINUOUS
10
88.4449999999999932
20
-35.3799039999999962
11
88.3900959999999998
21
-35.3249999999999957
0
LINE
8
BLACK
6
CONTINUOUS
10
88.3900959999999998
20
-35.3249999999999957
11
88.3699999999999903
21
-35.25
0
LINE
8
BLACK
6
CONTINUOUS
10
88.3699999999999903
20
-35.25
11
88.3900959999999998
21
-35.1749999999999972
0
LINE
8
BLACK
6
CONTINUOUS
10
88.3900959999999998
20
-35.1749999999999972
11
88.4449999999999932
21
-35.1200959999999966
0
LINE
8
BLACK
6
CONTINUOUS
10
88.4449999999999932
20
-35.1200959999999966
11
88.519999999999996
21
-35.1000000000000014
0
LINE
8
BLACK
6
CONTINUOUS
10
88.519999999999996
20
-35.1000000000000014
11
88.5949999999999989
21
-35.1200959999999966
0
LINE
8
BLACK
6
CONTINUOUS
10
113.0458339999999993
20
-34.9193409999999957
11
113.0509950000000003
21
-34.9236709999999988
0
LINE
8
BLACK
6
CONTINUOUS
10
113.0509950000000003
20
-34.9236709999999988
11
113.0585880000000003
21
-34.9253969999999967
0
LINE
8
BLACK
6
CONTINUOUS
10
113.0585880000000003
20
-34.9253969999999967
11
113.0739090000000004
21
-34.942898999999997
0
LINE
8
BLACK
6
CONTINUOUS
10
113.0739090000000004
20
-34.942898999999997
11
113.0851339999999965
21
-34.9523179999999982
0
LINE
8
BLACK
6
CONTINUOUS
10
113.0851339999999965
20
-34.9523179999999982
11
113.0858849999999904
21
-34.9565799999999953
0
LINE
8
BLACK
6
CONTINUOUS
10
113.0858849999999904
20
-34.9565799999999953
11
113.0891189999999966
21
-34.9602739999999983
0
LINE
8
BLACK
6
CONTINUOUS
10
113.0891189999999966
20
-34.9602739999999983
11
113.1591059999999942
21
-35.123591999999995
0
LINE
8
BLACK
6
CONTINUOUS
10
113.1591059999999942
20
-35.123591999999995
11
113.3294829999999962
21
-35.4354510000000005
0
LINE
8
BLACK
6
CONTINUOUS
10
113.3294829999999962
20
-35.4354510000000005
11
113.5287119999999987
21
-35.7297170000000008
0
LINE
8
BLACK
6
CONTINUOUS
10
113.5287119999999987
20
-35.7297170000000008
11
113.7549889999999948
21
-36.0037289999999999
0
LINE
8
BLACK
6
CONTINUOUS
10
113.7549889999999948
20
-36.0037289999999999
11
114.0062709999999981
21
-36.2550109999999961
0
LINE
8
BLACK
6
CONTINUOUS
10
114.0062709999999981
20
-36.2550109999999961
11
114.2802829999999972
21
-36.4812879999999993
0
LINE
8
BLACK
6
CONTINUOUS
10
114.2802829999999972
20
-36.4812879999999993
11
114.5745489999999904
21
-36.6805170000000018
0
LINE
8
BLACK
6
CONTINUOUS
10
114.5745489999999904
20
-36.6805170000000018
11
114.8864079999999888
21
-36.8508939999999967
0
LINE
8
BLACK
6
CONTINUOUS
10
114.8864079999999888
20
-36.8508939999999967
11
115.0497259999999926
21
-36.9208810000000014
0
LINE
8
BLACK
6
CONTINUOUS
10
115.0497259999999926
20
-36.9208810000000014
11
115.0652079999999984
21
-36.934433999999996
0
LINE
8
BLACK
6
CONTINUOUS
10
115.0652079999999984
20
-36.934433999999996
11
115.0776350000000008
21
-36.9416089999999997
0
LINE
8
BLACK
6
CONTINUOUS
10
115.0776350000000008
20
-36.9416089999999997
11
115.0796129999999948
21
-36.9470430000000007
0
LINE
8
BLACK
6
CONTINUOUS
10
115.0796129999999948
20
-36.9470430000000007
11
115.0846030000000013
21
-36.9514119999999977
0
LINE
8
BLACK
6
CONTINUOUS
10
115.0846030000000013
20
-36.9514119999999977
11
115.090250999999995
21
-36.9762699999999995
0
LINE
8
BLACK
6
CONTINUOUS
10
115.090250999999995
20
-36.9762699999999995
11
115.0951819999999941
21
-36.9898179999999996
0
LINE
8
BLACK
6
CONTINUOUS
10
115.0951819999999941
20
-36.9898179999999996
11
115.0951819999999941
21
-62.9898179999999996
0
LINE
8
BLACK
6
CONTINUOUS
10
115.0951819999999941
20
-62.9898179999999996
11
115.0906589999999881
21
-63.0154700000000005
0
LINE
8
BLACK
6
CONTINUOUS
10
115.0906589999999881
20
-63.0154700000000005
11
115.0863279999999946
21
-63.020629999999997
0
LINE
8
BLACK
6
CONTINUOUS
10
115.0863279999999946
20
-63.020629999999997
11
115.0846030000000013
21
-63.0282239999999945
0
LINE
8
BLACK
6
CONTINUOUS
10
115.0846030000000013
20
-63.0282239999999945
11
115.0671019999999913
21
-63.0435429999999997
0
LINE
8
BLACK
6
CONTINUOUS
10
115.0671019999999913
20
-63.0435429999999997
11
115.0576819999999998
21
-63.0547699999999978
0
LINE
8
BLACK
6
CONTINUOUS
10
115.0576819999999998
20
-63.0547699999999978
11
115.0534179999999935
21
-63.0555209999999988
0
LINE
8
BLACK
6
CONTINUOUS
10
115.0534179999999935
20
-63.0555209999999988
11
115.0497249999999951
21
-63.0587549999999979
0
LINE
8
BLACK
6
CONTINUOUS
10
115.0497249999999951
20
-63.0587549999999979
11
115.0497179999999986
21
-63.0587379999999982
0
LINE
8
BLACK
6
CONTINUOUS
10
115.0497179999999986
20
-63.0587379999999982
11
114.8863989999999973
21
-63.1287239999999983
0
LINE
8
BLACK
6
CONTINUOUS
10
114.8863989999999973
20
-63.1287239999999983
11
114.5745379999999898
21
-63.2990999999999957
0
LINE
8
BLACK
6
CONTINUOUS
10
114.5745379999999898
20
-63.2990999999999957
11
114.2802700000000016
21
-63.4983289999999982
0
LINE
8
BLACK
6
CONTINUOUS
10
114.2802700000000016
20
-63.4983289999999982
11
114.0062569999999909
21
-63.7246079999999964
0
LINE
8
BLACK
6
CONTINUOUS
10
114.0062569999999909
20
-63.7246079999999964
11
113.7549769999999967
21
-63.9758919999999947
0
LINE
8
BLACK
6
CONTINUOUS
10
113.7549769999999967
20
-63.9758919999999947
11
113.5287009999999981
21
-64.2499069999999932
0
LINE
8
BLACK
6
CONTINUOUS
10
113.5287009999999981
20
-64.2499069999999932
11
113.3294759999999997
21
-64.5441769999999906
0
LINE
8
BLACK
6
CONTINUOUS
10
113.3294759999999997
20
-64.5441769999999906
11
113.1591039999999992
21
-64.856039999999993
0
LINE
8
BLACK
6
CONTINUOUS
10
113.1591039999999992
20
-64.856039999999993
11
113.0891199999999941
21
-65.0193610000000035
0
LINE
8
BLACK
6
CONTINUOUS
10
113.0891199999999941
20
-65.0193610000000035
11
113.0891189999999966
21
-65.0193610000000035
0
LINE
8
BLACK
6
CONTINUOUS
10
113.0891189999999966
20
-65.0193610000000035
11
113.0755659999999949
21
-65.0348429999999951
0
LINE
8
BLACK
6
CONTINUOUS
10
113.0755659999999949
20
-65.0348429999999951
11
113.0683909999999912
21
-65.047270999999995
0
LINE
8
BLACK
6
CONTINUOUS
10
113.0683909999999912
20
-65.047270999999995
11
113.0629549999999881
21
-65.0492490000000032
0
LINE
8
BLACK
6
CONTINUOUS
10
113.0629549999999881
20
-65.0492490000000032
11
113.0585889999999978
21
-65.054237999999998
0
LINE
8
BLACK
6
CONTINUOUS
10
113.0585889999999978
20
-65.054237999999998
11
113.0337260000000015
21
-65.0598880000000008
0
LINE
8
BLACK
6
CONTINUOUS
10
113.0337260000000015
20
-65.0598880000000008
11
113.0201819999999913
21
-65.0648180000000025
0
LINE
8
BLACK
6
CONTINUOUS
10
113.0201819999999913
20
-65.0648180000000025
11
87.0201819999999913
21
-65.0648180000000025
0
LINE
8
BLACK
6
CONTINUOUS
10
87.0201819999999913
20
-65.0648180000000025
11
86.9945299999999975
21
-65.0602949999999964
0
LINE
8
BLACK
6
CONTINUOUS
10
86.9945299999999975
20
-65.0602949999999964
11
86.9893689999999964
21
-65.055964000000003
0
LINE
8
BLACK
6
CONTINUOUS
10
86.9893689999999964
20
-65.055964000000003
11
86.9817759999999964
21
-65.0542389999999955
0
LINE
8
BLACK
6
CONTINUOUS
10
86.9817759999999964
20
-65.0542389999999955
11
86.9664539999999988
21
-65.0367359999999906
0
LINE
8
BLACK
6
CONTINUOUS
10
86.9664539999999988
20
-65.0367359999999906
11
86.9552300000000002
21
-65.027317999999994
0
LINE
8
BLACK
6
CONTINUOUS
10
86.9552300000000002
20
-65.027317999999994
11
86.9544779999999946
21
-65.0230549999999994
0
LINE
8
BLACK
6
CONTINUOUS
10
86.9544779999999946
20
-65.0230549999999994
11
86.9512450000000001
21
-65.019362000000001
0
LINE
8
BLACK
6
CONTINUOUS
10
86.9512450000000001
20
-65.019362000000001
11
86.9512440000000026
21
-65.019362000000001
0
LINE
8
BLACK
6
CONTINUOUS
10
86.9512440000000026
20
-65.019362000000001
11
86.8812580000000025
21
-64.8560429999999997
0
LINE
8
BLACK
6
CONTINUOUS
10
86.8812580000000025
20
-64.8560429999999997
11
86.710881999999998
21
-64.5441840000000013
0
LINE
8
BLACK
6
CONTINUOUS
10
86.710881999999998
20
-64.5441840000000013
11
86.5116539999999929
21
-64.2499169999999964
0
LINE
8
BLACK
6
CONTINUOUS
10
86.5116539999999929
20
-64.2499169999999964
11
86.2853769999999969
21
-63.9759049999999974
0
LINE
8
BLACK
6
CONTINUOUS
10
86.2853769999999969
20
-63.9759049999999974
11
86.0340949999999935
21
-63.724622999999994
0
LINE
8
BLACK
6
CONTINUOUS
10
86.0340949999999935
20
-63.724622999999994
11
85.7600829999999945
21
-63.498345999999998
0
LINE
8
BLACK
6
CONTINUOUS
10
85.7600829999999945
20
-63.498345999999998
11
85.4658159999999896
21
-63.299118
0
LINE
8
BLACK
6
CONTINUOUS
10
85.4658159999999896
20
-63.299118
11
85.1539569999999912
21
-63.1287419999999955
0
LINE
8
BLACK
6
CONTINUOUS
10
85.1539569999999912
20
-63.1287419999999955
11
84.9906379999999899
21
-63.0587559999999954
0
LINE
8
BLACK
6
CONTINUOUS
10
84.9906379999999899
20
-63.0587559999999954
11
84.9906379999999899
21
-63.0587549999999979
0
LINE
8
BLACK
6
CONTINUOUS
10
84.9906379999999899
20
-63.0587549999999979
11
84.9751550000000009
21
-63.0452009999999987
0
LINE
8
BLACK
6
CONTINUOUS
10
84.9751550000000009
20
-63.0452009999999987
11
84.9627289999999959
21
-63.0380269999999996
0
LINE
8
BLACK
6
CONTINUOUS
10
84.9627289999999959
20
-63.0380269999999996
11
84.9607499999999902
21
-63.032591999999994
0
LINE
8
BLACK
6
CONTINUOUS
10
84.9607499999999902
20
-63.032591999999994
11
84.9557609999999954
21
-63.0282239999999945
0
LINE
8
BLACK
6
CONTINUOUS
10
84.9557609999999954
20
-63.0282239999999945
11
84.9501109999999926
21
-63.0033600000000007
0
LINE
8
BLACK
6
CONTINUOUS
10
84.9501109999999926
20
-63.0033600000000007
11
84.9451820000000026
21
-62.9898179999999996
0
LINE
8
BLACK
6
CONTINUOUS
10
84.9451820000000026
20
-62.9898179999999996
11
84.9451820000000026
21
-36.9898179999999996
0
LINE
8
BLACK
6
CONTINUOUS
10
84.9451820000000026
20
-36.9898179999999996
11
84.9497049999999945
21
-36.9641659999999987
0
LINE
8
BLACK
6
CONTINUOUS
10
84.9497049999999945
20
-36.9641659999999987
11
84.9540360000000021
21
-36.9590040000000002
0
LINE
8
BLACK
6
CONTINUOUS
10
84.9540360000000021
20
-36.9590040000000002
11
84.9557609999999954
21
-36.9514129999999952
0
LINE
8
BLACK
6
CONTINUOUS
10
84.9557609999999954
20
-36.9514129999999952
11
84.9732609999999937
21
-36.936091999999995
0
LINE
8
BLACK
6
CONTINUOUS
10
84.9732609999999937
20
-36.936091999999995
11
84.9826819999999969
21
-36.9248660000000015
0
LINE
8
BLACK
6
CONTINUOUS
10
84.9826819999999969
20
-36.9248660000000015
11
84.986943999999994
21
-36.9241139999999959
0
LINE
8
BLACK
6
CONTINUOUS
10
84.986943999999994
20
-36.9241139999999959
11
84.9906379999999899
21
-36.9208810000000014
0
LINE
8
BLACK
6
CONTINUOUS
10
84.9906379999999899
20
-36.9208810000000014
11
84.9906299999999959
21
-36.9208640000000017
0
LINE
8
BLACK
6
CONTINUOUS
10
84.9906299999999959
20
-36.9208640000000017
11
85.1539479999999998
21
-36.8508759999999995
0
LINE
8
BLACK
6
CONTINUOUS
10
85.1539479999999998
20
-36.8508759999999995
11
85.4658050000000031
21
-36.6804989999999975
0
LINE
8
BLACK
6
CONTINUOUS
10
85.4658050000000031
20
-36.6804989999999975
11
85.7600699999999989
21
-36.4812709999999996
0
LINE
8
BLACK
6
CONTINUOUS
10
85.7600699999999989
20
-36.4812709999999996
11
86.0340819999999979
21
-36.254995000000001
0
LINE
8
BLACK
6
CONTINUOUS
10
86.0340819999999979
20
-36.254995000000001
11
86.2853640000000013
21
-36.0037159999999972
0
LINE
8
BLACK
6
CONTINUOUS
10
86.2853640000000013
20
-36.0037159999999972
11
86.5116429999999923
21
-35.7297069999999977
0
LINE
8
BLACK
6
CONTINUOUS
10
86.5116429999999923
20
-35.7297069999999977
11
86.7108739999999898
21
-35.4354439999999968
0
LINE
8
BLACK
6
CONTINUOUS
10
86.7108739999999898
20
-35.4354439999999968
11
86.8812559999999934
21
-35.1235889999999955
0
LINE
8
BLACK
6
CONTINUOUS
10
86.8812559999999934
20
-35.1235889999999955
11
86.9512450000000001
21
-34.9602719999999962
0
LINE
8
BLACK
6
CONTINUOUS
10
86.9512450000000001
20
-34.9602719999999962
11
86.9512459999999976
21
-34.9602730000000008
0
LINE
8
BLACK
6
CONTINUOUS
10
86.9512459999999976
20
-34.9602730000000008
11
86.9647980000000018
21
-34.9447909999999951
0
LINE
8
BLACK
6
CONTINUOUS
10
86.9647980000000018
20
-34.9447909999999951
11
86.9719729999999913
21
-34.9323649999999972
0
LINE
8
BLACK
6
CONTINUOUS
10
86.9719729999999913
20
-34.9323649999999972
11
86.9774079999999969
21
-34.9303859999999986
0
LINE
8
BLACK
6
CONTINUOUS
10
86.9774079999999969
20
-34.9303859999999986
11
86.9817769999999939
21
-34.9253959999999992
0
LINE
8
BLACK
6
CONTINUOUS
10
86.9817769999999939
20
-34.9253959999999992
11
87.0066360000000003
21
-34.9197479999999985
0
LINE
8
BLACK
6
CONTINUOUS
10
87.0066360000000003
20
-34.9197479999999985
11
87.0201819999999913
21
-34.9148179999999968
0
LINE
8
BLACK
6
CONTINUOUS
10
87.0201819999999913
20
-34.9148179999999968
11
113.0201819999999913
21
-34.9148179999999968
0
LINE
8
BLACK
6
CONTINUOUS
10
113.0201819999999913
20
-34.9148179999999968
11
113.0458339999999993
21
-34.9193409999999957
0
LINE
8
BLACK
6
CONTINUOUS
10
87.0670199999999994
20
-35.0648179999999954
11
86.9276940000000025
21
-35.3514319999999955
0
LINE
8
BLACK
6
CONTINUOUS
10
86.9276940000000025
20
-35.3514319999999955
11
86.7354619999999983
21
-35.6666680000000014
0
LINE
8
BLACK
6
CONTINUOUS
10
86.7354619999999983
20
-35.6666680000000014
11
86.5141579999999948
21
-35.9622209999999995
0
LINE
8
BLACK
6
CONTINUOUS
10
86.5141579999999948
20
-35.9622209999999995
11
86.2657839999999965
21
-36.2354179999999957
0
LINE
8
BLACK
6
CONTINUOUS
10
86.2657839999999965
20
-36.2354179999999957
11
85.9925829999999962
21
-36.4837890000000016
0
LINE
8
BLACK
6
CONTINUOUS
10
85.9925829999999962
20
-36.4837890000000016
11
85.6970280000000031
21
-36.705089000000001
0
LINE
8
BLACK
6
CONTINUOUS
10
85.6970280000000031
20
-36.705089000000001
11
85.3817899999999952
21
-36.897317000000001
0
LINE
8
BLACK
6
CONTINUOUS
10
85.3817899999999952
20
-36.897317000000001
11
85.0951819999999941
21
-37.0366349999999969
0
LINE
8
BLACK
6
CONTINUOUS
10
85.0951819999999941
20
-37.0366349999999969
11
85.0951819999999941
21
-62.942978999999994
0
LINE
8
BLACK
6
CONTINUOUS
10
85.0951819999999941
20
-62.942978999999994
11
85.3817990000000009
21
-63.0822999999999965
0
LINE
8
BLACK
6
CONTINUOUS
10
85.3817990000000009
20
-63.0822999999999965
11
85.6970400000000012
21
-63.2745269999999991
0
LINE
8
BLACK
6
CONTINUOUS
10
85.6970400000000012
20
-63.2745269999999991
11
85.9925969999999893
21
-63.4958290000000005
0
LINE
8
BLACK
6
CONTINUOUS
10
85.9925969999999893
20
-63.4958290000000005
11
86.2657969999999921
21
-63.7442029999999988
0
LINE
8
BLACK
6
CONTINUOUS
10
86.2657969999999921
20
-63.7442029999999988
11
86.5141709999999904
21
-64.0174030000000016
0
LINE
8
BLACK
6
CONTINUOUS
10
86.5141709999999904
20
-64.0174030000000016
11
86.7354729999999989
21
-64.3129600000000039
0
LINE
8
BLACK
6
CONTINUOUS
10
86.7354729999999989
20
-64.3129600000000039
11
86.9277000000000015
21
-64.62820099999999
0
LINE
8
BLACK
6
CONTINUOUS
10
86.9277000000000015
20
-64.62820099999999
11
87.0670199999999994
21
-64.9148179999999968
0
LINE
8
BLACK
6
CONTINUOUS
10
87.0670199999999994
20
-64.9148179999999968
11
112.9733419999999882
21
-64.9148179999999968
0
LINE
8
BLACK
6
CONTINUOUS
10
112.9733419999999882
20
-64.9148179999999968
11
113.1126579999999962
21
-64.6281979999999976
0
LINE
8
BLACK
6
CONTINUOUS
10
113.1126579999999962
20
-64.6281979999999976
11
113.3048829999999896
21
-64.3129529999999932
0
LINE
8
BLACK
6
CONTINUOUS
10
113.3048829999999896
20
-64.3129529999999932
11
113.5261819999999915
21
-64.0173929999999984
0
LINE
8
BLACK
6
CONTINUOUS
10
113.5261819999999915
20
-64.0173929999999984
11
113.7745549999999923
21
-63.7441889999999987
0
LINE
8
BLACK
6
CONTINUOUS
10
113.7745549999999923
20
-63.7441889999999987
11
114.0477559999999926
21
-63.4958129999999983
0
LINE
8
BLACK
6
CONTINUOUS
10
114.0477559999999926
20
-63.4958129999999983
11
114.3433129999999949
21
-63.2745099999999994
0
LINE
8
BLACK
6
CONTINUOUS
10
114.3433129999999949
20
-63.2745099999999994
11
114.6585549999999927
21
-63.0822819999999993
0
LINE
8
BLACK
6
CONTINUOUS
10
114.6585549999999927
20
-63.0822819999999993
11
114.9451819999999884
21
-62.9429569999999998
0
LINE
8
BLACK
6
CONTINUOUS
10
114.9451819999999884
20
-62.9429569999999998
11
114.9451819999999884
21
-37.0366569999999982
0
LINE
8
BLACK
6
CONTINUOUS
10
114.9451819999999884
20
-37.0366569999999982
11
114.6585649999999958
21
-36.8973349999999982
0
LINE
8
BLACK
6
CONTINUOUS
10
114.6585649999999958
20
-36.8973349999999982
11
114.343324999999993
21
-36.7051069999999982
0
LINE
8
BLACK
6
CONTINUOUS
10
114.343324999999993
20
-36.7051069999999982
11
114.0477689999999882
21
-36.4838049999999967
0
LINE
8
BLACK
6
CONTINUOUS
10
114.0477689999999882
20
-36.4838049999999967
11
113.7745689999999996
21
-36.2354309999999984
0
LINE
8
BLACK
6
CONTINUOUS
10
113.7745689999999996
20
-36.2354309999999984
11
113.5261950000000013
21
-35.9622309999999956
0
LINE
8
BLACK
6
CONTINUOUS
10
113.5261950000000013
20
-35.9622309999999956
11
113.3048929999999928
21
-35.6666749999999979
0
LINE
8
BLACK
6
CONTINUOUS
10
113.3048929999999928
20
-35.6666749999999979
11
113.1126649999999927
21
-35.3514349999999951
0
LINE
8
BLACK
6
CONTINUOUS
10
113.1126649999999927
20
-35.3514349999999951
11
112.9733429999999998
21
-35.0648179999999954
0
LINE
8
BLACK
6
CONTINUOUS
10
112.9733429999999998
20
-35.0648179999999954
11
87.0670199999999994
21
-35.0648179999999954
0
LINE
8
BLACK
6
CONTINUOUS
10
84.769999999999996
20
-37.25
11
84.8053549999999916
21
-37.2646450000000016
0
LINE
8
BLACK
6
CONTINUOUS
10
84.8053549999999916
20
-37.2646450000000016
11
84.8199999999999932
21
-37.2999999999999972
0
LINE
8
BLACK
6
CONTINUOUS
10
84.8199999999999932
20
-37.2999999999999972
11
84.8199999999999932
21
-62.6999999999999957
0
LINE
8
BLACK
6
CONTINUOUS
10
84.8199999999999932
20
-62.6999999999999957
11
84.8053549999999916
21
-62.7353549999999984
0
LINE
8
BLACK
6
CONTINUOUS
10
84.8053549999999916
20
-62.7353549999999984
11
84.769999999999996
21
-62.75
0
LINE
8
BLACK
6
CONTINUOUS
10
84.769999999999996
20
-62.75
11
82.2299999999999898
21
-62.75
0
LINE
8
BLACK
6
CONTINUOUS
10
82.2299999999999898
20
-62.75
11
82.1946449999999942
21
-62.7353549999999984
0
LINE
8
BLACK
6
CONTINUOUS
10
82.1946449999999942
20
-62.7353549999999984
11
82.1799999999999926
21
-62.6999999999999957
0
LINE
8
BLACK
6
CONTINUOUS
10
82.1799999999999926
20
-62.6999999999999957
11
82.1799999999999926
21
-37.2999999999999972
0
LINE
8
BLACK
6
CONTINUOUS
10
82.1799999999999926
20
-37.2999999999999972
11
82.1946449999999942
21
-37.2646450000000016
0
LINE
8
BLACK
6
CONTINUOUS
10
82.1946449999999942
20
-37.2646450000000016
11
82.2299999999999898
21
-37.25
0
LINE
8
BLACK
6
CONTINUOUS
10
82.2299999999999898
20
-37.25
11
84.769999999999996
21
-37.25
0
LINE
8
BLACK
6
CONTINUOUS
10
82.2800000000000011
20
-37.3500000000000014
11
82.2800000000000011
21
-62.6499999999999986
0
LINE
8
BLACK
6
CONTINUOUS
10
82.2800000000000011
20
-62.6499999999999986
11
84.7199999999999989
21
-62.6499999999999986
0
LINE
8
BLACK
6
CONTINUOUS
10
84.7199999999999989
20
-62.6499999999999986
11
84.7199999999999989
21
-37.3500000000000014
0
LINE
8
BLACK
6
CONTINUOUS
10
84.7199999999999989
20
-37.3500000000000014
11
82.2800000000000011
21
-37.3500000000000014
0
LINE
8
BLACK
6
CONTINUOUS
10
117.769999999999996
20
-37.25
11
117.8053549999999916
21
-37.2646450000000016
0
LINE
8
BLACK
6
CONTINUOUS
10
117.8053549999999916
20
-37.2646450000000016
11
117.8199999999999932
21
-37.2999999999999972
0
LINE
8
BLACK
6
CONTINUOUS
10
117.8199999999999932
20
-37.2999999999999972
11
117.8199999999999932
21
-62.6999999999999957
0
LINE
8
BLACK
6
CONTINUOUS
10
117.8199999999999932
20
-62.6999999999999957
11
117.8053549999999916
21
-62.7353549999999984
0
LINE
8
BLACK
6
CONTINUOUS
10
117.8053549999999916
20
-62.7353549999999984
11
117.769999999999996
21
-62.75
0
LINE
8
BLACK
6
CONTINUOUS
10
117.769999999999996
20
-62.75
11
115.2299999999999898
21
-62.75
0
LINE
8
BLACK
6
CONTINUOUS
10
115.2299999999999898
20
-62.75
11
115.1946449999999942
21
-62.7353549999999984
0
LINE
8
BLACK
6
CONTINUOUS
10
115.1946449999999942
20
-62.7353549999999984
11
115.1799999999999926
21
-62.6999999999999957
0
LINE
8
BLACK
6
CONTINUOUS
10
115.1799999999999926
20
-62.6999999999999957
11
115.1799999999999926
21
-37.2999999999999972
0
LINE
8
BLACK
6
CONTINUOUS
10
115.1799999999999926
20
-37.2999999999999972
11
115.1946449999999942
21
-37.2646450000000016
0
LINE
8
BLACK
6
CONTINUOUS
10
115.1946449999999942
20
-37.2646450000000016
11
115.2299999999999898
21
-37.25
0
LINE
8
BLACK
6
CONTINUOUS
10
115.2299999999999898
20
-37.25
11
117.769999999999996
21
-37.25
0
LINE
8
BLACK
6
CONTINUOUS
10
115.2800000000000011
20
-37.3500000000000014
11
115.2800000000000011
21
-62.6499999999999986
0
LINE
8
BLACK
6
CONTINUOUS
10
115.2800000000000011
20
-62.6499999999999986
11
117.7199999999999989
21
-62.6499999999999986
0
LINE
8
BLACK
6
CONTINUOUS
10
117.7199999999999989
20
-62.6499999999999986
11
117.7199999999999989
21
-37.3500000000000014
0
LINE
8
BLACK
6
CONTINUOUS
10
117.7199999999999989
20
-37.3500000000000014
11
115.2800000000000011
21
-37.3500000000000014
0
LINE
8
BLACK
6
CONTINUOUS
10
81.452021000000002
20
-61.1418919999999986
11
81.4666659999999894
21
-61.1772469999999942
0
LINE
8
BLACK
6
CONTINUOUS
10
81.4666659999999894
20
-61.1772469999999942
11
81.4666659999999894
21
-61.462961
0
LINE
8
BLACK
6
CONTINUOUS
10
81.4666659999999894
20
-61.462961
11
81.4635159999999985
21
-61.4705629999999985
0
LINE
8
BLACK
6
CONTINUOUS
10
81.4635159999999985
20
-61.4705629999999985
11
81.464100000000002
21
-61.4787719999999993
0
LINE
8
BLACK
6
CONTINUOUS
10
81.464100000000002
20
-61.4787719999999993
11
81.4450530000000015
21
-61.5359149999999957
0
LINE
8
BLACK
6
CONTINUOUS
10
81.4450530000000015
20
-61.5359149999999957
11
81.4374269999999996
21
-61.5447069999999954
0
LINE
8
BLACK
6
CONTINUOUS
10
81.4374269999999996
20
-61.5447069999999954
11
81.4329740000000015
21
-61.555458999999999
0
LINE
8
BLACK
6
CONTINUOUS
10
81.4329740000000015
20
-61.555458999999999
11
81.3948779999999914
21
-61.5935549999999949
0
LINE
8
BLACK
6
CONTINUOUS
10
81.3948779999999914
20
-61.5935549999999949
11
81.3841259999999949
21
-61.5980080000000001
0
LINE
8
BLACK
6
CONTINUOUS
10
81.3841259999999949
20
-61.5980080000000001
11
81.3753339999999952
21
-61.6056339999999949
0
LINE
8
BLACK
6
CONTINUOUS
10
81.3753339999999952
20
-61.6056339999999949
11
81.3181919999999963
21
-61.6246809999999954
0
LINE
8
BLACK
6
CONTINUOUS
10
81.3181919999999963
20
-61.6246809999999954
11
81.3099830000000026
21
-61.624096999999999
0
LINE
8
BLACK
6
CONTINUOUS
10
81.3099830000000026
20
-61.624096999999999
11
81.3023809999999969
21
-61.627246999999997
0
LINE
8
BLACK
6
CONTINUOUS
10
81.3023809999999969
20
-61.627246999999997
11
81.264285000000001
21
-61.627246999999997
0
LINE
8
BLACK
6
CONTINUOUS
10
81.264285000000001
20
-61.627246999999997
11
81.2289299999999912
21
-61.6126019999999954
0
LINE
8
BLACK
6
CONTINUOUS
10
81.2289299999999912
20
-61.6126019999999954
11
81.2142849999999896
21
-61.5772469999999998
0
LINE
8
BLACK
6
CONTINUOUS
10
81.2142849999999896
20
-61.5772469999999998
11
81.2289299999999912
21
-61.5418919999999972
0
LINE
8
BLACK
6
CONTINUOUS
10
81.2289299999999912
20
-61.5418919999999972
11
81.264285000000001
21
-61.5272469999999956
0
LINE
8
BLACK
6
CONTINUOUS
10
81.264285000000001
20
-61.5272469999999956
11
81.2942680000000024
21
-61.5272469999999956
0
LINE
8
BLACK
6
CONTINUOUS
10
81.2942680000000024
20
-61.5272469999999956
11
81.3325140000000033
21
-61.5144979999999961
0
LINE
8
BLACK
6
CONTINUOUS
10
81.3325140000000033
20
-61.5144979999999961
11
81.3539169999999956
21
-61.4930949999999967
0
LINE
8
BLACK
6
CONTINUOUS
10
81.3539169999999956
20
-61.4930949999999967
11
81.3666659999999951
21
-61.4548479999999984
0
LINE
8
BLACK
6
CONTINUOUS
10
81.3666659999999951
20
-61.4548479999999984
11
81.3666659999999951
21
-61.1772469999999942
0
LINE
8
BLACK
6
CONTINUOUS
10
81.3666659999999951
20
-61.1772469999999942
11
81.3813109999999966
21
-61.1418919999999986
0
LINE
8
BLACK
6
CONTINUOUS
10
81.3813109999999966
20
-61.1418919999999986
11
81.4166659999999922
21
-61.127246999999997
0
LINE
8
BLACK
6
CONTINUOUS
10
81.4166659999999922
20
-61.127246999999997
11
81.452021000000002
21
-61.1418919999999986
0
LINE
8
BLACK
6
CONTINUOUS
10
81.7280540000000002
20
-61.1358399999999946
11
81.7307670000000002
21
-61.1740110000000001
0
LINE
8
BLACK
6
CONTINUOUS
10
81.7307670000000002
20
-61.1740110000000001
11
81.6574659999999994
21
-61.3939139999999952
0
LINE
8
BLACK
6
CONTINUOUS
10
81.6574659999999994
20
-61.3939139999999952
11
81.7285710000000023
21
-61.3939139999999952
0
LINE
8
BLACK
6
CONTINUOUS
10
81.7285710000000023
20
-61.3939139999999952
11
81.7285710000000023
21
-61.3105799999999945
0
LINE
8
BLACK
6
CONTINUOUS
10
81.7285710000000023
20
-61.3105799999999945
11
81.7432159999999897
21
-61.2752249999999989
0
LINE
8
BLACK
6
CONTINUOUS
10
81.7432159999999897
20
-61.2752249999999989
11
81.7785709999999995
21
-61.2605799999999974
0
LINE
8
BLACK
6
CONTINUOUS
10
81.7785709999999995
20
-61.2605799999999974
11
81.813925999999995
21
-61.2752249999999989
0
LINE
8
BLACK
6
CONTINUOUS
10
81.813925999999995
20
-61.2752249999999989
11
81.8285709999999966
21
-61.3105799999999945
0
LINE
8
BLACK
6
CONTINUOUS
10
81.8285709999999966
20
-61.3105799999999945
11
81.8285709999999966
21
-61.3939139999999952
0
LINE
8
BLACK
6
CONTINUOUS
10
81.8285709999999966
20
-61.3939139999999952
11
81.8357139999999958
21
-61.3939139999999952
0
LINE
8
BLACK
6
CONTINUOUS
10
81.8357139999999958
20
-61.3939139999999952
11
81.8710689999999914
21
-61.4085589999999968
0
LINE
8
BLACK
6
CONTINUOUS
10
81.8710689999999914
20
-61.4085589999999968
11
81.885713999999993
21
-61.4439139999999995
0
LINE
8
BLACK
6
CONTINUOUS
10
81.885713999999993
20
-61.4439139999999995
11
81.8710689999999914
21
-61.4792689999999951
0
LINE
8
BLACK
6
CONTINUOUS
10
81.8710689999999914
20
-61.4792689999999951
11
81.8357139999999958
21
-61.4939139999999966
0
LINE
8
BLACK
6
CONTINUOUS
10
81.8357139999999958
20
-61.4939139999999966
11
81.8285709999999966
21
-61.4939139999999966
0
LINE
8
BLACK
6
CONTINUOUS
10
81.8285709999999966
20
-61.4939139999999966
11
81.8285709999999966
21
-61.5772469999999998
0
LINE
8
BLACK
6
CONTINUOUS
10
81.8285709999999966
20
-61.5772469999999998
11
81.813925999999995
21
-61.6126019999999954
0
LINE
8
BLACK
6
CONTINUOUS
10
81.813925999999995
20
-61.6126019999999954
11
81.7785709999999995
21
-61.627246999999997
0
LINE
8
BLACK
6
CONTINUOUS
10
81.7785709999999995
20
-61.627246999999997
11
81.7432159999999897
21
-61.6126019999999954
0
LINE
8
BLACK
6
CONTINUOUS
10
81.7432159999999897
20
-61.6126019999999954
11
81.7285710000000023
21
-61.5772469999999998
0
LINE
8
BLACK
6
CONTINUOUS
10
81.7285710000000023
20
-61.5772469999999998
11
81.7285710000000023
21
-61.4939139999999966
0
LINE
8
BLACK
6
CONTINUOUS
10
81.7285710000000023
20
-61.4939139999999966
11
81.5880949999999956
21
-61.4939139999999966
0
LINE
8
BLACK
6
CONTINUOUS
10
81.5880949999999956
20
-61.4939139999999966
11
81.580490999999995
21
-61.4907639999999986
0
LINE
8
BLACK
6
CONTINUOUS
10
81.580490999999995
20
-61.4907639999999986
11
81.5722839999999962
21
-61.491347999999995
0
LINE
8
BLACK
6
CONTINUOUS
10
81.5722839999999962
20
-61.491347999999995
11
81.5634919999999966
21
-61.4837220000000002
0
LINE
8
BLACK
6
CONTINUOUS
10
81.5634919999999966
20
-61.4837220000000002
11
81.55274
21
-61.4792689999999951
0
LINE
8
BLACK
6
CONTINUOUS
10
81.55274
20
-61.4792689999999951
11
81.5495899999999949
21
-61.4716649999999944
0
LINE
8
BLACK
6
CONTINUOUS
10
81.5495899999999949
20
-61.4716649999999944
11
81.543374
21
-61.4662739999999985
0
LINE
8
BLACK
6
CONTINUOUS
10
81.543374
20
-61.4662739999999985
11
81.542548999999994
21
-61.454665999999996
0
LINE
8
BLACK
6
CONTINUOUS
10
81.542548999999994
20
-61.454665999999996
11
81.5380949999999984
21
-61.4439139999999995
0
LINE
8
BLACK
6
CONTINUOUS
10
81.5380949999999984
20
-61.4439139999999995
11
81.5412439999999918
21
-61.4363099999999989
0
LINE
8
BLACK
6
CONTINUOUS
10
81.5412439999999918
20
-61.4363099999999989
11
81.5406610000000001
21
-61.4281030000000001
0
LINE
8
BLACK
6
CONTINUOUS
10
81.5406610000000001
20
-61.4281030000000001
11
81.6358989999999949
21
-61.1423889999999943
0
LINE
8
BLACK
6
CONTINUOUS
10
81.6358989999999949
20
-61.1423889999999943
11
81.6609729999999985
21
-61.1134789999999981
0
LINE
8
BLACK
6
CONTINUOUS
10
81.6609729999999985
20
-61.1134789999999981
11
81.6991439999999898
21
-61.1107659999999981
0
LINE
8
BLACK
6
CONTINUOUS
10
81.6991439999999898
20
-61.1107659999999981
11
81.7280540000000002
21
-61.1358399999999946
0
LINE
8
BLACK
6
CONTINUOUS
10
118.3020209999999963
20
-38.2918919999999972
11
118.3166659999999979
21
-38.3272469999999998
0
LINE
8
BLACK
6
CONTINUOUS
10
118.3166659999999979
20
-38.3272469999999998
11
118.3166659999999979
21
-38.6129609999999985
0
LINE
8
BLACK
6
CONTINUOUS
10
118.3166659999999979
20
-38.6129609999999985
11
118.3135159999999928
21
-38.6205629999999971
0
LINE
8
BLACK
6
CONTINUOUS
10
118.3135159999999928
20
-38.6205629999999971
11
118.3140999999999963
21
-38.6287719999999979
0
LINE
8
BLACK
6
CONTINUOUS
10
118.3140999999999963
20
-38.6287719999999979
11
118.2950529999999958
21
-38.6859150000000014
0
LINE
8
BLACK
6
CONTINUOUS
10
118.2950529999999958
20
-38.6859150000000014
11
118.2874269999999939
21
-38.6947070000000011
0
LINE
8
BLACK
6
CONTINUOUS
10
118.2874269999999939
20
-38.6947070000000011
11
118.2829739999999958
21
-38.7054589999999976
0
LINE
8
BLACK
6
CONTINUOUS
10
118.2829739999999958
20
-38.7054589999999976
11
118.2448779999999999
21
-38.7435550000000006
0
LINE
8
BLACK
6
CONTINUOUS
10
118.2448779999999999
20
-38.7435550000000006
11
118.2341259999999892
21
-38.7480079999999987
0
LINE
8
BLACK
6
CONTINUOUS
10
118.2341259999999892
20
-38.7480079999999987
11
118.2253339999999895
21
-38.7556340000000006
0
LINE
8
BLACK
6
CONTINUOUS
10
118.2253339999999895
20
-38.7556340000000006
11
118.1681919999999906
21
-38.7746810000000011
0
LINE
8
BLACK
6
CONTINUOUS
10
118.1681919999999906
20
-38.7746810000000011
11
118.1599829999999969
21
-38.7740969999999976
0
LINE
8
BLACK
6
CONTINUOUS
10
118.1599829999999969
20
-38.7740969999999976
11
118.1523809999999912
21
-38.7772469999999956
0
LINE
8
BLACK
6
CONTINUOUS
10
118.1523809999999912
20
-38.7772469999999956
11
118.1142849999999953
21
-38.7772469999999956
0
LINE
8
BLACK
6
CONTINUOUS
10
118.1142849999999953
20
-38.7772469999999956
11
118.0789299999999997
21
-38.7626020000000011
0
LINE
8
BLACK
6
CONTINUOUS
10
118.0789299999999997
20
-38.7626020000000011
11
118.0642849999999981
21
-38.7272469999999984
0
LINE
8
BLACK
6
CONTINUOUS
10
118.0642849999999981
20
-38.7272469999999984
11
118.0789299999999997
21
-38.6918919999999957
0
LINE
8
BLACK
6
CONTINUOUS
10
118.0789299999999997
20
-38.6918919999999957
11
118.1142849999999953
21
-38.6772470000000013
0
LINE
8
BLACK
6
CONTINUOUS
10
118.1142849999999953
20
-38.6772470000000013
11
118.1442679999999967
21
-38.6772470000000013
0
LINE
8
BLACK
6
CONTINUOUS
10
118.1442679999999967
20
-38.6772470000000013
11
118.1825139999999976
21
-38.6644979999999947
0
LINE
8
BLACK
6
CONTINUOUS
10
118.1825139999999976
20
-38.6644979999999947
11
118.2039169999999899
21
-38.6430949999999953
0
LINE
8
BLACK
6
CONTINUOUS
10
118.2039169999999899
20
-38.6430949999999953
11
118.2166659999999894
21
-38.6048479999999969
0
LINE
8
BLACK
6
CONTINUOUS
10
118.2166659999999894
20
-38.6048479999999969
11
118.2166659999999894
21
-38.3272469999999998
0
LINE
8
BLACK
6
CONTINUOUS
10
118.2166659999999894
20
-38.3272469999999998
11
118.2313109999999909
21
-38.2918919999999972
0
LINE
8
BLACK
6
CONTINUOUS
10
118.2313109999999909
20
-38.2918919999999972
11
118.2666660000000007
21
-38.2772469999999956
0
LINE
8
BLACK
6
CONTINUOUS
10
118.2666660000000007
20
-38.2772469999999956
11
118.3020209999999963
21
-38.2918919999999972
0
LINE
8
BLACK
6
CONTINUOUS
10
118.6012279999999919
20
-38.2817000000000007
11
118.612836999999999
21
-38.2825259999999972
0
LINE
8
BLACK
6
CONTINUOUS
10
118.612836999999999
20
-38.2825259999999972
11
118.6509319999999974
21
-38.3015739999999951
0
LINE
8
BLACK
6
CONTINUOUS
10
118.6509319999999974
20
-38.3015739999999951
11
118.6563230000000004
21
-38.3077899999999971
0
LINE
8
BLACK
6
CONTINUOUS
10
118.6563230000000004
20
-38.3077899999999971
11
118.6639249999999919
21
-38.3109389999999976
0
LINE
8
BLACK
6
CONTINUOUS
10
118.6639249999999919
20
-38.3109389999999976
11
118.6829729999999898
21
-38.3299859999999981
0
LINE
8
BLACK
6
CONTINUOUS
10
118.6829729999999898
20
-38.3299859999999981
11
118.6861219999999975
21
-38.3375879999999967
0
LINE
8
BLACK
6
CONTINUOUS
10
118.6861219999999975
20
-38.3375879999999967
11
118.692340999999999
21
-38.3429819999999992
0
LINE
8
BLACK
6
CONTINUOUS
10
118.692340999999999
20
-38.3429819999999992
11
118.7113879999999995
21
-38.3810779999999951
0
LINE
8
BLACK
6
CONTINUOUS
10
118.7113879999999995
20
-38.3810779999999951
11
118.7122119999999938
21
-38.3926859999999976
0
LINE
8
BLACK
6
CONTINUOUS
10
118.7122119999999938
20
-38.3926859999999976
11
118.7166659999999894
21
-38.4034380000000013
0
LINE
8
BLACK
6
CONTINUOUS
10
118.7166659999999894
20
-38.4034380000000013
11
118.7166659999999894
21
-38.4415329999999997
0
LINE
8
BLACK
6
CONTINUOUS
10
118.7166659999999894
20
-38.4415329999999997
11
118.7135159999999985
21
-38.4491349999999983
0
LINE
8
BLACK
6
CONTINUOUS
10
118.7135159999999985
20
-38.4491349999999983
11
118.7140999999999877
21
-38.4573439999999991
0
LINE
8
BLACK
6
CONTINUOUS
10
118.7140999999999877
20
-38.4573439999999991
11
118.6950530000000015
21
-38.5144869999999955
0
LINE
8
BLACK
6
CONTINUOUS
10
118.6950530000000015
20
-38.5144869999999955
11
118.6874269999999996
21
-38.5232789999999952
0
LINE
8
BLACK
6
CONTINUOUS
10
118.6874269999999996
20
-38.5232789999999952
11
118.6829740000000015
21
-38.5340309999999988
0
LINE
8
BLACK
6
CONTINUOUS
10
118.6829740000000015
20
-38.5340309999999988
11
118.5397569999999945
21
-38.6772470000000013
0
LINE
8
BLACK
6
CONTINUOUS
10
118.5397569999999945
20
-38.6772470000000013
11
118.6666659999999922
21
-38.6772470000000013
0
LINE
8
BLACK
6
CONTINUOUS
10
118.6666659999999922
20
-38.6772470000000013
11
118.7020209999999878
21
-38.6918919999999957
0
LINE
8
BLACK
6
CONTINUOUS
10
118.7020209999999878
20
-38.6918919999999957
11
118.7166659999999894
21
-38.7272469999999984
0
LINE
8
BLACK
6
CONTINUOUS
10
118.7166659999999894
20
-38.7272469999999984
11
118.7020209999999878
21
-38.7626020000000011
0
LINE
8
BLACK
6
CONTINUOUS
10
118.7020209999999878
20
-38.7626020000000011
11
118.6666659999999922
21
-38.7772469999999956
0
LINE
8
BLACK
6
CONTINUOUS
10
118.6666659999999922
20
-38.7772469999999956
11
118.419046999999992
21
-38.7772469999999956
0
LINE
8
BLACK
6
CONTINUOUS
10
118.419046999999992
20
-38.7772469999999956
11
118.3836919999999964
21
-38.7626020000000011
0
LINE
8
BLACK
6
CONTINUOUS
10
118.3836919999999964
20
-38.7626020000000011
11
118.3690469999999948
21
-38.7272469999999984
0
LINE
8
BLACK
6
CONTINUOUS
10
118.3690469999999948
20
-38.7272469999999984
11
118.3836919999999964
21
-38.6918919999999957
0
LINE
8
BLACK
6
CONTINUOUS
10
118.3836919999999964
20
-38.6918919999999957
11
118.6039169999999956
21
-38.4716669999999965
0
LINE
8
BLACK
6
CONTINUOUS
10
118.6039169999999956
20
-38.4716669999999965
11
118.6166659999999951
21
-38.4334199999999981
0
LINE
8
BLACK
6
CONTINUOUS
10
118.6166659999999951
20
-38.4334199999999981
11
118.6166659999999951
21
-38.4152410000000017
0
LINE
8
BLACK
6
CONTINUOUS
10
118.6166659999999951
20
-38.4152410000000017
11
118.6065249999999907
21
-38.3949590000000001
0
LINE
8
BLACK
6
CONTINUOUS
10
118.6065249999999907
20
-38.3949590000000001
11
118.5989529999999945
21
-38.3873869999999968
0
LINE
8
BLACK
6
CONTINUOUS
10
118.5989529999999945
20
-38.3873869999999968
11
118.5786729999999949
21
-38.377246999999997
0
LINE
8
BLACK
6
CONTINUOUS
10
118.5786729999999949
20
-38.377246999999997
11
118.507041000000001
21
-38.377246999999997
0
LINE
8
BLACK
6
CONTINUOUS
10
118.507041000000001
20
-38.377246999999997
11
118.4867589999999922
21
-38.3873880000000014
0
LINE
8
BLACK
6
CONTINUOUS
10
118.4867589999999922
20
-38.3873880000000014
11
118.473448999999988
21
-38.4006979999999984
0
LINE
8
BLACK
6
CONTINUOUS
10
118.473448999999988
20
-38.4006979999999984
11
118.4380939999999924
21
-38.4153419999999954
0
LINE
8
BLACK
6
CONTINUOUS
10
118.4380939999999924
20
-38.4153419999999954
11
118.4027389999999968
21
-38.4006959999999964
0
LINE
8
BLACK
6
CONTINUOUS
10
118.4027389999999968
20
-38.4006959999999964
11
118.3880949999999928
21
-38.3653410000000008
0
LINE
8
BLACK
6
CONTINUOUS
10
118.3880949999999928
20
-38.3653410000000008
11
118.4027409999999918
21
-38.3299859999999981
0
LINE
8
BLACK
6
CONTINUOUS
10
118.4027409999999918
20
-38.3299859999999981
11
118.4217879999999923
21
-38.3109389999999976
0
LINE
8
BLACK
6
CONTINUOUS
10
118.4217879999999923
20
-38.3109389999999976
11
118.4293899999999979
21
-38.3077899999999971
0
LINE
8
BLACK
6
CONTINUOUS
10
118.4293899999999979
20
-38.3077899999999971
11
118.4347819999999984
21
-38.3015739999999951
0
LINE
8
BLACK
6
CONTINUOUS
10
118.4347819999999984
20
-38.3015739999999951
11
118.4728769999999969
21
-38.2825259999999972
0
LINE
8
BLACK
6
CONTINUOUS
10
118.4728769999999969
20
-38.2825259999999972
11
118.4844849999999923
21
-38.2817000000000007
0
LINE
8
BLACK
6
CONTINUOUS
10
118.4844849999999923
20
-38.2817000000000007
11
118.4952380000000005
21
-38.2772469999999956
0
LINE
8
BLACK
6
CONTINUOUS
10
118.4952380000000005
20
-38.2772469999999956
11
118.5904759999999953
21
-38.2772469999999956
0
LINE
8
BLACK
6
CONTINUOUS
10
118.5904759999999953
20
-38.2772469999999956
11
118.6012279999999919
21
-38.2817000000000007
0
LINE
8
BLACK
6
CONTINUOUS
10
112.6999999999999886
20
-32.1799999999999997
11
112.7353549999999984
21
-32.1946450000000013
0
LINE
8
BLACK
6
CONTINUOUS
10
112.7353549999999984
20
-32.1946450000000013
11
112.75
21
-32.2299999999999969
0
LINE
8
BLACK
6
CONTINUOUS
10
112.75
20
-32.2299999999999969
11
112.75
21
-34.769999999999996
0
LINE
8
BLACK
6
CONTINUOUS
10
112.75
20
-34.769999999999996
11
112.7353549999999984
21
-34.8053549999999987
0
LINE
8
BLACK
6
CONTINUOUS
10
112.7353549999999984
20
-34.8053549999999987
11
112.6999999999999886
21
-34.8200000000000003
0
LINE
8
BLACK
6
CONTINUOUS
10
112.6999999999999886
20
-34.8200000000000003
11
87.2999999999999972
21
-34.8200000000000003
0
LINE
8
BLACK
6
CONTINUOUS
10
87.2999999999999972
20
-34.8200000000000003
11
87.2646450000000016
21
-34.8053549999999987
0
LINE
8
BLACK
6
CONTINUOUS
10
87.2646450000000016
20
-34.8053549999999987
11
87.25
21
-34.769999999999996
0
LINE
8
BLACK
6
CONTINUOUS
10
87.25
20
-34.769999999999996
11
87.25
21
-32.2299999999999969
0
LINE
8
BLACK
6
CONTINUOUS
10
87.25
20
-32.2299999999999969
11
87.2646450000000016
21
-32.1946450000000013
0
LINE
8
BLACK
6
CONTINUOUS
10
87.2646450000000016
20
-32.1946450000000013
11
87.2999999999999972
21
-32.1799999999999997
0
LINE
8
BLACK
6
CONTINUOUS
10
87.2999999999999972
20
-32.1799999999999997
11
112.6999999999999886
21
-32.1799999999999997
0
LINE
8
BLACK
6
CONTINUOUS
10
87.3499999999999943
20
-32.2800000000000011
11
87.3499999999999943
21
-34.7199999999999989
0
LINE
8
BLACK
6
CONTINUOUS
10
87.3499999999999943
20
-34.7199999999999989
11
112.6499999999999915
21
-34.7199999999999989
0
LINE
8
BLACK
6
CONTINUOUS
10
112.6499999999999915
20
-34.7199999999999989
11
112.6499999999999915
21
-32.2800000000000011
0
LINE
8
BLACK
6
CONTINUOUS
10
112.6499999999999915
20
-32.2800000000000011
11
87.3499999999999943
21
-32.2800000000000011
0
LINE
8
BLACK
6
CONTINUOUS
10
88.5020209999999992
20
-31.3918919999999986
11
88.5166660000000007
21
-31.4272469999999977
0
LINE
8
BLACK
6
CONTINUOUS
10
88.5166660000000007
20
-31.4272469999999977
11
88.5166660000000007
21
-31.712961
0
LINE
8
BLACK
6
CONTINUOUS
10
88.5166660000000007
20
-31.712961
11
88.5135159999999956
21
-31.7205629999999985
0
LINE
8
BLACK
6
CONTINUOUS
10
88.5135159999999956
20
-31.7205629999999985
11
88.5140999999999991
21
-31.7287719999999993
0
LINE
8
BLACK
6
CONTINUOUS
10
88.5140999999999991
20
-31.7287719999999993
11
88.4950529999999986
21
-31.7859149999999993
0
LINE
8
BLACK
6
CONTINUOUS
10
88.4950529999999986
20
-31.7859149999999993
11
88.4874269999999967
21
-31.7947069999999989
0
LINE
8
BLACK
6
CONTINUOUS
10
88.4874269999999967
20
-31.7947069999999989
11
88.4829739999999987
21
-31.805458999999999
0
LINE
8
BLACK
6
CONTINUOUS
10
88.4829739999999987
20
-31.805458999999999
11
88.4448780000000028
21
-31.8435549999999985
0
LINE
8
BLACK
6
CONTINUOUS
10
88.4448780000000028
20
-31.8435549999999985
11
88.434125999999992
21
-31.8480080000000001
0
LINE
8
BLACK
6
CONTINUOUS
10
88.434125999999992
20
-31.8480080000000001
11
88.4253339999999923
21
-31.8556339999999985
0
LINE
8
BLACK
6
CONTINUOUS
10
88.4253339999999923
20
-31.8556339999999985
11
88.3681919999999934
21
-31.8746809999999989
0
LINE
8
BLACK
6
CONTINUOUS
10
88.3681919999999934
20
-31.8746809999999989
11
88.3599829999999997
21
-31.874096999999999
0
LINE
8
BLACK
6
CONTINUOUS
10
88.3599829999999997
20
-31.874096999999999
11
88.3523809999999941
21
-31.877246999999997
0
LINE
8
BLACK
6
CONTINUOUS
10
88.3523809999999941
20
-31.877246999999997
11
88.3142849999999981
21
-31.877246999999997
0
LINE
8
BLACK
6
CONTINUOUS
10
88.3142849999999981
20
-31.877246999999997
11
88.2789300000000026
21
-31.862601999999999
0
LINE
8
BLACK
6
CONTINUOUS
10
88.2789300000000026
20
-31.862601999999999
11
88.264285000000001
21
-31.8272469999999998
0
LINE
8
BLACK
6
CONTINUOUS
10
88.264285000000001
20
-31.8272469999999998
11
88.2789300000000026
21
-31.7918919999999972
0
LINE
8
BLACK
6
CONTINUOUS
10
88.2789300000000026
20
-31.7918919999999972
11
88.3142849999999981
21
-31.7772469999999991
0
LINE
8
BLACK
6
CONTINUOUS
10
88.3142849999999981
20
-31.7772469999999991
11
88.3442679999999996
21
-31.7772469999999991
0
LINE
8
BLACK
6
CONTINUOUS
10
88.3442679999999996
20
-31.7772469999999991
11
88.3825140000000005
21
-31.7644979999999997
0
LINE
8
BLACK
6
CONTINUOUS
10
88.3825140000000005
20
-31.7644979999999997
11
88.4039169999999928
21
-31.7430950000000003
0
LINE
8
BLACK
6
CONTINUOUS
10
88.4039169999999928
20
-31.7430950000000003
11
88.4166659999999922
21
-31.7048479999999984
0
LINE
8
BLACK
6
CONTINUOUS
10
88.4166659999999922
20
-31.7048479999999984
11
88.4166659999999922
21
-31.4272469999999977
0
LINE
8
BLACK
6
CONTINUOUS
10
88.4166659999999922
20
-31.4272469999999977
11
88.4313109999999938
21
-31.3918919999999986
0
LINE
8
BLACK
6
CONTINUOUS
10
88.4313109999999938
20
-31.3918919999999986
11
88.4666659999999894
21
-31.377246999999997
0
LINE
8
BLACK
6
CONTINUOUS
10
88.4666659999999894
20
-31.377246999999997
11
88.5020209999999992
21
-31.3918919999999986
0
LINE
8
BLACK
6
CONTINUOUS
10
88.7658289999999965
20
-31.3828169999999993
11
88.78011699999999
21
-31.3856439999999992
0
LINE
8
BLACK
6
CONTINUOUS
10
88.78011699999999
20
-31.3856439999999992
11
88.7829819999999899
21
-31.3899219999999985
0
LINE
8
BLACK
6
CONTINUOUS
10
88.7829819999999899
20
-31.3899219999999985
11
88.7877359999999953
21
-31.3918919999999986
0
LINE
8
BLACK
6
CONTINUOUS
10
88.7877359999999953
20
-31.3918919999999986
11
88.7933060000000012
21
-31.4053399999999989
0
LINE
8
BLACK
6
CONTINUOUS
10
88.7933060000000012
20
-31.4053399999999989
11
88.80140999999999
21
-31.4174410000000002
0
LINE
8
BLACK
6
CONTINUOUS
10
88.80140999999999
20
-31.4174410000000002
11
88.8004099999999994
21
-31.4224899999999998
0
LINE
8
BLACK
6
CONTINUOUS
10
88.8004099999999994
20
-31.4224899999999998
11
88.8023809999999969
21
-31.4272469999999977
0
LINE
8
BLACK
6
CONTINUOUS
10
88.8023809999999969
20
-31.4272469999999977
11
88.8023809999999969
21
-31.7772469999999991
0
LINE
8
BLACK
6
CONTINUOUS
10
88.8023809999999969
20
-31.7772469999999991
11
88.8666659999999951
21
-31.7772469999999991
0
LINE
8
BLACK
6
CONTINUOUS
10
88.8666659999999951
20
-31.7772469999999991
11
88.9020209999999906
21
-31.7918919999999972
0
LINE
8
BLACK
6
CONTINUOUS
10
88.9020209999999906
20
-31.7918919999999972
11
88.9166659999999922
21
-31.8272469999999998
0
LINE
8
BLACK
6
CONTINUOUS
10
88.9166659999999922
20
-31.8272469999999998
11
88.9020209999999906
21
-31.862601999999999
0
LINE
8
BLACK
6
CONTINUOUS
10
88.9020209999999906
20
-31.862601999999999
11
88.8666659999999951
21
-31.877246999999997
0
LINE
8
BLACK
6
CONTINUOUS
10
88.8666659999999951
20
-31.877246999999997
11
88.7523809999999997
21
-31.877246999999997
0
LINE
8
BLACK
6
CONTINUOUS
10
88.7523809999999997
20
-31.877246999999997
11
88.6380949999999928
21
-31.877246999999997
0
LINE
8
BLACK
6
CONTINUOUS
10
88.6380949999999928
20
-31.877246999999997
11
88.6027399999999972
21
-31.862601999999999
0
LINE
8
BLACK
6
CONTINUOUS
10
88.6027399999999972
20
-31.862601999999999
11
88.5880949999999956
21
-31.8272469999999998
0
LINE
8
BLACK
6
CONTINUOUS
10
88.5880949999999956
20
-31.8272469999999998
11
88.6027399999999972
21
-31.7918919999999972
0
LINE
8
BLACK
6
CONTINUOUS
10
88.6027399999999972
20
-31.7918919999999972
11
88.6380949999999928
21
-31.7772469999999991
0
LINE
8
BLACK
6
CONTINUOUS
10
88.6380949999999928
20
-31.7772469999999991
11
88.7023810000000026
21
-31.7772469999999991
0
LINE
8
BLACK
6
CONTINUOUS
10
88.7023810000000026
20
-31.7772469999999991
11
88.7023810000000026
21
-31.5627889999999987
0
LINE
8
BLACK
6
CONTINUOUS
10
88.7023810000000026
20
-31.5627889999999987
11
88.6985509999999948
21
-31.5672059999999988
0
LINE
8
BLACK
6
CONTINUOUS
10
88.6985509999999948
20
-31.5672059999999988
11
88.6604559999999964
21
-31.5862540000000003
0
LINE
8
BLACK
6
CONTINUOUS
10
88.6604559999999964
20
-31.5862540000000003
11
88.6222839999999934
21
-31.5889670000000002
0
LINE
8
BLACK
6
CONTINUOUS
10
88.6222839999999934
20
-31.5889670000000002
11
88.5933739999999972
21
-31.5638939999999977
0
LINE
8
BLACK
6
CONTINUOUS
10
88.5933739999999972
20
-31.5638939999999977
11
88.5906609999999972
21
-31.5257219999999982
0
LINE
8
BLACK
6
CONTINUOUS
10
88.5906609999999972
20
-31.5257219999999982
11
88.6157339999999891
21
-31.4968119999999985
0
LINE
8
BLACK
6
CONTINUOUS
10
88.6157339999999891
20
-31.4968119999999985
11
88.6465719999999919
21
-31.4813919999999996
0
LINE
8
BLACK
6
CONTINUOUS
10
88.6465719999999919
20
-31.4813919999999996
11
88.6754299999999915
21
-31.452532999999999
0
LINE
8
BLACK
6
CONTINUOUS
10
88.6754299999999915
20
-31.452532999999999
11
88.7107790000000023
21
-31.3995109999999968
0
LINE
8
BLACK
6
CONTINUOUS
10
88.7107790000000023
20
-31.3995109999999968
11
88.7150559999999899
21
-31.3966459999999969
0
LINE
8
BLACK
6
CONTINUOUS
10
88.7150559999999899
20
-31.3966459999999969
11
88.7170259999999899
21
-31.3918919999999986
0
LINE
8
BLACK
6
CONTINUOUS
10
88.7170259999999899
20
-31.3918919999999986
11
88.7304759999999959
21
-31.3863199999999978
0
LINE
8
BLACK
6
CONTINUOUS
10
88.7304759999999959
20
-31.3863199999999978
11
88.7425759999999997
21
-31.3782179999999968
0
LINE
8
BLACK
6
CONTINUOUS
10
88.7425759999999997
20
-31.3782179999999968
11
88.7476249999999993
21
-31.3792159999999996
0
LINE
8
BLACK
6
CONTINUOUS
10
88.7476249999999993
20
-31.3792159999999996
11
88.7523809999999997
21
-31.377246999999997
0
LINE
8
BLACK
6
CONTINUOUS
10
88.7523809999999997
20
-31.377246999999997
11
88.7658289999999965
21
-31.3828169999999993
  0
ENDSEC
  0
EOF
