<?xml version="1.0" standalone="no"?>
 <!DOCTYPE svg PUBLIC "-//W3C//DTD SVG 1.1//EN" 
 "http://www.w3.org/Graphics/SVG/1.1/DTD/svg11.dtd"> 
<svg
  xmlns:svg="http://www.w3.org/2000/svg"
  xmlns="http://www.w3.org/2000/svg"
  xmlns:xlink="http://www.w3.org/1999/xlink"
  version="1.1"
  width="210.007200mm" height="148.005800mm" viewBox="0.000000 0.000000 210.007200 148.005800">
<title>SVG Image created as PQ_Lat_Board-B_Silkscreen.svg date 2024/01/09 12:01:46 </title>
  <desc>Image generated by PCBNEW </desc>
<g style="fill:#000000; fill-opacity:1.000000;stroke:#000000; stroke-opacity:1.000000;
stroke-linecap:round; stroke-linejoin:round;"
 transform="translate(0 0) scale(1 1)">
</g>
<g style="fill:#000000; fill-opacity:0.0; 
stroke:#000000; stroke-width:0.000000; stroke-opacity:1; 
stroke-linecap:round; stroke-linejoin:round;">
</g>
<g style="fill:#000000; fill-opacity:0.0; 
stroke:#000000; stroke-width:0.100000; stroke-opacity:1; 
stroke-linecap:round; stroke-linejoin:round;">
<text x="97.910800" y="44.635600"
transform="scale(-1 1) translate(-195.821600 0)"
textLength="1.000952" font-size="0.533333" lengthAdjust="spacingAndGlyphs"
text-anchor="start" opacity="0">D1</text>
<g class="stroked-text"><desc>D1</desc>
<path d="M97.749772 44.581447
L97.749772 44.181447
" />
<path d="M97.749772 44.181447
L97.654534 44.181447
" />
<path d="M97.654534 44.181447
L97.597391 44.200495
" />
<path d="M97.597391 44.200495
L97.559296 44.238590
" />
<path d="M97.559296 44.238590
L97.540249 44.276685
" />
<path d="M97.540249 44.276685
L97.521201 44.352876
" />
<path d="M97.521201 44.352876
L97.521201 44.410019
" />
<path d="M97.521201 44.410019
L97.540249 44.486209
" />
<path d="M97.540249 44.486209
L97.559296 44.524304
" />
<path d="M97.559296 44.524304
L97.597391 44.562400
" />
<path d="M97.597391 44.562400
L97.654534 44.581447
" />
<path d="M97.654534 44.581447
L97.749772 44.581447
" />
<path d="M97.140249 44.581447
L97.368820 44.581447
" />
<path d="M97.254534 44.581447
L97.254534 44.181447
" />
<path d="M97.254534 44.181447
L97.292630 44.238590
" />
<path d="M97.292630 44.238590
L97.330725 44.276685
" />
<path d="M97.330725 44.276685
L97.368820 44.295733
" />
</g><text x="116.704000" y="68.497200"
transform="scale(-1 1) translate(-233.408000 0)"
textLength="1.381904" font-size="0.533333" lengthAdjust="spacingAndGlyphs"
text-anchor="middle" opacity="0">SC1</text>
<g class="stroked-text"><desc>SC1</desc>
<path d="M117.208761 68.458000
L117.151618 68.477047
" />
<path d="M117.151618 68.477047
L117.056380 68.477047
" />
<path d="M117.056380 68.477047
L117.018285 68.458000
" />
<path d="M117.018285 68.458000
L116.999237 68.438952
" />
<path d="M116.999237 68.438952
L116.980190 68.400857
" />
<path d="M116.980190 68.400857
L116.980190 68.362761
" />
<path d="M116.980190 68.362761
L116.999237 68.324666
" />
<path d="M116.999237 68.324666
L117.018285 68.305619
" />
<path d="M117.018285 68.305619
L117.056380 68.286571
" />
<path d="M117.056380 68.286571
L117.132571 68.267523
" />
<path d="M117.132571 68.267523
L117.170666 68.248476
" />
<path d="M117.170666 68.248476
L117.189713 68.229428
" />
<path d="M117.189713 68.229428
L117.208761 68.191333
" />
<path d="M117.208761 68.191333
L117.208761 68.153238
" />
<path d="M117.208761 68.153238
L117.189713 68.115142
" />
<path d="M117.189713 68.115142
L117.170666 68.096095
" />
<path d="M117.170666 68.096095
L117.132571 68.077047
" />
<path d="M117.132571 68.077047
L117.037332 68.077047
" />
<path d="M117.037332 68.077047
L116.980190 68.096095
" />
<path d="M116.580190 68.438952
L116.599238 68.458000
" />
<path d="M116.599238 68.458000
L116.656380 68.477047
" />
<path d="M116.656380 68.477047
L116.694476 68.477047
" />
<path d="M116.694476 68.477047
L116.751619 68.458000
" />
<path d="M116.751619 68.458000
L116.789714 68.419904
" />
<path d="M116.789714 68.419904
L116.808761 68.381809
" />
<path d="M116.808761 68.381809
L116.827809 68.305619
" />
<path d="M116.827809 68.305619
L116.827809 68.248476
" />
<path d="M116.827809 68.248476
L116.808761 68.172285
" />
<path d="M116.808761 68.172285
L116.789714 68.134190
" />
<path d="M116.789714 68.134190
L116.751619 68.096095
" />
<path d="M116.751619 68.096095
L116.694476 68.077047
" />
<path d="M116.694476 68.077047
L116.656380 68.077047
" />
<path d="M116.656380 68.077047
L116.599238 68.096095
" />
<path d="M116.599238 68.096095
L116.580190 68.115142
" />
<path d="M116.199238 68.477047
L116.427809 68.477047
" />
<path d="M116.313523 68.477047
L116.313523 68.077047
" />
<path d="M116.313523 68.077047
L116.351619 68.134190
" />
<path d="M116.351619 68.134190
L116.389714 68.172285
" />
<path d="M116.389714 68.172285
L116.427809 68.191333
" />
</g></g>
<g style="fill:#000000; fill-opacity:0.0; 
stroke:#000000; stroke-width:0.150000; stroke-opacity:1; 
stroke-linecap:round; stroke-linejoin:round;">
<g transform="rotate(-270.000000 116.196000 73.885200)">
<text x="116.196000" y="73.885200"
transform="scale(-1 1) translate(-232.392000 0)"
textLength="1.488095" font-size="1.333333" lengthAdjust="spacingAndGlyphs"
text-anchor="start" opacity="0">-</text>
</g>
<g class="stroked-text"><desc>-</desc>
<path d="M116.707133 73.548420
L116.707133 72.786516
" />
</g><g transform="rotate(-270.000000 116.196000 64.995200)">
<text x="116.196000" y="64.995200"
transform="scale(-1 1) translate(-232.392000 0)"
textLength="1.488095" font-size="1.333333" lengthAdjust="spacingAndGlyphs"
text-anchor="start" opacity="0">-</text>
</g>
<g class="stroked-text"><desc>-</desc>
<path d="M116.707133 64.658420
L116.707133 63.896516
" />
</g><g transform="rotate(-270.000000 116.196000 55.089200)">
<text x="116.196000" y="55.089200"
transform="scale(-1 1) translate(-232.392000 0)"
textLength="1.488095" font-size="1.333333" lengthAdjust="spacingAndGlyphs"
text-anchor="start" opacity="0">+</text>
</g>
<g class="stroked-text"><desc>+</desc>
<path d="M116.707133 54.752420
L116.707133 53.990516
" />
<path d="M116.326180 54.371468
L117.088085 54.371468
" />
</g></g>
<g style="fill:#000000; fill-opacity:0.0; 
stroke:#000000; stroke-width:0.300000; stroke-opacity:1; 
stroke-linecap:round; stroke-linejoin:round;">
<path d="M83.176000 88.871200
L83.176000 48.231200
" />
<path d="M113.910000 88.871200
L83.176000 88.871200
" />
<path d="M83.176000 48.231200
L113.910000 48.231200
" />
<path d="M113.910000 48.231200
L113.910000 88.871200
" />
</g>
<g style="fill:#000000; fill-opacity:0.0; 
stroke:#000000; stroke-width:0.150000; stroke-opacity:1; 
stroke-linecap:round; stroke-linejoin:round;">
<path d="M99.671300 46.504000
L96.742400 46.504000
" />
<path d="M99.671300 44.979000
L99.671300 46.504000
" />
<path d="M99.671300 44.979000
L96.742400 44.979000
" />
</g>
<g style="fill:#000000; fill-opacity:0.0; 
stroke:#000000; stroke-width:0.120000; stroke-opacity:1; 
stroke-linecap:round; stroke-linejoin:round;">
<path d="M120.974000 60.687000
L120.974000 61.377000
" />
<path d="M122.694000 61.377000
L122.694000 70.617000
" />
<path d="M119.254000 61.377000
L122.694000 61.377000
" />
<path d="M122.694000 70.617000
L119.254000 70.617000
" />
<path d="M119.254000 70.617000
L119.254000 61.377000
" />
<path d="M120.974000 71.307000
L120.974000 70.617000
" />
<g >
</g>
<g >
</g>
<g >
</g>
<g >
</g>
<g >
</g>
<g >
</g>
<g >
</g>
<g >
</g>
<g >
</g>
<g >
</g>
<g >
</g>
<g >
</g>
<g >
</g>
<g >
</g>
<g >
</g>
<g >
</g>
<g >
</g>
<g >
</g>
<g >
</g>
<g >
</g>
<g >
</g>
<g >
</g>
<g >
</g>
</g> 
</svg>
