%TF.GenerationSoftware,KiCad,Pcbnew,7.0.10-7.0.10~ubuntu22.04.1*%
%TF.CreationDate,2024-06-11T12:31:40+02:00*%
%TF.ProjectId,PQ_Lat_Board,50515f4c-6174-45f4-926f-6172642e6b69,rev?*%
%TF.SameCoordinates,Original*%
%TF.FileFunction,Copper,L1,Top*%
%TF.FilePolarity,Positive*%
%FSLAX46Y46*%
G04 Gerber Fmt 4.6, Leading zero omitted, Abs format (unit mm)*
G04 Created by KiCad (PCBNEW 7.0.10-7.0.10~ubuntu22.04.1) date 2024-06-11 12:31:40*
%MOMM*%
%LPD*%
G01*
G04 APERTURE LIST*
G04 Aperture macros list*
%AMRoundRect*
0 Rectangle with rounded corners*
0 $1 Rounding radius*
0 $2 $3 $4 $5 $6 $7 $8 $9 X,Y pos of 4 corners*
0 Add a 4 corners polygon primitive as box body*
4,1,4,$2,$3,$4,$5,$6,$7,$8,$9,$2,$3,0*
0 Add four circle primitives for the rounded corners*
1,1,$1+$1,$2,$3*
1,1,$1+$1,$4,$5*
1,1,$1+$1,$6,$7*
1,1,$1+$1,$8,$9*
0 Add four rect primitives between the rounded corners*
20,1,$1+$1,$2,$3,$4,$5,0*
20,1,$1+$1,$4,$5,$6,$7,0*
20,1,$1+$1,$6,$7,$8,$9,0*
20,1,$1+$1,$8,$9,$2,$3,0*%
G04 Aperture macros list end*
%TA.AperFunction,SMDPad,CuDef*%
%ADD10RoundRect,0.250000X-0.450000X0.262500X-0.450000X-0.262500X0.450000X-0.262500X0.450000X0.262500X0*%
%TD*%
%TA.AperFunction,SMDPad,CuDef*%
%ADD11RoundRect,0.250000X0.450000X-0.262500X0.450000X0.262500X-0.450000X0.262500X-0.450000X-0.262500X0*%
%TD*%
%TA.AperFunction,SMDPad,CuDef*%
%ADD12RoundRect,0.200000X-0.200000X-0.600000X0.200000X-0.600000X0.200000X0.600000X-0.200000X0.600000X0*%
%TD*%
%TA.AperFunction,SMDPad,CuDef*%
%ADD13RoundRect,0.250001X-0.799999X-1.249999X0.799999X-1.249999X0.799999X1.249999X-0.799999X1.249999X0*%
%TD*%
%TA.AperFunction,SMDPad,CuDef*%
%ADD14R,0.700000X1.550000*%
%TD*%
%TA.AperFunction,SMDPad,CuDef*%
%ADD15RoundRect,0.147500X0.172500X-0.147500X0.172500X0.147500X-0.172500X0.147500X-0.172500X-0.147500X0*%
%TD*%
%TA.AperFunction,ComponentPad*%
%ADD16C,4.400000*%
%TD*%
%TA.AperFunction,SMDPad,CuDef*%
%ADD17RoundRect,0.225000X-0.250000X0.225000X-0.250000X-0.225000X0.250000X-0.225000X0.250000X0.225000X0*%
%TD*%
%TA.AperFunction,ComponentPad*%
%ADD18C,3.500000*%
%TD*%
%TA.AperFunction,ComponentPad*%
%ADD19C,2.600000*%
%TD*%
%TA.AperFunction,ConnectorPad*%
%ADD20C,3.800000*%
%TD*%
%TA.AperFunction,SMDPad,CuDef*%
%ADD21R,1.050000X1.000000*%
%TD*%
%TA.AperFunction,SMDPad,CuDef*%
%ADD22R,2.200000X1.050000*%
%TD*%
%TA.AperFunction,ComponentPad*%
%ADD23C,1.600000*%
%TD*%
%TA.AperFunction,ComponentPad*%
%ADD24O,1.600000X1.600000*%
%TD*%
%TA.AperFunction,ViaPad*%
%ADD25C,0.610000*%
%TD*%
%TA.AperFunction,Conductor*%
%ADD26C,0.250000*%
%TD*%
%TA.AperFunction,Conductor*%
%ADD27C,0.293000*%
%TD*%
%TA.AperFunction,Conductor*%
%ADD28C,0.600000*%
%TD*%
%TA.AperFunction,Conductor*%
%ADD29C,0.200000*%
%TD*%
G04 APERTURE END LIST*
D10*
%TO.P,GA2,1*%
%TO.N,Net-(IC1-A2)*%
X111952000Y-53464300D03*
%TO.P,GA2,2*%
%TO.N,GND*%
X111952000Y-55289300D03*
%TD*%
D11*
%TO.P,VA1,1*%
%TO.N,Net-(IC1-A1)*%
X109651000Y-50590300D03*
%TO.P,VA1,2*%
%TO.N,/VCC*%
X109651000Y-48765300D03*
%TD*%
D12*
%TO.P,J1,1,Pin_1*%
%TO.N,/SOLAR*%
X101266617Y-60718784D03*
%TO.P,J1,2,Pin_2*%
%TO.N,/ADCS*%
X102516617Y-60718784D03*
%TO.P,J1,3,Pin_3*%
%TO.N,/VCC_MAG*%
X103766617Y-60718784D03*
%TO.P,J1,4,Pin_4*%
%TO.N,/VCC*%
X105016617Y-60718784D03*
%TO.P,J1,5,Pin_5*%
%TO.N,/SDA*%
X106266617Y-60718784D03*
%TO.P,J1,6,Pin_6*%
%TO.N,/SCL*%
X107516617Y-60718784D03*
%TO.P,J1,7,Pin_7*%
%TO.N,/PH-*%
X108766617Y-60718784D03*
%TO.P,J1,8,Pin_8*%
%TO.N,/PH+*%
X110016617Y-60718784D03*
%TO.P,J1,9,Pin_9*%
%TO.N,/BURNCOMMS*%
X111266617Y-60718784D03*
%TO.P,J1,10,Pin_10*%
%TO.N,GND*%
X112516617Y-60718784D03*
D13*
%TO.P,J1,MP,MountPin*%
X98716617Y-63618784D03*
X115066617Y-63618784D03*
%TD*%
D11*
%TO.P,VA2,1*%
%TO.N,Net-(IC1-A2)*%
X112002000Y-50590300D03*
%TO.P,VA2,2*%
%TO.N,/VCC*%
X112002000Y-48765300D03*
%TD*%
D14*
%TO.P,IC1,1,SDA*%
%TO.N,/SDA*%
X101263600Y-54897200D03*
%TO.P,IC1,2,SCL*%
%TO.N,/SCL*%
X102533600Y-54897200D03*
%TO.P,IC1,3,ALERT*%
%TO.N,GND*%
X103803600Y-54897200D03*
%TO.P,IC1,4,GND*%
X105073600Y-54897200D03*
%TO.P,IC1,5,A2*%
%TO.N,Net-(IC1-A2)*%
X105073600Y-49497200D03*
%TO.P,IC1,6,A1*%
%TO.N,Net-(IC1-A1)*%
X103803600Y-49497200D03*
%TO.P,IC1,7,A0*%
%TO.N,Net-(IC1-A0)*%
X102533600Y-49497200D03*
%TO.P,IC1,8,VDD*%
%TO.N,/VCC*%
X101263600Y-49497200D03*
%TD*%
D11*
%TO.P,VA0,1*%
%TO.N,Net-(IC1-A0)*%
X107385000Y-50590300D03*
%TO.P,VA0,2*%
%TO.N,/VCC*%
X107385000Y-48765300D03*
%TD*%
D15*
%TO.P,D2,1,K*%
%TO.N,/ADCS*%
X96183600Y-52057100D03*
%TO.P,D2,2,A*%
%TO.N,/VCC_MAG*%
X96183600Y-51087100D03*
%TD*%
D16*
%TO.P,H1,1,1*%
%TO.N,GND*%
X81050000Y-46050000D03*
%TD*%
D17*
%TO.P,C1,1*%
%TO.N,/VCC*%
X99511000Y-49512400D03*
%TO.P,C1,2*%
%TO.N,GND*%
X99511000Y-51062400D03*
%TD*%
D18*
%TO.P,H3,1,1*%
%TO.N,GND*%
X121000000Y-87000000D03*
%TD*%
D16*
%TO.P,H4,1,1*%
%TO.N,GND*%
X79000000Y-84000000D03*
%TD*%
%TO.P,H2,1,1*%
%TO.N,GND*%
X119000000Y-46000000D03*
%TD*%
D10*
%TO.P,GA0,1*%
%TO.N,Net-(IC1-A0)*%
X107400000Y-53464300D03*
%TO.P,GA0,2*%
%TO.N,GND*%
X107400000Y-55289300D03*
%TD*%
%TO.P,GA1,1*%
%TO.N,Net-(IC1-A1)*%
X109601000Y-53464300D03*
%TO.P,GA1,2*%
%TO.N,GND*%
X109601000Y-55289300D03*
%TD*%
D19*
%TO.P,H5,1,1*%
%TO.N,/Antenna Connector*%
X78505200Y-66022400D03*
D20*
X78505200Y-66022400D03*
%TD*%
D21*
%TO.P,J2,1,In*%
%TO.N,/Antenna Connector*%
X82840000Y-66022400D03*
D22*
%TO.P,J2,2,Ext*%
%TO.N,GND*%
X84365000Y-64547400D03*
X84365000Y-67497400D03*
%TD*%
D23*
%TO.P,THT1,1*%
%TO.N,/BURNCOMMS*%
X120974000Y-59647000D03*
D24*
%TO.P,THT1,2*%
%TO.N,GND*%
X120974000Y-72347000D03*
%TD*%
D25*
%TO.N,/PH-*%
X94151600Y-45169000D03*
%TO.N,/PH+*%
X101771600Y-45169000D03*
%TO.N,GND*%
X115767000Y-60739200D03*
X117697400Y-55151200D03*
X117875200Y-75293400D03*
X117875200Y-80932200D03*
X115767000Y-75293400D03*
X115767000Y-80932200D03*
X116732200Y-78036600D03*
X117697400Y-60739200D03*
X115741600Y-57284800D03*
%TO.N,/SOLAR*%
X115233600Y-84640600D03*
X115233600Y-86418600D03*
X117773600Y-84640600D03*
X117773600Y-88196600D03*
X117773600Y-86418600D03*
X115233600Y-88196600D03*
%TO.N,/VCC_MAG*%
X103752800Y-83243600D03*
X99200000Y-66640000D03*
X96183600Y-49408000D03*
X99201000Y-65760000D03*
X115040000Y-82920000D03*
%TD*%
D26*
%TO.N,/SDA*%
X101263600Y-54897200D02*
X101263600Y-56218000D01*
X101263600Y-56218000D02*
X102526400Y-57480800D01*
X106266617Y-58147617D02*
X106266617Y-60718784D01*
X105599800Y-57480800D02*
X106266617Y-58147617D01*
X102526400Y-57480800D02*
X105599800Y-57480800D01*
%TO.N,/SCL*%
X103168600Y-57030800D02*
X106927800Y-57030800D01*
X102533600Y-54897200D02*
X102533600Y-56395800D01*
X106927800Y-57030800D02*
X107516617Y-57619617D01*
X102533600Y-56395800D02*
X103168600Y-57030800D01*
X107516617Y-57619617D02*
X107516617Y-60718784D01*
%TO.N,/VCC*%
X104337000Y-58377000D02*
X105016617Y-59056617D01*
X98978996Y-58377000D02*
X104337000Y-58377000D01*
D27*
X109651000Y-48765300D02*
X112002000Y-48765300D01*
X107385000Y-48153500D02*
X107067500Y-47836000D01*
X101924000Y-47836000D02*
X101263600Y-48496400D01*
D26*
X98114000Y-57512004D02*
X98978996Y-58377000D01*
X101248400Y-49512400D02*
X101263600Y-49497200D01*
D27*
X101263600Y-48496400D02*
X101263600Y-49497200D01*
D26*
X105016617Y-59056617D02*
X105016617Y-60718784D01*
D27*
X107385000Y-48765300D02*
X109651000Y-48765300D01*
X107385000Y-48765300D02*
X107385000Y-48153500D01*
D26*
X99511000Y-49512400D02*
X101248400Y-49512400D01*
D27*
X107067500Y-47836000D02*
X101924000Y-47836000D01*
D26*
X98114000Y-50249000D02*
X98114000Y-57512004D01*
X98752600Y-49610400D02*
X98114000Y-50249000D01*
X99461400Y-49610400D02*
X98752600Y-49610400D01*
%TO.N,/ADCS*%
X96183600Y-56218000D02*
X96183600Y-52057100D01*
X101891400Y-58827000D02*
X102516617Y-59452217D01*
X102516617Y-59452217D02*
X102516617Y-60718784D01*
X96183600Y-56218000D02*
X98792600Y-58827000D01*
X98792600Y-58827000D02*
X101891400Y-58827000D01*
D28*
%TO.N,/BURNCOMMS*%
X111266617Y-60718784D02*
X111266617Y-59880183D01*
X111266617Y-59880183D02*
X112007800Y-59139000D01*
X112007800Y-59139000D02*
X120466000Y-59139000D01*
X120466000Y-59139000D02*
X120974000Y-59647000D01*
D26*
%TO.N,/PH-*%
X110610800Y-56980000D02*
X108766617Y-58824183D01*
X94781600Y-45799000D02*
X113044200Y-45799000D01*
X115538400Y-54236800D02*
X112795200Y-56980000D01*
X113044200Y-45799000D02*
X115538400Y-48293200D01*
X115538400Y-48293200D02*
X115538400Y-54236800D01*
X108766617Y-58824183D02*
X108766617Y-60718784D01*
X94151600Y-45169000D02*
X94781600Y-45799000D01*
X112795200Y-56980000D02*
X110610800Y-56980000D01*
%TO.N,/PH+*%
X116090000Y-48030604D02*
X116090000Y-54498698D01*
X101771600Y-45169000D02*
X113227000Y-45169000D01*
X116090000Y-54498698D02*
X113049898Y-57538800D01*
X110016617Y-58412383D02*
X110016617Y-60718784D01*
X113049898Y-57538800D02*
X110890200Y-57538800D01*
X113227000Y-45169000D02*
X113811200Y-45753200D01*
X113812596Y-45753200D02*
X116090000Y-48030604D01*
X113811200Y-45753200D02*
X113812596Y-45753200D01*
X110890200Y-57538800D02*
X110016617Y-58412383D01*
%TO.N,/Antenna Connector*%
X82915000Y-66022400D02*
X78505200Y-66022400D01*
D28*
%TO.N,/SOLAR*%
X101266617Y-83729217D02*
X103956000Y-86418600D01*
X101266617Y-83729217D02*
X101266617Y-60718784D01*
X103956000Y-86418600D02*
X115233600Y-86418600D01*
D26*
%TO.N,/VCC_MAG*%
X96183600Y-51087100D02*
X96183600Y-49408000D01*
D29*
X103752800Y-83243600D02*
X103766617Y-83229783D01*
X103766617Y-83229783D02*
X103766617Y-60718784D01*
%TO.N,Net-(IC1-A0)*%
X107385000Y-50577800D02*
X106300000Y-49492800D01*
X107385000Y-50590300D02*
X107385000Y-50577800D01*
X106300000Y-48592800D02*
X106129400Y-48422200D01*
X107400000Y-53464300D02*
X107400000Y-52793800D01*
X104591000Y-52598800D02*
X102533600Y-50541400D01*
X106300000Y-49492800D02*
X106300000Y-48592800D01*
X107205000Y-52598800D02*
X104591000Y-52598800D01*
X106129400Y-48422200D02*
X102811000Y-48422200D01*
X102811000Y-48422200D02*
X102533600Y-48699600D01*
X102533600Y-48699600D02*
X102533600Y-49497200D01*
X107400000Y-52793800D02*
X107205000Y-52598800D01*
X102533600Y-50541400D02*
X102533600Y-49497200D01*
%TO.N,Net-(IC1-A1)*%
X109651000Y-50590300D02*
X109651000Y-49888000D01*
X109097000Y-52090800D02*
X105226000Y-52090800D01*
X113354000Y-53964800D02*
X112950000Y-54368800D01*
X109601000Y-53464300D02*
X109601000Y-52594800D01*
X109601000Y-52594800D02*
X109097000Y-52090800D01*
X109825900Y-54368800D02*
X109601000Y-54143900D01*
X112950000Y-54368800D02*
X109825900Y-54368800D01*
X105226000Y-52090800D02*
X103803600Y-50668400D01*
X109861200Y-49677800D02*
X112973000Y-49677800D01*
X103803600Y-50668400D02*
X103803600Y-49497200D01*
X112973000Y-49677800D02*
X113354000Y-50058800D01*
X109601000Y-54143900D02*
X109601000Y-53464300D01*
X109651000Y-49888000D02*
X109861200Y-49677800D01*
X113354000Y-50058800D02*
X113354000Y-53964800D01*
%TO.N,Net-(IC1-A2)*%
X112002000Y-52090800D02*
X112002000Y-53414300D01*
X112000000Y-53416300D02*
X111952000Y-53464300D01*
X105988000Y-51582800D02*
X105073600Y-50668400D01*
X105073600Y-50668400D02*
X105073600Y-49497200D01*
X112002000Y-53414300D02*
X111952000Y-53464300D01*
X112002000Y-50590300D02*
X112002000Y-52090800D01*
X110922800Y-51582800D02*
X105988000Y-51582800D01*
X111952000Y-52612000D02*
X110922800Y-51582800D01*
X111952000Y-53464300D02*
X111952000Y-52612000D01*
%TD*%
%TA.AperFunction,Conductor*%
%TO.N,/Antenna Connector*%
G36*
X80942121Y-61020002D02*
G01*
X80988614Y-61073658D01*
X81000000Y-61126000D01*
X81000000Y-70874000D01*
X80979998Y-70942121D01*
X80926342Y-70988614D01*
X80874000Y-71000000D01*
X76126000Y-71000000D01*
X76057879Y-70979998D01*
X76011386Y-70926342D01*
X76000000Y-70874000D01*
X76000000Y-61126000D01*
X76020002Y-61057879D01*
X76073658Y-61011386D01*
X76126000Y-61000000D01*
X80874000Y-61000000D01*
X80942121Y-61020002D01*
G37*
%TD.AperFunction*%
%TD*%
%TA.AperFunction,Conductor*%
%TO.N,GND*%
G36*
X83260000Y-87558361D02*
G01*
X82906522Y-87348123D01*
X82906517Y-87348119D01*
X82906515Y-87348118D01*
X80523076Y-85930522D01*
X80509581Y-85921259D01*
X80427092Y-85856368D01*
X80404253Y-85833014D01*
X80346186Y-85755713D01*
X80330119Y-85727275D01*
X80322570Y-85708609D01*
X80293872Y-85637643D01*
X80285656Y-85606035D01*
X80272641Y-85501880D01*
X80271672Y-85485557D01*
X80288245Y-82568765D01*
X80289491Y-82551798D01*
X80304813Y-82443754D01*
X80314068Y-82411088D01*
X80354251Y-82318954D01*
X80371899Y-82289941D01*
X80435231Y-82211889D01*
X80459984Y-82188646D01*
X80548888Y-82125345D01*
X80563360Y-82116450D01*
X81608823Y-81567444D01*
X83260000Y-80700361D01*
X83260000Y-87558361D01*
G37*
%TD.AperFunction*%
%TD*%
%TA.AperFunction,Conductor*%
%TO.N,GND*%
G36*
X83420000Y-49448000D02*
G01*
X82945090Y-49165538D01*
X82945085Y-49165534D01*
X82945083Y-49165533D01*
X80683076Y-47820161D01*
X80669581Y-47810898D01*
X80587092Y-47746007D01*
X80564253Y-47722653D01*
X80506186Y-47645352D01*
X80490119Y-47616914D01*
X80482570Y-47598248D01*
X80453872Y-47527282D01*
X80445656Y-47495674D01*
X80432641Y-47391519D01*
X80431672Y-47375196D01*
X80448245Y-44458404D01*
X80449491Y-44441437D01*
X80464813Y-44333393D01*
X80474068Y-44300727D01*
X80514251Y-44208593D01*
X80531899Y-44179580D01*
X80595231Y-44101528D01*
X80619984Y-44078285D01*
X80708888Y-44014984D01*
X80723366Y-44006086D01*
X82929225Y-42847721D01*
X82929224Y-42847721D01*
X83420000Y-42590000D01*
X83420000Y-49448000D01*
G37*
%TD.AperFunction*%
%TD*%
%TA.AperFunction,Conductor*%
%TO.N,GND*%
G36*
X122941621Y-42020502D02*
G01*
X122988114Y-42074158D01*
X122999500Y-42126500D01*
X122999500Y-61873500D01*
X122979498Y-61941621D01*
X122925842Y-61988114D01*
X122873500Y-61999500D01*
X120025158Y-61999500D01*
X120024952Y-61999459D01*
X119999998Y-61999459D01*
X119999901Y-61999499D01*
X119999696Y-61999584D01*
X119999618Y-61999615D01*
X119999617Y-61999617D01*
X119999459Y-62000000D01*
X119999476Y-62025014D01*
X119999471Y-62025014D01*
X119999500Y-62025157D01*
X119999500Y-69975072D01*
X119999415Y-69975500D01*
X119999458Y-69999999D01*
X119999500Y-70000099D01*
X119999617Y-70000383D01*
X120000000Y-70000541D01*
X120000002Y-70000539D01*
X120025014Y-70000524D01*
X120025014Y-70000528D01*
X120025158Y-70000500D01*
X122873500Y-70000500D01*
X122941621Y-70020502D01*
X122988114Y-70074158D01*
X122999500Y-70126500D01*
X122999500Y-89873500D01*
X122979498Y-89941621D01*
X122925842Y-89988114D01*
X122873500Y-89999500D01*
X83274815Y-89999500D01*
X83206694Y-89979498D01*
X83160201Y-89925842D01*
X83148815Y-89873373D01*
X83149364Y-89329430D01*
X83170254Y-68648268D01*
X83190324Y-68580172D01*
X83244026Y-68533734D01*
X83296253Y-68522400D01*
X83865000Y-68522400D01*
X83865000Y-67997400D01*
X84865000Y-67997400D01*
X84865000Y-68522400D01*
X85512824Y-68522400D01*
X85512840Y-68522399D01*
X85572371Y-68515999D01*
X85707089Y-68465752D01*
X85822189Y-68379589D01*
X85908352Y-68264489D01*
X85958599Y-68129771D01*
X85964999Y-68070240D01*
X85965000Y-68070223D01*
X85965000Y-67997400D01*
X84865000Y-67997400D01*
X83865000Y-67997400D01*
X83865000Y-67123400D01*
X83885002Y-67055279D01*
X83938658Y-67008786D01*
X83991000Y-66997400D01*
X85965000Y-66997400D01*
X85965000Y-66924576D01*
X85964999Y-66924559D01*
X85958599Y-66865028D01*
X85908351Y-66730309D01*
X85908351Y-66730308D01*
X85896330Y-66714249D01*
X85871521Y-66647728D01*
X85871200Y-66638743D01*
X85871200Y-65406056D01*
X85891202Y-65337935D01*
X85896333Y-65330545D01*
X85908352Y-65314489D01*
X85958599Y-65179771D01*
X85964999Y-65120240D01*
X85965000Y-65120223D01*
X85965000Y-65047400D01*
X83991000Y-65047400D01*
X83922879Y-65027398D01*
X83876386Y-64973742D01*
X83865000Y-64921400D01*
X83865000Y-64118784D01*
X97166617Y-64118784D01*
X97166617Y-64918770D01*
X97177110Y-65021474D01*
X97232259Y-65187905D01*
X97324300Y-65337127D01*
X97324305Y-65337133D01*
X97448267Y-65461095D01*
X97448273Y-65461100D01*
X97597495Y-65553141D01*
X97763926Y-65608290D01*
X97866630Y-65618783D01*
X97866630Y-65618784D01*
X98365240Y-65618784D01*
X98433361Y-65638786D01*
X98479854Y-65692442D01*
X98489144Y-65752378D01*
X98490318Y-65752378D01*
X98490318Y-65759950D01*
X98490321Y-65759970D01*
X98490318Y-65759994D01*
X98490318Y-65760003D01*
X98510967Y-65930074D01*
X98537488Y-66000003D01*
X98571722Y-66090270D01*
X98571723Y-66090271D01*
X98597558Y-66127700D01*
X98619793Y-66195125D01*
X98602045Y-66263867D01*
X98597558Y-66270849D01*
X98570724Y-66309725D01*
X98570722Y-66309729D01*
X98570722Y-66309730D01*
X98570386Y-66310616D01*
X98509967Y-66469925D01*
X98489318Y-66639996D01*
X98489318Y-66640003D01*
X98509968Y-66810075D01*
X98570720Y-66970265D01*
X98570724Y-66970273D01*
X98668045Y-67111267D01*
X98668046Y-67111268D01*
X98668047Y-67111269D01*
X98796287Y-67224880D01*
X98947989Y-67304499D01*
X99114337Y-67345500D01*
X99114338Y-67345500D01*
X99285662Y-67345500D01*
X99285663Y-67345500D01*
X99452011Y-67304499D01*
X99603713Y-67224880D01*
X99731953Y-67111269D01*
X99829278Y-66970270D01*
X99890031Y-66810077D01*
X99902075Y-66710883D01*
X99910682Y-66640003D01*
X99910682Y-66639996D01*
X99890031Y-66469924D01*
X99886568Y-66460792D01*
X99829278Y-66309730D01*
X99803440Y-66272298D01*
X99781205Y-66204874D01*
X99798952Y-66136132D01*
X99803418Y-66129182D01*
X99830278Y-66090270D01*
X99891031Y-65930077D01*
X99906355Y-65803873D01*
X99911682Y-65760003D01*
X99911682Y-65759997D01*
X99892747Y-65604055D01*
X99904392Y-65534020D01*
X99951684Y-65481625D01*
X99984956Y-65461103D01*
X99984966Y-65461095D01*
X100108928Y-65337133D01*
X100108933Y-65337127D01*
X100200974Y-65187905D01*
X100256123Y-65021474D01*
X100266616Y-64918770D01*
X100266617Y-64918770D01*
X100266617Y-64118784D01*
X97166617Y-64118784D01*
X83865000Y-64118784D01*
X83865000Y-63522400D01*
X84865000Y-63522400D01*
X84865000Y-64047400D01*
X85965000Y-64047400D01*
X85965000Y-63974576D01*
X85964999Y-63974559D01*
X85958599Y-63915028D01*
X85908352Y-63780310D01*
X85822189Y-63665210D01*
X85707089Y-63579047D01*
X85572371Y-63528800D01*
X85512840Y-63522400D01*
X84865000Y-63522400D01*
X83865000Y-63522400D01*
X83301558Y-63522400D01*
X83233437Y-63502398D01*
X83186944Y-63448742D01*
X83175559Y-63396280D01*
X83175839Y-63118784D01*
X97166617Y-63118784D01*
X98216617Y-63118784D01*
X98216617Y-61618784D01*
X99216617Y-61618784D01*
X99216617Y-63118784D01*
X100266617Y-63118784D01*
X100266617Y-62318797D01*
X100256123Y-62216093D01*
X100200974Y-62049662D01*
X100108933Y-61900440D01*
X100108928Y-61900434D01*
X99984966Y-61776472D01*
X99984960Y-61776467D01*
X99835738Y-61684426D01*
X99669307Y-61629277D01*
X99566603Y-61618784D01*
X99216617Y-61618784D01*
X98216617Y-61618784D01*
X97866630Y-61618784D01*
X97763926Y-61629277D01*
X97597495Y-61684426D01*
X97448273Y-61776467D01*
X97448267Y-61776472D01*
X97324305Y-61900434D01*
X97324300Y-61900440D01*
X97232259Y-62049662D01*
X97177110Y-62216093D01*
X97166617Y-62318797D01*
X97166617Y-63118784D01*
X83175839Y-63118784D01*
X83193971Y-45169003D01*
X93440918Y-45169003D01*
X93461568Y-45339075D01*
X93522320Y-45499265D01*
X93522324Y-45499273D01*
X93619645Y-45640267D01*
X93619646Y-45640268D01*
X93619647Y-45640269D01*
X93747887Y-45753880D01*
X93899589Y-45833499D01*
X94065937Y-45874500D01*
X94065943Y-45874500D01*
X94073500Y-45875418D01*
X94073202Y-45877865D01*
X94129861Y-45894502D01*
X94150835Y-45911405D01*
X94402139Y-46162709D01*
X94405129Y-46165802D01*
X94446845Y-46210469D01*
X94480012Y-46230638D01*
X94490676Y-46237896D01*
X94521625Y-46261365D01*
X94536964Y-46267414D01*
X94556192Y-46276964D01*
X94570272Y-46285526D01*
X94592167Y-46291660D01*
X94607650Y-46295999D01*
X94619877Y-46300110D01*
X94656011Y-46314360D01*
X94672408Y-46316045D01*
X94693510Y-46320056D01*
X94709372Y-46324500D01*
X94748195Y-46324500D01*
X94761081Y-46325161D01*
X94799708Y-46329132D01*
X94799708Y-46329131D01*
X94799710Y-46329132D01*
X94815950Y-46326332D01*
X94837358Y-46324500D01*
X112774340Y-46324500D01*
X112842461Y-46344502D01*
X112863435Y-46361405D01*
X114975995Y-48473964D01*
X115010020Y-48536276D01*
X115012900Y-48563059D01*
X115012900Y-53966941D01*
X114992898Y-54035062D01*
X114975995Y-54056036D01*
X113272258Y-55759772D01*
X113209946Y-55793798D01*
X113147057Y-55789300D01*
X110101000Y-55789300D01*
X110101000Y-56301795D01*
X110203692Y-56291306D01*
X110203696Y-56291305D01*
X110336469Y-56247309D01*
X110337392Y-56247277D01*
X110339730Y-56246227D01*
X110370123Y-56236156D01*
X110519344Y-56144116D01*
X110519350Y-56144111D01*
X110643311Y-56020150D01*
X110643318Y-56020141D01*
X110669259Y-55978085D01*
X110722044Y-55930606D01*
X110792119Y-55919203D01*
X110857235Y-55947495D01*
X110883741Y-55978085D01*
X110909681Y-56020141D01*
X110909688Y-56020150D01*
X111033649Y-56144111D01*
X111033655Y-56144116D01*
X111158724Y-56221259D01*
X111206202Y-56274045D01*
X111217605Y-56344120D01*
X111189313Y-56409235D01*
X111130307Y-56448718D01*
X111092577Y-56454500D01*
X110621949Y-56454500D01*
X110617648Y-56454427D01*
X110598600Y-56453776D01*
X110556555Y-56452340D01*
X110556554Y-56452340D01*
X110556553Y-56452340D01*
X110518821Y-56461534D01*
X110506150Y-56463942D01*
X110467695Y-56469227D01*
X110467690Y-56469228D01*
X110467689Y-56469229D01*
X110467687Y-56469230D01*
X110452570Y-56475795D01*
X110432218Y-56482638D01*
X110416211Y-56486539D01*
X110416208Y-56486540D01*
X110382359Y-56505573D01*
X110370813Y-56511307D01*
X110361298Y-56515441D01*
X110335191Y-56526780D01*
X110322402Y-56537185D01*
X110304649Y-56549267D01*
X110290290Y-56557341D01*
X110290285Y-56557344D01*
X110262830Y-56584798D01*
X110253260Y-56593436D01*
X110223134Y-56617946D01*
X110213631Y-56631409D01*
X110199790Y-56647839D01*
X108402920Y-58444709D01*
X108399829Y-58447698D01*
X108355148Y-58489428D01*
X108355145Y-58489432D01*
X108334972Y-58522604D01*
X108327717Y-58533265D01*
X108304251Y-58564210D01*
X108298207Y-58579537D01*
X108288653Y-58598773D01*
X108275776Y-58619950D01*
X108223293Y-58667763D01*
X108153292Y-58679611D01*
X108087998Y-58651733D01*
X108048141Y-58592980D01*
X108042117Y-58554486D01*
X108042117Y-57630764D01*
X108042190Y-57626463D01*
X108044277Y-57565372D01*
X108035080Y-57527636D01*
X108032677Y-57514990D01*
X108027388Y-57476506D01*
X108020819Y-57461383D01*
X108013972Y-57441021D01*
X108010075Y-57425027D01*
X108010074Y-57425026D01*
X108010074Y-57425023D01*
X107991037Y-57391166D01*
X107985314Y-57379643D01*
X107969836Y-57344008D01*
X107969833Y-57344004D01*
X107959438Y-57331227D01*
X107947348Y-57313463D01*
X107939275Y-57299105D01*
X107911812Y-57271642D01*
X107903177Y-57262074D01*
X107878671Y-57231952D01*
X107878667Y-57231949D01*
X107878666Y-57231948D01*
X107865213Y-57222452D01*
X107848780Y-57208610D01*
X107307259Y-56667090D01*
X107304269Y-56663996D01*
X107273835Y-56631409D01*
X107262555Y-56619331D01*
X107262554Y-56619330D01*
X107262553Y-56619329D01*
X107229379Y-56599155D01*
X107218716Y-56591898D01*
X107187777Y-56568437D01*
X107187775Y-56568436D01*
X107172437Y-56562387D01*
X107153209Y-56552836D01*
X107139128Y-56544274D01*
X107138093Y-56543984D01*
X107101740Y-56533798D01*
X107089514Y-56529686D01*
X107053389Y-56515440D01*
X107036996Y-56513755D01*
X107015891Y-56509744D01*
X107000026Y-56505299D01*
X106991489Y-56504126D01*
X106991748Y-56502238D01*
X106934055Y-56485298D01*
X106887562Y-56431642D01*
X106877458Y-56361368D01*
X106900000Y-56312010D01*
X106900000Y-55789300D01*
X107900000Y-55789300D01*
X107900000Y-56301795D01*
X108002690Y-56291306D01*
X108169122Y-56236157D01*
X108318344Y-56144116D01*
X108318350Y-56144111D01*
X108411405Y-56051057D01*
X108473717Y-56017031D01*
X108544532Y-56022096D01*
X108589595Y-56051057D01*
X108682649Y-56144111D01*
X108682655Y-56144116D01*
X108831877Y-56236157D01*
X108998308Y-56291306D01*
X109101000Y-56301797D01*
X109101000Y-55789300D01*
X107900000Y-55789300D01*
X106900000Y-55789300D01*
X106238595Y-55789300D01*
X106265640Y-55870918D01*
X106357683Y-56020144D01*
X106357688Y-56020150D01*
X106481649Y-56144111D01*
X106481655Y-56144116D01*
X106630881Y-56236159D01*
X106701910Y-56259696D01*
X106760281Y-56300110D01*
X106787537Y-56365666D01*
X106775024Y-56435551D01*
X106726714Y-56487577D01*
X106662277Y-56505300D01*
X103438459Y-56505300D01*
X103370338Y-56485298D01*
X103349364Y-56468395D01*
X103263246Y-56382277D01*
X103229220Y-56319965D01*
X103234285Y-56249150D01*
X103276832Y-56192314D01*
X103343352Y-56167503D01*
X103365810Y-56167904D01*
X103405762Y-56172199D01*
X103405776Y-56172200D01*
X103453600Y-56172200D01*
X103453600Y-55247200D01*
X104153600Y-55247200D01*
X104153600Y-56172200D01*
X104201424Y-56172200D01*
X104201440Y-56172199D01*
X104260970Y-56165799D01*
X104394567Y-56115970D01*
X104465383Y-56110905D01*
X104482633Y-56115970D01*
X104616229Y-56165799D01*
X104675759Y-56172199D01*
X104675776Y-56172200D01*
X104723600Y-56172200D01*
X104723600Y-55247200D01*
X105423600Y-55247200D01*
X105423600Y-56172200D01*
X105471424Y-56172200D01*
X105471440Y-56172199D01*
X105530971Y-56165799D01*
X105665689Y-56115552D01*
X105780789Y-56029389D01*
X105866952Y-55914289D01*
X105917199Y-55779571D01*
X105923599Y-55720040D01*
X105923600Y-55720023D01*
X105923600Y-55247200D01*
X105423600Y-55247200D01*
X104723600Y-55247200D01*
X104153600Y-55247200D01*
X103453600Y-55247200D01*
X103453600Y-53622200D01*
X104153600Y-53622200D01*
X104153600Y-54547200D01*
X104723600Y-54547200D01*
X104723600Y-53622200D01*
X105423600Y-53622200D01*
X105423600Y-54547200D01*
X105923600Y-54547200D01*
X105923600Y-54074376D01*
X105923599Y-54074359D01*
X105917199Y-54014828D01*
X105866952Y-53880110D01*
X105780789Y-53765010D01*
X105665689Y-53678847D01*
X105530971Y-53628600D01*
X105471440Y-53622200D01*
X105423600Y-53622200D01*
X104723600Y-53622200D01*
X104675759Y-53622200D01*
X104616227Y-53628600D01*
X104482632Y-53678429D01*
X104411816Y-53683493D01*
X104394568Y-53678429D01*
X104260972Y-53628600D01*
X104201440Y-53622200D01*
X104153600Y-53622200D01*
X103453600Y-53622200D01*
X103405759Y-53622200D01*
X103346228Y-53628600D01*
X103211510Y-53678847D01*
X103146397Y-53727591D01*
X103079877Y-53752402D01*
X103013687Y-53738991D01*
X103008906Y-53736555D01*
X103008905Y-53736554D01*
X103008904Y-53736554D01*
X102915119Y-53721700D01*
X102915115Y-53721700D01*
X102152083Y-53721700D01*
X102058295Y-53736553D01*
X101955802Y-53788776D01*
X101886025Y-53801880D01*
X101841398Y-53788776D01*
X101738907Y-53736555D01*
X101738905Y-53736554D01*
X101738904Y-53736554D01*
X101645119Y-53721700D01*
X101645115Y-53721700D01*
X100882083Y-53721700D01*
X100788297Y-53736553D01*
X100675257Y-53794149D01*
X100585549Y-53883857D01*
X100532895Y-53987198D01*
X100527954Y-53996896D01*
X100513321Y-54089288D01*
X100513100Y-54090684D01*
X100513100Y-55703716D01*
X100527953Y-55797502D01*
X100585549Y-55910542D01*
X100675256Y-56000249D01*
X100683279Y-56006078D01*
X100681408Y-56008651D01*
X100720910Y-56045950D01*
X100738100Y-56109482D01*
X100738100Y-56206851D01*
X100738027Y-56211152D01*
X100735940Y-56272245D01*
X100745133Y-56309971D01*
X100747541Y-56322644D01*
X100752827Y-56361107D01*
X100752828Y-56361109D01*
X100759395Y-56376228D01*
X100766240Y-56396582D01*
X100770143Y-56412594D01*
X100770144Y-56412595D01*
X100770144Y-56412596D01*
X100789168Y-56446431D01*
X100794906Y-56457984D01*
X100810379Y-56493606D01*
X100810378Y-56493606D01*
X100814350Y-56498488D01*
X100820780Y-56506391D01*
X100832866Y-56524149D01*
X100840942Y-56538512D01*
X100868403Y-56565973D01*
X100877038Y-56575540D01*
X100901546Y-56605665D01*
X100915007Y-56615167D01*
X100931439Y-56629009D01*
X101534384Y-57231954D01*
X101938836Y-57636405D01*
X101972861Y-57698717D01*
X101967797Y-57769532D01*
X101925250Y-57826368D01*
X101858730Y-57851179D01*
X101849741Y-57851500D01*
X99248855Y-57851500D01*
X99180734Y-57831498D01*
X99159760Y-57814595D01*
X98676405Y-57331240D01*
X98642379Y-57268928D01*
X98639500Y-57242145D01*
X98639500Y-51981634D01*
X98659502Y-51913513D01*
X98713158Y-51867020D01*
X98783432Y-51856916D01*
X98831647Y-51874393D01*
X98952514Y-51948945D01*
X98952516Y-51948946D01*
X99061000Y-51984893D01*
X99061000Y-51512400D01*
X99961000Y-51512400D01*
X99961000Y-51984892D01*
X100069483Y-51948946D01*
X100069485Y-51948945D01*
X100213732Y-51859972D01*
X100213738Y-51859967D01*
X100333567Y-51740138D01*
X100333572Y-51740132D01*
X100422548Y-51595880D01*
X100450211Y-51512400D01*
X99961000Y-51512400D01*
X99061000Y-51512400D01*
X99061000Y-50738400D01*
X99081002Y-50670279D01*
X99134658Y-50623786D01*
X99187000Y-50612400D01*
X100450211Y-50612400D01*
X100463050Y-50594620D01*
X100519146Y-50551103D01*
X100589864Y-50544821D01*
X100652752Y-50577770D01*
X100654296Y-50579289D01*
X100675257Y-50600250D01*
X100713899Y-50619938D01*
X100788296Y-50657846D01*
X100882081Y-50672700D01*
X101645118Y-50672699D01*
X101738904Y-50657846D01*
X101841397Y-50605622D01*
X101911173Y-50592518D01*
X101955801Y-50605622D01*
X101969104Y-50612400D01*
X101990808Y-50623459D01*
X102042423Y-50672208D01*
X102048218Y-50683383D01*
X102069031Y-50728957D01*
X102072472Y-50737264D01*
X102072896Y-50738400D01*
X102089804Y-50783731D01*
X102089805Y-50783732D01*
X102092568Y-50787424D01*
X102106306Y-50810578D01*
X102108219Y-50814767D01*
X102108221Y-50814770D01*
X102108222Y-50814771D01*
X102108223Y-50814773D01*
X102140692Y-50852244D01*
X102146332Y-50859244D01*
X102154379Y-50869993D01*
X102163874Y-50879488D01*
X102169992Y-50886059D01*
X102202472Y-50923543D01*
X102206351Y-50926035D01*
X102227323Y-50942937D01*
X104189461Y-52905075D01*
X104206362Y-52926046D01*
X104208856Y-52929927D01*
X104246337Y-52962404D01*
X104252909Y-52968523D01*
X104262407Y-52978021D01*
X104273158Y-52986069D01*
X104280158Y-52991710D01*
X104317627Y-53024177D01*
X104321814Y-53026089D01*
X104344975Y-53039831D01*
X104348669Y-53042596D01*
X104348671Y-53042596D01*
X104348673Y-53042598D01*
X104395128Y-53059924D01*
X104403427Y-53063360D01*
X104448543Y-53083965D01*
X104453107Y-53084621D01*
X104479202Y-53091281D01*
X104483517Y-53092891D01*
X104532992Y-53096429D01*
X104541899Y-53097387D01*
X104555201Y-53099300D01*
X104568620Y-53099300D01*
X104577607Y-53099620D01*
X104627073Y-53103159D01*
X104631573Y-53102179D01*
X104658358Y-53099300D01*
X106173500Y-53099300D01*
X106241621Y-53119302D01*
X106288114Y-53172958D01*
X106299500Y-53225300D01*
X106299500Y-53792493D01*
X106302401Y-53829367D01*
X106302401Y-53829368D01*
X106348257Y-53987201D01*
X106431917Y-54128663D01*
X106431923Y-54128670D01*
X106527362Y-54224109D01*
X106561388Y-54286421D01*
X106556323Y-54357236D01*
X106513776Y-54414072D01*
X106504417Y-54420443D01*
X106481657Y-54434482D01*
X106481649Y-54434488D01*
X106357688Y-54558449D01*
X106357683Y-54558455D01*
X106265640Y-54707681D01*
X106238594Y-54789299D01*
X106238595Y-54789300D01*
X109510513Y-54789300D01*
X109575589Y-54808408D01*
X109575661Y-54808278D01*
X109576259Y-54808604D01*
X109578634Y-54809302D01*
X109582675Y-54812108D01*
X109583571Y-54812597D01*
X109630028Y-54829924D01*
X109638327Y-54833360D01*
X109683443Y-54853965D01*
X109688007Y-54854621D01*
X109714102Y-54861281D01*
X109718417Y-54862891D01*
X109767892Y-54866429D01*
X109776799Y-54867387D01*
X109790101Y-54869300D01*
X109803520Y-54869300D01*
X109812507Y-54869620D01*
X109861973Y-54873159D01*
X109866473Y-54872179D01*
X109893258Y-54869300D01*
X112882642Y-54869300D01*
X112909426Y-54872179D01*
X112913927Y-54873159D01*
X112963392Y-54869620D01*
X112972380Y-54869300D01*
X112985798Y-54869300D01*
X112985799Y-54869300D01*
X112999100Y-54867387D01*
X113008009Y-54866429D01*
X113057483Y-54862891D01*
X113061791Y-54861283D01*
X113087901Y-54854619D01*
X113092457Y-54853965D01*
X113137566Y-54833363D01*
X113145862Y-54829927D01*
X113192331Y-54812596D01*
X113196017Y-54809836D01*
X113219183Y-54796089D01*
X113223373Y-54794177D01*
X113260846Y-54761706D01*
X113267844Y-54756066D01*
X113278593Y-54748021D01*
X113288079Y-54738533D01*
X113294668Y-54732399D01*
X113304255Y-54724092D01*
X113332143Y-54699928D01*
X113334629Y-54696058D01*
X113351531Y-54675080D01*
X113660278Y-54366333D01*
X113681251Y-54349433D01*
X113685128Y-54346943D01*
X113717608Y-54309457D01*
X113723743Y-54302869D01*
X113733218Y-54293395D01*
X113733218Y-54293394D01*
X113733220Y-54293393D01*
X113741267Y-54282641D01*
X113746897Y-54275655D01*
X113779377Y-54238173D01*
X113781289Y-54233983D01*
X113795036Y-54210817D01*
X113797796Y-54207131D01*
X113815127Y-54160662D01*
X113818566Y-54152360D01*
X113839165Y-54107257D01*
X113839819Y-54102701D01*
X113846483Y-54076591D01*
X113848091Y-54072283D01*
X113851629Y-54022809D01*
X113852587Y-54013900D01*
X113854500Y-54000599D01*
X113854500Y-53987180D01*
X113854821Y-53978190D01*
X113858359Y-53928727D01*
X113857379Y-53924220D01*
X113854500Y-53897440D01*
X113854500Y-50126157D01*
X113857379Y-50099376D01*
X113858359Y-50094873D01*
X113854821Y-50045407D01*
X113854500Y-50036418D01*
X113854500Y-50023001D01*
X113854272Y-50021413D01*
X113852587Y-50009699D01*
X113851629Y-50000792D01*
X113848091Y-49951317D01*
X113846481Y-49947002D01*
X113839821Y-49920907D01*
X113839165Y-49916343D01*
X113818560Y-49871227D01*
X113815124Y-49862928D01*
X113797798Y-49816473D01*
X113797796Y-49816471D01*
X113797796Y-49816469D01*
X113795031Y-49812775D01*
X113781289Y-49789614D01*
X113779377Y-49785427D01*
X113754504Y-49756722D01*
X113746900Y-49747946D01*
X113741259Y-49740946D01*
X113736906Y-49735131D01*
X113733220Y-49730207D01*
X113723730Y-49720717D01*
X113717611Y-49714145D01*
X113685127Y-49676656D01*
X113681249Y-49674164D01*
X113660274Y-49657261D01*
X113374534Y-49371520D01*
X113357629Y-49350541D01*
X113355143Y-49346672D01*
X113355141Y-49346670D01*
X113355141Y-49346669D01*
X113317660Y-49314192D01*
X113311087Y-49308073D01*
X113301593Y-49298579D01*
X113290844Y-49290532D01*
X113283844Y-49284892D01*
X113257206Y-49261810D01*
X113246373Y-49252423D01*
X113246371Y-49252422D01*
X113246370Y-49252421D01*
X113246367Y-49252419D01*
X113242178Y-49250506D01*
X113219024Y-49236768D01*
X113215331Y-49234004D01*
X113215329Y-49234003D01*
X113184006Y-49222319D01*
X113127171Y-49179771D01*
X113102363Y-49113250D01*
X113102425Y-49095974D01*
X113102403Y-49095974D01*
X113102427Y-49095350D01*
X113102431Y-49094372D01*
X113102500Y-49093495D01*
X113102500Y-48437106D01*
X113099598Y-48400232D01*
X113099598Y-48400231D01*
X113090181Y-48367818D01*
X113053744Y-48242402D01*
X113053601Y-48242160D01*
X112970082Y-48100936D01*
X112970076Y-48100929D01*
X112853870Y-47984723D01*
X112853863Y-47984717D01*
X112712401Y-47901057D01*
X112554568Y-47855201D01*
X112520595Y-47852528D01*
X112517694Y-47852300D01*
X111486306Y-47852300D01*
X111483405Y-47852528D01*
X111449432Y-47855201D01*
X111449431Y-47855201D01*
X111291598Y-47901057D01*
X111150136Y-47984717D01*
X111150129Y-47984723D01*
X111033923Y-48100929D01*
X111033922Y-48100931D01*
X111033920Y-48100933D01*
X111033919Y-48100935D01*
X111001093Y-48156440D01*
X110949202Y-48204892D01*
X110892641Y-48218300D01*
X110760359Y-48218300D01*
X110692238Y-48198298D01*
X110651906Y-48156441D01*
X110619081Y-48100935D01*
X110619077Y-48100931D01*
X110619076Y-48100929D01*
X110502870Y-47984723D01*
X110502863Y-47984717D01*
X110361401Y-47901057D01*
X110203568Y-47855201D01*
X110169595Y-47852528D01*
X110166694Y-47852300D01*
X109135306Y-47852300D01*
X109132405Y-47852528D01*
X109098432Y-47855201D01*
X109098431Y-47855201D01*
X108940598Y-47901057D01*
X108799136Y-47984717D01*
X108799129Y-47984723D01*
X108682923Y-48100929D01*
X108682922Y-48100931D01*
X108682920Y-48100933D01*
X108682919Y-48100935D01*
X108650093Y-48156440D01*
X108598202Y-48204892D01*
X108541641Y-48218300D01*
X108494359Y-48218300D01*
X108426238Y-48198298D01*
X108385906Y-48156441D01*
X108353081Y-48100935D01*
X108353077Y-48100931D01*
X108353076Y-48100929D01*
X108236870Y-47984723D01*
X108236863Y-47984717D01*
X108095401Y-47901057D01*
X107937568Y-47855201D01*
X107900013Y-47852246D01*
X107833672Y-47826960D01*
X107820806Y-47815731D01*
X107796178Y-47791103D01*
X107787541Y-47781532D01*
X107761869Y-47749976D01*
X107761868Y-47749975D01*
X107747492Y-47739827D01*
X107731059Y-47725984D01*
X107462434Y-47457359D01*
X107459443Y-47454265D01*
X107415952Y-47407697D01*
X107415947Y-47407693D01*
X107381188Y-47386555D01*
X107370525Y-47379298D01*
X107338113Y-47354720D01*
X107338108Y-47354717D01*
X107321747Y-47348265D01*
X107302506Y-47338709D01*
X107287473Y-47329567D01*
X107248300Y-47318592D01*
X107236070Y-47314479D01*
X107198229Y-47299556D01*
X107198225Y-47299555D01*
X107180726Y-47297756D01*
X107159625Y-47293746D01*
X107142687Y-47289001D01*
X107142686Y-47289000D01*
X107142683Y-47289000D01*
X107142680Y-47289000D01*
X107102001Y-47289000D01*
X107089116Y-47288339D01*
X107085163Y-47287932D01*
X107048650Y-47284178D01*
X107031312Y-47287168D01*
X107009905Y-47289000D01*
X101935532Y-47289000D01*
X101931230Y-47288927D01*
X101867536Y-47286751D01*
X101867535Y-47286751D01*
X101867533Y-47286751D01*
X101828000Y-47296384D01*
X101815331Y-47298792D01*
X101775035Y-47304331D01*
X101775031Y-47304332D01*
X101758895Y-47311340D01*
X101738548Y-47318183D01*
X101721446Y-47322352D01*
X101721442Y-47322353D01*
X101685983Y-47342290D01*
X101674434Y-47348026D01*
X101637119Y-47364235D01*
X101623460Y-47375346D01*
X101605713Y-47387424D01*
X101590377Y-47396048D01*
X101590372Y-47396052D01*
X101561608Y-47424815D01*
X101552035Y-47433454D01*
X101520475Y-47459131D01*
X101520474Y-47459132D01*
X101510323Y-47473512D01*
X101496484Y-47489939D01*
X100884957Y-48101466D01*
X100881865Y-48104455D01*
X100835296Y-48147947D01*
X100814158Y-48182708D01*
X100806903Y-48193368D01*
X100782318Y-48225789D01*
X100775862Y-48242160D01*
X100766311Y-48261389D01*
X100757167Y-48276426D01*
X100757166Y-48276429D01*
X100747234Y-48311877D01*
X100709594Y-48372075D01*
X100683118Y-48390144D01*
X100675257Y-48394149D01*
X100585549Y-48483857D01*
X100527955Y-48596894D01*
X100527954Y-48596896D01*
X100513100Y-48690681D01*
X100513100Y-48690684D01*
X100513100Y-48860900D01*
X100493098Y-48929021D01*
X100439442Y-48975514D01*
X100387100Y-48986900D01*
X100381852Y-48986900D01*
X100313731Y-48966898D01*
X100273398Y-48925039D01*
X100259168Y-48900977D01*
X100147423Y-48789232D01*
X100147416Y-48789227D01*
X100011394Y-48708783D01*
X99859625Y-48664690D01*
X99824171Y-48661900D01*
X99197838Y-48661900D01*
X99162375Y-48664690D01*
X99010605Y-48708783D01*
X98874583Y-48789227D01*
X98874576Y-48789232D01*
X98762831Y-48900977D01*
X98741687Y-48936731D01*
X98682382Y-49037010D01*
X98682381Y-49037013D01*
X98678348Y-49043833D01*
X98675386Y-49042081D01*
X98639834Y-49084642D01*
X98616946Y-49095176D01*
X98617390Y-49096197D01*
X98594367Y-49106196D01*
X98574015Y-49113040D01*
X98558011Y-49116941D01*
X98558001Y-49116945D01*
X98524165Y-49135969D01*
X98512616Y-49141705D01*
X98476991Y-49157180D01*
X98464206Y-49167581D01*
X98446452Y-49179664D01*
X98432093Y-49187738D01*
X98432081Y-49187747D01*
X98404634Y-49215195D01*
X98395058Y-49223838D01*
X98364936Y-49248344D01*
X98364935Y-49248345D01*
X98355430Y-49261810D01*
X98341591Y-49278237D01*
X97750315Y-49869513D01*
X97747225Y-49872500D01*
X97702531Y-49914243D01*
X97702530Y-49914244D01*
X97682355Y-49947421D01*
X97675100Y-49958082D01*
X97651634Y-49989027D01*
X97645590Y-50004354D01*
X97636037Y-50023588D01*
X97627475Y-50037668D01*
X97616999Y-50075056D01*
X97612888Y-50087279D01*
X97598640Y-50123410D01*
X97596955Y-50139802D01*
X97592946Y-50160898D01*
X97588500Y-50176770D01*
X97588500Y-50215604D01*
X97587839Y-50228490D01*
X97583868Y-50267107D01*
X97586668Y-50283343D01*
X97588500Y-50304751D01*
X97588500Y-56575541D01*
X97568498Y-56643662D01*
X97514842Y-56690155D01*
X97444568Y-56700259D01*
X97379988Y-56670765D01*
X97373405Y-56664636D01*
X96746005Y-56037236D01*
X96711979Y-55974924D01*
X96709100Y-55948141D01*
X96709100Y-52686067D01*
X96729102Y-52617946D01*
X96746005Y-52596972D01*
X96747235Y-52595741D01*
X96747236Y-52595739D01*
X96747238Y-52595738D01*
X96838261Y-52475705D01*
X96893524Y-52335567D01*
X96904100Y-52247501D01*
X96904099Y-51866700D01*
X96893524Y-51778633D01*
X96838261Y-51638495D01*
X96838254Y-51638486D01*
X96835651Y-51633855D01*
X96819699Y-51564674D01*
X96835651Y-51510345D01*
X96838254Y-51505714D01*
X96838261Y-51505705D01*
X96893524Y-51365567D01*
X96904100Y-51277501D01*
X96904099Y-50896700D01*
X96893524Y-50808633D01*
X96838261Y-50668495D01*
X96747238Y-50548462D01*
X96747235Y-50548458D01*
X96746005Y-50547228D01*
X96745240Y-50545827D01*
X96742030Y-50541594D01*
X96742665Y-50541112D01*
X96711979Y-50484916D01*
X96709100Y-50458133D01*
X96709100Y-49927881D01*
X96729102Y-49859760D01*
X96731404Y-49856305D01*
X96768933Y-49801935D01*
X96812878Y-49738270D01*
X96873631Y-49578077D01*
X96891651Y-49429668D01*
X96894282Y-49408003D01*
X96894282Y-49407996D01*
X96875159Y-49250506D01*
X96873631Y-49237923D01*
X96812878Y-49077730D01*
X96715553Y-48936731D01*
X96587313Y-48823120D01*
X96587312Y-48823119D01*
X96587308Y-48823117D01*
X96435609Y-48743500D01*
X96269264Y-48702500D01*
X96269263Y-48702500D01*
X96097937Y-48702500D01*
X96097935Y-48702500D01*
X95931590Y-48743500D01*
X95779891Y-48823117D01*
X95779887Y-48823119D01*
X95651645Y-48936732D01*
X95554324Y-49077726D01*
X95554320Y-49077734D01*
X95493568Y-49237924D01*
X95472918Y-49407996D01*
X95472918Y-49408003D01*
X95493568Y-49578075D01*
X95554320Y-49738265D01*
X95554324Y-49738273D01*
X95635796Y-49856305D01*
X95658032Y-49923730D01*
X95658100Y-49927881D01*
X95658100Y-50458133D01*
X95638098Y-50526254D01*
X95621195Y-50547228D01*
X95619964Y-50548458D01*
X95528940Y-50668493D01*
X95528938Y-50668496D01*
X95473676Y-50808630D01*
X95473675Y-50808636D01*
X95463100Y-50896696D01*
X95463100Y-51277495D01*
X95463101Y-51277504D01*
X95473675Y-51365566D01*
X95475856Y-51371096D01*
X95528937Y-51505701D01*
X95528943Y-51505714D01*
X95531554Y-51510359D01*
X95547498Y-51579542D01*
X95531554Y-51633841D01*
X95528943Y-51638485D01*
X95473676Y-51778630D01*
X95473675Y-51778636D01*
X95463100Y-51866696D01*
X95463100Y-52247495D01*
X95463101Y-52247504D01*
X95473675Y-52335566D01*
X95519725Y-52452340D01*
X95528939Y-52475705D01*
X95564593Y-52522722D01*
X95619964Y-52595741D01*
X95621195Y-52596972D01*
X95621959Y-52598372D01*
X95625170Y-52602606D01*
X95624534Y-52603087D01*
X95655221Y-52659284D01*
X95658100Y-52686067D01*
X95658100Y-56206851D01*
X95658027Y-56211152D01*
X95655940Y-56272245D01*
X95665133Y-56309971D01*
X95667541Y-56322644D01*
X95672827Y-56361107D01*
X95672828Y-56361109D01*
X95679395Y-56376228D01*
X95686240Y-56396582D01*
X95690143Y-56412594D01*
X95690144Y-56412595D01*
X95690144Y-56412596D01*
X95709168Y-56446431D01*
X95714906Y-56457984D01*
X95730379Y-56493606D01*
X95730378Y-56493606D01*
X95734350Y-56498488D01*
X95740780Y-56506391D01*
X95752866Y-56524149D01*
X95760942Y-56538512D01*
X95788403Y-56565973D01*
X95797038Y-56575540D01*
X95821546Y-56605665D01*
X95835007Y-56615167D01*
X95851439Y-56629009D01*
X98413124Y-59190693D01*
X98416115Y-59193787D01*
X98457842Y-59238467D01*
X98457844Y-59238468D01*
X98457845Y-59238469D01*
X98491027Y-59258647D01*
X98501687Y-59265903D01*
X98532620Y-59289361D01*
X98532627Y-59289365D01*
X98547951Y-59295408D01*
X98567195Y-59304966D01*
X98581271Y-59313526D01*
X98618652Y-59323999D01*
X98630883Y-59328112D01*
X98644053Y-59333305D01*
X98667011Y-59342359D01*
X98683408Y-59344044D01*
X98704513Y-59348056D01*
X98720372Y-59352500D01*
X98759205Y-59352500D01*
X98772091Y-59353161D01*
X98810708Y-59357131D01*
X98810708Y-59357130D01*
X98810710Y-59357131D01*
X98822829Y-59355041D01*
X98826945Y-59354332D01*
X98848352Y-59352500D01*
X100713964Y-59352500D01*
X100782085Y-59372502D01*
X100828578Y-59426158D01*
X100838682Y-59496432D01*
X100809188Y-59561012D01*
X100770307Y-59589048D01*
X100770926Y-59590121D01*
X100763774Y-59594249D01*
X100638335Y-59690502D01*
X100542082Y-59815941D01*
X100542080Y-59815944D01*
X100481572Y-59962023D01*
X100466117Y-60079420D01*
X100466117Y-61358143D01*
X100466118Y-61358152D01*
X100481573Y-61475544D01*
X100481573Y-61475545D01*
X100542080Y-61621623D01*
X100546212Y-61628779D01*
X100544282Y-61629892D01*
X100565679Y-61685228D01*
X100566117Y-61695720D01*
X100566117Y-83704242D01*
X100565886Y-83711850D01*
X100562259Y-83771823D01*
X100564285Y-83782877D01*
X100573090Y-83830931D01*
X100574235Y-83838454D01*
X100581475Y-83898085D01*
X100585005Y-83907393D01*
X100591125Y-83929347D01*
X100592921Y-83939146D01*
X100592922Y-83939150D01*
X100617585Y-83993951D01*
X100620496Y-84000979D01*
X100641798Y-84057145D01*
X100641799Y-84057147D01*
X100647452Y-84065337D01*
X100658654Y-84085198D01*
X100662739Y-84094274D01*
X100662740Y-84094276D01*
X100681535Y-84118266D01*
X100699799Y-84141578D01*
X100704301Y-84147697D01*
X100738431Y-84197143D01*
X100738435Y-84197147D01*
X100783410Y-84236991D01*
X100788952Y-84242209D01*
X103443014Y-86896271D01*
X103448231Y-86901813D01*
X103488069Y-86946781D01*
X103488073Y-86946785D01*
X103537521Y-86980917D01*
X103543650Y-86985427D01*
X103590936Y-87022473D01*
X103590938Y-87022474D01*
X103590943Y-87022478D01*
X103595270Y-87024425D01*
X103600015Y-87026561D01*
X103619882Y-87037766D01*
X103628070Y-87043418D01*
X103684259Y-87064727D01*
X103691248Y-87067621D01*
X103746069Y-87092295D01*
X103755854Y-87094088D01*
X103777822Y-87100210D01*
X103787128Y-87103740D01*
X103846779Y-87110982D01*
X103854270Y-87112122D01*
X103913394Y-87122958D01*
X103973367Y-87119330D01*
X103980975Y-87119100D01*
X113990900Y-87119100D01*
X114059021Y-87139102D01*
X114105514Y-87192758D01*
X114116900Y-87245100D01*
X114116900Y-88809207D01*
X114126169Y-88895406D01*
X114137373Y-88946910D01*
X114160088Y-89018556D01*
X114160093Y-89018566D01*
X114213990Y-89105123D01*
X114227150Y-89126257D01*
X114272905Y-89179061D01*
X114272907Y-89179063D01*
X114350476Y-89248242D01*
X114436788Y-89289160D01*
X114465115Y-89302589D01*
X114532154Y-89322274D01*
X114646400Y-89338700D01*
X114646404Y-89338700D01*
X118360795Y-89338700D01*
X118360800Y-89338700D01*
X118446999Y-89329432D01*
X118498510Y-89318226D01*
X118570160Y-89295510D01*
X118677857Y-89228450D01*
X118730661Y-89182695D01*
X118799842Y-89105123D01*
X118854189Y-88990485D01*
X118873874Y-88923446D01*
X118890300Y-88809200D01*
X118890300Y-84078800D01*
X118881032Y-83992601D01*
X118869826Y-83941090D01*
X118859366Y-83908099D01*
X118847111Y-83869443D01*
X118847110Y-83869442D01*
X118847110Y-83869440D01*
X118825465Y-83834679D01*
X118780055Y-83761751D01*
X118780054Y-83761750D01*
X118780050Y-83761743D01*
X118734295Y-83708939D01*
X118733296Y-83708048D01*
X118656723Y-83639757D01*
X118542090Y-83585413D01*
X118542087Y-83585412D01*
X118542085Y-83585411D01*
X118505683Y-83574722D01*
X118475048Y-83565726D01*
X118436964Y-83560250D01*
X118360800Y-83549300D01*
X118360796Y-83549300D01*
X115702945Y-83549300D01*
X115634824Y-83529298D01*
X115588331Y-83475642D01*
X115578227Y-83405368D01*
X115599249Y-83351724D01*
X115669278Y-83250270D01*
X115730031Y-83090077D01*
X115750682Y-82920000D01*
X115749872Y-82913330D01*
X115732752Y-82772331D01*
X115730031Y-82749923D01*
X115669278Y-82589730D01*
X115571953Y-82448731D01*
X115443713Y-82335120D01*
X115443712Y-82335119D01*
X115443708Y-82335117D01*
X115292009Y-82255500D01*
X115125664Y-82214500D01*
X115125663Y-82214500D01*
X114954337Y-82214500D01*
X114954335Y-82214500D01*
X114787990Y-82255500D01*
X114636291Y-82335117D01*
X114636287Y-82335119D01*
X114508045Y-82448732D01*
X114410724Y-82589726D01*
X114410720Y-82589734D01*
X114349968Y-82749924D01*
X114329318Y-82919996D01*
X114329318Y-82920003D01*
X114349968Y-83090075D01*
X114410720Y-83250265D01*
X114410724Y-83250273D01*
X114512377Y-83397542D01*
X114509641Y-83399430D01*
X114533380Y-83450354D01*
X114523825Y-83520705D01*
X114477753Y-83574722D01*
X114446888Y-83589367D01*
X114437045Y-83592487D01*
X114437033Y-83592493D01*
X114329351Y-83659544D01*
X114329343Y-83659550D01*
X114276536Y-83705307D01*
X114207357Y-83782876D01*
X114207357Y-83782877D01*
X114153013Y-83897509D01*
X114153011Y-83897513D01*
X114153011Y-83897515D01*
X114149903Y-83908099D01*
X114133326Y-83964551D01*
X114129293Y-83992601D01*
X114116902Y-84078792D01*
X114116900Y-84078803D01*
X114116900Y-85592100D01*
X114096898Y-85660221D01*
X114043242Y-85706714D01*
X113990900Y-85718100D01*
X104298347Y-85718100D01*
X104230226Y-85698098D01*
X104209252Y-85681195D01*
X102004022Y-83475965D01*
X101969996Y-83413653D01*
X101967117Y-83386870D01*
X101967117Y-62012565D01*
X101987119Y-61944444D01*
X102040775Y-61897951D01*
X102111049Y-61887847D01*
X102141334Y-61896156D01*
X102159855Y-61903828D01*
X102277256Y-61919284D01*
X102755977Y-61919283D01*
X102873379Y-61903828D01*
X103019458Y-61843320D01*
X103063414Y-61809591D01*
X103129632Y-61783991D01*
X103199181Y-61798255D01*
X103249978Y-61847856D01*
X103266117Y-61909554D01*
X103266117Y-82675517D01*
X103246115Y-82743638D01*
X103223676Y-82769825D01*
X103220846Y-82772332D01*
X103123524Y-82913326D01*
X103123520Y-82913334D01*
X103062768Y-83073524D01*
X103042118Y-83243596D01*
X103042118Y-83243603D01*
X103062768Y-83413675D01*
X103123520Y-83573865D01*
X103123524Y-83573873D01*
X103220845Y-83714867D01*
X103220846Y-83714868D01*
X103220847Y-83714869D01*
X103349087Y-83828480D01*
X103500789Y-83908099D01*
X103667137Y-83949100D01*
X103667138Y-83949100D01*
X103838462Y-83949100D01*
X103838463Y-83949100D01*
X104004811Y-83908099D01*
X104156513Y-83828480D01*
X104284753Y-83714869D01*
X104382078Y-83573870D01*
X104442831Y-83413677D01*
X104463482Y-83243600D01*
X104442831Y-83073523D01*
X104382078Y-82913330D01*
X104352447Y-82870402D01*
X104289421Y-82779093D01*
X104267185Y-82711668D01*
X104267117Y-82707517D01*
X104267117Y-72847000D01*
X119772762Y-72847000D01*
X119843866Y-72999483D01*
X119974335Y-73185812D01*
X119974340Y-73185818D01*
X120135181Y-73346659D01*
X120135187Y-73346664D01*
X120321514Y-73477132D01*
X120474000Y-73548237D01*
X120474000Y-72847000D01*
X121474000Y-72847000D01*
X121474000Y-73548236D01*
X121626485Y-73477132D01*
X121812812Y-73346664D01*
X121812818Y-73346659D01*
X121973659Y-73185818D01*
X121973664Y-73185812D01*
X122104133Y-72999483D01*
X122175238Y-72847000D01*
X121474000Y-72847000D01*
X120474000Y-72847000D01*
X119772762Y-72847000D01*
X104267117Y-72847000D01*
X104267117Y-72347000D01*
X120569014Y-72347000D01*
X120588835Y-72472148D01*
X120646359Y-72585045D01*
X120735955Y-72674641D01*
X120848852Y-72732165D01*
X120942519Y-72747000D01*
X121005481Y-72747000D01*
X121099148Y-72732165D01*
X121212045Y-72674641D01*
X121301641Y-72585045D01*
X121359165Y-72472148D01*
X121378986Y-72347000D01*
X121359165Y-72221852D01*
X121301641Y-72108955D01*
X121212045Y-72019359D01*
X121099148Y-71961835D01*
X121005481Y-71947000D01*
X120942519Y-71947000D01*
X120848852Y-71961835D01*
X120735955Y-72019359D01*
X120646359Y-72108955D01*
X120588835Y-72221852D01*
X120569014Y-72347000D01*
X104267117Y-72347000D01*
X104267117Y-71846999D01*
X119772761Y-71846999D01*
X119772762Y-71847000D01*
X120474000Y-71847000D01*
X120474000Y-71145761D01*
X121474000Y-71145761D01*
X121474000Y-71847000D01*
X122175238Y-71847000D01*
X122175238Y-71846999D01*
X122104133Y-71694516D01*
X121973664Y-71508187D01*
X121973659Y-71508181D01*
X121812818Y-71347340D01*
X121812812Y-71347335D01*
X121626483Y-71216866D01*
X121474000Y-71145761D01*
X120474000Y-71145761D01*
X120473999Y-71145761D01*
X120321516Y-71216866D01*
X120135187Y-71347335D01*
X120135181Y-71347340D01*
X119974340Y-71508181D01*
X119974335Y-71508187D01*
X119843866Y-71694516D01*
X119772761Y-71846999D01*
X104267117Y-71846999D01*
X104267117Y-66000003D01*
X116794659Y-66000003D01*
X116813974Y-66196124D01*
X116813974Y-66196126D01*
X116871186Y-66384728D01*
X116916724Y-66469923D01*
X116964090Y-66558538D01*
X117089117Y-66710883D01*
X117241462Y-66835910D01*
X117415273Y-66928814D01*
X117444062Y-66937547D01*
X117451251Y-66939967D01*
X117451794Y-66940167D01*
X117451799Y-66940170D01*
X117455531Y-66941136D01*
X117460464Y-66942522D01*
X117603868Y-66986024D01*
X117634516Y-66989042D01*
X117641822Y-66990340D01*
X117641867Y-66990049D01*
X117648178Y-66991016D01*
X117648182Y-66991017D01*
X117658386Y-66991534D01*
X117664285Y-66991974D01*
X117762697Y-67001667D01*
X117799998Y-67005341D01*
X117800000Y-67005341D01*
X117835051Y-67001888D01*
X117844401Y-67001667D01*
X117844399Y-67001615D01*
X117850774Y-67001291D01*
X117850780Y-67001292D01*
X117850785Y-67001291D01*
X117850789Y-67001291D01*
X117864841Y-66999138D01*
X117871557Y-66998293D01*
X117965510Y-66989040D01*
X117996124Y-66986025D01*
X117996132Y-66986024D01*
X117996135Y-66986023D01*
X118034149Y-66974491D01*
X118050455Y-66970791D01*
X118051289Y-66970574D01*
X118051299Y-66970573D01*
X118066923Y-66964786D01*
X118074076Y-66962380D01*
X118094995Y-66956033D01*
X118184727Y-66928814D01*
X118223807Y-66907924D01*
X118239434Y-66900896D01*
X118241530Y-66900120D01*
X118256792Y-66890606D01*
X118263963Y-66886460D01*
X118358538Y-66835910D01*
X118396407Y-66804831D01*
X118409671Y-66795316D01*
X118413684Y-66792815D01*
X118427030Y-66780127D01*
X118433840Y-66774110D01*
X118510883Y-66710883D01*
X118544990Y-66669323D01*
X118555582Y-66657931D01*
X118560715Y-66653052D01*
X118571126Y-66638093D01*
X118577089Y-66630210D01*
X118635910Y-66558538D01*
X118663584Y-66506762D01*
X118671274Y-66494206D01*
X118676601Y-66486553D01*
X118683499Y-66470478D01*
X118688142Y-66460817D01*
X118728814Y-66384727D01*
X118747326Y-66323700D01*
X118752101Y-66310616D01*
X118756600Y-66300135D01*
X118759902Y-66284063D01*
X118762734Y-66272908D01*
X118786024Y-66196132D01*
X118792790Y-66127427D01*
X118794756Y-66114464D01*
X118797435Y-66101429D01*
X118798039Y-66077533D01*
X118798603Y-66068411D01*
X118805341Y-66000000D01*
X118798603Y-65931592D01*
X118798039Y-65922463D01*
X118797435Y-65898571D01*
X118794756Y-65885538D01*
X118792790Y-65872572D01*
X118786024Y-65803868D01*
X118762740Y-65727111D01*
X118759899Y-65715921D01*
X118756600Y-65699865D01*
X118752106Y-65689394D01*
X118747323Y-65676290D01*
X118728814Y-65615273D01*
X118688158Y-65539212D01*
X118683494Y-65529510D01*
X118676601Y-65513447D01*
X118671278Y-65505799D01*
X118663575Y-65493220D01*
X118662325Y-65490881D01*
X118635910Y-65441462D01*
X118577112Y-65369817D01*
X118571102Y-65361872D01*
X118560715Y-65346948D01*
X118555576Y-65342063D01*
X118544987Y-65330673D01*
X118531705Y-65314489D01*
X118510883Y-65289117D01*
X118510880Y-65289114D01*
X118433880Y-65225922D01*
X118427013Y-65219855D01*
X118413684Y-65207185D01*
X118409680Y-65204689D01*
X118396394Y-65195158D01*
X118395409Y-65194350D01*
X118358538Y-65164090D01*
X118279606Y-65121900D01*
X118264009Y-65113563D01*
X118256758Y-65109372D01*
X118241530Y-65099880D01*
X118241528Y-65099879D01*
X118241526Y-65099878D01*
X118239419Y-65099098D01*
X118223792Y-65092066D01*
X118184733Y-65071189D01*
X118184727Y-65071186D01*
X118074085Y-65037622D01*
X118066906Y-65035207D01*
X118063580Y-65033975D01*
X118051299Y-65029427D01*
X118051296Y-65029426D01*
X118051295Y-65029426D01*
X118050515Y-65029224D01*
X118034144Y-65025506D01*
X118014270Y-65019478D01*
X117996133Y-65013976D01*
X117871565Y-65001706D01*
X117864849Y-65000862D01*
X117850782Y-64998708D01*
X117844396Y-64998384D01*
X117844398Y-64998333D01*
X117835051Y-64998111D01*
X117826224Y-64997241D01*
X117800000Y-64994659D01*
X117799997Y-64994659D01*
X117799995Y-64994659D01*
X117664321Y-65008021D01*
X117658364Y-65008466D01*
X117648180Y-65008983D01*
X117641868Y-65009950D01*
X117641824Y-65009665D01*
X117634523Y-65010956D01*
X117603867Y-65013976D01*
X117460472Y-65057474D01*
X117455493Y-65058873D01*
X117451798Y-65059829D01*
X117451237Y-65060038D01*
X117444052Y-65062456D01*
X117415280Y-65071183D01*
X117415269Y-65071187D01*
X117241461Y-65164090D01*
X117089117Y-65289117D01*
X116964090Y-65441461D01*
X116871186Y-65615271D01*
X116813974Y-65803873D01*
X116813974Y-65803875D01*
X116794659Y-65999996D01*
X116794659Y-66000003D01*
X104267117Y-66000003D01*
X104267117Y-64118784D01*
X113516617Y-64118784D01*
X113516617Y-64918770D01*
X113527110Y-65021474D01*
X113582259Y-65187905D01*
X113674300Y-65337127D01*
X113674305Y-65337133D01*
X113798267Y-65461095D01*
X113798273Y-65461100D01*
X113947495Y-65553141D01*
X114113926Y-65608290D01*
X114216630Y-65618783D01*
X114216630Y-65618784D01*
X114566617Y-65618784D01*
X114566617Y-64118784D01*
X115566617Y-64118784D01*
X115566617Y-65618784D01*
X115916604Y-65618784D01*
X115916603Y-65618783D01*
X116019307Y-65608290D01*
X116185738Y-65553141D01*
X116334960Y-65461100D01*
X116334966Y-65461095D01*
X116458928Y-65337133D01*
X116458933Y-65337127D01*
X116550974Y-65187905D01*
X116606123Y-65021474D01*
X116616616Y-64918770D01*
X116616617Y-64918770D01*
X116616617Y-64118784D01*
X115566617Y-64118784D01*
X114566617Y-64118784D01*
X113516617Y-64118784D01*
X104267117Y-64118784D01*
X104267117Y-63118784D01*
X113516617Y-63118784D01*
X114566617Y-63118784D01*
X114566617Y-61618784D01*
X115566617Y-61618784D01*
X115566617Y-63118784D01*
X116616617Y-63118784D01*
X116616617Y-62318797D01*
X116606123Y-62216093D01*
X116550974Y-62049662D01*
X116458933Y-61900440D01*
X116458928Y-61900434D01*
X116334966Y-61776472D01*
X116334960Y-61776467D01*
X116185738Y-61684426D01*
X116019307Y-61629277D01*
X115916603Y-61618784D01*
X115566617Y-61618784D01*
X114566617Y-61618784D01*
X114216630Y-61618784D01*
X114113926Y-61629277D01*
X113947495Y-61684426D01*
X113798273Y-61776467D01*
X113798267Y-61776472D01*
X113674305Y-61900434D01*
X113674300Y-61900440D01*
X113582259Y-62049662D01*
X113527110Y-62216093D01*
X113516617Y-62318797D01*
X113516617Y-63118784D01*
X104267117Y-63118784D01*
X104267117Y-61909554D01*
X104287119Y-61841433D01*
X104340775Y-61794940D01*
X104411049Y-61784836D01*
X104469819Y-61809590D01*
X104513776Y-61843320D01*
X104659855Y-61903828D01*
X104777256Y-61919284D01*
X105255977Y-61919283D01*
X105373379Y-61903828D01*
X105519458Y-61843320D01*
X105564914Y-61808440D01*
X105631132Y-61782840D01*
X105700681Y-61797104D01*
X105718314Y-61808436D01*
X105763776Y-61843320D01*
X105909855Y-61903828D01*
X106027256Y-61919284D01*
X106505977Y-61919283D01*
X106623379Y-61903828D01*
X106769458Y-61843320D01*
X106814914Y-61808440D01*
X106881132Y-61782840D01*
X106950681Y-61797104D01*
X106968314Y-61808436D01*
X107013776Y-61843320D01*
X107159855Y-61903828D01*
X107277256Y-61919284D01*
X107755977Y-61919283D01*
X107873379Y-61903828D01*
X108019458Y-61843320D01*
X108064914Y-61808440D01*
X108131132Y-61782840D01*
X108200681Y-61797104D01*
X108218314Y-61808436D01*
X108263776Y-61843320D01*
X108409855Y-61903828D01*
X108527256Y-61919284D01*
X109005977Y-61919283D01*
X109123379Y-61903828D01*
X109269458Y-61843320D01*
X109314914Y-61808440D01*
X109381132Y-61782840D01*
X109450681Y-61797104D01*
X109468314Y-61808436D01*
X109513776Y-61843320D01*
X109659855Y-61903828D01*
X109777256Y-61919284D01*
X110255977Y-61919283D01*
X110373379Y-61903828D01*
X110519458Y-61843320D01*
X110564914Y-61808440D01*
X110631132Y-61782840D01*
X110700681Y-61797104D01*
X110718314Y-61808436D01*
X110763776Y-61843320D01*
X110909855Y-61903828D01*
X111027256Y-61919284D01*
X111505977Y-61919283D01*
X111623379Y-61903828D01*
X111749480Y-61851594D01*
X111820069Y-61844006D01*
X111874211Y-61871107D01*
X111875740Y-61869156D01*
X111881742Y-61873858D01*
X112027220Y-61961802D01*
X112027221Y-61961803D01*
X112116617Y-61989659D01*
X112116617Y-61118784D01*
X112916617Y-61118784D01*
X112916617Y-61989658D01*
X113006012Y-61961803D01*
X113006013Y-61961802D01*
X113151491Y-61873858D01*
X113151496Y-61873854D01*
X113271687Y-61753663D01*
X113271691Y-61753658D01*
X113359634Y-61608183D01*
X113359634Y-61608182D01*
X113410208Y-61445887D01*
X113410208Y-61445883D01*
X113416617Y-61375356D01*
X113416617Y-61118784D01*
X112916617Y-61118784D01*
X112116617Y-61118784D01*
X112116617Y-60444784D01*
X112136619Y-60376663D01*
X112190275Y-60330170D01*
X112242617Y-60318784D01*
X113416616Y-60318784D01*
X113416616Y-60062212D01*
X113410208Y-59991680D01*
X113409891Y-59990085D01*
X113409976Y-59989128D01*
X113409605Y-59985038D01*
X113410348Y-59984970D01*
X113416217Y-59919371D01*
X113459769Y-59863302D01*
X113526721Y-59839681D01*
X113533469Y-59839500D01*
X119685473Y-59839500D01*
X119753594Y-59859502D01*
X119800087Y-59913158D01*
X119806663Y-59931019D01*
X119849768Y-60082520D01*
X119849774Y-60082537D01*
X119948938Y-60281684D01*
X119948942Y-60281689D01*
X120083017Y-60459235D01*
X120247438Y-60609124D01*
X120247439Y-60609125D01*
X120436587Y-60726240D01*
X120436590Y-60726241D01*
X120436599Y-60726247D01*
X120526989Y-60761264D01*
X120644053Y-60806616D01*
X120644056Y-60806616D01*
X120644060Y-60806618D01*
X120862757Y-60847500D01*
X120862760Y-60847500D01*
X121085240Y-60847500D01*
X121085243Y-60847500D01*
X121303940Y-60806618D01*
X121303944Y-60806616D01*
X121303946Y-60806616D01*
X121357298Y-60785946D01*
X121511401Y-60726247D01*
X121700562Y-60609124D01*
X121864981Y-60459236D01*
X121999058Y-60281689D01*
X121999059Y-60281685D01*
X121999061Y-60281684D01*
X122098225Y-60082537D01*
X122098226Y-60082533D01*
X122098229Y-60082528D01*
X122159115Y-59868536D01*
X122179643Y-59647000D01*
X122159115Y-59425464D01*
X122155356Y-59412254D01*
X122098231Y-59211479D01*
X122098225Y-59211462D01*
X121999061Y-59012315D01*
X121999057Y-59012310D01*
X121864982Y-58834764D01*
X121700561Y-58684875D01*
X121700560Y-58684874D01*
X121511412Y-58567759D01*
X121511405Y-58567755D01*
X121511401Y-58567753D01*
X121511396Y-58567751D01*
X121303946Y-58487383D01*
X121264972Y-58480097D01*
X121085243Y-58446500D01*
X120862757Y-58446500D01*
X120836418Y-58451423D01*
X120739022Y-58469629D01*
X120683479Y-58466369D01*
X120683423Y-58466678D01*
X120680920Y-58466219D01*
X120678393Y-58466071D01*
X120675936Y-58465305D01*
X120666130Y-58463508D01*
X120644176Y-58457388D01*
X120634868Y-58453858D01*
X120575237Y-58446618D01*
X120567714Y-58445473D01*
X120508607Y-58434642D01*
X120508606Y-58434642D01*
X120450646Y-58438148D01*
X120448633Y-58438270D01*
X120441025Y-58438500D01*
X112032775Y-58438500D01*
X112025167Y-58438270D01*
X112024143Y-58438208D01*
X111965194Y-58434642D01*
X111965193Y-58434642D01*
X111965192Y-58434642D01*
X111906086Y-58445473D01*
X111898563Y-58446618D01*
X111838930Y-58453858D01*
X111838923Y-58453860D01*
X111829621Y-58457388D01*
X111807669Y-58463508D01*
X111797869Y-58465304D01*
X111797867Y-58465304D01*
X111743075Y-58489964D01*
X111736048Y-58492875D01*
X111679869Y-58514182D01*
X111671672Y-58519840D01*
X111651816Y-58531038D01*
X111642747Y-58535119D01*
X111642740Y-58535124D01*
X111595451Y-58572171D01*
X111589326Y-58576678D01*
X111539871Y-58610815D01*
X111539871Y-58610816D01*
X111500023Y-58655794D01*
X111494807Y-58661334D01*
X110788951Y-59367190D01*
X110783411Y-59372406D01*
X110751672Y-59400525D01*
X110687419Y-59430727D01*
X110617038Y-59421396D01*
X110562875Y-59375496D01*
X110542125Y-59307600D01*
X110542117Y-59306214D01*
X110542117Y-58682242D01*
X110562119Y-58614121D01*
X110579022Y-58593147D01*
X111070964Y-58101205D01*
X111133276Y-58067179D01*
X111160059Y-58064300D01*
X113038749Y-58064300D01*
X113043050Y-58064373D01*
X113044770Y-58064431D01*
X113104143Y-58066460D01*
X113141859Y-58057268D01*
X113154523Y-58054860D01*
X113193009Y-58049571D01*
X113193010Y-58049570D01*
X113193012Y-58049570D01*
X113208117Y-58043008D01*
X113228490Y-58036156D01*
X113244492Y-58032257D01*
X113278340Y-58013224D01*
X113289881Y-58007493D01*
X113299685Y-58003234D01*
X113325507Y-57992019D01*
X113338287Y-57981620D01*
X113356051Y-57969530D01*
X113370410Y-57961458D01*
X113370410Y-57961457D01*
X113370413Y-57961456D01*
X113397862Y-57934005D01*
X113407446Y-57925355D01*
X113421958Y-57913549D01*
X113437563Y-57900854D01*
X113447064Y-57887393D01*
X113460902Y-57870964D01*
X116453722Y-54878143D01*
X116456755Y-54875211D01*
X116501469Y-54833453D01*
X116521648Y-54800268D01*
X116528898Y-54789615D01*
X116552364Y-54758673D01*
X116558410Y-54743338D01*
X116567967Y-54724098D01*
X116576526Y-54710026D01*
X116587001Y-54672637D01*
X116591113Y-54660412D01*
X116605359Y-54624287D01*
X116607043Y-54607902D01*
X116611054Y-54586791D01*
X116615500Y-54570926D01*
X116615500Y-54532093D01*
X116616161Y-54519206D01*
X116620131Y-54480590D01*
X116617332Y-54464353D01*
X116615500Y-54442947D01*
X116615500Y-48041751D01*
X116615573Y-48037450D01*
X116617660Y-47976359D01*
X116608463Y-47938623D01*
X116606057Y-47925960D01*
X116600771Y-47887493D01*
X116594202Y-47872371D01*
X116587358Y-47852015D01*
X116583459Y-47836013D01*
X116583455Y-47836004D01*
X116564428Y-47802166D01*
X116558686Y-47790605D01*
X116543221Y-47754998D01*
X116539135Y-47749976D01*
X116532818Y-47742211D01*
X116520729Y-47724448D01*
X116512658Y-47710093D01*
X116485195Y-47682630D01*
X116476559Y-47673060D01*
X116452057Y-47642943D01*
X116452054Y-47642939D01*
X116438584Y-47633431D01*
X116422156Y-47619591D01*
X114192069Y-45389504D01*
X114189079Y-45386411D01*
X114147348Y-45341727D01*
X114140662Y-45336288D01*
X114140706Y-45336233D01*
X114125290Y-45324121D01*
X113606473Y-44805304D01*
X113603483Y-44802211D01*
X113561753Y-44757529D01*
X113528579Y-44737355D01*
X113517916Y-44730098D01*
X113486977Y-44706637D01*
X113486975Y-44706636D01*
X113471637Y-44700587D01*
X113452409Y-44691036D01*
X113438328Y-44682474D01*
X113400940Y-44671998D01*
X113388714Y-44667886D01*
X113352589Y-44653640D01*
X113336196Y-44651955D01*
X113315091Y-44647944D01*
X113299229Y-44643500D01*
X113299228Y-44643500D01*
X113260395Y-44643500D01*
X113247509Y-44642839D01*
X113208891Y-44638868D01*
X113192655Y-44641668D01*
X113171248Y-44643500D01*
X102290125Y-44643500D01*
X102222004Y-44623498D01*
X102206572Y-44611813D01*
X102175312Y-44584119D01*
X102175308Y-44584117D01*
X102023609Y-44504500D01*
X101857264Y-44463500D01*
X101857263Y-44463500D01*
X101685937Y-44463500D01*
X101685935Y-44463500D01*
X101519590Y-44504500D01*
X101367891Y-44584117D01*
X101367887Y-44584119D01*
X101239645Y-44697732D01*
X101142324Y-44838726D01*
X101142320Y-44838734D01*
X101081568Y-44998924D01*
X101061684Y-45162687D01*
X101033617Y-45227901D01*
X100974749Y-45267587D01*
X100936603Y-45273500D01*
X95051459Y-45273500D01*
X94983338Y-45253498D01*
X94962364Y-45236595D01*
X94888537Y-45162768D01*
X94854511Y-45100456D01*
X94852551Y-45088859D01*
X94841632Y-44998927D01*
X94841630Y-44998920D01*
X94828849Y-44965219D01*
X94780878Y-44838730D01*
X94708588Y-44734000D01*
X94683554Y-44697732D01*
X94675992Y-44691033D01*
X94617111Y-44638868D01*
X94555312Y-44584119D01*
X94555308Y-44584117D01*
X94403609Y-44504500D01*
X94237264Y-44463500D01*
X94237263Y-44463500D01*
X94065937Y-44463500D01*
X94065935Y-44463500D01*
X93899590Y-44504500D01*
X93747891Y-44584117D01*
X93747887Y-44584119D01*
X93619645Y-44697732D01*
X93522324Y-44838726D01*
X93522320Y-44838734D01*
X93461568Y-44998924D01*
X93440918Y-45168996D01*
X93440918Y-45169003D01*
X83193971Y-45169003D01*
X83197044Y-42126371D01*
X83217115Y-42058272D01*
X83270818Y-42011833D01*
X83323044Y-42000500D01*
X122873500Y-42000500D01*
X122941621Y-42020502D01*
G37*
%TD.AperFunction*%
%TD*%
%TA.AperFunction,Conductor*%
%TO.N,/SOLAR*%
G36*
X118427839Y-83974485D02*
G01*
X118473594Y-84027289D01*
X118484800Y-84078800D01*
X118484800Y-88809200D01*
X118465115Y-88876239D01*
X118412311Y-88921994D01*
X118360800Y-88933200D01*
X114646400Y-88933200D01*
X114579361Y-88913515D01*
X114533606Y-88860711D01*
X114522400Y-88809200D01*
X114522400Y-84078800D01*
X114542085Y-84011761D01*
X114594889Y-83966006D01*
X114646400Y-83954800D01*
X118360800Y-83954800D01*
X118427839Y-83974485D01*
G37*
%TD.AperFunction*%
%TD*%
M02*
