M48
; DRILL file {KiCad 7.0.10-7.0.10~ubuntu22.04.1} date Tue 11 Jun 2024 12:31:43 CEST
; FORMAT={-:-/ absolute / metric / decimal}
; #@! TF.CreationDate,2024-06-11T12:31:43+02:00
; #@! TF.GenerationSoftware,Kicad,Pcbnew,7.0.10-7.0.10~ubuntu22.04.1
; #@! TF.FileFunction,Plated,1,6,PTH
FMAT,2
METRIC
; #@! TA.AperFunction,Plated,PTH,ViaDrill
T1C0.305
; #@! TA.AperFunction,Plated,PTH,ComponentDrill
T2C0.800
; #@! TA.AperFunction,Plated,PTH,ComponentDrill
T3C2.200
%
G90
G05
T1
X94.152Y-45.169
X96.184Y-49.408
X99.2Y-66.64
X99.201Y-65.76
X101.772Y-45.169
X103.753Y-83.244
X115.04Y-82.92
X115.234Y-84.641
X115.234Y-86.419
X115.234Y-88.197
X115.742Y-57.285
X115.767Y-60.739
X115.767Y-75.293
X115.767Y-80.932
X116.732Y-78.037
X117.697Y-55.151
X117.697Y-60.739
X117.774Y-84.641
X117.774Y-86.419
X117.774Y-88.197
X117.875Y-75.293
X117.875Y-80.932
T2
X120.974Y-59.647
X120.974Y-72.347
T3
X78.505Y-66.022
X79.0Y-84.0
X81.05Y-46.05
X119.0Y-46.0
X121.0Y-87.0
M30
