%TF.GenerationSoftware,KiCad,Pcbnew,7.0.10-7.0.10~ubuntu22.04.1*%
%TF.CreationDate,2024-06-11T12:31:40+02:00*%
%TF.ProjectId,PQ_Lat_Board,50515f4c-6174-45f4-926f-6172642e6b69,rev?*%
%TF.SameCoordinates,Original*%
%TF.FileFunction,Copper,L3,Inr*%
%TF.FilePolarity,Positive*%
%FSLAX46Y46*%
G04 Gerber Fmt 4.6, Leading zero omitted, Abs format (unit mm)*
G04 Created by KiCad (PCBNEW 7.0.10-7.0.10~ubuntu22.04.1) date 2024-06-11 12:31:40*
%MOMM*%
%LPD*%
G01*
G04 APERTURE LIST*
%TA.AperFunction,ComponentPad*%
%ADD10C,4.400000*%
%TD*%
%TA.AperFunction,ComponentPad*%
%ADD11C,3.500000*%
%TD*%
%TA.AperFunction,ComponentPad*%
%ADD12C,2.600000*%
%TD*%
%TA.AperFunction,ComponentPad*%
%ADD13C,1.600000*%
%TD*%
%TA.AperFunction,ComponentPad*%
%ADD14O,1.600000X1.600000*%
%TD*%
%TA.AperFunction,ViaPad*%
%ADD15C,0.610000*%
%TD*%
%TA.AperFunction,Conductor*%
%ADD16C,0.220000*%
%TD*%
G04 APERTURE END LIST*
D10*
%TO.N,GND*%
%TO.C,H1*%
X81050000Y-46050000D03*
%TD*%
D11*
%TO.N,GND*%
%TO.C,H3*%
X121000000Y-87000000D03*
%TD*%
D10*
%TO.N,GND*%
%TO.C,H4*%
X79000000Y-84000000D03*
%TD*%
%TO.N,GND*%
%TO.C,H2*%
X119000000Y-46000000D03*
%TD*%
D12*
%TO.N,/Antenna Connector*%
%TO.C,H5*%
X78505200Y-66022400D03*
%TD*%
D13*
%TO.N,/BURNCOMMS*%
%TO.C,THT1*%
X120974000Y-59647000D03*
D14*
%TO.N,GND*%
X120974000Y-72347000D03*
%TD*%
D15*
%TO.N,/PH-*%
X94151600Y-45169000D03*
%TO.N,/PH+*%
X101771600Y-45169000D03*
%TO.N,GND*%
X115767000Y-60739200D03*
X117697400Y-55151200D03*
X117875200Y-75293400D03*
X117875200Y-80932200D03*
X115767000Y-75293400D03*
X115767000Y-80932200D03*
X116732200Y-78036600D03*
X117697400Y-60739200D03*
X115741600Y-57284800D03*
%TO.N,/SOLAR*%
X115233600Y-84640600D03*
X115233600Y-86418600D03*
X117773600Y-84640600D03*
X117773600Y-88196600D03*
X117773600Y-86418600D03*
X115233600Y-88196600D03*
%TO.N,/VCC_MAG*%
X103752800Y-83243600D03*
X99200000Y-66640000D03*
X96183600Y-49408000D03*
X99201000Y-65760000D03*
X115040000Y-82920000D03*
%TD*%
D16*
%TO.N,/VCC_MAG*%
X101400000Y-68840000D02*
X96119000Y-68840000D01*
X106681000Y-58231000D02*
X106681000Y-74073000D01*
X89521000Y-75391000D02*
X89521000Y-56473000D01*
X115040000Y-49920000D02*
X115040000Y-82920000D01*
X91720000Y-73191000D02*
X91720000Y-58673000D01*
X86879000Y-53831000D02*
X111080000Y-53831000D01*
X86000000Y-78911000D02*
X86000000Y-52953000D01*
X90399000Y-74512000D02*
X90399000Y-57352000D01*
X114159000Y-50753000D02*
X114159000Y-81553000D01*
X86879000Y-78032000D02*
X86879000Y-53831000D01*
X107999000Y-56912000D02*
X107999000Y-75391000D01*
X100080000Y-64880000D02*
X100080000Y-67520000D01*
X106239000Y-58673000D02*
X106239000Y-73631000D01*
X93480000Y-71431000D02*
X93480000Y-60433000D01*
X93038000Y-59991000D02*
X104921000Y-59991000D01*
X101840000Y-69280000D02*
X97879000Y-69280000D01*
X96560000Y-63560000D02*
X101400000Y-63560000D01*
X95680000Y-62680000D02*
X95680000Y-69280000D01*
X105360000Y-59551000D02*
X105360000Y-72752000D01*
X91281000Y-73631000D02*
X91281000Y-58231000D01*
X91720000Y-58673000D02*
X106239000Y-58673000D01*
X100080000Y-67520000D02*
X97440000Y-67520000D01*
X95680000Y-69280000D02*
X97879000Y-69280000D01*
X104921000Y-59991000D02*
X104921000Y-72312000D01*
X87760000Y-77151000D02*
X87760000Y-54713000D01*
X104479000Y-60433000D02*
X104479000Y-71873000D01*
X93480000Y-60433000D02*
X104479000Y-60433000D01*
X86439000Y-53392000D02*
X111519000Y-53392000D01*
X93920000Y-70992000D02*
X93920000Y-60872000D01*
X112840000Y-80232000D02*
X84679000Y-80232000D01*
X89078000Y-56031000D02*
X108880000Y-56031000D01*
X92160000Y-72752000D02*
X92160000Y-59112000D01*
X111080000Y-78472000D02*
X86439000Y-78472000D01*
X93920000Y-60872000D02*
X104039000Y-60872000D01*
X112401000Y-52511000D02*
X112401000Y-79793000D01*
X102720000Y-62240000D02*
X102720000Y-70160000D01*
X95240000Y-62240000D02*
X102720000Y-62240000D01*
X108438000Y-75833000D02*
X89078000Y-75833000D01*
X107560000Y-57352000D02*
X107560000Y-74951000D01*
X89960000Y-56912000D02*
X107999000Y-56912000D01*
X113280000Y-51632000D02*
X113280000Y-80672000D01*
X92160000Y-59112000D02*
X105799000Y-59112000D01*
X105360000Y-72752000D02*
X92160000Y-72752000D01*
X107999000Y-75391000D02*
X89521000Y-75391000D01*
X112401000Y-79793000D02*
X85119000Y-79793000D01*
X100959000Y-68400000D02*
X96560000Y-68400000D01*
X94359000Y-70552000D02*
X94359000Y-61312000D01*
X104039000Y-71431000D02*
X93480000Y-71431000D01*
X111959000Y-52953000D02*
X111959000Y-79351000D01*
X89521000Y-56473000D02*
X108438000Y-56473000D01*
X88639000Y-55592000D02*
X109320000Y-55592000D01*
X114600000Y-50311000D02*
X114600000Y-82041000D01*
X93038000Y-71873000D02*
X93038000Y-59991000D01*
X106681000Y-74073000D02*
X90839000Y-74073000D01*
X104479000Y-71873000D02*
X93038000Y-71873000D01*
X112840000Y-52071000D02*
X112840000Y-80232000D01*
X94799000Y-61751000D02*
X103160000Y-61751000D01*
X103600000Y-70992000D02*
X93920000Y-70992000D01*
X90839000Y-57791000D02*
X107120000Y-57791000D01*
X88639000Y-76272000D02*
X88639000Y-55592000D01*
X109320000Y-55592000D02*
X109320000Y-76712000D01*
X102720000Y-70160000D02*
X94800000Y-70160000D01*
X102279000Y-62680000D02*
X95680000Y-62680000D01*
X96119000Y-63120000D02*
X101840000Y-63120000D01*
X114159000Y-81553000D02*
X83358000Y-81553000D01*
X100520000Y-67960000D02*
X97000000Y-67960000D01*
X107560000Y-74951000D02*
X89960000Y-74951000D01*
X97879000Y-64880000D02*
X100080000Y-64880000D01*
X109759000Y-77151000D02*
X87760000Y-77151000D01*
X83358000Y-50311000D02*
X114600000Y-50311000D01*
X109759000Y-55152000D02*
X109759000Y-77151000D01*
X107120000Y-74512000D02*
X90399000Y-74512000D01*
X107120000Y-57791000D02*
X107120000Y-74512000D01*
X82920000Y-82041000D02*
X82920000Y-49920000D01*
X104039000Y-60872000D02*
X104039000Y-71431000D01*
X104921000Y-72312000D02*
X92599000Y-72312000D01*
X96119000Y-69720000D02*
X95240000Y-69720000D01*
X113280000Y-80672000D02*
X84240000Y-80672000D01*
X83800000Y-50753000D02*
X114159000Y-50753000D01*
X100959000Y-64000000D02*
X100959000Y-68400000D01*
X89078000Y-75833000D02*
X89078000Y-56031000D01*
X111519000Y-53392000D02*
X111519000Y-78911000D01*
X100520000Y-64440000D02*
X100520000Y-67960000D01*
X90399000Y-57352000D02*
X107560000Y-57352000D01*
X97440000Y-67520000D02*
X97440000Y-64440000D01*
X85119000Y-79793000D02*
X85119000Y-52071000D01*
X97440000Y-64440000D02*
X100520000Y-64440000D01*
X111080000Y-53831000D02*
X111080000Y-78472000D01*
X105799000Y-59112000D02*
X105799000Y-73191000D01*
X110199000Y-77591000D02*
X87321000Y-77591000D01*
X97879000Y-65760000D02*
X97879000Y-64880000D01*
X92599000Y-72312000D02*
X92599000Y-59551000D01*
X84240000Y-51192000D02*
X113719000Y-51192000D01*
X95240000Y-69720000D02*
X95240000Y-62240000D01*
X103160000Y-70552000D02*
X94359000Y-70552000D01*
X105799000Y-73191000D02*
X91720000Y-73191000D01*
X106239000Y-73631000D02*
X91281000Y-73631000D01*
X97000000Y-64000000D02*
X100959000Y-64000000D01*
X88200000Y-76712000D02*
X88200000Y-55152000D01*
X86439000Y-78472000D02*
X86439000Y-53392000D01*
X101840000Y-63120000D02*
X101840000Y-69280000D01*
X87321000Y-54271000D02*
X110641000Y-54271000D01*
X110641000Y-54271000D02*
X110641000Y-78032000D01*
X88200000Y-55152000D02*
X109759000Y-55152000D01*
X84679000Y-51632000D02*
X113280000Y-51632000D01*
X89960000Y-74951000D02*
X89960000Y-56912000D01*
X87321000Y-77591000D02*
X87321000Y-54271000D01*
X92599000Y-59551000D02*
X105360000Y-59551000D01*
X110641000Y-78032000D02*
X86879000Y-78032000D01*
X83800000Y-81111000D02*
X83800000Y-50753000D01*
X108438000Y-56473000D02*
X108438000Y-75833000D01*
X102279000Y-69720000D02*
X102279000Y-62680000D01*
X91281000Y-58231000D02*
X106681000Y-58231000D01*
X85119000Y-52071000D02*
X112840000Y-52071000D01*
X111519000Y-78911000D02*
X86000000Y-78911000D01*
X101400000Y-63560000D02*
X101400000Y-68840000D01*
X85561000Y-52511000D02*
X112401000Y-52511000D01*
X84240000Y-80672000D02*
X84240000Y-51192000D01*
X113719000Y-81111000D02*
X83800000Y-81111000D01*
X85561000Y-79351000D02*
X85561000Y-52511000D01*
X108880000Y-76272000D02*
X88639000Y-76272000D01*
X97000000Y-67960000D02*
X97000000Y-64000000D01*
X86000000Y-52953000D02*
X111959000Y-52953000D01*
X83358000Y-81553000D02*
X83358000Y-50311000D01*
X84679000Y-80232000D02*
X84679000Y-51632000D01*
X87760000Y-54713000D02*
X110199000Y-54713000D01*
X94359000Y-61312000D02*
X103600000Y-61312000D01*
X96560000Y-68400000D02*
X96560000Y-63560000D01*
X114600000Y-82041000D02*
X82920000Y-82041000D01*
X113719000Y-51192000D02*
X113719000Y-81111000D01*
X110199000Y-54713000D02*
X110199000Y-77591000D01*
X96119000Y-69720000D02*
X102279000Y-69720000D01*
X82920000Y-49920000D02*
X115040000Y-49920000D01*
X96119000Y-68840000D02*
X96119000Y-63120000D01*
X99201000Y-65760000D02*
X97880000Y-65760000D01*
X111959000Y-79351000D02*
X85561000Y-79351000D01*
X103600000Y-61312000D02*
X103600000Y-70992000D01*
X109320000Y-76712000D02*
X88200000Y-76712000D01*
X108880000Y-56031000D02*
X108880000Y-76272000D01*
X103160000Y-61751000D02*
X103160000Y-70552000D01*
X94800000Y-70160000D02*
X94799000Y-61751000D01*
X90839000Y-74073000D02*
X90839000Y-57791000D01*
%TD*%
M02*
