%TF.GenerationSoftware,KiCad,Pcbnew,7.0.10-7.0.10~ubuntu22.04.1*%
%TF.CreationDate,2024-06-11T12:31:40+02:00*%
%TF.ProjectId,PQ_Lat_Board,50515f4c-6174-45f4-926f-6172642e6b69,rev?*%
%TF.SameCoordinates,Original*%
%TF.FileFunction,Copper,L2,Inr*%
%TF.FilePolarity,Positive*%
%FSLAX46Y46*%
G04 Gerber Fmt 4.6, Leading zero omitted, Abs format (unit mm)*
G04 Created by KiCad (PCBNEW 7.0.10-7.0.10~ubuntu22.04.1) date 2024-06-11 12:31:40*
%MOMM*%
%LPD*%
G01*
G04 APERTURE LIST*
%TA.AperFunction,ComponentPad*%
%ADD10C,4.400000*%
%TD*%
%TA.AperFunction,ComponentPad*%
%ADD11C,3.500000*%
%TD*%
%TA.AperFunction,ComponentPad*%
%ADD12C,2.600000*%
%TD*%
%TA.AperFunction,ComponentPad*%
%ADD13C,1.600000*%
%TD*%
%TA.AperFunction,ComponentPad*%
%ADD14O,1.600000X1.600000*%
%TD*%
%TA.AperFunction,ViaPad*%
%ADD15C,0.610000*%
%TD*%
%TA.AperFunction,Conductor*%
%ADD16C,0.220000*%
%TD*%
%TA.AperFunction,Conductor*%
%ADD17C,0.200000*%
%TD*%
G04 APERTURE END LIST*
D10*
%TO.N,GND*%
%TO.C,H1*%
X81050000Y-46050000D03*
%TD*%
D11*
%TO.N,GND*%
%TO.C,H3*%
X121000000Y-87000000D03*
%TD*%
D10*
%TO.N,GND*%
%TO.C,H4*%
X79000000Y-84000000D03*
%TD*%
%TO.N,GND*%
%TO.C,H2*%
X119000000Y-46000000D03*
%TD*%
D12*
%TO.N,/Antenna Connector*%
%TO.C,H5*%
X78505200Y-66022400D03*
%TD*%
D13*
%TO.N,/BURNCOMMS*%
%TO.C,THT1*%
X120974000Y-59647000D03*
D14*
%TO.N,GND*%
X120974000Y-72347000D03*
%TD*%
D15*
%TO.N,/PH-*%
X94151600Y-45169000D03*
%TO.N,/PH+*%
X101771600Y-45169000D03*
%TO.N,GND*%
X115767000Y-60739200D03*
X117697400Y-55151200D03*
X117875200Y-75293400D03*
X117875200Y-80932200D03*
X115767000Y-75293400D03*
X115767000Y-80932200D03*
X116732200Y-78036600D03*
X117697400Y-60739200D03*
X115741600Y-57284800D03*
%TO.N,/SOLAR*%
X115233600Y-84640600D03*
X115233600Y-86418600D03*
X117773600Y-84640600D03*
X117773600Y-88196600D03*
X117773600Y-86418600D03*
X115233600Y-88196600D03*
%TO.N,/VCC_MAG*%
X103752800Y-83243600D03*
X99200000Y-66640000D03*
X96183600Y-49408000D03*
X99201000Y-65760000D03*
X115040000Y-82920000D03*
%TD*%
D16*
%TO.N,/VCC_MAG*%
X114601000Y-81598000D02*
X83788000Y-81598000D01*
X88208000Y-55207000D02*
X109759000Y-55207000D01*
X88639000Y-55639000D02*
X109320000Y-55639000D01*
X87750000Y-77638000D02*
X87750000Y-54750000D01*
X97440000Y-67958000D02*
X97440000Y-64440000D01*
D17*
X103752800Y-83243600D02*
X83679007Y-83243600D01*
D16*
X107560000Y-74560000D02*
X90849000Y-74560000D01*
X93034000Y-72352000D02*
X93034000Y-60033000D01*
X89960000Y-75451000D02*
X89960000Y-56960000D01*
X92160000Y-73241000D02*
X92160000Y-59159000D01*
X115040000Y-82030000D02*
X83356000Y-82030000D01*
X105360000Y-72352000D02*
X93034000Y-72352000D01*
X111959000Y-53000000D02*
X111959000Y-78956000D01*
X86000000Y-79388000D02*
X86000000Y-53000000D01*
X96998000Y-68400000D02*
X96998000Y-63996000D01*
X100519000Y-67526000D02*
X97880000Y-67526000D01*
X91713000Y-73673000D02*
X91713000Y-58712000D01*
X104479000Y-60490000D02*
X104479000Y-71478000D01*
X113719000Y-51240000D02*
X113719000Y-80719000D01*
X109320000Y-76320000D02*
X89071000Y-76320000D01*
X111080000Y-53879000D02*
X111080000Y-78067000D01*
X101400000Y-68400000D02*
X96998000Y-68400000D01*
X113280000Y-80280000D02*
X85109000Y-80280000D01*
X105360000Y-59601000D02*
X105360000Y-72352000D01*
X102279000Y-69279000D02*
X96120000Y-69279000D01*
X111520000Y-78524000D02*
X86879000Y-78524000D01*
X90849000Y-74560000D02*
X90849000Y-57849000D01*
X89528000Y-56528000D02*
X108439000Y-56528000D01*
X110199000Y-77199000D02*
X88208000Y-77199000D01*
X107999000Y-56960000D02*
X107999000Y-74994000D01*
X112840000Y-79845000D02*
X85566000Y-79845000D01*
X103161000Y-70160000D02*
X95241000Y-70160000D01*
X94359000Y-61354000D02*
X103600000Y-61354000D01*
X95680000Y-62680000D02*
X102279000Y-62680000D01*
X85109000Y-80280000D02*
X85109000Y-52108000D01*
X82924000Y-49924000D02*
X115040000Y-49924000D01*
X106239000Y-73241000D02*
X92160000Y-73241000D01*
X109759000Y-76772000D02*
X88639000Y-76772000D01*
X86430000Y-53429000D02*
X111520000Y-53429000D01*
X96559000Y-63559000D02*
X101400000Y-63559000D01*
X93034000Y-60033000D02*
X104921000Y-60033000D01*
X109759000Y-55207000D02*
X109759000Y-76772000D01*
X87750000Y-54750000D02*
X110199000Y-54750000D01*
X114601000Y-50356000D02*
X114601000Y-81598000D01*
X105800000Y-72809000D02*
X92602000Y-72809000D01*
X110638000Y-77638000D02*
X87750000Y-77638000D01*
X93923000Y-60922000D02*
X104039000Y-60922000D01*
X86879000Y-78524000D02*
X86879000Y-53879000D01*
X106678000Y-73673000D02*
X91713000Y-73673000D01*
X101400000Y-63559000D02*
X101400000Y-68400000D01*
X85566000Y-79845000D02*
X85566000Y-52566000D01*
X91281000Y-74130000D02*
X91281000Y-58281000D01*
X88208000Y-77199000D02*
X88208000Y-55207000D01*
X104921000Y-60033000D02*
X104921000Y-71920000D01*
X97880000Y-67526000D02*
X97880000Y-64880000D01*
X86879000Y-53879000D02*
X111080000Y-53879000D01*
X102279000Y-62680000D02*
X102279000Y-69279000D01*
X100519000Y-64440000D02*
X100519000Y-67526000D01*
X89071000Y-56071000D02*
X108881000Y-56071000D01*
X82917005Y-82481598D02*
X82924000Y-82474603D01*
X84677000Y-80719000D02*
X84677000Y-51677000D01*
X82924000Y-82474603D02*
X82924000Y-49924000D01*
X103600000Y-70600000D02*
X94799000Y-70600000D01*
X83356000Y-82030000D02*
X83356000Y-50356000D01*
X107120000Y-57849000D02*
X107120000Y-74130000D01*
X97440000Y-64440000D02*
X100519000Y-64440000D01*
X112398000Y-52566000D02*
X112398000Y-79388000D01*
X110638000Y-54318000D02*
X110638000Y-77638000D01*
X84240000Y-81166000D02*
X84240000Y-51240000D01*
X95680000Y-69718000D02*
X95680000Y-62680000D01*
X90400000Y-74994000D02*
X90400000Y-57399000D01*
X108881000Y-75883000D02*
X89528000Y-75883000D01*
X111959000Y-78956000D02*
X86430000Y-78956000D01*
X84677000Y-51677000D02*
X113280000Y-51677000D01*
X104479000Y-71478000D02*
X93923000Y-71478000D01*
X101840000Y-63119000D02*
X101840000Y-68839000D01*
X102719000Y-62241000D02*
X102719000Y-69718000D01*
X95241000Y-70160000D02*
X95241000Y-62241000D01*
X86000000Y-53000000D02*
X111959000Y-53000000D01*
X105800000Y-59159000D02*
X105800000Y-72809000D01*
X83788000Y-81598000D02*
X83788000Y-50788000D01*
X109320000Y-55639000D02*
X109320000Y-76320000D01*
X108439000Y-56528000D02*
X108439000Y-75451000D01*
X108439000Y-75451000D02*
X89960000Y-75451000D01*
X104921000Y-71920000D02*
X93491000Y-71920000D01*
X96559000Y-68839000D02*
X96559000Y-63559000D01*
X99201000Y-64880000D02*
X99201000Y-65761000D01*
X85109000Y-52108000D02*
X112840000Y-52108000D01*
X92602000Y-72809000D02*
X92602000Y-59601000D01*
X90400000Y-57399000D02*
X107560000Y-57399000D01*
X110199000Y-54750000D02*
X110199000Y-77199000D01*
X87319000Y-78067000D02*
X87319000Y-54318000D01*
D17*
X83679007Y-83243600D02*
X82917005Y-82481598D01*
D16*
X84240000Y-51240000D02*
X113719000Y-51240000D01*
X93923000Y-71478000D02*
X93923000Y-60922000D01*
X107120000Y-74130000D02*
X91281000Y-74130000D01*
X112840000Y-52108000D02*
X112840000Y-79845000D01*
X95241000Y-62241000D02*
X102719000Y-62241000D01*
X83356000Y-50356000D02*
X114601000Y-50356000D01*
X101840000Y-68839000D02*
X96559000Y-68839000D01*
X97880000Y-64880000D02*
X99201000Y-64880000D01*
X106678000Y-58281000D02*
X106678000Y-73673000D01*
X94799000Y-61786000D02*
X103161000Y-61786000D01*
X113280000Y-51677000D02*
X113280000Y-80280000D01*
X87319000Y-54318000D02*
X110638000Y-54318000D01*
X89071000Y-76320000D02*
X89071000Y-56071000D01*
X92160000Y-59159000D02*
X105800000Y-59159000D01*
X100958000Y-63996000D02*
X100958000Y-67958000D01*
X91281000Y-58281000D02*
X106678000Y-58281000D01*
X93491000Y-60490000D02*
X104479000Y-60490000D01*
X94359000Y-71031000D02*
X94359000Y-61354000D01*
X89960000Y-56960000D02*
X107999000Y-56960000D01*
X115040000Y-49924000D02*
X115040000Y-82030000D01*
X108881000Y-56071000D02*
X108881000Y-75883000D01*
X114159000Y-50788000D02*
X114159000Y-81166000D01*
X102719000Y-69718000D02*
X95680000Y-69718000D01*
X113719000Y-80719000D02*
X84677000Y-80719000D01*
X106239000Y-58712000D02*
X106239000Y-73241000D01*
X112398000Y-79388000D02*
X86000000Y-79388000D01*
X83788000Y-50788000D02*
X114159000Y-50788000D01*
X103600000Y-61354000D02*
X103600000Y-70600000D01*
X90849000Y-57849000D02*
X107120000Y-57849000D01*
X85566000Y-52566000D02*
X112398000Y-52566000D01*
X103161000Y-61786000D02*
X103161000Y-70160000D01*
X100958000Y-67958000D02*
X97440000Y-67958000D01*
X107999000Y-74994000D02*
X90400000Y-74994000D01*
X92602000Y-59601000D02*
X105360000Y-59601000D01*
X86430000Y-78956000D02*
X86430000Y-53429000D01*
X111520000Y-53429000D02*
X111520000Y-78524000D01*
X94799000Y-70600000D02*
X94799000Y-61786000D01*
X104039000Y-60922000D02*
X104039000Y-71031000D01*
X96120000Y-63119000D02*
X101840000Y-63119000D01*
X114159000Y-81166000D02*
X84240000Y-81166000D01*
X96998000Y-63996000D02*
X100958000Y-63996000D01*
X107560000Y-57399000D02*
X107560000Y-74560000D01*
X104039000Y-71031000D02*
X94359000Y-71031000D01*
X96120000Y-69279000D02*
X96120000Y-63119000D01*
X88639000Y-76772000D02*
X88639000Y-55639000D01*
X93491000Y-71920000D02*
X93491000Y-60490000D01*
X91713000Y-58712000D02*
X106239000Y-58712000D01*
X89528000Y-75883000D02*
X89528000Y-56528000D01*
X111080000Y-78067000D02*
X87319000Y-78067000D01*
%TD*%
M02*
