<?xml version="1.0" standalone="no"?>
 <!DOCTYPE svg PUBLIC "-//W3C//DTD SVG 1.1//EN" 
 "http://www.w3.org/Graphics/SVG/1.1/DTD/svg11.dtd"> 
<svg
  xmlns:svg="http://www.w3.org/2000/svg"
  xmlns="http://www.w3.org/2000/svg"
  xmlns:xlink="http://www.w3.org/1999/xlink"
  version="1.1"
  width="210.007200mm" height="148.005800mm" viewBox="0.000000 0.000000 210.007200 148.005800">
<title>SVG Image created as PQ_Lat_Board-F_Silkscreen.svg date 2024/01/09 12:01:46 </title>
  <desc>Image generated by PCBNEW </desc>
<g style="fill:#000000; fill-opacity:1.000000;stroke:#000000; stroke-opacity:1.000000;
stroke-linecap:round; stroke-linejoin:round;"
 transform="translate(0 0) scale(1 1)">
</g>
<g style="fill:#000000; fill-opacity:0.0; 
stroke:#000000; stroke-width:0.000000; stroke-opacity:1; 
stroke-linecap:round; stroke-linejoin:round;">
</g>
<g style="fill:#000000; fill-opacity:0.0; 
stroke:#000000; stroke-width:0.150000; stroke-opacity:1; 
stroke-linecap:round; stroke-linejoin:round;">
<text x="89.200000" y="87.275000"
textLength="17.650000" font-size="2.000000" lengthAdjust="spacingAndGlyphs"
text-anchor="start" opacity="0">LATERAL BOARD</text>
<g class="stroked-text"><desc>LATERAL BOARD</desc>
<path d="M90.370112 87.211128
L89.655826 87.211128
" />
<path d="M89.655826 87.211128
L89.655826 85.711128
" />
<path d="M90.798684 86.782557
L91.512970 86.782557
" />
<path d="M90.655827 87.211128
L91.155827 85.711128
" />
<path d="M91.155827 85.711128
L91.655827 87.211128
" />
<path d="M91.941541 85.711128
L92.798684 85.711128
" />
<path d="M92.370112 87.211128
L92.370112 85.711128
" />
<path d="M93.298683 86.425414
L93.798683 86.425414
" />
<path d="M94.012969 87.211128
L93.298683 87.211128
" />
<path d="M93.298683 87.211128
L93.298683 85.711128
" />
<path d="M93.298683 85.711128
L94.012969 85.711128
" />
<path d="M95.512969 87.211128
L95.012969 86.496842
" />
<path d="M94.655826 87.211128
L94.655826 85.711128
" />
<path d="M94.655826 85.711128
L95.227255 85.711128
" />
<path d="M95.227255 85.711128
L95.370112 85.782557
" />
<path d="M95.370112 85.782557
L95.441541 85.853985
" />
<path d="M95.441541 85.853985
L95.512969 85.996842
" />
<path d="M95.512969 85.996842
L95.512969 86.211128
" />
<path d="M95.512969 86.211128
L95.441541 86.353985
" />
<path d="M95.441541 86.353985
L95.370112 86.425414
" />
<path d="M95.370112 86.425414
L95.227255 86.496842
" />
<path d="M95.227255 86.496842
L94.655826 86.496842
" />
<path d="M96.084398 86.782557
L96.798684 86.782557
" />
<path d="M95.941541 87.211128
L96.441541 85.711128
" />
<path d="M96.441541 85.711128
L96.941541 87.211128
" />
<path d="M98.155826 87.211128
L97.441540 87.211128
" />
<path d="M97.441540 87.211128
L97.441540 85.711128
" />
<path d="M100.298683 86.425414
L100.512969 86.496842
" />
<path d="M100.512969 86.496842
L100.584398 86.568271
" />
<path d="M100.584398 86.568271
L100.655826 86.711128
" />
<path d="M100.655826 86.711128
L100.655826 86.925414
" />
<path d="M100.655826 86.925414
L100.584398 87.068271
" />
<path d="M100.584398 87.068271
L100.512969 87.139700
" />
<path d="M100.512969 87.139700
L100.370112 87.211128
" />
<path d="M100.370112 87.211128
L99.798683 87.211128
" />
<path d="M99.798683 87.211128
L99.798683 85.711128
" />
<path d="M99.798683 85.711128
L100.298683 85.711128
" />
<path d="M100.298683 85.711128
L100.441541 85.782557
" />
<path d="M100.441541 85.782557
L100.512969 85.853985
" />
<path d="M100.512969 85.853985
L100.584398 85.996842
" />
<path d="M100.584398 85.996842
L100.584398 86.139700
" />
<path d="M100.584398 86.139700
L100.512969 86.282557
" />
<path d="M100.512969 86.282557
L100.441541 86.353985
" />
<path d="M100.441541 86.353985
L100.298683 86.425414
" />
<path d="M100.298683 86.425414
L99.798683 86.425414
" />
<path d="M101.584398 85.711128
L101.870112 85.711128
" />
<path d="M101.870112 85.711128
L102.012969 85.782557
" />
<path d="M102.012969 85.782557
L102.155826 85.925414
" />
<path d="M102.155826 85.925414
L102.227255 86.211128
" />
<path d="M102.227255 86.211128
L102.227255 86.711128
" />
<path d="M102.227255 86.711128
L102.155826 86.996842
" />
<path d="M102.155826 86.996842
L102.012969 87.139700
" />
<path d="M102.012969 87.139700
L101.870112 87.211128
" />
<path d="M101.870112 87.211128
L101.584398 87.211128
" />
<path d="M101.584398 87.211128
L101.441541 87.139700
" />
<path d="M101.441541 87.139700
L101.298683 86.996842
" />
<path d="M101.298683 86.996842
L101.227255 86.711128
" />
<path d="M101.227255 86.711128
L101.227255 86.211128
" />
<path d="M101.227255 86.211128
L101.298683 85.925414
" />
<path d="M101.298683 85.925414
L101.441541 85.782557
" />
<path d="M101.441541 85.782557
L101.584398 85.711128
" />
<path d="M102.798684 86.782557
L103.512970 86.782557
" />
<path d="M102.655827 87.211128
L103.155827 85.711128
" />
<path d="M103.155827 85.711128
L103.655827 87.211128
" />
<path d="M105.012969 87.211128
L104.512969 86.496842
" />
<path d="M104.155826 87.211128
L104.155826 85.711128
" />
<path d="M104.155826 85.711128
L104.727255 85.711128
" />
<path d="M104.727255 85.711128
L104.870112 85.782557
" />
<path d="M104.870112 85.782557
L104.941541 85.853985
" />
<path d="M104.941541 85.853985
L105.012969 85.996842
" />
<path d="M105.012969 85.996842
L105.012969 86.211128
" />
<path d="M105.012969 86.211128
L104.941541 86.353985
" />
<path d="M104.941541 86.353985
L104.870112 86.425414
" />
<path d="M104.870112 86.425414
L104.727255 86.496842
" />
<path d="M104.727255 86.496842
L104.155826 86.496842
" />
<path d="M105.655826 87.211128
L105.655826 85.711128
" />
<path d="M105.655826 85.711128
L106.012969 85.711128
" />
<path d="M106.012969 85.711128
L106.227255 85.782557
" />
<path d="M106.227255 85.782557
L106.370112 85.925414
" />
<path d="M106.370112 85.925414
L106.441541 86.068271
" />
<path d="M106.441541 86.068271
L106.512969 86.353985
" />
<path d="M106.512969 86.353985
L106.512969 86.568271
" />
<path d="M106.512969 86.568271
L106.441541 86.853985
" />
<path d="M106.441541 86.853985
L106.370112 86.996842
" />
<path d="M106.370112 86.996842
L106.227255 87.139700
" />
<path d="M106.227255 87.139700
L106.012969 87.211128
" />
<path d="M106.012969 87.211128
L105.655826 87.211128
" />
</g></g>
<g style="fill:#000000; fill-opacity:0.0; 
stroke:#000000; stroke-width:0.100000; stroke-opacity:1; 
stroke-linecap:round; stroke-linejoin:round;">
<text x="111.900000" y="57.992800"
textLength="1.343809" font-size="0.533333" lengthAdjust="spacingAndGlyphs"
text-anchor="middle" opacity="0">GA2</text>
<g class="stroked-text"><desc>GA2</desc>
<path d="M111.642857 57.591695
L111.604762 57.572647
" />
<path d="M111.604762 57.572647
L111.547619 57.572647
" />
<path d="M111.547619 57.572647
L111.490476 57.591695
" />
<path d="M111.490476 57.591695
L111.452381 57.629790
" />
<path d="M111.452381 57.629790
L111.433334 57.667885
" />
<path d="M111.433334 57.667885
L111.414286 57.744076
" />
<path d="M111.414286 57.744076
L111.414286 57.801219
" />
<path d="M111.414286 57.801219
L111.433334 57.877409
" />
<path d="M111.433334 57.877409
L111.452381 57.915504
" />
<path d="M111.452381 57.915504
L111.490476 57.953600
" />
<path d="M111.490476 57.953600
L111.547619 57.972647
" />
<path d="M111.547619 57.972647
L111.585715 57.972647
" />
<path d="M111.585715 57.972647
L111.642857 57.953600
" />
<path d="M111.642857 57.953600
L111.661905 57.934552
" />
<path d="M111.661905 57.934552
L111.661905 57.801219
" />
<path d="M111.661905 57.801219
L111.585715 57.801219
" />
<path d="M111.814286 57.858361
L112.004762 57.858361
" />
<path d="M111.776191 57.972647
L111.909524 57.572647
" />
<path d="M111.909524 57.572647
L112.042857 57.972647
" />
<path d="M112.157143 57.610742
L112.176191 57.591695
" />
<path d="M112.176191 57.591695
L112.214286 57.572647
" />
<path d="M112.214286 57.572647
L112.309524 57.572647
" />
<path d="M112.309524 57.572647
L112.347619 57.591695
" />
<path d="M112.347619 57.591695
L112.366667 57.610742
" />
<path d="M112.366667 57.610742
L112.385714 57.648838
" />
<path d="M112.385714 57.648838
L112.385714 57.686933
" />
<path d="M112.385714 57.686933
L112.366667 57.744076
" />
<path d="M112.366667 57.744076
L112.138095 57.972647
" />
<path d="M112.138095 57.972647
L112.385714 57.972647
" />
</g><text x="109.671000" y="49.052000"
textLength="1.286666" font-size="0.533333" lengthAdjust="spacingAndGlyphs"
text-anchor="middle" opacity="0">VA1</text>
<g class="stroked-text"><desc>VA1</desc>
<path d="M109.175762 48.631847
L109.309095 49.031847
" />
<path d="M109.309095 49.031847
L109.442428 48.631847
" />
<path d="M109.556714 48.917561
L109.747190 48.917561
" />
<path d="M109.518619 49.031847
L109.651952 48.631847
" />
<path d="M109.651952 48.631847
L109.785285 49.031847
" />
<path d="M110.128142 49.031847
L109.899571 49.031847
" />
<path d="M110.013857 49.031847
L110.013857 48.631847
" />
<path d="M110.013857 48.631847
L109.975761 48.688990
" />
<path d="M109.975761 48.688990
L109.937666 48.727085
" />
<path d="M109.937666 48.727085
L109.899571 48.746133
" />
</g><text x="107.664400" y="66.679600"
textLength="0.905714" font-size="0.533333" lengthAdjust="spacingAndGlyphs"
text-anchor="middle" opacity="0">J1</text>
<g class="stroked-text"><desc>J1</desc>
<path d="M107.531066 66.259447
L107.531066 66.545161
" />
<path d="M107.531066 66.545161
L107.512019 66.602304
" />
<path d="M107.512019 66.602304
L107.473923 66.640400
" />
<path d="M107.473923 66.640400
L107.416781 66.659447
" />
<path d="M107.416781 66.659447
L107.378685 66.659447
" />
<path d="M107.931066 66.659447
L107.702495 66.659447
" />
<path d="M107.816781 66.659447
L107.816781 66.259447
" />
<path d="M107.816781 66.259447
L107.778685 66.316590
" />
<path d="M107.778685 66.316590
L107.740590 66.354685
" />
<path d="M107.740590 66.354685
L107.702495 66.373733
" />
</g><text x="95.116800" y="51.084000"
textLength="1.324762" font-size="0.533333" lengthAdjust="spacingAndGlyphs"
text-anchor="middle" opacity="0">NT1</text>
<g class="stroked-text"><desc>NT1</desc>
<path d="M94.659657 51.063847
L94.659657 50.663847
" />
<path d="M94.659657 50.663847
L94.888228 51.063847
" />
<path d="M94.888228 51.063847
L94.888228 50.663847
" />
<path d="M95.021562 50.663847
L95.250133 50.663847
" />
<path d="M95.135847 51.063847
L95.135847 50.663847
" />
<path d="M95.592990 51.063847
L95.364419 51.063847
" />
<path d="M95.478705 51.063847
L95.478705 50.663847
" />
<path d="M95.478705 50.663847
L95.440609 50.720990
" />
<path d="M95.440609 50.720990
L95.402514 50.759085
" />
<path d="M95.402514 50.759085
L95.364419 50.778133
" />
</g><text x="112.000000" y="49.052000"
textLength="1.286666" font-size="0.533333" lengthAdjust="spacingAndGlyphs"
text-anchor="middle" opacity="0">VA2</text>
<g class="stroked-text"><desc>VA2</desc>
<path d="M111.504762 48.631847
L111.638095 49.031847
" />
<path d="M111.638095 49.031847
L111.771428 48.631847
" />
<path d="M111.885714 48.917561
L112.076190 48.917561
" />
<path d="M111.847619 49.031847
L111.980952 48.631847
" />
<path d="M111.980952 48.631847
L112.114285 49.031847
" />
<path d="M112.228571 48.669942
L112.247619 48.650895
" />
<path d="M112.247619 48.650895
L112.285714 48.631847
" />
<path d="M112.285714 48.631847
L112.380952 48.631847
" />
<path d="M112.380952 48.631847
L112.419047 48.650895
" />
<path d="M112.419047 48.650895
L112.438095 48.669942
" />
<path d="M112.438095 48.669942
L112.457142 48.708038
" />
<path d="M112.457142 48.708038
L112.457142 48.746133
" />
<path d="M112.457142 48.746133
L112.438095 48.803276
" />
<path d="M112.438095 48.803276
L112.209523 49.031847
" />
<path d="M112.209523 49.031847
L112.457142 49.031847
" />
</g><text x="100.273000" y="53.624000"
textLength="1.191428" font-size="0.533333" lengthAdjust="spacingAndGlyphs"
text-anchor="middle" opacity="0">IC1</text>
<g class="stroked-text"><desc>IC1</desc>
<path d="M99.882524 53.603847
L99.882524 53.203847
" />
<path d="M100.301571 53.565752
L100.282523 53.584800
" />
<path d="M100.282523 53.584800
L100.225381 53.603847
" />
<path d="M100.225381 53.603847
L100.187285 53.603847
" />
<path d="M100.187285 53.603847
L100.130142 53.584800
" />
<path d="M100.130142 53.584800
L100.092047 53.546704
" />
<path d="M100.092047 53.546704
L100.073000 53.508609
" />
<path d="M100.073000 53.508609
L100.053952 53.432419
" />
<path d="M100.053952 53.432419
L100.053952 53.375276
" />
<path d="M100.053952 53.375276
L100.073000 53.299085
" />
<path d="M100.073000 53.299085
L100.092047 53.260990
" />
<path d="M100.092047 53.260990
L100.130142 53.222895
" />
<path d="M100.130142 53.222895
L100.187285 53.203847
" />
<path d="M100.187285 53.203847
L100.225381 53.203847
" />
<path d="M100.225381 53.203847
L100.282523 53.222895
" />
<path d="M100.282523 53.222895
L100.301571 53.241942
" />
<path d="M100.682523 53.603847
L100.453952 53.603847
" />
<path d="M100.568238 53.603847
L100.568238 53.203847
" />
<path d="M100.568238 53.203847
L100.530142 53.260990
" />
<path d="M100.530142 53.260990
L100.492047 53.299085
" />
<path d="M100.492047 53.299085
L100.453952 53.318133
" />
</g><text x="107.384000" y="49.052000"
textLength="1.286666" font-size="0.533333" lengthAdjust="spacingAndGlyphs"
text-anchor="middle" opacity="0">VA0</text>
<g class="stroked-text"><desc>VA0</desc>
<path d="M106.888762 48.631847
L107.022095 49.031847
" />
<path d="M107.022095 49.031847
L107.155428 48.631847
" />
<path d="M107.269714 48.917561
L107.460190 48.917561
" />
<path d="M107.231619 49.031847
L107.364952 48.631847
" />
<path d="M107.364952 48.631847
L107.498285 49.031847
" />
<path d="M107.707809 48.631847
L107.745904 48.631847
" />
<path d="M107.745904 48.631847
L107.784000 48.650895
" />
<path d="M107.784000 48.650895
L107.803047 48.669942
" />
<path d="M107.803047 48.669942
L107.822095 48.708038
" />
<path d="M107.822095 48.708038
L107.841142 48.784228
" />
<path d="M107.841142 48.784228
L107.841142 48.879466
" />
<path d="M107.841142 48.879466
L107.822095 48.955657
" />
<path d="M107.822095 48.955657
L107.803047 48.993752
" />
<path d="M107.803047 48.993752
L107.784000 49.012800
" />
<path d="M107.784000 49.012800
L107.745904 49.031847
" />
<path d="M107.745904 49.031847
L107.707809 49.031847
" />
<path d="M107.707809 49.031847
L107.669714 49.012800
" />
<path d="M107.669714 49.012800
L107.650666 48.993752
" />
<path d="M107.650666 48.993752
L107.631619 48.955657
" />
<path d="M107.631619 48.955657
L107.612571 48.879466
" />
<path d="M107.612571 48.879466
L107.612571 48.784228
" />
<path d="M107.612571 48.784228
L107.631619 48.708038
" />
<path d="M107.631619 48.708038
L107.650666 48.669942
" />
<path d="M107.650666 48.669942
L107.669714 48.650895
" />
<path d="M107.669714 48.650895
L107.707809 48.631847
" />
</g><text x="99.942800" y="50.068000"
textLength="1.000952" font-size="0.533333" lengthAdjust="spacingAndGlyphs"
text-anchor="middle" opacity="0">C1</text>
<g class="stroked-text"><desc>C1</desc>
<path d="M99.876133 50.009752
L99.857085 50.028800
" />
<path d="M99.857085 50.028800
L99.799943 50.047847
" />
<path d="M99.799943 50.047847
L99.761847 50.047847
" />
<path d="M99.761847 50.047847
L99.704704 50.028800
" />
<path d="M99.704704 50.028800
L99.666609 49.990704
" />
<path d="M99.666609 49.990704
L99.647562 49.952609
" />
<path d="M99.647562 49.952609
L99.628514 49.876419
" />
<path d="M99.628514 49.876419
L99.628514 49.819276
" />
<path d="M99.628514 49.819276
L99.647562 49.743085
" />
<path d="M99.647562 49.743085
L99.666609 49.704990
" />
<path d="M99.666609 49.704990
L99.704704 49.666895
" />
<path d="M99.704704 49.666895
L99.761847 49.647847
" />
<path d="M99.761847 49.647847
L99.799943 49.647847
" />
<path d="M99.799943 49.647847
L99.857085 49.666895
" />
<path d="M99.857085 49.666895
L99.876133 49.685942
" />
<path d="M100.257085 50.047847
L100.028514 50.047847
" />
<path d="M100.142800 50.047847
L100.142800 49.647847
" />
<path d="M100.142800 49.647847
L100.104704 49.704990
" />
<path d="M100.104704 49.704990
L100.066609 49.743085
" />
<path d="M100.066609 49.743085
L100.028514 49.762133
" />
</g><text x="107.410400" y="57.891200"
textLength="1.343809" font-size="0.533333" lengthAdjust="spacingAndGlyphs"
text-anchor="middle" opacity="0">GA0</text>
<g class="stroked-text"><desc>GA0</desc>
<path d="M107.153257 57.490095
L107.115162 57.471047
" />
<path d="M107.115162 57.471047
L107.058019 57.471047
" />
<path d="M107.058019 57.471047
L107.000876 57.490095
" />
<path d="M107.000876 57.490095
L106.962781 57.528190
" />
<path d="M106.962781 57.528190
L106.943734 57.566285
" />
<path d="M106.943734 57.566285
L106.924686 57.642476
" />
<path d="M106.924686 57.642476
L106.924686 57.699619
" />
<path d="M106.924686 57.699619
L106.943734 57.775809
" />
<path d="M106.943734 57.775809
L106.962781 57.813904
" />
<path d="M106.962781 57.813904
L107.000876 57.852000
" />
<path d="M107.000876 57.852000
L107.058019 57.871047
" />
<path d="M107.058019 57.871047
L107.096115 57.871047
" />
<path d="M107.096115 57.871047
L107.153257 57.852000
" />
<path d="M107.153257 57.852000
L107.172305 57.832952
" />
<path d="M107.172305 57.832952
L107.172305 57.699619
" />
<path d="M107.172305 57.699619
L107.096115 57.699619
" />
<path d="M107.324686 57.756761
L107.515162 57.756761
" />
<path d="M107.286591 57.871047
L107.419924 57.471047
" />
<path d="M107.419924 57.471047
L107.553257 57.871047
" />
<path d="M107.762781 57.471047
L107.800876 57.471047
" />
<path d="M107.800876 57.471047
L107.838972 57.490095
" />
<path d="M107.838972 57.490095
L107.858019 57.509142
" />
<path d="M107.858019 57.509142
L107.877067 57.547238
" />
<path d="M107.877067 57.547238
L107.896114 57.623428
" />
<path d="M107.896114 57.623428
L107.896114 57.718666
" />
<path d="M107.896114 57.718666
L107.877067 57.794857
" />
<path d="M107.877067 57.794857
L107.858019 57.832952
" />
<path d="M107.858019 57.832952
L107.838972 57.852000
" />
<path d="M107.838972 57.852000
L107.800876 57.871047
" />
<path d="M107.800876 57.871047
L107.762781 57.871047
" />
<path d="M107.762781 57.871047
L107.724686 57.852000
" />
<path d="M107.724686 57.852000
L107.705638 57.832952
" />
<path d="M107.705638 57.832952
L107.686591 57.794857
" />
<path d="M107.686591 57.794857
L107.667543 57.718666
" />
<path d="M107.667543 57.718666
L107.667543 57.623428
" />
<path d="M107.667543 57.623428
L107.686591 57.547238
" />
<path d="M107.686591 57.547238
L107.705638 57.509142
" />
<path d="M107.705638 57.509142
L107.724686 57.490095
" />
<path d="M107.724686 57.490095
L107.762781 57.471047
" />
</g><text x="109.600000" y="57.992800"
textLength="1.343809" font-size="0.533333" lengthAdjust="spacingAndGlyphs"
text-anchor="middle" opacity="0">GA1</text>
<g class="stroked-text"><desc>GA1</desc>
<path d="M109.342857 57.591695
L109.304762 57.572647
" />
<path d="M109.304762 57.572647
L109.247619 57.572647
" />
<path d="M109.247619 57.572647
L109.190476 57.591695
" />
<path d="M109.190476 57.591695
L109.152381 57.629790
" />
<path d="M109.152381 57.629790
L109.133334 57.667885
" />
<path d="M109.133334 57.667885
L109.114286 57.744076
" />
<path d="M109.114286 57.744076
L109.114286 57.801219
" />
<path d="M109.114286 57.801219
L109.133334 57.877409
" />
<path d="M109.133334 57.877409
L109.152381 57.915504
" />
<path d="M109.152381 57.915504
L109.190476 57.953600
" />
<path d="M109.190476 57.953600
L109.247619 57.972647
" />
<path d="M109.247619 57.972647
L109.285715 57.972647
" />
<path d="M109.285715 57.972647
L109.342857 57.953600
" />
<path d="M109.342857 57.953600
L109.361905 57.934552
" />
<path d="M109.361905 57.934552
L109.361905 57.801219
" />
<path d="M109.361905 57.801219
L109.285715 57.801219
" />
<path d="M109.514286 57.858361
L109.704762 57.858361
" />
<path d="M109.476191 57.972647
L109.609524 57.572647
" />
<path d="M109.609524 57.572647
L109.742857 57.972647
" />
<path d="M110.085714 57.972647
L109.857143 57.972647
" />
<path d="M109.971429 57.972647
L109.971429 57.572647
" />
<path d="M109.971429 57.572647
L109.933333 57.629790
" />
<path d="M109.933333 57.629790
L109.895238 57.667885
" />
<path d="M109.895238 57.667885
L109.857143 57.686933
" />
</g><text x="78.505200" y="63.322400"
textLength="1.020000" font-size="0.533333" lengthAdjust="spacingAndGlyphs"
text-anchor="middle" opacity="0">H5</text>
<g class="stroked-text"><desc>H5</desc>
<path d="M78.200438 63.302247
L78.200438 62.902247
" />
<path d="M78.200438 63.092723
L78.429009 63.092723
" />
<path d="M78.429009 63.302247
L78.429009 62.902247
" />
<path d="M78.809962 62.902247
L78.619486 62.902247
" />
<path d="M78.619486 62.902247
L78.600438 63.092723
" />
<path d="M78.600438 63.092723
L78.619486 63.073676
" />
<path d="M78.619486 63.073676
L78.657581 63.054628
" />
<path d="M78.657581 63.054628
L78.752819 63.054628
" />
<path d="M78.752819 63.054628
L78.790914 63.073676
" />
<path d="M78.790914 63.073676
L78.809962 63.092723
" />
<path d="M78.809962 63.092723
L78.829009 63.130819
" />
<path d="M78.829009 63.130819
L78.829009 63.226057
" />
<path d="M78.829009 63.226057
L78.809962 63.264152
" />
<path d="M78.809962 63.264152
L78.790914 63.283200
" />
<path d="M78.790914 63.283200
L78.752819 63.302247
" />
<path d="M78.752819 63.302247
L78.657581 63.302247
" />
<path d="M78.657581 63.302247
L78.619486 63.283200
" />
<path d="M78.619486 63.283200
L78.600438 63.264152
" />
</g><text x="86.490000" y="66.222400"
textLength="0.905714" font-size="0.533333" lengthAdjust="spacingAndGlyphs"
text-anchor="middle" opacity="0">J2</text>
<g class="stroked-text"><desc>J2</desc>
<path d="M86.356666 65.802247
L86.356666 66.087961
" />
<path d="M86.356666 66.087961
L86.337619 66.145104
" />
<path d="M86.337619 66.145104
L86.299523 66.183200
" />
<path d="M86.299523 66.183200
L86.242381 66.202247
" />
<path d="M86.242381 66.202247
L86.204285 66.202247
" />
<path d="M86.528095 65.840342
L86.547143 65.821295
" />
<path d="M86.547143 65.821295
L86.585238 65.802247
" />
<path d="M86.585238 65.802247
L86.680476 65.802247
" />
<path d="M86.680476 65.802247
L86.718571 65.821295
" />
<path d="M86.718571 65.821295
L86.737619 65.840342
" />
<path d="M86.737619 65.840342
L86.756666 65.878438
" />
<path d="M86.756666 65.878438
L86.756666 65.916533
" />
<path d="M86.756666 65.916533
L86.737619 65.973676
" />
<path d="M86.737619 65.973676
L86.509047 66.202247
" />
<path d="M86.509047 66.202247
L86.756666 66.202247
" />
</g></g>
<g style="fill:#000000; fill-opacity:0.0; 
stroke:#000000; stroke-width:0.120000; stroke-opacity:1; 
stroke-linecap:round; stroke-linejoin:round;">
<path d="M111.217000 55.810064
L111.217000 55.355936
" />
<path d="M112.687000 55.810064
L112.687000 55.355936
" />
<path d="M108.916000 51.111064
L108.916000 50.656936
" />
<path d="M110.386000 51.111064
L110.386000 50.656936
" />
<path d="M100.418617 61.408784
L101.368617 61.408784
" />
<path d="M100.418617 61.858784
L100.418617 61.408784
" />
<path d="M100.418617 65.378784
L100.418617 65.828784
" />
<path d="M100.418617 65.828784
L114.888617 65.828784
" />
<path d="M101.368617 61.408784
L101.368617 59.918784
" />
<path d="M114.888617 61.408784
L113.938617 61.408784
" />
<path d="M114.888617 61.858784
L114.888617 61.408784
" />
<path d="M114.888617 65.828784
L114.888617 65.378784
" />
<path d="M111.267000 51.111064
L111.267000 50.656936
" />
<path d="M112.737000 51.111064
L112.737000 50.656936
" />
</g>
<g style="fill:#000000; fill-opacity:0.0; 
stroke:#000000; stroke-width:0.200000; stroke-opacity:1; 
stroke-linecap:round; stroke-linejoin:round;">
<path d="M101.045000 56.882000
L101.045000 55.332000
" />
<path d="M101.200000 54.982000
L101.200000 51.832000
" />
<path d="M106.100000 54.982000
L101.200000 54.982000
" />
<path d="M101.200000 51.832000
L106.100000 51.832000
" />
<path d="M106.100000 51.832000
L106.100000 54.982000
" />
</g>
<g style="fill:#000000; fill-opacity:0.0; 
stroke:#000000; stroke-width:0.120000; stroke-opacity:1; 
stroke-linecap:round; stroke-linejoin:round;">
<path d="M106.650000 51.111064
L106.650000 50.656936
" />
<path d="M108.120000 51.111064
L108.120000 50.656936
" />
</g>
<g style="fill:#000000; fill-opacity:1.000000; 
stroke:#000000; stroke-width:0.000000; stroke-opacity:1; 
stroke-linecap:round; stroke-linejoin:round;">
<path style="fill:#000000; fill-opacity:1.000000; 
stroke:#000000; stroke-width:0.000000; stroke-opacity:1; 
stroke-linecap:round; stroke-linejoin:round;fill-rule:evenodd;"
d="M 100.904480,67.461875
100.689286,67.461875
100.689286,67.892264
100.904480,67.892264
100.904480,69.190486
100.688580,69.189781
100.472327,69.188722
100.469858,69.148153
100.468186,69.127005
100.465689,69.105901
100.458251,69.063870
100.447606,69.022150
100.433819,68.980831
100.416952,68.940002
100.397069,68.899753
100.374231,68.860171
100.348502,68.821348
100.319946,68.783373
100.288625,68.746334
100.254603,68.710322
100.217941,68.675425
100.178705,68.641734
100.136955,68.609336
100.092757,68.578323
100.046172,68.548783
100.012037,68.528857
99.977108,68.509827
99.941392,68.491695
99.904895,68.474463
99.867625,68.458135
99.829590,68.442712
99.790795,68.428198
99.751249,68.414596
99.710960,68.401906
99.669933,68.390133
99.628176,68.379279
99.585698,68.369346
99.542503,68.360337
99.498601,68.352255
99.453999,68.345102
99.408702,68.338881
99.349963,68.332759
99.286851,68.328667
99.220745,68.326584
99.153027,68.326489
99.085077,68.328363
99.018277,68.332183
98.954006,68.337931
98.893647,68.345583
98.803979,68.361187
98.716913,68.380897
98.632702,68.404547
98.551601,68.431970
98.473863,68.462997
98.436335,68.479811
98.399742,68.497463
98.364117,68.515932
98.329492,68.535198
98.295897,68.555239
98.263365,68.576036
98.231928,68.597566
98.201617,68.619809
98.172464,68.642743
98.144501,68.666349
98.117758,68.690605
98.092270,68.715491
98.068065,68.740984
98.045178,68.767065
98.023638,68.793712
98.003479,68.820904
97.984731,68.848621
97.967427,68.876842
97.951597,68.905545
97.937275,68.934710
97.924491,68.964316
97.913277,68.994342
97.906676,69.014263
97.900881,69.033853
97.895871,69.053178
97.891626,69.072306
97.888125,69.091300
97.885347,69.110229
97.883273,69.129158
97.881880,69.148153
97.879411,69.188722
97.663511,69.189781
97.447258,69.190486
97.447258,67.892264
97.877647,67.892264
98.096369,67.892264
98.526758,67.892264
98.745480,67.892264
99.175869,67.892264
99.391063,67.892264
99.824980,67.892264
100.040175,67.892264
100.470563,67.892264
100.470563,67.461875
100.040175,67.461875
100.040175,67.892264
99.824980,67.892264
99.824980,67.461875
99.391063,67.461875
99.391063,67.892264
99.175869,67.892264
99.175869,67.461875
98.745480,67.461875
98.745480,67.892264
98.526758,67.892264
98.526758,67.461875
98.096369,67.461875
98.096369,67.892264
97.877647,67.892264
97.877647,67.461875
97.447258,67.461875
97.447258,67.243153
100.904480,67.243153
Z" /> 
</g>
<g style="fill:#000000; fill-opacity:1.000000; 
stroke:#000000; stroke-width:0.120000; stroke-opacity:1; 
stroke-linecap:round; stroke-linejoin:round;">
</g>
<g style="fill:#000000; fill-opacity:0.0; 
stroke:#000000; stroke-width:0.120000; stroke-opacity:1; 
stroke-linecap:round; stroke-linejoin:round;">
<path d="M100.452800 51.454620
L100.452800 51.735780
" />
<path d="M99.432800 51.454620
L99.432800 51.735780
" />
<path d="M106.665000 55.810064
L106.665000 55.355936
" />
<path d="M108.135000 55.810064
L108.135000 55.355936
" />
<path d="M108.866000 55.810064
L108.866000 55.355936
" />
<path d="M110.336000 55.810064
L110.336000 55.355936
" />
<path d="M82.890000 64.422400
L84.990000 64.422400
" />
<path d="M85.490000 64.922400
L85.490000 67.122400
" />
<path d="M84.990000 67.622400
L82.890000 67.622400
" />
<g >
</g>
<g >
</g>
<g >
</g>
<g >
</g>
<g >
</g>
<g >
</g>
<g >
</g>
<g >
</g>
<g >
</g>
<g >
</g>
<g >
</g>
<g >
</g>
<g >
</g>
<g >
</g>
<g >
</g>
<g >
</g>
<g >
</g>
<g >
</g>
<g >
</g>
<g >
</g>
<g >
</g>
<g >
</g>
<g >
</g>
</g> 
</svg>
