  0
SECTION
  2
HEADER
  9
$ANGBASE
  50
0.0
  9
$ANGDIR
  70
1
  9
$MEASUREMENT
  70
1
  0
ENDSEC
  0
SECTION
  2
TABLES
  0
TABLE
  2
LTYPE
  70
4
  0
LTYPE
  5
40F
  2
CONTINUOUS
  70
0
  3
Solid line
  72
65
  73
0
  40
0.0
  0
LTYPE
  5
410
  2
DASHDOT
 70
0
  3
Dash Dot ____ _ ____ _
 72
65
 73
4
 40
2.0
 49
1.25
 49
-0.25
 49
0.25
 49
-0.25
  0
LTYPE
  5
411
  2
DASHED
 70
0
  3
Dashed __ __ __ __ __
 72
65
 73
2
 40
0.75
 49
0.5
 49
-0.25
  0
LTYPE
  5
43B
  2
DOTTED
 70
0
  3
Dotted .  .  .  .
 72
65
 73
2
 40
0.2
 49
0.0
 49
-0.2
  0
ENDTAB
  0
TABLE
  2
STYLE
  70
4
  0
STYLE
  2
KICAD
  70
0
  40
0
  41
1
  42
1
  50
0
  71
0
  3
isocp.shx
  0
STYLE
  2
KICADB
  70
0
  40
0
  41
1
  42
1
  50
0
  71
0
  3
isocp.shx
  0
STYLE
  2
KICADI
  70
0
  40
0
  41
1
  42
1
  50
15
  71
0
  3
isocp.shx
  0
STYLE
  2
KICADBI
  70
0
  40
0
  41
1
  42
1
  50
15
  71
0
  3
isocp.shx
  0
ENDTAB
  0
TABLE
  2
LAYER
  70
1
  0
LAYER
  2
BLACK
  70
0
  62
7
  6
CONTINUOUS
  0
ENDTAB
  0
ENDSEC
  0
SECTION
  2
ENTITIES
0
LINE
8
BLACK
6
CONTINUOUS
10
123.0097409999999911
20
-41.9267169999999965
11
123.0130240000000015
21
-41.9261389999999992
0
LINE
8
BLACK
6
CONTINUOUS
10
123.0130240000000015
20
-41.9261389999999992
11
123.0159089999999935
21
-41.9278049999999993
0
LINE
8
BLACK
6
CONTINUOUS
10
123.0159089999999935
20
-41.9278049999999993
11
123.0256519999999938
21
-41.9295229999999961
0
LINE
8
BLACK
6
CONTINUOUS
10
123.0256519999999938
20
-41.9295229999999961
11
123.0405789999999939
21
-41.9420479999999998
0
LINE
8
BLACK
6
CONTINUOUS
10
123.0405789999999939
20
-41.9420479999999998
11
123.0574529999999953
21
-41.9517910000000001
0
LINE
8
BLACK
6
CONTINUOUS
10
123.0574529999999953
20
-41.9517910000000001
11
123.0597669999999937
21
-41.9581489999999988
0
LINE
8
BLACK
6
CONTINUOUS
10
123.0597669999999937
20
-41.9581489999999988
11
123.064951999999991
21
-41.9624999999999986
0
LINE
8
BLACK
6
CONTINUOUS
10
123.064951999999991
20
-41.9624999999999986
11
123.068335999999988
21
-41.9816909999999979
0
LINE
8
BLACK
6
CONTINUOUS
10
123.068335999999988
20
-41.9816909999999979
11
123.0749999999999886
21
-42.
0
LINE
8
BLACK
6
CONTINUOUS
10
123.0749999999999886
20
-42.
11
123.0749999999999886
21
-62.
0
LINE
8
BLACK
6
CONTINUOUS
10
123.0749999999999886
20
-62.
11
123.0732819999999919
21
-62.0097409999999982
0
LINE
8
BLACK
6
CONTINUOUS
10
123.0732819999999919
20
-62.0097409999999982
11
123.0738609999999937
21
-62.0130239999999944
0
LINE
8
BLACK
6
CONTINUOUS
10
123.0738609999999937
20
-62.0130239999999944
11
123.0721939999999961
21
-62.0159090000000006
0
LINE
8
BLACK
6
CONTINUOUS
10
123.0721939999999961
20
-62.0159090000000006
11
123.0704769999999968
21
-62.0256519999999938
0
LINE
8
BLACK
6
CONTINUOUS
10
123.0704769999999968
20
-62.0256519999999938
11
123.0579509999999885
21
-62.0405789999999939
0
LINE
8
BLACK
6
CONTINUOUS
10
123.0579509999999885
20
-62.0405789999999939
11
123.0482089999999999
21
-62.0574529999999953
0
LINE
8
BLACK
6
CONTINUOUS
10
123.0482089999999999
20
-62.0574529999999953
11
123.0418499999999966
21
-62.0597669999999937
0
LINE
8
BLACK
6
CONTINUOUS
10
123.0418499999999966
20
-62.0597669999999937
11
123.0374999999999943
21
-62.0649519999999981
0
LINE
8
BLACK
6
CONTINUOUS
10
123.0374999999999943
20
-62.0649519999999981
11
123.0183079999999904
21
-62.0683359999999951
0
LINE
8
BLACK
6
CONTINUOUS
10
123.0183079999999904
20
-62.0683359999999951
11
123.
21
-62.0749999999999957
0
LINE
8
BLACK
6
CONTINUOUS
10
123.
20
-62.0749999999999957
11
120.0749999999999886
21
-62.0749999999999957
0
LINE
8
BLACK
6
CONTINUOUS
10
120.0749999999999886
20
-62.0749999999999957
11
120.0749999999999886
21
-69.9249999999999972
0
LINE
8
BLACK
6
CONTINUOUS
10
120.0749999999999886
20
-69.9249999999999972
11
123.
21
-69.9249999999999972
0
LINE
8
BLACK
6
CONTINUOUS
10
123.
20
-69.9249999999999972
11
123.0097409999999911
21
-69.9267169999999965
0
LINE
8
BLACK
6
CONTINUOUS
10
123.0097409999999911
20
-69.9267169999999965
11
123.0130240000000015
21
-69.9261389999999921
0
LINE
8
BLACK
6
CONTINUOUS
10
123.0130240000000015
20
-69.9261389999999921
11
123.0159089999999935
21
-69.9278049999999922
0
LINE
8
BLACK
6
CONTINUOUS
10
123.0159089999999935
20
-69.9278049999999922
11
123.0256519999999938
21
-69.9295230000000032
0
LINE
8
BLACK
6
CONTINUOUS
10
123.0256519999999938
20
-69.9295230000000032
11
123.0405789999999939
21
-69.9420479999999998
0
LINE
8
BLACK
6
CONTINUOUS
10
123.0405789999999939
20
-69.9420479999999998
11
123.0574529999999953
21
-69.9517910000000001
0
LINE
8
BLACK
6
CONTINUOUS
10
123.0574529999999953
20
-69.9517910000000001
11
123.0597669999999937
21
-69.9581489999999917
0
LINE
8
BLACK
6
CONTINUOUS
10
123.0597669999999937
20
-69.9581489999999917
11
123.064951999999991
21
-69.9624999999999915
0
LINE
8
BLACK
6
CONTINUOUS
10
123.064951999999991
20
-69.9624999999999915
11
123.068335999999988
21
-69.9816909999999979
0
LINE
8
BLACK
6
CONTINUOUS
10
123.068335999999988
20
-69.9816909999999979
11
123.0749999999999886
21
-70.
0
LINE
8
BLACK
6
CONTINUOUS
10
123.0749999999999886
20
-70.
11
123.0749999999999886
21
-90.
0
LINE
8
BLACK
6
CONTINUOUS
10
123.0749999999999886
20
-90.
11
123.0732819999999919
21
-90.0097409999999911
0
LINE
8
BLACK
6
CONTINUOUS
10
123.0732819999999919
20
-90.0097409999999911
11
123.0738609999999937
21
-90.0130240000000015
0
LINE
8
BLACK
6
CONTINUOUS
10
123.0738609999999937
20
-90.0130240000000015
11
123.0721939999999961
21
-90.0159089999999935
0
LINE
8
BLACK
6
CONTINUOUS
10
123.0721939999999961
20
-90.0159089999999935
11
123.0704769999999968
21
-90.0256519999999938
0
LINE
8
BLACK
6
CONTINUOUS
10
123.0704769999999968
20
-90.0256519999999938
11
123.0579509999999885
21
-90.0405789999999939
0
LINE
8
BLACK
6
CONTINUOUS
10
123.0579509999999885
20
-90.0405789999999939
11
123.0482089999999999
21
-90.0574529999999953
0
LINE
8
BLACK
6
CONTINUOUS
10
123.0482089999999999
20
-90.0574529999999953
11
123.0418499999999966
21
-90.0597669999999937
0
LINE
8
BLACK
6
CONTINUOUS
10
123.0418499999999966
20
-90.0597669999999937
11
123.0374999999999943
21
-90.064951999999991
0
LINE
8
BLACK
6
CONTINUOUS
10
123.0374999999999943
20
-90.064951999999991
11
123.0183079999999904
21
-90.0683360000000022
0
LINE
8
BLACK
6
CONTINUOUS
10
123.0183079999999904
20
-90.0683360000000022
11
123.
21
-90.0750000000000028
0
LINE
8
BLACK
6
CONTINUOUS
10
123.
20
-90.0750000000000028
11
75.
21
-90.0750000000000028
0
LINE
8
BLACK
6
CONTINUOUS
10
75.
20
-90.0750000000000028
11
74.9902579999999972
21
-90.0732819999999919
0
LINE
8
BLACK
6
CONTINUOUS
10
74.9902579999999972
20
-90.0732819999999919
11
74.9869759999999985
21
-90.0738609999999937
0
LINE
8
BLACK
6
CONTINUOUS
10
74.9869759999999985
20
-90.0738609999999937
11
74.9840899999999948
21
-90.0721939999999961
0
LINE
8
BLACK
6
CONTINUOUS
10
74.9840899999999948
20
-90.0721939999999961
11
74.974347999999992
21
-90.0704769999999968
0
LINE
8
BLACK
6
CONTINUOUS
10
74.974347999999992
20
-90.0704769999999968
11
74.9594199999999944
21
-90.0579510000000028
0
LINE
8
BLACK
6
CONTINUOUS
10
74.9594199999999944
20
-90.0579510000000028
11
74.9425469999999905
21
-90.0482089999999999
0
LINE
8
BLACK
6
CONTINUOUS
10
74.9425469999999905
20
-90.0482089999999999
11
74.9402319999999946
21
-90.0418499999999966
0
LINE
8
BLACK
6
CONTINUOUS
10
74.9402319999999946
20
-90.0418499999999966
11
74.9350479999999948
21
-90.0374999999999943
0
LINE
8
BLACK
6
CONTINUOUS
10
74.9350479999999948
20
-90.0374999999999943
11
74.9316630000000004
21
-90.0183079999999904
0
LINE
8
BLACK
6
CONTINUOUS
10
74.9316630000000004
20
-90.0183079999999904
11
74.9249999999999972
21
-90.
0
LINE
8
BLACK
6
CONTINUOUS
10
74.9249999999999972
20
-90.
11
74.9249999999999972
21
-42.
0
LINE
8
BLACK
6
CONTINUOUS
10
74.9249999999999972
20
-42.
11
74.9267169999999965
21
-41.9902579999999972
0
LINE
8
BLACK
6
CONTINUOUS
10
74.9267169999999965
20
-41.9902579999999972
11
74.9261389999999921
21
-41.9869759999999985
0
LINE
8
BLACK
6
CONTINUOUS
10
74.9261389999999921
20
-41.9869759999999985
11
74.9278049999999922
21
-41.9840899999999948
0
LINE
8
BLACK
6
CONTINUOUS
10
74.9278049999999922
20
-41.9840899999999948
11
74.9295230000000032
21
-41.9743479999999991
0
LINE
8
BLACK
6
CONTINUOUS
10
74.9295230000000032
20
-41.9743479999999991
11
74.9420479999999998
21
-41.9594200000000015
0
LINE
8
BLACK
6
CONTINUOUS
10
74.9420479999999998
20
-41.9594200000000015
11
74.9517910000000001
21
-41.9425469999999976
0
LINE
8
BLACK
6
CONTINUOUS
10
74.9517910000000001
20
-41.9425469999999976
11
74.9581489999999917
21
-41.9402319999999946
0
LINE
8
BLACK
6
CONTINUOUS
10
74.9581489999999917
20
-41.9402319999999946
11
74.9624999999999915
21
-41.9350479999999948
0
LINE
8
BLACK
6
CONTINUOUS
10
74.9624999999999915
20
-41.9350479999999948
11
74.9816909999999979
21
-41.9316630000000004
0
LINE
8
BLACK
6
CONTINUOUS
10
74.9816909999999979
20
-41.9316630000000004
11
75.
21
-41.9249999999999972
0
LINE
8
BLACK
6
CONTINUOUS
10
75.
20
-41.9249999999999972
11
123.
21
-41.9249999999999972
0
LINE
8
BLACK
6
CONTINUOUS
10
123.
20
-41.9249999999999972
11
123.0097409999999911
21
-41.9267169999999965
0
LINE
8
BLACK
6
CONTINUOUS
10
75.0750000000000028
20
-42.0749999999999957
11
75.0750000000000028
21
-89.9249999999999972
0
LINE
8
BLACK
6
CONTINUOUS
10
75.0750000000000028
20
-89.9249999999999972
11
122.9249999999999972
21
-89.9249999999999972
0
LINE
8
BLACK
6
CONTINUOUS
10
122.9249999999999972
20
-89.9249999999999972
11
122.9249999999999972
21
-70.0750000000000028
0
LINE
8
BLACK
6
CONTINUOUS
10
122.9249999999999972
20
-70.0750000000000028
11
120.
21
-70.0750000000000028
0
LINE
8
BLACK
6
CONTINUOUS
10
120.
20
-70.0750000000000028
11
119.9902579999999972
21
-70.0732819999999919
0
LINE
8
BLACK
6
CONTINUOUS
10
119.9902579999999972
20
-70.0732819999999919
11
119.9869759999999985
21
-70.0738609999999937
0
LINE
8
BLACK
6
CONTINUOUS
10
119.9869759999999985
20
-70.0738609999999937
11
119.9840899999999948
21
-70.0721939999999961
0
LINE
8
BLACK
6
CONTINUOUS
10
119.9840899999999948
20
-70.0721939999999961
11
119.974347999999992
21
-70.0704769999999968
0
LINE
8
BLACK
6
CONTINUOUS
10
119.974347999999992
20
-70.0704769999999968
11
119.9594199999999944
21
-70.0579510000000028
0
LINE
8
BLACK
6
CONTINUOUS
10
119.9594199999999944
20
-70.0579510000000028
11
119.9425469999999905
21
-70.0482089999999999
0
LINE
8
BLACK
6
CONTINUOUS
10
119.9425469999999905
20
-70.0482089999999999
11
119.9402319999999946
21
-70.0418499999999966
0
LINE
8
BLACK
6
CONTINUOUS
10
119.9402319999999946
20
-70.0418499999999966
11
119.9350479999999948
21
-70.0374999999999943
0
LINE
8
BLACK
6
CONTINUOUS
10
119.9350479999999948
20
-70.0374999999999943
11
119.9316630000000004
21
-70.0183079999999904
0
LINE
8
BLACK
6
CONTINUOUS
10
119.9316630000000004
20
-70.0183079999999904
11
119.9249999999999972
21
-70.
0
LINE
8
BLACK
6
CONTINUOUS
10
119.9249999999999972
20
-70.
11
119.9249999999999972
21
-62.
0
LINE
8
BLACK
6
CONTINUOUS
10
119.9249999999999972
20
-62.
11
119.9267169999999965
21
-61.9902579999999972
0
LINE
8
BLACK
6
CONTINUOUS
10
119.9267169999999965
20
-61.9902579999999972
11
119.9261389999999921
21
-61.9869759999999985
0
LINE
8
BLACK
6
CONTINUOUS
10
119.9261389999999921
20
-61.9869759999999985
11
119.9278049999999922
21
-61.9840899999999948
0
LINE
8
BLACK
6
CONTINUOUS
10
119.9278049999999922
20
-61.9840899999999948
11
119.929522999999989
21
-61.9743479999999991
0
LINE
8
BLACK
6
CONTINUOUS
10
119.929522999999989
20
-61.9743479999999991
11
119.9420479999999998
21
-61.9594199999999944
0
LINE
8
BLACK
6
CONTINUOUS
10
119.9420479999999998
20
-61.9594199999999944
11
119.9517910000000001
21
-61.9425469999999976
0
LINE
8
BLACK
6
CONTINUOUS
10
119.9517910000000001
20
-61.9425469999999976
11
119.9581489999999917
21
-61.9402319999999946
0
LINE
8
BLACK
6
CONTINUOUS
10
119.9581489999999917
20
-61.9402319999999946
11
119.9624999999999915
21
-61.9350479999999948
0
LINE
8
BLACK
6
CONTINUOUS
10
119.9624999999999915
20
-61.9350479999999948
11
119.9816909999999979
21
-61.9316630000000004
0
LINE
8
BLACK
6
CONTINUOUS
10
119.9816909999999979
20
-61.9316630000000004
11
120.
21
-61.9249999999999972
0
LINE
8
BLACK
6
CONTINUOUS
10
120.
20
-61.9249999999999972
11
122.9249999999999972
21
-61.9249999999999972
0
LINE
8
BLACK
6
CONTINUOUS
10
122.9249999999999972
20
-61.9249999999999972
11
122.9249999999999972
21
-42.0749999999999957
0
LINE
8
BLACK
6
CONTINUOUS
10
122.9249999999999972
20
-42.0749999999999957
11
75.0750000000000028
21
-42.0749999999999957
  0
ENDSEC
  0
EOF
