  0
SECTION
  2
HEADER
  9
$ANGBASE
  50
0.0
  9
$ANGDIR
  70
1
  9
$MEASUREMENT
  70
1
  0
ENDSEC
  0
SECTION
  2
TABLES
  0
TABLE
  2
LTYPE
  70
4
  0
LTYPE
  5
40F
  2
CONTINUOUS
  70
0
  3
Solid line
  72
65
  73
0
  40
0.0
  0
LTYPE
  5
410
  2
DASHDOT
 70
0
  3
Dash Dot ____ _ ____ _
 72
65
 73
4
 40
2.0
 49
1.25
 49
-0.25
 49
0.25
 49
-0.25
  0
LTYPE
  5
411
  2
DASHED
 70
0
  3
Dashed __ __ __ __ __
 72
65
 73
2
 40
0.75
 49
0.5
 49
-0.25
  0
LTYPE
  5
43B
  2
DOTTED
 70
0
  3
Dotted .  .  .  .
 72
65
 73
2
 40
0.2
 49
0.0
 49
-0.2
  0
ENDTAB
  0
TABLE
  2
STYLE
  70
4
  0
STYLE
  2
KICAD
  70
0
  40
0
  41
1
  42
1
  50
0
  71
0
  3
isocp.shx
  0
STYLE
  2
KICADB
  70
0
  40
0
  41
1
  42
1
  50
0
  71
0
  3
isocp.shx
  0
STYLE
  2
KICADI
  70
0
  40
0
  41
1
  42
1
  50
15
  71
0
  3
isocp.shx
  0
STYLE
  2
KICADBI
  70
0
  40
0
  41
1
  42
1
  50
15
  71
0
  3
isocp.shx
  0
ENDTAB
  0
TABLE
  2
LAYER
  70
1
  0
LAYER
  2
BLACK
  70
0
  62
7
  6
CONTINUOUS
  0
ENDTAB
  0
ENDSEC
  0
SECTION
  2
ENTITIES
0
LINE
8
BLACK
6
CONTINUOUS
10
113.9099999999999966
20
-48.0811999999999955
11
113.9849999999999994
21
-48.1012959999999978
0
LINE
8
BLACK
6
CONTINUOUS
10
113.9849999999999994
20
-48.1012959999999978
11
114.0399039999999928
21
-48.1561999999999983
0
LINE
8
BLACK
6
CONTINUOUS
10
114.0399039999999928
20
-48.1561999999999983
11
114.0599999999999881
21
-48.2312000000000012
0
LINE
8
BLACK
6
CONTINUOUS
10
114.0599999999999881
20
-48.2312000000000012
11
114.0599999999999881
21
-88.8712000000000018
0
LINE
8
BLACK
6
CONTINUOUS
10
114.0599999999999881
20
-88.8712000000000018
11
114.0399039999999928
21
-88.9461999999999904
0
LINE
8
BLACK
6
CONTINUOUS
10
114.0399039999999928
20
-88.9461999999999904
11
113.9849999999999994
21
-89.001103999999998
0
LINE
8
BLACK
6
CONTINUOUS
10
113.9849999999999994
20
-89.001103999999998
11
113.9099999999999966
21
-89.0211999999999932
0
LINE
8
BLACK
6
CONTINUOUS
10
113.9099999999999966
20
-89.0211999999999932
11
83.1760000000000019
21
-89.0211999999999932
0
LINE
8
BLACK
6
CONTINUOUS
10
83.1760000000000019
20
-89.0211999999999932
11
83.1009999999999991
21
-89.001103999999998
0
LINE
8
BLACK
6
CONTINUOUS
10
83.1009999999999991
20
-89.001103999999998
11
83.0460959999999915
21
-88.9461999999999904
0
LINE
8
BLACK
6
CONTINUOUS
10
83.0460959999999915
20
-88.9461999999999904
11
83.0259999999999962
21
-88.8712000000000018
0
LINE
8
BLACK
6
CONTINUOUS
10
83.0259999999999962
20
-88.8712000000000018
11
83.0259999999999962
21
-48.2312000000000012
0
LINE
8
BLACK
6
CONTINUOUS
10
83.0259999999999962
20
-48.2312000000000012
11
83.0460959999999915
21
-48.1561999999999983
0
LINE
8
BLACK
6
CONTINUOUS
10
83.0460959999999915
20
-48.1561999999999983
11
83.1009999999999991
21
-48.1012959999999978
0
LINE
8
BLACK
6
CONTINUOUS
10
83.1009999999999991
20
-48.1012959999999978
11
83.1760000000000019
21
-48.0811999999999955
0
LINE
8
BLACK
6
CONTINUOUS
10
83.1760000000000019
20
-48.0811999999999955
11
113.9099999999999966
21
-48.0811999999999955
0
LINE
8
BLACK
6
CONTINUOUS
10
83.3259999999999934
20
-48.3811999999999998
11
83.3259999999999934
21
-88.7211999999999961
0
LINE
8
BLACK
6
CONTINUOUS
10
83.3259999999999934
20
-88.7211999999999961
11
113.7599999999999909
21
-88.7211999999999961
0
LINE
8
BLACK
6
CONTINUOUS
10
113.7599999999999909
20
-88.7211999999999961
11
113.7599999999999909
21
-48.3811999999999998
0
LINE
8
BLACK
6
CONTINUOUS
10
113.7599999999999909
20
-48.3811999999999998
11
83.3259999999999934
21
-48.3811999999999998
0
LINE
8
BLACK
6
CONTINUOUS
10
116.7645859999999942
20
-72.7383069999999918
11
116.7821330000000017
21
-72.7865159999999918
0
LINE
8
BLACK
6
CONTINUOUS
10
116.7821330000000017
20
-72.7865159999999918
11
116.7821330000000017
21
-73.548419999999993
0
LINE
8
BLACK
6
CONTINUOUS
10
116.7821330000000017
20
-73.548419999999993
11
116.7776099999999957
21
-73.574072000000001
0
LINE
8
BLACK
6
CONTINUOUS
10
116.7776099999999957
20
-73.574072000000001
11
116.7446329999999932
21
-73.6133719999999983
0
LINE
8
BLACK
6
CONTINUOUS
10
116.7446329999999932
20
-73.6133719999999983
11
116.6941089999999974
21
-73.622281000000001
0
LINE
8
BLACK
6
CONTINUOUS
10
116.6941089999999974
20
-73.622281000000001
11
116.6496799999999894
21
-73.596628999999993
0
LINE
8
BLACK
6
CONTINUOUS
10
116.6496799999999894
20
-73.596628999999993
11
116.6321329999999961
21
-73.548419999999993
0
LINE
8
BLACK
6
CONTINUOUS
10
116.6321329999999961
20
-73.548419999999993
11
116.6321329999999961
21
-72.7865159999999918
0
LINE
8
BLACK
6
CONTINUOUS
10
116.6321329999999961
20
-72.7865159999999918
11
116.6366559999999879
21
-72.760863999999998
0
LINE
8
BLACK
6
CONTINUOUS
10
116.6366559999999879
20
-72.760863999999998
11
116.6696329999999904
21
-72.7215640000000008
0
LINE
8
BLACK
6
CONTINUOUS
10
116.6696329999999904
20
-72.7215640000000008
11
116.7201570000000004
21
-72.712654999999998
0
LINE
8
BLACK
6
CONTINUOUS
10
116.7201570000000004
20
-72.712654999999998
11
116.7645859999999942
21
-72.7383069999999918
0
LINE
8
BLACK
6
CONTINUOUS
10
121.0164259999999956
20
-60.6445739999999986
11
121.0339999999999918
21
-60.6869999999999976
0
LINE
8
BLACK
6
CONTINUOUS
10
121.0339999999999918
20
-60.6869999999999976
11
121.0339999999999918
21
-61.3170000000000002
0
LINE
8
BLACK
6
CONTINUOUS
10
121.0339999999999918
20
-61.3170000000000002
11
122.6939999999999884
21
-61.3170000000000002
0
LINE
8
BLACK
6
CONTINUOUS
10
122.6939999999999884
20
-61.3170000000000002
11
122.7364259999999945
21
-61.3345739999999964
0
LINE
8
BLACK
6
CONTINUOUS
10
122.7364259999999945
20
-61.3345739999999964
11
122.7539999999999907
21
-61.3769999999999953
0
LINE
8
BLACK
6
CONTINUOUS
10
122.7539999999999907
20
-61.3769999999999953
11
122.7539999999999907
21
-70.6169999999999902
0
LINE
8
BLACK
6
CONTINUOUS
10
122.7539999999999907
20
-70.6169999999999902
11
122.7364259999999945
21
-70.6594259999999963
0
LINE
8
BLACK
6
CONTINUOUS
10
122.7364259999999945
20
-70.6594259999999963
11
122.6939999999999884
21
-70.6769999999999925
0
LINE
8
BLACK
6
CONTINUOUS
10
122.6939999999999884
20
-70.6769999999999925
11
121.0339999999999918
21
-70.6769999999999925
0
LINE
8
BLACK
6
CONTINUOUS
10
121.0339999999999918
20
-70.6769999999999925
11
121.0339999999999918
21
-71.3070000000000022
0
LINE
8
BLACK
6
CONTINUOUS
10
121.0339999999999918
20
-71.3070000000000022
11
121.0164259999999956
21
-71.349425999999994
0
LINE
8
BLACK
6
CONTINUOUS
10
121.0164259999999956
20
-71.349425999999994
11
120.9739999999999895
21
-71.3669999999999902
0
LINE
8
BLACK
6
CONTINUOUS
10
120.9739999999999895
20
-71.3669999999999902
11
120.9315739999999977
21
-71.349425999999994
0
LINE
8
BLACK
6
CONTINUOUS
10
120.9315739999999977
20
-71.349425999999994
11
120.9140000000000015
21
-71.3070000000000022
0
LINE
8
BLACK
6
CONTINUOUS
10
120.9140000000000015
20
-71.3070000000000022
11
120.9140000000000015
21
-70.6769999999999925
0
LINE
8
BLACK
6
CONTINUOUS
10
120.9140000000000015
20
-70.6769999999999925
11
119.2539999999999907
21
-70.6769999999999925
0
LINE
8
BLACK
6
CONTINUOUS
10
119.2539999999999907
20
-70.6769999999999925
11
119.2115739999999988
21
-70.6594259999999963
0
LINE
8
BLACK
6
CONTINUOUS
10
119.2115739999999988
20
-70.6594259999999963
11
119.1939999999999884
21
-70.6169999999999902
0
LINE
8
BLACK
6
CONTINUOUS
10
119.1939999999999884
20
-70.6169999999999902
11
119.1939999999999884
21
-61.3769999999999953
0
LINE
8
BLACK
6
CONTINUOUS
10
119.1939999999999884
20
-61.3769999999999953
11
119.2115739999999988
21
-61.3345739999999964
0
LINE
8
BLACK
6
CONTINUOUS
10
119.2115739999999988
20
-61.3345739999999964
11
119.2539999999999907
21
-61.3170000000000002
0
LINE
8
BLACK
6
CONTINUOUS
10
119.2539999999999907
20
-61.3170000000000002
11
120.9140000000000015
21
-61.3170000000000002
0
LINE
8
BLACK
6
CONTINUOUS
10
120.9140000000000015
20
-61.3170000000000002
11
120.9140000000000015
21
-60.6869999999999976
0
LINE
8
BLACK
6
CONTINUOUS
10
120.9140000000000015
20
-60.6869999999999976
11
120.9315739999999977
21
-60.6445739999999986
0
LINE
8
BLACK
6
CONTINUOUS
10
120.9315739999999977
20
-60.6445739999999986
11
120.9739999999999895
21
-60.6269999999999953
0
LINE
8
BLACK
6
CONTINUOUS
10
120.9739999999999895
20
-60.6269999999999953
11
121.0164259999999956
21
-60.6445739999999986
0
LINE
8
BLACK
6
CONTINUOUS
10
120.9739999999999895
20
-61.4369999999999976
11
119.313999999999993
21
-61.4369999999999976
0
LINE
8
BLACK
6
CONTINUOUS
10
119.313999999999993
20
-61.4369999999999976
11
119.313999999999993
21
-70.5570000000000022
0
LINE
8
BLACK
6
CONTINUOUS
10
119.313999999999993
20
-70.5570000000000022
11
122.6340000000000003
21
-70.5570000000000022
0
LINE
8
BLACK
6
CONTINUOUS
10
122.6340000000000003
20
-70.5570000000000022
11
122.6340000000000003
21
-61.4369999999999976
0
LINE
8
BLACK
6
CONTINUOUS
10
122.6340000000000003
20
-61.4369999999999976
11
120.9739999999999895
21
-61.4369999999999976
0
LINE
8
BLACK
6
CONTINUOUS
10
116.3182779999999923
20
-68.0290159999999986
11
116.3233279999999894
21
-68.028018000000003
0
LINE
8
BLACK
6
CONTINUOUS
10
116.3233279999999894
20
-68.028018000000003
11
116.3354250000000008
21
-68.0361189999999993
0
LINE
8
BLACK
6
CONTINUOUS
10
116.3354250000000008
20
-68.0361189999999993
11
116.3488779999999991
21
-68.0416919999999976
0
LINE
8
BLACK
6
CONTINUOUS
10
116.3488779999999991
20
-68.0416919999999976
11
116.3508470000000017
21
-68.0464470000000006
0
LINE
8
BLACK
6
CONTINUOUS
10
116.3508470000000017
20
-68.0464470000000006
11
116.355125000000001
21
-68.0493120000000005
0
LINE
8
BLACK
6
CONTINUOUS
10
116.355125000000001
20
-68.0493120000000005
11
116.3904739999999975
21
-68.1023349999999965
0
LINE
8
BLACK
6
CONTINUOUS
10
116.3904739999999975
20
-68.1023349999999965
11
116.4193319999999972
21
-68.1311929999999961
0
LINE
8
BLACK
6
CONTINUOUS
10
116.4193319999999972
20
-68.1311929999999961
11
116.45017
21
-68.1466119999999904
0
LINE
8
BLACK
6
CONTINUOUS
10
116.45017
20
-68.1466119999999904
11
116.4752429999999919
21
-68.1755220000000008
0
LINE
8
BLACK
6
CONTINUOUS
10
116.4752429999999919
20
-68.1755220000000008
11
116.4725299999999919
21
-68.2136940000000038
0
LINE
8
BLACK
6
CONTINUOUS
10
116.4725299999999919
20
-68.2136940000000038
11
116.4436199999999957
21
-68.2387669999999957
0
LINE
8
BLACK
6
CONTINUOUS
10
116.4436199999999957
20
-68.2387669999999957
11
116.4054479999999927
21
-68.2360539999999958
0
LINE
8
BLACK
6
CONTINUOUS
10
116.4054479999999927
20
-68.2360539999999958
11
116.3673529999999943
21
-68.2170059999999978
0
LINE
8
BLACK
6
CONTINUOUS
10
116.3673529999999943
20
-68.2170059999999978
11
116.3635230000000007
21
-68.2125889999999941
0
LINE
8
BLACK
6
CONTINUOUS
10
116.3635230000000007
20
-68.2125889999999941
11
116.3635230000000007
21
-68.4270470000000017
0
LINE
8
BLACK
6
CONTINUOUS
10
116.3635230000000007
20
-68.4270470000000017
11
116.4278089999999963
21
-68.4270470000000017
0
LINE
8
BLACK
6
CONTINUOUS
10
116.4278089999999963
20
-68.4270470000000017
11
116.4631639999999919
21
-68.4416920000000033
0
LINE
8
BLACK
6
CONTINUOUS
10
116.4631639999999919
20
-68.4416920000000033
11
116.4778089999999935
21
-68.4770469999999989
0
LINE
8
BLACK
6
CONTINUOUS
10
116.4778089999999935
20
-68.4770469999999989
11
116.4631639999999919
21
-68.5124019999999945
0
LINE
8
BLACK
6
CONTINUOUS
10
116.4631639999999919
20
-68.5124019999999945
11
116.4278089999999963
21
-68.527046999999996
0
LINE
8
BLACK
6
CONTINUOUS
10
116.4278089999999963
20
-68.527046999999996
11
116.3135229999999893
21
-68.527046999999996
0
LINE
8
BLACK
6
CONTINUOUS
10
116.3135229999999893
20
-68.527046999999996
11
116.199237999999994
21
-68.527046999999996
0
LINE
8
BLACK
6
CONTINUOUS
10
116.199237999999994
20
-68.527046999999996
11
116.1638829999999984
21
-68.5124019999999945
0
LINE
8
BLACK
6
CONTINUOUS
10
116.1638829999999984
20
-68.5124019999999945
11
116.1492379999999969
21
-68.4770469999999989
0
LINE
8
BLACK
6
CONTINUOUS
10
116.1492379999999969
20
-68.4770469999999989
11
116.1638829999999984
21
-68.4416920000000033
0
LINE
8
BLACK
6
CONTINUOUS
10
116.1638829999999984
20
-68.4416920000000033
11
116.199237999999994
21
-68.4270470000000017
0
LINE
8
BLACK
6
CONTINUOUS
10
116.199237999999994
20
-68.4270470000000017
11
116.2635229999999922
21
-68.4270470000000017
0
LINE
8
BLACK
6
CONTINUOUS
10
116.2635229999999922
20
-68.4270470000000017
11
116.2635229999999922
21
-68.0770469999999932
0
LINE
8
BLACK
6
CONTINUOUS
10
116.2635229999999922
20
-68.0770469999999932
11
116.2654919999999947
21
-68.0722909999999928
0
LINE
8
BLACK
6
CONTINUOUS
10
116.2654919999999947
20
-68.0722909999999928
11
116.2644939999999991
21
-68.0672419999999931
0
LINE
8
BLACK
6
CONTINUOUS
10
116.2644939999999991
20
-68.0672419999999931
11
116.2725949999999955
21
-68.0551439999999985
0
LINE
8
BLACK
6
CONTINUOUS
10
116.2725949999999955
20
-68.0551439999999985
11
116.2781679999999938
21
-68.0416919999999976
0
LINE
8
BLACK
6
CONTINUOUS
10
116.2781679999999938
20
-68.0416919999999976
11
116.2829229999999967
21
-68.0397219999999976
0
LINE
8
BLACK
6
CONTINUOUS
10
116.2829229999999967
20
-68.0397219999999976
11
116.2857879999999966
21
-68.0354449999999957
0
LINE
8
BLACK
6
CONTINUOUS
10
116.2857879999999966
20
-68.0354449999999957
11
116.300069999999991
21
-68.0326189999999968
0
LINE
8
BLACK
6
CONTINUOUS
10
116.300069999999991
20
-68.0326189999999968
11
116.3135229999999893
21
-68.027046999999996
0
LINE
8
BLACK
6
CONTINUOUS
10
116.3135229999999893
20
-68.027046999999996
11
116.3182779999999923
21
-68.0290159999999986
0
LINE
8
BLACK
6
CONTINUOUS
10
116.7020789999999977
20
-68.0301960000000037
11
116.7102879999999914
21
-68.0296129999999977
0
LINE
8
BLACK
6
CONTINUOUS
10
116.7102879999999914
20
-68.0296129999999977
11
116.7674309999999878
21
-68.0486609999999956
0
LINE
8
BLACK
6
CONTINUOUS
10
116.7674309999999878
20
-68.0486609999999956
11
116.77622199999999
21
-68.0562860000000001
0
LINE
8
BLACK
6
CONTINUOUS
10
116.77622199999999
20
-68.0562860000000001
11
116.7869740000000007
21
-68.0607399999999956
0
LINE
8
BLACK
6
CONTINUOUS
10
116.7869740000000007
20
-68.0607399999999956
11
116.8250689999999992
21
-68.0988339999999965
0
LINE
8
BLACK
6
CONTINUOUS
10
116.8250689999999992
20
-68.0988339999999965
11
116.8282179999999926
21
-68.1064369999999997
0
LINE
8
BLACK
6
CONTINUOUS
10
116.8282179999999926
20
-68.1064369999999997
11
116.8344359999999966
21
-68.1118299999999977
0
LINE
8
BLACK
6
CONTINUOUS
10
116.8344359999999966
20
-68.1118299999999977
11
116.8534819999999996
21
-68.1499249999999961
0
LINE
8
BLACK
6
CONTINUOUS
10
116.8534819999999996
20
-68.1499249999999961
11
116.8538839999999936
21
-68.1555910000000011
0
LINE
8
BLACK
6
CONTINUOUS
10
116.8538839999999936
20
-68.1555910000000011
11
116.8572679999999906
21
-68.1601579999999956
0
LINE
8
BLACK
6
CONTINUOUS
10
116.8572679999999906
20
-68.1601579999999956
11
116.8763159999999885
21
-68.2363489999999899
0
LINE
8
BLACK
6
CONTINUOUS
10
116.8763159999999885
20
-68.2363489999999899
11
116.8753819999999877
21
-68.2426189999999906
0
LINE
8
BLACK
6
CONTINUOUS
10
116.8753819999999877
20
-68.2426189999999906
11
116.8778089999999992
21
-68.2484759999999966
0
LINE
8
BLACK
6
CONTINUOUS
10
116.8778089999999992
20
-68.2484759999999966
11
116.8778089999999992
21
-68.305618999999993
0
LINE
8
BLACK
6
CONTINUOUS
10
116.8778089999999992
20
-68.305618999999993
11
116.8753819999999877
21
-68.3114750000000015
0
LINE
8
BLACK
6
CONTINUOUS
10
116.8753819999999877
20
-68.3114750000000015
11
116.8763159999999885
21
-68.3177459999999996
0
LINE
8
BLACK
6
CONTINUOUS
10
116.8763159999999885
20
-68.3177459999999996
11
116.8572679999999906
21
-68.3939359999999965
0
LINE
8
BLACK
6
CONTINUOUS
10
116.8572679999999906
20
-68.3939359999999965
11
116.8538839999999936
21
-68.3985019999999935
0
LINE
8
BLACK
6
CONTINUOUS
10
116.8538839999999936
20
-68.3985019999999935
11
116.8534819999999996
21
-68.404168999999996
0
LINE
8
BLACK
6
CONTINUOUS
10
116.8534819999999996
20
-68.404168999999996
11
116.8344359999999966
21
-68.4422639999999944
0
LINE
8
BLACK
6
CONTINUOUS
10
116.8344359999999966
20
-68.4422639999999944
11
116.8282179999999926
21
-68.4476559999999949
0
LINE
8
BLACK
6
CONTINUOUS
10
116.8282179999999926
20
-68.4476559999999949
11
116.8250699999999966
21
-68.4552589999999981
0
LINE
8
BLACK
6
CONTINUOUS
10
116.8250699999999966
20
-68.4552589999999981
11
116.7869749999999982
21
-68.493354999999994
0
LINE
8
BLACK
6
CONTINUOUS
10
116.7869749999999982
20
-68.493354999999994
11
116.7762209999999925
21
-68.4978090000000037
0
LINE
8
BLACK
6
CONTINUOUS
10
116.7762209999999925
20
-68.4978090000000037
11
116.7674299999999903
21
-68.5054339999999939
0
LINE
8
BLACK
6
CONTINUOUS
10
116.7674299999999903
20
-68.5054339999999939
11
116.7102869999999939
21
-68.5244809999999944
0
LINE
8
BLACK
6
CONTINUOUS
10
116.7102869999999939
20
-68.5244809999999944
11
116.7020780000000002
21
-68.523896999999991
0
LINE
8
BLACK
6
CONTINUOUS
10
116.7020780000000002
20
-68.523896999999991
11
116.6944759999999945
21
-68.527046999999996
0
LINE
8
BLACK
6
CONTINUOUS
10
116.6944759999999945
20
-68.527046999999996
11
116.6563799999999986
21
-68.527046999999996
0
LINE
8
BLACK
6
CONTINUOUS
10
116.6563799999999986
20
-68.527046999999996
11
116.6487769999999955
21
-68.523896999999991
0
LINE
8
BLACK
6
CONTINUOUS
10
116.6487769999999955
20
-68.523896999999991
11
116.6405689999999993
21
-68.5244809999999944
0
LINE
8
BLACK
6
CONTINUOUS
10
116.6405689999999993
20
-68.5244809999999944
11
116.5834270000000004
21
-68.5054339999999939
0
LINE
8
BLACK
6
CONTINUOUS
10
116.5834270000000004
20
-68.5054339999999939
11
116.574633999999989
21
-68.497807999999992
0
LINE
8
BLACK
6
CONTINUOUS
10
116.574633999999989
20
-68.497807999999992
11
116.5638829999999899
21
-68.493354999999994
0
LINE
8
BLACK
6
CONTINUOUS
10
116.5638829999999899
20
-68.493354999999994
11
116.544834999999992
21
-68.474306999999996
0
LINE
8
BLACK
6
CONTINUOUS
10
116.544834999999992
20
-68.474306999999996
11
116.5301899999999904
21
-68.4389520000000005
0
LINE
8
BLACK
6
CONTINUOUS
10
116.5301899999999904
20
-68.4389520000000005
11
116.544834999999992
21
-68.4035969999999907
0
LINE
8
BLACK
6
CONTINUOUS
10
116.544834999999992
20
-68.4035969999999907
11
116.5801900000000018
21
-68.3889520000000033
0
LINE
8
BLACK
6
CONTINUOUS
10
116.5801900000000018
20
-68.3889520000000033
11
116.6155449999999973
21
-68.4035969999999907
0
LINE
8
BLACK
6
CONTINUOUS
10
116.6155449999999973
20
-68.4035969999999907
11
116.6262459999999948
21
-68.4142980000000023
0
LINE
8
BLACK
6
CONTINUOUS
10
116.6262459999999948
20
-68.4142980000000023
11
116.6644929999999931
21
-68.4270470000000017
0
LINE
8
BLACK
6
CONTINUOUS
10
116.6644929999999931
20
-68.4270470000000017
11
116.6863630000000001
21
-68.4270470000000017
0
LINE
8
BLACK
6
CONTINUOUS
10
116.6863630000000001
20
-68.4270470000000017
11
116.7246079999999893
21
-68.4142980000000023
0
LINE
8
BLACK
6
CONTINUOUS
10
116.7246079999999893
20
-68.4142980000000023
11
116.7486199999999883
21
-68.3902860000000032
0
LINE
8
BLACK
6
CONTINUOUS
10
116.7486199999999883
20
-68.3902860000000032
11
116.7615849999999966
21
-68.3643560000000008
0
LINE
8
BLACK
6
CONTINUOUS
10
116.7615849999999966
20
-68.3643560000000008
11
116.7778089999999906
21
-68.2994630000000029
0
LINE
8
BLACK
6
CONTINUOUS
10
116.7778089999999906
20
-68.2994630000000029
11
116.7778089999999906
21
-68.2546310000000034
0
LINE
8
BLACK
6
CONTINUOUS
10
116.7778089999999906
20
-68.2546310000000034
11
116.7615849999999966
21
-68.1897369999999938
0
LINE
8
BLACK
6
CONTINUOUS
10
116.7615849999999966
20
-68.1897369999999938
11
116.7486199999999883
21
-68.1638069999999914
0
LINE
8
BLACK
6
CONTINUOUS
10
116.7486199999999883
20
-68.1638069999999914
11
116.7246099999999984
21
-68.1397959999999898
0
LINE
8
BLACK
6
CONTINUOUS
10
116.7246099999999984
20
-68.1397959999999898
11
116.6863619999999884
21
-68.1270469999999904
0
LINE
8
BLACK
6
CONTINUOUS
10
116.6863619999999884
20
-68.1270469999999904
11
116.6644939999999906
21
-68.1270469999999904
0
LINE
8
BLACK
6
CONTINUOUS
10
116.6644939999999906
20
-68.1270469999999904
11
116.6262449999999973
21
-68.1397970000000015
0
LINE
8
BLACK
6
CONTINUOUS
10
116.6262449999999973
20
-68.1397970000000015
11
116.6155439999999999
21
-68.1504979999999989
0
LINE
8
BLACK
6
CONTINUOUS
10
116.6155439999999999
20
-68.1504979999999989
11
116.5801889999999901
21
-68.165142000000003
0
LINE
8
BLACK
6
CONTINUOUS
10
116.5801889999999901
20
-68.165142000000003
11
116.5448339999999945
21
-68.150496000000004
0
LINE
8
BLACK
6
CONTINUOUS
10
116.5448339999999945
20
-68.150496000000004
11
116.5301899999999904
21
-68.1151409999999942
0
LINE
8
BLACK
6
CONTINUOUS
10
116.5301899999999904
20
-68.1151409999999942
11
116.5448359999999894
21
-68.0797859999999986
0
LINE
8
BLACK
6
CONTINUOUS
10
116.5448359999999894
20
-68.0797859999999986
11
116.5638829999999899
21
-68.0607389999999981
0
LINE
8
BLACK
6
CONTINUOUS
10
116.5638829999999899
20
-68.0607389999999981
11
116.574633999999989
21
-68.0562860000000001
0
LINE
8
BLACK
6
CONTINUOUS
10
116.574633999999989
20
-68.0562860000000001
11
116.5834259999999887
21
-68.0486609999999956
0
LINE
8
BLACK
6
CONTINUOUS
10
116.5834259999999887
20
-68.0486609999999956
11
116.6405680000000018
21
-68.0296129999999977
0
LINE
8
BLACK
6
CONTINUOUS
10
116.6405680000000018
20
-68.0296129999999977
11
116.648775999999998
21
-68.0301960000000037
0
LINE
8
BLACK
6
CONTINUOUS
10
116.648775999999998
20
-68.0301960000000037
11
116.6563799999999986
21
-68.027046999999996
0
LINE
8
BLACK
6
CONTINUOUS
10
116.6563799999999986
20
-68.027046999999996
11
116.6944759999999945
21
-68.027046999999996
0
LINE
8
BLACK
6
CONTINUOUS
10
116.6944759999999945
20
-68.027046999999996
11
116.7020789999999977
21
-68.0301960000000037
0
LINE
8
BLACK
6
CONTINUOUS
10
117.1433229999999952
20
-68.0314999999999941
11
117.1549319999999881
21
-68.0323259999999976
0
LINE
8
BLACK
6
CONTINUOUS
10
117.1549319999999881
20
-68.0323259999999976
11
117.1930270000000007
21
-68.0513739999999956
0
LINE
8
BLACK
6
CONTINUOUS
10
117.1930270000000007
20
-68.0513739999999956
11
117.1984179999999895
21
-68.0575899999999905
0
LINE
8
BLACK
6
CONTINUOUS
10
117.1984179999999895
20
-68.0575899999999905
11
117.2060209999999927
21
-68.0607399999999956
0
LINE
8
BLACK
6
CONTINUOUS
10
117.2060209999999927
20
-68.0607399999999956
11
117.2250689999999906
21
-68.0797869999999961
0
LINE
8
BLACK
6
CONTINUOUS
10
117.2250689999999906
20
-68.0797869999999961
11
117.2282179999999983
21
-68.0873899999999992
0
LINE
8
BLACK
6
CONTINUOUS
10
117.2282179999999983
20
-68.0873899999999992
11
117.2344339999999931
21
-68.0927810000000022
0
LINE
8
BLACK
6
CONTINUOUS
10
117.2344339999999931
20
-68.0927810000000022
11
117.2534829999999886
21
-68.1308779999999956
0
LINE
8
BLACK
6
CONTINUOUS
10
117.2534829999999886
20
-68.1308779999999956
11
117.2543069999999972
21
-68.1424870000000027
0
LINE
8
BLACK
6
CONTINUOUS
10
117.2543069999999972
20
-68.1424870000000027
11
117.2587609999999927
21
-68.1532380000000018
0
LINE
8
BLACK
6
CONTINUOUS
10
117.2587609999999927
20
-68.1532380000000018
11
117.2587609999999927
21
-68.1913330000000002
0
LINE
8
BLACK
6
CONTINUOUS
10
117.2587609999999927
20
-68.1913330000000002
11
117.2543069999999972
21
-68.2020849999999967
0
LINE
8
BLACK
6
CONTINUOUS
10
117.2543069999999972
20
-68.2020849999999967
11
117.2534819999999911
21
-68.2136940000000038
0
LINE
8
BLACK
6
CONTINUOUS
10
117.2534819999999911
20
-68.2136940000000038
11
117.2344339999999931
21
-68.2517890000000023
0
LINE
8
BLACK
6
CONTINUOUS
10
117.2344339999999931
20
-68.2517890000000023
11
117.2282170000000008
21
-68.2571799999999911
0
LINE
8
BLACK
6
CONTINUOUS
10
117.2282170000000008
20
-68.2571799999999911
11
117.2250689999999906
21
-68.2647829999999942
0
LINE
8
BLACK
6
CONTINUOUS
10
117.2250689999999906
20
-68.2647829999999942
11
117.2060219999999902
21
-68.2838299999999947
0
LINE
8
BLACK
6
CONTINUOUS
10
117.2060219999999902
20
-68.2838299999999947
11
117.1984190000000012
21
-68.2869790000000023
0
LINE
8
BLACK
6
CONTINUOUS
10
117.1984190000000012
20
-68.2869790000000023
11
117.193025999999989
21
-68.2931980000000038
0
LINE
8
BLACK
6
CONTINUOUS
10
117.193025999999989
20
-68.2931980000000038
11
117.1549309999999906
21
-68.3122449999999901
0
LINE
8
BLACK
6
CONTINUOUS
10
117.1549309999999906
20
-68.3122449999999901
11
117.1492619999999931
21
-68.3126469999999983
0
LINE
8
BLACK
6
CONTINUOUS
10
117.1492619999999931
20
-68.3126469999999983
11
117.1446979999999911
21
-68.3160299999999978
0
LINE
8
BLACK
6
CONTINUOUS
10
117.1446979999999911
20
-68.3160299999999978
11
117.0738309999999984
21
-68.3337459999999908
0
LINE
8
BLACK
6
CONTINUOUS
10
117.0738309999999984
20
-68.3337459999999908
11
117.047900999999996
21
-68.3467119999999966
0
LINE
8
BLACK
6
CONTINUOUS
10
117.047900999999996
20
-68.3467119999999966
11
117.0403289999999998
21
-68.3542839999999927
0
LINE
8
BLACK
6
CONTINUOUS
10
117.0403289999999998
20
-68.3542839999999927
11
117.0301899999999904
21
-68.3745639999999923
0
LINE
8
BLACK
6
CONTINUOUS
10
117.0301899999999904
20
-68.3745639999999923
11
117.0301899999999904
21
-68.3890529999999899
0
LINE
8
BLACK
6
CONTINUOUS
10
117.0301899999999904
20
-68.3890529999999899
11
117.0403289999999998
21
-68.4093340000000012
0
LINE
8
BLACK
6
CONTINUOUS
10
117.0403289999999998
20
-68.4093340000000012
11
117.0478999999999985
21
-68.4169049999999999
0
LINE
8
BLACK
6
CONTINUOUS
10
117.0478999999999985
20
-68.4169049999999999
11
117.068183999999988
21
-68.4270470000000017
0
LINE
8
BLACK
6
CONTINUOUS
10
117.068183999999988
20
-68.4270470000000017
11
117.1435049999999904
21
-68.4270470000000017
0
LINE
8
BLACK
6
CONTINUOUS
10
117.1435049999999904
20
-68.4270470000000017
11
117.1929499999999962
21
-68.4105660000000029
0
LINE
8
BLACK
6
CONTINUOUS
10
117.1929499999999962
20
-68.4105660000000029
11
117.2311219999999992
21
-68.4132790000000028
0
LINE
8
BLACK
6
CONTINUOUS
10
117.2311219999999992
20
-68.4132790000000028
11
117.2561959999999885
21
-68.4421889999999991
0
LINE
8
BLACK
6
CONTINUOUS
10
117.2561959999999885
20
-68.4421889999999991
11
117.2534819999999911
21
-68.480361000000002
0
LINE
8
BLACK
6
CONTINUOUS
10
117.2534819999999911
20
-68.480361000000002
11
117.2245719999999949
21
-68.5054339999999939
0
LINE
8
BLACK
6
CONTINUOUS
10
117.2245719999999949
20
-68.5054339999999939
11
117.1674289999999985
21
-68.5244809999999944
0
LINE
8
BLACK
6
CONTINUOUS
10
117.1674289999999985
20
-68.5244809999999944
11
117.1592199999999906
21
-68.523896999999991
0
LINE
8
BLACK
6
CONTINUOUS
10
117.1592199999999906
20
-68.523896999999991
11
117.1516179999999991
21
-68.527046999999996
0
LINE
8
BLACK
6
CONTINUOUS
10
117.1516179999999991
20
-68.527046999999996
11
117.0563799999999901
21
-68.527046999999996
0
LINE
8
BLACK
6
CONTINUOUS
10
117.0563799999999901
20
-68.527046999999996
11
117.0456259999999986
21
-68.5225920000000031
0
LINE
8
BLACK
6
CONTINUOUS
10
117.0456259999999986
20
-68.5225920000000031
11
117.0340199999999982
21
-68.5217679999999945
0
LINE
8
BLACK
6
CONTINUOUS
10
117.0340199999999982
20
-68.5217679999999945
11
116.9959249999999997
21
-68.5027219999999915
0
LINE
8
BLACK
6
CONTINUOUS
10
116.9959249999999997
20
-68.5027219999999915
11
116.9905320000000017
21
-68.4965029999999899
0
LINE
8
BLACK
6
CONTINUOUS
10
116.9905320000000017
20
-68.4965029999999899
11
116.9829299999999961
21
-68.493354999999994
0
LINE
8
BLACK
6
CONTINUOUS
10
116.9829299999999961
20
-68.493354999999994
11
116.9638819999999981
21
-68.474306999999996
0
LINE
8
BLACK
6
CONTINUOUS
10
116.9638819999999981
20
-68.474306999999996
11
116.960731999999993
21
-68.4667039999999929
0
LINE
8
BLACK
6
CONTINUOUS
10
116.960731999999993
20
-68.4667039999999929
11
116.9545150000000007
21
-68.4613119999999924
0
LINE
8
BLACK
6
CONTINUOUS
10
116.9545150000000007
20
-68.4613119999999924
11
116.9354680000000002
21
-68.423216999999994
0
LINE
8
BLACK
6
CONTINUOUS
10
116.9354680000000002
20
-68.423216999999994
11
116.9346429999999941
21
-68.4116070000000036
0
LINE
8
BLACK
6
CONTINUOUS
10
116.9346429999999941
20
-68.4116070000000036
11
116.9301899999999961
21
-68.400857000000002
0
LINE
8
BLACK
6
CONTINUOUS
10
116.9301899999999961
20
-68.400857000000002
11
116.9301899999999961
21
-68.3627609999999919
0
LINE
8
BLACK
6
CONTINUOUS
10
116.9301899999999961
20
-68.3627609999999919
11
116.9346429999999941
21
-68.3520099999999928
0
LINE
8
BLACK
6
CONTINUOUS
10
116.9346429999999941
20
-68.3520099999999928
11
116.9354680000000002
21
-68.340401
0
LINE
8
BLACK
6
CONTINUOUS
10
116.9354680000000002
20
-68.340401
11
116.9545150000000007
21
-68.3023060000000015
0
LINE
8
BLACK
6
CONTINUOUS
10
116.9545150000000007
20
-68.3023060000000015
11
116.9607329999999905
21
-68.2969119999999918
0
LINE
8
BLACK
6
CONTINUOUS
10
116.9607329999999905
20
-68.2969119999999918
11
116.9638829999999956
21
-68.2893100000000004
0
LINE
8
BLACK
6
CONTINUOUS
10
116.9638829999999956
20
-68.2893100000000004
11
116.9829299999999961
21
-68.2702629999999999
0
LINE
8
BLACK
6
CONTINUOUS
10
116.9829299999999961
20
-68.2702629999999999
11
116.9905320000000017
21
-68.2671139999999923
0
LINE
8
BLACK
6
CONTINUOUS
10
116.9905320000000017
20
-68.2671139999999923
11
116.995923999999988
21
-68.2608979999999974
0
LINE
8
BLACK
6
CONTINUOUS
10
116.995923999999988
20
-68.2608979999999974
11
117.0340190000000007
21
-68.2418499999999995
0
LINE
8
BLACK
6
CONTINUOUS
10
117.0340190000000007
20
-68.2418499999999995
11
117.0396870000000007
21
-68.2414469999999937
0
LINE
8
BLACK
6
CONTINUOUS
10
117.0396870000000007
20
-68.2414469999999937
11
117.0442529999999977
21
-68.2380639999999943
0
LINE
8
BLACK
6
CONTINUOUS
10
117.0442529999999977
20
-68.2380639999999943
11
117.1151179999999954
21
-68.2203470000000038
0
LINE
8
BLACK
6
CONTINUOUS
10
117.1151179999999954
20
-68.2203470000000038
11
117.1410470000000004
21
-68.207382999999993
0
LINE
8
BLACK
6
CONTINUOUS
10
117.1410470000000004
20
-68.207382999999993
11
117.1486189999999965
21
-68.1998109999999969
0
LINE
8
BLACK
6
CONTINUOUS
10
117.1486189999999965
20
-68.1998109999999969
11
117.1587609999999984
21
-68.1795290000000023
0
LINE
8
BLACK
6
CONTINUOUS
10
117.1587609999999984
20
-68.1795290000000023
11
117.1587609999999984
21
-68.1650410000000022
0
LINE
8
BLACK
6
CONTINUOUS
10
117.1587609999999984
20
-68.1650410000000022
11
117.148619999999994
21
-68.1447599999999909
0
LINE
8
BLACK
6
CONTINUOUS
10
117.148619999999994
20
-68.1447599999999909
11
117.1410479999999978
21
-68.1371869999999973
0
LINE
8
BLACK
6
CONTINUOUS
10
117.1410479999999978
20
-68.1371869999999973
11
117.1207679999999982
21
-68.1270469999999904
0
LINE
8
BLACK
6
CONTINUOUS
10
117.1207679999999982
20
-68.1270469999999904
11
117.0454459999999983
21
-68.1270469999999904
0
LINE
8
BLACK
6
CONTINUOUS
10
117.0454459999999983
20
-68.1270469999999904
11
116.9960019999999901
21
-68.1435290000000009
0
LINE
8
BLACK
6
CONTINUOUS
10
116.9960019999999901
20
-68.1435290000000009
11
116.9578300000000013
21
-68.1408160000000009
0
LINE
8
BLACK
6
CONTINUOUS
10
116.9578300000000013
20
-68.1408160000000009
11
116.9327559999999977
21
-68.1119070000000022
0
LINE
8
BLACK
6
CONTINUOUS
10
116.9327559999999977
20
-68.1119070000000022
11
116.9354689999999977
21
-68.0737349999999992
0
LINE
8
BLACK
6
CONTINUOUS
10
116.9354689999999977
20
-68.0737349999999992
11
116.9643779999999964
21
-68.0486609999999956
0
LINE
8
BLACK
6
CONTINUOUS
10
116.9643779999999964
20
-68.0486609999999956
11
117.0215199999999953
21
-68.0296129999999977
0
LINE
8
BLACK
6
CONTINUOUS
10
117.0215199999999953
20
-68.0296129999999977
11
117.0297279999999915
21
-68.0301960000000037
0
LINE
8
BLACK
6
CONTINUOUS
10
117.0297279999999915
20
-68.0301960000000037
11
117.0373319999999921
21
-68.027046999999996
0
LINE
8
BLACK
6
CONTINUOUS
10
117.0373319999999921
20
-68.027046999999996
11
117.1325709999999987
21
-68.027046999999996
0
LINE
8
BLACK
6
CONTINUOUS
10
117.1325709999999987
20
-68.027046999999996
11
117.1433229999999952
21
-68.0314999999999941
0
LINE
8
BLACK
6
CONTINUOUS
10
116.7645859999999942
20
-63.8483069999999984
11
116.7821330000000017
21
-63.8965159999999983
0
LINE
8
BLACK
6
CONTINUOUS
10
116.7821330000000017
20
-63.8965159999999983
11
116.7821330000000017
21
-64.6584199999999925
0
LINE
8
BLACK
6
CONTINUOUS
10
116.7821330000000017
20
-64.6584199999999925
11
116.7776099999999957
21
-64.6840720000000005
0
LINE
8
BLACK
6
CONTINUOUS
10
116.7776099999999957
20
-64.6840720000000005
11
116.7446329999999932
21
-64.7233719999999977
0
LINE
8
BLACK
6
CONTINUOUS
10
116.7446329999999932
20
-64.7233719999999977
11
116.6941089999999974
21
-64.7322810000000004
0
LINE
8
BLACK
6
CONTINUOUS
10
116.6941089999999974
20
-64.7322810000000004
11
116.6496799999999894
21
-64.7066289999999924
0
LINE
8
BLACK
6
CONTINUOUS
10
116.6496799999999894
20
-64.7066289999999924
11
116.6321329999999961
21
-64.6584199999999925
0
LINE
8
BLACK
6
CONTINUOUS
10
116.6321329999999961
20
-64.6584199999999925
11
116.6321329999999961
21
-63.8965159999999983
0
LINE
8
BLACK
6
CONTINUOUS
10
116.6321329999999961
20
-63.8965159999999983
11
116.6366559999999879
21
-63.8708639999999974
0
LINE
8
BLACK
6
CONTINUOUS
10
116.6366559999999879
20
-63.8708639999999974
11
116.6696329999999904
21
-63.8315640000000002
0
LINE
8
BLACK
6
CONTINUOUS
10
116.6696329999999904
20
-63.8315640000000002
11
116.7201570000000004
21
-63.8226549999999975
0
LINE
8
BLACK
6
CONTINUOUS
10
116.7201570000000004
20
-63.8226549999999975
11
116.7645859999999942
21
-63.8483069999999984
0
LINE
8
BLACK
6
CONTINUOUS
10
116.7645859999999942
20
-53.9423069999999996
11
116.7821330000000017
21
-53.9905159999999995
0
LINE
8
BLACK
6
CONTINUOUS
10
116.7821330000000017
20
-53.9905159999999995
11
116.7821330000000017
21
-54.2964679999999973
0
LINE
8
BLACK
6
CONTINUOUS
10
116.7821330000000017
20
-54.2964679999999973
11
117.0880849999999924
21
-54.2964679999999973
0
LINE
8
BLACK
6
CONTINUOUS
10
117.0880849999999924
20
-54.2964679999999973
11
117.1137370000000004
21
-54.3009909999999962
0
LINE
8
BLACK
6
CONTINUOUS
10
117.1137370000000004
20
-54.3009909999999962
11
117.1530369999999976
21
-54.3339679999999987
0
LINE
8
BLACK
6
CONTINUOUS
10
117.1530369999999976
20
-54.3339679999999987
11
117.1619460000000004
21
-54.3844919999999945
0
LINE
8
BLACK
6
CONTINUOUS
10
117.1619460000000004
20
-54.3844919999999945
11
117.1362939999999924
21
-54.4289209999999954
0
LINE
8
BLACK
6
CONTINUOUS
10
117.1362939999999924
20
-54.4289209999999954
11
117.0880849999999924
21
-54.4464679999999959
0
LINE
8
BLACK
6
CONTINUOUS
10
117.0880849999999924
20
-54.4464679999999959
11
116.7821330000000017
21
-54.4464679999999959
0
LINE
8
BLACK
6
CONTINUOUS
10
116.7821330000000017
20
-54.4464679999999959
11
116.7821330000000017
21
-54.7524200000000008
0
LINE
8
BLACK
6
CONTINUOUS
10
116.7821330000000017
20
-54.7524200000000008
11
116.7776099999999957
21
-54.7780719999999945
0
LINE
8
BLACK
6
CONTINUOUS
10
116.7776099999999957
20
-54.7780719999999945
11
116.7446329999999932
21
-54.8173719999999989
0
LINE
8
BLACK
6
CONTINUOUS
10
116.7446329999999932
20
-54.8173719999999989
11
116.6941089999999974
21
-54.8262809999999945
0
LINE
8
BLACK
6
CONTINUOUS
10
116.6941089999999974
20
-54.8262809999999945
11
116.6496799999999894
21
-54.8006290000000007
0
LINE
8
BLACK
6
CONTINUOUS
10
116.6496799999999894
20
-54.8006290000000007
11
116.6321329999999961
21
-54.7524200000000008
0
LINE
8
BLACK
6
CONTINUOUS
10
116.6321329999999961
20
-54.7524200000000008
11
116.6321329999999961
21
-54.4464679999999959
0
LINE
8
BLACK
6
CONTINUOUS
10
116.6321329999999961
20
-54.4464679999999959
11
116.3261799999999937
21
-54.4464679999999959
0
LINE
8
BLACK
6
CONTINUOUS
10
116.3261799999999937
20
-54.4464679999999959
11
116.3005279999999999
21
-54.4419449999999969
0
LINE
8
BLACK
6
CONTINUOUS
10
116.3005279999999999
20
-54.4419449999999969
11
116.2612279999999885
21
-54.4089679999999944
0
LINE
8
BLACK
6
CONTINUOUS
10
116.2612279999999885
20
-54.4089679999999944
11
116.252319
21
-54.3584439999999987
0
LINE
8
BLACK
6
CONTINUOUS
10
116.252319
20
-54.3584439999999987
11
116.2779709999999938
21
-54.3140149999999977
0
LINE
8
BLACK
6
CONTINUOUS
10
116.2779709999999938
20
-54.3140149999999977
11
116.3261799999999937
21
-54.2964679999999973
0
LINE
8
BLACK
6
CONTINUOUS
10
116.3261799999999937
20
-54.2964679999999973
11
116.6321329999999961
21
-54.2964679999999973
0
LINE
8
BLACK
6
CONTINUOUS
10
116.6321329999999961
20
-54.2964679999999973
11
116.6321329999999961
21
-53.9905159999999995
0
LINE
8
BLACK
6
CONTINUOUS
10
116.6321329999999961
20
-53.9905159999999995
11
116.6366559999999879
21
-53.9648639999999986
0
LINE
8
BLACK
6
CONTINUOUS
10
116.6366559999999879
20
-53.9648639999999986
11
116.6696329999999904
21
-53.9255639999999943
0
LINE
8
BLACK
6
CONTINUOUS
10
116.6696329999999904
20
-53.9255639999999943
11
116.7201570000000004
21
-53.9166549999999987
0
LINE
8
BLACK
6
CONTINUOUS
10
116.7201570000000004
20
-53.9166549999999987
11
116.7645859999999942
21
-53.9423069999999996
0
LINE
8
BLACK
6
CONTINUOUS
10
99.6810409999999933
20
-44.9057169999999957
11
99.6843239999999895
21
-44.9051389999999984
0
LINE
8
BLACK
6
CONTINUOUS
10
99.6843239999999895
20
-44.9051389999999984
11
99.6872089999999957
21
-44.9068049999999985
0
LINE
8
BLACK
6
CONTINUOUS
10
99.6872089999999957
20
-44.9068049999999985
11
99.696951999999996
21
-44.9085229999999953
0
LINE
8
BLACK
6
CONTINUOUS
10
99.696951999999996
20
-44.9085229999999953
11
99.7118789999999962
21
-44.921047999999999
0
LINE
8
BLACK
6
CONTINUOUS
10
99.7118789999999962
20
-44.921047999999999
11
99.7287529999999975
21
-44.9307909999999993
0
LINE
8
BLACK
6
CONTINUOUS
10
99.7287529999999975
20
-44.9307909999999993
11
99.7310669999999959
21
-44.937148999999998
0
LINE
8
BLACK
6
CONTINUOUS
10
99.7310669999999959
20
-44.937148999999998
11
99.7362519999999932
21
-44.9414999999999978
0
LINE
8
BLACK
6
CONTINUOUS
10
99.7362519999999932
20
-44.9414999999999978
11
99.7396359999999902
21
-44.9606909999999971
0
LINE
8
BLACK
6
CONTINUOUS
10
99.7396359999999902
20
-44.9606909999999971
11
99.7462999999999909
21
-44.9789999999999992
0
LINE
8
BLACK
6
CONTINUOUS
10
99.7462999999999909
20
-44.9789999999999992
11
99.7462999999999909
21
-46.5039999999999978
0
LINE
8
BLACK
6
CONTINUOUS
10
99.7462999999999909
20
-46.5039999999999978
11
99.7445819999999941
21
-46.513740999999996
0
LINE
8
BLACK
6
CONTINUOUS
10
99.7445819999999941
20
-46.513740999999996
11
99.745160999999996
21
-46.5170239999999993
0
LINE
8
BLACK
6
CONTINUOUS
10
99.745160999999996
20
-46.5170239999999993
11
99.7434939999999983
21
-46.5199089999999984
0
LINE
8
BLACK
6
CONTINUOUS
10
99.7434939999999983
20
-46.5199089999999984
11
99.741776999999999
21
-46.5296519999999987
0
LINE
8
BLACK
6
CONTINUOUS
10
99.741776999999999
20
-46.5296519999999987
11
99.7292509999999908
21
-46.5445789999999988
0
LINE
8
BLACK
6
CONTINUOUS
10
99.7292509999999908
20
-46.5445789999999988
11
99.7195090000000022
21
-46.5614530000000002
0
LINE
8
BLACK
6
CONTINUOUS
10
99.7195090000000022
20
-46.5614530000000002
11
99.7131499999999988
21
-46.5637669999999986
0
LINE
8
BLACK
6
CONTINUOUS
10
99.7131499999999988
20
-46.5637669999999986
11
99.7087999999999965
21
-46.5689519999999959
0
LINE
8
BLACK
6
CONTINUOUS
10
99.7087999999999965
20
-46.5689519999999959
11
99.6896079999999927
21
-46.572336
0
LINE
8
BLACK
6
CONTINUOUS
10
99.6896079999999927
20
-46.572336
11
99.6713000000000022
21
-46.5790000000000006
0
LINE
8
BLACK
6
CONTINUOUS
10
99.6713000000000022
20
-46.5790000000000006
11
96.7423999999999893
21
-46.5790000000000006
0
LINE
8
BLACK
6
CONTINUOUS
10
96.7423999999999893
20
-46.5790000000000006
11
96.7167479999999955
21
-46.5744769999999946
0
LINE
8
BLACK
6
CONTINUOUS
10
96.7167479999999955
20
-46.5744769999999946
11
96.6774479999999983
21
-46.5414999999999992
0
LINE
8
BLACK
6
CONTINUOUS
10
96.6774479999999983
20
-46.5414999999999992
11
96.6685389999999956
21
-46.4909759999999963
0
LINE
8
BLACK
6
CONTINUOUS
10
96.6685389999999956
20
-46.4909759999999963
11
96.6941909999999893
21
-46.4465469999999954
0
LINE
8
BLACK
6
CONTINUOUS
10
96.6941909999999893
20
-46.4465469999999954
11
96.7423999999999893
21
-46.4289999999999949
0
LINE
8
BLACK
6
CONTINUOUS
10
96.7423999999999893
20
-46.4289999999999949
11
99.5962999999999994
21
-46.4289999999999949
0
LINE
8
BLACK
6
CONTINUOUS
10
99.5962999999999994
20
-46.4289999999999949
11
99.5962999999999994
21
-45.0539999999999949
0
LINE
8
BLACK
6
CONTINUOUS
10
99.5962999999999994
20
-45.0539999999999949
11
96.7423999999999893
21
-45.0539999999999949
0
LINE
8
BLACK
6
CONTINUOUS
10
96.7423999999999893
20
-45.0539999999999949
11
96.7167479999999955
21
-45.049476999999996
0
LINE
8
BLACK
6
CONTINUOUS
10
96.7167479999999955
20
-45.049476999999996
11
96.6774479999999983
21
-45.0165000000000006
0
LINE
8
BLACK
6
CONTINUOUS
10
96.6774479999999983
20
-45.0165000000000006
11
96.6685389999999956
21
-44.9659759999999977
0
LINE
8
BLACK
6
CONTINUOUS
10
96.6685389999999956
20
-44.9659759999999977
11
96.6941909999999893
21
-44.9215469999999968
0
LINE
8
BLACK
6
CONTINUOUS
10
96.6941909999999893
20
-44.9215469999999968
11
96.7423999999999893
21
-44.9039999999999964
0
LINE
8
BLACK
6
CONTINUOUS
10
96.7423999999999893
20
-44.9039999999999964
11
99.6713000000000022
21
-44.9039999999999964
0
LINE
8
BLACK
6
CONTINUOUS
10
99.6713000000000022
20
-44.9039999999999964
11
99.6810409999999933
21
-44.9057169999999957
0
LINE
8
BLACK
6
CONTINUOUS
10
97.2592889999999954
20
-44.1334159999999969
11
97.2643389999999926
21
-44.1324180000000013
0
LINE
8
BLACK
6
CONTINUOUS
10
97.2643389999999926
20
-44.1324180000000013
11
97.2764359999999897
21
-44.1405189999999976
0
LINE
8
BLACK
6
CONTINUOUS
10
97.2764359999999897
20
-44.1405189999999976
11
97.2898890000000023
21
-44.1460919999999959
0
LINE
8
BLACK
6
CONTINUOUS
10
97.2898890000000023
20
-44.1460919999999959
11
97.2918579999999906
21
-44.1508469999999988
0
LINE
8
BLACK
6
CONTINUOUS
10
97.2918579999999906
20
-44.1508469999999988
11
97.29613599999999
21
-44.1537119999999987
0
LINE
8
BLACK
6
CONTINUOUS
10
97.29613599999999
20
-44.1537119999999987
11
97.3314850000000007
21
-44.2067349999999948
0
LINE
8
BLACK
6
CONTINUOUS
10
97.3314850000000007
20
-44.2067349999999948
11
97.3603430000000003
21
-44.2355930000000015
0
LINE
8
BLACK
6
CONTINUOUS
10
97.3603430000000003
20
-44.2355930000000015
11
97.3911809999999889
21
-44.2510119999999958
0
LINE
8
BLACK
6
CONTINUOUS
10
97.3911809999999889
20
-44.2510119999999958
11
97.416253999999995
21
-44.2799219999999991
0
LINE
8
BLACK
6
CONTINUOUS
10
97.416253999999995
20
-44.2799219999999991
11
97.4135409999999951
21
-44.318093999999995
0
LINE
8
BLACK
6
CONTINUOUS
10
97.4135409999999951
20
-44.318093999999995
11
97.3846309999999988
21
-44.3431670000000011
0
LINE
8
BLACK
6
CONTINUOUS
10
97.3846309999999988
20
-44.3431670000000011
11
97.3464589999999959
21
-44.3404540000000011
0
LINE
8
BLACK
6
CONTINUOUS
10
97.3464589999999959
20
-44.3404540000000011
11
97.3083639999999974
21
-44.3214059999999961
0
LINE
8
BLACK
6
CONTINUOUS
10
97.3083639999999974
20
-44.3214059999999961
11
97.3045339999999896
21
-44.3169889999999995
0
LINE
8
BLACK
6
CONTINUOUS
10
97.3045339999999896
20
-44.3169889999999995
11
97.3045339999999896
21
-44.531447
0
LINE
8
BLACK
6
CONTINUOUS
10
97.3045339999999896
20
-44.531447
11
97.3688199999999995
21
-44.531447
0
LINE
8
BLACK
6
CONTINUOUS
10
97.3688199999999995
20
-44.531447
11
97.4041749999999951
21
-44.5460919999999945
0
LINE
8
BLACK
6
CONTINUOUS
10
97.4041749999999951
20
-44.5460919999999945
11
97.4188199999999966
21
-44.5814469999999972
0
LINE
8
BLACK
6
CONTINUOUS
10
97.4188199999999966
20
-44.5814469999999972
11
97.4041749999999951
21
-44.6168019999999999
0
LINE
8
BLACK
6
CONTINUOUS
10
97.4041749999999951
20
-44.6168019999999999
11
97.3688199999999995
21
-44.6314470000000014
0
LINE
8
BLACK
6
CONTINUOUS
10
97.3688199999999995
20
-44.6314470000000014
11
97.2545339999999925
21
-44.6314470000000014
0
LINE
8
BLACK
6
CONTINUOUS
10
97.2545339999999925
20
-44.6314470000000014
11
97.1402489999999972
21
-44.6314470000000014
0
LINE
8
BLACK
6
CONTINUOUS
10
97.1402489999999972
20
-44.6314470000000014
11
97.1048940000000016
21
-44.6168019999999999
0
LINE
8
BLACK
6
CONTINUOUS
10
97.1048940000000016
20
-44.6168019999999999
11
97.090249
21
-44.5814469999999972
0
LINE
8
BLACK
6
CONTINUOUS
10
97.090249
20
-44.5814469999999972
11
97.1048940000000016
21
-44.5460919999999945
0
LINE
8
BLACK
6
CONTINUOUS
10
97.1048940000000016
20
-44.5460919999999945
11
97.1402489999999972
21
-44.531447
0
LINE
8
BLACK
6
CONTINUOUS
10
97.1402489999999972
20
-44.531447
11
97.2045339999999953
21
-44.531447
0
LINE
8
BLACK
6
CONTINUOUS
10
97.2045339999999953
20
-44.531447
11
97.2045339999999953
21
-44.1814469999999986
0
LINE
8
BLACK
6
CONTINUOUS
10
97.2045339999999953
20
-44.1814469999999986
11
97.2065029999999979
21
-44.1766909999999982
0
LINE
8
BLACK
6
CONTINUOUS
10
97.2065029999999979
20
-44.1766909999999982
11
97.2055050000000023
21
-44.1716419999999985
0
LINE
8
BLACK
6
CONTINUOUS
10
97.2055050000000023
20
-44.1716419999999985
11
97.2136059999999986
21
-44.1595439999999968
0
LINE
8
BLACK
6
CONTINUOUS
10
97.2136059999999986
20
-44.1595439999999968
11
97.2191789999999969
21
-44.1460919999999959
0
LINE
8
BLACK
6
CONTINUOUS
10
97.2191789999999969
20
-44.1460919999999959
11
97.2239339999999999
21
-44.1441219999999959
0
LINE
8
BLACK
6
CONTINUOUS
10
97.2239339999999999
20
-44.1441219999999959
11
97.2267989999999998
21
-44.1398450000000011
0
LINE
8
BLACK
6
CONTINUOUS
10
97.2267989999999998
20
-44.1398450000000011
11
97.2410809999999941
21
-44.1370189999999951
0
LINE
8
BLACK
6
CONTINUOUS
10
97.2410809999999941
20
-44.1370189999999951
11
97.2545339999999925
21
-44.1314470000000014
0
LINE
8
BLACK
6
CONTINUOUS
10
97.2545339999999925
20
-44.1314470000000014
11
97.2592889999999954
21
-44.1334159999999969
0
LINE
8
BLACK
6
CONTINUOUS
10
97.7851269999999886
20
-44.1460919999999959
11
97.7997719999999902
21
-44.1814469999999986
0
LINE
8
BLACK
6
CONTINUOUS
10
97.7997719999999902
20
-44.1814469999999986
11
97.7997719999999902
21
-44.5814469999999972
0
LINE
8
BLACK
6
CONTINUOUS
10
97.7997719999999902
20
-44.5814469999999972
11
97.7851269999999886
21
-44.6168019999999999
0
LINE
8
BLACK
6
CONTINUOUS
10
97.7851269999999886
20
-44.6168019999999999
11
97.749771999999993
21
-44.6314470000000014
0
LINE
8
BLACK
6
CONTINUOUS
10
97.749771999999993
20
-44.6314470000000014
11
97.6545339999999982
21
-44.6314470000000014
0
LINE
8
BLACK
6
CONTINUOUS
10
97.6545339999999982
20
-44.6314470000000014
11
97.646930999999995
21
-44.6282969999999963
0
LINE
8
BLACK
6
CONTINUOUS
10
97.646930999999995
20
-44.6282969999999963
11
97.6387229999999988
21
-44.6288809999999998
0
LINE
8
BLACK
6
CONTINUOUS
10
97.6387229999999988
20
-44.6288809999999998
11
97.5815800000000024
21
-44.6098339999999993
0
LINE
8
BLACK
6
CONTINUOUS
10
97.5815800000000024
20
-44.6098339999999993
11
97.5727869999999911
21
-44.6022079999999974
0
LINE
8
BLACK
6
CONTINUOUS
10
97.5727869999999911
20
-44.6022079999999974
11
97.5620349999999945
21
-44.5977549999999994
0
LINE
8
BLACK
6
CONTINUOUS
10
97.5620349999999945
20
-44.5977549999999994
11
97.5239399999999961
21
-44.5596589999999964
0
LINE
8
BLACK
6
CONTINUOUS
10
97.5239399999999961
20
-44.5596589999999964
11
97.520789999999991
21
-44.5520549999999957
0
LINE
8
BLACK
6
CONTINUOUS
10
97.520789999999991
20
-44.5520549999999957
11
97.5145739999999961
21
-44.5466639999999998
0
LINE
8
BLACK
6
CONTINUOUS
10
97.5145739999999961
20
-44.5466639999999998
11
97.4955269999999956
21
-44.5085690000000014
0
LINE
8
BLACK
6
CONTINUOUS
10
97.4955269999999956
20
-44.5085690000000014
11
97.4951239999999899
21
-44.5028999999999968
0
LINE
8
BLACK
6
CONTINUOUS
10
97.4951239999999899
20
-44.5028999999999968
11
97.4917420000000021
21
-44.4983359999999948
0
LINE
8
BLACK
6
CONTINUOUS
10
97.4917420000000021
20
-44.4983359999999948
11
97.47269399999999
21
-44.4221459999999979
0
LINE
8
BLACK
6
CONTINUOUS
10
97.47269399999999
20
-44.4221459999999979
11
97.4736269999999934
21
-44.4158749999999998
0
LINE
8
BLACK
6
CONTINUOUS
10
97.4736269999999934
20
-44.4158749999999998
11
97.4712009999999935
21
-44.4100189999999984
0
LINE
8
BLACK
6
CONTINUOUS
10
97.4712009999999935
20
-44.4100189999999984
11
97.4712009999999935
21
-44.3528759999999949
0
LINE
8
BLACK
6
CONTINUOUS
10
97.4712009999999935
20
-44.3528759999999949
11
97.4736269999999934
21
-44.347018999999996
0
LINE
8
BLACK
6
CONTINUOUS
10
97.4736269999999934
20
-44.347018999999996
11
97.47269399999999
21
-44.3407489999999953
0
LINE
8
BLACK
6
CONTINUOUS
10
97.47269399999999
20
-44.3407489999999953
11
97.4917420000000021
21
-44.264558000000001
0
LINE
8
BLACK
6
CONTINUOUS
10
97.4917420000000021
20
-44.264558000000001
11
97.4951239999999899
21
-44.2599930000000015
0
LINE
8
BLACK
6
CONTINUOUS
10
97.4951239999999899
20
-44.2599930000000015
11
97.4955269999999956
21
-44.2543250000000015
0
LINE
8
BLACK
6
CONTINUOUS
10
97.4955269999999956
20
-44.2543250000000015
11
97.5145739999999961
21
-44.2162299999999959
0
LINE
8
BLACK
6
CONTINUOUS
10
97.5145739999999961
20
-44.2162299999999959
11
97.5207910000000027
21
-44.2108369999999979
0
LINE
8
BLACK
6
CONTINUOUS
10
97.5207910000000027
20
-44.2108369999999979
11
97.5239409999999936
21
-44.2032349999999994
0
LINE
8
BLACK
6
CONTINUOUS
10
97.5239409999999936
20
-44.2032349999999994
11
97.5620349999999945
21
-44.165140000000001
0
LINE
8
BLACK
6
CONTINUOUS
10
97.5620349999999945
20
-44.165140000000001
11
97.5727869999999911
21
-44.1606859999999983
0
LINE
8
BLACK
6
CONTINUOUS
10
97.5727869999999911
20
-44.1606859999999983
11
97.5815789999999907
21
-44.153061000000001
0
LINE
8
BLACK
6
CONTINUOUS
10
97.5815789999999907
20
-44.153061000000001
11
97.6387220000000013
21
-44.1340129999999959
0
LINE
8
BLACK
6
CONTINUOUS
10
97.6387220000000013
20
-44.1340129999999959
11
97.6469299999999976
21
-44.1345959999999948
0
LINE
8
BLACK
6
CONTINUOUS
10
97.6469299999999976
20
-44.1345959999999948
11
97.6545339999999982
21
-44.1314470000000014
0
LINE
8
BLACK
6
CONTINUOUS
10
97.6545339999999982
20
-44.1314470000000014
11
97.749771999999993
21
-44.1314470000000014
0
LINE
8
BLACK
6
CONTINUOUS
10
97.749771999999993
20
-44.1314470000000014
11
97.7851269999999886
21
-44.1460919999999959
0
LINE
8
BLACK
6
CONTINUOUS
10
97.6243999999999943
20
-44.2441959999999952
11
97.6003879999999953
21
-44.2682069999999968
0
LINE
8
BLACK
6
CONTINUOUS
10
97.6003879999999953
20
-44.2682069999999968
11
97.5874239999999986
21
-44.2941369999999992
0
LINE
8
BLACK
6
CONTINUOUS
10
97.5874239999999986
20
-44.2941369999999992
11
97.5712010000000021
21
-44.3590309999999945
0
LINE
8
BLACK
6
CONTINUOUS
10
97.5712010000000021
20
-44.3590309999999945
11
97.5712010000000021
21
-44.4038630000000012
0
LINE
8
BLACK
6
CONTINUOUS
10
97.5712010000000021
20
-44.4038630000000012
11
97.5874239999999986
21
-44.4687559999999991
0
LINE
8
BLACK
6
CONTINUOUS
10
97.5874239999999986
20
-44.4687559999999991
11
97.6003869999999978
21
-44.4946839999999995
0
LINE
8
BLACK
6
CONTINUOUS
10
97.6003869999999978
20
-44.4946839999999995
11
97.6244009999999918
21
-44.5186980000000005
0
LINE
8
BLACK
6
CONTINUOUS
10
97.6244009999999918
20
-44.5186980000000005
11
97.6626469999999927
21
-44.531447
0
LINE
8
BLACK
6
CONTINUOUS
10
97.6626469999999927
20
-44.531447
11
97.6997719999999958
21
-44.531447
0
LINE
8
BLACK
6
CONTINUOUS
10
97.6997719999999958
20
-44.531447
11
97.6997719999999958
21
-44.2314469999999957
0
LINE
8
BLACK
6
CONTINUOUS
10
97.6997719999999958
20
-44.2314469999999957
11
97.6626479999999901
21
-44.2314469999999957
0
LINE
8
BLACK
6
CONTINUOUS
10
97.6626479999999901
20
-44.2314469999999957
11
97.6243999999999943
21
-44.2441959999999952
  0
ENDSEC
  0
EOF
