<?xml version="1.0" standalone="no"?>
 <!DOCTYPE svg PUBLIC "-//W3C//DTD SVG 1.1//EN" 
 "http://www.w3.org/Graphics/SVG/1.1/DTD/svg11.dtd"> 
<svg
  xmlns:svg="http://www.w3.org/2000/svg"
  xmlns="http://www.w3.org/2000/svg"
  xmlns:xlink="http://www.w3.org/1999/xlink"
  version="1.1"
  width="210.007200mm" height="148.005800mm" viewBox="0.000000 0.000000 210.007200 148.005800">
<title>SVG Image created as PQ1_TopBoard-B_Silkscreen.svg date 2024/01/09 12:00:07 </title>
  <desc>Image generated by PCBNEW </desc>
<g style="fill:#000000; fill-opacity:1.000000;stroke:#000000; stroke-opacity:1.000000;
stroke-linecap:round; stroke-linejoin:round;"
 transform="translate(0 0) scale(1 1)">
</g>
<g style="fill:#000000; fill-opacity:0.0; 
stroke:#000000; stroke-width:0.000000; stroke-opacity:1; 
stroke-linecap:round; stroke-linejoin:round;">
</g>
<g style="fill:#000000; fill-opacity:0.0; 
stroke:#000000; stroke-width:0.200000; stroke-opacity:1; 
stroke-linecap:round; stroke-linejoin:round;">
<path style="fill:#000000; fill-opacity:0.0; 
stroke:#000000; stroke-width:0.200000; stroke-opacity:1; 
stroke-linecap:round; stroke-linejoin:round;fill:none"
d="M 88.349400,43.861200
117.149400,43.861200
117.149400,72.661200
88.349400,72.661200
Z" /> 
</g>
<g style="fill:#000000; fill-opacity:0.0; 
stroke:#000000; stroke-width:0.203000; stroke-opacity:1; 
stroke-linecap:round; stroke-linejoin:round;">
<text x="115.017800" y="76.276200"
transform="scale(-1 1) translate(-230.035600 0)"
textLength="25.070408" font-size="2.709333" lengthAdjust="spacingAndGlyphs"
text-anchor="start" opacity="0">TOP BOARD PQ1</text>
<g class="stroked-text"><desc>TOP BOARD PQ1</desc>
<path d="M114.690724 74.157685
L113.529581 74.157685
" />
<path d="M114.110152 76.189685
L114.110152 74.157685
" />
<path d="M112.465200 74.157685
L112.078153 74.157685
" />
<path d="M112.078153 74.157685
L111.884629 74.254447
" />
<path d="M111.884629 74.254447
L111.691105 74.447971
" />
<path d="M111.691105 74.447971
L111.594343 74.835019
" />
<path d="M111.594343 74.835019
L111.594343 75.512352
" />
<path d="M111.594343 75.512352
L111.691105 75.899400
" />
<path d="M111.691105 75.899400
L111.884629 76.092924
" />
<path d="M111.884629 76.092924
L112.078153 76.189685
" />
<path d="M112.078153 76.189685
L112.465200 76.189685
" />
<path d="M112.465200 76.189685
L112.658724 76.092924
" />
<path d="M112.658724 76.092924
L112.852248 75.899400
" />
<path d="M112.852248 75.899400
L112.949010 75.512352
" />
<path d="M112.949010 75.512352
L112.949010 74.835019
" />
<path d="M112.949010 74.835019
L112.852248 74.447971
" />
<path d="M112.852248 74.447971
L112.658724 74.254447
" />
<path d="M112.658724 74.254447
L112.465200 74.157685
" />
<path d="M110.723486 76.189685
L110.723486 74.157685
" />
<path d="M110.723486 74.157685
L109.949391 74.157685
" />
<path d="M109.949391 74.157685
L109.755867 74.254447
" />
<path d="M109.755867 74.254447
L109.659105 74.351209
" />
<path d="M109.659105 74.351209
L109.562343 74.544733
" />
<path d="M109.562343 74.544733
L109.562343 74.835019
" />
<path d="M109.562343 74.835019
L109.659105 75.028543
" />
<path d="M109.659105 75.028543
L109.755867 75.125304
" />
<path d="M109.755867 75.125304
L109.949391 75.222066
" />
<path d="M109.949391 75.222066
L110.723486 75.222066
" />
<path d="M106.465963 75.125304
L106.175677 75.222066
" />
<path d="M106.175677 75.222066
L106.078915 75.318828
" />
<path d="M106.078915 75.318828
L105.982153 75.512352
" />
<path d="M105.982153 75.512352
L105.982153 75.802638
" />
<path d="M105.982153 75.802638
L106.078915 75.996162
" />
<path d="M106.078915 75.996162
L106.175677 76.092924
" />
<path d="M106.175677 76.092924
L106.369201 76.189685
" />
<path d="M106.369201 76.189685
L107.143296 76.189685
" />
<path d="M107.143296 76.189685
L107.143296 74.157685
" />
<path d="M107.143296 74.157685
L106.465963 74.157685
" />
<path d="M106.465963 74.157685
L106.272439 74.254447
" />
<path d="M106.272439 74.254447
L106.175677 74.351209
" />
<path d="M106.175677 74.351209
L106.078915 74.544733
" />
<path d="M106.078915 74.544733
L106.078915 74.738257
" />
<path d="M106.078915 74.738257
L106.175677 74.931781
" />
<path d="M106.175677 74.931781
L106.272439 75.028543
" />
<path d="M106.272439 75.028543
L106.465963 75.125304
" />
<path d="M106.465963 75.125304
L107.143296 75.125304
" />
<path d="M104.724248 74.157685
L104.337201 74.157685
" />
<path d="M104.337201 74.157685
L104.143677 74.254447
" />
<path d="M104.143677 74.254447
L103.950153 74.447971
" />
<path d="M103.950153 74.447971
L103.853391 74.835019
" />
<path d="M103.853391 74.835019
L103.853391 75.512352
" />
<path d="M103.853391 75.512352
L103.950153 75.899400
" />
<path d="M103.950153 75.899400
L104.143677 76.092924
" />
<path d="M104.143677 76.092924
L104.337201 76.189685
" />
<path d="M104.337201 76.189685
L104.724248 76.189685
" />
<path d="M104.724248 76.189685
L104.917772 76.092924
" />
<path d="M104.917772 76.092924
L105.111296 75.899400
" />
<path d="M105.111296 75.899400
L105.208058 75.512352
" />
<path d="M105.208058 75.512352
L105.208058 74.835019
" />
<path d="M105.208058 74.835019
L105.111296 74.447971
" />
<path d="M105.111296 74.447971
L104.917772 74.254447
" />
<path d="M104.917772 74.254447
L104.724248 74.157685
" />
<path d="M103.079296 75.609114
L102.111677 75.609114
" />
<path d="M103.272820 76.189685
L102.595486 74.157685
" />
<path d="M102.595486 74.157685
L101.918153 76.189685
" />
<path d="M100.079677 76.189685
L100.757010 75.222066
" />
<path d="M101.240820 76.189685
L101.240820 74.157685
" />
<path d="M101.240820 74.157685
L100.466725 74.157685
" />
<path d="M100.466725 74.157685
L100.273201 74.254447
" />
<path d="M100.273201 74.254447
L100.176439 74.351209
" />
<path d="M100.176439 74.351209
L100.079677 74.544733
" />
<path d="M100.079677 74.544733
L100.079677 74.835019
" />
<path d="M100.079677 74.835019
L100.176439 75.028543
" />
<path d="M100.176439 75.028543
L100.273201 75.125304
" />
<path d="M100.273201 75.125304
L100.466725 75.222066
" />
<path d="M100.466725 75.222066
L101.240820 75.222066
" />
<path d="M99.208820 76.189685
L99.208820 74.157685
" />
<path d="M99.208820 74.157685
L98.725010 74.157685
" />
<path d="M98.725010 74.157685
L98.434725 74.254447
" />
<path d="M98.434725 74.254447
L98.241201 74.447971
" />
<path d="M98.241201 74.447971
L98.144439 74.641495
" />
<path d="M98.144439 74.641495
L98.047677 75.028543
" />
<path d="M98.047677 75.028543
L98.047677 75.318828
" />
<path d="M98.047677 75.318828
L98.144439 75.705876
" />
<path d="M98.144439 75.705876
L98.241201 75.899400
" />
<path d="M98.241201 75.899400
L98.434725 76.092924
" />
<path d="M98.434725 76.092924
L98.725010 76.189685
" />
<path d="M98.725010 76.189685
L99.208820 76.189685
" />
<path d="M95.628630 76.189685
L95.628630 74.157685
" />
<path d="M95.628630 74.157685
L94.854535 74.157685
" />
<path d="M94.854535 74.157685
L94.661011 74.254447
" />
<path d="M94.661011 74.254447
L94.564249 74.351209
" />
<path d="M94.564249 74.351209
L94.467487 74.544733
" />
<path d="M94.467487 74.544733
L94.467487 74.835019
" />
<path d="M94.467487 74.835019
L94.564249 75.028543
" />
<path d="M94.564249 75.028543
L94.661011 75.125304
" />
<path d="M94.661011 75.125304
L94.854535 75.222066
" />
<path d="M94.854535 75.222066
L95.628630 75.222066
" />
<path d="M92.241963 76.383209
L92.435487 76.286447
" />
<path d="M92.435487 76.286447
L92.629011 76.092924
" />
<path d="M92.629011 76.092924
L92.919297 75.802638
" />
<path d="M92.919297 75.802638
L93.112820 75.705876
" />
<path d="M93.112820 75.705876
L93.306344 75.705876
" />
<path d="M93.209582 76.189685
L93.403106 76.092924
" />
<path d="M93.403106 76.092924
L93.596630 75.899400
" />
<path d="M93.596630 75.899400
L93.693392 75.512352
" />
<path d="M93.693392 75.512352
L93.693392 74.835019
" />
<path d="M93.693392 74.835019
L93.596630 74.447971
" />
<path d="M93.596630 74.447971
L93.403106 74.254447
" />
<path d="M93.403106 74.254447
L93.209582 74.157685
" />
<path d="M93.209582 74.157685
L92.822535 74.157685
" />
<path d="M92.822535 74.157685
L92.629011 74.254447
" />
<path d="M92.629011 74.254447
L92.435487 74.447971
" />
<path d="M92.435487 74.447971
L92.338725 74.835019
" />
<path d="M92.338725 74.835019
L92.338725 75.512352
" />
<path d="M92.338725 75.512352
L92.435487 75.899400
" />
<path d="M92.435487 75.899400
L92.629011 76.092924
" />
<path d="M92.629011 76.092924
L92.822535 76.189685
" />
<path d="M92.822535 76.189685
L93.209582 76.189685
" />
<path d="M90.403487 76.189685
L91.564630 76.189685
" />
<path d="M90.984058 76.189685
L90.984058 74.157685
" />
<path d="M90.984058 74.157685
L91.177582 74.447971
" />
<path d="M91.177582 74.447971
L91.371106 74.641495
" />
<path d="M91.371106 74.641495
L91.564630 74.738257
" />
</g></g>
<g style="fill:#000000; fill-opacity:0.0; 
stroke:#000000; stroke-width:0.100000; stroke-opacity:1; 
stroke-linecap:round; stroke-linejoin:round;">
<text x="86.432500" y="38.158900"
transform="scale(-1 1) translate(-172.865000 0)"
textLength="1.020000" font-size="0.533333" lengthAdjust="spacingAndGlyphs"
text-anchor="middle" opacity="0">H1</text>
<g class="stroked-text"><desc>H1</desc>
<path d="M86.737261 38.138747
L86.737261 37.738747
" />
<path d="M86.737261 37.929223
L86.508690 37.929223
" />
<path d="M86.508690 38.138747
L86.508690 37.738747
" />
<path d="M86.108690 38.138747
L86.337261 38.138747
" />
<path d="M86.222975 38.138747
L86.222975 37.738747
" />
<path d="M86.222975 37.738747
L86.261071 37.795890
" />
<path d="M86.261071 37.795890
L86.299166 37.833985
" />
<path d="M86.299166 37.833985
L86.337261 37.853033
" />
</g><text x="119.260000" y="38.230000"
transform="scale(-1 1) translate(-238.520000 0)"
textLength="1.020000" font-size="0.533333" lengthAdjust="spacingAndGlyphs"
text-anchor="middle" opacity="0">H2</text>
<g class="stroked-text"><desc>H2</desc>
<path d="M119.564761 38.209847
L119.564761 37.809847
" />
<path d="M119.564761 38.000323
L119.336190 38.000323
" />
<path d="M119.336190 38.209847
L119.336190 37.809847
" />
<path d="M119.164761 37.847942
L119.145713 37.828895
" />
<path d="M119.145713 37.828895
L119.107618 37.809847
" />
<path d="M119.107618 37.809847
L119.012380 37.809847
" />
<path d="M119.012380 37.809847
L118.974285 37.828895
" />
<path d="M118.974285 37.828895
L118.955237 37.847942
" />
<path d="M118.955237 37.847942
L118.936190 37.886038
" />
<path d="M118.936190 37.886038
L118.936190 37.924133
" />
<path d="M118.936190 37.924133
L118.955237 37.981276
" />
<path d="M118.955237 37.981276
L119.183809 38.209847
" />
<path d="M119.183809 38.209847
L118.936190 38.209847
" />
</g><text x="119.260000" y="71.230000"
transform="scale(-1 1) translate(-238.520000 0)"
textLength="1.020000" font-size="0.533333" lengthAdjust="spacingAndGlyphs"
text-anchor="middle" opacity="0">H3</text>
<g class="stroked-text"><desc>H3</desc>
<path d="M119.564761 71.209847
L119.564761 70.809847
" />
<path d="M119.564761 71.000323
L119.336190 71.000323
" />
<path d="M119.336190 71.209847
L119.336190 70.809847
" />
<path d="M119.183809 70.809847
L118.936190 70.809847
" />
<path d="M118.936190 70.809847
L119.069523 70.962228
" />
<path d="M119.069523 70.962228
L119.012380 70.962228
" />
<path d="M119.012380 70.962228
L118.974285 70.981276
" />
<path d="M118.974285 70.981276
L118.955237 71.000323
" />
<path d="M118.955237 71.000323
L118.936190 71.038419
" />
<path d="M118.936190 71.038419
L118.936190 71.133657
" />
<path d="M118.936190 71.133657
L118.955237 71.171752
" />
<path d="M118.955237 71.171752
L118.974285 71.190800
" />
<path d="M118.974285 71.190800
L119.012380 71.209847
" />
<path d="M119.012380 71.209847
L119.126666 71.209847
" />
<path d="M119.126666 71.209847
L119.164761 71.190800
" />
<path d="M119.164761 71.190800
L119.183809 71.171752
" />
</g><text x="86.260000" y="71.230000"
transform="scale(-1 1) translate(-172.520000 0)"
textLength="1.020000" font-size="0.533333" lengthAdjust="spacingAndGlyphs"
text-anchor="middle" opacity="0">H4</text>
<g class="stroked-text"><desc>H4</desc>
<path d="M86.564761 71.209847
L86.564761 70.809847
" />
<path d="M86.564761 71.000323
L86.336190 71.000323
" />
<path d="M86.336190 71.209847
L86.336190 70.809847
" />
<path d="M85.974285 70.943180
L85.974285 71.209847
" />
<path d="M86.069523 70.790800
L86.164761 71.076514
" />
<path d="M86.164761 71.076514
L85.917142 71.076514
" />
</g><g transform="rotate(-180.000000 98.050600 56.495400)">
<text x="98.050600" y="56.695400"
transform="scale(-1 1) translate(-196.101200 0)"
textLength="0.905714" font-size="0.533333" lengthAdjust="spacingAndGlyphs"
text-anchor="middle" opacity="0">J1</text>
</g>
<g class="stroked-text"><desc>J1</desc>
<path d="M97.917266 56.715552
L97.917266 56.429838
" />
<path d="M97.917266 56.429838
L97.898219 56.372695
" />
<path d="M97.898219 56.372695
L97.860123 56.334600
" />
<path d="M97.860123 56.334600
L97.802981 56.315552
" />
<path d="M97.802981 56.315552
L97.764885 56.315552
" />
<path d="M98.317266 56.315552
L98.088695 56.315552
" />
<path d="M98.202981 56.315552
L98.202981 56.715552
" />
<path d="M98.202981 56.715552
L98.164885 56.658409
" />
<path d="M98.164885 56.658409
L98.126790 56.620314
" />
<path d="M98.126790 56.620314
L98.088695 56.601266
" />
</g><text x="113.138200" y="52.422400"
transform="scale(-1 1) translate(-226.276400 0)"
textLength="1.286666" font-size="0.533333" lengthAdjust="spacingAndGlyphs"
text-anchor="middle" opacity="0">VA0</text>
<g class="stroked-text"><desc>VA0</desc>
<path d="M113.633437 52.002247
L113.500104 52.402247
" />
<path d="M113.500104 52.402247
L113.366771 52.002247
" />
<path d="M113.252485 52.287961
L113.062009 52.287961
" />
<path d="M113.290580 52.402247
L113.157247 52.002247
" />
<path d="M113.157247 52.002247
L113.023914 52.402247
" />
<path d="M112.814390 52.002247
L112.776295 52.002247
" />
<path d="M112.776295 52.002247
L112.738199 52.021295
" />
<path d="M112.738199 52.021295
L112.719152 52.040342
" />
<path d="M112.719152 52.040342
L112.700104 52.078438
" />
<path d="M112.700104 52.078438
L112.681057 52.154628
" />
<path d="M112.681057 52.154628
L112.681057 52.249866
" />
<path d="M112.681057 52.249866
L112.700104 52.326057
" />
<path d="M112.700104 52.326057
L112.719152 52.364152
" />
<path d="M112.719152 52.364152
L112.738199 52.383200
" />
<path d="M112.738199 52.383200
L112.776295 52.402247
" />
<path d="M112.776295 52.402247
L112.814390 52.402247
" />
<path d="M112.814390 52.402247
L112.852485 52.383200
" />
<path d="M112.852485 52.383200
L112.871533 52.364152
" />
<path d="M112.871533 52.364152
L112.890580 52.326057
" />
<path d="M112.890580 52.326057
L112.909628 52.249866
" />
<path d="M112.909628 52.249866
L112.909628 52.154628
" />
<path d="M112.909628 52.154628
L112.890580 52.078438
" />
<path d="M112.890580 52.078438
L112.871533 52.040342
" />
<path d="M112.871533 52.040342
L112.852485 52.021295
" />
<path d="M112.852485 52.021295
L112.814390 52.002247
" />
</g><g transform="rotate(-180.000000 112.370600 60.167400)">
<text x="112.370600" y="60.367400"
transform="scale(-1 1) translate(-224.741200 0)"
textLength="1.191428" font-size="0.533333" lengthAdjust="spacingAndGlyphs"
text-anchor="middle" opacity="0">IC1</text>
</g>
<g class="stroked-text"><desc>IC1</desc>
<path d="M111.980124 59.987552
L111.980124 60.387552
" />
<path d="M112.399171 60.025647
L112.380123 60.006600
" />
<path d="M112.380123 60.006600
L112.322981 59.987552
" />
<path d="M112.322981 59.987552
L112.284885 59.987552
" />
<path d="M112.284885 59.987552
L112.227742 60.006600
" />
<path d="M112.227742 60.006600
L112.189647 60.044695
" />
<path d="M112.189647 60.044695
L112.170600 60.082790
" />
<path d="M112.170600 60.082790
L112.151552 60.158980
" />
<path d="M112.151552 60.158980
L112.151552 60.216123
" />
<path d="M112.151552 60.216123
L112.170600 60.292314
" />
<path d="M112.170600 60.292314
L112.189647 60.330409
" />
<path d="M112.189647 60.330409
L112.227742 60.368504
" />
<path d="M112.227742 60.368504
L112.284885 60.387552
" />
<path d="M112.284885 60.387552
L112.322981 60.387552
" />
<path d="M112.322981 60.387552
L112.380123 60.368504
" />
<path d="M112.380123 60.368504
L112.399171 60.349457
" />
<path d="M112.780123 59.987552
L112.551552 59.987552
" />
<path d="M112.665838 59.987552
L112.665838 60.387552
" />
<path d="M112.665838 60.387552
L112.627742 60.330409
" />
<path d="M112.627742 60.330409
L112.589647 60.292314
" />
<path d="M112.589647 60.292314
L112.551552 60.273266
" />
</g><text x="111.258600" y="52.346200"
transform="scale(-1 1) translate(-222.517200 0)"
textLength="1.343809" font-size="0.533333" lengthAdjust="spacingAndGlyphs"
text-anchor="middle" opacity="0">GA0</text>
<g class="stroked-text"><desc>GA0</desc>
<path d="M111.515742 51.945095
L111.553837 51.926047
" />
<path d="M111.553837 51.926047
L111.610980 51.926047
" />
<path d="M111.610980 51.926047
L111.668123 51.945095
" />
<path d="M111.668123 51.945095
L111.706218 51.983190
" />
<path d="M111.706218 51.983190
L111.725265 52.021285
" />
<path d="M111.725265 52.021285
L111.744313 52.097476
" />
<path d="M111.744313 52.097476
L111.744313 52.154619
" />
<path d="M111.744313 52.154619
L111.725265 52.230809
" />
<path d="M111.725265 52.230809
L111.706218 52.268904
" />
<path d="M111.706218 52.268904
L111.668123 52.307000
" />
<path d="M111.668123 52.307000
L111.610980 52.326047
" />
<path d="M111.610980 52.326047
L111.572884 52.326047
" />
<path d="M111.572884 52.326047
L111.515742 52.307000
" />
<path d="M111.515742 52.307000
L111.496694 52.287952
" />
<path d="M111.496694 52.287952
L111.496694 52.154619
" />
<path d="M111.496694 52.154619
L111.572884 52.154619
" />
<path d="M111.344313 52.211761
L111.153837 52.211761
" />
<path d="M111.382408 52.326047
L111.249075 51.926047
" />
<path d="M111.249075 51.926047
L111.115742 52.326047
" />
<path d="M110.906218 51.926047
L110.868123 51.926047
" />
<path d="M110.868123 51.926047
L110.830027 51.945095
" />
<path d="M110.830027 51.945095
L110.810980 51.964142
" />
<path d="M110.810980 51.964142
L110.791932 52.002238
" />
<path d="M110.791932 52.002238
L110.772885 52.078428
" />
<path d="M110.772885 52.078428
L110.772885 52.173666
" />
<path d="M110.772885 52.173666
L110.791932 52.249857
" />
<path d="M110.791932 52.249857
L110.810980 52.287952
" />
<path d="M110.810980 52.287952
L110.830027 52.307000
" />
<path d="M110.830027 52.307000
L110.868123 52.326047
" />
<path d="M110.868123 52.326047
L110.906218 52.326047
" />
<path d="M110.906218 52.326047
L110.944313 52.307000
" />
<path d="M110.944313 52.307000
L110.963361 52.287952
" />
<path d="M110.963361 52.287952
L110.982408 52.249857
" />
<path d="M110.982408 52.249857
L111.001456 52.173666
" />
<path d="M111.001456 52.173666
L111.001456 52.078428
" />
<path d="M111.001456 52.078428
L110.982408 52.002238
" />
<path d="M110.982408 52.002238
L110.963361 51.964142
" />
<path d="M110.963361 51.964142
L110.944313 51.945095
" />
<path d="M110.944313 51.945095
L110.906218 51.926047
" />
</g><text x="114.662200" y="63.268200"
transform="scale(-1 1) translate(-229.324400 0)"
textLength="1.000952" font-size="0.533333" lengthAdjust="spacingAndGlyphs"
text-anchor="middle" opacity="0">C1</text>
<g class="stroked-text"><desc>C1</desc>
<path d="M114.728866 63.209952
L114.747914 63.229000
" />
<path d="M114.747914 63.229000
L114.805056 63.248047
" />
<path d="M114.805056 63.248047
L114.843152 63.248047
" />
<path d="M114.843152 63.248047
L114.900295 63.229000
" />
<path d="M114.900295 63.229000
L114.938390 63.190904
" />
<path d="M114.938390 63.190904
L114.957437 63.152809
" />
<path d="M114.957437 63.152809
L114.976485 63.076619
" />
<path d="M114.976485 63.076619
L114.976485 63.019476
" />
<path d="M114.976485 63.019476
L114.957437 62.943285
" />
<path d="M114.957437 62.943285
L114.938390 62.905190
" />
<path d="M114.938390 62.905190
L114.900295 62.867095
" />
<path d="M114.900295 62.867095
L114.843152 62.848047
" />
<path d="M114.843152 62.848047
L114.805056 62.848047
" />
<path d="M114.805056 62.848047
L114.747914 62.867095
" />
<path d="M114.747914 62.867095
L114.728866 62.886142
" />
<path d="M114.347914 63.248047
L114.576485 63.248047
" />
<path d="M114.462199 63.248047
L114.462199 62.848047
" />
<path d="M114.462199 62.848047
L114.500295 62.905190
" />
<path d="M114.500295 62.905190
L114.538390 62.943285
" />
<path d="M114.538390 62.943285
L114.576485 62.962333
" />
</g><text x="113.087400" y="47.875800"
transform="scale(-1 1) translate(-226.174800 0)"
textLength="1.286666" font-size="0.533333" lengthAdjust="spacingAndGlyphs"
text-anchor="middle" opacity="0">VA2</text>
<g class="stroked-text"><desc>VA2</desc>
<path d="M113.582637 47.455647
L113.449304 47.855647
" />
<path d="M113.449304 47.855647
L113.315971 47.455647
" />
<path d="M113.201685 47.741361
L113.011209 47.741361
" />
<path d="M113.239780 47.855647
L113.106447 47.455647
" />
<path d="M113.106447 47.455647
L112.973114 47.855647
" />
<path d="M112.858828 47.493742
L112.839780 47.474695
" />
<path d="M112.839780 47.474695
L112.801685 47.455647
" />
<path d="M112.801685 47.455647
L112.706447 47.455647
" />
<path d="M112.706447 47.455647
L112.668352 47.474695
" />
<path d="M112.668352 47.474695
L112.649304 47.493742
" />
<path d="M112.649304 47.493742
L112.630257 47.531838
" />
<path d="M112.630257 47.531838
L112.630257 47.569933
" />
<path d="M112.630257 47.569933
L112.649304 47.627076
" />
<path d="M112.649304 47.627076
L112.877876 47.855647
" />
<path d="M112.877876 47.855647
L112.630257 47.855647
" />
</g><text x="111.157000" y="50.034800"
transform="scale(-1 1) translate(-222.314000 0)"
textLength="1.343809" font-size="0.533333" lengthAdjust="spacingAndGlyphs"
text-anchor="middle" opacity="0">GA1</text>
<g class="stroked-text"><desc>GA1</desc>
<path d="M111.414142 49.633695
L111.452237 49.614647
" />
<path d="M111.452237 49.614647
L111.509380 49.614647
" />
<path d="M111.509380 49.614647
L111.566523 49.633695
" />
<path d="M111.566523 49.633695
L111.604618 49.671790
" />
<path d="M111.604618 49.671790
L111.623665 49.709885
" />
<path d="M111.623665 49.709885
L111.642713 49.786076
" />
<path d="M111.642713 49.786076
L111.642713 49.843219
" />
<path d="M111.642713 49.843219
L111.623665 49.919409
" />
<path d="M111.623665 49.919409
L111.604618 49.957504
" />
<path d="M111.604618 49.957504
L111.566523 49.995600
" />
<path d="M111.566523 49.995600
L111.509380 50.014647
" />
<path d="M111.509380 50.014647
L111.471284 50.014647
" />
<path d="M111.471284 50.014647
L111.414142 49.995600
" />
<path d="M111.414142 49.995600
L111.395094 49.976552
" />
<path d="M111.395094 49.976552
L111.395094 49.843219
" />
<path d="M111.395094 49.843219
L111.471284 49.843219
" />
<path d="M111.242713 49.900361
L111.052237 49.900361
" />
<path d="M111.280808 50.014647
L111.147475 49.614647
" />
<path d="M111.147475 49.614647
L111.014142 50.014647
" />
<path d="M110.671285 50.014647
L110.899856 50.014647
" />
<path d="M110.785570 50.014647
L110.785570 49.614647
" />
<path d="M110.785570 49.614647
L110.823666 49.671790
" />
<path d="M110.823666 49.671790
L110.861761 49.709885
" />
<path d="M110.861761 49.709885
L110.899856 49.728933
" />
</g><text x="111.233200" y="47.799600"
transform="scale(-1 1) translate(-222.466400 0)"
textLength="1.343809" font-size="0.533333" lengthAdjust="spacingAndGlyphs"
text-anchor="middle" opacity="0">GA2</text>
<g class="stroked-text"><desc>GA2</desc>
<path d="M111.490342 47.398495
L111.528437 47.379447
" />
<path d="M111.528437 47.379447
L111.585580 47.379447
" />
<path d="M111.585580 47.379447
L111.642723 47.398495
" />
<path d="M111.642723 47.398495
L111.680818 47.436590
" />
<path d="M111.680818 47.436590
L111.699865 47.474685
" />
<path d="M111.699865 47.474685
L111.718913 47.550876
" />
<path d="M111.718913 47.550876
L111.718913 47.608019
" />
<path d="M111.718913 47.608019
L111.699865 47.684209
" />
<path d="M111.699865 47.684209
L111.680818 47.722304
" />
<path d="M111.680818 47.722304
L111.642723 47.760400
" />
<path d="M111.642723 47.760400
L111.585580 47.779447
" />
<path d="M111.585580 47.779447
L111.547484 47.779447
" />
<path d="M111.547484 47.779447
L111.490342 47.760400
" />
<path d="M111.490342 47.760400
L111.471294 47.741352
" />
<path d="M111.471294 47.741352
L111.471294 47.608019
" />
<path d="M111.471294 47.608019
L111.547484 47.608019
" />
<path d="M111.318913 47.665161
L111.128437 47.665161
" />
<path d="M111.357008 47.779447
L111.223675 47.379447
" />
<path d="M111.223675 47.379447
L111.090342 47.779447
" />
<path d="M110.976056 47.417542
L110.957008 47.398495
" />
<path d="M110.957008 47.398495
L110.918913 47.379447
" />
<path d="M110.918913 47.379447
L110.823675 47.379447
" />
<path d="M110.823675 47.379447
L110.785580 47.398495
" />
<path d="M110.785580 47.398495
L110.766532 47.417542
" />
<path d="M110.766532 47.417542
L110.747485 47.455638
" />
<path d="M110.747485 47.455638
L110.747485 47.493733
" />
<path d="M110.747485 47.493733
L110.766532 47.550876
" />
<path d="M110.766532 47.550876
L110.995104 47.779447
" />
<path d="M110.995104 47.779447
L110.747485 47.779447
" />
</g><text x="113.112800" y="50.060200"
transform="scale(-1 1) translate(-226.225600 0)"
textLength="1.286666" font-size="0.533333" lengthAdjust="spacingAndGlyphs"
text-anchor="middle" opacity="0">VA1</text>
<g class="stroked-text"><desc>VA1</desc>
<path d="M113.608037 49.640047
L113.474704 50.040047
" />
<path d="M113.474704 50.040047
L113.341371 49.640047
" />
<path d="M113.227085 49.925761
L113.036609 49.925761
" />
<path d="M113.265180 50.040047
L113.131847 49.640047
" />
<path d="M113.131847 49.640047
L112.998514 50.040047
" />
<path d="M112.655657 50.040047
L112.884228 50.040047
" />
<path d="M112.769942 50.040047
L112.769942 49.640047
" />
<path d="M112.769942 49.640047
L112.808038 49.697190
" />
<path d="M112.808038 49.697190
L112.846133 49.735285
" />
<path d="M112.846133 49.735285
L112.884228 49.754333
" />
</g></g>
<g style="fill:#000000; fill-opacity:0.0; 
stroke:#000000; stroke-width:0.120000; stroke-opacity:1; 
stroke-linecap:round; stroke-linejoin:round;">
<path d="M91.440600 49.385400
L104.660600 49.385400
" />
<path d="M91.440600 49.835400
L91.440600 49.385400
" />
<path d="M91.440600 53.355400
L91.440600 53.805400
" />
<path d="M91.440600 53.805400
L92.390600 53.805400
" />
<path d="M92.390600 53.805400
L92.390600 55.295400
" />
<path d="M104.660600 49.385400
L104.660600 49.835400
" />
<path d="M104.660600 53.355400
L104.660600 53.805400
" />
<path d="M104.660600 53.805400
L103.710600 53.805400
" />
<path d="M115.095536 51.462000
L115.549664 51.462000
" />
<path d="M115.095536 52.932000
L115.549664 52.932000
" />
</g>
<g style="fill:#000000; fill-opacity:0.0; 
stroke:#000000; stroke-width:0.200000; stroke-opacity:1; 
stroke-linecap:round; stroke-linejoin:round;">
<path d="M108.570600 59.222400
L110.120600 59.222400
" />
<path d="M110.470600 54.167400
L110.470600 59.067400
" />
<path d="M110.470600 59.067400
L113.620600 59.067400
" />
<path d="M113.620600 54.167400
L110.470600 54.167400
" />
<path d="M113.620600 59.067400
L113.620600 54.167400
" />
</g>
<g style="fill:#000000; fill-opacity:0.0; 
stroke:#000000; stroke-width:0.120000; stroke-opacity:1; 
stroke-linecap:round; stroke-linejoin:round;">
<path d="M108.745536 51.436600
L109.199664 51.436600
" />
<path d="M108.745536 52.906600
L109.199664 52.906600
" />
<path d="M115.146800 60.997220
L115.146800 61.278380
" />
<path d="M114.126800 60.997220
L114.126800 61.278380
" />
<path d="M115.120936 46.915400
L115.575064 46.915400
" />
<path d="M115.120936 48.385400
L115.575064 48.385400
" />
<path d="M108.745536 49.125200
L109.199664 49.125200
" />
<path d="M108.745536 50.595200
L109.199664 50.595200
" />
<path d="M108.720136 46.864600
L109.174264 46.864600
" />
<path d="M108.720136 48.334600
L109.174264 48.334600
" />
<path d="M115.120936 49.150600
L115.575064 49.150600
" />
<path d="M115.120936 50.620600
L115.575064 50.620600
" />
<g >
</g>
<g >
</g>
<g >
</g>
<g >
</g>
<g >
</g>
<g >
</g>
<g >
</g>
<g >
</g>
<g >
</g>
<g >
</g>
<g >
</g>
<g >
</g>
<g >
</g>
<g >
</g>
<g >
</g>
<g >
</g>
<g >
</g>
<g >
</g>
<g >
</g>
<g >
</g>
<g >
</g>
<g >
</g>
<g >
</g>
</g> 
</svg>
