  0
SECTION
  2
HEADER
  9
$ANGBASE
  50
0.0
  9
$ANGDIR
  70
1
  9
$MEASUREMENT
  70
1
  0
ENDSEC
  0
SECTION
  2
TABLES
  0
TABLE
  2
LTYPE
  70
4
  0
LTYPE
  5
40F
  2
CONTINUOUS
  70
0
  3
Solid line
  72
65
  73
0
  40
0.0
  0
LTYPE
  5
410
  2
DASHDOT
 70
0
  3
Dash Dot ____ _ ____ _
 72
65
 73
4
 40
2.0
 49
1.25
 49
-0.25
 49
0.25
 49
-0.25
  0
LTYPE
  5
411
  2
DASHED
 70
0
  3
Dashed __ __ __ __ __
 72
65
 73
2
 40
0.75
 49
0.5
 49
-0.25
  0
LTYPE
  5
43B
  2
DOTTED
 70
0
  3
Dotted .  .  .  .
 72
65
 73
2
 40
0.2
 49
0.0
 49
-0.2
  0
ENDTAB
  0
TABLE
  2
STYLE
  70
4
  0
STYLE
  2
KICAD
  70
0
  40
0
  41
1
  42
1
  50
0
  71
0
  3
isocp.shx
  0
STYLE
  2
KICADB
  70
0
  40
0
  41
1
  42
1
  50
0
  71
0
  3
isocp.shx
  0
STYLE
  2
KICADI
  70
0
  40
0
  41
1
  42
1
  50
15
  71
0
  3
isocp.shx
  0
STYLE
  2
KICADBI
  70
0
  40
0
  41
1
  42
1
  50
15
  71
0
  3
isocp.shx
  0
ENDTAB
  0
TABLE
  2
LAYER
  70
1
  0
LAYER
  2
BLACK
  70
0
  62
7
  6
CONTINUOUS
  0
ENDTAB
  0
ENDSEC
  0
SECTION
  2
ENTITIES
0
LINE
8
BLACK
6
CONTINUOUS
10
127.7657409999999913
20
-33.2007169999999974
11
127.7690239999999875
21
-33.2001390000000001
0
LINE
8
BLACK
6
CONTINUOUS
10
127.7690239999999875
20
-33.2001390000000001
11
127.7719089999999937
21
-33.2018050000000002
0
LINE
8
BLACK
6
CONTINUOUS
10
127.7719089999999937
20
-33.2018050000000002
11
127.781651999999994
21
-33.203522999999997
0
LINE
8
BLACK
6
CONTINUOUS
10
127.781651999999994
20
-33.203522999999997
11
127.7965789999999942
21
-33.2160480000000007
0
LINE
8
BLACK
6
CONTINUOUS
10
127.7965789999999942
20
-33.2160480000000007
11
127.8134529999999955
21
-33.225791000000001
0
LINE
8
BLACK
6
CONTINUOUS
10
127.8134529999999955
20
-33.225791000000001
11
127.8157669999999939
21
-33.2321489999999997
0
LINE
8
BLACK
6
CONTINUOUS
10
127.8157669999999939
20
-33.2321489999999997
11
127.8209519999999912
21
-33.2364999999999995
0
LINE
8
BLACK
6
CONTINUOUS
10
127.8209519999999912
20
-33.2364999999999995
11
127.8243359999999882
21
-33.2556909999999988
0
LINE
8
BLACK
6
CONTINUOUS
10
127.8243359999999882
20
-33.2556909999999988
11
127.8309999999999889
21
-33.2740000000000009
0
LINE
8
BLACK
6
CONTINUOUS
10
127.8309999999999889
20
-33.2740000000000009
11
127.8309999999999889
21
-83.2740000000000009
0
LINE
8
BLACK
6
CONTINUOUS
10
127.8309999999999889
20
-83.2740000000000009
11
127.8292819999999921
21
-83.283740999999992
0
LINE
8
BLACK
6
CONTINUOUS
10
127.8292819999999921
20
-83.283740999999992
11
127.829860999999994
21
-83.2870240000000024
0
LINE
8
BLACK
6
CONTINUOUS
10
127.829860999999994
20
-83.2870240000000024
11
127.8281939999999963
21
-83.2899089999999944
0
LINE
8
BLACK
6
CONTINUOUS
10
127.8281939999999963
20
-83.2899089999999944
11
127.826476999999997
21
-83.2996519999999947
0
LINE
8
BLACK
6
CONTINUOUS
10
127.826476999999997
20
-83.2996519999999947
11
127.8139509999999888
21
-83.3145789999999948
0
LINE
8
BLACK
6
CONTINUOUS
10
127.8139509999999888
20
-83.3145789999999948
11
127.8042090000000002
21
-83.3314529999999962
0
LINE
8
BLACK
6
CONTINUOUS
10
127.8042090000000002
20
-83.3314529999999962
11
127.7978499999999968
21
-83.3337669999999946
0
LINE
8
BLACK
6
CONTINUOUS
10
127.7978499999999968
20
-83.3337669999999946
11
127.7934999999999945
21
-83.3389519999999919
0
LINE
8
BLACK
6
CONTINUOUS
10
127.7934999999999945
20
-83.3389519999999919
11
127.7743079999999907
21
-83.3423360000000031
0
LINE
8
BLACK
6
CONTINUOUS
10
127.7743079999999907
20
-83.3423360000000031
11
127.7560000000000002
21
-83.3489999999999895
0
LINE
8
BLACK
6
CONTINUOUS
10
127.7560000000000002
20
-83.3489999999999895
11
77.7560000000000002
21
-83.3489999999999895
0
LINE
8
BLACK
6
CONTINUOUS
10
77.7560000000000002
20
-83.3489999999999895
11
77.7462579999999974
21
-83.3472819999999928
0
LINE
8
BLACK
6
CONTINUOUS
10
77.7462579999999974
20
-83.3472819999999928
11
77.7429759999999987
21
-83.3478609999999946
0
LINE
8
BLACK
6
CONTINUOUS
10
77.7429759999999987
20
-83.3478609999999946
11
77.740089999999995
21
-83.346193999999997
0
LINE
8
BLACK
6
CONTINUOUS
10
77.740089999999995
20
-83.346193999999997
11
77.7303479999999922
21
-83.3444769999999977
0
LINE
8
BLACK
6
CONTINUOUS
10
77.7303479999999922
20
-83.3444769999999977
11
77.7154199999999946
21
-83.3319509999999894
0
LINE
8
BLACK
6
CONTINUOUS
10
77.7154199999999946
20
-83.3319509999999894
11
77.6985469999999907
21
-83.3222090000000009
0
LINE
8
BLACK
6
CONTINUOUS
10
77.6985469999999907
20
-83.3222090000000009
11
77.6962319999999949
21
-83.3158499999999975
0
LINE
8
BLACK
6
CONTINUOUS
10
77.6962319999999949
20
-83.3158499999999975
11
77.691047999999995
21
-83.3114999999999952
0
LINE
8
BLACK
6
CONTINUOUS
10
77.691047999999995
20
-83.3114999999999952
11
77.6876630000000006
21
-83.2923079999999914
0
LINE
8
BLACK
6
CONTINUOUS
10
77.6876630000000006
20
-83.2923079999999914
11
77.6809999999999974
21
-83.2740000000000009
0
LINE
8
BLACK
6
CONTINUOUS
10
77.6809999999999974
20
-83.2740000000000009
11
77.6809999999999974
21
-33.2740000000000009
0
LINE
8
BLACK
6
CONTINUOUS
10
77.6809999999999974
20
-33.2740000000000009
11
77.6827169999999967
21
-33.2642579999999981
0
LINE
8
BLACK
6
CONTINUOUS
10
77.6827169999999967
20
-33.2642579999999981
11
77.6821389999999923
21
-33.2609759999999994
0
LINE
8
BLACK
6
CONTINUOUS
10
77.6821389999999923
20
-33.2609759999999994
11
77.6838049999999924
21
-33.2580899999999957
0
LINE
8
BLACK
6
CONTINUOUS
10
77.6838049999999924
20
-33.2580899999999957
11
77.6855230000000034
21
-33.248348
0
LINE
8
BLACK
6
CONTINUOUS
10
77.6855230000000034
20
-33.248348
11
77.698048
21
-33.2334199999999953
0
LINE
8
BLACK
6
CONTINUOUS
10
77.698048
20
-33.2334199999999953
11
77.7077910000000003
21
-33.2165469999999985
0
LINE
8
BLACK
6
CONTINUOUS
10
77.7077910000000003
20
-33.2165469999999985
11
77.7141489999999919
21
-33.2142319999999955
0
LINE
8
BLACK
6
CONTINUOUS
10
77.7141489999999919
20
-33.2142319999999955
11
77.7184999999999917
21
-33.2090479999999957
0
LINE
8
BLACK
6
CONTINUOUS
10
77.7184999999999917
20
-33.2090479999999957
11
77.7376909999999981
21
-33.2056630000000013
0
LINE
8
BLACK
6
CONTINUOUS
10
77.7376909999999981
20
-33.2056630000000013
11
77.7560000000000002
21
-33.1989999999999981
0
LINE
8
BLACK
6
CONTINUOUS
10
77.7560000000000002
20
-33.1989999999999981
11
127.7560000000000002
21
-33.1989999999999981
0
LINE
8
BLACK
6
CONTINUOUS
10
127.7560000000000002
20
-33.1989999999999981
11
127.7657409999999913
21
-33.2007169999999974
0
LINE
8
BLACK
6
CONTINUOUS
10
77.8310000000000031
20
-33.3489999999999966
11
77.8310000000000031
21
-83.1989999999999981
0
LINE
8
BLACK
6
CONTINUOUS
10
77.8310000000000031
20
-83.1989999999999981
11
127.6809999999999974
21
-83.1989999999999981
0
LINE
8
BLACK
6
CONTINUOUS
10
127.6809999999999974
20
-83.1989999999999981
11
127.6809999999999974
21
-33.3489999999999966
0
LINE
8
BLACK
6
CONTINUOUS
10
127.6809999999999974
20
-33.3489999999999966
11
77.8310000000000031
21
-33.3489999999999966
  0
ENDSEC
  0
EOF
