%TF.GenerationSoftware,KiCad,Pcbnew,(7.0.0)*%
%TF.CreationDate,2023-04-25T15:07:43+02:00*%
%TF.ProjectId,EGSE,45475345-2e6b-4696-9361-645f70636258,rev?*%
%TF.SameCoordinates,Original*%
%TF.FileFunction,Paste,Top*%
%TF.FilePolarity,Positive*%
%FSLAX46Y46*%
G04 Gerber Fmt 4.6, Leading zero omitted, Abs format (unit mm)*
G04 Created by KiCad (PCBNEW (7.0.0)) date 2023-04-25 15:07:43*
%MOMM*%
%LPD*%
G01*
G04 APERTURE LIST*
G04 Aperture macros list*
%AMRoundRect*
0 Rectangle with rounded corners*
0 $1 Rounding radius*
0 $2 $3 $4 $5 $6 $7 $8 $9 X,Y pos of 4 corners*
0 Add a 4 corners polygon primitive as box body*
4,1,4,$2,$3,$4,$5,$6,$7,$8,$9,$2,$3,0*
0 Add four circle primitives for the rounded corners*
1,1,$1+$1,$2,$3*
1,1,$1+$1,$4,$5*
1,1,$1+$1,$6,$7*
1,1,$1+$1,$8,$9*
0 Add four rect primitives between the rounded corners*
20,1,$1+$1,$2,$3,$4,$5,0*
20,1,$1+$1,$4,$5,$6,$7,0*
20,1,$1+$1,$6,$7,$8,$9,0*
20,1,$1+$1,$8,$9,$2,$3,0*%
G04 Aperture macros list end*
%ADD10RoundRect,0.200000X-0.200000X-0.600000X0.200000X-0.600000X0.200000X0.600000X-0.200000X0.600000X0*%
%ADD11RoundRect,0.250001X-0.799999X-1.249999X0.799999X-1.249999X0.799999X1.249999X-0.799999X1.249999X0*%
%ADD12RoundRect,0.218750X0.218750X0.381250X-0.218750X0.381250X-0.218750X-0.381250X0.218750X-0.381250X0*%
%ADD13RoundRect,0.250000X0.450000X0.800000X-0.450000X0.800000X-0.450000X-0.800000X0.450000X-0.800000X0*%
%ADD14RoundRect,0.200000X0.200000X0.275000X-0.200000X0.275000X-0.200000X-0.275000X0.200000X-0.275000X0*%
%ADD15RoundRect,0.225000X0.250000X-0.225000X0.250000X0.225000X-0.250000X0.225000X-0.250000X-0.225000X0*%
%ADD16RoundRect,0.200000X0.600000X-0.200000X0.600000X0.200000X-0.600000X0.200000X-0.600000X-0.200000X0*%
%ADD17RoundRect,0.250001X1.249999X-0.799999X1.249999X0.799999X-1.249999X0.799999X-1.249999X-0.799999X0*%
%ADD18RoundRect,0.250000X-0.450000X0.262500X-0.450000X-0.262500X0.450000X-0.262500X0.450000X0.262500X0*%
%ADD19RoundRect,0.200000X0.200000X0.600000X-0.200000X0.600000X-0.200000X-0.600000X0.200000X-0.600000X0*%
%ADD20RoundRect,0.250001X0.799999X1.249999X-0.799999X1.249999X-0.799999X-1.249999X0.799999X-1.249999X0*%
%ADD21RoundRect,0.250000X-0.800000X0.450000X-0.800000X-0.450000X0.800000X-0.450000X0.800000X0.450000X0*%
%ADD22RoundRect,0.200000X0.275000X-0.200000X0.275000X0.200000X-0.275000X0.200000X-0.275000X-0.200000X0*%
%ADD23RoundRect,0.160000X0.160000X-0.160000X0.160000X0.160000X-0.160000X0.160000X-0.160000X-0.160000X0*%
%ADD24RoundRect,0.062500X0.062500X-0.350000X0.062500X0.350000X-0.062500X0.350000X-0.062500X-0.350000X0*%
%ADD25RoundRect,0.062500X0.350000X-0.062500X0.350000X0.062500X-0.350000X0.062500X-0.350000X-0.062500X0*%
%ADD26RoundRect,0.225000X-0.250000X0.225000X-0.250000X-0.225000X0.250000X-0.225000X0.250000X0.225000X0*%
%ADD27RoundRect,0.200000X-0.600000X0.200000X-0.600000X-0.200000X0.600000X-0.200000X0.600000X0.200000X0*%
%ADD28RoundRect,0.250001X-1.249999X0.799999X-1.249999X-0.799999X1.249999X-0.799999X1.249999X0.799999X0*%
%ADD29R,0.900000X0.650000*%
%ADD30RoundRect,0.200000X-0.275000X0.200000X-0.275000X-0.200000X0.275000X-0.200000X0.275000X0.200000X0*%
%ADD31RoundRect,0.200000X-0.200000X-0.450000X0.200000X-0.450000X0.200000X0.450000X-0.200000X0.450000X0*%
%ADD32R,0.610000X1.270000*%
%ADD33R,3.910000X3.810000*%
%ADD34R,0.610000X1.020000*%
%ADD35RoundRect,0.245000X0.245000X-0.290000X0.245000X0.290000X-0.245000X0.290000X-0.245000X-0.290000X0*%
%ADD36RoundRect,0.062500X0.062500X-0.362500X0.062500X0.362500X-0.062500X0.362500X-0.062500X-0.362500X0*%
%ADD37RoundRect,0.062500X0.362500X-0.062500X0.362500X0.062500X-0.362500X0.062500X-0.362500X-0.062500X0*%
%ADD38RoundRect,0.135000X-0.135000X-0.185000X0.135000X-0.185000X0.135000X0.185000X-0.135000X0.185000X0*%
%ADD39RoundRect,0.250000X-0.262500X-0.450000X0.262500X-0.450000X0.262500X0.450000X-0.262500X0.450000X0*%
%ADD40R,1.180000X4.400000*%
%ADD41RoundRect,0.225000X0.225000X0.250000X-0.225000X0.250000X-0.225000X-0.250000X0.225000X-0.250000X0*%
%ADD42RoundRect,0.250000X-0.650000X0.325000X-0.650000X-0.325000X0.650000X-0.325000X0.650000X0.325000X0*%
%ADD43RoundRect,0.200000X-0.200000X-0.275000X0.200000X-0.275000X0.200000X0.275000X-0.200000X0.275000X0*%
%ADD44R,1.070000X1.680000*%
%ADD45RoundRect,0.150000X0.150000X0.600000X-0.150000X0.600000X-0.150000X-0.600000X0.150000X-0.600000X0*%
%ADD46RoundRect,0.250000X0.350000X0.650000X-0.350000X0.650000X-0.350000X-0.650000X0.350000X-0.650000X0*%
G04 APERTURE END LIST*
D10*
%TO.C,J34*%
X206200000Y-238600000D03*
X207450000Y-238600000D03*
X208700000Y-238600000D03*
X209950000Y-238600000D03*
X211200000Y-238600000D03*
X212450000Y-238600000D03*
X213700000Y-238600000D03*
X214950000Y-238600000D03*
X216200000Y-238600000D03*
X217450000Y-238600000D03*
D11*
X203650000Y-241500000D03*
X220000000Y-241500000D03*
%TD*%
D12*
%TO.C,L2*%
X374238602Y-307516878D03*
X372113602Y-307516878D03*
%TD*%
D13*
%TO.C,D3*%
X402767707Y-303128731D03*
X398367707Y-303128731D03*
%TD*%
D14*
%TO.C,RFG1*%
X399631787Y-286925478D03*
X397981787Y-286925478D03*
%TD*%
D10*
%TO.C,J49*%
X206200000Y-167000000D03*
X207450000Y-167000000D03*
X208700000Y-167000000D03*
X209950000Y-167000000D03*
X211200000Y-167000000D03*
X212450000Y-167000000D03*
X213700000Y-167000000D03*
X214950000Y-167000000D03*
X216200000Y-167000000D03*
X217450000Y-167000000D03*
D11*
X203650000Y-169900000D03*
X220000000Y-169900000D03*
%TD*%
D15*
%TO.C,C2*%
X378296148Y-292268887D03*
X378296148Y-290718887D03*
%TD*%
D16*
%TO.C,J46*%
X287600000Y-211625000D03*
X287600000Y-210375000D03*
X287600000Y-209125000D03*
X287600000Y-207875000D03*
X287600000Y-206625000D03*
X287600000Y-205375000D03*
X287600000Y-204125000D03*
X287600000Y-202875000D03*
X287600000Y-201625000D03*
X287600000Y-200375000D03*
D17*
X290500000Y-214175000D03*
X290500000Y-197825000D03*
%TD*%
D18*
%TO.C,R1*%
X396053214Y-300299488D03*
X396053214Y-302124488D03*
%TD*%
D19*
%TO.C,J47*%
X420625000Y-275400000D03*
X419375000Y-275400000D03*
X418125000Y-275400000D03*
X416875000Y-275400000D03*
X415625000Y-275400000D03*
X414375000Y-275400000D03*
X413125000Y-275400000D03*
X411875000Y-275400000D03*
X410625000Y-275400000D03*
X409375000Y-275400000D03*
D20*
X423175000Y-272500000D03*
X406825000Y-272500000D03*
%TD*%
D21*
%TO.C,D1*%
X374600102Y-273966878D03*
X374600102Y-278366878D03*
%TD*%
D19*
%TO.C,J40*%
X235625000Y-292900000D03*
X234375000Y-292900000D03*
D20*
X238175000Y-290000000D03*
X231825000Y-290000000D03*
%TD*%
D22*
%TO.C,RPF1*%
X388406384Y-292717165D03*
X388406384Y-291067165D03*
%TD*%
D16*
%TO.C,J51*%
X286000000Y-248500000D03*
X286000000Y-247250000D03*
X286000000Y-246000000D03*
X286000000Y-244750000D03*
X286000000Y-243500000D03*
X286000000Y-242250000D03*
X286000000Y-241000000D03*
X286000000Y-239750000D03*
X286000000Y-238500000D03*
X286000000Y-237250000D03*
X286000000Y-236000000D03*
X286000000Y-234750000D03*
X286000000Y-233500000D03*
X286000000Y-232250000D03*
X286000000Y-231000000D03*
D17*
X288900000Y-251050000D03*
X288900000Y-228450000D03*
%TD*%
D23*
%TO.C,IC1*%
X372827137Y-304153860D03*
X373627137Y-304153860D03*
X372827137Y-303353860D03*
X373627137Y-303353860D03*
D24*
X372727137Y-305191360D03*
X373227137Y-305191360D03*
X373727137Y-305191360D03*
D25*
X374664637Y-304253860D03*
X374664637Y-303753860D03*
X374664637Y-303253860D03*
D24*
X373727137Y-302316360D03*
X373227137Y-302316360D03*
X372727137Y-302316360D03*
D25*
X371789637Y-303253860D03*
X371789637Y-303753860D03*
X371789637Y-304253860D03*
%TD*%
D26*
%TO.C,C4*%
X370176102Y-301891878D03*
X370176102Y-303441878D03*
%TD*%
D14*
%TO.C,RFG2*%
X399601102Y-284016878D03*
X397951102Y-284016878D03*
%TD*%
%TO.C,R2*%
X390751102Y-302466878D03*
X389101102Y-302466878D03*
%TD*%
%TO.C,RFG3*%
X399551102Y-281116878D03*
X397901102Y-281116878D03*
%TD*%
D27*
%TO.C,J36*%
X368715310Y-171438485D03*
X368715310Y-172688485D03*
X368715310Y-173938485D03*
X368715310Y-175188485D03*
X368715310Y-176438485D03*
X368715310Y-177688485D03*
X368715310Y-178938485D03*
X368715310Y-180188485D03*
X368715310Y-181438485D03*
X368715310Y-182688485D03*
D28*
X365815310Y-168888485D03*
X365815310Y-185238485D03*
%TD*%
D29*
%TO.C,R4*%
X391726101Y-292510374D03*
X391726101Y-291060374D03*
%TD*%
D16*
%TO.C,J53*%
X276850000Y-293875000D03*
X276850000Y-292625000D03*
D17*
X279750000Y-296425000D03*
X279750000Y-290075000D03*
%TD*%
D30*
%TO.C,RPF2*%
X390182035Y-291086442D03*
X390182035Y-292736442D03*
%TD*%
D31*
%TO.C,J27*%
X346625000Y-247750000D03*
X347875000Y-247750000D03*
X349125000Y-247750000D03*
X350375000Y-247750000D03*
X351625000Y-247750000D03*
X352875000Y-247750000D03*
X354125000Y-247750000D03*
X355375000Y-247750000D03*
D11*
X344075000Y-250500000D03*
X357925000Y-250500000D03*
%TD*%
D10*
%TO.C,J38*%
X314786000Y-144600000D03*
X316036000Y-144600000D03*
X317286000Y-144600000D03*
X318536000Y-144600000D03*
X319786000Y-144600000D03*
X321036000Y-144600000D03*
X322286000Y-144600000D03*
X323536000Y-144600000D03*
X324786000Y-144600000D03*
D11*
X312236000Y-147500000D03*
X327336000Y-147500000D03*
%TD*%
D19*
%TO.C,J50*%
X356433056Y-135101719D03*
X355183056Y-135101719D03*
X353933056Y-135101719D03*
X352683056Y-135101719D03*
X351433056Y-135101719D03*
X350183056Y-135101719D03*
X348933056Y-135101719D03*
X347683056Y-135101719D03*
X346433056Y-135101719D03*
D20*
X358983056Y-132201719D03*
X343883056Y-132201719D03*
%TD*%
D26*
%TO.C,C5*%
X376449358Y-300291878D03*
X376449358Y-301841878D03*
%TD*%
D32*
%TO.C,Q1*%
X378602630Y-307467605D03*
X379872630Y-307467605D03*
X381142630Y-307467605D03*
X382412630Y-307467605D03*
D33*
X380507630Y-304107605D03*
D34*
X378602630Y-302002605D03*
X379872630Y-302002605D03*
X381142630Y-302002605D03*
X382412630Y-302002605D03*
%TD*%
D21*
%TO.C,D2*%
X378417511Y-273992396D03*
X378417511Y-278392396D03*
%TD*%
D35*
%TO.C,U1*%
X390478214Y-298807988D03*
X391698214Y-298807988D03*
X392918214Y-298807988D03*
X390478214Y-297487988D03*
X391698214Y-297487988D03*
X392918214Y-297487988D03*
D36*
X390198214Y-300097988D03*
X390698214Y-300097988D03*
X391198214Y-300097988D03*
X391698214Y-300097988D03*
X392198214Y-300097988D03*
X392698214Y-300097988D03*
X393198214Y-300097988D03*
D37*
X394148214Y-299147988D03*
X394148214Y-298647988D03*
X394148214Y-298147988D03*
X394148214Y-297647988D03*
X394148214Y-297147988D03*
D36*
X393198214Y-296197988D03*
X392698214Y-296197988D03*
X392198214Y-296197988D03*
X391698214Y-296197988D03*
X391198214Y-296197988D03*
X390698214Y-296197988D03*
X390198214Y-296197988D03*
D37*
X389248214Y-297147988D03*
X389248214Y-297647988D03*
X389248214Y-298147988D03*
X389248214Y-298647988D03*
X389248214Y-299147988D03*
%TD*%
D38*
%TO.C,RFB2*%
X397759413Y-293734830D03*
X398779413Y-293734830D03*
%TD*%
D39*
%TO.C,RP_FAULT1*%
X397356913Y-295766830D03*
X399181913Y-295766830D03*
%TD*%
D40*
%TO.C,L1*%
X384999999Y-295366152D03*
X381689999Y-295366152D03*
%TD*%
D32*
%TO.C,Q2*%
X394031101Y-305826877D03*
X392761101Y-305826877D03*
X391491101Y-305826877D03*
X390221101Y-305826877D03*
D33*
X392126101Y-309186877D03*
D34*
X394031101Y-311291877D03*
X392761101Y-311291877D03*
X391491101Y-311291877D03*
X390221101Y-311291877D03*
%TD*%
D19*
%TO.C,J48*%
X420625000Y-193000000D03*
X419375000Y-193000000D03*
X418125000Y-193000000D03*
X416875000Y-193000000D03*
X415625000Y-193000000D03*
X414375000Y-193000000D03*
X413125000Y-193000000D03*
X411875000Y-193000000D03*
X410625000Y-193000000D03*
X409375000Y-193000000D03*
D20*
X423175000Y-190100000D03*
X406825000Y-190100000D03*
%TD*%
D39*
%TO.C,RP_CHRG1*%
X397356913Y-297925830D03*
X399181913Y-297925830D03*
%TD*%
D41*
%TO.C,C1*%
X393901102Y-302466878D03*
X392351102Y-302466878D03*
%TD*%
D42*
%TO.C,C3*%
X386914386Y-300241878D03*
X386914386Y-303191878D03*
%TD*%
D28*
%TO.C,J35*%
X365611415Y-214124778D03*
X365611415Y-197774778D03*
D27*
X368511415Y-211574778D03*
X368511415Y-210324778D03*
X368511415Y-209074778D03*
X368511415Y-207824778D03*
X368511415Y-206574778D03*
X368511415Y-205324778D03*
X368511415Y-204074778D03*
X368511415Y-202824778D03*
X368511415Y-201574778D03*
X368511415Y-200324778D03*
%TD*%
D43*
%TO.C,RFB1*%
X397825413Y-292083830D03*
X399475413Y-292083830D03*
%TD*%
D19*
%TO.C,J39*%
X330500000Y-231000000D03*
X329250000Y-231000000D03*
X328000000Y-231000000D03*
X326750000Y-231000000D03*
X325500000Y-231000000D03*
X324250000Y-231000000D03*
X323000000Y-231000000D03*
X321750000Y-231000000D03*
X320500000Y-231000000D03*
X319250000Y-231000000D03*
X318000000Y-231000000D03*
X316750000Y-231000000D03*
X315500000Y-231000000D03*
X314250000Y-231000000D03*
X313000000Y-231000000D03*
D20*
X333050000Y-228100000D03*
X310450000Y-228100000D03*
%TD*%
D14*
%TO.C,RFV2*%
X395401730Y-284033737D03*
X393751730Y-284033737D03*
%TD*%
%TO.C,RFV3*%
X395361102Y-281116878D03*
X393711102Y-281116878D03*
%TD*%
D31*
%TO.C,J28*%
X376625000Y-241750000D03*
X377875000Y-241750000D03*
X379125000Y-241750000D03*
X380375000Y-241750000D03*
X381625000Y-241750000D03*
X382875000Y-241750000D03*
X384125000Y-241750000D03*
X385375000Y-241750000D03*
D11*
X374075000Y-244500000D03*
X387925000Y-244500000D03*
%TD*%
D16*
%TO.C,J37*%
X287600000Y-182625000D03*
X287600000Y-181375000D03*
X287600000Y-180125000D03*
X287600000Y-178875000D03*
X287600000Y-177625000D03*
X287600000Y-176375000D03*
X287600000Y-175125000D03*
X287600000Y-173875000D03*
X287600000Y-172625000D03*
X287600000Y-171375000D03*
D17*
X290500000Y-185175000D03*
X290500000Y-168825000D03*
%TD*%
D44*
%TO.C,F1*%
X408472035Y-306367565D03*
X405612035Y-306367565D03*
%TD*%
D14*
%TO.C,RFV1*%
X395419740Y-286909215D03*
X393769740Y-286909215D03*
%TD*%
D45*
%TO.C,J52*%
X236225000Y-229595000D03*
X237225000Y-229595000D03*
X238225000Y-229595000D03*
D46*
X239525000Y-233495000D03*
X234925000Y-233495000D03*
%TD*%
D45*
%TO.C,J41*%
X336283000Y-144100000D03*
X337283000Y-144100000D03*
X338283000Y-144100000D03*
D46*
X339583000Y-148000000D03*
X334983000Y-148000000D03*
%TD*%
M02*
