M48
; DRILL file {KiCad (7.0.0)} date Tue Apr 25 15:07:23 2023
; FORMAT={-:-/ absolute / metric / decimal}
; #@! TF.CreationDate,2023-04-25T15:07:23+02:00
; #@! TF.GenerationSoftware,Kicad,Pcbnew,(7.0.0)
; #@! TF.FileFunction,Plated,1,6,PTH
FMAT,2
METRIC
; #@! TA.AperFunction,Plated,PTH,ViaDrill
T1C0.300
; #@! TA.AperFunction,Plated,PTH,ViaDrill
T2C0.400
; #@! TA.AperFunction,Plated,PTH,ComponentDrill
T3C0.540
; #@! TA.AperFunction,Plated,PTH,ComponentDrill
T4C0.800
; #@! TA.AperFunction,Plated,PTH,ComponentDrill
T5C0.965
; #@! TA.AperFunction,Plated,PTH,ComponentDrill
T6C1.000
; #@! TA.AperFunction,Plated,PTH,ComponentDrill
T7C1.020
; #@! TA.AperFunction,Plated,PTH,ComponentDrill
T8C1.100
; #@! TA.AperFunction,Plated,PTH,ComponentDrill
T9C1.150
; #@! TA.AperFunction,Plated,PTH,ComponentDrill
T10C1.295
; #@! TA.AperFunction,Plated,PTH,ComponentDrill
T11C1.450
; #@! TA.AperFunction,Plated,PTH,ComponentDrill
T12C2.200
; #@! TA.AperFunction,Plated,PTH,ComponentDrill
T13C2.210
; #@! TA.AperFunction,Plated,PTH,ComponentDrill
T14C3.200
%
G90
G05
T1
X171.969Y-71.017
X174.77Y-69.697
X174.77Y-163.0
X177.135Y-68.27
X177.171Y-164.369
X179.701Y-166.192
X179.77Y-66.862
X182.169Y-167.399
X182.249Y-65.316
X184.811Y-168.93
X184.857Y-63.899
X187.272Y-62.657
X187.332Y-170.177
X189.77Y-61.387
X189.781Y-171.382
X194.873Y-173.014
X194.92Y-60.15
X199.0Y-166.2
X201.274Y-168.926
X201.438Y-241.464
X203.0Y-172.095
X204.4Y-66.8
X206.3Y-63.972
X213.709Y-240.255
X213.71Y-164.972
X217.412Y-240.173
X217.45Y-165.081
X220.311Y-71.0
X220.337Y-161.346
X221.0Y-172.095
X222.201Y-241.464
X222.858Y-162.94
X222.868Y-69.662
X225.416Y-164.495
X225.425Y-68.314
X227.937Y-166.127
X228.0Y-66.909
X230.5Y-65.354
X230.5Y-167.449
X231.851Y-292.331
X233.0Y-64.083
X233.0Y-168.926
X234.906Y-235.238
X235.5Y-62.887
X235.572Y-170.131
X237.256Y-231.291
X238.067Y-61.641
X238.093Y-171.414
X238.177Y-292.421
X239.517Y-235.216
X243.171Y-173.0
X243.25Y-60.068
X266.54Y-60.907
X267.25Y-101.0
X267.447Y-60.068
X268.025Y-62.173
X268.567Y-112.416
X268.785Y-61.406
X269.755Y-102.5
X270.623Y-62.55
X271.0Y-72.0
X271.0Y-73.0
X271.075Y-113.25
X271.989Y-64.083
X272.25Y-103.75
X272.3Y-62.9
X273.563Y-70.554
X273.599Y-69.403
X273.638Y-114.11
X274.217Y-65.327
X275.0Y-104.75
X275.404Y-66.097
X275.5Y-68.5
X275.505Y-67.361
X276.762Y-115.223
X277.031Y-290.006
X277.304Y-296.392
X278.83Y-116.123
X280.0Y-105.75
X281.29Y-117.04
X283.771Y-118.0
X285.614Y-203.628
X285.859Y-200.307
X286.36Y-119.068
X287.973Y-214.245
X288.0Y-241.0
X288.004Y-197.84
X288.132Y-185.133
X288.9Y-119.976
X288.904Y-226.341
X288.904Y-253.188
X289.451Y-173.326
X290.464Y-171.745
X291.44Y-121.0
X303.153Y-253.8
X308.244Y-228.1
X312.245Y-145.166
X316.028Y-142.946
X317.284Y-142.939
X322.29Y-142.891
X327.0Y-145.0
X331.093Y-247.0
X334.0Y-148.0
X335.252Y-228.081
X337.427Y-141.473
X342.0Y-146.0
X343.871Y-134.59
X344.082Y-248.184
X355.35Y-249.302
X357.924Y-248.224
X359.024Y-134.509
X361.0Y-252.706
X367.778Y-198.0
X368.0Y-214.0
X368.531Y-168.866
X368.826Y-303.505
X370.176Y-300.767
X370.25Y-207.798
X370.258Y-211.566
X370.728Y-182.728
X370.764Y-178.952
X373.226Y-306.217
X373.25Y-303.75
X373.526Y-301.217
X375.994Y-244.446
X376.426Y-299.117
X378.313Y-289.516
X378.476Y-308.767
X379.826Y-308.767
X381.126Y-308.767
X384.276Y-305.467
X384.276Y-306.467
X384.976Y-299.667
X384.976Y-300.617
X385.348Y-243.201
X386.126Y-244.453
X386.326Y-304.467
X387.376Y-304.467
X388.846Y-289.953
X389.076Y-303.617
X389.376Y-295.017
X389.746Y-289.948
X390.343Y-293.995
X390.539Y-297.555
X390.551Y-298.556
X391.636Y-298.062
X392.176Y-294.667
X392.376Y-303.617
X392.426Y-286.967
X392.733Y-297.555
X392.745Y-298.592
X395.426Y-294.917
X395.826Y-311.467
X397.426Y-300.017
X398.126Y-300.667
X399.376Y-299.467
X400.005Y-302.493
X400.005Y-303.782
X400.576Y-292.067
X400.852Y-281.171
X400.915Y-286.901
X401.0Y-284.0
X406.852Y-274.948
X406.867Y-192.54
X409.355Y-277.089
X409.414Y-191.491
X413.117Y-194.734
X413.13Y-277.081
X423.237Y-275.09
X423.241Y-192.51
X445.8Y-57.3
T2
X396.75Y-312.75
T3
X346.067Y-235.715
X346.067Y-236.985
X346.067Y-238.255
X346.067Y-239.525
X346.067Y-240.795
X347.337Y-235.715
X347.337Y-236.985
X347.337Y-238.255
X347.337Y-239.525
X347.337Y-240.795
T4
X370.876Y-274.017
X370.876Y-276.017
X370.876Y-278.017
X374.727Y-288.645
X374.727Y-290.645
X374.727Y-292.645
X382.206Y-274.0
X382.206Y-276.0
X382.206Y-278.0
X398.672Y-306.74
X398.672Y-308.74
X398.672Y-310.74
T5
X258.75Y-291.98
X258.75Y-294.52
X271.66Y-292.056
X271.66Y-294.596
X289.952Y-190.3
X289.952Y-192.84
X363.035Y-232.686
X363.035Y-235.226
X363.035Y-237.766
X363.035Y-240.306
X363.035Y-242.846
X363.035Y-245.386
X363.035Y-247.926
X363.035Y-250.466
T6
X166.98Y-80.645
X166.98Y-83.185
X166.98Y-85.725
X166.98Y-88.265
X166.98Y-90.805
X166.98Y-93.345
X166.98Y-95.885
X166.98Y-98.425
X166.98Y-100.965
X166.98Y-103.505
X172.06Y-75.565
X172.06Y-108.585
X174.6Y-75.565
X174.6Y-108.585
X177.14Y-75.565
X177.14Y-108.585
X179.68Y-75.565
X179.68Y-108.585
X182.22Y-75.565
X182.22Y-108.585
X184.76Y-75.565
X184.76Y-108.585
X187.3Y-75.565
X187.3Y-108.585
X189.84Y-75.565
X189.84Y-108.585
X192.38Y-75.565
X192.38Y-108.585
X194.92Y-75.565
X194.92Y-108.585
X200.0Y-80.645
X200.0Y-83.185
X200.0Y-85.725
X200.0Y-88.265
X200.0Y-90.805
X200.0Y-93.345
X200.0Y-95.885
X200.0Y-98.425
X200.0Y-100.965
X200.0Y-103.505
X215.24Y-80.645
X215.24Y-83.185
X215.24Y-85.725
X215.24Y-88.265
X215.24Y-90.805
X215.24Y-93.345
X215.24Y-95.885
X215.24Y-98.425
X215.24Y-100.965
X215.24Y-103.505
X220.32Y-75.565
X220.32Y-108.585
X222.86Y-75.565
X222.86Y-108.585
X225.4Y-75.565
X225.4Y-108.585
X227.94Y-75.565
X227.94Y-108.585
X230.48Y-75.565
X230.48Y-108.585
X233.02Y-75.565
X233.02Y-108.585
X235.56Y-75.565
X235.56Y-108.585
X238.1Y-75.565
X238.1Y-108.585
X240.64Y-75.565
X240.64Y-108.585
X243.18Y-75.565
X243.18Y-108.585
X248.26Y-80.645
X248.26Y-83.185
X248.26Y-85.725
X248.26Y-88.265
X248.26Y-90.805
X248.26Y-93.345
X248.26Y-95.885
X248.26Y-98.425
X248.26Y-100.965
X248.26Y-103.505
X263.5Y-80.645
X263.5Y-83.185
X263.5Y-85.725
X263.5Y-88.265
X263.5Y-90.805
X263.5Y-93.345
X263.5Y-95.885
X263.5Y-98.425
X263.5Y-100.965
X263.5Y-103.505
X268.58Y-75.565
X268.58Y-108.585
X271.12Y-75.565
X271.12Y-108.585
X273.66Y-75.565
X273.66Y-108.585
X276.2Y-75.565
X276.2Y-108.585
X278.74Y-75.565
X278.74Y-108.585
X281.28Y-75.565
X281.28Y-108.585
X283.82Y-75.565
X283.82Y-108.585
X284.978Y-190.298
X284.978Y-192.838
X286.36Y-75.565
X286.36Y-108.585
X288.9Y-75.565
X288.9Y-108.585
X291.44Y-75.565
X291.44Y-108.585
X294.981Y-190.294
X294.981Y-192.834
X296.52Y-80.645
X296.52Y-83.185
X296.52Y-85.725
X296.52Y-88.265
X296.52Y-90.805
X296.52Y-93.345
X296.52Y-95.885
X296.52Y-98.425
X296.52Y-100.965
X296.52Y-103.505
X310.98Y-180.03
X310.98Y-182.57
X310.98Y-185.11
X310.98Y-187.65
X310.98Y-190.19
X310.98Y-192.73
X310.98Y-195.27
X310.98Y-197.81
X310.98Y-200.35
X310.98Y-202.89
X316.06Y-208.0
X316.09Y-174.98
X318.6Y-208.0
X318.63Y-174.98
X321.14Y-208.0
X321.17Y-174.98
X323.68Y-208.0
X323.71Y-174.98
X326.22Y-208.0
X326.25Y-174.98
X328.76Y-208.0
X328.79Y-174.98
X331.3Y-208.0
X331.33Y-174.98
X333.84Y-208.0
X333.87Y-174.98
X336.38Y-208.0
X336.41Y-174.98
X338.92Y-208.0
X338.95Y-174.98
X344.0Y-180.06
X344.0Y-182.6
X344.0Y-185.14
X344.0Y-187.68
X344.0Y-190.22
X344.0Y-192.76
X344.0Y-195.3
X344.0Y-197.84
X344.0Y-200.38
X344.0Y-202.92
X402.844Y-64.262
X402.844Y-66.802
X402.844Y-69.342
X402.844Y-71.882
X402.844Y-74.422
X402.844Y-76.962
X402.844Y-79.502
X402.844Y-82.042
X402.844Y-84.582
X402.844Y-87.122
X405.75Y-302.75
X407.924Y-59.182
X407.924Y-92.202
X410.464Y-59.182
X410.464Y-92.202
X413.004Y-59.182
X413.004Y-92.202
X415.544Y-59.182
X415.544Y-92.202
X418.084Y-59.182
X418.084Y-92.202
X420.624Y-59.182
X420.624Y-92.202
X423.164Y-59.182
X423.164Y-92.202
X425.704Y-59.182
X425.704Y-92.202
X428.244Y-59.182
X428.244Y-92.202
X430.784Y-59.182
X430.784Y-92.202
X435.864Y-64.262
X435.864Y-66.802
X435.864Y-69.342
X435.864Y-71.882
X435.864Y-74.422
X435.864Y-76.962
X435.864Y-79.502
X435.864Y-82.042
X435.864Y-84.582
X435.864Y-87.122
T7
X234.602Y-225.0
X237.142Y-225.0
X239.682Y-225.0
X255.98Y-56.0
X255.98Y-58.54
X258.52Y-56.0
X258.52Y-58.54
X261.06Y-56.0
X261.06Y-58.54
X263.6Y-56.0
X263.6Y-58.54
X266.14Y-56.0
X266.14Y-58.54
X268.68Y-56.0
X268.68Y-58.54
X271.22Y-56.0
X271.22Y-58.54
X273.76Y-56.0
X273.76Y-58.54
X276.3Y-56.0
X276.3Y-58.54
X278.84Y-56.0
X278.84Y-58.54
X281.38Y-56.0
X281.38Y-58.54
X283.92Y-56.0
X283.92Y-58.54
X286.46Y-56.0
X286.46Y-58.54
X289.0Y-56.0
X289.0Y-58.54
X291.54Y-56.0
X291.54Y-58.54
X294.08Y-56.0
X294.08Y-58.54
X296.62Y-56.0
X296.62Y-58.54
X299.16Y-56.0
X299.16Y-58.54
X301.7Y-56.0
X301.7Y-58.54
X304.24Y-56.0
X304.24Y-58.54
T8
X167.009Y-129.612
X167.009Y-132.152
X167.009Y-134.692
X167.009Y-137.232
X167.009Y-139.772
X167.009Y-142.312
X167.009Y-144.852
X167.009Y-147.392
X167.009Y-149.932
X167.009Y-152.472
X172.06Y-124.521
X172.06Y-157.541
X174.6Y-124.521
X174.6Y-157.541
X177.14Y-124.521
X177.14Y-157.541
X179.68Y-124.521
X179.68Y-157.541
X182.22Y-124.521
X182.22Y-157.541
X184.76Y-124.521
X184.76Y-157.541
X187.3Y-124.521
X187.3Y-157.541
X189.84Y-124.521
X189.84Y-157.541
X192.38Y-124.521
X192.38Y-157.541
X194.92Y-124.521
X194.92Y-157.541
X200.0Y-129.667
X200.0Y-132.207
X200.0Y-134.747
X200.0Y-137.287
X200.0Y-139.827
X200.0Y-142.367
X200.0Y-144.907
X200.0Y-147.447
X200.0Y-149.987
X200.0Y-152.527
X215.282Y-129.612
X215.282Y-132.152
X215.282Y-134.692
X215.282Y-137.232
X215.282Y-139.772
X215.282Y-142.312
X215.282Y-144.852
X215.282Y-147.392
X215.282Y-149.932
X215.282Y-152.472
X219.281Y-185.975
X219.281Y-188.515
X219.281Y-191.055
X219.281Y-193.595
X219.281Y-196.135
X219.281Y-198.675
X219.281Y-201.215
X219.281Y-203.755
X219.281Y-206.295
X219.281Y-208.835
X220.32Y-124.521
X220.32Y-157.541
X220.553Y-258.435
X220.553Y-260.975
X220.553Y-263.515
X220.553Y-266.055
X220.553Y-268.595
X220.553Y-271.135
X220.553Y-273.675
X220.553Y-276.215
X220.553Y-278.755
X220.553Y-281.295
X222.86Y-124.521
X222.86Y-157.541
X225.4Y-124.521
X225.4Y-157.541
X227.94Y-124.521
X227.94Y-157.541
X230.48Y-124.521
X230.48Y-157.541
X233.02Y-124.521
X233.02Y-157.541
X235.56Y-124.521
X235.56Y-157.541
X238.1Y-124.521
X238.1Y-157.541
X240.64Y-124.521
X240.64Y-157.541
X243.18Y-124.521
X243.18Y-157.541
X248.26Y-129.601
X248.26Y-132.141
X248.26Y-134.681
X248.26Y-137.221
X248.26Y-139.761
X248.26Y-142.301
X248.26Y-144.841
X248.26Y-147.381
X248.26Y-149.921
X248.26Y-152.461
X263.523Y-129.574
X263.523Y-132.114
X263.523Y-134.654
X263.523Y-137.194
X263.523Y-139.734
X263.523Y-142.274
X263.523Y-144.814
X263.523Y-147.354
X263.523Y-149.894
X263.523Y-152.434
X268.58Y-124.521
X268.58Y-157.795
X271.12Y-124.521
X271.12Y-157.795
X273.66Y-124.521
X273.66Y-157.795
X276.2Y-124.521
X276.2Y-157.795
X278.74Y-124.521
X278.74Y-157.795
X281.28Y-124.521
X281.28Y-157.795
X283.82Y-124.521
X283.82Y-157.795
X286.36Y-124.521
X286.36Y-157.795
X288.9Y-124.521
X288.9Y-157.795
X291.44Y-124.521
X291.44Y-157.795
X296.513Y-129.579
X296.513Y-132.119
X296.513Y-134.659
X296.513Y-137.199
X296.513Y-139.739
X296.513Y-142.279
X296.513Y-144.819
X296.513Y-147.359
X296.513Y-149.899
X296.513Y-152.439
X383.0Y-199.38
X383.0Y-201.92
X383.0Y-204.46
X383.0Y-207.0
X383.0Y-209.54
X383.0Y-212.08
X383.0Y-214.62
X383.0Y-217.16
X383.0Y-219.7
X383.0Y-222.24
X383.135Y-160.432
X383.135Y-162.972
X383.135Y-165.512
X383.135Y-168.052
X383.135Y-170.592
X383.135Y-173.132
X383.135Y-175.672
X383.135Y-178.212
X383.135Y-180.752
X383.135Y-183.292
X395.085Y-101.737
X395.085Y-104.277
X397.625Y-101.737
X397.625Y-104.277
X400.165Y-101.737
X400.165Y-104.277
X402.705Y-101.737
X402.705Y-104.277
X405.245Y-101.737
X405.245Y-104.277
X407.785Y-101.737
X407.785Y-104.277
X410.325Y-101.737
X410.325Y-104.277
X412.865Y-101.737
X412.865Y-104.277
X415.405Y-101.737
X415.405Y-104.277
X417.945Y-101.737
X417.945Y-104.277
X420.485Y-101.737
X420.485Y-104.277
X423.025Y-101.737
X423.025Y-104.277
X425.565Y-101.737
X425.565Y-104.277
X428.105Y-101.737
X428.105Y-104.277
X430.645Y-101.737
X430.645Y-104.277
X433.185Y-101.737
X433.185Y-104.277
X435.725Y-101.737
X435.725Y-104.277
X438.265Y-101.737
X438.265Y-104.277
X440.805Y-101.737
X440.805Y-104.277
X443.345Y-101.737
X443.345Y-104.277
T9
X303.153Y-236.765
X305.693Y-236.765
X308.233Y-236.765
X310.773Y-236.765
X313.313Y-236.765
X315.853Y-236.765
X318.393Y-236.765
X320.933Y-236.765
X323.473Y-236.765
X326.013Y-236.765
X328.553Y-236.765
X331.093Y-236.765
X333.633Y-236.765
X336.173Y-236.765
X338.713Y-236.765
T10
X413.72Y-296.827
X413.72Y-306.987
X423.88Y-296.827
X423.88Y-306.987
X432.3Y-296.827
X432.3Y-306.987
X442.46Y-296.827
X442.46Y-306.987
T11
X341.3Y-140.0
X343.84Y-140.0
X346.38Y-140.0
X348.92Y-140.0
X351.46Y-140.0
X354.0Y-140.0
X356.54Y-140.0
X359.08Y-140.0
X361.62Y-140.0
T12
X137.0Y-201.0
X137.0Y-211.0
X137.0Y-273.0
X137.0Y-283.0
X153.14Y-185.965
X153.14Y-225.843
X153.167Y-258.058
X153.167Y-297.936
X190.986Y-185.965
X190.986Y-225.843
X191.013Y-258.058
X191.013Y-297.936
X234.516Y-187.5
X234.516Y-207.5
X270.516Y-187.5
X270.516Y-207.5
X301.0Y-283.22
X301.0Y-297.22
X312.0Y-269.22
X332.0Y-269.22
X343.0Y-283.22
X343.0Y-297.22
X402.014Y-129.157
X402.014Y-169.035
X402.154Y-211.064
X402.154Y-250.942
X439.86Y-129.157
X439.86Y-169.035
X440.0Y-211.064
X440.0Y-250.942
X456.0Y-144.0
X456.0Y-154.0
X456.0Y-226.0
X456.0Y-236.0
T13
X418.8Y-300.637
X437.38Y-300.637
T14
X139.0Y-59.0
X139.0Y-318.0
X153.0Y-177.0
X153.154Y-249.0
X166.98Y-75.565
X166.98Y-108.585
X166.98Y-124.521
X166.98Y-157.541
X191.0Y-235.0
X191.0Y-307.0
X200.0Y-75.565
X200.0Y-108.585
X200.0Y-124.521
X200.0Y-157.541
X215.24Y-75.565
X215.24Y-108.585
X215.24Y-124.521
X215.24Y-157.541
X236.016Y-181.0
X236.016Y-214.0
X248.26Y-75.565
X248.26Y-108.585
X248.26Y-124.521
X248.26Y-157.541
X263.5Y-75.565
X263.5Y-108.585
X263.5Y-124.521
X263.5Y-157.541
X269.016Y-181.0
X269.016Y-214.0
X288.0Y-263.0
X288.0Y-317.0
X296.52Y-75.565
X296.52Y-108.585
X296.52Y-124.521
X296.52Y-157.541
X310.98Y-174.98
X310.98Y-208.0
X327.274Y-117.0
X327.446Y-83.929
X344.0Y-174.98
X344.0Y-208.0
X356.0Y-263.0
X356.0Y-317.0
X360.274Y-84.0
X360.274Y-117.0
X382.0Y-59.0
X402.0Y-120.0
X402.154Y-202.0
X402.848Y-92.235
X402.907Y-59.186
X435.809Y-92.133
X435.848Y-59.193
X439.86Y-178.0
X440.0Y-260.0
X440.0Y-279.0
T0
M30
