<?xml version="1.0" standalone="no"?>
 <!DOCTYPE svg PUBLIC "-//W3C//DTD SVG 1.1//EN" 
 "http://www.w3.org/Graphics/SVG/1.1/DTD/svg11.dtd"> 
<svg
  xmlns:svg="http://www.w3.org/2000/svg"
  xmlns="http://www.w3.org/2000/svg"
  xmlns:xlink="http://www.w3.org/1999/xlink"
  version="1.1"
  width="297.002200mm" height="210.007200mm" viewBox="0.000000 0.000000 297.002200 210.007200">
<title>SVG Image created as PQ_ADCS-B_Silkscreen.svg date 2024/01/09 11:52:09 </title>
  <desc>Image generated by PCBNEW </desc>
<g style="fill:#000000; fill-opacity:1.000000;stroke:#000000; stroke-opacity:1.000000;
stroke-linecap:round; stroke-linejoin:round;"
 transform="translate(0 0) scale(1 1)">
</g>
<g style="fill:#000000; fill-opacity:0.0; 
stroke:#000000; stroke-width:0.000000; stroke-opacity:1; 
stroke-linecap:round; stroke-linejoin:round;">
</g>
<g style="fill:#000000; fill-opacity:1.000000; 
stroke:#000000; stroke-width:0.000000; stroke-opacity:1; 
stroke-linecap:round; stroke-linejoin:round;">
<circle cx="157.000000" cy="103.100000" r="0.298607" /> 
<circle cx="142.800000" cy="86.900000" r="0.298607" /> 
<circle cx="155.100000" cy="86.800000" r="0.298607" /> 
</g>
<g style="fill:#000000; fill-opacity:1.000000; 
stroke:#000000; stroke-width:0.100000; stroke-opacity:1; 
stroke-linecap:round; stroke-linejoin:round;">
</g>
<g style="fill:#000000; fill-opacity:0.0; 
stroke:#000000; stroke-width:0.100000; stroke-opacity:1; 
stroke-linecap:round; stroke-linejoin:round;">
<g transform="rotate(-180.000000 156.819600 87.071200)">
<text x="156.819600" y="87.271200"
transform="scale(-1 1) translate(-313.639200 0)"
textLength="1.572381" font-size="0.533333" lengthAdjust="spacingAndGlyphs"
text-anchor="middle" opacity="0">BATT</text>
</g>
<g class="stroked-text"><desc>BATT</desc>
<path d="M156.371981 87.100876
L156.429124 87.081828
" />
<path d="M156.429124 87.081828
L156.448171 87.062780
" />
<path d="M156.448171 87.062780
L156.467219 87.024685
" />
<path d="M156.467219 87.024685
L156.467219 86.967542
" />
<path d="M156.467219 86.967542
L156.448171 86.929447
" />
<path d="M156.448171 86.929447
L156.429124 86.910400
" />
<path d="M156.429124 86.910400
L156.391029 86.891352
" />
<path d="M156.391029 86.891352
L156.238648 86.891352
" />
<path d="M156.238648 86.891352
L156.238648 87.291352
" />
<path d="M156.238648 87.291352
L156.371981 87.291352
" />
<path d="M156.371981 87.291352
L156.410076 87.272304
" />
<path d="M156.410076 87.272304
L156.429124 87.253257
" />
<path d="M156.429124 87.253257
L156.448171 87.215161
" />
<path d="M156.448171 87.215161
L156.448171 87.177066
" />
<path d="M156.448171 87.177066
L156.429124 87.138971
" />
<path d="M156.429124 87.138971
L156.410076 87.119923
" />
<path d="M156.410076 87.119923
L156.371981 87.100876
" />
<path d="M156.371981 87.100876
L156.238648 87.100876
" />
<path d="M156.619600 87.005638
L156.810076 87.005638
" />
<path d="M156.581505 86.891352
L156.714838 87.291352
" />
<path d="M156.714838 87.291352
L156.848171 86.891352
" />
<path d="M156.924362 87.291352
L157.152933 87.291352
" />
<path d="M157.038647 86.891352
L157.038647 87.291352
" />
<path d="M157.229124 87.291352
L157.457695 87.291352
" />
<path d="M157.343409 86.891352
L157.343409 87.291352
" />
</g><g transform="rotate(90.000000 157.988000 89.027000)">
<text x="157.988000" y="89.227000"
transform="scale(-1 1) translate(-315.976000 0)"
textLength="1.096190" font-size="0.533333" lengthAdjust="spacingAndGlyphs"
text-anchor="middle" opacity="0">-Z</text>
</g>
<g class="stroked-text"><desc>-Z</desc>
<path d="M157.960533 89.369856
L157.960533 89.065095
" />
<path d="M158.208152 88.912714
L158.208152 88.646047
" />
<path d="M158.208152 88.646047
L157.808152 88.912714
" />
<path d="M157.808152 88.912714
L157.808152 88.646047
" />
</g><g transform="rotate(-180.000000 147.472400 87.122000)">
<text x="147.472400" y="87.322000"
transform="scale(-1 1) translate(-294.944800 0)"
textLength="1.058095" font-size="0.533333" lengthAdjust="spacingAndGlyphs"
text-anchor="middle" opacity="0">+Y</text>
</g>
<g class="stroked-text"><desc>+Y</desc>
<path d="M147.148591 87.094533
L147.453353 87.094533
" />
<path d="M147.300972 86.942152
L147.300972 87.246914
" />
<path d="M147.720019 87.132628
L147.720019 86.942152
" />
<path d="M147.586686 87.342152
L147.720019 87.132628
" />
<path d="M147.720019 87.132628
L147.853352 87.342152
" />
</g><text x="149.428200" y="102.993800"
transform="scale(-1 1) translate(-298.856400 0)"
textLength="1.058095" font-size="0.533333" lengthAdjust="spacingAndGlyphs"
text-anchor="middle" opacity="0">-Y</text>
<g class="stroked-text"><desc>-Y</desc>
<path d="M149.752008 102.821266
L149.447247 102.821266
" />
<path d="M149.180580 102.783171
L149.180580 102.973647
" />
<path d="M149.313913 102.573647
L149.180580 102.783171
" />
<path d="M149.180580 102.783171
L149.047247 102.573647
" />
</g><g transform="rotate(90.000000 142.240000 88.747600)">
<text x="142.240000" y="88.947600"
transform="scale(-1 1) translate(-284.480000 0)"
textLength="1.096190" font-size="0.533333" lengthAdjust="spacingAndGlyphs"
text-anchor="middle" opacity="0">+Z</text>
</g>
<g class="stroked-text"><desc>+Z</desc>
<path d="M142.212533 89.090456
L142.212533 88.785695
" />
<path d="M142.060152 88.938075
L142.364914 88.938075
" />
<path d="M142.460152 88.633314
L142.460152 88.366647
" />
<path d="M142.460152 88.366647
L142.060152 88.633314
" />
<path d="M142.060152 88.633314
L142.060152 88.366647
" />
</g><g transform="rotate(-90.000000 142.265400 100.101400)">
<text x="142.265400" y="100.301400"
textLength="1.096190" font-size="0.533333" lengthAdjust="spacingAndGlyphs"
text-anchor="middle" opacity="0">-X</text>
</g>
<g class="stroked-text"><desc>-X</desc>
<path d="M142.292866 100.444256
L142.292866 100.139495
" />
<path d="M142.045247 99.987114
L142.445247 99.720447
" />
<path d="M142.045247 99.720447
L142.445247 99.987114
" />
</g><g transform="rotate(-90.000000 157.683200 100.736400)">
<text x="157.683200" y="100.936400"
textLength="1.096190" font-size="0.533333" lengthAdjust="spacingAndGlyphs"
text-anchor="middle" opacity="0">+X</text>
</g>
<g class="stroked-text"><desc>+X</desc>
<path d="M157.710666 101.079256
L157.710666 100.774495
" />
<path d="M157.863047 100.926875
L157.558285 100.926875
" />
<path d="M157.463047 100.622114
L157.863047 100.355447
" />
<path d="M157.463047 100.355447
L157.863047 100.622114
" />
</g><g transform="rotate(-90.000000 146.227800 95.508000)">
<text x="146.227800" y="95.708000"
transform="scale(-1 1) translate(-292.455600 0)"
textLength="1.286666" font-size="0.533333" lengthAdjust="spacingAndGlyphs"
text-anchor="middle" opacity="0">J12</text>
</g>
<g class="stroked-text"><desc>J12</desc>
<path d="M146.007647 95.184190
L146.293361 95.184190
" />
<path d="M146.293361 95.184190
L146.350504 95.165143
" />
<path d="M146.350504 95.165143
L146.388600 95.127047
" />
<path d="M146.388600 95.127047
L146.407647 95.069905
" />
<path d="M146.407647 95.069905
L146.407647 95.031809
" />
<path d="M146.407647 95.584190
L146.407647 95.355619
" />
<path d="M146.407647 95.469905
L146.007647 95.469905
" />
<path d="M146.007647 95.469905
L146.064790 95.431809
" />
<path d="M146.064790 95.431809
L146.102885 95.393714
" />
<path d="M146.102885 95.393714
L146.121933 95.355619
" />
<path d="M146.045742 95.736571
L146.026695 95.755619
" />
<path d="M146.026695 95.755619
L146.007647 95.793714
" />
<path d="M146.007647 95.793714
L146.007647 95.888952
" />
<path d="M146.007647 95.888952
L146.026695 95.927047
" />
<path d="M146.026695 95.927047
L146.045742 95.946095
" />
<path d="M146.045742 95.946095
L146.083838 95.965142
" />
<path d="M146.083838 95.965142
L146.121933 95.965142
" />
<path d="M146.121933 95.965142
L146.179076 95.946095
" />
<path d="M146.179076 95.946095
L146.407647 95.717523
" />
<path d="M146.407647 95.717523
L146.407647 95.965142
" />
</g><g transform="rotate(-180.000000 155.934200 87.688000)">
<text x="155.934200" y="87.888000"
transform="scale(-1 1) translate(-311.868400 0)"
textLength="0.905714" font-size="0.533333" lengthAdjust="spacingAndGlyphs"
text-anchor="middle" opacity="0">J5</text>
</g>
<g class="stroked-text"><desc>J5</desc>
<path d="M155.800866 87.908152
L155.800866 87.622438
" />
<path d="M155.800866 87.622438
L155.781819 87.565295
" />
<path d="M155.781819 87.565295
L155.743723 87.527200
" />
<path d="M155.743723 87.527200
L155.686581 87.508152
" />
<path d="M155.686581 87.508152
L155.648485 87.508152
" />
<path d="M156.181819 87.908152
L155.991343 87.908152
" />
<path d="M155.991343 87.908152
L155.972295 87.717676
" />
<path d="M155.972295 87.717676
L155.991343 87.736723
" />
<path d="M155.991343 87.736723
L156.029438 87.755771
" />
<path d="M156.029438 87.755771
L156.124676 87.755771
" />
<path d="M156.124676 87.755771
L156.162771 87.736723
" />
<path d="M156.162771 87.736723
L156.181819 87.717676
" />
<path d="M156.181819 87.717676
L156.200866 87.679580
" />
<path d="M156.200866 87.679580
L156.200866 87.584342
" />
<path d="M156.200866 87.584342
L156.181819 87.546247
" />
<path d="M156.181819 87.546247
L156.162771 87.527200
" />
<path d="M156.162771 87.527200
L156.124676 87.508152
" />
<path d="M156.124676 87.508152
L156.029438 87.508152
" />
<path d="M156.029438 87.508152
L155.991343 87.527200
" />
<path d="M155.991343 87.527200
L155.972295 87.546247
" />
</g><g transform="rotate(-180.000000 146.711200 87.688000)">
<text x="146.711200" y="87.888000"
transform="scale(-1 1) translate(-293.422400 0)"
textLength="1.286666" font-size="0.533333" lengthAdjust="spacingAndGlyphs"
text-anchor="middle" opacity="0">J10</text>
</g>
<g class="stroked-text"><desc>J10</desc>
<path d="M146.387390 87.908152
L146.387390 87.622438
" />
<path d="M146.387390 87.622438
L146.368343 87.565295
" />
<path d="M146.368343 87.565295
L146.330247 87.527200
" />
<path d="M146.330247 87.527200
L146.273105 87.508152
" />
<path d="M146.273105 87.508152
L146.235009 87.508152
" />
<path d="M146.787390 87.508152
L146.558819 87.508152
" />
<path d="M146.673105 87.508152
L146.673105 87.908152
" />
<path d="M146.673105 87.908152
L146.635009 87.851009
" />
<path d="M146.635009 87.851009
L146.596914 87.812914
" />
<path d="M146.596914 87.812914
L146.558819 87.793866
" />
<path d="M147.035009 87.908152
L147.073104 87.908152
" />
<path d="M147.073104 87.908152
L147.111200 87.889104
" />
<path d="M147.111200 87.889104
L147.130247 87.870057
" />
<path d="M147.130247 87.870057
L147.149295 87.831961
" />
<path d="M147.149295 87.831961
L147.168342 87.755771
" />
<path d="M147.168342 87.755771
L147.168342 87.660533
" />
<path d="M147.168342 87.660533
L147.149295 87.584342
" />
<path d="M147.149295 87.584342
L147.130247 87.546247
" />
<path d="M147.130247 87.546247
L147.111200 87.527200
" />
<path d="M147.111200 87.527200
L147.073104 87.508152
" />
<path d="M147.073104 87.508152
L147.035009 87.508152
" />
<path d="M147.035009 87.508152
L146.996914 87.527200
" />
<path d="M146.996914 87.527200
L146.977866 87.546247
" />
<path d="M146.977866 87.546247
L146.958819 87.584342
" />
<path d="M146.958819 87.584342
L146.939771 87.660533
" />
<path d="M146.939771 87.660533
L146.939771 87.755771
" />
<path d="M146.939771 87.755771
L146.958819 87.831961
" />
<path d="M146.958819 87.831961
L146.977866 87.870057
" />
<path d="M146.977866 87.870057
L146.996914 87.889104
" />
<path d="M146.996914 87.889104
L147.035009 87.908152
" />
</g><text x="149.899600" y="102.505000"
transform="scale(-1 1) translate(-299.799200 0)"
textLength="1.286666" font-size="0.533333" lengthAdjust="spacingAndGlyphs"
text-anchor="middle" opacity="0">J11</text>
<g class="stroked-text"><desc>J11</desc>
<path d="M150.223409 102.084847
L150.223409 102.370561
" />
<path d="M150.223409 102.370561
L150.242456 102.427704
" />
<path d="M150.242456 102.427704
L150.280552 102.465800
" />
<path d="M150.280552 102.465800
L150.337694 102.484847
" />
<path d="M150.337694 102.484847
L150.375790 102.484847
" />
<path d="M149.823409 102.484847
L150.051980 102.484847
" />
<path d="M149.937694 102.484847
L149.937694 102.084847
" />
<path d="M149.937694 102.084847
L149.975790 102.141990
" />
<path d="M149.975790 102.141990
L150.013885 102.180085
" />
<path d="M150.013885 102.180085
L150.051980 102.199133
" />
<path d="M149.442457 102.484847
L149.671028 102.484847
" />
<path d="M149.556742 102.484847
L149.556742 102.084847
" />
<path d="M149.556742 102.084847
L149.594838 102.141990
" />
<path d="M149.594838 102.141990
L149.632933 102.180085
" />
<path d="M149.632933 102.180085
L149.671028 102.199133
" />
</g></g>
<g style="fill:#000000; fill-opacity:0.0; 
stroke:#000000; stroke-width:0.120000; stroke-opacity:1; 
stroke-linecap:round; stroke-linejoin:round;">
<path d="M152.605800 93.692000
L152.605800 96.352000
" />
<path d="M150.005800 93.692000
L152.605800 93.692000
" />
<path d="M150.005800 93.692000
L150.005800 96.352000
" />
<path d="M148.735800 93.692000
L147.405800 93.692000
" />
<path d="M147.405800 93.692000
L147.405800 95.022000
" />
<path d="M150.005800 96.352000
L152.605800 96.352000
" />
</g>
<g style="fill:#000000; fill-opacity:0.0; 
stroke:#000000; stroke-width:0.100000; stroke-opacity:1; 
stroke-linecap:round; stroke-linejoin:round;">
<path d="M165.287400 82.310600
L165.287400 94.110600
" />
<path d="M164.787400 82.310600
L165.287400 82.310600
" />
<path d="M159.937400 82.310600
L161.787400 82.310600
" />
<path d="M159.937400 82.810600
L159.937400 82.310600
" />
<path d="M159.937400 93.810600
L159.937400 94.310600
" />
<path d="M165.287400 94.110600
L165.287400 94.310600
" />
<path d="M165.287400 94.310600
L164.787400 94.310600
" />
<path d="M159.937400 94.310600
L161.787400 94.310600
" />
</g>
<g style="fill:#000000; fill-opacity:0.0; 
stroke:#000000; stroke-width:0.200000; stroke-opacity:1; 
stroke-linecap:round; stroke-linejoin:round;">
<path d="M159.087400 82.910600 A0.100000 0.100000 0.0 0 0 159.287400 82.910600" />
<path d="M159.287400 82.910600 A0.100000 0.100000 0.0 0 0 159.087400 82.910600" />
</g>
<g style="fill:#000000; fill-opacity:1.000000; 
stroke:#000000; stroke-width:0.000000; stroke-opacity:1; 
stroke-linecap:round; stroke-linejoin:round;">
<path style="fill:#000000; fill-opacity:1.000000; 
stroke:#000000; stroke-width:0.000000; stroke-opacity:1; 
stroke-linecap:round; stroke-linejoin:round;fill-rule:evenodd;"
d="M 151.614011,98.393956
151.398817,98.393956
151.398817,98.824345
151.614011,98.824345
151.614011,99.043067
148.156789,99.043067
148.156789,98.824345
148.587178,98.824345
148.587178,98.393956
148.805900,98.393956
148.805900,98.824345
149.236289,98.824345
149.236289,98.393956
149.455011,98.393956
149.455011,98.824345
149.885400,98.824345
149.885400,98.393956
150.100594,98.393956
150.100594,98.824345
150.534511,98.824345
150.534511,98.393956
150.749706,98.393956
150.749706,98.824345
151.180094,98.824345
151.180094,98.393956
150.749706,98.393956
150.534511,98.393956
150.100594,98.393956
149.885400,98.393956
149.455011,98.393956
149.236289,98.393956
148.805900,98.393956
148.587178,98.393956
148.156789,98.393956
148.156789,97.095734
148.373042,97.096439
148.588942,97.097498
148.591411,97.138067
148.592804,97.157062
148.594878,97.175991
148.597656,97.194920
148.601157,97.213914
148.605402,97.233042
148.610412,97.252367
148.616207,97.271957
148.622808,97.291878
148.634022,97.321904
148.646806,97.351510
148.661128,97.380675
148.676958,97.409378
148.694262,97.437599
148.713010,97.465316
148.733169,97.492508
148.754709,97.519155
148.777596,97.545236
148.801801,97.570729
148.827289,97.595615
148.854032,97.619871
148.881995,97.643477
148.911148,97.666411
148.941459,97.688654
148.972896,97.710184
149.005428,97.730981
149.039023,97.751022
149.073648,97.770288
149.109273,97.788757
149.145866,97.806409
149.183394,97.823223
149.261132,97.854250
149.342233,97.881673
149.426444,97.905323
149.513510,97.925033
149.603178,97.940637
149.663537,97.948289
149.727808,97.954037
149.794608,97.957857
149.862558,97.959731
149.930276,97.959636
149.996382,97.957553
150.059494,97.953461
150.118233,97.947339
150.163530,97.941118
150.208132,97.933965
150.252034,97.925883
150.295229,97.916874
150.337707,97.906941
150.379464,97.896087
150.420491,97.884314
150.460780,97.871624
150.500326,97.858022
150.539121,97.843508
150.577156,97.828085
150.614426,97.811757
150.650923,97.794525
150.686639,97.776393
150.721568,97.757363
150.755703,97.737437
150.802288,97.707897
150.846486,97.676884
150.888236,97.644486
150.927472,97.610795
150.964134,97.575898
150.998156,97.539886
151.029477,97.502847
151.058033,97.464872
151.083762,97.426049
151.106600,97.386467
151.126483,97.346218
151.143350,97.305389
151.157137,97.264070
151.167782,97.222350
151.175220,97.180319
151.177717,97.159215
151.179389,97.138067
151.181858,97.097498
151.398111,97.096439
151.614011,97.095734
Z" /> 
</g>
<g style="fill:#000000; fill-opacity:1.000000; 
stroke:#000000; stroke-width:0.120000; stroke-opacity:1; 
stroke-linecap:round; stroke-linejoin:round;">
</g>
<g style="fill:#000000; fill-opacity:0.0; 
stroke:#000000; stroke-width:0.120000; stroke-opacity:1; 
stroke-linecap:round; stroke-linejoin:round;">
<path d="M153.549200 79.818000
L158.769200 79.818000
" />
<path d="M153.549200 80.368000
L153.549200 79.818000
" />
<path d="M153.549200 82.688000
L153.549200 85.388000
" />
<path d="M153.549200 85.388000
L154.599200 85.388000
" />
<path d="M154.599200 85.388000
L154.599200 86.178000
" />
<path d="M158.769200 79.818000
L158.769200 80.368000
" />
<path d="M158.769200 82.688000
L158.769200 85.388000
" />
<path d="M158.769200 85.388000
L157.719200 85.388000
" />
</g>
<g style="fill:#000000; fill-opacity:0.0; 
stroke:#000000; stroke-width:0.100000; stroke-opacity:1; 
stroke-linecap:round; stroke-linejoin:round;">
<path d="M134.725800 107.685000
L134.725800 95.885000
" />
<path d="M135.225800 107.685000
L134.725800 107.685000
" />
<path d="M140.075800 107.685000
L138.225800 107.685000
" />
<path d="M140.075800 107.185000
L140.075800 107.685000
" />
<path d="M140.075800 96.185000
L140.075800 95.685000
" />
<path d="M134.725800 95.885000
L134.725800 95.685000
" />
<path d="M134.725800 95.685000
L135.225800 95.685000
" />
<path d="M140.075800 95.685000
L138.225800 95.685000
" />
</g>
<g style="fill:#000000; fill-opacity:0.0; 
stroke:#000000; stroke-width:0.200000; stroke-opacity:1; 
stroke-linecap:round; stroke-linejoin:round;">
<path d="M140.925800 107.085000 A0.100000 0.100000 0.0 0 0 140.725800 107.085000" />
<path d="M140.725800 107.085000 A0.100000 0.100000 0.0 0 0 140.925800 107.085000" />
</g>
<g style="fill:#000000; fill-opacity:0.0; 
stroke:#000000; stroke-width:0.100000; stroke-opacity:1; 
stroke-linecap:round; stroke-linejoin:round;">
<path d="M134.712000 94.294600
L134.712000 82.494600
" />
<path d="M135.212000 94.294600
L134.712000 94.294600
" />
<path d="M140.062000 94.294600
L138.212000 94.294600
" />
<path d="M140.062000 93.794600
L140.062000 94.294600
" />
<path d="M140.062000 82.794600
L140.062000 82.294600
" />
<path d="M134.712000 82.494600
L134.712000 82.294600
" />
<path d="M134.712000 82.294600
L135.212000 82.294600
" />
<path d="M140.062000 82.294600
L138.212000 82.294600
" />
</g>
<g style="fill:#000000; fill-opacity:0.0; 
stroke:#000000; stroke-width:0.200000; stroke-opacity:1; 
stroke-linecap:round; stroke-linejoin:round;">
<path d="M140.912000 93.694600 A0.100000 0.100000 0.0 0 0 140.712000 93.694600" />
<path d="M140.712000 93.694600 A0.100000 0.100000 0.0 0 0 140.912000 93.694600" />
<path d="M151.563200 91.889000
L151.563200 90.189000
" />
<path d="M151.563200 90.589000
L150.263200 91.889000
" />
<path d="M151.563200 90.589000
L149.863200 90.589000
" />
<path d="M151.563200 90.189000
L151.963200 90.189000
" />
<path d="M150.263200 91.889000
L148.563200 91.889000
" />
<path d="M150.063200 92.589000
L149.663200 92.589000
" />
<path d="M149.863200 92.289000
L149.863200 92.589000
" />
<path d="M149.863200 90.589000
L148.563200 91.889000
" />
<path d="M149.863200 89.989000
L149.863200 91.889000
" />
<path d="M149.663200 89.989000
L150.263200 89.989000
" />
<path d="M151.963200 90.589000 A0.200000 0.200000 0.0 0 0 151.963200 90.189000" />
<circle cx="151.563200" cy="91.889000" r="0.707107" /> 
<circle cx="149.863200" cy="92.089000" r="0.200000" /> 
<circle cx="148.563200" cy="91.889000" r="0.707107" /> 
</g>
<g style="fill:#000000; fill-opacity:0.0; 
stroke:#000000; stroke-width:0.120000; stroke-opacity:1; 
stroke-linecap:round; stroke-linejoin:round;">
<path d="M141.151200 79.818000
L152.371200 79.818000
" />
<path d="M141.151200 80.368000
L141.151200 79.818000
" />
<path d="M141.151200 82.688000
L141.151200 85.388000
" />
<path d="M141.151200 85.388000
L142.201200 85.388000
" />
<path d="M142.201200 85.388000
L142.201200 86.178000
" />
<path d="M152.371200 79.818000
L152.371200 80.368000
" />
<path d="M152.371200 82.688000
L152.371200 85.388000
" />
<path d="M152.371200 85.388000
L151.321200 85.388000
" />
</g>
<g style="fill:#000000; fill-opacity:0.0; 
stroke:#000000; stroke-width:0.100000; stroke-opacity:1; 
stroke-linecap:round; stroke-linejoin:round;">
<path d="M165.228200 95.676200
L165.228200 107.476200
" />
<path d="M164.728200 95.676200
L165.228200 95.676200
" />
<path d="M159.878200 95.676200
L161.728200 95.676200
" />
<path d="M159.878200 96.176200
L159.878200 95.676200
" />
<path d="M159.878200 107.176200
L159.878200 107.676200
" />
<path d="M165.228200 107.476200
L165.228200 107.676200
" />
<path d="M165.228200 107.676200
L164.728200 107.676200
" />
<path d="M159.878200 107.676200
L161.728200 107.676200
" />
</g>
<g style="fill:#000000; fill-opacity:0.0; 
stroke:#000000; stroke-width:0.200000; stroke-opacity:1; 
stroke-linecap:round; stroke-linejoin:round;">
<path d="M159.028200 96.276200 A0.100000 0.100000 0.0 0 0 159.228200 96.276200" />
<path d="M159.228200 96.276200 A0.100000 0.100000 0.0 0 0 159.028200 96.276200" />
</g>
<g style="fill:#000000; fill-opacity:0.0; 
stroke:#000000; stroke-width:0.120000; stroke-opacity:1; 
stroke-linecap:round; stroke-linejoin:round;">
<path d="M158.634600 110.175000
L141.414600 110.175000
" />
<path d="M158.634600 109.625000
L158.634600 110.175000
" />
<path d="M158.634600 107.305000
L158.634600 104.605000
" />
<path d="M158.634600 104.605000
L157.584600 104.605000
" />
<path d="M157.584600 104.605000
L157.584600 103.815000
" />
<path d="M141.414600 110.175000
L141.414600 109.625000
" />
<path d="M141.414600 107.305000
L141.414600 104.605000
" />
<path d="M141.414600 104.605000
L142.464600 104.605000
" />
<g >
</g>
<g >
</g>
<g >
</g>
<g >
</g>
<g >
</g>
<g >
</g>
<g >
</g>
<g >
</g>
<g >
</g>
<g >
</g>
<g >
</g>
<g >
</g>
<g >
</g>
<g >
</g>
<g >
</g>
<g >
</g>
<g >
</g>
<g >
</g>
<g >
</g>
<g >
</g>
<g >
</g>
<g >
</g>
<g >
</g>
<g >
</g>
<g >
</g>
<g >
</g>
<g >
</g>
<g >
</g>
<g >
</g>
<g >
</g>
<g >
</g>
<g >
</g>
<g >
</g>
<g >
</g>
<g >
</g>
<g >
</g>
<g >
</g>
<g >
</g>
<g >
</g>
<g >
</g>
<g >
</g>
<g >
</g>
<g >
</g>
<g >
</g>
<g >
</g>
<g >
</g>
<g >
</g>
<g >
</g>
<g >
</g>
<g >
</g>
<g >
</g>
<g >
</g>
<g >
</g>
<g >
</g>
</g> 
</svg>
