<?xml version="1.0" standalone="no"?>
 <!DOCTYPE svg PUBLIC "-//W3C//DTD SVG 1.1//EN" 
 "http://www.w3.org/Graphics/SVG/1.1/DTD/svg11.dtd"> 
<svg
  xmlns:svg="http://www.w3.org/2000/svg"
  xmlns="http://www.w3.org/2000/svg"
  xmlns:xlink="http://www.w3.org/1999/xlink"
  version="1.1"
  width="297.002200mm" height="210.007200mm" viewBox="0.000000 0.000000 297.002200 210.007200">
<title>SVG Image created as PQ_ADCS-Edge_Cuts.svg date 2024/01/09 11:52:09 </title>
  <desc>Image generated by PCBNEW </desc>
<g style="fill:#000000; fill-opacity:1.000000;stroke:#000000; stroke-opacity:1.000000;
stroke-linecap:round; stroke-linejoin:round;"
 transform="translate(0 0) scale(1 1)">
</g>
<g style="fill:#000000; fill-opacity:0.0; 
stroke:#000000; stroke-width:0.000000; stroke-opacity:1; 
stroke-linecap:round; stroke-linejoin:round;">
</g>
<g style="fill:#000000; fill-opacity:0.0; 
stroke:#000000; stroke-width:0.250000; stroke-opacity:1; 
stroke-linecap:round; stroke-linejoin:round;">
<path d="M163.000000 114.000000
L137.000000 114.000000
" />
<path d="M135.000000 75.000000
L137.000000 76.000000
" />
<path d="M163.000000 76.000000
L165.000000 75.000000
" />
<path d="M169.000000 108.000000
L170.000000 110.000000
" />
<path d="M137.000000 114.000000
L135.000000 115.000000
" />
<path d="M131.000000 82.000000
L130.000000 80.000000
" />
<path d="M170.000000 80.000000
L170.000000 76.000209
" />
<path d="M130.000000 80.000000
L130.000000 76.000000
" />
<path d="M170.000000 80.000000
L169.000000 82.000000
" />
<path d="M131.000000 75.000000 A1.000000 1.000000 0.0 0 0 130.000000 76.000000" />
<path d="M135.000000 115.000000
L131.000000 115.000000
" />
<path d="M170.000000 110.000000
L170.000000 114.000000
" />
<path d="M169.000000 115.000000 A1.000000 1.000000 0.0 0 0 170.000000 114.000000" />
</g>
<g style="fill:#000000; fill-opacity:0.0; 
stroke:#000000; stroke-width:0.254000; stroke-opacity:1; 
stroke-linecap:round; stroke-linejoin:round;">
<path d="M170.000000 76.000209 A1.000100 1.000100 0.0 0 0 169.000000 75.000000" />
</g>
<g style="fill:#000000; fill-opacity:0.0; 
stroke:#000000; stroke-width:0.250000; stroke-opacity:1; 
stroke-linecap:round; stroke-linejoin:round;">
<path d="M131.000000 75.000000
L135.000000 75.000000
" />
<path d="M130.000000 110.000000
L131.000000 108.000000
" />
<path d="M169.000000 82.000000
L169.000000 108.000000
" />
<path d="M130.000000 114.000000 A1.000000 1.000000 0.0 0 0 131.000000 115.000000" />
<path d="M165.000000 115.000000
L169.000000 115.000000
" />
<path d="M163.000000 114.000000
L165.000000 115.000000
" />
<path d="M131.000000 108.000000
L131.000000 82.000000
" />
<path d="M130.000000 114.000000
L130.000000 110.000000
" />
</g>
<g style="fill:#000000; fill-opacity:0.0; 
stroke:#000000; stroke-width:0.254000; stroke-opacity:1; 
stroke-linecap:round; stroke-linejoin:round;">
<path d="M169.000000 75.000000
L165.000000 75.000000
" />
</g>
<g style="fill:#000000; fill-opacity:0.0; 
stroke:#000000; stroke-width:0.250000; stroke-opacity:1; 
stroke-linecap:round; stroke-linejoin:round;">
<path d="M137.000000 76.000000
L163.000000 76.000000
" />
<g >
</g>
<g >
</g>
<g >
</g>
<g >
</g>
<g >
</g>
<g >
</g>
<g >
</g>
<g >
</g>
<g >
</g>
<g >
</g>
<g >
</g>
<g >
</g>
<g >
</g>
<g >
</g>
<g >
</g>
<g >
</g>
<g >
</g>
<g >
</g>
<g >
</g>
<g >
</g>
<g >
</g>
<g >
</g>
<g >
</g>
<g >
</g>
<g >
</g>
<g >
</g>
<g >
</g>
<g >
</g>
<g >
</g>
<g >
</g>
<g >
</g>
<g >
</g>
<g >
</g>
<g >
</g>
<g >
</g>
<g >
</g>
<g >
</g>
<g >
</g>
<g >
</g>
<g >
</g>
<g >
</g>
<g >
</g>
<g >
</g>
<g >
</g>
<g >
</g>
<g >
</g>
<g >
</g>
<g >
</g>
<g >
</g>
<g >
</g>
<g >
</g>
<g >
</g>
<g >
</g>
<g >
</g>
</g> 
</svg>
