  0
SECTION
  2
HEADER
  9
$ANGBASE
  50
0.0
  9
$ANGDIR
  70
1
  9
$MEASUREMENT
  70
1
  0
ENDSEC
  0
SECTION
  2
TABLES
  0
TABLE
  2
LTYPE
  70
4
  0
LTYPE
  5
40F
  2
CONTINUOUS
  70
0
  3
Solid line
  72
65
  73
0
  40
0.0
  0
LTYPE
  5
410
  2
DASHDOT
 70
0
  3
Dash Dot ____ _ ____ _
 72
65
 73
4
 40
2.0
 49
1.25
 49
-0.25
 49
0.25
 49
-0.25
  0
LTYPE
  5
411
  2
DASHED
 70
0
  3
Dashed __ __ __ __ __
 72
65
 73
2
 40
0.75
 49
0.5
 49
-0.25
  0
LTYPE
  5
43B
  2
DOTTED
 70
0
  3
Dotted .  .  .  .
 72
65
 73
2
 40
0.2
 49
0.0
 49
-0.2
  0
ENDTAB
  0
TABLE
  2
STYLE
  70
4
  0
STYLE
  2
KICAD
  70
0
  40
0
  41
1
  42
1
  50
0
  71
0
  3
isocp.shx
  0
STYLE
  2
KICADB
  70
0
  40
0
  41
1
  42
1
  50
0
  71
0
  3
isocp.shx
  0
STYLE
  2
KICADI
  70
0
  40
0
  41
1
  42
1
  50
15
  71
0
  3
isocp.shx
  0
STYLE
  2
KICADBI
  70
0
  40
0
  41
1
  42
1
  50
15
  71
0
  3
isocp.shx
  0
ENDTAB
  0
TABLE
  2
LAYER
  70
1
  0
LAYER
  2
BLACK
  70
0
  62
7
  6
CONTINUOUS
  0
ENDTAB
  0
ENDSEC
  0
SECTION
  2
ENTITIES
0
LINE
8
BLACK
6
CONTINUOUS
10
169.0000069999999823
20
-74.8730010000000021
11
169.0000129999999956
21
-74.8729999999999905
0
LINE
8
BLACK
6
CONTINUOUS
10
169.0000129999999956
20
-74.8729999999999905
11
169.195730999999995
21
-74.8901429999999948
0
LINE
8
BLACK
6
CONTINUOUS
10
169.195730999999995
20
-74.8901429999999948
11
169.3854989999999816
21
-74.9410120000000006
0
LINE
8
BLACK
6
CONTINUOUS
10
169.3854989999999816
20
-74.9410120000000006
11
169.5635509999999897
21
-75.0240610000000032
0
LINE
8
BLACK
6
CONTINUOUS
10
169.5635509999999897
20
-75.0240610000000032
11
169.7244759999999815
21
-75.1367669999999919
0
LINE
8
BLACK
6
CONTINUOUS
10
169.7244759999999815
20
-75.1367669999999919
11
169.8633849999999939
21
-75.2757050000000021
0
LINE
8
BLACK
6
CONTINUOUS
10
169.8633849999999939
20
-75.2757050000000021
11
169.9760569999999973
21
-75.4366529999999926
0
LINE
8
BLACK
6
CONTINUOUS
10
169.9760569999999973
20
-75.4366529999999926
11
170.0590689999999938
21
-75.6147220000000004
0
LINE
8
BLACK
6
CONTINUOUS
10
170.0590689999999938
20
-75.6147220000000004
11
170.109897999999987
21
-75.8045010000000019
0
LINE
8
BLACK
6
CONTINUOUS
10
170.109897999999987
20
-75.8045010000000019
11
170.1269999999999811
21
-76.0002229999999912
0
LINE
8
BLACK
6
CONTINUOUS
10
170.1269999999999811
20
-76.0002229999999912
11
170.125
21
-76.0089809999999915
0
LINE
8
BLACK
6
CONTINUOUS
10
170.125
20
-76.0089809999999915
11
170.125
21
-80.
0
LINE
8
BLACK
6
CONTINUOUS
10
170.125
20
-80.
11
170.1199369999999931
21
-80.0352170000000029
0
LINE
8
BLACK
6
CONTINUOUS
10
170.1199369999999931
20
-80.0352170000000029
11
170.1138090000000034
21
-80.0447509999999909
0
LINE
8
BLACK
6
CONTINUOUS
10
170.1138090000000034
20
-80.0447509999999909
11
170.1118029999999806
21
-80.0559020000000032
0
LINE
8
BLACK
6
CONTINUOUS
10
170.1118029999999806
20
-80.0559020000000032
11
169.125
21
-82.0295079999999928
0
LINE
8
BLACK
6
CONTINUOUS
10
169.125
20
-82.0295079999999928
11
169.125
21
-107.970491999999993
0
LINE
8
BLACK
6
CONTINUOUS
10
169.125
20
-107.970491999999993
11
170.1118029999999806
21
-109.9440979999999968
0
LINE
8
BLACK
6
CONTINUOUS
10
170.1118029999999806
20
-109.9440979999999968
11
170.1230239999999867
21
-109.9778620000000018
0
LINE
8
BLACK
6
CONTINUOUS
10
170.1230239999999867
20
-109.9778620000000018
11
170.1218069999999898
21
-109.9891269999999963
0
LINE
8
BLACK
6
CONTINUOUS
10
170.1218069999999898
20
-109.9891269999999963
11
170.125
21
-110.
0
LINE
8
BLACK
6
CONTINUOUS
10
170.125
20
-110.
11
170.125
21
-114.
0
LINE
8
BLACK
6
CONTINUOUS
10
170.125
20
-114.
11
170.1079090000000065
21
-114.1953539999999947
0
LINE
8
BLACK
6
CONTINUOUS
10
170.1079090000000065
20
-114.1953539999999947
11
170.057153999999997
21
-114.3847729999999956
0
LINE
8
BLACK
6
CONTINUOUS
10
170.057153999999997
20
-114.3847729999999956
11
169.9742789999999957
21
-114.5625
0
LINE
8
BLACK
6
CONTINUOUS
10
169.9742789999999957
20
-114.5625
11
169.8617999999999881
21
-114.7231359999999967
0
LINE
8
BLACK
6
CONTINUOUS
10
169.8617999999999881
20
-114.7231359999999967
11
169.7231359999999825
21
-114.8617999999999881
0
LINE
8
BLACK
6
CONTINUOUS
10
169.7231359999999825
20
-114.8617999999999881
11
169.5625
21
-114.9742789999999957
0
LINE
8
BLACK
6
CONTINUOUS
10
169.5625
20
-114.9742789999999957
11
169.3847729999999956
21
-115.057153999999997
0
LINE
8
BLACK
6
CONTINUOUS
10
169.3847729999999956
20
-115.057153999999997
11
169.1953539999999805
21
-115.1079089999999923
0
LINE
8
BLACK
6
CONTINUOUS
10
169.1953539999999805
20
-115.1079089999999923
11
169.
21
-115.125
0
LINE
8
BLACK
6
CONTINUOUS
10
169.
20
-115.125
11
165.
21
-115.125
0
LINE
8
BLACK
6
CONTINUOUS
10
165.
20
-115.125
11
164.9647829999999828
21
-115.1199369999999931
0
LINE
8
BLACK
6
CONTINUOUS
10
164.9647829999999828
20
-115.1199369999999931
11
164.9552479999999832
21
-115.1138089999999892
0
LINE
8
BLACK
6
CONTINUOUS
10
164.9552479999999832
20
-115.1138089999999892
11
164.9440979999999968
21
-115.1118029999999948
0
LINE
8
BLACK
6
CONTINUOUS
10
164.9440979999999968
20
-115.1118029999999948
11
162.9704919999999788
21
-114.125
0
LINE
8
BLACK
6
CONTINUOUS
10
162.9704919999999788
20
-114.125
11
137.0295079999999928
21
-114.125
0
LINE
8
BLACK
6
CONTINUOUS
10
137.0295079999999928
20
-114.125
11
135.0559020000000032
21
-115.1118029999999948
0
LINE
8
BLACK
6
CONTINUOUS
10
135.0559020000000032
20
-115.1118029999999948
11
135.022137999999984
21
-115.1230240000000009
0
LINE
8
BLACK
6
CONTINUOUS
10
135.022137999999984
20
-115.1230240000000009
11
135.0108720000000062
21
-115.1218069999999898
0
LINE
8
BLACK
6
CONTINUOUS
10
135.0108720000000062
20
-115.1218069999999898
11
135.
21
-115.125
0
LINE
8
BLACK
6
CONTINUOUS
10
135.
20
-115.125
11
131.
21
-115.125
0
LINE
8
BLACK
6
CONTINUOUS
10
131.
20
-115.125
11
130.8046459999999911
21
-115.1079089999999923
0
LINE
8
BLACK
6
CONTINUOUS
10
130.8046459999999911
20
-115.1079089999999923
11
130.6152270000000044
21
-115.057153999999997
0
LINE
8
BLACK
6
CONTINUOUS
10
130.6152270000000044
20
-115.057153999999997
11
130.4375
21
-114.9742789999999957
0
LINE
8
BLACK
6
CONTINUOUS
10
130.4375
20
-114.9742789999999957
11
130.2768639999999891
21
-114.8617999999999881
0
LINE
8
BLACK
6
CONTINUOUS
10
130.2768639999999891
20
-114.8617999999999881
11
130.1381999999999834
21
-114.7231359999999967
0
LINE
8
BLACK
6
CONTINUOUS
10
130.1381999999999834
20
-114.7231359999999967
11
130.0257210000000043
21
-114.5625
0
LINE
8
BLACK
6
CONTINUOUS
10
130.0257210000000043
20
-114.5625
11
129.942846000000003
21
-114.3847729999999956
0
LINE
8
BLACK
6
CONTINUOUS
10
129.942846000000003
20
-114.3847729999999956
11
129.8920909999999935
21
-114.1953539999999947
0
LINE
8
BLACK
6
CONTINUOUS
10
129.8920909999999935
20
-114.1953539999999947
11
129.875
21
-114.
0
LINE
8
BLACK
6
CONTINUOUS
10
129.875
20
-114.
11
129.875
21
-110.
0
LINE
8
BLACK
6
CONTINUOUS
10
129.875
20
-110.
11
129.8800630000000069
21
-109.9647829999999971
0
LINE
8
BLACK
6
CONTINUOUS
10
129.8800630000000069
20
-109.9647829999999971
11
129.8861899999999991
21
-109.9552479999999974
0
LINE
8
BLACK
6
CONTINUOUS
10
129.8861899999999991
20
-109.9552479999999974
11
129.888196999999991
21
-109.9440979999999968
0
LINE
8
BLACK
6
CONTINUOUS
10
129.888196999999991
20
-109.9440979999999968
11
130.875
21
-107.970491999999993
0
LINE
8
BLACK
6
CONTINUOUS
10
130.875
20
-107.970491999999993
11
130.875
21
-82.0295079999999928
0
LINE
8
BLACK
6
CONTINUOUS
10
130.875
20
-82.0295079999999928
11
129.888196999999991
21
-80.0559020000000032
0
LINE
8
BLACK
6
CONTINUOUS
10
129.888196999999991
20
-80.0559020000000032
11
129.8769759999999849
21
-80.0221379999999982
0
LINE
8
BLACK
6
CONTINUOUS
10
129.8769759999999849
20
-80.0221379999999982
11
129.8781919999999843
21
-80.010871999999992
0
LINE
8
BLACK
6
CONTINUOUS
10
129.8781919999999843
20
-80.010871999999992
11
129.875
21
-80.
0
LINE
8
BLACK
6
CONTINUOUS
10
129.875
20
-80.
11
129.875
21
-76.
0
LINE
8
BLACK
6
CONTINUOUS
10
129.875
20
-76.
11
129.8920909999999935
21
-75.8046459999999911
0
LINE
8
BLACK
6
CONTINUOUS
10
129.8920909999999935
20
-75.8046459999999911
11
129.942846000000003
21
-75.6152269999999902
0
LINE
8
BLACK
6
CONTINUOUS
10
129.942846000000003
20
-75.6152269999999902
11
130.0257210000000043
21
-75.4375
0
LINE
8
BLACK
6
CONTINUOUS
10
130.0257210000000043
20
-75.4375
11
130.1381999999999834
21
-75.2768640000000033
0
LINE
8
BLACK
6
CONTINUOUS
10
130.1381999999999834
20
-75.2768640000000033
11
130.2768639999999891
21
-75.1381999999999977
0
LINE
8
BLACK
6
CONTINUOUS
10
130.2768639999999891
20
-75.1381999999999977
11
130.4375
21
-75.0257209999999901
0
LINE
8
BLACK
6
CONTINUOUS
10
130.4375
20
-75.0257209999999901
11
130.6152270000000044
21
-74.942846000000003
0
LINE
8
BLACK
6
CONTINUOUS
10
130.6152270000000044
20
-74.942846000000003
11
130.8046459999999911
21
-74.8920909999999935
0
LINE
8
BLACK
6
CONTINUOUS
10
130.8046459999999911
20
-74.8920909999999935
11
131.
21
-74.875
0
LINE
8
BLACK
6
CONTINUOUS
10
131.
20
-74.875
11
135.
21
-74.875
0
LINE
8
BLACK
6
CONTINUOUS
10
135.
20
-74.875
11
135.0352169999999887
21
-74.8800629999999927
0
LINE
8
BLACK
6
CONTINUOUS
10
135.0352169999999887
20
-74.8800629999999927
11
135.0447509999999909
21
-74.8861899999999991
0
LINE
8
BLACK
6
CONTINUOUS
10
135.0447509999999909
20
-74.8861899999999991
11
135.0559020000000032
21
-74.888196999999991
0
LINE
8
BLACK
6
CONTINUOUS
10
135.0559020000000032
20
-74.888196999999991
11
137.0295079999999928
21
-75.875
0
LINE
8
BLACK
6
CONTINUOUS
10
137.0295079999999928
20
-75.875
11
162.9704919999999788
21
-75.875
0
LINE
8
BLACK
6
CONTINUOUS
10
162.9704919999999788
20
-75.875
11
164.9291739999999891
21
-74.8956579999999974
0
LINE
8
BLACK
6
CONTINUOUS
10
164.9291739999999891
20
-74.8956579999999974
11
164.9313389999999799
21
-74.8931609999999921
0
LINE
8
BLACK
6
CONTINUOUS
10
164.9313389999999799
20
-74.8931609999999921
11
164.9381979999999999
21
-74.891145999999992
0
LINE
8
BLACK
6
CONTINUOUS
10
164.9381979999999999
20
-74.891145999999992
11
164.9440979999999968
21
-74.888196999999991
0
LINE
8
BLACK
6
CONTINUOUS
10
164.9440979999999968
20
-74.888196999999991
11
164.9778619999999876
21
-74.8769759999999991
0
LINE
8
BLACK
6
CONTINUOUS
10
164.9778619999999876
20
-74.8769759999999991
11
164.9841480000000047
21
-74.8776539999999926
0
LINE
8
BLACK
6
CONTINUOUS
10
164.9841480000000047
20
-74.8776539999999926
11
165.
21
-74.8729999999999905
0
LINE
8
BLACK
6
CONTINUOUS
10
165.
20
-74.8729999999999905
11
169.
21
-74.8729999999999905
0
LINE
8
BLACK
6
CONTINUOUS
10
169.
20
-74.8729999999999905
11
169.0000069999999823
21
-74.8730010000000021
0
LINE
8
BLACK
6
CONTINUOUS
10
131.
20
-75.125
11
130.913819999999987
21
-75.125
0
LINE
8
BLACK
6
CONTINUOUS
10
130.913819999999987
20
-75.125
11
130.7447719999999833
21
-75.1586259999999982
0
LINE
8
BLACK
6
CONTINUOUS
10
130.7447719999999833
20
-75.1586259999999982
11
130.5855320000000006
21
-75.2245849999999905
0
LINE
8
BLACK
6
CONTINUOUS
10
130.5855320000000006
20
-75.2245849999999905
11
130.4422199999999918
21
-75.320342999999994
0
LINE
8
BLACK
6
CONTINUOUS
10
130.4422199999999918
20
-75.320342999999994
11
130.3203430000000083
21
-75.4422199999999918
0
LINE
8
BLACK
6
CONTINUOUS
10
130.3203430000000083
20
-75.4422199999999918
11
130.2245849999999905
21
-75.5855320000000006
0
LINE
8
BLACK
6
CONTINUOUS
10
130.2245849999999905
20
-75.5855320000000006
11
130.1586259999999982
21
-75.7447719999999975
0
LINE
8
BLACK
6
CONTINUOUS
10
130.1586259999999982
20
-75.7447719999999975
11
130.125
21
-75.9138200000000012
0
LINE
8
BLACK
6
CONTINUOUS
10
130.125
20
-75.9138200000000012
11
130.125
21
-76.
0
LINE
8
BLACK
6
CONTINUOUS
10
130.125
20
-76.
11
130.125
21
-79.970491999999993
0
LINE
8
BLACK
6
CONTINUOUS
10
130.125
20
-79.970491999999993
11
131.1118029999999806
21
-81.9440979999999968
0
LINE
8
BLACK
6
CONTINUOUS
10
131.1118029999999806
20
-81.9440979999999968
11
131.1230239999999867
21
-81.9778620000000018
0
LINE
8
BLACK
6
CONTINUOUS
10
131.1230239999999867
20
-81.9778620000000018
11
131.1218069999999898
21
-81.9891269999999963
0
LINE
8
BLACK
6
CONTINUOUS
10
131.1218069999999898
20
-81.9891269999999963
11
131.125
21
-82.
0
LINE
8
BLACK
6
CONTINUOUS
10
131.125
20
-82.
11
131.125
21
-108.
0
LINE
8
BLACK
6
CONTINUOUS
10
131.125
20
-108.
11
131.1199369999999931
21
-108.0352169999999887
0
LINE
8
BLACK
6
CONTINUOUS
10
131.1199369999999931
20
-108.0352169999999887
11
131.1138090000000034
21
-108.0447509999999909
0
LINE
8
BLACK
6
CONTINUOUS
10
131.1138090000000034
20
-108.0447509999999909
11
131.1118029999999806
21
-108.055901999999989
0
LINE
8
BLACK
6
CONTINUOUS
10
131.1118029999999806
20
-108.055901999999989
11
130.125
21
-110.0295079999999928
0
LINE
8
BLACK
6
CONTINUOUS
10
130.125
20
-110.0295079999999928
11
130.125
21
-114.
0
LINE
8
BLACK
6
CONTINUOUS
10
130.125
20
-114.
11
130.125
21
-114.0861799999999988
0
LINE
8
BLACK
6
CONTINUOUS
10
130.125
20
-114.0861799999999988
11
130.1586259999999982
21
-114.2552279999999882
0
LINE
8
BLACK
6
CONTINUOUS
10
130.1586259999999982
20
-114.2552279999999882
11
130.2245849999999905
21
-114.4144679999999994
0
LINE
8
BLACK
6
CONTINUOUS
10
130.2245849999999905
20
-114.4144679999999994
11
130.3203430000000083
21
-114.5577799999999939
0
LINE
8
BLACK
6
CONTINUOUS
10
130.3203430000000083
20
-114.5577799999999939
11
130.4422199999999918
21
-114.6796569999999917
0
LINE
8
BLACK
6
CONTINUOUS
10
130.4422199999999918
20
-114.6796569999999917
11
130.5855320000000006
21
-114.7754149999999953
0
LINE
8
BLACK
6
CONTINUOUS
10
130.5855320000000006
20
-114.7754149999999953
11
130.7447719999999833
21
-114.8413740000000018
0
LINE
8
BLACK
6
CONTINUOUS
10
130.7447719999999833
20
-114.8413740000000018
11
130.913819999999987
21
-114.875
0
LINE
8
BLACK
6
CONTINUOUS
10
130.913819999999987
20
-114.875
11
131.
21
-114.875
0
LINE
8
BLACK
6
CONTINUOUS
10
131.
20
-114.875
11
134.9704920000000072
21
-114.875
0
LINE
8
BLACK
6
CONTINUOUS
10
134.9704920000000072
20
-114.875
11
136.9440979999999968
21
-113.888196999999991
0
LINE
8
BLACK
6
CONTINUOUS
10
136.9440979999999968
20
-113.888196999999991
11
136.9778619999999876
21
-113.8769759999999991
0
LINE
8
BLACK
6
CONTINUOUS
10
136.9778619999999876
20
-113.8769759999999991
11
136.9891269999999963
21
-113.8781919999999985
0
LINE
8
BLACK
6
CONTINUOUS
10
136.9891269999999963
20
-113.8781919999999985
11
137.
21
-113.875
0
LINE
8
BLACK
6
CONTINUOUS
10
137.
20
-113.875
11
163.
21
-113.875
0
LINE
8
BLACK
6
CONTINUOUS
10
163.
20
-113.875
11
163.0352169999999887
21
-113.8800629999999927
0
LINE
8
BLACK
6
CONTINUOUS
10
163.0352169999999887
20
-113.8800629999999927
11
163.0447509999999909
21
-113.8861899999999991
0
LINE
8
BLACK
6
CONTINUOUS
10
163.0447509999999909
20
-113.8861899999999991
11
163.0559020000000032
21
-113.888196999999991
0
LINE
8
BLACK
6
CONTINUOUS
10
163.0559020000000032
20
-113.888196999999991
11
165.0295079999999928
21
-114.875
0
LINE
8
BLACK
6
CONTINUOUS
10
165.0295079999999928
20
-114.875
11
169.
21
-114.875
0
LINE
8
BLACK
6
CONTINUOUS
10
169.
20
-114.875
11
169.0861799999999846
21
-114.875
0
LINE
8
BLACK
6
CONTINUOUS
10
169.0861799999999846
20
-114.875
11
169.2552279999999882
21
-114.8413740000000018
0
LINE
8
BLACK
6
CONTINUOUS
10
169.2552279999999882
20
-114.8413740000000018
11
169.4144679999999994
21
-114.7754149999999953
0
LINE
8
BLACK
6
CONTINUOUS
10
169.4144679999999994
20
-114.7754149999999953
11
169.5577799999999797
21
-114.6796569999999917
0
LINE
8
BLACK
6
CONTINUOUS
10
169.5577799999999797
20
-114.6796569999999917
11
169.6796569999999917
21
-114.5577799999999939
0
LINE
8
BLACK
6
CONTINUOUS
10
169.6796569999999917
20
-114.5577799999999939
11
169.7754149999999811
21
-114.4144679999999994
0
LINE
8
BLACK
6
CONTINUOUS
10
169.7754149999999811
20
-114.4144679999999994
11
169.8413740000000018
21
-114.2552279999999882
0
LINE
8
BLACK
6
CONTINUOUS
10
169.8413740000000018
20
-114.2552279999999882
11
169.875
21
-114.0861799999999988
0
LINE
8
BLACK
6
CONTINUOUS
10
169.875
20
-114.0861799999999988
11
169.875
21
-114.
0
LINE
8
BLACK
6
CONTINUOUS
10
169.875
20
-114.
11
169.875
21
-110.0295079999999928
0
LINE
8
BLACK
6
CONTINUOUS
10
169.875
20
-110.0295079999999928
11
168.888196999999991
21
-108.055901999999989
0
LINE
8
BLACK
6
CONTINUOUS
10
168.888196999999991
20
-108.055901999999989
11
168.8769759999999849
21
-108.0221379999999982
0
LINE
8
BLACK
6
CONTINUOUS
10
168.8769759999999849
20
-108.0221379999999982
11
168.8781919999999843
21
-108.010871999999992
0
LINE
8
BLACK
6
CONTINUOUS
10
168.8781919999999843
20
-108.010871999999992
11
168.875
21
-108.
0
LINE
8
BLACK
6
CONTINUOUS
10
168.875
20
-108.
11
168.875
21
-82.
0
LINE
8
BLACK
6
CONTINUOUS
10
168.875
20
-82.
11
168.8800629999999785
21
-81.9647829999999971
0
LINE
8
BLACK
6
CONTINUOUS
10
168.8800629999999785
20
-81.9647829999999971
11
168.8861899999999991
21
-81.9552479999999974
0
LINE
8
BLACK
6
CONTINUOUS
10
168.8861899999999991
20
-81.9552479999999974
11
168.888196999999991
21
-81.9440979999999968
0
LINE
8
BLACK
6
CONTINUOUS
10
168.888196999999991
20
-81.9440979999999968
11
169.875
21
-79.970491999999993
0
LINE
8
BLACK
6
CONTINUOUS
10
169.875
20
-79.970491999999993
11
169.875
21
-76.0089619999999968
0
LINE
8
BLACK
6
CONTINUOUS
10
169.875
20
-76.0089619999999968
11
169.8729999999999905
21
-76.0001949999999908
0
LINE
8
BLACK
6
CONTINUOUS
10
169.8729999999999905
20
-76.0001949999999908
11
169.8730099999999936
21
-75.9142020000000031
0
LINE
8
BLACK
6
CONTINUOUS
10
169.8730099999999936
20
-75.9142020000000031
11
169.8394749999999931
21
-75.745515999999995
0
LINE
8
BLACK
6
CONTINUOUS
10
169.8394749999999931
20
-75.745515999999995
11
169.7736749999999972
21
-75.5866139999999973
0
LINE
8
BLACK
6
CONTINUOUS
10
169.7736749999999972
20
-75.5866139999999973
11
169.6781399999999849
21
-75.4436019999999985
0
LINE
8
BLACK
6
CONTINUOUS
10
169.6781399999999849
20
-75.4436019999999985
11
169.556539999999984
21
-75.3219759999999923
0
LINE
8
BLACK
6
CONTINUOUS
10
169.556539999999984
20
-75.3219759999999923
11
169.4135479999999916
21
-75.2264109999999988
0
LINE
8
BLACK
6
CONTINUOUS
10
169.4135479999999916
20
-75.2264109999999988
11
169.2546590000000037
21
-75.160578000000001
0
LINE
8
BLACK
6
CONTINUOUS
10
169.2546590000000037
20
-75.160578000000001
11
169.0859810000000039
21
-75.1270080000000036
0
LINE
8
BLACK
6
CONTINUOUS
10
169.0859810000000039
20
-75.1270080000000036
11
168.9999870000000044
21
-75.1269999999999953
0
LINE
8
BLACK
6
CONTINUOUS
10
168.9999870000000044
20
-75.1269999999999953
11
165.0255080000000021
21
-75.1269999999999953
0
LINE
8
BLACK
6
CONTINUOUS
10
165.0255080000000021
20
-75.1269999999999953
11
163.0559020000000032
21
-76.1118029999999948
0
LINE
8
BLACK
6
CONTINUOUS
10
163.0559020000000032
20
-76.1118029999999948
11
163.022137999999984
21
-76.1230240000000009
0
LINE
8
BLACK
6
CONTINUOUS
10
163.022137999999984
20
-76.1230240000000009
11
163.0108720000000062
21
-76.1218069999999898
0
LINE
8
BLACK
6
CONTINUOUS
10
163.0108720000000062
20
-76.1218069999999898
11
163.
21
-76.125
0
LINE
8
BLACK
6
CONTINUOUS
10
163.
20
-76.125
11
137.
21
-76.125
0
LINE
8
BLACK
6
CONTINUOUS
10
137.
20
-76.125
11
136.9647829999999828
21
-76.1199369999999931
0
LINE
8
BLACK
6
CONTINUOUS
10
136.9647829999999828
20
-76.1199369999999931
11
136.9552479999999832
21
-76.1138090000000034
0
LINE
8
BLACK
6
CONTINUOUS
10
136.9552479999999832
20
-76.1138090000000034
11
136.9440979999999968
21
-76.1118029999999948
0
LINE
8
BLACK
6
CONTINUOUS
10
136.9440979999999968
20
-76.1118029999999948
11
134.9704920000000072
21
-75.125
0
LINE
8
BLACK
6
CONTINUOUS
10
134.9704920000000072
20
-75.125
11
131.
21
-75.125
  0
ENDSEC
  0
EOF
