<?xml version="1.0" standalone="no"?>
 <!DOCTYPE svg PUBLIC "-//W3C//DTD SVG 1.1//EN" 
 "http://www.w3.org/Graphics/SVG/1.1/DTD/svg11.dtd"> 
<svg
  xmlns:svg="http://www.w3.org/2000/svg"
  xmlns="http://www.w3.org/2000/svg"
  xmlns:xlink="http://www.w3.org/1999/xlink"
  version="1.1"
  width="210.007200mm" height="148.005800mm" viewBox="0.000000 0.000000 210.007200 148.005800">
<title>SVG Image created as PQ_EPS-Edge_Cuts.svg date 2024/01/09 11:54:30 </title>
  <desc>Image generated by PCBNEW </desc>
<g style="fill:#000000; fill-opacity:1.000000;stroke:#000000; stroke-opacity:1.000000;
stroke-linecap:round; stroke-linejoin:round;"
 transform="translate(0 0) scale(1 1)">
</g>
<g style="fill:#000000; fill-opacity:0.0; 
stroke:#000000; stroke-width:0.000000; stroke-opacity:1; 
stroke-linecap:round; stroke-linejoin:round;">
</g>
<g style="fill:#000000; fill-opacity:0.0; 
stroke:#000000; stroke-width:0.250000; stroke-opacity:1; 
stroke-linecap:round; stroke-linejoin:round;">
<path d="M81.688000 76.973000
L81.688000 72.973000
" />
<path d="M81.688000 72.973000
L82.688000 70.973000
" />
<path d="M86.688000 37.973000
L88.688000 38.973000
" />
<path d="M121.688000 72.973000
L121.688000 76.973000
" />
<path d="M121.688000 42.973000
L120.688000 44.973000
" />
<path d="M120.688000 70.973000
L121.688000 72.973000
" />
<path d="M88.688000 76.973000
L86.688000 77.973000
" />
<path d="M114.688000 38.973000
L116.687000 37.973000
" />
<path d="M120.688000 44.973000
L120.688000 70.973000
" />
<path d="M121.688000 42.973000
L121.688000 38.973000
" />
<path d="M81.688000 42.973000
L81.688000 38.973000
" />
<path d="M86.688000 77.973000
L82.688000 77.973000
" />
<path d="M114.688000 76.973000
L116.688000 77.973000
" />
<path d="M121.688000 38.973000 A1.000000 1.000000 0.0 0 0 120.688000 37.973000" />
<path d="M101.687000 38.973000
L114.688000 38.973000
" />
<path d="M82.688000 37.973000
L86.688000 37.973000
" />
<path d="M82.688000 44.973000
L81.688000 42.973000
" />
<path d="M116.688000 77.973000
L120.688000 77.973000
" />
<path d="M82.688000 70.973000
L82.688000 44.973000
" />
<path d="M120.688000 77.973000 A1.000000 1.000000 0.0 0 0 121.688000 76.973000" />
<path d="M116.687000 37.973000
L120.688000 37.973000
" />
<path d="M114.688000 76.973000
L88.688000 76.973000
" />
<path d="M82.688000 37.973000 A1.000000 1.000000 0.0 0 0 81.688000 38.973000" />
<path d="M81.688000 76.973000 A1.000000 1.000000 0.0 0 0 82.688000 77.973000" />
<path d="M88.688000 38.973000
L101.687000 38.973000
" />
<g >
</g>
<g >
</g>
<g >
</g>
<g >
</g>
<g >
</g>
<g >
</g>
<g >
</g>
<g >
</g>
<g >
</g>
<g >
</g>
<g >
</g>
<g >
</g>
<g >
</g>
<g >
</g>
<g >
</g>
<g >
</g>
<g >
</g>
<g >
</g>
<g >
</g>
<g >
</g>
<g >
</g>
<g >
</g>
<g >
</g>
<g >
</g>
<g >
</g>
<g >
</g>
<g >
</g>
<g >
</g>
<g >
</g>
<g >
</g>
<g >
</g>
<g >
</g>
<g >
</g>
<g >
</g>
<g >
</g>
<g >
</g>
<g >
</g>
<g >
</g>
<g >
</g>
<g >
</g>
<g >
</g>
<g >
</g>
<g >
</g>
<g >
</g>
<g >
</g>
<g >
</g>
<g >
</g>
<g >
</g>
<g >
</g>
<g >
</g>
<g >
</g>
<g >
</g>
<g >
</g>
<g >
</g>
<g >
</g>
<g >
</g>
<g >
</g>
<g >
</g>
<g >
</g>
<g >
</g>
<g >
</g>
<g >
</g>
<g >
</g>
<g >
</g>
<g >
</g>
<g >
</g>
<g >
</g>
<g >
</g>
<g >
</g>
<g >
</g>
<g >
</g>
<g >
</g>
<g >
</g>
<g >
</g>
<g >
</g>
<g >
</g>
<g >
</g>
<g >
</g>
<g >
</g>
<g >
</g>
<g >
</g>
<g >
</g>
<g >
</g>
<g >
</g>
<g >
</g>
<g >
</g>
<g >
</g>
<g >
</g>
<g >
</g>
<g >
</g>
</g> 
</svg>
