  0
SECTION
  2
HEADER
  9
$ANGBASE
  50
0.0
  9
$ANGDIR
  70
1
  9
$MEASUREMENT
  70
1
  0
ENDSEC
  0
SECTION
  2
TABLES
  0
TABLE
  2
LTYPE
  70
4
  0
LTYPE
  5
40F
  2
CONTINUOUS
  70
0
  3
Solid line
  72
65
  73
0
  40
0.0
  0
LTYPE
  5
410
  2
DASHDOT
 70
0
  3
Dash Dot ____ _ ____ _
 72
65
 73
4
 40
2.0
 49
1.25
 49
-0.25
 49
0.25
 49
-0.25
  0
LTYPE
  5
411
  2
DASHED
 70
0
  3
Dashed __ __ __ __ __
 72
65
 73
2
 40
0.75
 49
0.5
 49
-0.25
  0
LTYPE
  5
43B
  2
DOTTED
 70
0
  3
Dotted .  .  .  .
 72
65
 73
2
 40
0.2
 49
0.0
 49
-0.2
  0
ENDTAB
  0
TABLE
  2
STYLE
  70
4
  0
STYLE
  2
KICAD
  70
0
  40
0
  41
1
  42
1
  50
0
  71
0
  3
isocp.shx
  0
STYLE
  2
KICADB
  70
0
  40
0
  41
1
  42
1
  50
0
  71
0
  3
isocp.shx
  0
STYLE
  2
KICADI
  70
0
  40
0
  41
1
  42
1
  50
15
  71
0
  3
isocp.shx
  0
STYLE
  2
KICADBI
  70
0
  40
0
  41
1
  42
1
  50
15
  71
0
  3
isocp.shx
  0
ENDTAB
  0
TABLE
  2
LAYER
  70
1
  0
LAYER
  2
BLACK
  70
0
  62
7
  6
CONTINUOUS
  0
ENDTAB
  0
ENDSEC
  0
SECTION
  2
ENTITIES
0
LINE
8
BLACK
6
CONTINUOUS
10
86.7232169999999911
20
-37.8530629999999988
11
86.7327509999999933
21
-37.8591899999999981
0
LINE
8
BLACK
6
CONTINUOUS
10
86.7327509999999933
20
-37.8591899999999981
11
86.7439019999999914
21
-37.8611969999999971
0
LINE
8
BLACK
6
CONTINUOUS
10
86.7439019999999914
20
-37.8611969999999971
11
88.7175079999999951
21
-38.847999999999999
0
LINE
8
BLACK
6
CONTINUOUS
10
88.7175079999999951
20
-38.847999999999999
11
101.6869999999999976
21
-38.847999999999999
0
LINE
8
BLACK
6
CONTINUOUS
10
101.6869999999999976
20
-38.847999999999999
11
114.6584789999999998
21
-38.847999999999999
0
LINE
8
BLACK
6
CONTINUOUS
10
114.6584789999999998
20
-38.847999999999999
11
116.6310759999999931
21
-37.8612079999999978
0
LINE
8
BLACK
6
CONTINUOUS
10
116.6310759999999931
20
-37.8612079999999978
11
116.6648369999999915
21
-37.8499799999999951
0
LINE
8
BLACK
6
CONTINUOUS
10
116.6648369999999915
20
-37.8499799999999951
11
116.6761159999999933
21
-37.851194999999997
0
LINE
8
BLACK
6
CONTINUOUS
10
116.6761159999999933
20
-37.851194999999997
11
116.6869999999999976
21
-37.847999999999999
0
LINE
8
BLACK
6
CONTINUOUS
10
116.6869999999999976
20
-37.847999999999999
11
120.6879999999999882
21
-37.847999999999999
0
LINE
8
BLACK
6
CONTINUOUS
10
120.6879999999999882
20
-37.847999999999999
11
120.8833539999999971
21
-37.8650909999999996
0
LINE
8
BLACK
6
CONTINUOUS
10
120.8833539999999971
20
-37.8650909999999996
11
121.072772999999998
21
-37.9158459999999948
0
LINE
8
BLACK
6
CONTINUOUS
10
121.072772999999998
20
-37.9158459999999948
11
121.2504999999999882
21
-37.9987209999999962
0
LINE
8
BLACK
6
CONTINUOUS
10
121.2504999999999882
20
-37.9987209999999962
11
121.4111359999999991
21
-38.1111999999999966
0
LINE
8
BLACK
6
CONTINUOUS
10
121.4111359999999991
20
-38.1111999999999966
11
121.5497999999999905
21
-38.2498639999999952
0
LINE
8
BLACK
6
CONTINUOUS
10
121.5497999999999905
20
-38.2498639999999952
11
121.6622789999999981
21
-38.410499999999999
0
LINE
8
BLACK
6
CONTINUOUS
10
121.6622789999999981
20
-38.410499999999999
11
121.7451539999999994
21
-38.5882269999999963
0
LINE
8
BLACK
6
CONTINUOUS
10
121.7451539999999994
20
-38.5882269999999963
11
121.7959089999999946
21
-38.7776459999999972
0
LINE
8
BLACK
6
CONTINUOUS
10
121.7959089999999946
20
-38.7776459999999972
11
121.8129999999999882
21
-38.972999999999999
0
LINE
8
BLACK
6
CONTINUOUS
10
121.8129999999999882
20
-38.972999999999999
11
121.8129999999999882
21
-42.972999999999999
0
LINE
8
BLACK
6
CONTINUOUS
10
121.8129999999999882
20
-42.972999999999999
11
121.8079369999999955
21
-43.0082169999999948
0
LINE
8
BLACK
6
CONTINUOUS
10
121.8079369999999955
20
-43.0082169999999948
11
121.8018089999999916
21
-43.017750999999997
0
LINE
8
BLACK
6
CONTINUOUS
10
121.8018089999999916
20
-43.017750999999997
11
121.7998029999999972
21
-43.0289019999999951
0
LINE
8
BLACK
6
CONTINUOUS
10
121.7998029999999972
20
-43.0289019999999951
11
120.8129999999999882
21
-45.0025079999999988
0
LINE
8
BLACK
6
CONTINUOUS
10
120.8129999999999882
20
-45.0025079999999988
11
120.8129999999999882
21
-70.943491999999992
0
LINE
8
BLACK
6
CONTINUOUS
10
120.8129999999999882
20
-70.943491999999992
11
121.7998029999999972
21
-72.9170979999999957
0
LINE
8
BLACK
6
CONTINUOUS
10
121.7998029999999972
20
-72.9170979999999957
11
121.8110239999999891
21
-72.9508620000000008
0
LINE
8
BLACK
6
CONTINUOUS
10
121.8110239999999891
20
-72.9508620000000008
11
121.8098069999999922
21
-72.9621269999999953
0
LINE
8
BLACK
6
CONTINUOUS
10
121.8098069999999922
20
-72.9621269999999953
11
121.8129999999999882
21
-72.972999999999999
0
LINE
8
BLACK
6
CONTINUOUS
10
121.8129999999999882
20
-72.972999999999999
11
121.8129999999999882
21
-76.972999999999999
0
LINE
8
BLACK
6
CONTINUOUS
10
121.8129999999999882
20
-76.972999999999999
11
121.7959089999999946
21
-77.1683539999999937
0
LINE
8
BLACK
6
CONTINUOUS
10
121.7959089999999946
20
-77.1683539999999937
11
121.7451539999999994
21
-77.3577729999999946
0
LINE
8
BLACK
6
CONTINUOUS
10
121.7451539999999994
20
-77.3577729999999946
11
121.6622789999999981
21
-77.535499999999999
0
LINE
8
BLACK
6
CONTINUOUS
10
121.6622789999999981
20
-77.535499999999999
11
121.5497999999999905
21
-77.6961359999999956
0
LINE
8
BLACK
6
CONTINUOUS
10
121.5497999999999905
20
-77.6961359999999956
11
121.4111359999999991
21
-77.8348000000000013
0
LINE
8
BLACK
6
CONTINUOUS
10
121.4111359999999991
20
-77.8348000000000013
11
121.2504999999999882
21
-77.9472789999999947
0
LINE
8
BLACK
6
CONTINUOUS
10
121.2504999999999882
20
-77.9472789999999947
11
121.072772999999998
21
-78.030153999999996
0
LINE
8
BLACK
6
CONTINUOUS
10
121.072772999999998
20
-78.030153999999996
11
120.8833539999999971
21
-78.0809089999999912
0
LINE
8
BLACK
6
CONTINUOUS
10
120.8833539999999971
20
-78.0809089999999912
11
120.6879999999999882
21
-78.097999999999999
0
LINE
8
BLACK
6
CONTINUOUS
10
120.6879999999999882
20
-78.097999999999999
11
116.6879999999999882
21
-78.097999999999999
0
LINE
8
BLACK
6
CONTINUOUS
10
116.6879999999999882
20
-78.097999999999999
11
116.6527829999999994
21
-78.0929369999999921
0
LINE
8
BLACK
6
CONTINUOUS
10
116.6527829999999994
20
-78.0929369999999921
11
116.6432479999999998
21
-78.0868090000000024
0
LINE
8
BLACK
6
CONTINUOUS
10
116.6432479999999998
20
-78.0868090000000024
11
116.6320979999999992
21
-78.0848029999999937
0
LINE
8
BLACK
6
CONTINUOUS
10
116.6320979999999992
20
-78.0848029999999937
11
114.6584919999999954
21
-77.097999999999999
0
LINE
8
BLACK
6
CONTINUOUS
10
114.6584919999999954
20
-77.097999999999999
11
88.7175079999999951
21
-77.097999999999999
0
LINE
8
BLACK
6
CONTINUOUS
10
88.7175079999999951
20
-77.097999999999999
11
86.7439019999999914
21
-78.0848029999999937
0
LINE
8
BLACK
6
CONTINUOUS
10
86.7439019999999914
20
-78.0848029999999937
11
86.7101380000000006
21
-78.0960239999999999
0
LINE
8
BLACK
6
CONTINUOUS
10
86.7101380000000006
20
-78.0960239999999999
11
86.6988719999999944
21
-78.094807000000003
0
LINE
8
BLACK
6
CONTINUOUS
10
86.6988719999999944
20
-78.094807000000003
11
86.6880000000000024
21
-78.097999999999999
0
LINE
8
BLACK
6
CONTINUOUS
10
86.6880000000000024
20
-78.097999999999999
11
82.6880000000000024
21
-78.097999999999999
0
LINE
8
BLACK
6
CONTINUOUS
10
82.6880000000000024
20
-78.097999999999999
11
82.4926459999999935
21
-78.0809089999999912
0
LINE
8
BLACK
6
CONTINUOUS
10
82.4926459999999935
20
-78.0809089999999912
11
82.3032269999999926
21
-78.030153999999996
0
LINE
8
BLACK
6
CONTINUOUS
10
82.3032269999999926
20
-78.030153999999996
11
82.1255000000000024
21
-77.9472789999999947
0
LINE
8
BLACK
6
CONTINUOUS
10
82.1255000000000024
20
-77.9472789999999947
11
81.9648639999999915
21
-77.8348000000000013
0
LINE
8
BLACK
6
CONTINUOUS
10
81.9648639999999915
20
-77.8348000000000013
11
81.8262
21
-77.6961359999999956
0
LINE
8
BLACK
6
CONTINUOUS
10
81.8262
20
-77.6961359999999956
11
81.7137209999999925
21
-77.535499999999999
0
LINE
8
BLACK
6
CONTINUOUS
10
81.7137209999999925
20
-77.535499999999999
11
81.6308459999999911
21
-77.3577729999999946
0
LINE
8
BLACK
6
CONTINUOUS
10
81.6308459999999911
20
-77.3577729999999946
11
81.5800909999999959
21
-77.1683539999999937
0
LINE
8
BLACK
6
CONTINUOUS
10
81.5800909999999959
20
-77.1683539999999937
11
81.5630000000000024
21
-76.972999999999999
0
LINE
8
BLACK
6
CONTINUOUS
10
81.5630000000000024
20
-76.972999999999999
11
81.5630000000000024
21
-72.972999999999999
0
LINE
8
BLACK
6
CONTINUOUS
10
81.5630000000000024
20
-72.972999999999999
11
81.5680629999999951
21
-72.937782999999996
0
LINE
8
BLACK
6
CONTINUOUS
10
81.5680629999999951
20
-72.937782999999996
11
81.5741900000000015
21
-72.9282479999999964
0
LINE
8
BLACK
6
CONTINUOUS
10
81.5741900000000015
20
-72.9282479999999964
11
81.5761969999999934
21
-72.9170979999999957
0
LINE
8
BLACK
6
CONTINUOUS
10
81.5761969999999934
20
-72.9170979999999957
11
82.5630000000000024
21
-70.943491999999992
0
LINE
8
BLACK
6
CONTINUOUS
10
82.5630000000000024
20
-70.943491999999992
11
82.5630000000000024
21
-45.0025079999999988
0
LINE
8
BLACK
6
CONTINUOUS
10
82.5630000000000024
20
-45.0025079999999988
11
81.5761969999999934
21
-43.0289019999999951
0
LINE
8
BLACK
6
CONTINUOUS
10
81.5761969999999934
20
-43.0289019999999951
11
81.5649760000000015
21
-42.9951379999999972
0
LINE
8
BLACK
6
CONTINUOUS
10
81.5649760000000015
20
-42.9951379999999972
11
81.5661920000000009
21
-42.9838719999999981
0
LINE
8
BLACK
6
CONTINUOUS
10
81.5661920000000009
20
-42.9838719999999981
11
81.5630000000000024
21
-42.972999999999999
0
LINE
8
BLACK
6
CONTINUOUS
10
81.5630000000000024
20
-42.972999999999999
11
81.5630000000000024
21
-38.972999999999999
0
LINE
8
BLACK
6
CONTINUOUS
10
81.5630000000000024
20
-38.972999999999999
11
81.5800909999999959
21
-38.7776459999999972
0
LINE
8
BLACK
6
CONTINUOUS
10
81.5800909999999959
20
-38.7776459999999972
11
81.6308459999999911
21
-38.5882269999999963
0
LINE
8
BLACK
6
CONTINUOUS
10
81.6308459999999911
20
-38.5882269999999963
11
81.7137209999999925
21
-38.410499999999999
0
LINE
8
BLACK
6
CONTINUOUS
10
81.7137209999999925
20
-38.410499999999999
11
81.8262
21
-38.2498639999999952
0
LINE
8
BLACK
6
CONTINUOUS
10
81.8262
20
-38.2498639999999952
11
81.9648639999999915
21
-38.1111999999999966
0
LINE
8
BLACK
6
CONTINUOUS
10
81.9648639999999915
20
-38.1111999999999966
11
82.1255000000000024
21
-37.9987209999999962
0
LINE
8
BLACK
6
CONTINUOUS
10
82.1255000000000024
20
-37.9987209999999962
11
82.3032269999999926
21
-37.9158459999999948
0
LINE
8
BLACK
6
CONTINUOUS
10
82.3032269999999926
20
-37.9158459999999948
11
82.4926459999999935
21
-37.8650909999999996
0
LINE
8
BLACK
6
CONTINUOUS
10
82.4926459999999935
20
-37.8650909999999996
11
82.6880000000000024
21
-37.847999999999999
0
LINE
8
BLACK
6
CONTINUOUS
10
82.6880000000000024
20
-37.847999999999999
11
86.6880000000000024
21
-37.847999999999999
0
LINE
8
BLACK
6
CONTINUOUS
10
86.6880000000000024
20
-37.847999999999999
11
86.7232169999999911
21
-37.8530629999999988
0
LINE
8
BLACK
6
CONTINUOUS
10
82.6880000000000024
20
-38.097999999999999
11
82.6018199999999894
21
-38.097999999999999
0
LINE
8
BLACK
6
CONTINUOUS
10
82.6018199999999894
20
-38.097999999999999
11
82.4327719999999999
21
-38.1316259999999971
0
LINE
8
BLACK
6
CONTINUOUS
10
82.4327719999999999
20
-38.1316259999999971
11
82.273532000000003
21
-38.1975849999999966
0
LINE
8
BLACK
6
CONTINUOUS
10
82.273532000000003
20
-38.1975849999999966
11
82.1302199999999942
21
-38.2933430000000001
0
LINE
8
BLACK
6
CONTINUOUS
10
82.1302199999999942
20
-38.2933430000000001
11
82.0083429999999964
21
-38.4152199999999979
0
LINE
8
BLACK
6
CONTINUOUS
10
82.0083429999999964
20
-38.4152199999999979
11
81.9125849999999929
21
-38.5585319999999996
0
LINE
8
BLACK
6
CONTINUOUS
10
81.9125849999999929
20
-38.5585319999999996
11
81.8466260000000005
21
-38.7177719999999965
0
LINE
8
BLACK
6
CONTINUOUS
10
81.8466260000000005
20
-38.7177719999999965
11
81.8130000000000024
21
-38.8868200000000002
0
LINE
8
BLACK
6
CONTINUOUS
10
81.8130000000000024
20
-38.8868200000000002
11
81.8130000000000024
21
-38.972999999999999
0
LINE
8
BLACK
6
CONTINUOUS
10
81.8130000000000024
20
-38.972999999999999
11
81.8130000000000024
21
-42.9434919999999991
0
LINE
8
BLACK
6
CONTINUOUS
10
81.8130000000000024
20
-42.9434919999999991
11
82.7998029999999972
21
-44.9170979999999957
0
LINE
8
BLACK
6
CONTINUOUS
10
82.7998029999999972
20
-44.9170979999999957
11
82.8110240000000033
21
-44.9508620000000008
0
LINE
8
BLACK
6
CONTINUOUS
10
82.8110240000000033
20
-44.9508620000000008
11
82.8098069999999922
21
-44.9621269999999953
0
LINE
8
BLACK
6
CONTINUOUS
10
82.8098069999999922
20
-44.9621269999999953
11
82.8130000000000024
21
-44.972999999999999
0
LINE
8
BLACK
6
CONTINUOUS
10
82.8130000000000024
20
-44.972999999999999
11
82.8130000000000024
21
-70.972999999999999
0
LINE
8
BLACK
6
CONTINUOUS
10
82.8130000000000024
20
-70.972999999999999
11
82.8079369999999955
21
-71.0082170000000019
0
LINE
8
BLACK
6
CONTINUOUS
10
82.8079369999999955
20
-71.0082170000000019
11
82.8018089999999916
21
-71.0177509999999899
0
LINE
8
BLACK
6
CONTINUOUS
10
82.8018089999999916
20
-71.0177509999999899
11
82.7998029999999972
21
-71.0289020000000022
0
LINE
8
BLACK
6
CONTINUOUS
10
82.7998029999999972
20
-71.0289020000000022
11
81.8130000000000024
21
-73.0025079999999917
0
LINE
8
BLACK
6
CONTINUOUS
10
81.8130000000000024
20
-73.0025079999999917
11
81.8130000000000024
21
-76.972999999999999
0
LINE
8
BLACK
6
CONTINUOUS
10
81.8130000000000024
20
-76.972999999999999
11
81.8130000000000024
21
-77.0591799999999978
0
LINE
8
BLACK
6
CONTINUOUS
10
81.8130000000000024
20
-77.0591799999999978
11
81.8466260000000005
21
-77.2282280000000014
0
LINE
8
BLACK
6
CONTINUOUS
10
81.8466260000000005
20
-77.2282280000000014
11
81.9125849999999929
21
-77.3874679999999984
0
LINE
8
BLACK
6
CONTINUOUS
10
81.9125849999999929
20
-77.3874679999999984
11
82.0083429999999964
21
-77.5307799999999929
0
LINE
8
BLACK
6
CONTINUOUS
10
82.0083429999999964
20
-77.5307799999999929
11
82.1302199999999942
21
-77.6526569999999907
0
LINE
8
BLACK
6
CONTINUOUS
10
82.1302199999999942
20
-77.6526569999999907
11
82.273532000000003
21
-77.7484149999999943
0
LINE
8
BLACK
6
CONTINUOUS
10
82.273532000000003
20
-77.7484149999999943
11
82.4327719999999999
21
-77.8143740000000008
0
LINE
8
BLACK
6
CONTINUOUS
10
82.4327719999999999
20
-77.8143740000000008
11
82.6018199999999894
21
-77.847999999999999
0
LINE
8
BLACK
6
CONTINUOUS
10
82.6018199999999894
20
-77.847999999999999
11
82.6880000000000024
21
-77.847999999999999
0
LINE
8
BLACK
6
CONTINUOUS
10
82.6880000000000024
20
-77.847999999999999
11
86.6584919999999954
21
-77.847999999999999
0
LINE
8
BLACK
6
CONTINUOUS
10
86.6584919999999954
20
-77.847999999999999
11
88.6320979999999992
21
-76.86119699999999
0
LINE
8
BLACK
6
CONTINUOUS
10
88.6320979999999992
20
-76.86119699999999
11
88.66586199999999
21
-76.8499759999999981
0
LINE
8
BLACK
6
CONTINUOUS
10
88.66586199999999
20
-76.8499759999999981
11
88.6771269999999987
21
-76.8511919999999975
0
LINE
8
BLACK
6
CONTINUOUS
10
88.6771269999999987
20
-76.8511919999999975
11
88.6880000000000024
21
-76.847999999999999
0
LINE
8
BLACK
6
CONTINUOUS
10
88.6880000000000024
20
-76.847999999999999
11
114.6879999999999882
21
-76.847999999999999
0
LINE
8
BLACK
6
CONTINUOUS
10
114.6879999999999882
20
-76.847999999999999
11
114.7232169999999911
21
-76.8530629999999917
0
LINE
8
BLACK
6
CONTINUOUS
10
114.7232169999999911
20
-76.8530629999999917
11
114.7327509999999933
21
-76.8591899999999981
0
LINE
8
BLACK
6
CONTINUOUS
10
114.7327509999999933
20
-76.8591899999999981
11
114.7439019999999914
21
-76.86119699999999
0
LINE
8
BLACK
6
CONTINUOUS
10
114.7439019999999914
20
-76.86119699999999
11
116.7175079999999951
21
-77.847999999999999
0
LINE
8
BLACK
6
CONTINUOUS
10
116.7175079999999951
20
-77.847999999999999
11
120.6879999999999882
21
-77.847999999999999
0
LINE
8
BLACK
6
CONTINUOUS
10
120.6879999999999882
20
-77.847999999999999
11
120.7741800000000012
21
-77.847999999999999
0
LINE
8
BLACK
6
CONTINUOUS
10
120.7741800000000012
20
-77.847999999999999
11
120.9432279999999906
21
-77.8143740000000008
0
LINE
8
BLACK
6
CONTINUOUS
10
120.9432279999999906
20
-77.8143740000000008
11
121.1024679999999876
21
-77.7484149999999943
0
LINE
8
BLACK
6
CONTINUOUS
10
121.1024679999999876
20
-77.7484149999999943
11
121.2457799999999963
21
-77.6526569999999907
0
LINE
8
BLACK
6
CONTINUOUS
10
121.2457799999999963
20
-77.6526569999999907
11
121.3676569999999941
21
-77.5307799999999929
0
LINE
8
BLACK
6
CONTINUOUS
10
121.3676569999999941
20
-77.5307799999999929
11
121.4634149999999977
21
-77.3874679999999984
0
LINE
8
BLACK
6
CONTINUOUS
10
121.4634149999999977
20
-77.3874679999999984
11
121.52937399999999
21
-77.2282280000000014
0
LINE
8
BLACK
6
CONTINUOUS
10
121.52937399999999
20
-77.2282280000000014
11
121.5629999999999882
21
-77.0591799999999978
0
LINE
8
BLACK
6
CONTINUOUS
10
121.5629999999999882
20
-77.0591799999999978
11
121.5629999999999882
21
-76.972999999999999
0
LINE
8
BLACK
6
CONTINUOUS
10
121.5629999999999882
20
-76.972999999999999
11
121.5629999999999882
21
-73.0025079999999917
0
LINE
8
BLACK
6
CONTINUOUS
10
121.5629999999999882
20
-73.0025079999999917
11
120.5761969999999934
21
-71.0289020000000022
0
LINE
8
BLACK
6
CONTINUOUS
10
120.5761969999999934
20
-71.0289020000000022
11
120.5649760000000015
21
-70.9951379999999972
0
LINE
8
BLACK
6
CONTINUOUS
10
120.5649760000000015
20
-70.9951379999999972
11
120.5661920000000009
21
-70.983871999999991
0
LINE
8
BLACK
6
CONTINUOUS
10
120.5661920000000009
20
-70.983871999999991
11
120.5629999999999882
21
-70.972999999999999
0
LINE
8
BLACK
6
CONTINUOUS
10
120.5629999999999882
20
-70.972999999999999
11
120.5629999999999882
21
-44.972999999999999
0
LINE
8
BLACK
6
CONTINUOUS
10
120.5629999999999882
20
-44.972999999999999
11
120.5680629999999951
21
-44.937782999999996
0
LINE
8
BLACK
6
CONTINUOUS
10
120.5680629999999951
20
-44.937782999999996
11
120.5741900000000015
21
-44.9282479999999964
0
LINE
8
BLACK
6
CONTINUOUS
10
120.5741900000000015
20
-44.9282479999999964
11
120.5761969999999934
21
-44.9170979999999957
0
LINE
8
BLACK
6
CONTINUOUS
10
120.5761969999999934
20
-44.9170979999999957
11
121.5629999999999882
21
-42.9434919999999991
0
LINE
8
BLACK
6
CONTINUOUS
10
121.5629999999999882
20
-42.9434919999999991
11
121.5629999999999882
21
-38.972999999999999
0
LINE
8
BLACK
6
CONTINUOUS
10
121.5629999999999882
20
-38.972999999999999
11
121.5629999999999882
21
-38.8868200000000002
0
LINE
8
BLACK
6
CONTINUOUS
10
121.5629999999999882
20
-38.8868200000000002
11
121.52937399999999
21
-38.7177719999999965
0
LINE
8
BLACK
6
CONTINUOUS
10
121.52937399999999
20
-38.7177719999999965
11
121.4634149999999977
21
-38.5585319999999996
0
LINE
8
BLACK
6
CONTINUOUS
10
121.4634149999999977
20
-38.5585319999999996
11
121.3676569999999941
21
-38.4152199999999979
0
LINE
8
BLACK
6
CONTINUOUS
10
121.3676569999999941
20
-38.4152199999999979
11
121.2457799999999963
21
-38.2933430000000001
0
LINE
8
BLACK
6
CONTINUOUS
10
121.2457799999999963
20
-38.2933430000000001
11
121.1024679999999876
21
-38.1975849999999966
0
LINE
8
BLACK
6
CONTINUOUS
10
121.1024679999999876
20
-38.1975849999999966
11
120.9432279999999906
21
-38.1316259999999971
0
LINE
8
BLACK
6
CONTINUOUS
10
120.9432279999999906
20
-38.1316259999999971
11
120.7741800000000012
21
-38.097999999999999
0
LINE
8
BLACK
6
CONTINUOUS
10
120.7741800000000012
20
-38.097999999999999
11
120.6879999999999882
21
-38.097999999999999
0
LINE
8
BLACK
6
CONTINUOUS
10
120.6879999999999882
20
-38.097999999999999
11
116.7165210000000002
21
-38.097999999999999
0
LINE
8
BLACK
6
CONTINUOUS
10
116.7165210000000002
20
-38.097999999999999
11
114.7439239999999927
21
-39.0847920000000002
0
LINE
8
BLACK
6
CONTINUOUS
10
114.7439239999999927
20
-39.0847920000000002
11
114.7101629999999943
21
-39.0960199999999958
0
LINE
8
BLACK
6
CONTINUOUS
10
114.7101629999999943
20
-39.0960199999999958
11
114.698882999999995
21
-39.0948039999999963
0
LINE
8
BLACK
6
CONTINUOUS
10
114.698882999999995
20
-39.0948039999999963
11
114.6879999999999882
21
-39.097999999999999
0
LINE
8
BLACK
6
CONTINUOUS
10
114.6879999999999882
20
-39.097999999999999
11
101.6869999999999976
21
-39.097999999999999
0
LINE
8
BLACK
6
CONTINUOUS
10
101.6869999999999976
20
-39.097999999999999
11
88.6880000000000024
21
-39.097999999999999
0
LINE
8
BLACK
6
CONTINUOUS
10
88.6880000000000024
20
-39.097999999999999
11
88.6527829999999994
21
-39.0929369999999992
0
LINE
8
BLACK
6
CONTINUOUS
10
88.6527829999999994
20
-39.0929369999999992
11
88.6432479999999998
21
-39.0868089999999953
0
LINE
8
BLACK
6
CONTINUOUS
10
88.6432479999999998
20
-39.0868089999999953
11
88.6320979999999992
21
-39.0848030000000008
0
LINE
8
BLACK
6
CONTINUOUS
10
88.6320979999999992
20
-39.0848030000000008
11
86.6584919999999954
21
-38.097999999999999
0
LINE
8
BLACK
6
CONTINUOUS
10
86.6584919999999954
20
-38.097999999999999
11
82.6880000000000024
21
-38.097999999999999
  0
ENDSEC
  0
EOF
