<?xml version="1.0" standalone="no"?>
 <!DOCTYPE svg PUBLIC "-//W3C//DTD SVG 1.1//EN" 
 "http://www.w3.org/Graphics/SVG/1.1/DTD/svg11.dtd"> 
<svg
  xmlns:svg="http://www.w3.org/2000/svg"
  xmlns="http://www.w3.org/2000/svg"
  xmlns:xlink="http://www.w3.org/1999/xlink"
  version="1.1"
  width="210.007200mm" height="148.005800mm" viewBox="0.000000 0.000000 210.007200 148.005800">
<title>SVG Image created as PQ_PL1-F_Silkscreen.svg date 2024/01/09 11:59:01 </title>
  <desc>Image generated by PCBNEW </desc>
<g style="fill:#000000; fill-opacity:1.000000;stroke:#000000; stroke-opacity:1.000000;
stroke-linecap:round; stroke-linejoin:round;"
 transform="translate(0 0) scale(1 1)">
</g>
<g style="fill:#000000; fill-opacity:0.0; 
stroke:#000000; stroke-width:0.000000; stroke-opacity:1; 
stroke-linecap:round; stroke-linejoin:round;">
</g>
<g style="fill:#000000; fill-opacity:0.0; 
stroke:#000000; stroke-width:0.150000; stroke-opacity:1; 
stroke-linecap:round; stroke-linejoin:round;">
<path d="M85.020182 36.989817 A3.808017 3.808017 0.0 0 0 87.020181 34.989818" />
<path d="M87.020182 64.989818
L113.020182 64.989818
" />
<path d="M113.020183 34.989818 A3.807909 3.807909 0.0 0 0 115.020182 36.989817" />
<path d="M87.020181 64.989818 A3.807862 3.807862 0.0 0 0 85.020182 62.989819" />
<path d="M115.020182 62.989818
L115.020182 36.989818
" />
<path d="M87.020182 34.989818
L113.020182 34.989818
" />
<path d="M115.020182 62.989819 A3.807754 3.807754 0.0 0 0 113.020183 64.989818" />
<path d="M85.020182 36.989818
L85.020182 62.989818
" />
</g>
<g style="fill:#000000; fill-opacity:0.0; 
stroke:#000000; stroke-width:0.100000; stroke-opacity:1; 
stroke-linecap:round; stroke-linejoin:round;">
<text x="118.400000" y="38.750000"
textLength="0.905714" font-size="0.533333" lengthAdjust="spacingAndGlyphs"
text-anchor="middle" opacity="0">J2</text>
<g class="stroked-text"><desc>J2</desc>
<path d="M118.266666 38.329847
L118.266666 38.615561
" />
<path d="M118.266666 38.615561
L118.247619 38.672704
" />
<path d="M118.247619 38.672704
L118.209523 38.710800
" />
<path d="M118.209523 38.710800
L118.152381 38.729847
" />
<path d="M118.152381 38.729847
L118.114285 38.729847
" />
<path d="M118.438095 38.367942
L118.457143 38.348895
" />
<path d="M118.457143 38.348895
L118.495238 38.329847
" />
<path d="M118.495238 38.329847
L118.590476 38.329847
" />
<path d="M118.590476 38.329847
L118.628571 38.348895
" />
<path d="M118.628571 38.348895
L118.647619 38.367942
" />
<path d="M118.647619 38.367942
L118.666666 38.406038
" />
<path d="M118.666666 38.406038
L118.666666 38.444133
" />
<path d="M118.666666 38.444133
L118.647619 38.501276
" />
<path d="M118.647619 38.501276
L118.419047 38.729847
" />
<path d="M118.419047 38.729847
L118.666666 38.729847
" />
</g><text x="88.600000" y="31.850000"
textLength="0.905714" font-size="0.533333" lengthAdjust="spacingAndGlyphs"
text-anchor="middle" opacity="0">J1</text>
<g class="stroked-text"><desc>J1</desc>
<path d="M88.466666 31.429847
L88.466666 31.715561
" />
<path d="M88.466666 31.715561
L88.447619 31.772704
" />
<path d="M88.447619 31.772704
L88.409523 31.810800
" />
<path d="M88.409523 31.810800
L88.352381 31.829847
" />
<path d="M88.352381 31.829847
L88.314285 31.829847
" />
<path d="M88.866666 31.829847
L88.638095 31.829847
" />
<path d="M88.752381 31.829847
L88.752381 31.429847
" />
<path d="M88.752381 31.429847
L88.714285 31.486990
" />
<path d="M88.714285 31.486990
L88.676190 31.525085
" />
<path d="M88.676190 31.525085
L88.638095 31.544133
" />
</g><text x="81.550000" y="61.600000"
textLength="0.905714" font-size="0.533333" lengthAdjust="spacingAndGlyphs"
text-anchor="middle" opacity="0">J4</text>
<g class="stroked-text"><desc>J4</desc>
<path d="M81.416666 61.179847
L81.416666 61.465561
" />
<path d="M81.416666 61.465561
L81.397619 61.522704
" />
<path d="M81.397619 61.522704
L81.359523 61.560800
" />
<path d="M81.359523 61.560800
L81.302381 61.579847
" />
<path d="M81.302381 61.579847
L81.264285 61.579847
" />
<path d="M81.778571 61.313180
L81.778571 61.579847
" />
<path d="M81.683333 61.160800
L81.588095 61.446514
" />
<path d="M81.588095 61.446514
L81.835714 61.446514
" />
</g><text x="111.400000" y="68.600000"
textLength="0.905714" font-size="0.533333" lengthAdjust="spacingAndGlyphs"
text-anchor="middle" opacity="0">J3</text>
<g class="stroked-text"><desc>J3</desc>
<path d="M111.266666 68.179847
L111.266666 68.465561
" />
<path d="M111.266666 68.465561
L111.247619 68.522704
" />
<path d="M111.247619 68.522704
L111.209523 68.560800
" />
<path d="M111.209523 68.560800
L111.152381 68.579847
" />
<path d="M111.152381 68.579847
L111.114285 68.579847
" />
<path d="M111.419047 68.179847
L111.666666 68.179847
" />
<path d="M111.666666 68.179847
L111.533333 68.332228
" />
<path d="M111.533333 68.332228
L111.590476 68.332228
" />
<path d="M111.590476 68.332228
L111.628571 68.351276
" />
<path d="M111.628571 68.351276
L111.647619 68.370323
" />
<path d="M111.647619 68.370323
L111.666666 68.408419
" />
<path d="M111.666666 68.408419
L111.666666 68.503657
" />
<path d="M111.666666 68.503657
L111.647619 68.541752
" />
<path d="M111.647619 68.541752
L111.628571 68.560800
" />
<path d="M111.628571 68.560800
L111.590476 68.579847
" />
<path d="M111.590476 68.579847
L111.476190 68.579847
" />
<path d="M111.476190 68.579847
L111.438095 68.560800
" />
<path d="M111.438095 68.560800
L111.419047 68.541752
" />
</g><path d="M117.770000 37.300000
L117.770000 62.700000
" />
<path d="M115.230000 37.300000
L117.770000 37.300000
" />
<path d="M117.770000 62.700000
L115.230000 62.700000
" />
<path d="M115.230000 62.700000
L115.230000 37.300000
" />
</g>
<g style="fill:#000000; fill-opacity:0.0; 
stroke:#000000; stroke-width:0.200000; stroke-opacity:1; 
stroke-linecap:round; stroke-linejoin:round;">
</g>
<g style="fill:#000000; fill-opacity:1.000000; 
stroke:#000000; stroke-width:0.000000; stroke-opacity:1; 
stroke-linecap:round; stroke-linejoin:round;">
<circle cx="114.750000" cy="38.520000" r="0.150000" /> 
</g>
<g style="fill:#000000; fill-opacity:1.000000; 
stroke:#000000; stroke-width:0.100000; stroke-opacity:1; 
stroke-linecap:round; stroke-linejoin:round;">
</g>
<g style="fill:#000000; fill-opacity:0.0; 
stroke:#000000; stroke-width:0.100000; stroke-opacity:1; 
stroke-linecap:round; stroke-linejoin:round;">
<path d="M87.300000 32.230000
L112.700000 32.230000
" />
<path d="M87.300000 34.770000
L87.300000 32.230000
" />
<path d="M112.700000 32.230000
L112.700000 34.770000
" />
<path d="M112.700000 34.770000
L87.300000 34.770000
" />
</g>
<g style="fill:#000000; fill-opacity:0.0; 
stroke:#000000; stroke-width:0.200000; stroke-opacity:1; 
stroke-linecap:round; stroke-linejoin:round;">
</g>
<g style="fill:#000000; fill-opacity:1.000000; 
stroke:#000000; stroke-width:0.000000; stroke-opacity:1; 
stroke-linecap:round; stroke-linejoin:round;">
<circle cx="88.520000" cy="35.250000" r="0.150000" /> 
</g>
<g style="fill:#000000; fill-opacity:1.000000; 
stroke:#000000; stroke-width:0.100000; stroke-opacity:1; 
stroke-linecap:round; stroke-linejoin:round;">
</g>
<g style="fill:#000000; fill-opacity:0.0; 
stroke:#000000; stroke-width:0.100000; stroke-opacity:1; 
stroke-linecap:round; stroke-linejoin:round;">
<path d="M82.230000 62.700000
L82.230000 37.300000
" />
<path d="M84.770000 62.700000
L82.230000 62.700000
" />
<path d="M82.230000 37.300000
L84.770000 37.300000
" />
<path d="M84.770000 37.300000
L84.770000 62.700000
" />
</g>
<g style="fill:#000000; fill-opacity:0.0; 
stroke:#000000; stroke-width:0.200000; stroke-opacity:1; 
stroke-linecap:round; stroke-linejoin:round;">
</g>
<g style="fill:#000000; fill-opacity:1.000000; 
stroke:#000000; stroke-width:0.000000; stroke-opacity:1; 
stroke-linecap:round; stroke-linejoin:round;">
<circle cx="85.250000" cy="61.480000" r="0.150000" /> 
</g>
<g style="fill:#000000; fill-opacity:1.000000; 
stroke:#000000; stroke-width:0.120000; stroke-opacity:1; 
stroke-linecap:round; stroke-linejoin:round;">
</g>
<g style="fill:#000000; fill-opacity:0.0; 
stroke:#000000; stroke-width:0.120000; stroke-opacity:1; 
stroke-linecap:round; stroke-linejoin:round;">
<path d="M110.210800 35.342000
L107.960800 35.342000
" />
<path d="M110.210800 35.342000
L110.210800 37.592000
" />
<path d="M102.110800 35.922000
L96.050800 35.922000
" />
<path d="M102.110800 35.922000
L102.110800 38.042000
" />
<path d="M96.050800 35.922000
L96.050800 38.042000
" />
<path d="M104.170800 36.982000
L104.170800 38.042000
" />
<path d="M104.170800 38.042000
L103.110800 38.042000
" />
<path d="M102.110800 38.042000
L96.050800 38.042000
" />
<path d="M89.910800 63.642000
L89.910800 61.592000
" />
<path d="M89.910800 63.642000
L91.960800 63.642000
" />
<circle cx="100.060800" cy="56.892000" r="4.000000" /> 
</g>
<g style="fill:#000000; fill-opacity:0.0; 
stroke:#000000; stroke-width:0.100000; stroke-opacity:1; 
stroke-linecap:round; stroke-linejoin:round;">
<path d="M112.700000 67.770000
L87.300000 67.770000
" />
<path d="M112.700000 65.230000
L112.700000 67.770000
" />
<path d="M87.300000 67.770000
L87.300000 65.230000
" />
<path d="M87.300000 65.230000
L112.700000 65.230000
" />
</g>
<g style="fill:#000000; fill-opacity:0.0; 
stroke:#000000; stroke-width:0.200000; stroke-opacity:1; 
stroke-linecap:round; stroke-linejoin:round;">
</g>
<g style="fill:#000000; fill-opacity:1.000000; 
stroke:#000000; stroke-width:0.000000; stroke-opacity:1; 
stroke-linecap:round; stroke-linejoin:round;">
<circle cx="111.480000" cy="64.750000" r="0.150000" /> 
<g >
</g>
<g >
</g>
<g >
</g>
<g >
</g>
<g >
</g>
<g >
</g>
<g >
</g>
<g >
</g>
<g >
</g>
<g >
</g>
<g >
</g>
<g >
</g>
</g> 
</svg>
