%TF.GenerationSoftware,KiCad,Pcbnew,7.0.10-7.0.10~ubuntu22.04.1*%
%TF.CreationDate,2024-06-11T12:21:50+02:00*%
%TF.ProjectId,PQ_BotBoard,50515f42-6f74-4426-9f61-72642e6b6963,rev?*%
%TF.SameCoordinates,Original*%
%TF.FileFunction,Paste,Top*%
%TF.FilePolarity,Positive*%
%FSLAX46Y46*%
G04 Gerber Fmt 4.6, Leading zero omitted, Abs format (unit mm)*
G04 Created by KiCad (PCBNEW 7.0.10-7.0.10~ubuntu22.04.1) date 2024-06-11 12:21:50*
%MOMM*%
%LPD*%
G01*
G04 APERTURE LIST*
G04 Aperture macros list*
%AMRoundRect*
0 Rectangle with rounded corners*
0 $1 Rounding radius*
0 $2 $3 $4 $5 $6 $7 $8 $9 X,Y pos of 4 corners*
0 Add a 4 corners polygon primitive as box body*
4,1,4,$2,$3,$4,$5,$6,$7,$8,$9,$2,$3,0*
0 Add four circle primitives for the rounded corners*
1,1,$1+$1,$2,$3*
1,1,$1+$1,$4,$5*
1,1,$1+$1,$6,$7*
1,1,$1+$1,$8,$9*
0 Add four rect primitives between the rounded corners*
20,1,$1+$1,$2,$3,$4,$5,0*
20,1,$1+$1,$4,$5,$6,$7,0*
20,1,$1+$1,$6,$7,$8,$9,0*
20,1,$1+$1,$8,$9,$2,$3,0*%
G04 Aperture macros list end*
%ADD10RoundRect,0.250000X0.262500X0.450000X-0.262500X0.450000X-0.262500X-0.450000X0.262500X-0.450000X0*%
%ADD11RoundRect,0.147500X0.172500X-0.147500X0.172500X0.147500X-0.172500X0.147500X-0.172500X-0.147500X0*%
%ADD12R,1.550000X0.700000*%
%ADD13RoundRect,0.250000X-0.262500X-0.450000X0.262500X-0.450000X0.262500X0.450000X-0.262500X0.450000X0*%
%ADD14RoundRect,0.225000X-0.225000X-0.250000X0.225000X-0.250000X0.225000X0.250000X-0.225000X0.250000X0*%
%ADD15RoundRect,0.200000X-0.600000X0.200000X-0.600000X-0.200000X0.600000X-0.200000X0.600000X0.200000X0*%
%ADD16RoundRect,0.250001X-1.249999X0.799999X-1.249999X-0.799999X1.249999X-0.799999X1.249999X0.799999X0*%
%ADD17RoundRect,0.200000X0.600000X-0.200000X0.600000X0.200000X-0.600000X0.200000X-0.600000X-0.200000X0*%
%ADD18RoundRect,0.250001X1.249999X-0.799999X1.249999X0.799999X-1.249999X0.799999X-1.249999X-0.799999X0*%
G04 APERTURE END LIST*
D10*
%TO.C,VA1*%
X91993500Y-53577000D03*
X90168500Y-53577000D03*
%TD*%
D11*
%TO.C,D2*%
X88950800Y-44708700D03*
X88950800Y-43738700D03*
%TD*%
D12*
%TO.C,IC1*%
X96613000Y-62688000D03*
X96613000Y-61418000D03*
X96613000Y-60148000D03*
X96613000Y-58878000D03*
X91213000Y-58878000D03*
X91213000Y-60148000D03*
X91213000Y-61418000D03*
X91213000Y-62688000D03*
%TD*%
D13*
%TO.C,GA2*%
X95469500Y-51276000D03*
X97294500Y-51276000D03*
%TD*%
%TO.C,GA0*%
X95469500Y-56028000D03*
X97294500Y-56028000D03*
%TD*%
D10*
%TO.C,VA0*%
X91993500Y-55928000D03*
X90168500Y-55928000D03*
%TD*%
D13*
%TO.C,GA1*%
X95469500Y-53627000D03*
X97294500Y-53627000D03*
%TD*%
D14*
%TO.C,C1*%
X91385000Y-64389000D03*
X92935000Y-64389000D03*
%TD*%
D15*
%TO.C,J3*%
X106286000Y-45907800D03*
X106286000Y-47157800D03*
D16*
X103386000Y-43357800D03*
X103386000Y-49707800D03*
%TD*%
D10*
%TO.C,VA2*%
X91993500Y-51226000D03*
X90168500Y-51226000D03*
%TD*%
D17*
%TO.C,J1*%
X109106000Y-63360000D03*
X109106000Y-62110000D03*
X109106000Y-60860000D03*
X109106000Y-59610000D03*
X109106000Y-58360000D03*
X109106000Y-57110000D03*
X109106000Y-55860000D03*
X109106000Y-54610000D03*
X109106000Y-53360000D03*
X109106000Y-52110000D03*
X109106000Y-50860000D03*
X109106000Y-49610000D03*
X109106000Y-48360000D03*
X109106000Y-47110000D03*
X109106000Y-45860000D03*
D18*
X112006000Y-65910000D03*
X112006000Y-43310000D03*
%TD*%
M02*
