<?xml version="1.0" standalone="no"?>
 <!DOCTYPE svg PUBLIC "-//W3C//DTD SVG 1.1//EN" 
 "http://www.w3.org/Graphics/SVG/1.1/DTD/svg11.dtd"> 
<svg
  xmlns:svg="http://www.w3.org/2000/svg"
  xmlns="http://www.w3.org/2000/svg"
  xmlns:xlink="http://www.w3.org/1999/xlink"
  version="1.1"
  width="210.007200mm" height="148.005800mm" viewBox="0.000000 0.000000 210.007200 148.005800">
<title>SVG Image created as PQ_BotBoard-F_Silkscreen.svg date 2024/01/09 11:52:39 </title>
  <desc>Image generated by PCBNEW </desc>
<g style="fill:#000000; fill-opacity:1.000000;stroke:#000000; stroke-opacity:1.000000;
stroke-linecap:round; stroke-linejoin:round;"
 transform="translate(0 0) scale(1 1)">
</g>
<g style="fill:#000000; fill-opacity:0.0; 
stroke:#000000; stroke-width:0.000000; stroke-opacity:1; 
stroke-linecap:round; stroke-linejoin:round;">
</g>
<g style="fill:#000000; fill-opacity:0.0; 
stroke:#000000; stroke-width:0.150000; stroke-opacity:1; 
stroke-linecap:round; stroke-linejoin:round;">
<g transform="rotate(90.000000 85.598000 46.228000)">
<text x="85.598000" y="46.978000"
textLength="17.292858" font-size="2.000000" lengthAdjust="spacingAndGlyphs"
text-anchor="start" opacity="0">BOTTOM BOARD</text>
</g>
<g class="stroked-text"><desc>BOTTOM BOARD</desc>
<path d="M85.697585 47.183826
L85.626157 47.398112
" />
<path d="M85.626157 47.398112
L85.554728 47.469541
" />
<path d="M85.554728 47.469541
L85.411871 47.540969
" />
<path d="M85.411871 47.540969
L85.197585 47.540969
" />
<path d="M85.197585 47.540969
L85.054728 47.469541
" />
<path d="M85.054728 47.469541
L84.983300 47.398112
" />
<path d="M84.983300 47.398112
L84.911871 47.255255
" />
<path d="M84.911871 47.255255
L84.911871 46.683826
" />
<path d="M84.911871 46.683826
L86.411871 46.683826
" />
<path d="M86.411871 46.683826
L86.411871 47.183826
" />
<path d="M86.411871 47.183826
L86.340442 47.326684
" />
<path d="M86.340442 47.326684
L86.269014 47.398112
" />
<path d="M86.269014 47.398112
L86.126157 47.469541
" />
<path d="M86.126157 47.469541
L85.983300 47.469541
" />
<path d="M85.983300 47.469541
L85.840442 47.398112
" />
<path d="M85.840442 47.398112
L85.769014 47.326684
" />
<path d="M85.769014 47.326684
L85.697585 47.183826
" />
<path d="M85.697585 47.183826
L85.697585 46.683826
" />
<path d="M86.411871 48.469541
L86.411871 48.755255
" />
<path d="M86.411871 48.755255
L86.340442 48.898112
" />
<path d="M86.340442 48.898112
L86.197585 49.040969
" />
<path d="M86.197585 49.040969
L85.911871 49.112398
" />
<path d="M85.911871 49.112398
L85.411871 49.112398
" />
<path d="M85.411871 49.112398
L85.126157 49.040969
" />
<path d="M85.126157 49.040969
L84.983300 48.898112
" />
<path d="M84.983300 48.898112
L84.911871 48.755255
" />
<path d="M84.911871 48.755255
L84.911871 48.469541
" />
<path d="M84.911871 48.469541
L84.983300 48.326684
" />
<path d="M84.983300 48.326684
L85.126157 48.183826
" />
<path d="M85.126157 48.183826
L85.411871 48.112398
" />
<path d="M85.411871 48.112398
L85.911871 48.112398
" />
<path d="M85.911871 48.112398
L86.197585 48.183826
" />
<path d="M86.197585 48.183826
L86.340442 48.326684
" />
<path d="M86.340442 48.326684
L86.411871 48.469541
" />
<path d="M86.411871 49.540970
L86.411871 50.398113
" />
<path d="M84.911871 49.969541
L86.411871 49.969541
" />
<path d="M86.411871 50.683827
L86.411871 51.540970
" />
<path d="M84.911871 51.112398
L86.411871 51.112398
" />
<path d="M86.411871 52.326684
L86.411871 52.612398
" />
<path d="M86.411871 52.612398
L86.340442 52.755255
" />
<path d="M86.340442 52.755255
L86.197585 52.898112
" />
<path d="M86.197585 52.898112
L85.911871 52.969541
" />
<path d="M85.911871 52.969541
L85.411871 52.969541
" />
<path d="M85.411871 52.969541
L85.126157 52.898112
" />
<path d="M85.126157 52.898112
L84.983300 52.755255
" />
<path d="M84.983300 52.755255
L84.911871 52.612398
" />
<path d="M84.911871 52.612398
L84.911871 52.326684
" />
<path d="M84.911871 52.326684
L84.983300 52.183827
" />
<path d="M84.983300 52.183827
L85.126157 52.040969
" />
<path d="M85.126157 52.040969
L85.411871 51.969541
" />
<path d="M85.411871 51.969541
L85.911871 51.969541
" />
<path d="M85.911871 51.969541
L86.197585 52.040969
" />
<path d="M86.197585 52.040969
L86.340442 52.183827
" />
<path d="M86.340442 52.183827
L86.411871 52.326684
" />
<path d="M84.911871 53.612398
L86.411871 53.612398
" />
<path d="M86.411871 53.612398
L85.340442 54.112398
" />
<path d="M85.340442 54.112398
L86.411871 54.612398
" />
<path d="M86.411871 54.612398
L84.911871 54.612398
" />
<path d="M85.697585 56.969541
L85.626157 57.183827
" />
<path d="M85.626157 57.183827
L85.554728 57.255256
" />
<path d="M85.554728 57.255256
L85.411871 57.326684
" />
<path d="M85.411871 57.326684
L85.197585 57.326684
" />
<path d="M85.197585 57.326684
L85.054728 57.255256
" />
<path d="M85.054728 57.255256
L84.983300 57.183827
" />
<path d="M84.983300 57.183827
L84.911871 57.040970
" />
<path d="M84.911871 57.040970
L84.911871 56.469541
" />
<path d="M84.911871 56.469541
L86.411871 56.469541
" />
<path d="M86.411871 56.469541
L86.411871 56.969541
" />
<path d="M86.411871 56.969541
L86.340442 57.112399
" />
<path d="M86.340442 57.112399
L86.269014 57.183827
" />
<path d="M86.269014 57.183827
L86.126157 57.255256
" />
<path d="M86.126157 57.255256
L85.983300 57.255256
" />
<path d="M85.983300 57.255256
L85.840442 57.183827
" />
<path d="M85.840442 57.183827
L85.769014 57.112399
" />
<path d="M85.769014 57.112399
L85.697585 56.969541
" />
<path d="M85.697585 56.969541
L85.697585 56.469541
" />
<path d="M86.411871 58.255256
L86.411871 58.540970
" />
<path d="M86.411871 58.540970
L86.340442 58.683827
" />
<path d="M86.340442 58.683827
L86.197585 58.826684
" />
<path d="M86.197585 58.826684
L85.911871 58.898113
" />
<path d="M85.911871 58.898113
L85.411871 58.898113
" />
<path d="M85.411871 58.898113
L85.126157 58.826684
" />
<path d="M85.126157 58.826684
L84.983300 58.683827
" />
<path d="M84.983300 58.683827
L84.911871 58.540970
" />
<path d="M84.911871 58.540970
L84.911871 58.255256
" />
<path d="M84.911871 58.255256
L84.983300 58.112399
" />
<path d="M84.983300 58.112399
L85.126157 57.969541
" />
<path d="M85.126157 57.969541
L85.411871 57.898113
" />
<path d="M85.411871 57.898113
L85.911871 57.898113
" />
<path d="M85.911871 57.898113
L86.197585 57.969541
" />
<path d="M86.197585 57.969541
L86.340442 58.112399
" />
<path d="M86.340442 58.112399
L86.411871 58.255256
" />
<path d="M85.340442 59.469542
L85.340442 60.183828
" />
<path d="M84.911871 59.326685
L86.411871 59.826685
" />
<path d="M86.411871 59.826685
L84.911871 60.326685
" />
<path d="M84.911871 61.683827
L85.626157 61.183827
" />
<path d="M84.911871 60.826684
L86.411871 60.826684
" />
<path d="M86.411871 60.826684
L86.411871 61.398113
" />
<path d="M86.411871 61.398113
L86.340442 61.540970
" />
<path d="M86.340442 61.540970
L86.269014 61.612399
" />
<path d="M86.269014 61.612399
L86.126157 61.683827
" />
<path d="M86.126157 61.683827
L85.911871 61.683827
" />
<path d="M85.911871 61.683827
L85.769014 61.612399
" />
<path d="M85.769014 61.612399
L85.697585 61.540970
" />
<path d="M85.697585 61.540970
L85.626157 61.398113
" />
<path d="M85.626157 61.398113
L85.626157 60.826684
" />
<path d="M84.911871 62.326684
L86.411871 62.326684
" />
<path d="M86.411871 62.326684
L86.411871 62.683827
" />
<path d="M86.411871 62.683827
L86.340442 62.898113
" />
<path d="M86.340442 62.898113
L86.197585 63.040970
" />
<path d="M86.197585 63.040970
L86.054728 63.112399
" />
<path d="M86.054728 63.112399
L85.769014 63.183827
" />
<path d="M85.769014 63.183827
L85.554728 63.183827
" />
<path d="M85.554728 63.183827
L85.269014 63.112399
" />
<path d="M85.269014 63.112399
L85.126157 63.040970
" />
<path d="M85.126157 63.040970
L84.983300 62.898113
" />
<path d="M84.983300 62.898113
L84.911871 62.683827
" />
<path d="M84.911871 62.683827
L84.911871 62.326684
" />
</g></g>
<g style="fill:#000000; fill-opacity:0.0; 
stroke:#000000; stroke-width:0.100000; stroke-opacity:1; 
stroke-linecap:round; stroke-linejoin:round;">
<text x="123.000000" y="44.000000"
textLength="1.020000" font-size="0.533333" lengthAdjust="spacingAndGlyphs"
text-anchor="middle" opacity="0">H4</text>
<g class="stroked-text"><desc>H4</desc>
<path d="M122.695238 43.979847
L122.695238 43.579847
" />
<path d="M122.695238 43.770323
L122.923809 43.770323
" />
<path d="M122.923809 43.979847
L122.923809 43.579847
" />
<path d="M123.285714 43.713180
L123.285714 43.979847
" />
<path d="M123.190476 43.560800
L123.095238 43.846514
" />
<path d="M123.095238 43.846514
L123.342857 43.846514
" />
</g><text x="88.696800" y="53.794000"
textLength="1.286666" font-size="0.533333" lengthAdjust="spacingAndGlyphs"
text-anchor="middle" opacity="0">VA1</text>
<g class="stroked-text"><desc>VA1</desc>
<path d="M88.201562 53.373847
L88.334895 53.773847
" />
<path d="M88.334895 53.773847
L88.468228 53.373847
" />
<path d="M88.582514 53.659561
L88.772990 53.659561
" />
<path d="M88.544419 53.773847
L88.677752 53.373847
" />
<path d="M88.677752 53.373847
L88.811085 53.773847
" />
<path d="M89.153942 53.773847
L88.925371 53.773847
" />
<path d="M89.039657 53.773847
L89.039657 53.373847
" />
<path d="M89.039657 53.373847
L89.001561 53.430990
" />
<path d="M89.001561 53.430990
L88.963466 53.469085
" />
<path d="M88.963466 53.469085
L88.925371 53.488133
" />
</g><text x="94.157800" y="64.131800"
textLength="1.191428" font-size="0.533333" lengthAdjust="spacingAndGlyphs"
text-anchor="middle" opacity="0">IC1</text>
<g class="stroked-text"><desc>IC1</desc>
<path d="M93.767324 64.111647
L93.767324 63.711647
" />
<path d="M94.186371 64.073552
L94.167323 64.092600
" />
<path d="M94.167323 64.092600
L94.110181 64.111647
" />
<path d="M94.110181 64.111647
L94.072085 64.111647
" />
<path d="M94.072085 64.111647
L94.014942 64.092600
" />
<path d="M94.014942 64.092600
L93.976847 64.054504
" />
<path d="M93.976847 64.054504
L93.957800 64.016409
" />
<path d="M93.957800 64.016409
L93.938752 63.940219
" />
<path d="M93.938752 63.940219
L93.938752 63.883076
" />
<path d="M93.938752 63.883076
L93.957800 63.806885
" />
<path d="M93.957800 63.806885
L93.976847 63.768790
" />
<path d="M93.976847 63.768790
L94.014942 63.730695
" />
<path d="M94.014942 63.730695
L94.072085 63.711647
" />
<path d="M94.072085 63.711647
L94.110181 63.711647
" />
<path d="M94.110181 63.711647
L94.167323 63.730695
" />
<path d="M94.167323 63.730695
L94.186371 63.749742
" />
<path d="M94.567323 64.111647
L94.338752 64.111647
" />
<path d="M94.453038 64.111647
L94.453038 63.711647
" />
<path d="M94.453038 63.711647
L94.414942 63.768790
" />
<path d="M94.414942 63.768790
L94.376847 63.806885
" />
<path d="M94.376847 63.806885
L94.338752 63.825933
" />
</g><text x="98.729800" y="51.457200"
textLength="1.343809" font-size="0.533333" lengthAdjust="spacingAndGlyphs"
text-anchor="middle" opacity="0">GA2</text>
<g class="stroked-text"><desc>GA2</desc>
<path d="M98.472657 51.056095
L98.434562 51.037047
" />
<path d="M98.434562 51.037047
L98.377419 51.037047
" />
<path d="M98.377419 51.037047
L98.320276 51.056095
" />
<path d="M98.320276 51.056095
L98.282181 51.094190
" />
<path d="M98.282181 51.094190
L98.263134 51.132285
" />
<path d="M98.263134 51.132285
L98.244086 51.208476
" />
<path d="M98.244086 51.208476
L98.244086 51.265619
" />
<path d="M98.244086 51.265619
L98.263134 51.341809
" />
<path d="M98.263134 51.341809
L98.282181 51.379904
" />
<path d="M98.282181 51.379904
L98.320276 51.418000
" />
<path d="M98.320276 51.418000
L98.377419 51.437047
" />
<path d="M98.377419 51.437047
L98.415515 51.437047
" />
<path d="M98.415515 51.437047
L98.472657 51.418000
" />
<path d="M98.472657 51.418000
L98.491705 51.398952
" />
<path d="M98.491705 51.398952
L98.491705 51.265619
" />
<path d="M98.491705 51.265619
L98.415515 51.265619
" />
<path d="M98.644086 51.322761
L98.834562 51.322761
" />
<path d="M98.605991 51.437047
L98.739324 51.037047
" />
<path d="M98.739324 51.037047
L98.872657 51.437047
" />
<path d="M98.986943 51.075142
L99.005991 51.056095
" />
<path d="M99.005991 51.056095
L99.044086 51.037047
" />
<path d="M99.044086 51.037047
L99.139324 51.037047
" />
<path d="M99.139324 51.037047
L99.177419 51.056095
" />
<path d="M99.177419 51.056095
L99.196467 51.075142
" />
<path d="M99.196467 51.075142
L99.215514 51.113238
" />
<path d="M99.215514 51.113238
L99.215514 51.151333
" />
<path d="M99.215514 51.151333
L99.196467 51.208476
" />
<path d="M99.196467 51.208476
L98.967895 51.437047
" />
<path d="M98.967895 51.437047
L99.215514 51.437047
" />
</g><text x="98.729800" y="56.257800"
textLength="1.343809" font-size="0.533333" lengthAdjust="spacingAndGlyphs"
text-anchor="middle" opacity="0">GA0</text>
<g class="stroked-text"><desc>GA0</desc>
<path d="M98.472657 55.856695
L98.434562 55.837647
" />
<path d="M98.434562 55.837647
L98.377419 55.837647
" />
<path d="M98.377419 55.837647
L98.320276 55.856695
" />
<path d="M98.320276 55.856695
L98.282181 55.894790
" />
<path d="M98.282181 55.894790
L98.263134 55.932885
" />
<path d="M98.263134 55.932885
L98.244086 56.009076
" />
<path d="M98.244086 56.009076
L98.244086 56.066219
" />
<path d="M98.244086 56.066219
L98.263134 56.142409
" />
<path d="M98.263134 56.142409
L98.282181 56.180504
" />
<path d="M98.282181 56.180504
L98.320276 56.218600
" />
<path d="M98.320276 56.218600
L98.377419 56.237647
" />
<path d="M98.377419 56.237647
L98.415515 56.237647
" />
<path d="M98.415515 56.237647
L98.472657 56.218600
" />
<path d="M98.472657 56.218600
L98.491705 56.199552
" />
<path d="M98.491705 56.199552
L98.491705 56.066219
" />
<path d="M98.491705 56.066219
L98.415515 56.066219
" />
<path d="M98.644086 56.123361
L98.834562 56.123361
" />
<path d="M98.605991 56.237647
L98.739324 55.837647
" />
<path d="M98.739324 55.837647
L98.872657 56.237647
" />
<path d="M99.082181 55.837647
L99.120276 55.837647
" />
<path d="M99.120276 55.837647
L99.158372 55.856695
" />
<path d="M99.158372 55.856695
L99.177419 55.875742
" />
<path d="M99.177419 55.875742
L99.196467 55.913838
" />
<path d="M99.196467 55.913838
L99.215514 55.990028
" />
<path d="M99.215514 55.990028
L99.215514 56.085266
" />
<path d="M99.215514 56.085266
L99.196467 56.161457
" />
<path d="M99.196467 56.161457
L99.177419 56.199552
" />
<path d="M99.177419 56.199552
L99.158372 56.218600
" />
<path d="M99.158372 56.218600
L99.120276 56.237647
" />
<path d="M99.120276 56.237647
L99.082181 56.237647
" />
<path d="M99.082181 56.237647
L99.044086 56.218600
" />
<path d="M99.044086 56.218600
L99.025038 56.199552
" />
<path d="M99.025038 56.199552
L99.005991 56.161457
" />
<path d="M99.005991 56.161457
L98.986943 56.085266
" />
<path d="M98.986943 56.085266
L98.986943 55.990028
" />
<path d="M98.986943 55.990028
L99.005991 55.913838
" />
<path d="M99.005991 55.913838
L99.025038 55.875742
" />
<path d="M99.025038 55.875742
L99.044086 55.856695
" />
<path d="M99.044086 55.856695
L99.082181 55.837647
" />
</g><text x="94.996000" y="81.429200"
textLength="1.020000" font-size="0.533333" lengthAdjust="spacingAndGlyphs"
text-anchor="middle" opacity="0">H1</text>
<g class="stroked-text"><desc>H1</desc>
<path d="M94.691238 81.409047
L94.691238 81.009047
" />
<path d="M94.691238 81.199523
L94.919809 81.199523
" />
<path d="M94.919809 81.409047
L94.919809 81.009047
" />
<path d="M95.319809 81.409047
L95.091238 81.409047
" />
<path d="M95.205524 81.409047
L95.205524 81.009047
" />
<path d="M95.205524 81.009047
L95.167428 81.066190
" />
<path d="M95.167428 81.066190
L95.129333 81.104285
" />
<path d="M95.129333 81.104285
L95.091238 81.123333
" />
</g><text x="88.646000" y="56.029200"
textLength="1.286666" font-size="0.533333" lengthAdjust="spacingAndGlyphs"
text-anchor="middle" opacity="0">VA0</text>
<g class="stroked-text"><desc>VA0</desc>
<path d="M88.150762 55.609047
L88.284095 56.009047
" />
<path d="M88.284095 56.009047
L88.417428 55.609047
" />
<path d="M88.531714 55.894761
L88.722190 55.894761
" />
<path d="M88.493619 56.009047
L88.626952 55.609047
" />
<path d="M88.626952 55.609047
L88.760285 56.009047
" />
<path d="M88.969809 55.609047
L89.007904 55.609047
" />
<path d="M89.007904 55.609047
L89.046000 55.628095
" />
<path d="M89.046000 55.628095
L89.065047 55.647142
" />
<path d="M89.065047 55.647142
L89.084095 55.685238
" />
<path d="M89.084095 55.685238
L89.103142 55.761428
" />
<path d="M89.103142 55.761428
L89.103142 55.856666
" />
<path d="M89.103142 55.856666
L89.084095 55.932857
" />
<path d="M89.084095 55.932857
L89.065047 55.970952
" />
<path d="M89.065047 55.970952
L89.046000 55.990000
" />
<path d="M89.046000 55.990000
L89.007904 56.009047
" />
<path d="M89.007904 56.009047
L88.969809 56.009047
" />
<path d="M88.969809 56.009047
L88.931714 55.990000
" />
<path d="M88.931714 55.990000
L88.912666 55.970952
" />
<path d="M88.912666 55.970952
L88.893619 55.932857
" />
<path d="M88.893619 55.932857
L88.874571 55.856666
" />
<path d="M88.874571 55.856666
L88.874571 55.761428
" />
<path d="M88.874571 55.761428
L88.893619 55.685238
" />
<path d="M88.893619 55.685238
L88.912666 55.647142
" />
<path d="M88.912666 55.647142
L88.931714 55.628095
" />
<path d="M88.931714 55.628095
L88.969809 55.609047
" />
</g><text x="95.000000" y="33.000000"
textLength="1.020000" font-size="0.533333" lengthAdjust="spacingAndGlyphs"
text-anchor="middle" opacity="0">H6</text>
<g class="stroked-text"><desc>H6</desc>
<path d="M94.695238 32.979847
L94.695238 32.579847
" />
<path d="M94.695238 32.770323
L94.923809 32.770323
" />
<path d="M94.923809 32.979847
L94.923809 32.579847
" />
<path d="M95.285714 32.579847
L95.209524 32.579847
" />
<path d="M95.209524 32.579847
L95.171428 32.598895
" />
<path d="M95.171428 32.598895
L95.152381 32.617942
" />
<path d="M95.152381 32.617942
L95.114286 32.675085
" />
<path d="M95.114286 32.675085
L95.095238 32.751276
" />
<path d="M95.095238 32.751276
L95.095238 32.903657
" />
<path d="M95.095238 32.903657
L95.114286 32.941752
" />
<path d="M95.114286 32.941752
L95.133333 32.960800
" />
<path d="M95.133333 32.960800
L95.171428 32.979847
" />
<path d="M95.171428 32.979847
L95.247619 32.979847
" />
<path d="M95.247619 32.979847
L95.285714 32.960800
" />
<path d="M95.285714 32.960800
L95.304762 32.941752
" />
<path d="M95.304762 32.941752
L95.323809 32.903657
" />
<path d="M95.323809 32.903657
L95.323809 32.808419
" />
<path d="M95.323809 32.808419
L95.304762 32.770323
" />
<path d="M95.304762 32.770323
L95.285714 32.751276
" />
<path d="M95.285714 32.751276
L95.247619 32.732228
" />
<path d="M95.247619 32.732228
L95.171428 32.732228
" />
<path d="M95.171428 32.732228
L95.133333 32.751276
" />
<path d="M95.133333 32.751276
L95.114286 32.770323
" />
<path d="M95.114286 32.770323
L95.095238 32.808419
" />
</g><text x="98.729800" y="53.844800"
textLength="1.343809" font-size="0.533333" lengthAdjust="spacingAndGlyphs"
text-anchor="middle" opacity="0">GA1</text>
<g class="stroked-text"><desc>GA1</desc>
<path d="M98.472657 53.443695
L98.434562 53.424647
" />
<path d="M98.434562 53.424647
L98.377419 53.424647
" />
<path d="M98.377419 53.424647
L98.320276 53.443695
" />
<path d="M98.320276 53.443695
L98.282181 53.481790
" />
<path d="M98.282181 53.481790
L98.263134 53.519885
" />
<path d="M98.263134 53.519885
L98.244086 53.596076
" />
<path d="M98.244086 53.596076
L98.244086 53.653219
" />
<path d="M98.244086 53.653219
L98.263134 53.729409
" />
<path d="M98.263134 53.729409
L98.282181 53.767504
" />
<path d="M98.282181 53.767504
L98.320276 53.805600
" />
<path d="M98.320276 53.805600
L98.377419 53.824647
" />
<path d="M98.377419 53.824647
L98.415515 53.824647
" />
<path d="M98.415515 53.824647
L98.472657 53.805600
" />
<path d="M98.472657 53.805600
L98.491705 53.786552
" />
<path d="M98.491705 53.786552
L98.491705 53.653219
" />
<path d="M98.491705 53.653219
L98.415515 53.653219
" />
<path d="M98.644086 53.710361
L98.834562 53.710361
" />
<path d="M98.605991 53.824647
L98.739324 53.424647
" />
<path d="M98.739324 53.424647
L98.872657 53.824647
" />
<path d="M99.215514 53.824647
L98.986943 53.824647
" />
<path d="M99.101229 53.824647
L99.101229 53.424647
" />
<path d="M99.101229 53.424647
L99.063133 53.481790
" />
<path d="M99.063133 53.481790
L99.025038 53.519885
" />
<path d="M99.025038 53.519885
L98.986943 53.538933
" />
</g><text x="92.100400" y="65.681200"
textLength="1.000952" font-size="0.533333" lengthAdjust="spacingAndGlyphs"
text-anchor="middle" opacity="0">C1</text>
<g class="stroked-text"><desc>C1</desc>
<path d="M92.033733 65.622952
L92.014685 65.642000
" />
<path d="M92.014685 65.642000
L91.957543 65.661047
" />
<path d="M91.957543 65.661047
L91.919447 65.661047
" />
<path d="M91.919447 65.661047
L91.862304 65.642000
" />
<path d="M91.862304 65.642000
L91.824209 65.603904
" />
<path d="M91.824209 65.603904
L91.805162 65.565809
" />
<path d="M91.805162 65.565809
L91.786114 65.489619
" />
<path d="M91.786114 65.489619
L91.786114 65.432476
" />
<path d="M91.786114 65.432476
L91.805162 65.356285
" />
<path d="M91.805162 65.356285
L91.824209 65.318190
" />
<path d="M91.824209 65.318190
L91.862304 65.280095
" />
<path d="M91.862304 65.280095
L91.919447 65.261047
" />
<path d="M91.919447 65.261047
L91.957543 65.261047
" />
<path d="M91.957543 65.261047
L92.014685 65.280095
" />
<path d="M92.014685 65.280095
L92.033733 65.299142
" />
<path d="M92.414685 65.661047
L92.186114 65.661047
" />
<path d="M92.300400 65.661047
L92.300400 65.261047
" />
<path d="M92.300400 65.261047
L92.262304 65.318190
" />
<path d="M92.262304 65.318190
L92.224209 65.356285
" />
<path d="M92.224209 65.356285
L92.186114 65.375333
" />
</g><text x="122.986800" y="70.354800"
textLength="1.020000" font-size="0.533333" lengthAdjust="spacingAndGlyphs"
text-anchor="middle" opacity="0">H3</text>
<g class="stroked-text"><desc>H3</desc>
<path d="M122.682038 70.334647
L122.682038 69.934647
" />
<path d="M122.682038 70.125123
L122.910609 70.125123
" />
<path d="M122.910609 70.334647
L122.910609 69.934647
" />
<path d="M123.062990 69.934647
L123.310609 69.934647
" />
<path d="M123.310609 69.934647
L123.177276 70.087028
" />
<path d="M123.177276 70.087028
L123.234419 70.087028
" />
<path d="M123.234419 70.087028
L123.272514 70.106076
" />
<path d="M123.272514 70.106076
L123.291562 70.125123
" />
<path d="M123.291562 70.125123
L123.310609 70.163219
" />
<path d="M123.310609 70.163219
L123.310609 70.258457
" />
<path d="M123.310609 70.258457
L123.291562 70.296552
" />
<path d="M123.291562 70.296552
L123.272514 70.315600
" />
<path d="M123.272514 70.315600
L123.234419 70.334647
" />
<path d="M123.234419 70.334647
L123.120133 70.334647
" />
<path d="M123.120133 70.334647
L123.082038 70.315600
" />
<path d="M123.082038 70.315600
L123.062990 70.296552
" />
</g><text x="109.067600" y="81.429200"
textLength="1.020000" font-size="0.533333" lengthAdjust="spacingAndGlyphs"
text-anchor="middle" opacity="0">H2</text>
<g class="stroked-text"><desc>H2</desc>
<path d="M108.762838 81.409047
L108.762838 81.009047
" />
<path d="M108.762838 81.199523
L108.991409 81.199523
" />
<path d="M108.991409 81.409047
L108.991409 81.009047
" />
<path d="M109.162838 81.047142
L109.181886 81.028095
" />
<path d="M109.181886 81.028095
L109.219981 81.009047
" />
<path d="M109.219981 81.009047
L109.315219 81.009047
" />
<path d="M109.315219 81.009047
L109.353314 81.028095
" />
<path d="M109.353314 81.028095
L109.372362 81.047142
" />
<path d="M109.372362 81.047142
L109.391409 81.085238
" />
<path d="M109.391409 81.085238
L109.391409 81.123333
" />
<path d="M109.391409 81.123333
L109.372362 81.180476
" />
<path d="M109.372362 81.180476
L109.143790 81.409047
" />
<path d="M109.143790 81.409047
L109.391409 81.409047
" />
</g><text x="100.380800" y="46.732800"
textLength="0.905714" font-size="0.533333" lengthAdjust="spacingAndGlyphs"
text-anchor="middle" opacity="0">J3</text>
<g class="stroked-text"><desc>J3</desc>
<path d="M100.247466 46.312647
L100.247466 46.598361
" />
<path d="M100.247466 46.598361
L100.228419 46.655504
" />
<path d="M100.228419 46.655504
L100.190323 46.693600
" />
<path d="M100.190323 46.693600
L100.133181 46.712647
" />
<path d="M100.133181 46.712647
L100.095085 46.712647
" />
<path d="M100.399847 46.312647
L100.647466 46.312647
" />
<path d="M100.647466 46.312647
L100.514133 46.465028
" />
<path d="M100.514133 46.465028
L100.571276 46.465028
" />
<path d="M100.571276 46.465028
L100.609371 46.484076
" />
<path d="M100.609371 46.484076
L100.628419 46.503123
" />
<path d="M100.628419 46.503123
L100.647466 46.541219
" />
<path d="M100.647466 46.541219
L100.647466 46.636457
" />
<path d="M100.647466 46.636457
L100.628419 46.674552
" />
<path d="M100.628419 46.674552
L100.609371 46.693600
" />
<path d="M100.609371 46.693600
L100.571276 46.712647
" />
<path d="M100.571276 46.712647
L100.456990 46.712647
" />
<path d="M100.456990 46.712647
L100.418895 46.693600
" />
<path d="M100.418895 46.693600
L100.399847 46.674552
" />
</g><text x="109.000000" y="33.000000"
textLength="1.020000" font-size="0.533333" lengthAdjust="spacingAndGlyphs"
text-anchor="middle" opacity="0">H5</text>
<g class="stroked-text"><desc>H5</desc>
<path d="M108.695238 32.979847
L108.695238 32.579847
" />
<path d="M108.695238 32.770323
L108.923809 32.770323
" />
<path d="M108.923809 32.979847
L108.923809 32.579847
" />
<path d="M109.304762 32.579847
L109.114286 32.579847
" />
<path d="M109.114286 32.579847
L109.095238 32.770323
" />
<path d="M109.095238 32.770323
L109.114286 32.751276
" />
<path d="M109.114286 32.751276
L109.152381 32.732228
" />
<path d="M109.152381 32.732228
L109.247619 32.732228
" />
<path d="M109.247619 32.732228
L109.285714 32.751276
" />
<path d="M109.285714 32.751276
L109.304762 32.770323
" />
<path d="M109.304762 32.770323
L109.323809 32.808419
" />
<path d="M109.323809 32.808419
L109.323809 32.903657
" />
<path d="M109.323809 32.903657
L109.304762 32.941752
" />
<path d="M109.304762 32.941752
L109.285714 32.960800
" />
<path d="M109.285714 32.960800
L109.247619 32.979847
" />
<path d="M109.247619 32.979847
L109.152381 32.979847
" />
<path d="M109.152381 32.979847
L109.114286 32.960800
" />
<path d="M109.114286 32.960800
L109.095238 32.941752
" />
</g><text x="88.646000" y="51.508000"
textLength="1.286666" font-size="0.533333" lengthAdjust="spacingAndGlyphs"
text-anchor="middle" opacity="0">VA2</text>
<g class="stroked-text"><desc>VA2</desc>
<path d="M88.150762 51.087847
L88.284095 51.487847
" />
<path d="M88.284095 51.487847
L88.417428 51.087847
" />
<path d="M88.531714 51.373561
L88.722190 51.373561
" />
<path d="M88.493619 51.487847
L88.626952 51.087847
" />
<path d="M88.626952 51.087847
L88.760285 51.487847
" />
<path d="M88.874571 51.125942
L88.893619 51.106895
" />
<path d="M88.893619 51.106895
L88.931714 51.087847
" />
<path d="M88.931714 51.087847
L89.026952 51.087847
" />
<path d="M89.026952 51.087847
L89.065047 51.106895
" />
<path d="M89.065047 51.106895
L89.084095 51.125942
" />
<path d="M89.084095 51.125942
L89.103142 51.164038
" />
<path d="M89.103142 51.164038
L89.103142 51.202133
" />
<path d="M89.103142 51.202133
L89.084095 51.259276
" />
<path d="M89.084095 51.259276
L88.855523 51.487847
" />
<path d="M88.855523 51.487847
L89.103142 51.487847
" />
</g><text x="115.112800" y="54.860800"
textLength="0.905714" font-size="0.533333" lengthAdjust="spacingAndGlyphs"
text-anchor="middle" opacity="0">J1</text>
<g class="stroked-text"><desc>J1</desc>
<path d="M114.979466 54.440647
L114.979466 54.726361
" />
<path d="M114.979466 54.726361
L114.960419 54.783504
" />
<path d="M114.960419 54.783504
L114.922323 54.821600
" />
<path d="M114.922323 54.821600
L114.865181 54.840647
" />
<path d="M114.865181 54.840647
L114.827085 54.840647
" />
<path d="M115.379466 54.840647
L115.150895 54.840647
" />
<path d="M115.265181 54.840647
L115.265181 54.440647
" />
<path d="M115.265181 54.440647
L115.227085 54.497790
" />
<path d="M115.227085 54.497790
L115.188990 54.535885
" />
<path d="M115.188990 54.535885
L115.150895 54.554933
" />
</g></g>
<g style="fill:#000000; fill-opacity:0.0; 
stroke:#000000; stroke-width:0.120000; stroke-opacity:1; 
stroke-linecap:round; stroke-linejoin:round;">
<path d="M91.308064 54.312000
L90.853936 54.312000
" />
<path d="M91.308064 52.842000
L90.853936 52.842000
" />
</g>
<g style="fill:#000000; fill-opacity:0.0; 
stroke:#000000; stroke-width:0.200000; stroke-opacity:1; 
stroke-linecap:round; stroke-linejoin:round;">
<path d="M97.388000 63.388000
L95.838000 63.388000
" />
<path d="M95.488000 63.233000
L92.338000 63.233000
" />
<path d="M95.488000 58.333000
L95.488000 63.233000
" />
<path d="M92.338000 63.233000
L92.338000 58.333000
" />
<path d="M92.338000 58.333000
L95.488000 58.333000
" />
</g>
<g style="fill:#000000; fill-opacity:0.0; 
stroke:#000000; stroke-width:0.120000; stroke-opacity:1; 
stroke-linecap:round; stroke-linejoin:round;">
<path d="M96.609064 52.011000
L96.154936 52.011000
" />
<path d="M96.609064 50.541000
L96.154936 50.541000
" />
<path d="M96.609064 56.763000
L96.154936 56.763000
" />
<path d="M96.609064 55.293000
L96.154936 55.293000
" />
<path d="M91.308064 56.663000
L90.853936 56.663000
" />
<path d="M91.308064 55.193000
L90.853936 55.193000
" />
<path d="M96.609064 54.362000
L96.154936 54.362000
" />
<path d="M96.609064 52.892000
L96.154936 52.892000
" />
<path d="M92.019420 63.879000
L92.300580 63.879000
" />
<path d="M92.019420 64.899000
L92.300580 64.899000
" />
</g>
<g style="fill:#000000; fill-opacity:1.000000; 
stroke:#000000; stroke-width:0.000000; stroke-opacity:1; 
stroke-linecap:round; stroke-linejoin:round;">
<path style="fill:#000000; fill-opacity:1.000000; 
stroke:#000000; stroke-width:0.000000; stroke-opacity:1; 
stroke-linecap:round; stroke-linejoin:round;fill-rule:evenodd;"
d="M 101.508136,55.948447
101.938525,55.948447
101.938525,55.518058
102.157247,55.518058
102.157247,58.975280
101.938525,58.975280
101.938525,58.760086
101.508136,58.760086
101.508136,58.975280
100.209914,58.975280
100.210619,58.759380
100.211678,58.543127
100.252247,58.540658
100.273395,58.538986
100.294499,58.536489
100.336530,58.529051
100.378250,58.518406
100.419569,58.504619
100.460398,58.487752
100.500647,58.467869
100.540229,58.445031
100.579052,58.419302
100.617027,58.390746
100.654066,58.359425
100.690078,58.325403
100.724975,58.288741
100.758666,58.249505
100.791064,58.207755
100.822077,58.163557
100.851617,58.116972
100.855118,58.110975
101.508136,58.110975
101.508136,58.541363
101.938525,58.541363
101.938525,58.110975
101.508136,58.110975
100.855118,58.110975
100.871543,58.082837
100.890573,58.047908
100.908705,58.012192
100.925937,57.975695
100.942265,57.938425
100.957688,57.900390
100.972202,57.861595
100.985804,57.822049
100.998494,57.781760
101.010267,57.740733
101.021121,57.698976
101.031054,57.656498
101.040063,57.613303
101.048145,57.569401
101.055298,57.524799
101.061519,57.479502
101.063357,57.461863
101.508136,57.461863
101.508136,57.895780
101.938525,57.895780
101.938525,57.461863
101.508136,57.461863
101.063357,57.461863
101.067641,57.420763
101.071733,57.357651
101.073816,57.291545
101.073911,57.223827
101.072037,57.155877
101.068217,57.089077
101.062469,57.024806
101.054817,56.964447
101.039213,56.874779
101.025970,56.816280
101.508136,56.816280
101.508136,57.246669
101.938525,57.246669
101.938525,56.816280
101.508136,56.816280
101.025970,56.816280
101.019503,56.787713
100.995853,56.703502
100.968430,56.622401
100.937403,56.544663
100.920589,56.507135
100.902937,56.470542
100.884468,56.434917
100.865202,56.400292
100.845161,56.366697
100.824364,56.334165
100.802834,56.302728
100.780591,56.272417
100.757657,56.243264
100.734051,56.215301
100.709795,56.188558
100.688911,56.167169
101.508136,56.167169
101.508136,56.597558
101.938525,56.597558
101.938525,56.167169
101.508136,56.167169
100.688911,56.167169
100.684909,56.163070
100.659416,56.138865
100.633335,56.115978
100.606688,56.094438
100.579496,56.074279
100.551779,56.055531
100.523558,56.038227
100.494855,56.022397
100.465690,56.008075
100.436084,55.995291
100.406058,55.984077
100.386137,55.977476
100.366547,55.971681
100.347222,55.966671
100.328094,55.962426
100.309100,55.958925
100.290171,55.956147
100.271242,55.954073
100.252247,55.952680
100.211678,55.950211
100.210619,55.734311
100.209914,55.518058
101.508136,55.518058
Z" /> 
</g>
<g style="fill:#000000; fill-opacity:1.000000; 
stroke:#000000; stroke-width:0.120000; stroke-opacity:1; 
stroke-linecap:round; stroke-linejoin:round;">
</g>
<g style="fill:#000000; fill-opacity:0.0; 
stroke:#000000; stroke-width:0.120000; stroke-opacity:1; 
stroke-linecap:round; stroke-linejoin:round;">
<path d="M105.596000 44.297800
L105.596000 45.247800
" />
<path d="M105.146000 44.297800
L105.596000 44.297800
" />
<path d="M101.626000 44.297800
L101.176000 44.297800
" />
<path d="M101.176000 44.297800
L101.176000 48.767800
" />
<path d="M105.596000 45.247800
L107.086000 45.247800
" />
<path d="M105.596000 48.767800
L105.596000 47.817800
" />
<path d="M105.146000 48.767800
L105.596000 48.767800
" />
<path d="M101.176000 48.767800
L101.626000 48.767800
" />
<path d="M91.308064 51.961000
L90.853936 51.961000
" />
<path d="M91.308064 50.491000
L90.853936 50.491000
" />
<path d="M109.796000 64.970000
L109.796000 64.020000
" />
<path d="M110.246000 64.970000
L109.796000 64.970000
" />
<path d="M113.766000 64.970000
L114.216000 64.970000
" />
<path d="M114.216000 64.970000
L114.216000 44.250000
" />
<path d="M109.796000 64.020000
L108.306000 64.020000
" />
<path d="M109.796000 44.250000
L109.796000 45.200000
" />
<path d="M110.246000 44.250000
L109.796000 44.250000
" />
<path d="M114.216000 44.250000
L113.766000 44.250000
" />
<g >
</g>
<g >
</g>
<g >
</g>
<g >
</g>
<g >
</g>
<g >
</g>
<g >
</g>
<g >
</g>
<g >
</g>
<g >
</g>
<g >
</g>
<g >
</g>
<g >
</g>
<g >
</g>
<g >
</g>
<g >
</g>
<g >
</g>
<g >
</g>
<g >
</g>
<g >
</g>
<g >
</g>
<g >
</g>
<g >
</g>
<g >
</g>
<g >
</g>
<g >
</g>
<g >
</g>
<g >
</g>
<g >
</g>
<g >
</g>
<g >
</g>
</g> 
</svg>
