M48
; DRILL file {KiCad 7.0.10-7.0.10~ubuntu22.04.1} date Tue 11 Jun 2024 12:22:06 CEST
; FORMAT={-:-/ absolute / metric / decimal}
; #@! TF.CreationDate,2024-06-11T12:22:06+02:00
; #@! TF.GenerationSoftware,Kicad,Pcbnew,7.0.10-7.0.10~ubuntu22.04.1
; #@! TF.FileFunction,Plated,1,6,PTH
FMAT,2
METRIC
; #@! TA.AperFunction,Plated,PTH,ViaDrill
T1C0.300
; #@! TA.AperFunction,Plated,PTH,ViaDrill
T2C0.305
; #@! TA.AperFunction,Plated,PTH,ViaDrill
T3C0.500
; #@! TA.AperFunction,Plated,PTH,ComponentDrill
T4C1.200
; #@! TA.AperFunction,Plated,PTH,ComponentDrill
T5C2.200
%
G90
G05
T1
X130.251Y-53.155
X130.251Y-55.655
X130.251Y-58.155
X130.251Y-60.655
X132.944Y-53.177
X132.944Y-55.677
X132.944Y-58.177
X132.944Y-60.677
T2
X83.972Y-38.405
X85.293Y-74.981
X98.654Y-35.992
X100.242Y-57.628
X100.243Y-56.747
X105.715Y-35.992
X116.078Y-75.895
T3
X79.35Y-71.577
X79.375Y-74.277
X80.948Y-71.577
X80.948Y-74.277
X82.423Y-74.277
X82.499Y-71.596
X86.411Y-74.27
X89.203Y-74.27
X92.053Y-74.27
X106.782Y-74.219
X109.474Y-74.219
X112.166Y-74.219
X120.345Y-58.369
X126.885Y-52.605
X126.885Y-53.877
X126.885Y-55.177
X126.885Y-57.524
X126.885Y-58.774
X126.885Y-60.022
X126.885Y-61.277
T4
X121.92Y-40.894
X121.92Y-72.9
X127.0Y-40.894
X127.0Y-72.9
X132.08Y-40.894
X132.08Y-72.9
T5
X95.0Y-36.0
X95.0Y-78.0
X109.0Y-36.0
X109.0Y-78.0
X123.0Y-47.0
X123.0Y-67.0
M30
