  0
SECTION
  2
HEADER
  9
$ANGBASE
  50
0.0
  9
$ANGDIR
  70
1
  9
$MEASUREMENT
  70
1
  0
ENDSEC
  0
SECTION
  2
TABLES
  0
TABLE
  2
LTYPE
  70
4
  0
LTYPE
  5
40F
  2
CONTINUOUS
  70
0
  3
Solid line
  72
65
  73
0
  40
0.0
  0
LTYPE
  5
410
  2
DASHDOT
 70
0
  3
Dash Dot ____ _ ____ _
 72
65
 73
4
 40
2.0
 49
1.25
 49
-0.25
 49
0.25
 49
-0.25
  0
LTYPE
  5
411
  2
DASHED
 70
0
  3
Dashed __ __ __ __ __
 72
65
 73
2
 40
0.75
 49
0.5
 49
-0.25
  0
LTYPE
  5
43B
  2
DOTTED
 70
0
  3
Dotted .  .  .  .
 72
65
 73
2
 40
0.2
 49
0.0
 49
-0.2
  0
ENDTAB
  0
TABLE
  2
STYLE
  70
4
  0
STYLE
  2
KICAD
  70
0
  40
0
  41
1
  42
1
  50
0
  71
0
  3
isocp.shx
  0
STYLE
  2
KICADB
  70
0
  40
0
  41
1
  42
1
  50
0
  71
0
  3
isocp.shx
  0
STYLE
  2
KICADI
  70
0
  40
0
  41
1
  42
1
  50
15
  71
0
  3
isocp.shx
  0
STYLE
  2
KICADBI
  70
0
  40
0
  41
1
  42
1
  50
15
  71
0
  3
isocp.shx
  0
ENDTAB
  0
TABLE
  2
LAYER
  70
1
  0
LAYER
  2
BLACK
  70
0
  62
7
  6
CONTINUOUS
  0
ENDTAB
  0
ENDSEC
  0
SECTION
  2
ENTITIES
0
LINE
8
BLACK
6
CONTINUOUS
10
134.0357799999999884
20
-30.8781439999999989
11
134.043580999999989
21
-30.8831569999999971
0
LINE
8
BLACK
6
CONTINUOUS
10
134.043580999999989
20
-30.8831569999999971
11
134.052757999999983
21
-30.8844769999999968
0
LINE
8
BLACK
6
CONTINUOUS
10
134.052757999999983
20
-30.8844769999999968
11
134.0732109999999864
21
-30.902199999999997
0
LINE
8
BLACK
6
CONTINUOUS
10
134.0732109999999864
20
-30.902199999999997
11
134.0959799999999973
21
-30.9168329999999969
0
LINE
8
BLACK
6
CONTINUOUS
10
134.0959799999999973
20
-30.9168329999999969
11
134.0998309999999947
21
-30.9252669999999981
0
LINE
8
BLACK
6
CONTINUOUS
10
134.0998309999999947
20
-30.9252669999999981
11
134.1068390000000079
21
-30.9313389999999977
0
LINE
8
BLACK
6
CONTINUOUS
10
134.1068390000000079
20
-30.9313389999999977
11
134.1144639999999981
21
-30.9573070000000001
0
LINE
8
BLACK
6
CONTINUOUS
10
134.1144639999999981
20
-30.9573070000000001
11
134.1257070000000056
21
-30.9819259999999979
0
LINE
8
BLACK
6
CONTINUOUS
10
134.1257070000000056
20
-30.9819259999999979
11
134.1243869999999845
21
-30.9911019999999979
0
LINE
8
BLACK
6
CONTINUOUS
10
134.1243869999999845
20
-30.9911019999999979
11
134.1269999999999811
21
-31.
0
LINE
8
BLACK
6
CONTINUOUS
10
134.1269999999999811
20
-31.
11
134.1269999999999811
21
-83.
0
LINE
8
BLACK
6
CONTINUOUS
10
134.1269999999999811
20
-83.
11
134.1218559999999798
21
-83.0357800000000026
0
LINE
8
BLACK
6
CONTINUOUS
10
134.1218559999999798
20
-83.0357800000000026
11
134.1168419999999912
21
-83.0435810000000032
0
LINE
8
BLACK
6
CONTINUOUS
10
134.1168419999999912
20
-83.0435810000000032
11
134.115522999999996
21
-83.0527579999999972
0
LINE
8
BLACK
6
CONTINUOUS
10
134.115522999999996
20
-83.0527579999999972
11
134.0977989999999807
21
-83.0732110000000006
0
LINE
8
BLACK
6
CONTINUOUS
10
134.0977989999999807
20
-83.0732110000000006
11
134.0831670000000031
21
-83.0959799999999973
0
LINE
8
BLACK
6
CONTINUOUS
10
134.0831670000000031
20
-83.0959799999999973
11
134.0747319999999831
21
-83.0998309999999947
0
LINE
8
BLACK
6
CONTINUOUS
10
134.0747319999999831
20
-83.0998309999999947
11
134.0686609999999916
21
-83.1068389999999937
0
LINE
8
BLACK
6
CONTINUOUS
10
134.0686609999999916
20
-83.1068389999999937
11
134.0426919999999882
21
-83.1144639999999981
0
LINE
8
BLACK
6
CONTINUOUS
10
134.0426919999999882
20
-83.1144639999999981
11
134.0180739999999844
21
-83.1257069999999914
0
LINE
8
BLACK
6
CONTINUOUS
10
134.0180739999999844
20
-83.1257069999999914
11
134.0088969999999904
21
-83.1243869999999987
0
LINE
8
BLACK
6
CONTINUOUS
10
134.0088969999999904
20
-83.1243869999999987
11
134.
21
-83.1269999999999953
0
LINE
8
BLACK
6
CONTINUOUS
10
134.
20
-83.1269999999999953
11
70.
21
-83.1269999999999953
0
LINE
8
BLACK
6
CONTINUOUS
10
70.
20
-83.1269999999999953
11
69.9642199999999974
21
-83.121855999999994
0
LINE
8
BLACK
6
CONTINUOUS
10
69.9642199999999974
20
-83.121855999999994
11
69.9564179999999993
21
-83.1168419999999912
0
LINE
8
BLACK
6
CONTINUOUS
10
69.9564179999999993
20
-83.1168419999999912
11
69.9472420000000028
21
-83.115522999999996
0
LINE
8
BLACK
6
CONTINUOUS
10
69.9472420000000028
20
-83.115522999999996
11
69.9267880000000019
21
-83.0977989999999949
0
LINE
8
BLACK
6
CONTINUOUS
10
69.9267880000000019
20
-83.0977989999999949
11
69.9040200000000027
21
-83.0831670000000031
0
LINE
8
BLACK
6
CONTINUOUS
10
69.9040200000000027
20
-83.0831670000000031
11
69.9001679999999936
21
-83.0747319999999974
0
LINE
8
BLACK
6
CONTINUOUS
10
69.9001679999999936
20
-83.0747319999999974
11
69.8931609999999921
21
-83.0686609999999916
0
LINE
8
BLACK
6
CONTINUOUS
10
69.8931609999999921
20
-83.0686609999999916
11
69.8855349999999902
21
-83.0426920000000024
0
LINE
8
BLACK
6
CONTINUOUS
10
69.8855349999999902
20
-83.0426920000000024
11
69.8742929999999944
21
-83.0180739999999986
0
LINE
8
BLACK
6
CONTINUOUS
10
69.8742929999999944
20
-83.0180739999999986
11
69.8756120000000038
21
-83.0088969999999904
0
LINE
8
BLACK
6
CONTINUOUS
10
69.8756120000000038
20
-83.0088969999999904
11
69.8729999999999905
21
-83.
0
LINE
8
BLACK
6
CONTINUOUS
10
69.8729999999999905
20
-83.
11
69.8729999999999905
21
-31.
0
LINE
8
BLACK
6
CONTINUOUS
10
69.8729999999999905
20
-31.
11
69.8781439999999918
21
-30.9642199999999974
0
LINE
8
BLACK
6
CONTINUOUS
10
69.8781439999999918
20
-30.9642199999999974
11
69.8831569999999971
21
-30.9564179999999993
0
LINE
8
BLACK
6
CONTINUOUS
10
69.8831569999999971
20
-30.9564179999999993
11
69.8844769999999897
21
-30.9472419999999993
0
LINE
8
BLACK
6
CONTINUOUS
10
69.8844769999999897
20
-30.9472419999999993
11
69.9021999999999935
21
-30.9267879999999984
0
LINE
8
BLACK
6
CONTINUOUS
10
69.9021999999999935
20
-30.9267879999999984
11
69.9168329999999969
21
-30.9040199999999992
0
LINE
8
BLACK
6
CONTINUOUS
10
69.9168329999999969
20
-30.9040199999999992
11
69.925266999999991
21
-30.9001679999999972
0
LINE
8
BLACK
6
CONTINUOUS
10
69.925266999999991
20
-30.9001679999999972
11
69.9313389999999941
21
-30.8931609999999992
0
LINE
8
BLACK
6
CONTINUOUS
10
69.9313389999999941
20
-30.8931609999999992
11
69.9573070000000001
21
-30.8855349999999973
0
LINE
8
BLACK
6
CONTINUOUS
10
69.9573070000000001
20
-30.8855349999999973
11
69.9819260000000014
21
-30.874292999999998
0
LINE
8
BLACK
6
CONTINUOUS
10
69.9819260000000014
20
-30.874292999999998
11
69.9911019999999979
21
-30.8756120000000003
0
LINE
8
BLACK
6
CONTINUOUS
10
69.9911019999999979
20
-30.8756120000000003
11
70.
21
-30.8729999999999976
0
LINE
8
BLACK
6
CONTINUOUS
10
70.
20
-30.8729999999999976
11
134.
21
-30.8729999999999976
0
LINE
8
BLACK
6
CONTINUOUS
10
134.
20
-30.8729999999999976
11
134.0357799999999884
21
-30.8781439999999989
0
LINE
8
BLACK
6
CONTINUOUS
10
70.1269999999999953
20
-31.1269999999999989
11
70.1269999999999953
21
-82.8729999999999905
0
LINE
8
BLACK
6
CONTINUOUS
10
70.1269999999999953
20
-82.8729999999999905
11
133.8729999999999905
21
-82.8729999999999905
0
LINE
8
BLACK
6
CONTINUOUS
10
133.8729999999999905
20
-82.8729999999999905
11
133.8729999999999905
21
-31.1269999999999989
0
LINE
8
BLACK
6
CONTINUOUS
10
133.8729999999999905
20
-31.1269999999999989
11
70.1269999999999953
21
-31.1269999999999989
  0
ENDSEC
  0
EOF
