%TF.GenerationSoftware,KiCad,Pcbnew,7.0.10-7.0.10~ubuntu22.04.1*%
%TF.CreationDate,2024-06-11T12:22:07+02:00*%
%TF.ProjectId,PQ_BotBoard,50515f42-6f74-4426-9f61-72642e6b6963,rev?*%
%TF.SameCoordinates,Original*%
%TF.FileFunction,Drillmap*%
%TF.FilePolarity,Positive*%
%FSLAX45Y45*%
G04 Gerber Fmt 4.5, Leading zero omitted, Abs format (unit mm)*
G04 Created by KiCad (PCBNEW 7.0.10-7.0.10~ubuntu22.04.1) date 2024-06-11 12:22:07*
%MOMM*%
%LPD*%
G01*
G04 APERTURE LIST*
%ADD10C,0.254000*%
%ADD11C,0.200000*%
G04 APERTURE END LIST*
D10*
X13400000Y-8300000D02*
X7000000Y-8300000D01*
X13400000Y-3100000D02*
X13400000Y-8300000D01*
X7000000Y-3100000D02*
X13400000Y-3100000D01*
X7000000Y-8300000D02*
X7000000Y-3100000D01*
D11*
X7248077Y-8624184D02*
X7248077Y-8424184D01*
X7248077Y-8424184D02*
X7295696Y-8424184D01*
X7295696Y-8424184D02*
X7324267Y-8433708D01*
X7324267Y-8433708D02*
X7343315Y-8452755D01*
X7343315Y-8452755D02*
X7352839Y-8471803D01*
X7352839Y-8471803D02*
X7362362Y-8509898D01*
X7362362Y-8509898D02*
X7362362Y-8538470D01*
X7362362Y-8538470D02*
X7352839Y-8576565D01*
X7352839Y-8576565D02*
X7343315Y-8595612D01*
X7343315Y-8595612D02*
X7324267Y-8614660D01*
X7324267Y-8614660D02*
X7295696Y-8624184D01*
X7295696Y-8624184D02*
X7248077Y-8624184D01*
X7448077Y-8624184D02*
X7448077Y-8490850D01*
X7448077Y-8528946D02*
X7457601Y-8509898D01*
X7457601Y-8509898D02*
X7467124Y-8500374D01*
X7467124Y-8500374D02*
X7486172Y-8490850D01*
X7486172Y-8490850D02*
X7505220Y-8490850D01*
X7571886Y-8624184D02*
X7571886Y-8490850D01*
X7571886Y-8424184D02*
X7562362Y-8433708D01*
X7562362Y-8433708D02*
X7571886Y-8443231D01*
X7571886Y-8443231D02*
X7581410Y-8433708D01*
X7581410Y-8433708D02*
X7571886Y-8424184D01*
X7571886Y-8424184D02*
X7571886Y-8443231D01*
X7695696Y-8624184D02*
X7676648Y-8614660D01*
X7676648Y-8614660D02*
X7667124Y-8595612D01*
X7667124Y-8595612D02*
X7667124Y-8424184D01*
X7800458Y-8624184D02*
X7781410Y-8614660D01*
X7781410Y-8614660D02*
X7771886Y-8595612D01*
X7771886Y-8595612D02*
X7771886Y-8424184D01*
X8029029Y-8624184D02*
X8029029Y-8424184D01*
X8029029Y-8424184D02*
X8095696Y-8567041D01*
X8095696Y-8567041D02*
X8162362Y-8424184D01*
X8162362Y-8424184D02*
X8162362Y-8624184D01*
X8343315Y-8624184D02*
X8343315Y-8519422D01*
X8343315Y-8519422D02*
X8333791Y-8500374D01*
X8333791Y-8500374D02*
X8314743Y-8490850D01*
X8314743Y-8490850D02*
X8276648Y-8490850D01*
X8276648Y-8490850D02*
X8257601Y-8500374D01*
X8343315Y-8614660D02*
X8324267Y-8624184D01*
X8324267Y-8624184D02*
X8276648Y-8624184D01*
X8276648Y-8624184D02*
X8257601Y-8614660D01*
X8257601Y-8614660D02*
X8248077Y-8595612D01*
X8248077Y-8595612D02*
X8248077Y-8576565D01*
X8248077Y-8576565D02*
X8257601Y-8557517D01*
X8257601Y-8557517D02*
X8276648Y-8547993D01*
X8276648Y-8547993D02*
X8324267Y-8547993D01*
X8324267Y-8547993D02*
X8343315Y-8538470D01*
X8438553Y-8490850D02*
X8438553Y-8690850D01*
X8438553Y-8500374D02*
X8457601Y-8490850D01*
X8457601Y-8490850D02*
X8495696Y-8490850D01*
X8495696Y-8490850D02*
X8514744Y-8500374D01*
X8514744Y-8500374D02*
X8524267Y-8509898D01*
X8524267Y-8509898D02*
X8533791Y-8528946D01*
X8533791Y-8528946D02*
X8533791Y-8586089D01*
X8533791Y-8586089D02*
X8524267Y-8605136D01*
X8524267Y-8605136D02*
X8514744Y-8614660D01*
X8514744Y-8614660D02*
X8495696Y-8624184D01*
X8495696Y-8624184D02*
X8457601Y-8624184D01*
X8457601Y-8624184D02*
X8438553Y-8614660D01*
X8619505Y-8605136D02*
X8629029Y-8614660D01*
X8629029Y-8614660D02*
X8619505Y-8624184D01*
X8619505Y-8624184D02*
X8609982Y-8614660D01*
X8609982Y-8614660D02*
X8619505Y-8605136D01*
X8619505Y-8605136D02*
X8619505Y-8624184D01*
X8619505Y-8500374D02*
X8629029Y-8509898D01*
X8629029Y-8509898D02*
X8619505Y-8519422D01*
X8619505Y-8519422D02*
X8609982Y-8509898D01*
X8609982Y-8509898D02*
X8619505Y-8500374D01*
X8619505Y-8500374D02*
X8619505Y-8519422D01*
M02*
