%TF.GenerationSoftware,KiCad,Pcbnew,7.0.10-7.0.10~ubuntu22.04.1*%
%TF.CreationDate,2024-06-11T12:21:50+02:00*%
%TF.ProjectId,PQ_BotBoard,50515f42-6f74-4426-9f61-72642e6b6963,rev?*%
%TF.SameCoordinates,Original*%
%TF.FileFunction,Copper,L6,Bot*%
%TF.FilePolarity,Positive*%
%FSLAX46Y46*%
G04 Gerber Fmt 4.6, Leading zero omitted, Abs format (unit mm)*
G04 Created by KiCad (PCBNEW 7.0.10-7.0.10~ubuntu22.04.1) date 2024-06-11 12:21:50*
%MOMM*%
%LPD*%
G01*
G04 APERTURE LIST*
G04 Aperture macros list*
%AMRoundRect*
0 Rectangle with rounded corners*
0 $1 Rounding radius*
0 $2 $3 $4 $5 $6 $7 $8 $9 X,Y pos of 4 corners*
0 Add a 4 corners polygon primitive as box body*
4,1,4,$2,$3,$4,$5,$6,$7,$8,$9,$2,$3,0*
0 Add four circle primitives for the rounded corners*
1,1,$1+$1,$2,$3*
1,1,$1+$1,$4,$5*
1,1,$1+$1,$6,$7*
1,1,$1+$1,$8,$9*
0 Add four rect primitives between the rounded corners*
20,1,$1+$1,$2,$3,$4,$5,0*
20,1,$1+$1,$4,$5,$6,$7,0*
20,1,$1+$1,$6,$7,$8,$9,0*
20,1,$1+$1,$8,$9,$2,$3,0*%
G04 Aperture macros list end*
%TA.AperFunction,ComponentPad*%
%ADD10C,4.400000*%
%TD*%
%TA.AperFunction,ComponentPad*%
%ADD11C,1.800000*%
%TD*%
%TA.AperFunction,SMDPad,CuDef*%
%ADD12RoundRect,0.571429X-2.928571X-1.428571X2.928571X-1.428571X2.928571X1.428571X-2.928571X1.428571X0*%
%TD*%
%TA.AperFunction,SMDPad,CuDef*%
%ADD13RoundRect,0.800000X-2.700000X-1.200000X2.700000X-1.200000X2.700000X1.200000X-2.700000X1.200000X0*%
%TD*%
%TA.AperFunction,SMDPad,CuDef*%
%ADD14RoundRect,0.571429X-1.928571X-1.428571X1.928571X-1.428571X1.928571X1.428571X-1.928571X1.428571X0*%
%TD*%
%TA.AperFunction,SMDPad,CuDef*%
%ADD15R,1.000000X1.500000*%
%TD*%
%TA.AperFunction,SMDPad,CuDef*%
%ADD16R,2.000000X2.000000*%
%TD*%
%TA.AperFunction,SMDPad,CuDef*%
%ADD17RoundRect,0.200000X-0.450000X0.200000X-0.450000X-0.200000X0.450000X-0.200000X0.450000X0.200000X0*%
%TD*%
%TA.AperFunction,SMDPad,CuDef*%
%ADD18RoundRect,0.250001X-1.249999X0.799999X-1.249999X-0.799999X1.249999X-0.799999X1.249999X0.799999X0*%
%TD*%
%TA.AperFunction,ViaPad*%
%ADD19C,0.900000*%
%TD*%
%TA.AperFunction,ViaPad*%
%ADD20C,0.600000*%
%TD*%
%TA.AperFunction,ViaPad*%
%ADD21C,0.610000*%
%TD*%
%TA.AperFunction,Conductor*%
%ADD22C,0.254000*%
%TD*%
%TA.AperFunction,Conductor*%
%ADD23C,1.000000*%
%TD*%
%TA.AperFunction,Conductor*%
%ADD24C,0.250000*%
%TD*%
G04 APERTURE END LIST*
D10*
%TO.P,H4,1,1*%
%TO.N,GND*%
X123000000Y-47000000D03*
%TD*%
%TO.P,H1,1,1*%
%TO.N,GND*%
X95000000Y-78000000D03*
%TD*%
%TO.P,H6,1,1*%
%TO.N,GND*%
X95000000Y-36000000D03*
%TD*%
%TO.P,H3,1,1*%
%TO.N,GND*%
X123000000Y-67000000D03*
%TD*%
%TO.P,H2,1,1*%
%TO.N,GND*%
X109000000Y-78000000D03*
%TD*%
%TO.P,H5,1,1*%
%TO.N,GND*%
X109000000Y-36000000D03*
%TD*%
D11*
%TO.P,KS2,1,COM*%
%TO.N,Net-(KS1-NC)*%
X121920000Y-72899600D03*
%TO.P,KS2,2,NO*%
%TO.N,unconnected-(KS2-NO-Pad2)*%
X127000000Y-72899600D03*
%TO.P,KS2,3,NC*%
%TO.N,/KILLSWITCH+*%
X132080000Y-72899600D03*
%TD*%
D12*
%TO.P,SC1,1,-*%
%TO.N,GND*%
X89252800Y-72948800D03*
D13*
X109471200Y-72895200D03*
D14*
%TO.P,SC1,2*%
%TO.N,/SOLAR_Y*%
X80921600Y-72946000D03*
%TD*%
D15*
%TO.P,D1,1*%
%TO.N,/PH+*%
X100228400Y-35991800D03*
D16*
%TO.P,D1,2*%
%TO.N,GND*%
X103713900Y-35991800D03*
%TD*%
D17*
%TO.P,J2,1,Pin_1*%
%TO.N,/VCC_Umbilical*%
X128528000Y-52605000D03*
%TO.P,J2,2,Pin_2*%
%TO.N,/SWDIO*%
X128528000Y-53855000D03*
%TO.P,J2,3,Pin_3*%
%TO.N,/SWCLK*%
X128528000Y-55105000D03*
%TO.P,J2,4,Pin_4*%
%TO.N,/SWO*%
X128528000Y-56355000D03*
%TO.P,J2,5,Pin_5*%
%TO.N,/NRST*%
X128528000Y-57605000D03*
%TO.P,J2,6,Pin_6*%
%TO.N,/BATT+*%
X128528000Y-58855000D03*
%TO.P,J2,7,Pin_7*%
%TO.N,/BATT-*%
X128528000Y-60105000D03*
%TO.P,J2,8,Pin_8*%
%TO.N,GND*%
X128528000Y-61355000D03*
D18*
%TO.P,J2,MP,MountPin*%
X131278000Y-50055000D03*
X131278000Y-63905000D03*
%TD*%
D11*
%TO.P,KS1,1,COM*%
%TO.N,/BATT+*%
X121920000Y-40894000D03*
%TO.P,KS1,2,NO*%
%TO.N,unconnected-(KS1-NO-Pad2)*%
X127000000Y-40894000D03*
%TO.P,KS1,3,NC*%
%TO.N,Net-(KS1-NC)*%
X132080000Y-40894000D03*
%TD*%
D19*
%TO.N,/SWDIO*%
X126884800Y-53876800D03*
%TO.N,/SWCLK*%
X126884800Y-55176800D03*
%TO.N,/NRST*%
X126884800Y-57523680D03*
%TO.N,/KILLSWITCH+*%
X120345200Y-58369200D03*
%TO.N,/BATT-*%
X126884800Y-60022000D03*
%TO.N,/BATT+*%
X126884800Y-58773828D03*
%TO.N,/VCC_Umbilical*%
X126884800Y-52605000D03*
%TO.N,/SOLAR_Y*%
X80947800Y-71577200D03*
X79375000Y-74277200D03*
X82423000Y-74277200D03*
X79349600Y-71577200D03*
X82499200Y-71595600D03*
X80947800Y-74277200D03*
D20*
%TO.N,GND*%
X132943600Y-53176800D03*
X130251200Y-58155200D03*
D19*
X112166400Y-74218800D03*
D20*
X130251200Y-55655200D03*
X132943600Y-60676800D03*
X130251200Y-60655200D03*
X130251200Y-53155200D03*
D19*
X89202800Y-74269600D03*
D20*
X132943600Y-58176800D03*
D19*
X86410800Y-74269600D03*
X92052800Y-74269600D03*
D21*
X105714800Y-35991800D03*
D19*
X106781600Y-74218800D03*
X109474000Y-74218800D03*
D20*
X132943600Y-55676800D03*
D21*
%TO.N,/PH+*%
X98653600Y-35991800D03*
%TO.N,/VCC_MAG*%
X100243000Y-56747000D03*
X116078000Y-75895200D03*
X85293200Y-74980800D03*
X83972400Y-38404800D03*
X100242000Y-57628000D03*
D19*
%TO.N,/SWO*%
X126884800Y-61276800D03*
%TD*%
D22*
%TO.N,/SWDIO*%
X126884800Y-53876800D02*
X128506200Y-53876800D01*
X128506200Y-53876800D02*
X128528000Y-53855000D01*
%TO.N,/SWCLK*%
X126884800Y-55176800D02*
X128456200Y-55176800D01*
X128456200Y-55176800D02*
X128528000Y-55105000D01*
%TO.N,/NRST*%
X126884800Y-57523680D02*
X126896480Y-57512000D01*
X126896480Y-57512000D02*
X128546000Y-57512000D01*
D23*
%TO.N,/KILLSWITCH+*%
X120345200Y-58369200D02*
X132080000Y-70104000D01*
X132080000Y-70104000D02*
X132080000Y-72899600D01*
%TO.N,/BATT-*%
X126884800Y-60022000D02*
X128546000Y-60022000D01*
D22*
%TO.N,/BATT+*%
X126900972Y-58790000D02*
X128546000Y-58790000D01*
X126884800Y-58773828D02*
X126900972Y-58790000D01*
D24*
%TO.N,/VCC_Umbilical*%
X126884800Y-52605000D02*
X128528000Y-52605000D01*
%TO.N,GND*%
X103378400Y-35991800D02*
X105714800Y-35991800D01*
%TO.N,/PH+*%
X100228400Y-35991800D02*
X98653600Y-35991800D01*
%TO.N,/SWO*%
X125600800Y-57480800D02*
X125584800Y-57464800D01*
X126884800Y-61276800D02*
X125584800Y-59976800D01*
X125584800Y-57464800D02*
X126694600Y-56355000D01*
X126694600Y-56355000D02*
X128528000Y-56355000D01*
X125600800Y-59960800D02*
X125600800Y-57480800D01*
X125584800Y-59976800D02*
X125600800Y-59960800D01*
%TD*%
%TA.AperFunction,Conductor*%
%TO.N,GND*%
G36*
X129265477Y-49796485D02*
G01*
X129276044Y-49805000D01*
X133284750Y-49805000D01*
X133331204Y-49779634D01*
X133357562Y-49776800D01*
X133660800Y-49776800D01*
X133727839Y-49796485D01*
X133773594Y-49849289D01*
X133784800Y-49900800D01*
X133784800Y-63952800D01*
X133765115Y-64019839D01*
X133712311Y-64065594D01*
X133660800Y-64076800D01*
X129008800Y-64076800D01*
X128941761Y-64057115D01*
X128896006Y-64004311D01*
X128884800Y-63952800D01*
X128884800Y-63655000D01*
X129278000Y-63655000D01*
X131028000Y-63655000D01*
X131028000Y-62355000D01*
X131528000Y-62355000D01*
X131528000Y-63655000D01*
X133278000Y-63655000D01*
X133278000Y-63055027D01*
X133277999Y-63055014D01*
X133267506Y-62952310D01*
X133267505Y-62952303D01*
X133212358Y-62785881D01*
X133212356Y-62785876D01*
X133120315Y-62636655D01*
X132996344Y-62512684D01*
X132847123Y-62420643D01*
X132847118Y-62420641D01*
X132680696Y-62365494D01*
X132680689Y-62365493D01*
X132577985Y-62355000D01*
X131528000Y-62355000D01*
X131028000Y-62355000D01*
X129978014Y-62355000D01*
X129875310Y-62365493D01*
X129875303Y-62365494D01*
X129708881Y-62420641D01*
X129708876Y-62420643D01*
X129559655Y-62512684D01*
X129435684Y-62636655D01*
X129343643Y-62785876D01*
X129343641Y-62785881D01*
X129288494Y-62952303D01*
X129288493Y-62952310D01*
X129278000Y-63055014D01*
X129278000Y-63655000D01*
X128884800Y-63655000D01*
X128884800Y-62378999D01*
X128904485Y-62311960D01*
X128957289Y-62266205D01*
X129008800Y-62254999D01*
X129034581Y-62254999D01*
X129105102Y-62248591D01*
X129105107Y-62248590D01*
X129267396Y-62198018D01*
X129412877Y-62110072D01*
X129533072Y-61989877D01*
X129621019Y-61844395D01*
X129671590Y-61682106D01*
X129678000Y-61611572D01*
X129678000Y-61605000D01*
X128884800Y-61605000D01*
X128884800Y-61105000D01*
X129677999Y-61105000D01*
X129677999Y-61098417D01*
X129671591Y-61027897D01*
X129671590Y-61027892D01*
X129621018Y-60865603D01*
X129533072Y-60720122D01*
X129528446Y-60714217D01*
X129530733Y-60712424D01*
X129503695Y-60662907D01*
X129508679Y-60593215D01*
X129510300Y-60589096D01*
X129557672Y-60474730D01*
X129563044Y-60461762D01*
X129578500Y-60344361D01*
X129578499Y-59865640D01*
X129578499Y-59865636D01*
X129563046Y-59748246D01*
X129563044Y-59748241D01*
X129563044Y-59748238D01*
X129502536Y-59602159D01*
X129502535Y-59602157D01*
X129466723Y-59555487D01*
X129441528Y-59490318D01*
X129455566Y-59421873D01*
X129466723Y-59404513D01*
X129502535Y-59357842D01*
X129502534Y-59357842D01*
X129502536Y-59357841D01*
X129563044Y-59211762D01*
X129578500Y-59094361D01*
X129578499Y-58615640D01*
X129578499Y-58615636D01*
X129563046Y-58498246D01*
X129563044Y-58498241D01*
X129563044Y-58498238D01*
X129502536Y-58352159D01*
X129502535Y-58352157D01*
X129466723Y-58305487D01*
X129441528Y-58240318D01*
X129455566Y-58171873D01*
X129466723Y-58154513D01*
X129502535Y-58107842D01*
X129502534Y-58107842D01*
X129502536Y-58107841D01*
X129563044Y-57961762D01*
X129578500Y-57844361D01*
X129578499Y-57365640D01*
X129578499Y-57365636D01*
X129563046Y-57248246D01*
X129563044Y-57248241D01*
X129563044Y-57248238D01*
X129502536Y-57102159D01*
X129502535Y-57102157D01*
X129466723Y-57055487D01*
X129441528Y-56990318D01*
X129455566Y-56921873D01*
X129466723Y-56904513D01*
X129502535Y-56857842D01*
X129502534Y-56857842D01*
X129502536Y-56857841D01*
X129563044Y-56711762D01*
X129578500Y-56594361D01*
X129578499Y-56115640D01*
X129578499Y-56115636D01*
X129563046Y-55998246D01*
X129563044Y-55998241D01*
X129563044Y-55998238D01*
X129502536Y-55852159D01*
X129502535Y-55852157D01*
X129466723Y-55805487D01*
X129441528Y-55740318D01*
X129455566Y-55671873D01*
X129466723Y-55654513D01*
X129502535Y-55607842D01*
X129502534Y-55607842D01*
X129502536Y-55607841D01*
X129563044Y-55461762D01*
X129578500Y-55344361D01*
X129578499Y-54865640D01*
X129578499Y-54865636D01*
X129563046Y-54748246D01*
X129563044Y-54748241D01*
X129563044Y-54748238D01*
X129528187Y-54664086D01*
X129502538Y-54602163D01*
X129502535Y-54602157D01*
X129466723Y-54555487D01*
X129441528Y-54490318D01*
X129455566Y-54421873D01*
X129466723Y-54404513D01*
X129466887Y-54404300D01*
X129502536Y-54357841D01*
X129563044Y-54211762D01*
X129578500Y-54094361D01*
X129578499Y-53615640D01*
X129578499Y-53615636D01*
X129563046Y-53498246D01*
X129563044Y-53498241D01*
X129563044Y-53498238D01*
X129531406Y-53421857D01*
X129502538Y-53352163D01*
X129502535Y-53352157D01*
X129466723Y-53305487D01*
X129441528Y-53240318D01*
X129455566Y-53171873D01*
X129466723Y-53154513D01*
X129502535Y-53107842D01*
X129502534Y-53107842D01*
X129502536Y-53107841D01*
X129563044Y-52961762D01*
X129578500Y-52844361D01*
X129578499Y-52365640D01*
X129578499Y-52365636D01*
X129563046Y-52248246D01*
X129563044Y-52248241D01*
X129563044Y-52248238D01*
X129502536Y-52102159D01*
X129406282Y-51976718D01*
X129280841Y-51880464D01*
X129134762Y-51819956D01*
X129134760Y-51819955D01*
X129017370Y-51804501D01*
X129017367Y-51804500D01*
X129017361Y-51804500D01*
X129017354Y-51804500D01*
X129008800Y-51804500D01*
X128941761Y-51784815D01*
X128896006Y-51732011D01*
X128884800Y-51680500D01*
X128884800Y-50305000D01*
X129278000Y-50305000D01*
X129278000Y-50904985D01*
X129288493Y-51007689D01*
X129288494Y-51007696D01*
X129343641Y-51174118D01*
X129343643Y-51174123D01*
X129435684Y-51323344D01*
X129559655Y-51447315D01*
X129708876Y-51539356D01*
X129708881Y-51539358D01*
X129875303Y-51594505D01*
X129875310Y-51594506D01*
X129978014Y-51604999D01*
X129978027Y-51605000D01*
X131028000Y-51605000D01*
X131028000Y-50305000D01*
X131528000Y-50305000D01*
X131528000Y-51605000D01*
X132577973Y-51605000D01*
X132577985Y-51604999D01*
X132680689Y-51594506D01*
X132680696Y-51594505D01*
X132847118Y-51539358D01*
X132847123Y-51539356D01*
X132996344Y-51447315D01*
X133120315Y-51323344D01*
X133212356Y-51174123D01*
X133212358Y-51174118D01*
X133267505Y-51007696D01*
X133267506Y-51007689D01*
X133277999Y-50904985D01*
X133278000Y-50904972D01*
X133278000Y-50305000D01*
X131528000Y-50305000D01*
X131028000Y-50305000D01*
X129278000Y-50305000D01*
X128884800Y-50305000D01*
X128884800Y-49900800D01*
X128904485Y-49833761D01*
X128957289Y-49788006D01*
X129008800Y-49776800D01*
X129198438Y-49776800D01*
X129265477Y-49796485D01*
G37*
%TD.AperFunction*%
%TD*%
M02*
