%TF.GenerationSoftware,KiCad,Pcbnew,7.0.10-7.0.10~ubuntu22.04.1*%
%TF.CreationDate,2024-06-11T12:21:50+02:00*%
%TF.ProjectId,PQ_BotBoard,50515f42-6f74-4426-9f61-72642e6b6963,rev?*%
%TF.SameCoordinates,Original*%
%TF.FileFunction,Copper,L1,Top*%
%TF.FilePolarity,Positive*%
%FSLAX46Y46*%
G04 Gerber Fmt 4.6, Leading zero omitted, Abs format (unit mm)*
G04 Created by KiCad (PCBNEW 7.0.10-7.0.10~ubuntu22.04.1) date 2024-06-11 12:21:50*
%MOMM*%
%LPD*%
G01*
G04 APERTURE LIST*
G04 Aperture macros list*
%AMRoundRect*
0 Rectangle with rounded corners*
0 $1 Rounding radius*
0 $2 $3 $4 $5 $6 $7 $8 $9 X,Y pos of 4 corners*
0 Add a 4 corners polygon primitive as box body*
4,1,4,$2,$3,$4,$5,$6,$7,$8,$9,$2,$3,0*
0 Add four circle primitives for the rounded corners*
1,1,$1+$1,$2,$3*
1,1,$1+$1,$4,$5*
1,1,$1+$1,$6,$7*
1,1,$1+$1,$8,$9*
0 Add four rect primitives between the rounded corners*
20,1,$1+$1,$2,$3,$4,$5,0*
20,1,$1+$1,$4,$5,$6,$7,0*
20,1,$1+$1,$6,$7,$8,$9,0*
20,1,$1+$1,$8,$9,$2,$3,0*%
G04 Aperture macros list end*
%TA.AperFunction,ComponentPad*%
%ADD10C,4.400000*%
%TD*%
%TA.AperFunction,SMDPad,CuDef*%
%ADD11RoundRect,0.250000X0.262500X0.450000X-0.262500X0.450000X-0.262500X-0.450000X0.262500X-0.450000X0*%
%TD*%
%TA.AperFunction,SMDPad,CuDef*%
%ADD12RoundRect,0.147500X0.172500X-0.147500X0.172500X0.147500X-0.172500X0.147500X-0.172500X-0.147500X0*%
%TD*%
%TA.AperFunction,SMDPad,CuDef*%
%ADD13R,1.550000X0.700000*%
%TD*%
%TA.AperFunction,SMDPad,CuDef*%
%ADD14RoundRect,0.250000X-0.262500X-0.450000X0.262500X-0.450000X0.262500X0.450000X-0.262500X0.450000X0*%
%TD*%
%TA.AperFunction,SMDPad,CuDef*%
%ADD15RoundRect,0.225000X-0.225000X-0.250000X0.225000X-0.250000X0.225000X0.250000X-0.225000X0.250000X0*%
%TD*%
%TA.AperFunction,SMDPad,CuDef*%
%ADD16RoundRect,0.200000X-0.600000X0.200000X-0.600000X-0.200000X0.600000X-0.200000X0.600000X0.200000X0*%
%TD*%
%TA.AperFunction,SMDPad,CuDef*%
%ADD17RoundRect,0.250001X-1.249999X0.799999X-1.249999X-0.799999X1.249999X-0.799999X1.249999X0.799999X0*%
%TD*%
%TA.AperFunction,SMDPad,CuDef*%
%ADD18RoundRect,0.200000X0.600000X-0.200000X0.600000X0.200000X-0.600000X0.200000X-0.600000X-0.200000X0*%
%TD*%
%TA.AperFunction,SMDPad,CuDef*%
%ADD19RoundRect,0.250001X1.249999X-0.799999X1.249999X0.799999X-1.249999X0.799999X-1.249999X-0.799999X0*%
%TD*%
%TA.AperFunction,ComponentPad*%
%ADD20C,1.800000*%
%TD*%
%TA.AperFunction,ViaPad*%
%ADD21C,0.900000*%
%TD*%
%TA.AperFunction,ViaPad*%
%ADD22C,0.600000*%
%TD*%
%TA.AperFunction,ViaPad*%
%ADD23C,0.610000*%
%TD*%
%TA.AperFunction,Conductor*%
%ADD24C,0.254000*%
%TD*%
%TA.AperFunction,Conductor*%
%ADD25C,0.250000*%
%TD*%
%TA.AperFunction,Conductor*%
%ADD26C,1.000000*%
%TD*%
%TA.AperFunction,Conductor*%
%ADD27C,0.600000*%
%TD*%
G04 APERTURE END LIST*
D10*
%TO.P,H4,1,1*%
%TO.N,GND*%
X123000000Y-47000000D03*
%TD*%
D11*
%TO.P,VA1,1*%
%TO.N,Net-(IC1-A1)*%
X91993500Y-53577000D03*
%TO.P,VA1,2*%
%TO.N,/VCC*%
X90168500Y-53577000D03*
%TD*%
D12*
%TO.P,D2,1,K*%
%TO.N,/MAG-Y*%
X88950800Y-44708700D03*
%TO.P,D2,2,A*%
%TO.N,/VCC_MAG*%
X88950800Y-43738700D03*
%TD*%
D13*
%TO.P,IC1,1,SDA*%
%TO.N,/SDA*%
X96613000Y-62688000D03*
%TO.P,IC1,2,SCL*%
%TO.N,/SCL*%
X96613000Y-61418000D03*
%TO.P,IC1,3,ALERT*%
%TO.N,GND*%
X96613000Y-60148000D03*
%TO.P,IC1,4,GND*%
X96613000Y-58878000D03*
%TO.P,IC1,5,A2*%
%TO.N,Net-(IC1-A2)*%
X91213000Y-58878000D03*
%TO.P,IC1,6,A1*%
%TO.N,Net-(IC1-A1)*%
X91213000Y-60148000D03*
%TO.P,IC1,7,A0*%
%TO.N,Net-(IC1-A0)*%
X91213000Y-61418000D03*
%TO.P,IC1,8,VDD*%
%TO.N,/VCC*%
X91213000Y-62688000D03*
%TD*%
D14*
%TO.P,GA2,1*%
%TO.N,Net-(IC1-A2)*%
X95469500Y-51276000D03*
%TO.P,GA2,2*%
%TO.N,GND*%
X97294500Y-51276000D03*
%TD*%
%TO.P,GA0,1*%
%TO.N,Net-(IC1-A0)*%
X95469500Y-56028000D03*
%TO.P,GA0,2*%
%TO.N,GND*%
X97294500Y-56028000D03*
%TD*%
D10*
%TO.P,H1,1,1*%
%TO.N,GND*%
X95000000Y-78000000D03*
%TD*%
D11*
%TO.P,VA0,1*%
%TO.N,Net-(IC1-A0)*%
X91993500Y-55928000D03*
%TO.P,VA0,2*%
%TO.N,/VCC*%
X90168500Y-55928000D03*
%TD*%
D10*
%TO.P,H6,1,1*%
%TO.N,GND*%
X95000000Y-36000000D03*
%TD*%
D14*
%TO.P,GA1,1*%
%TO.N,Net-(IC1-A1)*%
X95469500Y-53627000D03*
%TO.P,GA1,2*%
%TO.N,GND*%
X97294500Y-53627000D03*
%TD*%
D15*
%TO.P,C1,1*%
%TO.N,/VCC*%
X91385000Y-64389000D03*
%TO.P,C1,2*%
%TO.N,GND*%
X92935000Y-64389000D03*
%TD*%
D10*
%TO.P,H3,1,1*%
%TO.N,GND*%
X123000000Y-67000000D03*
%TD*%
%TO.P,H2,1,1*%
%TO.N,GND*%
X109000000Y-78000000D03*
%TD*%
D16*
%TO.P,J3,1,Pin_1*%
%TO.N,/BATT+*%
X106286000Y-45907800D03*
%TO.P,J3,2,Pin_2*%
%TO.N,/BATT-*%
X106286000Y-47157800D03*
D17*
%TO.P,J3,MP,MountPin*%
%TO.N,GND*%
X103386000Y-43357800D03*
X103386000Y-49707800D03*
%TD*%
D10*
%TO.P,H5,1,1*%
%TO.N,GND*%
X109000000Y-36000000D03*
%TD*%
D11*
%TO.P,VA2,1*%
%TO.N,Net-(IC1-A2)*%
X91993500Y-51226000D03*
%TO.P,VA2,2*%
%TO.N,/VCC*%
X90168500Y-51226000D03*
%TD*%
D18*
%TO.P,J1,1,Pin_1*%
%TO.N,/SOLAR_Y*%
X109106000Y-63360000D03*
%TO.P,J1,2,Pin_2*%
%TO.N,/MAG-Y*%
X109106000Y-62110000D03*
%TO.P,J1,3,Pin_3*%
%TO.N,/VCC_MAG*%
X109106000Y-60860000D03*
%TO.P,J1,4,Pin_4*%
%TO.N,/VCC*%
X109106000Y-59610000D03*
%TO.P,J1,5,Pin_5*%
%TO.N,/SDA*%
X109106000Y-58360000D03*
%TO.P,J1,6,Pin_6*%
%TO.N,/SCL*%
X109106000Y-57110000D03*
%TO.P,J1,7,Pin_7*%
%TO.N,GND*%
X109106000Y-55860000D03*
%TO.P,J1,8,Pin_8*%
%TO.N,/PH+*%
X109106000Y-54610000D03*
%TO.P,J1,9,Pin_9*%
%TO.N,/SWO*%
X109106000Y-53360000D03*
%TO.P,J1,10,Pin_10*%
%TO.N,/BATT-*%
X109106000Y-52110000D03*
%TO.P,J1,11,Pin_11*%
%TO.N,/KILLSWITCH+*%
X109106000Y-50860000D03*
%TO.P,J1,12,Pin_12*%
%TO.N,/NRST*%
X109106000Y-49610000D03*
%TO.P,J1,13,Pin_13*%
%TO.N,/SWCLK*%
X109106000Y-48360000D03*
%TO.P,J1,14,Pin_14*%
%TO.N,/SWDIO*%
X109106000Y-47110000D03*
%TO.P,J1,15,Pin_15*%
%TO.N,/VCC_Umbilical*%
X109106000Y-45860000D03*
D19*
%TO.P,J1,MP,MountPin*%
%TO.N,GND*%
X112006000Y-65910000D03*
X112006000Y-43310000D03*
%TD*%
D20*
%TO.P,KS2,1,COM*%
%TO.N,Net-(KS1-NC)*%
X121920000Y-72899600D03*
%TO.P,KS2,2,NO*%
%TO.N,unconnected-(KS2-NO-Pad2)*%
X127000000Y-72899600D03*
%TO.P,KS2,3,NC*%
%TO.N,/KILLSWITCH+*%
X132080000Y-72899600D03*
%TD*%
%TO.P,KS1,1,COM*%
%TO.N,/BATT+*%
X121920000Y-40894000D03*
%TO.P,KS1,2,NO*%
%TO.N,unconnected-(KS1-NO-Pad2)*%
X127000000Y-40894000D03*
%TO.P,KS1,3,NC*%
%TO.N,Net-(KS1-NC)*%
X132080000Y-40894000D03*
%TD*%
D21*
%TO.N,/SWDIO*%
X126884800Y-53876800D03*
%TO.N,/SWCLK*%
X126884800Y-55176800D03*
%TO.N,/NRST*%
X126884800Y-57523680D03*
%TO.N,/KILLSWITCH+*%
X120345200Y-58369200D03*
%TO.N,/BATT-*%
X126884800Y-60022000D03*
%TO.N,/BATT+*%
X126884800Y-58773828D03*
%TO.N,/VCC_Umbilical*%
X126884800Y-52605000D03*
%TO.N,/SOLAR_Y*%
X80947800Y-71577200D03*
X79375000Y-74277200D03*
X82423000Y-74277200D03*
X79349600Y-71577200D03*
X82499200Y-71595600D03*
X80947800Y-74277200D03*
D22*
%TO.N,GND*%
X132943600Y-53176800D03*
X130251200Y-58155200D03*
D21*
X112166400Y-74218800D03*
D22*
X130251200Y-55655200D03*
X132943600Y-60676800D03*
X130251200Y-60655200D03*
X130251200Y-53155200D03*
D21*
X89202800Y-74269600D03*
D22*
X132943600Y-58176800D03*
D21*
X86410800Y-74269600D03*
X92052800Y-74269600D03*
D23*
X105714800Y-35991800D03*
D21*
X106781600Y-74218800D03*
X109474000Y-74218800D03*
D22*
X132943600Y-55676800D03*
D23*
%TO.N,/PH+*%
X98653600Y-35991800D03*
%TO.N,/VCC_MAG*%
X100243000Y-56747000D03*
X116078000Y-75895200D03*
X85293200Y-74980800D03*
X83972400Y-38404800D03*
X100242000Y-57628000D03*
D21*
%TO.N,/SWO*%
X126884800Y-61276800D03*
%TD*%
D24*
%TO.N,/SDA*%
X104593000Y-58348000D02*
X109116000Y-58348000D01*
X96363000Y-62738000D02*
X100203000Y-62738000D01*
X100203000Y-62738000D02*
X104593000Y-58348000D01*
%TO.N,/SCL*%
X103811000Y-57098000D02*
X109116000Y-57098000D01*
X99441000Y-61468000D02*
X103811000Y-57098000D01*
X96363000Y-61468000D02*
X99441000Y-61468000D01*
D25*
%TO.N,/VCC*%
X88250800Y-57558800D02*
X89881600Y-55928000D01*
X91385000Y-65343000D02*
X91385000Y-64389000D01*
X105199600Y-59610000D02*
X98750800Y-66058800D01*
X88250800Y-62058800D02*
X88250800Y-57558800D01*
X91385000Y-64389000D02*
X90581000Y-64389000D01*
X89881600Y-55928000D02*
X90168500Y-55928000D01*
X90581000Y-64389000D02*
X88250800Y-62058800D01*
X91385000Y-64389000D02*
X91385000Y-62810000D01*
D24*
X90114000Y-51226000D02*
X90114000Y-55928000D01*
D25*
X109106000Y-59610000D02*
X105199600Y-59610000D01*
X98750800Y-66058800D02*
X92100800Y-66058800D01*
X92100800Y-66058800D02*
X91385000Y-65343000D01*
D24*
%TO.N,/SWDIO*%
X115131200Y-47110000D02*
X109106000Y-47110000D01*
X121898000Y-53876800D02*
X115131200Y-47110000D01*
X122814000Y-53876800D02*
X121898000Y-53876800D01*
X126884800Y-53876800D02*
X122814000Y-53876800D01*
%TO.N,/SWCLK*%
X114349200Y-48360000D02*
X109106000Y-48360000D01*
X122082000Y-55176800D02*
X121166000Y-55176800D01*
X121166000Y-55176800D02*
X114349200Y-48360000D01*
X126884800Y-55176800D02*
X122082000Y-55176800D01*
%TO.N,/NRST*%
X126884800Y-57523680D02*
X126883480Y-57525000D01*
X121583800Y-57525000D02*
X113668800Y-49610000D01*
X122499800Y-57525000D02*
X121583800Y-57525000D01*
X126883480Y-57525000D02*
X122499800Y-57525000D01*
X113668800Y-49610000D02*
X109106000Y-49610000D01*
D26*
%TO.N,/KILLSWITCH+*%
X112836000Y-50860000D02*
X109106000Y-50860000D01*
X120345200Y-58369200D02*
X112836000Y-50860000D01*
%TO.N,/BATT-*%
X119305600Y-60022000D02*
X126884800Y-60022000D01*
X111393600Y-52110000D02*
X119305600Y-60022000D01*
X106286000Y-47623600D02*
X106300800Y-47608800D01*
X111393600Y-52110000D02*
X109106000Y-52110000D01*
X107482000Y-52110000D02*
X106286000Y-50914000D01*
X109106000Y-52110000D02*
X107482000Y-52110000D01*
X106286000Y-50914000D02*
X106286000Y-47623600D01*
D25*
%TO.N,/MAG-Y*%
X99200800Y-66808800D02*
X91650800Y-66808800D01*
X87450800Y-62608800D02*
X87450800Y-57158800D01*
X91650800Y-66808800D02*
X87450800Y-62608800D01*
X103899600Y-62110000D02*
X99200800Y-66808800D01*
X88950800Y-55658800D02*
X88950800Y-44708700D01*
X87450800Y-57158800D02*
X88950800Y-55658800D01*
X109106000Y-62110000D02*
X103899600Y-62110000D01*
D26*
%TO.N,/BATT+*%
X128384800Y-58276800D02*
X128384800Y-46224800D01*
X108215600Y-40894000D02*
X121920000Y-40894000D01*
X123086000Y-40894000D02*
X121920000Y-40894000D01*
X128400800Y-46208800D02*
X123086000Y-40894000D01*
X106286000Y-45508800D02*
X106286000Y-42823600D01*
X106286000Y-42823600D02*
X108215600Y-40894000D01*
X127887772Y-58773828D02*
X128384800Y-58276800D01*
X128384800Y-46224800D02*
X128400800Y-46208800D01*
X126884800Y-58773828D02*
X127887772Y-58773828D01*
%TO.N,/VCC_Umbilical*%
X126884800Y-52605000D02*
X126878600Y-52611200D01*
X123478800Y-52611200D02*
X122562800Y-52611200D01*
X122562800Y-52611200D02*
X115811600Y-45860000D01*
X115811600Y-45860000D02*
X109106000Y-45860000D01*
X126878600Y-52611200D02*
X123478800Y-52611200D01*
D27*
%TO.N,/SOLAR_Y*%
X109106000Y-63360000D02*
X104449600Y-63360000D01*
X99800800Y-68008800D02*
X83121200Y-68008800D01*
X104449600Y-63360000D02*
X99800800Y-68008800D01*
X83121200Y-68008800D02*
X80947800Y-70182200D01*
X80947800Y-70182200D02*
X80947800Y-71577200D01*
D24*
%TO.N,GND*%
X97348000Y-53627000D02*
X97348000Y-56028000D01*
X97348000Y-51277000D02*
X97348000Y-53627000D01*
%TO.N,/PH+*%
X104101600Y-54597000D02*
X98653600Y-49149000D01*
X109115000Y-54597000D02*
X104101600Y-54597000D01*
X98653600Y-49149000D02*
X98653600Y-35991800D01*
%TO.N,Net-(IC1-A0)*%
X88988000Y-60427000D02*
X88988000Y-58127000D01*
X92047000Y-56797000D02*
X92047000Y-55928000D01*
X91694000Y-57150000D02*
X92047000Y-56797000D01*
X89923000Y-61362000D02*
X88988000Y-60427000D01*
D25*
X91313000Y-61468000D02*
X92747000Y-61468000D01*
X90029000Y-61468000D02*
X89923000Y-61362000D01*
X91313000Y-61468000D02*
X90029000Y-61468000D01*
D24*
X95417000Y-57389400D02*
X94945200Y-57861200D01*
X88988000Y-58127000D02*
X89965000Y-57150000D01*
X89965000Y-57150000D02*
X91694000Y-57150000D01*
X94945200Y-57861200D02*
X94945200Y-59269800D01*
X94945200Y-59269800D02*
X92853000Y-61362000D01*
D25*
X92747000Y-61468000D02*
X92853000Y-61362000D01*
D24*
X95417000Y-56027000D02*
X95417000Y-57389400D01*
D25*
%TO.N,Net-(IC1-A1)*%
X92800000Y-60198000D02*
X93123000Y-59875000D01*
D24*
X93123000Y-59875000D02*
X94231000Y-58767000D01*
X92645948Y-57827000D02*
X93131000Y-57341948D01*
D25*
X90359000Y-60198000D02*
X90253000Y-60092000D01*
X91513000Y-60198000D02*
X92800000Y-60198000D01*
D24*
X94231000Y-58767000D02*
X94231000Y-54811000D01*
X90288000Y-57827000D02*
X92645948Y-57827000D01*
X93131000Y-57341948D02*
X93131000Y-54661000D01*
X94231000Y-54811000D02*
X95417000Y-53627000D01*
X89688000Y-58427000D02*
X90288000Y-57827000D01*
X89688000Y-59527000D02*
X89688000Y-58427000D01*
X90253000Y-60092000D02*
X89688000Y-59527000D01*
D25*
X91313000Y-60198000D02*
X90359000Y-60198000D01*
D24*
X93131000Y-54661000D02*
X92046000Y-53576000D01*
D25*
%TO.N,Net-(IC1-A2)*%
X91313000Y-58928000D02*
X92787000Y-58928000D01*
D24*
X95422000Y-51277000D02*
X93632000Y-53061000D01*
X93632000Y-58083000D02*
X92893000Y-58822000D01*
X93632000Y-53061000D02*
X93632000Y-58083000D01*
D25*
X92787000Y-58928000D02*
X92893000Y-58822000D01*
D24*
X93632000Y-53261000D02*
X93632000Y-52276000D01*
X93632000Y-52276000D02*
X92582000Y-51226000D01*
X92582000Y-51226000D02*
X92047000Y-51226000D01*
D25*
%TO.N,/VCC_MAG*%
X105050800Y-64458800D02*
X109900800Y-64458800D01*
X110650800Y-61458800D02*
X110052000Y-60860000D01*
X85300800Y-70658800D02*
X86700800Y-69258800D01*
X88950800Y-43738700D02*
X88950800Y-43383200D01*
X110052000Y-60860000D02*
X109106000Y-60860000D01*
X88950800Y-43383200D02*
X83972400Y-38404800D01*
X109900800Y-64458800D02*
X110650800Y-63708800D01*
X110650800Y-63708800D02*
X110650800Y-61458800D01*
X100250800Y-69258800D02*
X105050800Y-64458800D01*
X86700800Y-69258800D02*
X100250800Y-69258800D01*
X85300800Y-74973200D02*
X85300800Y-70658800D01*
X85293200Y-74980800D02*
X85300800Y-74973200D01*
D26*
%TO.N,Net-(KS1-NC)*%
X131572000Y-41402000D02*
X132080000Y-40894000D01*
X123594800Y-72899600D02*
X121920000Y-72899600D01*
X130400800Y-66093600D02*
X123594800Y-72899600D01*
X131572000Y-64890400D02*
X131572000Y-41402000D01*
X130384800Y-66077600D02*
X131572000Y-64890400D01*
D25*
%TO.N,/SWO*%
X118579200Y-61276800D02*
X110662400Y-53360000D01*
X110662400Y-53360000D02*
X109106000Y-53360000D01*
X126884800Y-61276800D02*
X118579200Y-61276800D01*
%TD*%
%TA.AperFunction,Conductor*%
%TO.N,GND*%
G36*
X110271405Y-41707502D02*
G01*
X110317898Y-41761158D01*
X110328002Y-41831432D01*
X110298508Y-41896012D01*
X110287261Y-41906764D01*
X110157371Y-42036654D01*
X110157366Y-42036660D01*
X110064342Y-42187474D01*
X110008606Y-42355678D01*
X110008605Y-42355681D01*
X109998000Y-42459484D01*
X109998000Y-42810000D01*
X114013999Y-42810000D01*
X114013999Y-42459492D01*
X114003394Y-42355681D01*
X113947657Y-42187474D01*
X113854633Y-42036660D01*
X113854628Y-42036654D01*
X113724150Y-41906176D01*
X113725352Y-41904973D01*
X113689538Y-41854397D01*
X113686346Y-41783472D01*
X113722007Y-41722081D01*
X113785196Y-41689715D01*
X113808716Y-41687500D01*
X120970044Y-41687500D01*
X121038165Y-41707502D01*
X121054928Y-41720383D01*
X121107024Y-41767875D01*
X121197674Y-41850514D01*
X121197675Y-41850515D01*
X121385722Y-41966949D01*
X121385729Y-41966952D01*
X121385732Y-41966954D01*
X121385736Y-41966955D01*
X121385737Y-41966956D01*
X121591979Y-42046855D01*
X121591984Y-42046857D01*
X121809406Y-42087500D01*
X121809408Y-42087500D01*
X122030592Y-42087500D01*
X122030594Y-42087500D01*
X122248016Y-42046857D01*
X122454268Y-41966954D01*
X122454273Y-41966950D01*
X122454277Y-41966949D01*
X122642318Y-41850519D01*
X122642324Y-41850515D01*
X122642323Y-41850515D01*
X122642326Y-41850514D01*
X122698850Y-41798984D01*
X122762663Y-41767875D01*
X122833169Y-41776204D01*
X122872828Y-41803006D01*
X127554395Y-46484573D01*
X127588421Y-46546885D01*
X127591300Y-46573668D01*
X127591300Y-51891848D01*
X127571298Y-51959969D01*
X127517642Y-52006462D01*
X127447368Y-52016566D01*
X127386741Y-51990359D01*
X127309639Y-51928873D01*
X127148535Y-51851289D01*
X126974207Y-51811500D01*
X126974206Y-51811500D01*
X126795394Y-51811500D01*
X126782070Y-51814541D01*
X126754034Y-51817700D01*
X122943669Y-51817700D01*
X122875548Y-51797698D01*
X122854574Y-51780795D01*
X118073779Y-47000001D01*
X120287050Y-47000001D01*
X120306829Y-47327007D01*
X120306830Y-47327010D01*
X120365880Y-47649238D01*
X120365882Y-47649247D01*
X120463348Y-47962024D01*
X120597803Y-48260772D01*
X120761436Y-48531455D01*
X120761437Y-48531455D01*
X121951028Y-47341864D01*
X121955770Y-47361411D01*
X122043038Y-47552502D01*
X122164894Y-47723624D01*
X122316932Y-47868592D01*
X122493658Y-47982167D01*
X122658818Y-48048287D01*
X121468543Y-49238561D01*
X121468543Y-49238562D01*
X121739223Y-49402195D01*
X122037975Y-49536651D01*
X122350752Y-49634117D01*
X122350761Y-49634119D01*
X122672989Y-49693169D01*
X122672992Y-49693170D01*
X122999999Y-49712950D01*
X123000001Y-49712950D01*
X123327007Y-49693170D01*
X123327010Y-49693169D01*
X123649238Y-49634119D01*
X123649247Y-49634117D01*
X123962024Y-49536651D01*
X124260776Y-49402195D01*
X124531455Y-49238561D01*
X123339613Y-48046719D01*
X123410689Y-48025850D01*
X123597410Y-47929589D01*
X123762540Y-47799729D01*
X123900110Y-47640965D01*
X124005147Y-47459035D01*
X124046541Y-47339435D01*
X125238561Y-48531455D01*
X125402195Y-48260776D01*
X125536651Y-47962024D01*
X125634117Y-47649247D01*
X125634119Y-47649238D01*
X125693169Y-47327010D01*
X125693170Y-47327007D01*
X125712950Y-47000001D01*
X125712950Y-46999998D01*
X125693170Y-46672992D01*
X125693169Y-46672989D01*
X125634119Y-46350761D01*
X125634117Y-46350752D01*
X125536651Y-46037975D01*
X125402195Y-45739223D01*
X125238562Y-45468543D01*
X125238561Y-45468543D01*
X124048971Y-46658133D01*
X124044230Y-46638589D01*
X123956962Y-46447498D01*
X123835106Y-46276376D01*
X123683068Y-46131408D01*
X123506342Y-46017833D01*
X123341181Y-45951712D01*
X124531455Y-44761437D01*
X124531455Y-44761436D01*
X124260772Y-44597803D01*
X123962024Y-44463348D01*
X123649247Y-44365882D01*
X123649238Y-44365880D01*
X123327010Y-44306830D01*
X123327007Y-44306829D01*
X123000001Y-44287050D01*
X122999999Y-44287050D01*
X122672992Y-44306829D01*
X122672989Y-44306830D01*
X122350761Y-44365880D01*
X122350752Y-44365882D01*
X122037975Y-44463348D01*
X121739227Y-44597803D01*
X121468544Y-44761436D01*
X121468543Y-44761437D01*
X122660386Y-45953280D01*
X122589311Y-45974150D01*
X122402590Y-46070411D01*
X122237460Y-46200271D01*
X122099890Y-46359035D01*
X121994853Y-46540965D01*
X121953458Y-46660564D01*
X120761437Y-45468543D01*
X120761436Y-45468544D01*
X120597803Y-45739227D01*
X120463348Y-46037975D01*
X120365882Y-46350752D01*
X120365880Y-46350761D01*
X120306830Y-46672989D01*
X120306829Y-46672992D01*
X120287050Y-46999998D01*
X120287050Y-47000001D01*
X118073779Y-47000001D01*
X116443097Y-45369319D01*
X116443085Y-45369305D01*
X116309471Y-45235691D01*
X116277479Y-45215589D01*
X116265965Y-45207420D01*
X116242748Y-45188905D01*
X116236437Y-45183872D01*
X116202414Y-45167487D01*
X116190053Y-45160655D01*
X116158065Y-45140557D01*
X116158066Y-45140557D01*
X116122414Y-45128082D01*
X116109361Y-45122675D01*
X116075338Y-45106290D01*
X116075329Y-45106287D01*
X116038507Y-45097882D01*
X116024935Y-45093972D01*
X115989294Y-45081501D01*
X115989286Y-45081499D01*
X115951755Y-45077270D01*
X115937827Y-45074904D01*
X115901007Y-45066500D01*
X115901006Y-45066500D01*
X115856162Y-45066500D01*
X113560102Y-45066500D01*
X113491981Y-45046498D01*
X113445488Y-44992842D01*
X113435384Y-44922568D01*
X113464878Y-44857988D01*
X113520469Y-44820895D01*
X113578525Y-44801657D01*
X113729339Y-44708633D01*
X113729345Y-44708628D01*
X113854628Y-44583345D01*
X113854633Y-44583339D01*
X113947657Y-44432525D01*
X114003393Y-44264321D01*
X114003394Y-44264318D01*
X114013999Y-44160515D01*
X114014000Y-44160515D01*
X114014000Y-43810000D01*
X109998001Y-43810000D01*
X109998001Y-44160507D01*
X110008605Y-44264318D01*
X110064342Y-44432525D01*
X110157366Y-44583339D01*
X110157371Y-44583345D01*
X110282654Y-44708628D01*
X110282660Y-44708633D01*
X110433474Y-44801657D01*
X110491531Y-44820895D01*
X110549902Y-44861309D01*
X110577158Y-44926866D01*
X110564645Y-44996751D01*
X110516335Y-45048777D01*
X110451898Y-45066500D01*
X109061438Y-45066500D01*
X108928311Y-45081500D01*
X108759535Y-45140556D01*
X108748976Y-45147191D01*
X108681946Y-45166500D01*
X108458803Y-45166500D01*
X108458779Y-45166502D01*
X108400023Y-45172818D01*
X108400020Y-45172818D01*
X108400020Y-45172819D01*
X108333539Y-45197615D01*
X108267055Y-45222412D01*
X108267054Y-45222412D01*
X108153453Y-45307453D01*
X108068412Y-45421054D01*
X108068412Y-45421055D01*
X108018819Y-45554019D01*
X108012500Y-45612787D01*
X108012500Y-46107196D01*
X108012502Y-46107220D01*
X108018818Y-46165976D01*
X108018818Y-46165978D01*
X108018819Y-46165980D01*
X108068411Y-46298942D01*
X108068412Y-46298944D01*
X108068413Y-46298945D01*
X108151166Y-46409491D01*
X108175977Y-46476011D01*
X108160885Y-46545386D01*
X108151166Y-46560509D01*
X108068413Y-46671054D01*
X108068412Y-46671055D01*
X108018819Y-46804019D01*
X108012500Y-46862787D01*
X108012500Y-47357196D01*
X108012502Y-47357220D01*
X108018818Y-47415976D01*
X108018818Y-47415978D01*
X108018819Y-47415980D01*
X108068411Y-47548942D01*
X108068412Y-47548944D01*
X108068413Y-47548945D01*
X108151166Y-47659491D01*
X108175977Y-47726011D01*
X108160885Y-47795386D01*
X108151166Y-47810509D01*
X108068413Y-47921054D01*
X108068412Y-47921055D01*
X108018819Y-48054019D01*
X108012500Y-48112787D01*
X108012500Y-48607196D01*
X108012502Y-48607220D01*
X108018818Y-48665976D01*
X108018818Y-48665978D01*
X108018819Y-48665980D01*
X108068411Y-48798942D01*
X108068412Y-48798944D01*
X108068413Y-48798945D01*
X108151166Y-48909491D01*
X108175977Y-48976011D01*
X108160885Y-49045386D01*
X108151166Y-49060509D01*
X108068413Y-49171054D01*
X108068412Y-49171055D01*
X108018819Y-49304019D01*
X108012500Y-49362787D01*
X108012500Y-49857196D01*
X108012502Y-49857220D01*
X108018818Y-49915976D01*
X108018818Y-49915978D01*
X108018819Y-49915980D01*
X108068411Y-50048942D01*
X108068412Y-50048944D01*
X108068413Y-50048945D01*
X108151166Y-50159491D01*
X108175977Y-50226011D01*
X108160885Y-50295386D01*
X108151166Y-50310509D01*
X108068413Y-50421054D01*
X108068412Y-50421055D01*
X108018819Y-50554019D01*
X108012500Y-50612787D01*
X108012500Y-51107196D01*
X108012502Y-51107220D01*
X108019661Y-51173818D01*
X108017092Y-51174094D01*
X108013966Y-51232417D01*
X107972442Y-51290003D01*
X107906375Y-51315998D01*
X107895143Y-51316500D01*
X107862868Y-51316500D01*
X107794747Y-51296498D01*
X107773773Y-51279595D01*
X107116405Y-50622227D01*
X107082379Y-50559915D01*
X107079500Y-50533132D01*
X107079500Y-47892477D01*
X107099502Y-47824356D01*
X107129991Y-47791609D01*
X107193606Y-47743988D01*
X107238546Y-47710346D01*
X107323589Y-47596742D01*
X107373181Y-47463780D01*
X107379500Y-47405005D01*
X107379499Y-46910596D01*
X107373181Y-46851820D01*
X107323589Y-46718858D01*
X107323587Y-46718855D01*
X107323587Y-46718854D01*
X107240833Y-46608309D01*
X107216022Y-46541789D01*
X107231113Y-46472415D01*
X107240833Y-46457291D01*
X107323587Y-46346745D01*
X107323587Y-46346744D01*
X107323589Y-46346742D01*
X107373181Y-46213780D01*
X107379500Y-46155005D01*
X107379499Y-45660596D01*
X107373181Y-45601820D01*
X107323589Y-45468858D01*
X107323587Y-45468855D01*
X107323587Y-45468854D01*
X107238546Y-45355253D01*
X107129991Y-45273990D01*
X107087444Y-45217154D01*
X107079500Y-45173122D01*
X107079500Y-43204468D01*
X107099502Y-43136347D01*
X107116405Y-43115373D01*
X108507373Y-41724405D01*
X108569685Y-41690379D01*
X108596468Y-41687500D01*
X110203284Y-41687500D01*
X110271405Y-41707502D01*
G37*
%TD.AperFunction*%
%TA.AperFunction,Conductor*%
G36*
X133941621Y-31020502D02*
G01*
X133988114Y-31074158D01*
X133999500Y-31126500D01*
X133999500Y-82873500D01*
X133979498Y-82941621D01*
X133925842Y-82988114D01*
X133873500Y-82999500D01*
X70126500Y-82999500D01*
X70058379Y-82979498D01*
X70011886Y-82925842D01*
X70000500Y-82873500D01*
X70000500Y-78000001D01*
X92287050Y-78000001D01*
X92306829Y-78327007D01*
X92306830Y-78327010D01*
X92365880Y-78649238D01*
X92365882Y-78649247D01*
X92463348Y-78962024D01*
X92597803Y-79260772D01*
X92761436Y-79531455D01*
X92761437Y-79531455D01*
X93951028Y-78341864D01*
X93955770Y-78361411D01*
X94043038Y-78552502D01*
X94164894Y-78723624D01*
X94316932Y-78868592D01*
X94493658Y-78982167D01*
X94658818Y-79048287D01*
X93468543Y-80238561D01*
X93468543Y-80238562D01*
X93739223Y-80402195D01*
X94037975Y-80536651D01*
X94350752Y-80634117D01*
X94350761Y-80634119D01*
X94672989Y-80693169D01*
X94672992Y-80693170D01*
X94999999Y-80712950D01*
X95000001Y-80712950D01*
X95327007Y-80693170D01*
X95327010Y-80693169D01*
X95649238Y-80634119D01*
X95649247Y-80634117D01*
X95962024Y-80536651D01*
X96260776Y-80402195D01*
X96531455Y-80238561D01*
X95339613Y-79046719D01*
X95410689Y-79025850D01*
X95597410Y-78929589D01*
X95762540Y-78799729D01*
X95900110Y-78640965D01*
X96005147Y-78459035D01*
X96046541Y-78339435D01*
X97238561Y-79531455D01*
X97402195Y-79260776D01*
X97536651Y-78962024D01*
X97634117Y-78649247D01*
X97634119Y-78649238D01*
X97693169Y-78327010D01*
X97693170Y-78327007D01*
X97712950Y-78000001D01*
X106287050Y-78000001D01*
X106306829Y-78327007D01*
X106306830Y-78327010D01*
X106365880Y-78649238D01*
X106365882Y-78649247D01*
X106463348Y-78962024D01*
X106597803Y-79260772D01*
X106761436Y-79531455D01*
X106761437Y-79531455D01*
X107951028Y-78341864D01*
X107955770Y-78361411D01*
X108043038Y-78552502D01*
X108164894Y-78723624D01*
X108316932Y-78868592D01*
X108493658Y-78982167D01*
X108658818Y-79048287D01*
X107468543Y-80238561D01*
X107468543Y-80238562D01*
X107739223Y-80402195D01*
X108037975Y-80536651D01*
X108350752Y-80634117D01*
X108350761Y-80634119D01*
X108672989Y-80693169D01*
X108672992Y-80693170D01*
X108999999Y-80712950D01*
X109000001Y-80712950D01*
X109327007Y-80693170D01*
X109327010Y-80693169D01*
X109649238Y-80634119D01*
X109649247Y-80634117D01*
X109962024Y-80536651D01*
X110260776Y-80402195D01*
X110531455Y-80238561D01*
X109339613Y-79046719D01*
X109410689Y-79025850D01*
X109597410Y-78929589D01*
X109762540Y-78799729D01*
X109900110Y-78640965D01*
X110005147Y-78459035D01*
X110046541Y-78339435D01*
X111238561Y-79531455D01*
X111402195Y-79260776D01*
X111536651Y-78962024D01*
X111634117Y-78649247D01*
X111634119Y-78649238D01*
X111693169Y-78327010D01*
X111693170Y-78327007D01*
X111712950Y-78000001D01*
X111712950Y-77999998D01*
X111693170Y-77672992D01*
X111693169Y-77672989D01*
X111634119Y-77350761D01*
X111634117Y-77350752D01*
X111536651Y-77037975D01*
X111402195Y-76739223D01*
X111238562Y-76468543D01*
X111238561Y-76468543D01*
X110048971Y-77658133D01*
X110044230Y-77638589D01*
X109956962Y-77447498D01*
X109835106Y-77276376D01*
X109683068Y-77131408D01*
X109506342Y-77017833D01*
X109341181Y-76951712D01*
X110397692Y-75895200D01*
X115474336Y-75895200D01*
X115494904Y-76051439D01*
X115494906Y-76051444D01*
X115555209Y-76197026D01*
X115555210Y-76197029D01*
X115555212Y-76197032D01*
X115651145Y-76322055D01*
X115776168Y-76417988D01*
X115921760Y-76478295D01*
X116078000Y-76498864D01*
X116234240Y-76478295D01*
X116379832Y-76417988D01*
X116504855Y-76322055D01*
X116600788Y-76197032D01*
X116661095Y-76051440D01*
X116681664Y-75895200D01*
X116661095Y-75738960D01*
X116600788Y-75593368D01*
X116504855Y-75468345D01*
X116379832Y-75372412D01*
X116379829Y-75372410D01*
X116379826Y-75372409D01*
X116234244Y-75312106D01*
X116234239Y-75312104D01*
X116078000Y-75291536D01*
X115921760Y-75312104D01*
X115921755Y-75312106D01*
X115776173Y-75372409D01*
X115776166Y-75372413D01*
X115651145Y-75468345D01*
X115555213Y-75593366D01*
X115555209Y-75593373D01*
X115494906Y-75738955D01*
X115494904Y-75738960D01*
X115474336Y-75895199D01*
X115474336Y-75895200D01*
X110397692Y-75895200D01*
X110531455Y-75761437D01*
X110531455Y-75761436D01*
X110260772Y-75597803D01*
X109962024Y-75463348D01*
X109649247Y-75365882D01*
X109649238Y-75365880D01*
X109327010Y-75306830D01*
X109327007Y-75306829D01*
X109000001Y-75287050D01*
X108999999Y-75287050D01*
X108672992Y-75306829D01*
X108672989Y-75306830D01*
X108350761Y-75365880D01*
X108350752Y-75365882D01*
X108037975Y-75463348D01*
X107739227Y-75597803D01*
X107468544Y-75761436D01*
X107468543Y-75761437D01*
X108660386Y-76953280D01*
X108589311Y-76974150D01*
X108402590Y-77070411D01*
X108237460Y-77200271D01*
X108099890Y-77359035D01*
X107994853Y-77540965D01*
X107953458Y-77660564D01*
X106761437Y-76468543D01*
X106761436Y-76468544D01*
X106597803Y-76739227D01*
X106463348Y-77037975D01*
X106365882Y-77350752D01*
X106365880Y-77350761D01*
X106306830Y-77672989D01*
X106306829Y-77672992D01*
X106287050Y-77999998D01*
X106287050Y-78000001D01*
X97712950Y-78000001D01*
X97712950Y-77999998D01*
X97693170Y-77672992D01*
X97693169Y-77672989D01*
X97634119Y-77350761D01*
X97634117Y-77350752D01*
X97536651Y-77037975D01*
X97402195Y-76739223D01*
X97238562Y-76468543D01*
X97238561Y-76468543D01*
X96048971Y-77658133D01*
X96044230Y-77638589D01*
X95956962Y-77447498D01*
X95835106Y-77276376D01*
X95683068Y-77131408D01*
X95506342Y-77017833D01*
X95341181Y-76951712D01*
X96531455Y-75761437D01*
X96531455Y-75761436D01*
X96260772Y-75597803D01*
X95962024Y-75463348D01*
X95649247Y-75365882D01*
X95649238Y-75365880D01*
X95327010Y-75306830D01*
X95327007Y-75306829D01*
X95000001Y-75287050D01*
X94999999Y-75287050D01*
X94672992Y-75306829D01*
X94672989Y-75306830D01*
X94350761Y-75365880D01*
X94350752Y-75365882D01*
X94037975Y-75463348D01*
X93739227Y-75597803D01*
X93468544Y-75761436D01*
X93468543Y-75761437D01*
X94660386Y-76953280D01*
X94589311Y-76974150D01*
X94402590Y-77070411D01*
X94237460Y-77200271D01*
X94099890Y-77359035D01*
X93994853Y-77540965D01*
X93953458Y-77660564D01*
X92761437Y-76468543D01*
X92761436Y-76468544D01*
X92597803Y-76739227D01*
X92463348Y-77037975D01*
X92365882Y-77350752D01*
X92365880Y-77350761D01*
X92306830Y-77672989D01*
X92306829Y-77672992D01*
X92287050Y-77999998D01*
X92287050Y-78000001D01*
X70000500Y-78000001D01*
X70000500Y-74793209D01*
X78027700Y-74793209D01*
X78036966Y-74879392D01*
X78048353Y-74931740D01*
X78071069Y-75003389D01*
X78138128Y-75111086D01*
X78138131Y-75111090D01*
X78184616Y-75164737D01*
X78184619Y-75164740D01*
X78184622Y-75164743D01*
X78262198Y-75233927D01*
X78262199Y-75233927D01*
X78262201Y-75233929D01*
X78376829Y-75288270D01*
X78376832Y-75288271D01*
X78376834Y-75288271D01*
X78376837Y-75288273D01*
X78444958Y-75308275D01*
X78559200Y-75324700D01*
X78559203Y-75324700D01*
X83285594Y-75324700D01*
X83285600Y-75324700D01*
X83371793Y-75315434D01*
X83424135Y-75304048D01*
X83495790Y-75281330D01*
X83603487Y-75214271D01*
X83657143Y-75167778D01*
X83726327Y-75090202D01*
X83726329Y-75090198D01*
X83780670Y-74975570D01*
X83780671Y-74975567D01*
X83780670Y-74975567D01*
X83780673Y-74975563D01*
X83800675Y-74907442D01*
X83817100Y-74793200D01*
X83817100Y-71082800D01*
X83807834Y-70996607D01*
X83796448Y-70944265D01*
X83773730Y-70872610D01*
X83706671Y-70764913D01*
X83706668Y-70764909D01*
X83660183Y-70711262D01*
X83660180Y-70711259D01*
X83660178Y-70711257D01*
X83582602Y-70642073D01*
X83582600Y-70642072D01*
X83582598Y-70642070D01*
X83467970Y-70587729D01*
X83467967Y-70587728D01*
X83447724Y-70581784D01*
X83399842Y-70567725D01*
X83285600Y-70551300D01*
X83285597Y-70551300D01*
X81722225Y-70551300D01*
X81654104Y-70531298D01*
X81607611Y-70477642D01*
X81597507Y-70407368D01*
X81627001Y-70342788D01*
X81633130Y-70336205D01*
X83330130Y-68639205D01*
X83392442Y-68605179D01*
X83419225Y-68602300D01*
X86569549Y-68602300D01*
X86637670Y-68622302D01*
X86684163Y-68675958D01*
X86694267Y-68746232D01*
X86664773Y-68810812D01*
X86605047Y-68849196D01*
X86589262Y-68852748D01*
X86569866Y-68855820D01*
X86548980Y-68866461D01*
X86530724Y-68874022D01*
X86508440Y-68881263D01*
X86508433Y-68881267D01*
X86489475Y-68895040D01*
X86472625Y-68905366D01*
X86451745Y-68916005D01*
X86439957Y-68927794D01*
X86428167Y-68939584D01*
X85051745Y-70316006D01*
X85024963Y-70342788D01*
X84958005Y-70409745D01*
X84947366Y-70430625D01*
X84937040Y-70447475D01*
X84923267Y-70466433D01*
X84923263Y-70466440D01*
X84916022Y-70488724D01*
X84908461Y-70506980D01*
X84897820Y-70527865D01*
X84894153Y-70551016D01*
X84889540Y-70570230D01*
X84882300Y-70592515D01*
X84882300Y-74490381D01*
X84862298Y-74558502D01*
X84856269Y-74567075D01*
X84841064Y-74586892D01*
X84770413Y-74678966D01*
X84770409Y-74678973D01*
X84710106Y-74824555D01*
X84710104Y-74824560D01*
X84689536Y-74980799D01*
X84689536Y-74980800D01*
X84710104Y-75137039D01*
X84710106Y-75137044D01*
X84770409Y-75282626D01*
X84770410Y-75282629D01*
X84770412Y-75282632D01*
X84866345Y-75407655D01*
X84991368Y-75503588D01*
X85136960Y-75563895D01*
X85293200Y-75584464D01*
X85449440Y-75563895D01*
X85595032Y-75503588D01*
X85720055Y-75407655D01*
X85815988Y-75282632D01*
X85876295Y-75137040D01*
X85896864Y-74980800D01*
X85896175Y-74975570D01*
X85876295Y-74824560D01*
X85876293Y-74824555D01*
X85815990Y-74678973D01*
X85815988Y-74678968D01*
X85815983Y-74678961D01*
X85745337Y-74586892D01*
X85719737Y-74520672D01*
X85719300Y-74510189D01*
X85719300Y-72899604D01*
X120721387Y-72899604D01*
X120741795Y-73119843D01*
X120802324Y-73332583D01*
X120802327Y-73332589D01*
X120900919Y-73530588D01*
X120900920Y-73530589D01*
X121034212Y-73707098D01*
X121197674Y-73856114D01*
X121197675Y-73856115D01*
X121385722Y-73972549D01*
X121385729Y-73972552D01*
X121385732Y-73972554D01*
X121385736Y-73972555D01*
X121385737Y-73972556D01*
X121591979Y-74052455D01*
X121591984Y-74052457D01*
X121809406Y-74093100D01*
X121809408Y-74093100D01*
X122030592Y-74093100D01*
X122030594Y-74093100D01*
X122248016Y-74052457D01*
X122454268Y-73972554D01*
X122454273Y-73972550D01*
X122454277Y-73972549D01*
X122642324Y-73856115D01*
X122642323Y-73856115D01*
X122642326Y-73856114D01*
X122785070Y-73725984D01*
X122848887Y-73694874D01*
X122869956Y-73693100D01*
X123684206Y-73693100D01*
X123721028Y-73684694D01*
X123734958Y-73682328D01*
X123772488Y-73678100D01*
X123808136Y-73665625D01*
X123821707Y-73661716D01*
X123858535Y-73653311D01*
X123892570Y-73636919D01*
X123905604Y-73631520D01*
X123941265Y-73619043D01*
X123973253Y-73598942D01*
X123985606Y-73592115D01*
X124019638Y-73575727D01*
X124049165Y-73552178D01*
X124060687Y-73544005D01*
X124068293Y-73539225D01*
X124092670Y-73523909D01*
X124219109Y-73397470D01*
X124229476Y-73387103D01*
X124229483Y-73387093D01*
X124716972Y-72899604D01*
X125801387Y-72899604D01*
X125821795Y-73119843D01*
X125882324Y-73332583D01*
X125882327Y-73332589D01*
X125980919Y-73530588D01*
X125980920Y-73530589D01*
X126114212Y-73707098D01*
X126277674Y-73856114D01*
X126277675Y-73856115D01*
X126465722Y-73972549D01*
X126465729Y-73972552D01*
X126465732Y-73972554D01*
X126465736Y-73972555D01*
X126465737Y-73972556D01*
X126671979Y-74052455D01*
X126671984Y-74052457D01*
X126889406Y-74093100D01*
X126889408Y-74093100D01*
X127110592Y-74093100D01*
X127110594Y-74093100D01*
X127328016Y-74052457D01*
X127534268Y-73972554D01*
X127534273Y-73972550D01*
X127534277Y-73972549D01*
X127722324Y-73856115D01*
X127722323Y-73856115D01*
X127722326Y-73856114D01*
X127885786Y-73707100D01*
X128019081Y-73530588D01*
X128117673Y-73332589D01*
X128178204Y-73119845D01*
X128198613Y-72899604D01*
X130881387Y-72899604D01*
X130901795Y-73119843D01*
X130962324Y-73332583D01*
X130962327Y-73332589D01*
X131060919Y-73530588D01*
X131060920Y-73530589D01*
X131194212Y-73707098D01*
X131357674Y-73856114D01*
X131357675Y-73856115D01*
X131545722Y-73972549D01*
X131545729Y-73972552D01*
X131545732Y-73972554D01*
X131545736Y-73972555D01*
X131545737Y-73972556D01*
X131751979Y-74052455D01*
X131751984Y-74052457D01*
X131969406Y-74093100D01*
X131969408Y-74093100D01*
X132190592Y-74093100D01*
X132190594Y-74093100D01*
X132408016Y-74052457D01*
X132614268Y-73972554D01*
X132614273Y-73972550D01*
X132614277Y-73972549D01*
X132802324Y-73856115D01*
X132802323Y-73856115D01*
X132802326Y-73856114D01*
X132965786Y-73707100D01*
X133099081Y-73530588D01*
X133197673Y-73332589D01*
X133258204Y-73119845D01*
X133278613Y-72899600D01*
X133258204Y-72679355D01*
X133238222Y-72609127D01*
X133197675Y-72466616D01*
X133197673Y-72466611D01*
X133099081Y-72268612D01*
X132976358Y-72106100D01*
X132965787Y-72092101D01*
X132802325Y-71943085D01*
X132802324Y-71943084D01*
X132614277Y-71826650D01*
X132614262Y-71826643D01*
X132408020Y-71746744D01*
X132408021Y-71746744D01*
X132408016Y-71746743D01*
X132190594Y-71706100D01*
X131969406Y-71706100D01*
X131805337Y-71736769D01*
X131751978Y-71746744D01*
X131545737Y-71826643D01*
X131545722Y-71826650D01*
X131357675Y-71943084D01*
X131357674Y-71943085D01*
X131194212Y-72092101D01*
X131060920Y-72268610D01*
X130962324Y-72466616D01*
X130901795Y-72679356D01*
X130881387Y-72899595D01*
X130881387Y-72899604D01*
X128198613Y-72899604D01*
X128198613Y-72899600D01*
X128178204Y-72679355D01*
X128158222Y-72609127D01*
X128117675Y-72466616D01*
X128117673Y-72466611D01*
X128019081Y-72268612D01*
X127896358Y-72106100D01*
X127885787Y-72092101D01*
X127722325Y-71943085D01*
X127722324Y-71943084D01*
X127534277Y-71826650D01*
X127534262Y-71826643D01*
X127328020Y-71746744D01*
X127328021Y-71746744D01*
X127328016Y-71746743D01*
X127110594Y-71706100D01*
X126889406Y-71706100D01*
X126725337Y-71736769D01*
X126671978Y-71746744D01*
X126465737Y-71826643D01*
X126465722Y-71826650D01*
X126277675Y-71943084D01*
X126277674Y-71943085D01*
X126114212Y-72092101D01*
X125980920Y-72268610D01*
X125882324Y-72466616D01*
X125821795Y-72679356D01*
X125801387Y-72899595D01*
X125801387Y-72899604D01*
X124716972Y-72899604D01*
X130993400Y-66623179D01*
X131076927Y-66518438D01*
X131077656Y-66516923D01*
X131079598Y-66514185D01*
X131080693Y-66512444D01*
X131080790Y-66512505D01*
X131102083Y-66482493D01*
X132059493Y-65525083D01*
X132059503Y-65525076D01*
X132196307Y-65388272D01*
X132196309Y-65388270D01*
X132216405Y-65356287D01*
X132224578Y-65344765D01*
X132248127Y-65315238D01*
X132264515Y-65281205D01*
X132271350Y-65268841D01*
X132291441Y-65236868D01*
X132291444Y-65236863D01*
X132298084Y-65217885D01*
X132303916Y-65201215D01*
X132309316Y-65188176D01*
X132325711Y-65154136D01*
X132334116Y-65117304D01*
X132338029Y-65103726D01*
X132347360Y-65077060D01*
X132350500Y-65068088D01*
X132354728Y-65030557D01*
X132357096Y-65016622D01*
X132365500Y-64979805D01*
X132365500Y-42149639D01*
X132385502Y-42081518D01*
X132439158Y-42035025D01*
X132445954Y-42032159D01*
X132614268Y-41966954D01*
X132614273Y-41966950D01*
X132614277Y-41966949D01*
X132777086Y-41866142D01*
X132802326Y-41850514D01*
X132965786Y-41701500D01*
X133099081Y-41524988D01*
X133197673Y-41326989D01*
X133201771Y-41312588D01*
X133251369Y-41138266D01*
X133258204Y-41114245D01*
X133278613Y-40894000D01*
X133258204Y-40673755D01*
X133238222Y-40603527D01*
X133197675Y-40461016D01*
X133197673Y-40461011D01*
X133099081Y-40263012D01*
X132987687Y-40115502D01*
X132965787Y-40086501D01*
X132802325Y-39937485D01*
X132802324Y-39937484D01*
X132614277Y-39821050D01*
X132614262Y-39821043D01*
X132408020Y-39741144D01*
X132408021Y-39741144D01*
X132408016Y-39741143D01*
X132190594Y-39700500D01*
X131969406Y-39700500D01*
X131805337Y-39731169D01*
X131751978Y-39741144D01*
X131545737Y-39821043D01*
X131545722Y-39821050D01*
X131357675Y-39937484D01*
X131357674Y-39937485D01*
X131194212Y-40086501D01*
X131060920Y-40263010D01*
X130962324Y-40461016D01*
X130901795Y-40673756D01*
X130881387Y-40893995D01*
X130881387Y-40894000D01*
X130885754Y-40941134D01*
X130886787Y-40952277D01*
X130873155Y-41021953D01*
X130868013Y-41030936D01*
X130852556Y-41055536D01*
X130840082Y-41091183D01*
X130834678Y-41104230D01*
X130818289Y-41138264D01*
X130818288Y-41138266D01*
X130809881Y-41175097D01*
X130805972Y-41188666D01*
X130793500Y-41224309D01*
X130793499Y-41224315D01*
X130789269Y-41261849D01*
X130786903Y-41275771D01*
X130778500Y-41312588D01*
X130778500Y-64509531D01*
X130758498Y-64577652D01*
X130741595Y-64598626D01*
X129792203Y-65548017D01*
X129792197Y-65548024D01*
X129708675Y-65652758D01*
X129708671Y-65652764D01*
X129707938Y-65654288D01*
X129705988Y-65657035D01*
X129704911Y-65658750D01*
X129704814Y-65658689D01*
X129683516Y-65688703D01*
X123303027Y-72069195D01*
X123240715Y-72103220D01*
X123213932Y-72106100D01*
X122869956Y-72106100D01*
X122801835Y-72086098D01*
X122785070Y-72073215D01*
X122642325Y-71943085D01*
X122642324Y-71943084D01*
X122454277Y-71826650D01*
X122454262Y-71826643D01*
X122248020Y-71746744D01*
X122248021Y-71746744D01*
X122248016Y-71746743D01*
X122030594Y-71706100D01*
X121809406Y-71706100D01*
X121645337Y-71736769D01*
X121591978Y-71746744D01*
X121385737Y-71826643D01*
X121385722Y-71826650D01*
X121197675Y-71943084D01*
X121197674Y-71943085D01*
X121034212Y-72092101D01*
X120900920Y-72268610D01*
X120802324Y-72466616D01*
X120741795Y-72679356D01*
X120721387Y-72899595D01*
X120721387Y-72899604D01*
X85719300Y-72899604D01*
X85719300Y-70884339D01*
X85739302Y-70816218D01*
X85756205Y-70795244D01*
X86837244Y-69714205D01*
X86899556Y-69680179D01*
X86926339Y-69677300D01*
X100317080Y-69677300D01*
X100317083Y-69677300D01*
X100339376Y-69670056D01*
X100358580Y-69665446D01*
X100381736Y-69661779D01*
X100402616Y-69651139D01*
X100420875Y-69643576D01*
X100443163Y-69636335D01*
X100462123Y-69622558D01*
X100478974Y-69612232D01*
X100499855Y-69601594D01*
X100593594Y-69507855D01*
X103691449Y-66410000D01*
X109998001Y-66410000D01*
X109998001Y-66760507D01*
X110008605Y-66864318D01*
X110064342Y-67032525D01*
X110157366Y-67183339D01*
X110157371Y-67183345D01*
X110282654Y-67308628D01*
X110282660Y-67308633D01*
X110433474Y-67401657D01*
X110601678Y-67457393D01*
X110601681Y-67457394D01*
X110705484Y-67467999D01*
X111506000Y-67467999D01*
X111506000Y-66410000D01*
X112506000Y-66410000D01*
X112506000Y-67467999D01*
X113306507Y-67467999D01*
X113410318Y-67457394D01*
X113578525Y-67401657D01*
X113729339Y-67308633D01*
X113729345Y-67308628D01*
X113854628Y-67183345D01*
X113854633Y-67183339D01*
X113947657Y-67032525D01*
X113958434Y-67000001D01*
X120287050Y-67000001D01*
X120306829Y-67327007D01*
X120306830Y-67327010D01*
X120365880Y-67649238D01*
X120365882Y-67649247D01*
X120463348Y-67962024D01*
X120597803Y-68260772D01*
X120761436Y-68531455D01*
X120761437Y-68531455D01*
X121951028Y-67341864D01*
X121955770Y-67361411D01*
X122043038Y-67552502D01*
X122164894Y-67723624D01*
X122316932Y-67868592D01*
X122493658Y-67982167D01*
X122658818Y-68048287D01*
X121468543Y-69238561D01*
X121468543Y-69238562D01*
X121739223Y-69402195D01*
X122037975Y-69536651D01*
X122350752Y-69634117D01*
X122350761Y-69634119D01*
X122672989Y-69693169D01*
X122672992Y-69693170D01*
X122999999Y-69712950D01*
X123000001Y-69712950D01*
X123327007Y-69693170D01*
X123327010Y-69693169D01*
X123649238Y-69634119D01*
X123649247Y-69634117D01*
X123962024Y-69536651D01*
X124260776Y-69402195D01*
X124531455Y-69238561D01*
X123339613Y-68046719D01*
X123410689Y-68025850D01*
X123597410Y-67929589D01*
X123762540Y-67799729D01*
X123900110Y-67640965D01*
X124005147Y-67459035D01*
X124046541Y-67339435D01*
X125238561Y-68531455D01*
X125402195Y-68260776D01*
X125536651Y-67962024D01*
X125634117Y-67649247D01*
X125634119Y-67649238D01*
X125693169Y-67327010D01*
X125693170Y-67327007D01*
X125712950Y-67000001D01*
X125712950Y-66999998D01*
X125693170Y-66672992D01*
X125693169Y-66672989D01*
X125634119Y-66350761D01*
X125634117Y-66350752D01*
X125536651Y-66037975D01*
X125402195Y-65739223D01*
X125238562Y-65468543D01*
X125238561Y-65468543D01*
X124048971Y-66658133D01*
X124044230Y-66638589D01*
X123956962Y-66447498D01*
X123835106Y-66276376D01*
X123683068Y-66131408D01*
X123506342Y-66017833D01*
X123341181Y-65951712D01*
X124531455Y-64761437D01*
X124531455Y-64761436D01*
X124260772Y-64597803D01*
X123962024Y-64463348D01*
X123649247Y-64365882D01*
X123649238Y-64365880D01*
X123327010Y-64306830D01*
X123327007Y-64306829D01*
X123000001Y-64287050D01*
X122999999Y-64287050D01*
X122672992Y-64306829D01*
X122672989Y-64306830D01*
X122350761Y-64365880D01*
X122350752Y-64365882D01*
X122037975Y-64463348D01*
X121739227Y-64597803D01*
X121468544Y-64761436D01*
X121468543Y-64761437D01*
X122660386Y-65953280D01*
X122589311Y-65974150D01*
X122402590Y-66070411D01*
X122237460Y-66200271D01*
X122099890Y-66359035D01*
X121994853Y-66540965D01*
X121953458Y-66660564D01*
X120761437Y-65468543D01*
X120761436Y-65468544D01*
X120597803Y-65739227D01*
X120463348Y-66037975D01*
X120365882Y-66350752D01*
X120365880Y-66350761D01*
X120306830Y-66672989D01*
X120306829Y-66672992D01*
X120287050Y-66999998D01*
X120287050Y-67000001D01*
X113958434Y-67000001D01*
X114003393Y-66864321D01*
X114003394Y-66864318D01*
X114013999Y-66760515D01*
X114014000Y-66760515D01*
X114014000Y-66410000D01*
X112506000Y-66410000D01*
X111506000Y-66410000D01*
X109998001Y-66410000D01*
X103691449Y-66410000D01*
X105187244Y-64914205D01*
X105249556Y-64880179D01*
X105276339Y-64877300D01*
X109877085Y-64877300D01*
X109945206Y-64897302D01*
X109991699Y-64950958D01*
X110002432Y-65016107D01*
X109998000Y-65059484D01*
X109998000Y-65410000D01*
X111506000Y-65410000D01*
X111506000Y-64352000D01*
X112506000Y-64352000D01*
X112506000Y-65410000D01*
X114013999Y-65410000D01*
X114013999Y-65059492D01*
X114003394Y-64955681D01*
X113947657Y-64787474D01*
X113854633Y-64636660D01*
X113854628Y-64636654D01*
X113729345Y-64511371D01*
X113729339Y-64511366D01*
X113578525Y-64418342D01*
X113410321Y-64362606D01*
X113410318Y-64362605D01*
X113306515Y-64352000D01*
X112506000Y-64352000D01*
X111506000Y-64352000D01*
X110903636Y-64352000D01*
X110835515Y-64331998D01*
X110789022Y-64278342D01*
X110778918Y-64208068D01*
X110808412Y-64143488D01*
X110814512Y-64136934D01*
X110882132Y-64069314D01*
X110882138Y-64069311D01*
X110993590Y-63957859D01*
X110993594Y-63957855D01*
X111004230Y-63936978D01*
X111014564Y-63920116D01*
X111028335Y-63901164D01*
X111035578Y-63878870D01*
X111043146Y-63860604D01*
X111053777Y-63839739D01*
X111053779Y-63839736D01*
X111057444Y-63816586D01*
X111062061Y-63797361D01*
X111069300Y-63775084D01*
X111069300Y-61392515D01*
X111062059Y-61370230D01*
X111057443Y-61351001D01*
X111053779Y-61327866D01*
X111053779Y-61327864D01*
X111043139Y-61306982D01*
X111035575Y-61288719D01*
X111028335Y-61266436D01*
X111028334Y-61266434D01*
X111014558Y-61247473D01*
X111004229Y-61230617D01*
X110993593Y-61209744D01*
X110949825Y-61165976D01*
X110899855Y-61116006D01*
X110324633Y-60540784D01*
X110301055Y-60517206D01*
X110301054Y-60517205D01*
X110280176Y-60506567D01*
X110263323Y-60496240D01*
X110244363Y-60482465D01*
X110229600Y-60477668D01*
X110222076Y-60475223D01*
X110203810Y-60467656D01*
X110188952Y-60460085D01*
X110145290Y-60423330D01*
X110104218Y-60368465D01*
X110060832Y-60310508D01*
X110036022Y-60243989D01*
X110051113Y-60174615D01*
X110060833Y-60159491D01*
X110143587Y-60048945D01*
X110143587Y-60048944D01*
X110143589Y-60048942D01*
X110193181Y-59915980D01*
X110199500Y-59857205D01*
X110199499Y-59362796D01*
X110193181Y-59304020D01*
X110143589Y-59171058D01*
X110143587Y-59171055D01*
X110143587Y-59171054D01*
X110060833Y-59060509D01*
X110036022Y-58993989D01*
X110051113Y-58924615D01*
X110060833Y-58909491D01*
X110143587Y-58798945D01*
X110143587Y-58798944D01*
X110143589Y-58798942D01*
X110193181Y-58665980D01*
X110199500Y-58607205D01*
X110199499Y-58112796D01*
X110193181Y-58054020D01*
X110143589Y-57921058D01*
X110143587Y-57921055D01*
X110143587Y-57921054D01*
X110060833Y-57810509D01*
X110036022Y-57743989D01*
X110051113Y-57674615D01*
X110060833Y-57659491D01*
X110143587Y-57548945D01*
X110143587Y-57548944D01*
X110143589Y-57548942D01*
X110193181Y-57415980D01*
X110199500Y-57357205D01*
X110199499Y-56862796D01*
X110193181Y-56804020D01*
X110159013Y-56712414D01*
X110153950Y-56641599D01*
X110187975Y-56579287D01*
X110267417Y-56499845D01*
X110267421Y-56499840D01*
X110356366Y-56352706D01*
X110385255Y-56260000D01*
X107826745Y-56260000D01*
X107855633Y-56352706D01*
X107936403Y-56486316D01*
X107954526Y-56554960D01*
X107932661Y-56622506D01*
X107877749Y-56667508D01*
X107828574Y-56677500D01*
X103887764Y-56677500D01*
X103887752Y-56677499D01*
X103877601Y-56677499D01*
X103744399Y-56677499D01*
X103744395Y-56677499D01*
X103721955Y-56684790D01*
X103702736Y-56689404D01*
X103679438Y-56693094D01*
X103679436Y-56693095D01*
X103658418Y-56703804D01*
X103640158Y-56711368D01*
X103617717Y-56718660D01*
X103598627Y-56732529D01*
X103581778Y-56742854D01*
X103560755Y-56753566D01*
X103560751Y-56753569D01*
X103463405Y-56850916D01*
X103463391Y-56850931D01*
X99303728Y-61010595D01*
X99241416Y-61044621D01*
X99214633Y-61047500D01*
X97862936Y-61047500D01*
X97794815Y-61027498D01*
X97748322Y-60973842D01*
X97738218Y-60903568D01*
X97762068Y-60845991D01*
X97838444Y-60743965D01*
X97838444Y-60743964D01*
X97889494Y-60607093D01*
X97895999Y-60546597D01*
X97896000Y-60546585D01*
X97896000Y-60498000D01*
X95330000Y-60498000D01*
X95330000Y-60546597D01*
X95336505Y-60607093D01*
X95387555Y-60743964D01*
X95387555Y-60743965D01*
X95475093Y-60860900D01*
X95475095Y-60860902D01*
X95498382Y-60878335D01*
X95540929Y-60935170D01*
X95548033Y-60993724D01*
X95544500Y-61024172D01*
X95544500Y-61811815D01*
X95544501Y-61811822D01*
X95547347Y-61836362D01*
X95591668Y-61936741D01*
X95618832Y-61963905D01*
X95652858Y-62026217D01*
X95647793Y-62097032D01*
X95618832Y-62142095D01*
X95591670Y-62169256D01*
X95591669Y-62169258D01*
X95547346Y-62269639D01*
X95544500Y-62294174D01*
X95544500Y-63081815D01*
X95544501Y-63081822D01*
X95547347Y-63106362D01*
X95591668Y-63206741D01*
X95669256Y-63284329D01*
X95669258Y-63284330D01*
X95669259Y-63284331D01*
X95769639Y-63328653D01*
X95769638Y-63328653D01*
X95773344Y-63329082D01*
X95794179Y-63331500D01*
X97431820Y-63331499D01*
X97456361Y-63328653D01*
X97556741Y-63284331D01*
X97556743Y-63284329D01*
X97642588Y-63198485D01*
X97645012Y-63200909D01*
X97684846Y-63168396D01*
X97733793Y-63158500D01*
X100126236Y-63158500D01*
X100126248Y-63158501D01*
X100136399Y-63158501D01*
X100269599Y-63158501D01*
X100269601Y-63158501D01*
X100292046Y-63151207D01*
X100311269Y-63146594D01*
X100334558Y-63142906D01*
X100334559Y-63142905D01*
X100334562Y-63142905D01*
X100355580Y-63132194D01*
X100373849Y-63124627D01*
X100396283Y-63117339D01*
X100415366Y-63103473D01*
X100432216Y-63093147D01*
X100453245Y-63082433D01*
X100547433Y-62988245D01*
X100557800Y-62977878D01*
X100557807Y-62977868D01*
X104730272Y-58805405D01*
X104792584Y-58771379D01*
X104819367Y-58768500D01*
X107982551Y-58768500D01*
X108050672Y-58788502D01*
X108083419Y-58818991D01*
X108151166Y-58909491D01*
X108175977Y-58976012D01*
X108160885Y-59045386D01*
X108151166Y-59060509D01*
X108090904Y-59141009D01*
X108034070Y-59183555D01*
X107990037Y-59191500D01*
X105133315Y-59191500D01*
X105111029Y-59198740D01*
X105091812Y-59203353D01*
X105068666Y-59207019D01*
X105068663Y-59207020D01*
X105047782Y-59217659D01*
X105029525Y-59225221D01*
X105007240Y-59232462D01*
X105007233Y-59232466D01*
X104988275Y-59246240D01*
X104971422Y-59256568D01*
X104950544Y-59267206D01*
X104921390Y-59296361D01*
X104856806Y-59360945D01*
X98614356Y-65603395D01*
X98552044Y-65637421D01*
X98525261Y-65640300D01*
X92326339Y-65640300D01*
X92258218Y-65620298D01*
X92237244Y-65603395D01*
X91890514Y-65256665D01*
X91856488Y-65194353D01*
X91861553Y-65123538D01*
X91903473Y-65067176D01*
X91935607Y-65042807D01*
X92001969Y-65017586D01*
X92071436Y-65032247D01*
X92118978Y-65077060D01*
X92131109Y-65096728D01*
X92131114Y-65096734D01*
X92252265Y-65217885D01*
X92252271Y-65217890D01*
X92398108Y-65307843D01*
X92485000Y-65336636D01*
X92485000Y-64839000D01*
X93385000Y-64839000D01*
X93385000Y-65336635D01*
X93471891Y-65307843D01*
X93617728Y-65217890D01*
X93617734Y-65217885D01*
X93738885Y-65096734D01*
X93738890Y-65096728D01*
X93828847Y-64950884D01*
X93865922Y-64839000D01*
X93385000Y-64839000D01*
X92485000Y-64839000D01*
X92485000Y-63441362D01*
X92484999Y-63441361D01*
X93385000Y-63441361D01*
X93385000Y-63939000D01*
X93865922Y-63939000D01*
X93865922Y-63938999D01*
X93828847Y-63827115D01*
X93738890Y-63681271D01*
X93738885Y-63681265D01*
X93617734Y-63560114D01*
X93617728Y-63560109D01*
X93471884Y-63470152D01*
X93385000Y-63441361D01*
X92484999Y-63441361D01*
X92398115Y-63470152D01*
X92252271Y-63560109D01*
X92252265Y-63560114D01*
X92131114Y-63681265D01*
X92131110Y-63681270D01*
X92118977Y-63700941D01*
X92066190Y-63748418D01*
X91996115Y-63759820D01*
X91935606Y-63735191D01*
X91866511Y-63682795D01*
X91866507Y-63682793D01*
X91859643Y-63677588D01*
X91860668Y-63676236D01*
X91818167Y-63632659D01*
X91803500Y-63573660D01*
X91803500Y-63457499D01*
X91823502Y-63389378D01*
X91877158Y-63342885D01*
X91929500Y-63331499D01*
X92031816Y-63331499D01*
X92031820Y-63331499D01*
X92056361Y-63328653D01*
X92156741Y-63284331D01*
X92234331Y-63206741D01*
X92278653Y-63106361D01*
X92281500Y-63081821D01*
X92281499Y-62294180D01*
X92278653Y-62269639D01*
X92234331Y-62169259D01*
X92207166Y-62142094D01*
X92173142Y-62079785D01*
X92178206Y-62008969D01*
X92207166Y-61963905D01*
X92234331Y-61936741D01*
X92234331Y-61936740D01*
X92242588Y-61928484D01*
X92244527Y-61930423D01*
X92286219Y-61896394D01*
X92335163Y-61886500D01*
X92813280Y-61886500D01*
X92813283Y-61886500D01*
X92835576Y-61879256D01*
X92854780Y-61874646D01*
X92877936Y-61870979D01*
X92898816Y-61860339D01*
X92917079Y-61852775D01*
X92939363Y-61845535D01*
X92958323Y-61831758D01*
X92975174Y-61821432D01*
X92996055Y-61810794D01*
X93089794Y-61717055D01*
X93109578Y-61697269D01*
X93124627Y-61684419D01*
X93126929Y-61682746D01*
X93126935Y-61682742D01*
X95114905Y-59694770D01*
X95177217Y-59660746D01*
X95248032Y-59665810D01*
X95304868Y-59708357D01*
X95329679Y-59774877D01*
X95330000Y-59783866D01*
X95330000Y-59798000D01*
X96263000Y-59798000D01*
X96263000Y-59228000D01*
X96963000Y-59228000D01*
X96963000Y-59798000D01*
X97896000Y-59798000D01*
X97896000Y-59749414D01*
X97895999Y-59749402D01*
X97889494Y-59688907D01*
X97840308Y-59557033D01*
X97835243Y-59486217D01*
X97840308Y-59468967D01*
X97889494Y-59337092D01*
X97895999Y-59276597D01*
X97896000Y-59276585D01*
X97896000Y-59228000D01*
X96963000Y-59228000D01*
X96263000Y-59228000D01*
X96263000Y-58020000D01*
X96963000Y-58020000D01*
X96963000Y-58528000D01*
X97896000Y-58528000D01*
X97896000Y-58479414D01*
X97895999Y-58479402D01*
X97889494Y-58418906D01*
X97838444Y-58282035D01*
X97838444Y-58282034D01*
X97750904Y-58165095D01*
X97633965Y-58077555D01*
X97497093Y-58026505D01*
X97436597Y-58020000D01*
X96963000Y-58020000D01*
X96263000Y-58020000D01*
X95789402Y-58020000D01*
X95728904Y-58026505D01*
X95706485Y-58034867D01*
X95635669Y-58039930D01*
X95573358Y-58005903D01*
X95539335Y-57943590D01*
X95544402Y-57872774D01*
X95573361Y-57827715D01*
X95656866Y-57744210D01*
X95656876Y-57744202D01*
X95761430Y-57639648D01*
X95761433Y-57639645D01*
X95767366Y-57628000D01*
X99638336Y-57628000D01*
X99658904Y-57784239D01*
X99658906Y-57784244D01*
X99719209Y-57929826D01*
X99719210Y-57929829D01*
X99719212Y-57929832D01*
X99815145Y-58054855D01*
X99940168Y-58150788D01*
X99940173Y-58150790D01*
X100028541Y-58187394D01*
X100085760Y-58211095D01*
X100242000Y-58231664D01*
X100398240Y-58211095D01*
X100543832Y-58150788D01*
X100668855Y-58054855D01*
X100764788Y-57929832D01*
X100825095Y-57784240D01*
X100845664Y-57628000D01*
X100843266Y-57609788D01*
X100825095Y-57471760D01*
X100825093Y-57471755D01*
X100764790Y-57326173D01*
X100764788Y-57326168D01*
X100756281Y-57315082D01*
X100717742Y-57264856D01*
X100692141Y-57198636D01*
X100706406Y-57129087D01*
X100717741Y-57111448D01*
X100721626Y-57106385D01*
X100765788Y-57048832D01*
X100826095Y-56903240D01*
X100846664Y-56747000D01*
X100839081Y-56689404D01*
X100826095Y-56590760D01*
X100826093Y-56590755D01*
X100765790Y-56445173D01*
X100765788Y-56445168D01*
X100669855Y-56320145D01*
X100544832Y-56224212D01*
X100544829Y-56224210D01*
X100544826Y-56224209D01*
X100399244Y-56163906D01*
X100399239Y-56163904D01*
X100243000Y-56143336D01*
X100086760Y-56163904D01*
X100086755Y-56163906D01*
X99941173Y-56224209D01*
X99941166Y-56224213D01*
X99816145Y-56320145D01*
X99720213Y-56445166D01*
X99720209Y-56445173D01*
X99659906Y-56590755D01*
X99659904Y-56590760D01*
X99639336Y-56746999D01*
X99639336Y-56747000D01*
X99659904Y-56903239D01*
X99659906Y-56903244D01*
X99720209Y-57048826D01*
X99720216Y-57048838D01*
X99767258Y-57110145D01*
X99792858Y-57176365D01*
X99778593Y-57245914D01*
X99767259Y-57263551D01*
X99719213Y-57326166D01*
X99719209Y-57326173D01*
X99658906Y-57471755D01*
X99658904Y-57471760D01*
X99638336Y-57627999D01*
X99638336Y-57628000D01*
X95767366Y-57628000D01*
X95772147Y-57618616D01*
X95782473Y-57601766D01*
X95796339Y-57582683D01*
X95803627Y-57560249D01*
X95811194Y-57541980D01*
X95821905Y-57520962D01*
X95822570Y-57516767D01*
X95825594Y-57497669D01*
X95830207Y-57478446D01*
X95837501Y-57456001D01*
X95837501Y-57322799D01*
X95837501Y-57315082D01*
X95837500Y-57315064D01*
X95837500Y-57106385D01*
X95857502Y-57038264D01*
X95911158Y-56991771D01*
X95917261Y-56989175D01*
X96000879Y-56956202D01*
X96119926Y-56865926D01*
X96152615Y-56822817D01*
X96209711Y-56780626D01*
X96280557Y-56776000D01*
X96342658Y-56810410D01*
X96360253Y-56832805D01*
X96433365Y-56951339D01*
X96433370Y-56951345D01*
X96558654Y-57076629D01*
X96558660Y-57076634D01*
X96709474Y-57169657D01*
X96794500Y-57197831D01*
X96794500Y-56528000D01*
X97794500Y-56528000D01*
X97794500Y-57197831D01*
X97879525Y-57169657D01*
X98030339Y-57076634D01*
X98030345Y-57076629D01*
X98155629Y-56951345D01*
X98155634Y-56951339D01*
X98248657Y-56800525D01*
X98304393Y-56632321D01*
X98304394Y-56632318D01*
X98314999Y-56528516D01*
X98315000Y-56528516D01*
X98315000Y-56528000D01*
X97794500Y-56528000D01*
X96794500Y-56528000D01*
X96794500Y-54127000D01*
X97794500Y-54127000D01*
X97794500Y-55528000D01*
X98315000Y-55528000D01*
X98315000Y-55527483D01*
X98304394Y-55423681D01*
X98304393Y-55423678D01*
X98248657Y-55255474D01*
X98155634Y-55104660D01*
X98155629Y-55104654D01*
X98030345Y-54979370D01*
X98030339Y-54979365D01*
X97957991Y-54934741D01*
X97910513Y-54881955D01*
X97899110Y-54811881D01*
X97927402Y-54746765D01*
X97957991Y-54720259D01*
X98030339Y-54675634D01*
X98030345Y-54675629D01*
X98155629Y-54550345D01*
X98155634Y-54550339D01*
X98248657Y-54399525D01*
X98304393Y-54231321D01*
X98304394Y-54231318D01*
X98314999Y-54127516D01*
X98315000Y-54127516D01*
X98315000Y-54127000D01*
X97794500Y-54127000D01*
X96794500Y-54127000D01*
X96794500Y-51776000D01*
X97794500Y-51776000D01*
X97794500Y-53127000D01*
X98315000Y-53127000D01*
X98315000Y-53126483D01*
X98304394Y-53022681D01*
X98304393Y-53022678D01*
X98248657Y-52854474D01*
X98155634Y-52703660D01*
X98155629Y-52703654D01*
X98030345Y-52578370D01*
X98030336Y-52578363D01*
X97998523Y-52558741D01*
X97951044Y-52505956D01*
X97939641Y-52435881D01*
X97967933Y-52370765D01*
X97998523Y-52344259D01*
X98030336Y-52324636D01*
X98030345Y-52324629D01*
X98155629Y-52199345D01*
X98155634Y-52199339D01*
X98248657Y-52048525D01*
X98304393Y-51880321D01*
X98304394Y-51880318D01*
X98314999Y-51776516D01*
X98315000Y-51776516D01*
X98315000Y-51776000D01*
X97794500Y-51776000D01*
X96794500Y-51776000D01*
X96794500Y-50106167D01*
X97794500Y-50106167D01*
X97794500Y-50776000D01*
X98315000Y-50776000D01*
X98315000Y-50775483D01*
X98304394Y-50671681D01*
X98304393Y-50671678D01*
X98248657Y-50503474D01*
X98155634Y-50352660D01*
X98155629Y-50352654D01*
X98030345Y-50227370D01*
X98030339Y-50227365D01*
X97879522Y-50134341D01*
X97794500Y-50106167D01*
X96794500Y-50106167D01*
X96794499Y-50106167D01*
X96709477Y-50134341D01*
X96558660Y-50227365D01*
X96558654Y-50227370D01*
X96433370Y-50352654D01*
X96433365Y-50352660D01*
X96360253Y-50471194D01*
X96307467Y-50518672D01*
X96237392Y-50530075D01*
X96172276Y-50501782D01*
X96152614Y-50481180D01*
X96119926Y-50438073D01*
X96014559Y-50358172D01*
X96000879Y-50347798D01*
X96000877Y-50347797D01*
X96000870Y-50347793D01*
X95861896Y-50292990D01*
X95861887Y-50292988D01*
X95774553Y-50282500D01*
X95774550Y-50282500D01*
X95164450Y-50282500D01*
X95164446Y-50282500D01*
X95077112Y-50292988D01*
X95077103Y-50292990D01*
X94938129Y-50347793D01*
X94938119Y-50347799D01*
X94819073Y-50438073D01*
X94728799Y-50557119D01*
X94728793Y-50557129D01*
X94673990Y-50696103D01*
X94673988Y-50696112D01*
X94663500Y-50783446D01*
X94663500Y-51386960D01*
X94643498Y-51455081D01*
X94626446Y-51476205D01*
X94114753Y-51986183D01*
X94052384Y-52020103D01*
X93981576Y-52014920D01*
X93936712Y-51986033D01*
X93879099Y-51928420D01*
X93879068Y-51928391D01*
X92933621Y-50982944D01*
X92933609Y-50982930D01*
X92836405Y-50885726D01*
X92802379Y-50823414D01*
X92799500Y-50796631D01*
X92799500Y-50733451D01*
X92799500Y-50733450D01*
X92789011Y-50646109D01*
X92789009Y-50646103D01*
X92734206Y-50507129D01*
X92734203Y-50507124D01*
X92734202Y-50507121D01*
X92681842Y-50438074D01*
X92643926Y-50388073D01*
X92524880Y-50297799D01*
X92524881Y-50297799D01*
X92524879Y-50297798D01*
X92524877Y-50297797D01*
X92524870Y-50297793D01*
X92385896Y-50242990D01*
X92385887Y-50242988D01*
X92298553Y-50232500D01*
X92298550Y-50232500D01*
X91688450Y-50232500D01*
X91688446Y-50232500D01*
X91601112Y-50242988D01*
X91601103Y-50242990D01*
X91462129Y-50297793D01*
X91462119Y-50297799D01*
X91343073Y-50388073D01*
X91252799Y-50507119D01*
X91252793Y-50507129D01*
X91198215Y-50645534D01*
X91154618Y-50701568D01*
X91087647Y-50725136D01*
X91018566Y-50708755D01*
X90969307Y-50657627D01*
X90963785Y-50645534D01*
X90909206Y-50507129D01*
X90909203Y-50507124D01*
X90909202Y-50507121D01*
X90856842Y-50438074D01*
X90818926Y-50388073D01*
X90699880Y-50297799D01*
X90699881Y-50297799D01*
X90699879Y-50297798D01*
X90699877Y-50297797D01*
X90699870Y-50297793D01*
X90560896Y-50242990D01*
X90560887Y-50242988D01*
X90473553Y-50232500D01*
X90473550Y-50232500D01*
X89863450Y-50232500D01*
X89863446Y-50232500D01*
X89776112Y-50242988D01*
X89776103Y-50242990D01*
X89637129Y-50297793D01*
X89637119Y-50297799D01*
X89571433Y-50347610D01*
X89505068Y-50372833D01*
X89435601Y-50358172D01*
X89385089Y-50308282D01*
X89369300Y-50247212D01*
X89369300Y-45286350D01*
X89389302Y-45218229D01*
X89420478Y-45184971D01*
X89438656Y-45171556D01*
X89517599Y-45064593D01*
X89561506Y-44939113D01*
X89564300Y-44909318D01*
X89564300Y-44508082D01*
X89561506Y-44478287D01*
X89545493Y-44432525D01*
X89517601Y-44352812D01*
X89517600Y-44352809D01*
X89517599Y-44352807D01*
X89477533Y-44298520D01*
X89453176Y-44231834D01*
X89468738Y-44162564D01*
X89477530Y-44148883D01*
X89517599Y-44094593D01*
X89561506Y-43969113D01*
X89564300Y-43939318D01*
X89564300Y-43538082D01*
X89561506Y-43508287D01*
X89550341Y-43476380D01*
X89517601Y-43382812D01*
X89517600Y-43382809D01*
X89490191Y-43345672D01*
X89438656Y-43275844D01*
X89349619Y-43210131D01*
X89322504Y-43182811D01*
X89314561Y-43171878D01*
X89304231Y-43155022D01*
X89293594Y-43134145D01*
X84608099Y-38448650D01*
X84574073Y-38386338D01*
X84572272Y-38376000D01*
X84555495Y-38248561D01*
X84555493Y-38248555D01*
X84495190Y-38102973D01*
X84495188Y-38102968D01*
X84399255Y-37977945D01*
X84274232Y-37882012D01*
X84274229Y-37882010D01*
X84274226Y-37882009D01*
X84128644Y-37821706D01*
X84128639Y-37821704D01*
X83972400Y-37801136D01*
X83816160Y-37821704D01*
X83816155Y-37821706D01*
X83670573Y-37882009D01*
X83670566Y-37882013D01*
X83545545Y-37977945D01*
X83449613Y-38102966D01*
X83449609Y-38102973D01*
X83389306Y-38248555D01*
X83389304Y-38248560D01*
X83368736Y-38404799D01*
X83368736Y-38404800D01*
X83389304Y-38561039D01*
X83389306Y-38561044D01*
X83449609Y-38706626D01*
X83449610Y-38706629D01*
X83449612Y-38706632D01*
X83545545Y-38831655D01*
X83670568Y-38927588D01*
X83816160Y-38987895D01*
X83943601Y-39004672D01*
X84008528Y-39033394D01*
X84016250Y-39040499D01*
X88321423Y-43345672D01*
X88355449Y-43407984D01*
X88351258Y-43476380D01*
X88340094Y-43508284D01*
X88340094Y-43508287D01*
X88337300Y-43538079D01*
X88337300Y-43939320D01*
X88340094Y-43969116D01*
X88383998Y-44094587D01*
X88383999Y-44094590D01*
X88424066Y-44148879D01*
X88448423Y-44215567D01*
X88432860Y-44284837D01*
X88424066Y-44298521D01*
X88383999Y-44352809D01*
X88383998Y-44352812D01*
X88340094Y-44478283D01*
X88337300Y-44508079D01*
X88337300Y-44909320D01*
X88340094Y-44939116D01*
X88383998Y-45064587D01*
X88383999Y-45064590D01*
X88384000Y-45064592D01*
X88384001Y-45064593D01*
X88462944Y-45171556D01*
X88481120Y-45184970D01*
X88524053Y-45241513D01*
X88532300Y-45286350D01*
X88532300Y-55433260D01*
X88512298Y-55501381D01*
X88495395Y-55522355D01*
X87184022Y-56833727D01*
X87184020Y-56833730D01*
X87108006Y-56909743D01*
X87097366Y-56930625D01*
X87087040Y-56947475D01*
X87073267Y-56966433D01*
X87073263Y-56966440D01*
X87066022Y-56988724D01*
X87058461Y-57006980D01*
X87047820Y-57027865D01*
X87044153Y-57051016D01*
X87039540Y-57070230D01*
X87032300Y-57092515D01*
X87032300Y-62675084D01*
X87039540Y-62697368D01*
X87044154Y-62716588D01*
X87047820Y-62739733D01*
X87047821Y-62739737D01*
X87058459Y-62760615D01*
X87066023Y-62778876D01*
X87073265Y-62801162D01*
X87073265Y-62801163D01*
X87087040Y-62820123D01*
X87097367Y-62836976D01*
X87099712Y-62841579D01*
X87108006Y-62857855D01*
X87131584Y-62881433D01*
X91308006Y-67057855D01*
X91401745Y-67151594D01*
X91422629Y-67162234D01*
X91439475Y-67172559D01*
X91454322Y-67183345D01*
X91459856Y-67187366D01*
X91503208Y-67243590D01*
X91509282Y-67314326D01*
X91476148Y-67377117D01*
X91414327Y-67412026D01*
X91385792Y-67415300D01*
X83168356Y-67415300D01*
X83151909Y-67414222D01*
X83121200Y-67410179D01*
X83082303Y-67415300D01*
X82966266Y-67430576D01*
X82821891Y-67490378D01*
X82821888Y-67490380D01*
X82697911Y-67585510D01*
X82679046Y-67610095D01*
X82668181Y-67622482D01*
X80561474Y-69729188D01*
X80549086Y-69740053D01*
X80524512Y-69758910D01*
X80487964Y-69806537D01*
X80487965Y-69806538D01*
X80429380Y-69882888D01*
X80429378Y-69882891D01*
X80369576Y-70027266D01*
X80349179Y-70182199D01*
X80353222Y-70212908D01*
X80354300Y-70229355D01*
X80354300Y-70425300D01*
X80334298Y-70493421D01*
X80280642Y-70539914D01*
X80228300Y-70551300D01*
X78559190Y-70551300D01*
X78473007Y-70560566D01*
X78420659Y-70571953D01*
X78349010Y-70594669D01*
X78241313Y-70661728D01*
X78241309Y-70661731D01*
X78187662Y-70708216D01*
X78118470Y-70785801D01*
X78064129Y-70900429D01*
X78064128Y-70900432D01*
X78064127Y-70900437D01*
X78044125Y-70968558D01*
X78027700Y-71082800D01*
X78027700Y-71082802D01*
X78027700Y-74793209D01*
X70000500Y-74793209D01*
X70000500Y-36000001D01*
X92287050Y-36000001D01*
X92306829Y-36327007D01*
X92306830Y-36327010D01*
X92365880Y-36649238D01*
X92365882Y-36649247D01*
X92463348Y-36962024D01*
X92597803Y-37260772D01*
X92761436Y-37531455D01*
X92761437Y-37531455D01*
X93951028Y-36341864D01*
X93955770Y-36361411D01*
X94043038Y-36552502D01*
X94164894Y-36723624D01*
X94316932Y-36868592D01*
X94493658Y-36982167D01*
X94658818Y-37048287D01*
X93468543Y-38238561D01*
X93468543Y-38238562D01*
X93739223Y-38402195D01*
X94037975Y-38536651D01*
X94350752Y-38634117D01*
X94350761Y-38634119D01*
X94672989Y-38693169D01*
X94672992Y-38693170D01*
X94999999Y-38712950D01*
X95000001Y-38712950D01*
X95327007Y-38693170D01*
X95327010Y-38693169D01*
X95649238Y-38634119D01*
X95649247Y-38634117D01*
X95962024Y-38536651D01*
X96260776Y-38402195D01*
X96531455Y-38238561D01*
X95339613Y-37046719D01*
X95410689Y-37025850D01*
X95597410Y-36929589D01*
X95762540Y-36799729D01*
X95900110Y-36640965D01*
X96005147Y-36459035D01*
X96046541Y-36339435D01*
X97238561Y-37531455D01*
X97402195Y-37260776D01*
X97536651Y-36962024D01*
X97634117Y-36649247D01*
X97634119Y-36649238D01*
X97693169Y-36327010D01*
X97693170Y-36327007D01*
X97712950Y-36000001D01*
X97712950Y-35999998D01*
X97712454Y-35991800D01*
X98049936Y-35991800D01*
X98070504Y-36148039D01*
X98070506Y-36148044D01*
X98130809Y-36293626D01*
X98130810Y-36293629D01*
X98130812Y-36293632D01*
X98207063Y-36393005D01*
X98232663Y-36459225D01*
X98233100Y-36469708D01*
X98233100Y-49074664D01*
X98233099Y-49074682D01*
X98233099Y-49215602D01*
X98240390Y-49238044D01*
X98245004Y-49257264D01*
X98248693Y-49280557D01*
X98248696Y-49280564D01*
X98259405Y-49301583D01*
X98266970Y-49319845D01*
X98274261Y-49342284D01*
X98288123Y-49361363D01*
X98298455Y-49378222D01*
X98309166Y-49399244D01*
X98309168Y-49399247D01*
X98410530Y-49500609D01*
X98410544Y-49500621D01*
X103752756Y-54842833D01*
X103752777Y-54842856D01*
X103851352Y-54941431D01*
X103851354Y-54941432D01*
X103851355Y-54941433D01*
X103872371Y-54952141D01*
X103889230Y-54962472D01*
X103908312Y-54976336D01*
X103908314Y-54976337D01*
X103908317Y-54976339D01*
X103930753Y-54983628D01*
X103949010Y-54991190D01*
X103970038Y-55001905D01*
X103993347Y-55005596D01*
X104012548Y-55010206D01*
X104034999Y-55017501D01*
X104035002Y-55017501D01*
X104178352Y-55017501D01*
X104178364Y-55017500D01*
X107844572Y-55017500D01*
X107912693Y-55037502D01*
X107959186Y-55091158D01*
X107969290Y-55161432D01*
X107947307Y-55212897D01*
X107948524Y-55213633D01*
X107855633Y-55367293D01*
X107826745Y-55460000D01*
X110385255Y-55460000D01*
X110356366Y-55367293D01*
X110267421Y-55220159D01*
X110267413Y-55220149D01*
X110187975Y-55140711D01*
X110153949Y-55078399D01*
X110159013Y-55007586D01*
X110193181Y-54915980D01*
X110199500Y-54857205D01*
X110199499Y-54362796D01*
X110193181Y-54304020D01*
X110143589Y-54171058D01*
X110143587Y-54171055D01*
X110143587Y-54171054D01*
X110060833Y-54060508D01*
X110036022Y-53993988D01*
X110051113Y-53924614D01*
X110060834Y-53909489D01*
X110121096Y-53828990D01*
X110177932Y-53786444D01*
X110221963Y-53778500D01*
X110436861Y-53778500D01*
X110504982Y-53798502D01*
X110525956Y-53815405D01*
X118236406Y-61525855D01*
X118330145Y-61619594D01*
X118351029Y-61630234D01*
X118367877Y-61640560D01*
X118386837Y-61654335D01*
X118409119Y-61661575D01*
X118427382Y-61669139D01*
X118448264Y-61679779D01*
X118455910Y-61680990D01*
X118471409Y-61683445D01*
X118490637Y-61688061D01*
X118512916Y-61695300D01*
X118512917Y-61695300D01*
X118546261Y-61695300D01*
X126200874Y-61695300D01*
X126268995Y-61715302D01*
X126294653Y-61738467D01*
X126294826Y-61738295D01*
X126298198Y-61741667D01*
X126299382Y-61742736D01*
X126299835Y-61743304D01*
X126418299Y-61861768D01*
X126418302Y-61861770D01*
X126560166Y-61950909D01*
X126718309Y-62006246D01*
X126884800Y-62025005D01*
X127051291Y-62006246D01*
X127209434Y-61950909D01*
X127351298Y-61861770D01*
X127469770Y-61743298D01*
X127558909Y-61601434D01*
X127614246Y-61443291D01*
X127633005Y-61276800D01*
X127614246Y-61110309D01*
X127558909Y-60952166D01*
X127469770Y-60810302D01*
X127469768Y-60810299D01*
X127433319Y-60773850D01*
X127399293Y-60711538D01*
X127404358Y-60640723D01*
X127433317Y-60595661D01*
X127509109Y-60519870D01*
X127604243Y-60368465D01*
X127663300Y-60199688D01*
X127683321Y-60022000D01*
X127663300Y-59844312D01*
X127625029Y-59734941D01*
X127621412Y-59664038D01*
X127656701Y-59602433D01*
X127719695Y-59569687D01*
X127743960Y-59567328D01*
X127977178Y-59567328D01*
X128014000Y-59558922D01*
X128027930Y-59556556D01*
X128065460Y-59552328D01*
X128101108Y-59539853D01*
X128114679Y-59535944D01*
X128151507Y-59527539D01*
X128185542Y-59511147D01*
X128198576Y-59505748D01*
X128234237Y-59493271D01*
X128266225Y-59473170D01*
X128278578Y-59466343D01*
X128312610Y-59449955D01*
X128342137Y-59426406D01*
X128353659Y-59418233D01*
X128380509Y-59401362D01*
X128385642Y-59398137D01*
X128512081Y-59271698D01*
X128522447Y-59261332D01*
X128522454Y-59261322D01*
X128977400Y-58806379D01*
X129009109Y-58774670D01*
X129029207Y-58742681D01*
X129037370Y-58731176D01*
X129060927Y-58701638D01*
X129077315Y-58667606D01*
X129084146Y-58655248D01*
X129098167Y-58632935D01*
X129104243Y-58623265D01*
X129116720Y-58587604D01*
X129122116Y-58574576D01*
X129138511Y-58540535D01*
X129146917Y-58503701D01*
X129150828Y-58490130D01*
X129152910Y-58484180D01*
X129163300Y-58454488D01*
X129167528Y-58416956D01*
X129169894Y-58403037D01*
X129178301Y-58366204D01*
X129178301Y-58181182D01*
X129178300Y-58181160D01*
X129178300Y-46382503D01*
X129181459Y-46354466D01*
X129183221Y-46346745D01*
X129194300Y-46298206D01*
X129194300Y-46119394D01*
X129191521Y-46107220D01*
X129175717Y-46037975D01*
X129154511Y-45945065D01*
X129076927Y-45783962D01*
X129076926Y-45783961D01*
X129076926Y-45783960D01*
X128991195Y-45676457D01*
X128991195Y-45676456D01*
X128991188Y-45676448D01*
X128965441Y-45644162D01*
X128935905Y-45620608D01*
X128925371Y-45611193D01*
X124208182Y-40894004D01*
X125801387Y-40894004D01*
X125821795Y-41114243D01*
X125882324Y-41326983D01*
X125882327Y-41326989D01*
X125980919Y-41524988D01*
X125980920Y-41524989D01*
X126105815Y-41690379D01*
X126114214Y-41701500D01*
X126187024Y-41767875D01*
X126277674Y-41850514D01*
X126277675Y-41850515D01*
X126465722Y-41966949D01*
X126465729Y-41966952D01*
X126465732Y-41966954D01*
X126465736Y-41966955D01*
X126465737Y-41966956D01*
X126671979Y-42046855D01*
X126671984Y-42046857D01*
X126889406Y-42087500D01*
X126889408Y-42087500D01*
X127110592Y-42087500D01*
X127110594Y-42087500D01*
X127328016Y-42046857D01*
X127534268Y-41966954D01*
X127534273Y-41966950D01*
X127534277Y-41966949D01*
X127697086Y-41866142D01*
X127722326Y-41850514D01*
X127885786Y-41701500D01*
X128019081Y-41524988D01*
X128117673Y-41326989D01*
X128121771Y-41312588D01*
X128171369Y-41138266D01*
X128178204Y-41114245D01*
X128198613Y-40894000D01*
X128178204Y-40673755D01*
X128158222Y-40603527D01*
X128117675Y-40461016D01*
X128117673Y-40461011D01*
X128019081Y-40263012D01*
X127907687Y-40115502D01*
X127885787Y-40086501D01*
X127722325Y-39937485D01*
X127722324Y-39937484D01*
X127534277Y-39821050D01*
X127534262Y-39821043D01*
X127328020Y-39741144D01*
X127328021Y-39741144D01*
X127328016Y-39741143D01*
X127110594Y-39700500D01*
X126889406Y-39700500D01*
X126725337Y-39731169D01*
X126671978Y-39741144D01*
X126465737Y-39821043D01*
X126465722Y-39821050D01*
X126277675Y-39937484D01*
X126277674Y-39937485D01*
X126114212Y-40086501D01*
X125980920Y-40263010D01*
X125882324Y-40461016D01*
X125821795Y-40673756D01*
X125801387Y-40893995D01*
X125801387Y-40894004D01*
X124208182Y-40894004D01*
X123717497Y-40403319D01*
X123717485Y-40403305D01*
X123583871Y-40269691D01*
X123551879Y-40249589D01*
X123540364Y-40241419D01*
X123517148Y-40222905D01*
X123510837Y-40217872D01*
X123476814Y-40201487D01*
X123464453Y-40194655D01*
X123432465Y-40174557D01*
X123432466Y-40174557D01*
X123396814Y-40162082D01*
X123383761Y-40156675D01*
X123349738Y-40140290D01*
X123349729Y-40140287D01*
X123312907Y-40131882D01*
X123299335Y-40127972D01*
X123263694Y-40115501D01*
X123263686Y-40115499D01*
X123226155Y-40111270D01*
X123212227Y-40108904D01*
X123175407Y-40100500D01*
X123175406Y-40100500D01*
X123130562Y-40100500D01*
X122869956Y-40100500D01*
X122801835Y-40080498D01*
X122785070Y-40067615D01*
X122642325Y-39937485D01*
X122642324Y-39937484D01*
X122454277Y-39821050D01*
X122454262Y-39821043D01*
X122248020Y-39741144D01*
X122248021Y-39741144D01*
X122248016Y-39741143D01*
X122030594Y-39700500D01*
X121809406Y-39700500D01*
X121645337Y-39731169D01*
X121591978Y-39741144D01*
X121385737Y-39821043D01*
X121385722Y-39821050D01*
X121197675Y-39937484D01*
X121197674Y-39937485D01*
X121054930Y-40067615D01*
X120991113Y-40098726D01*
X120970044Y-40100500D01*
X108305006Y-40100500D01*
X108126194Y-40100500D01*
X108090847Y-40108567D01*
X108089369Y-40108905D01*
X108075445Y-40111270D01*
X108037915Y-40115499D01*
X108037901Y-40115502D01*
X108002258Y-40127974D01*
X107988688Y-40131884D01*
X107951865Y-40140289D01*
X107951859Y-40140292D01*
X107917840Y-40156674D01*
X107904791Y-40162079D01*
X107869141Y-40174554D01*
X107869135Y-40174557D01*
X107837143Y-40194657D01*
X107824785Y-40201487D01*
X107790759Y-40217873D01*
X107790758Y-40217874D01*
X107761234Y-40241419D01*
X107749714Y-40249593D01*
X107717731Y-40269689D01*
X107654511Y-40332909D01*
X107591291Y-40396130D01*
X105661693Y-42325727D01*
X105661691Y-42325729D01*
X105641590Y-42357719D01*
X105633419Y-42369235D01*
X105609869Y-42398766D01*
X105606107Y-42404755D01*
X105605026Y-42404075D01*
X105562339Y-42451341D01*
X105493822Y-42469939D01*
X105426126Y-42448542D01*
X105380746Y-42393942D01*
X105376806Y-42383598D01*
X105327657Y-42235275D01*
X105234633Y-42084460D01*
X105234628Y-42084454D01*
X105109345Y-41959171D01*
X105109339Y-41959166D01*
X104958525Y-41866142D01*
X104790321Y-41810406D01*
X104790318Y-41810405D01*
X104686515Y-41799800D01*
X103886000Y-41799800D01*
X103886000Y-44915799D01*
X104686507Y-44915799D01*
X104790318Y-44905194D01*
X104958525Y-44849457D01*
X105109339Y-44756433D01*
X105109345Y-44756428D01*
X105234628Y-44631145D01*
X105234633Y-44631139D01*
X105259259Y-44591215D01*
X105312045Y-44543737D01*
X105382120Y-44532334D01*
X105447236Y-44560626D01*
X105486718Y-44619632D01*
X105492500Y-44657362D01*
X105492500Y-45173122D01*
X105472498Y-45241243D01*
X105442009Y-45273990D01*
X105333453Y-45355253D01*
X105248412Y-45468854D01*
X105248412Y-45468855D01*
X105198819Y-45601819D01*
X105192500Y-45660587D01*
X105192500Y-46154996D01*
X105192502Y-46155020D01*
X105198818Y-46213776D01*
X105198818Y-46213778D01*
X105198819Y-46213780D01*
X105230584Y-46298945D01*
X105248412Y-46346744D01*
X105248413Y-46346745D01*
X105331166Y-46457291D01*
X105355977Y-46523811D01*
X105340885Y-46593186D01*
X105331166Y-46608309D01*
X105248413Y-46718854D01*
X105248412Y-46718855D01*
X105198819Y-46851819D01*
X105192500Y-46910587D01*
X105192500Y-47404996D01*
X105192502Y-47405020D01*
X105198818Y-47463776D01*
X105198818Y-47463778D01*
X105198819Y-47463780D01*
X105237469Y-47567405D01*
X105248412Y-47596744D01*
X105248412Y-47596745D01*
X105333453Y-47710346D01*
X105442009Y-47791609D01*
X105484556Y-47848444D01*
X105492500Y-47892477D01*
X105492500Y-48408237D01*
X105472498Y-48476358D01*
X105418842Y-48522851D01*
X105348568Y-48532955D01*
X105283988Y-48503461D01*
X105259260Y-48474385D01*
X105234635Y-48434463D01*
X105234628Y-48434454D01*
X105109345Y-48309171D01*
X105109339Y-48309166D01*
X104958525Y-48216142D01*
X104790321Y-48160406D01*
X104790318Y-48160405D01*
X104686515Y-48149800D01*
X103886000Y-48149800D01*
X103886000Y-51265799D01*
X104686507Y-51265799D01*
X104790318Y-51255194D01*
X104958525Y-51199457D01*
X105109339Y-51106433D01*
X105109345Y-51106428D01*
X105234628Y-50981145D01*
X105234633Y-50981139D01*
X105259259Y-50941215D01*
X105312045Y-50893737D01*
X105382120Y-50882334D01*
X105447236Y-50910626D01*
X105486718Y-50969632D01*
X105490832Y-50996477D01*
X105491708Y-50996379D01*
X105492499Y-51003404D01*
X105500904Y-51040227D01*
X105503270Y-51054155D01*
X105507499Y-51091686D01*
X105507501Y-51091694D01*
X105519972Y-51127335D01*
X105523882Y-51140907D01*
X105532287Y-51177729D01*
X105532290Y-51177738D01*
X105548675Y-51211761D01*
X105554082Y-51224814D01*
X105566557Y-51260466D01*
X105586655Y-51292453D01*
X105593487Y-51304814D01*
X105609872Y-51338837D01*
X105609873Y-51338838D01*
X105633420Y-51368365D01*
X105641589Y-51379879D01*
X105661691Y-51411871D01*
X105795305Y-51545485D01*
X105795319Y-51545497D01*
X106853280Y-52603458D01*
X106853301Y-52603481D01*
X106984127Y-52734307D01*
X106984130Y-52734309D01*
X107016107Y-52754402D01*
X107027629Y-52762577D01*
X107049387Y-52779927D01*
X107057161Y-52786127D01*
X107091192Y-52802515D01*
X107103553Y-52809347D01*
X107135535Y-52829443D01*
X107171195Y-52841920D01*
X107184222Y-52847316D01*
X107218264Y-52863710D01*
X107255095Y-52872116D01*
X107268654Y-52876022D01*
X107304312Y-52888500D01*
X107341846Y-52892728D01*
X107355754Y-52895090D01*
X107392594Y-52903500D01*
X107437438Y-52903500D01*
X107895143Y-52903500D01*
X107963264Y-52923502D01*
X108009757Y-52977158D01*
X108019861Y-53047432D01*
X108019091Y-53051490D01*
X108012500Y-53112787D01*
X108012500Y-53607196D01*
X108012502Y-53607220D01*
X108018818Y-53665976D01*
X108018818Y-53665978D01*
X108018819Y-53665980D01*
X108035020Y-53709416D01*
X108068412Y-53798944D01*
X108068413Y-53798945D01*
X108151166Y-53909491D01*
X108175977Y-53976011D01*
X108160885Y-54045386D01*
X108151167Y-54060508D01*
X108102135Y-54126008D01*
X108045299Y-54168555D01*
X108001266Y-54176500D01*
X104327967Y-54176500D01*
X104259846Y-54156498D01*
X104238872Y-54139595D01*
X100307077Y-50207800D01*
X101378001Y-50207800D01*
X101378001Y-50558307D01*
X101388605Y-50662118D01*
X101444342Y-50830325D01*
X101537366Y-50981139D01*
X101537371Y-50981145D01*
X101662654Y-51106428D01*
X101662660Y-51106433D01*
X101813474Y-51199457D01*
X101981678Y-51255193D01*
X101981681Y-51255194D01*
X102085484Y-51265799D01*
X102886000Y-51265799D01*
X102886000Y-50207800D01*
X101378001Y-50207800D01*
X100307077Y-50207800D01*
X99307077Y-49207800D01*
X101378000Y-49207800D01*
X102886000Y-49207800D01*
X102886000Y-48149800D01*
X102085492Y-48149800D01*
X101981681Y-48160405D01*
X101813474Y-48216142D01*
X101662660Y-48309166D01*
X101662654Y-48309171D01*
X101537371Y-48434454D01*
X101537366Y-48434460D01*
X101444342Y-48585274D01*
X101388606Y-48753478D01*
X101388605Y-48753481D01*
X101378000Y-48857284D01*
X101378000Y-49207800D01*
X99307077Y-49207800D01*
X99111005Y-49011728D01*
X99076979Y-48949416D01*
X99074100Y-48922633D01*
X99074100Y-43857800D01*
X101378001Y-43857800D01*
X101378001Y-44208307D01*
X101388605Y-44312118D01*
X101444342Y-44480325D01*
X101537366Y-44631139D01*
X101537371Y-44631145D01*
X101662654Y-44756428D01*
X101662660Y-44756433D01*
X101813474Y-44849457D01*
X101981678Y-44905193D01*
X101981681Y-44905194D01*
X102085484Y-44915799D01*
X102886000Y-44915799D01*
X102886000Y-43857800D01*
X101378001Y-43857800D01*
X99074100Y-43857800D01*
X99074100Y-42857800D01*
X101378000Y-42857800D01*
X102886000Y-42857800D01*
X102886000Y-41799800D01*
X102085492Y-41799800D01*
X101981681Y-41810405D01*
X101813474Y-41866142D01*
X101662660Y-41959166D01*
X101662654Y-41959171D01*
X101537371Y-42084454D01*
X101537366Y-42084460D01*
X101444342Y-42235274D01*
X101388606Y-42403478D01*
X101388605Y-42403481D01*
X101378000Y-42507284D01*
X101378000Y-42857800D01*
X99074100Y-42857800D01*
X99074100Y-36469708D01*
X99094102Y-36401587D01*
X99100130Y-36393013D01*
X99176388Y-36293632D01*
X99236695Y-36148040D01*
X99256184Y-36000001D01*
X106287050Y-36000001D01*
X106306829Y-36327007D01*
X106306830Y-36327010D01*
X106365880Y-36649238D01*
X106365882Y-36649247D01*
X106463348Y-36962024D01*
X106597803Y-37260772D01*
X106761436Y-37531455D01*
X106761437Y-37531455D01*
X107951028Y-36341864D01*
X107955770Y-36361411D01*
X108043038Y-36552502D01*
X108164894Y-36723624D01*
X108316932Y-36868592D01*
X108493658Y-36982167D01*
X108658818Y-37048287D01*
X107468543Y-38238561D01*
X107468543Y-38238562D01*
X107739223Y-38402195D01*
X108037975Y-38536651D01*
X108350752Y-38634117D01*
X108350761Y-38634119D01*
X108672989Y-38693169D01*
X108672992Y-38693170D01*
X108999999Y-38712950D01*
X109000001Y-38712950D01*
X109327007Y-38693170D01*
X109327010Y-38693169D01*
X109649238Y-38634119D01*
X109649247Y-38634117D01*
X109962024Y-38536651D01*
X110260776Y-38402195D01*
X110531455Y-38238561D01*
X109339613Y-37046719D01*
X109410689Y-37025850D01*
X109597410Y-36929589D01*
X109762540Y-36799729D01*
X109900110Y-36640965D01*
X110005147Y-36459035D01*
X110046541Y-36339435D01*
X111238561Y-37531455D01*
X111402195Y-37260776D01*
X111536651Y-36962024D01*
X111634117Y-36649247D01*
X111634119Y-36649238D01*
X111693169Y-36327010D01*
X111693170Y-36327007D01*
X111712950Y-36000001D01*
X111712950Y-35999998D01*
X111693170Y-35672992D01*
X111693169Y-35672989D01*
X111634119Y-35350761D01*
X111634117Y-35350752D01*
X111536651Y-35037975D01*
X111402195Y-34739223D01*
X111238562Y-34468543D01*
X111238561Y-34468543D01*
X110048971Y-35658133D01*
X110044230Y-35638589D01*
X109956962Y-35447498D01*
X109835106Y-35276376D01*
X109683068Y-35131408D01*
X109506342Y-35017833D01*
X109341181Y-34951712D01*
X110531455Y-33761437D01*
X110531455Y-33761436D01*
X110260772Y-33597803D01*
X109962024Y-33463348D01*
X109649247Y-33365882D01*
X109649238Y-33365880D01*
X109327010Y-33306830D01*
X109327007Y-33306829D01*
X109000001Y-33287050D01*
X108999999Y-33287050D01*
X108672992Y-33306829D01*
X108672989Y-33306830D01*
X108350761Y-33365880D01*
X108350752Y-33365882D01*
X108037975Y-33463348D01*
X107739227Y-33597803D01*
X107468544Y-33761436D01*
X107468543Y-33761437D01*
X108660386Y-34953280D01*
X108589311Y-34974150D01*
X108402590Y-35070411D01*
X108237460Y-35200271D01*
X108099890Y-35359035D01*
X107994853Y-35540965D01*
X107953458Y-35660564D01*
X106761437Y-34468543D01*
X106761436Y-34468544D01*
X106597803Y-34739227D01*
X106463348Y-35037975D01*
X106365882Y-35350752D01*
X106365880Y-35350761D01*
X106306830Y-35672989D01*
X106306829Y-35672992D01*
X106287050Y-35999998D01*
X106287050Y-36000001D01*
X99256184Y-36000001D01*
X99257264Y-35991800D01*
X99236695Y-35835560D01*
X99176388Y-35689968D01*
X99080455Y-35564945D01*
X98955432Y-35469012D01*
X98955429Y-35469010D01*
X98955426Y-35469009D01*
X98809844Y-35408706D01*
X98809839Y-35408704D01*
X98653600Y-35388136D01*
X98497360Y-35408704D01*
X98497355Y-35408706D01*
X98351773Y-35469009D01*
X98351766Y-35469013D01*
X98226745Y-35564945D01*
X98130813Y-35689966D01*
X98130809Y-35689973D01*
X98070506Y-35835555D01*
X98070504Y-35835560D01*
X98049936Y-35991799D01*
X98049936Y-35991800D01*
X97712454Y-35991800D01*
X97693170Y-35672992D01*
X97693169Y-35672989D01*
X97634119Y-35350761D01*
X97634117Y-35350752D01*
X97536651Y-35037975D01*
X97402195Y-34739223D01*
X97238562Y-34468543D01*
X97238561Y-34468543D01*
X96048971Y-35658133D01*
X96044230Y-35638589D01*
X95956962Y-35447498D01*
X95835106Y-35276376D01*
X95683068Y-35131408D01*
X95506342Y-35017833D01*
X95341181Y-34951712D01*
X96531455Y-33761437D01*
X96531455Y-33761436D01*
X96260772Y-33597803D01*
X95962024Y-33463348D01*
X95649247Y-33365882D01*
X95649238Y-33365880D01*
X95327010Y-33306830D01*
X95327007Y-33306829D01*
X95000001Y-33287050D01*
X94999999Y-33287050D01*
X94672992Y-33306829D01*
X94672989Y-33306830D01*
X94350761Y-33365880D01*
X94350752Y-33365882D01*
X94037975Y-33463348D01*
X93739227Y-33597803D01*
X93468544Y-33761436D01*
X93468543Y-33761437D01*
X94660386Y-34953280D01*
X94589311Y-34974150D01*
X94402590Y-35070411D01*
X94237460Y-35200271D01*
X94099890Y-35359035D01*
X93994853Y-35540965D01*
X93953458Y-35660564D01*
X92761437Y-34468543D01*
X92761436Y-34468544D01*
X92597803Y-34739227D01*
X92463348Y-35037975D01*
X92365882Y-35350752D01*
X92365880Y-35350761D01*
X92306830Y-35672989D01*
X92306829Y-35672992D01*
X92287050Y-35999998D01*
X92287050Y-36000001D01*
X70000500Y-36000001D01*
X70000500Y-31126500D01*
X70020502Y-31058379D01*
X70074158Y-31011886D01*
X70126500Y-31000500D01*
X133873500Y-31000500D01*
X133941621Y-31020502D01*
G37*
%TD.AperFunction*%
%TD*%
%TA.AperFunction,Conductor*%
%TO.N,/SOLAR_Y*%
G36*
X83353721Y-70976802D02*
G01*
X83400214Y-71030458D01*
X83411600Y-71082800D01*
X83411600Y-74793200D01*
X83391598Y-74861321D01*
X83337942Y-74907814D01*
X83285600Y-74919200D01*
X78559200Y-74919200D01*
X78491079Y-74899198D01*
X78444586Y-74845542D01*
X78433200Y-74793200D01*
X78433200Y-71082800D01*
X78453202Y-71014679D01*
X78506858Y-70968186D01*
X78559200Y-70956800D01*
X83285600Y-70956800D01*
X83353721Y-70976802D01*
G37*
%TD.AperFunction*%
%TD*%
M02*
