  0
SECTION
  2
HEADER
  9
$ANGBASE
  50
0.0
  9
$ANGDIR
  70
1
  9
$MEASUREMENT
  70
1
  0
ENDSEC
  0
SECTION
  2
TABLES
  0
TABLE
  2
LTYPE
  70
4
  0
LTYPE
  5
40F
  2
CONTINUOUS
  70
0
  3
Solid line
  72
65
  73
0
  40
0.0
  0
LTYPE
  5
410
  2
DASHDOT
 70
0
  3
Dash Dot ____ _ ____ _
 72
65
 73
4
 40
2.0
 49
1.25
 49
-0.25
 49
0.25
 49
-0.25
  0
LTYPE
  5
411
  2
DASHED
 70
0
  3
Dashed __ __ __ __ __
 72
65
 73
2
 40
0.75
 49
0.5
 49
-0.25
  0
LTYPE
  5
43B
  2
DOTTED
 70
0
  3
Dotted .  .  .  .
 72
65
 73
2
 40
0.2
 49
0.0
 49
-0.2
  0
ENDTAB
  0
TABLE
  2
STYLE
  70
4
  0
STYLE
  2
KICAD
  70
0
  40
0
  41
1
  42
1
  50
0
  71
0
  3
isocp.shx
  0
STYLE
  2
KICADB
  70
0
  40
0
  41
1
  42
1
  50
0
  71
0
  3
isocp.shx
  0
STYLE
  2
KICADI
  70
0
  40
0
  41
1
  42
1
  50
15
  71
0
  3
isocp.shx
  0
STYLE
  2
KICADBI
  70
0
  40
0
  41
1
  42
1
  50
15
  71
0
  3
isocp.shx
  0
ENDTAB
  0
TABLE
  2
LAYER
  70
1
  0
LAYER
  2
BLACK
  70
0
  62
7
  6
CONTINUOUS
  0
ENDTAB
  0
ENDSEC
  0
SECTION
  2
ENTITIES
0
LINE
8
BLACK
6
CONTINUOUS
10
92.0282490000000024
20
-60.7262819999999977
11
92.2278560000000027
21
-60.8036109999999965
0
LINE
8
BLACK
6
CONTINUOUS
10
92.2278560000000027
20
-60.8036109999999965
11
92.4098559999999907
21
-60.9162999999999997
0
LINE
8
BLACK
6
CONTINUOUS
10
92.4098559999999907
20
-60.9162999999999997
11
92.5680499999999995
21
-61.0605130000000003
0
LINE
8
BLACK
6
CONTINUOUS
10
92.5680499999999995
20
-61.0605130000000003
11
92.6970519999999993
21
-61.2313389999999984
0
LINE
8
BLACK
6
CONTINUOUS
10
92.6970519999999993
20
-61.2313389999999984
11
92.7924679999999995
21
-61.4229599999999962
0
LINE
8
BLACK
6
CONTINUOUS
10
92.7924679999999995
20
-61.4229599999999962
11
92.8510489999999891
21
-61.6288509999999974
0
LINE
8
BLACK
6
CONTINUOUS
10
92.8510489999999891
20
-61.6288509999999974
11
92.8708000000000027
21
-61.8419999999999987
0
LINE
8
BLACK
6
CONTINUOUS
10
92.8708000000000027
20
-61.8419999999999987
11
92.8510489999999891
21
-62.0551490000000001
0
LINE
8
BLACK
6
CONTINUOUS
10
92.8510489999999891
20
-62.0551490000000001
11
92.7924679999999995
21
-62.2610399999999942
0
LINE
8
BLACK
6
CONTINUOUS
10
92.7924679999999995
20
-62.2610399999999942
11
92.6970519999999993
21
-62.4526609999999991
0
LINE
8
BLACK
6
CONTINUOUS
10
92.6970519999999993
20
-62.4526609999999991
11
92.5680499999999995
21
-62.6234869999999972
0
LINE
8
BLACK
6
CONTINUOUS
10
92.5680499999999995
20
-62.6234869999999972
11
92.4098559999999907
21
-62.7676999999999978
0
LINE
8
BLACK
6
CONTINUOUS
10
92.4098559999999907
20
-62.7676999999999978
11
92.2278560000000027
21
-62.8803889999999939
0
LINE
8
BLACK
6
CONTINUOUS
10
92.2278560000000027
20
-62.8803889999999939
11
92.0282490000000024
21
-62.9577179999999998
0
LINE
8
BLACK
6
CONTINUOUS
10
92.0282490000000024
20
-62.9577179999999998
11
91.8178309999999982
21
-62.9970519999999965
0
LINE
8
BLACK
6
CONTINUOUS
10
91.8178309999999982
20
-62.9970519999999965
11
91.6037689999999998
21
-62.9970519999999965
0
LINE
8
BLACK
6
CONTINUOUS
10
91.6037689999999998
20
-62.9970519999999965
11
91.3933509999999956
21
-62.9577179999999998
0
LINE
8
BLACK
6
CONTINUOUS
10
91.3933509999999956
20
-62.9577179999999998
11
91.1937439999999953
21
-62.8803889999999939
0
LINE
8
BLACK
6
CONTINUOUS
10
91.1937439999999953
20
-62.8803889999999939
11
91.0117439999999931
21
-62.7676999999999978
0
LINE
8
BLACK
6
CONTINUOUS
10
91.0117439999999931
20
-62.7676999999999978
11
90.8535499999999985
21
-62.6234869999999972
0
LINE
8
BLACK
6
CONTINUOUS
10
90.8535499999999985
20
-62.6234869999999972
11
90.7245479999999986
21
-62.4526609999999991
0
LINE
8
BLACK
6
CONTINUOUS
10
90.7245479999999986
20
-62.4526609999999991
11
90.6291319999999985
21
-62.2610399999999942
0
LINE
8
BLACK
6
CONTINUOUS
10
90.6291319999999985
20
-62.2610399999999942
11
90.5705509999999947
21
-62.0551490000000001
0
LINE
8
BLACK
6
CONTINUOUS
10
90.5705509999999947
20
-62.0551490000000001
11
90.5507999999999953
21
-61.8419999999999987
0
LINE
8
BLACK
6
CONTINUOUS
10
90.5507999999999953
20
-61.8419999999999987
11
90.5705509999999947
21
-61.6288509999999974
0
LINE
8
BLACK
6
CONTINUOUS
10
90.5705509999999947
20
-61.6288509999999974
11
90.6291319999999985
21
-61.4229599999999962
0
LINE
8
BLACK
6
CONTINUOUS
10
90.6291319999999985
20
-61.4229599999999962
11
90.7245479999999986
21
-61.2313389999999984
0
LINE
8
BLACK
6
CONTINUOUS
10
90.7245479999999986
20
-61.2313389999999984
11
90.8535499999999985
21
-61.0605130000000003
0
LINE
8
BLACK
6
CONTINUOUS
10
90.8535499999999985
20
-61.0605130000000003
11
91.0117439999999931
21
-60.9162999999999997
0
LINE
8
BLACK
6
CONTINUOUS
10
91.0117439999999931
20
-60.9162999999999997
11
91.1937439999999953
21
-60.8036109999999965
0
LINE
8
BLACK
6
CONTINUOUS
10
91.1937439999999953
20
-60.8036109999999965
11
91.3933509999999956
21
-60.7262819999999977
0
LINE
8
BLACK
6
CONTINUOUS
10
91.3933509999999956
20
-60.7262819999999977
11
91.6037689999999998
21
-60.6869479999999939
0
LINE
8
BLACK
6
CONTINUOUS
10
91.6037689999999998
20
-60.6869479999999939
11
91.8178309999999982
21
-60.6869479999999939
0
LINE
8
BLACK
6
CONTINUOUS
10
91.8178309999999982
20
-60.6869479999999939
11
92.0282490000000024
21
-60.7262819999999977
0
LINE
8
BLACK
6
CONTINUOUS
10
90.6858479999999929
20
-62.0458759999999998
11
90.7453160000000025
21
-62.2419159999999962
0
LINE
8
BLACK
6
CONTINUOUS
10
90.7453160000000025
20
-62.2419159999999962
11
90.8418879999999973
21
-62.422588999999995
0
LINE
8
BLACK
6
CONTINUOUS
10
90.8418879999999973
20
-62.422588999999995
11
90.9718510000000009
21
-62.5809489999999968
0
LINE
8
BLACK
6
CONTINUOUS
10
90.9718510000000009
20
-62.5809489999999968
11
91.1302110000000027
21
-62.7109120000000004
0
LINE
8
BLACK
6
CONTINUOUS
10
91.1302110000000027
20
-62.7109120000000004
11
91.3108840000000015
21
-62.8074839999999952
0
LINE
8
BLACK
6
CONTINUOUS
10
91.3108840000000015
20
-62.8074839999999952
11
91.5069239999999979
21
-62.8669519999999977
0
LINE
8
BLACK
6
CONTINUOUS
10
91.5069239999999979
20
-62.8669519999999977
11
91.7107999999999919
21
-62.8870319999999978
0
LINE
8
BLACK
6
CONTINUOUS
10
91.7107999999999919
20
-62.8870319999999978
11
91.914676
21
-62.8669519999999977
0
LINE
8
BLACK
6
CONTINUOUS
10
91.914676
20
-62.8669519999999977
11
92.1107159999999965
21
-62.8074839999999952
0
LINE
8
BLACK
6
CONTINUOUS
10
92.1107159999999965
20
-62.8074839999999952
11
92.2913889999999952
21
-62.7109120000000004
0
LINE
8
BLACK
6
CONTINUOUS
10
92.2913889999999952
20
-62.7109120000000004
11
92.4497489999999971
21
-62.5809489999999968
0
LINE
8
BLACK
6
CONTINUOUS
10
92.4497489999999971
20
-62.5809489999999968
11
92.5797120000000007
21
-62.422588999999995
0
LINE
8
BLACK
6
CONTINUOUS
10
92.5797120000000007
20
-62.422588999999995
11
92.6762839999999954
21
-62.2419159999999962
0
LINE
8
BLACK
6
CONTINUOUS
10
92.6762839999999954
20
-62.2419159999999962
11
92.7357519999999909
21
-62.0458759999999998
0
LINE
8
BLACK
6
CONTINUOUS
10
92.7357519999999909
20
-62.0458759999999998
11
92.7558319999999981
21
-61.8419999999999987
0
LINE
8
BLACK
6
CONTINUOUS
10
92.7558319999999981
20
-61.8419999999999987
11
92.7357519999999909
21
-61.6381239999999977
0
LINE
8
BLACK
6
CONTINUOUS
10
92.7357519999999909
20
-61.6381239999999977
11
92.6762839999999954
21
-61.4420839999999941
0
LINE
8
BLACK
6
CONTINUOUS
10
92.6762839999999954
20
-61.4420839999999941
11
92.5797120000000007
21
-61.2614109999999954
0
LINE
8
BLACK
6
CONTINUOUS
10
92.5797120000000007
20
-61.2614109999999954
11
92.4497489999999971
21
-61.1030510000000007
0
LINE
8
BLACK
6
CONTINUOUS
10
92.4497489999999971
20
-61.1030510000000007
11
92.2913889999999952
21
-60.9730879999999971
0
LINE
8
BLACK
6
CONTINUOUS
10
92.2913889999999952
20
-60.9730879999999971
11
92.1107159999999965
21
-60.8765159999999952
0
LINE
8
BLACK
6
CONTINUOUS
10
92.1107159999999965
20
-60.8765159999999952
11
91.914676
21
-60.8170479999999998
0
LINE
8
BLACK
6
CONTINUOUS
10
91.914676
20
-60.8170479999999998
11
91.7107999999999919
21
-60.7969679999999997
0
LINE
8
BLACK
6
CONTINUOUS
10
91.7107999999999919
20
-60.7969679999999997
11
91.5069239999999979
21
-60.8170479999999998
0
LINE
8
BLACK
6
CONTINUOUS
10
91.5069239999999979
20
-60.8170479999999998
11
91.3108840000000015
21
-60.8765159999999952
0
LINE
8
BLACK
6
CONTINUOUS
10
91.3108840000000015
20
-60.8765159999999952
11
91.1302110000000027
21
-60.9730879999999971
0
LINE
8
BLACK
6
CONTINUOUS
10
91.1302110000000027
20
-60.9730879999999971
11
90.9718510000000009
21
-61.1030510000000007
0
LINE
8
BLACK
6
CONTINUOUS
10
90.9718510000000009
20
-61.1030510000000007
11
90.8418879999999973
21
-61.2614109999999954
0
LINE
8
BLACK
6
CONTINUOUS
10
90.8418879999999973
20
-61.2614109999999954
11
90.7453160000000025
21
-61.4420839999999941
0
LINE
8
BLACK
6
CONTINUOUS
10
90.7453160000000025
20
-61.4420839999999941
11
90.6858479999999929
21
-61.6381239999999977
0
LINE
8
BLACK
6
CONTINUOUS
10
90.6858479999999929
20
-61.6381239999999977
11
90.6657679999999999
21
-61.8419999999999987
0
LINE
8
BLACK
6
CONTINUOUS
10
90.6657679999999999
20
-61.8419999999999987
11
90.6858479999999929
21
-62.0458759999999998
0
LINE
8
BLACK
6
CONTINUOUS
10
108.728248999999991
20
-60.7262819999999977
11
108.9278559999999914
21
-60.8036109999999965
0
LINE
8
BLACK
6
CONTINUOUS
10
108.9278559999999914
20
-60.8036109999999965
11
109.1098559999999935
21
-60.9162999999999997
0
LINE
8
BLACK
6
CONTINUOUS
10
109.1098559999999935
20
-60.9162999999999997
11
109.2680499999999881
21
-61.0605130000000003
0
LINE
8
BLACK
6
CONTINUOUS
10
109.2680499999999881
20
-61.0605130000000003
11
109.397051999999988
21
-61.2313389999999984
0
LINE
8
BLACK
6
CONTINUOUS
10
109.397051999999988
20
-61.2313389999999984
11
109.4924679999999881
21
-61.4229599999999962
0
LINE
8
BLACK
6
CONTINUOUS
10
109.4924679999999881
20
-61.4229599999999962
11
109.5510489999999919
21
-61.6288509999999974
0
LINE
8
BLACK
6
CONTINUOUS
10
109.5510489999999919
20
-61.6288509999999974
11
109.5707999999999913
21
-61.8419999999999987
0
LINE
8
BLACK
6
CONTINUOUS
10
109.5707999999999913
20
-61.8419999999999987
11
109.5510489999999919
21
-62.0551490000000001
0
LINE
8
BLACK
6
CONTINUOUS
10
109.5510489999999919
20
-62.0551490000000001
11
109.4924679999999881
21
-62.2610399999999942
0
LINE
8
BLACK
6
CONTINUOUS
10
109.4924679999999881
20
-62.2610399999999942
11
109.397051999999988
21
-62.4526609999999991
0
LINE
8
BLACK
6
CONTINUOUS
10
109.397051999999988
20
-62.4526609999999991
11
109.2680499999999881
21
-62.6234869999999972
0
LINE
8
BLACK
6
CONTINUOUS
10
109.2680499999999881
20
-62.6234869999999972
11
109.1098559999999935
21
-62.7676999999999978
0
LINE
8
BLACK
6
CONTINUOUS
10
109.1098559999999935
20
-62.7676999999999978
11
108.9278559999999914
21
-62.8803889999999939
0
LINE
8
BLACK
6
CONTINUOUS
10
108.9278559999999914
20
-62.8803889999999939
11
108.728248999999991
21
-62.9577179999999998
0
LINE
8
BLACK
6
CONTINUOUS
10
108.728248999999991
20
-62.9577179999999998
11
108.517831000000001
21
-62.9970519999999965
0
LINE
8
BLACK
6
CONTINUOUS
10
108.517831000000001
20
-62.9970519999999965
11
108.3037689999999884
21
-62.9970519999999965
0
LINE
8
BLACK
6
CONTINUOUS
10
108.3037689999999884
20
-62.9970519999999965
11
108.0933509999999984
21
-62.9577179999999998
0
LINE
8
BLACK
6
CONTINUOUS
10
108.0933509999999984
20
-62.9577179999999998
11
107.8937439999999981
21
-62.8803889999999939
0
LINE
8
BLACK
6
CONTINUOUS
10
107.8937439999999981
20
-62.8803889999999939
11
107.7117439999999959
21
-62.7676999999999978
0
LINE
8
BLACK
6
CONTINUOUS
10
107.7117439999999959
20
-62.7676999999999978
11
107.5535500000000013
21
-62.6234869999999972
0
LINE
8
BLACK
6
CONTINUOUS
10
107.5535500000000013
20
-62.6234869999999972
11
107.4245480000000015
21
-62.4526609999999991
0
LINE
8
BLACK
6
CONTINUOUS
10
107.4245480000000015
20
-62.4526609999999991
11
107.3291320000000013
21
-62.2610399999999942
0
LINE
8
BLACK
6
CONTINUOUS
10
107.3291320000000013
20
-62.2610399999999942
11
107.2705509999999975
21
-62.0551490000000001
0
LINE
8
BLACK
6
CONTINUOUS
10
107.2705509999999975
20
-62.0551490000000001
11
107.2507999999999981
21
-61.8419999999999987
0
LINE
8
BLACK
6
CONTINUOUS
10
107.2507999999999981
20
-61.8419999999999987
11
107.2705509999999975
21
-61.6288509999999974
0
LINE
8
BLACK
6
CONTINUOUS
10
107.2705509999999975
20
-61.6288509999999974
11
107.3291320000000013
21
-61.4229599999999962
0
LINE
8
BLACK
6
CONTINUOUS
10
107.3291320000000013
20
-61.4229599999999962
11
107.4245480000000015
21
-61.2313389999999984
0
LINE
8
BLACK
6
CONTINUOUS
10
107.4245480000000015
20
-61.2313389999999984
11
107.5535500000000013
21
-61.0605130000000003
0
LINE
8
BLACK
6
CONTINUOUS
10
107.5535500000000013
20
-61.0605130000000003
11
107.7117439999999959
21
-60.9162999999999997
0
LINE
8
BLACK
6
CONTINUOUS
10
107.7117439999999959
20
-60.9162999999999997
11
107.8937439999999981
21
-60.8036109999999965
0
LINE
8
BLACK
6
CONTINUOUS
10
107.8937439999999981
20
-60.8036109999999965
11
108.0933509999999984
21
-60.7262819999999977
0
LINE
8
BLACK
6
CONTINUOUS
10
108.0933509999999984
20
-60.7262819999999977
11
108.3037689999999884
21
-60.6869479999999939
0
LINE
8
BLACK
6
CONTINUOUS
10
108.3037689999999884
20
-60.6869479999999939
11
108.517831000000001
21
-60.6869479999999939
0
LINE
8
BLACK
6
CONTINUOUS
10
108.517831000000001
20
-60.6869479999999939
11
108.728248999999991
21
-60.7262819999999977
0
LINE
8
BLACK
6
CONTINUOUS
10
107.3858479999999957
20
-62.0458759999999998
11
107.4453159999999912
21
-62.2419159999999962
0
LINE
8
BLACK
6
CONTINUOUS
10
107.4453159999999912
20
-62.2419159999999962
11
107.5418880000000001
21
-62.422588999999995
0
LINE
8
BLACK
6
CONTINUOUS
10
107.5418880000000001
20
-62.422588999999995
11
107.6718509999999895
21
-62.5809489999999968
0
LINE
8
BLACK
6
CONTINUOUS
10
107.6718509999999895
20
-62.5809489999999968
11
107.8302109999999914
21
-62.7109120000000004
0
LINE
8
BLACK
6
CONTINUOUS
10
107.8302109999999914
20
-62.7109120000000004
11
108.0108839999999901
21
-62.8074839999999952
0
LINE
8
BLACK
6
CONTINUOUS
10
108.0108839999999901
20
-62.8074839999999952
11
108.2069240000000008
21
-62.8669519999999977
0
LINE
8
BLACK
6
CONTINUOUS
10
108.2069240000000008
20
-62.8669519999999977
11
108.4107999999999947
21
-62.8870319999999978
0
LINE
8
BLACK
6
CONTINUOUS
10
108.4107999999999947
20
-62.8870319999999978
11
108.6146759999999887
21
-62.8669519999999977
0
LINE
8
BLACK
6
CONTINUOUS
10
108.6146759999999887
20
-62.8669519999999977
11
108.8107159999999993
21
-62.8074839999999952
0
LINE
8
BLACK
6
CONTINUOUS
10
108.8107159999999993
20
-62.8074839999999952
11
108.9913889999999981
21
-62.7109120000000004
0
LINE
8
BLACK
6
CONTINUOUS
10
108.9913889999999981
20
-62.7109120000000004
11
109.1497489999999999
21
-62.5809489999999968
0
LINE
8
BLACK
6
CONTINUOUS
10
109.1497489999999999
20
-62.5809489999999968
11
109.2797119999999893
21
-62.422588999999995
0
LINE
8
BLACK
6
CONTINUOUS
10
109.2797119999999893
20
-62.422588999999995
11
109.3762839999999983
21
-62.2419159999999962
0
LINE
8
BLACK
6
CONTINUOUS
10
109.3762839999999983
20
-62.2419159999999962
11
109.4357519999999937
21
-62.0458759999999998
0
LINE
8
BLACK
6
CONTINUOUS
10
109.4357519999999937
20
-62.0458759999999998
11
109.4558320000000009
21
-61.8419999999999987
0
LINE
8
BLACK
6
CONTINUOUS
10
109.4558320000000009
20
-61.8419999999999987
11
109.4357519999999937
21
-61.6381239999999977
0
LINE
8
BLACK
6
CONTINUOUS
10
109.4357519999999937
20
-61.6381239999999977
11
109.3762839999999983
21
-61.4420839999999941
0
LINE
8
BLACK
6
CONTINUOUS
10
109.3762839999999983
20
-61.4420839999999941
11
109.2797119999999893
21
-61.2614109999999954
0
LINE
8
BLACK
6
CONTINUOUS
10
109.2797119999999893
20
-61.2614109999999954
11
109.1497489999999999
21
-61.1030510000000007
0
LINE
8
BLACK
6
CONTINUOUS
10
109.1497489999999999
20
-61.1030510000000007
11
108.9913889999999981
21
-60.9730879999999971
0
LINE
8
BLACK
6
CONTINUOUS
10
108.9913889999999981
20
-60.9730879999999971
11
108.8107159999999993
21
-60.8765159999999952
0
LINE
8
BLACK
6
CONTINUOUS
10
108.8107159999999993
20
-60.8765159999999952
11
108.6146759999999887
21
-60.8170479999999998
0
LINE
8
BLACK
6
CONTINUOUS
10
108.6146759999999887
20
-60.8170479999999998
11
108.4107999999999947
21
-60.7969679999999997
0
LINE
8
BLACK
6
CONTINUOUS
10
108.4107999999999947
20
-60.7969679999999997
11
108.2069240000000008
21
-60.8170479999999998
0
LINE
8
BLACK
6
CONTINUOUS
10
108.2069240000000008
20
-60.8170479999999998
11
108.0108839999999901
21
-60.8765159999999952
0
LINE
8
BLACK
6
CONTINUOUS
10
108.0108839999999901
20
-60.8765159999999952
11
107.8302109999999914
21
-60.9730879999999971
0
LINE
8
BLACK
6
CONTINUOUS
10
107.8302109999999914
20
-60.9730879999999971
11
107.6718509999999895
21
-61.1030510000000007
0
LINE
8
BLACK
6
CONTINUOUS
10
107.6718509999999895
20
-61.1030510000000007
11
107.5418880000000001
21
-61.2614109999999954
0
LINE
8
BLACK
6
CONTINUOUS
10
107.5418880000000001
20
-61.2614109999999954
11
107.4453159999999912
21
-61.4420839999999941
0
LINE
8
BLACK
6
CONTINUOUS
10
107.4453159999999912
20
-61.4420839999999941
11
107.3858479999999957
21
-61.6381239999999977
0
LINE
8
BLACK
6
CONTINUOUS
10
107.3858479999999957
20
-61.6381239999999977
11
107.3657679999999885
21
-61.8419999999999987
0
LINE
8
BLACK
6
CONTINUOUS
10
107.3657679999999885
20
-61.8419999999999987
11
107.3858479999999957
21
-62.0458759999999998
0
LINE
8
BLACK
6
CONTINUOUS
10
92.0282490000000024
20
-36.0262820000000019
11
92.2278560000000027
21
-36.1036110000000008
0
LINE
8
BLACK
6
CONTINUOUS
10
92.2278560000000027
20
-36.1036110000000008
11
92.4098559999999907
21
-36.2162999999999968
0
LINE
8
BLACK
6
CONTINUOUS
10
92.4098559999999907
20
-36.2162999999999968
11
92.5680499999999995
21
-36.3605129999999974
0
LINE
8
BLACK
6
CONTINUOUS
10
92.5680499999999995
20
-36.3605129999999974
11
92.6970519999999993
21
-36.5313389999999956
0
LINE
8
BLACK
6
CONTINUOUS
10
92.6970519999999993
20
-36.5313389999999956
11
92.7924679999999995
21
-36.7229600000000005
0
LINE
8
BLACK
6
CONTINUOUS
10
92.7924679999999995
20
-36.7229600000000005
11
92.8510489999999891
21
-36.9288510000000016
0
LINE
8
BLACK
6
CONTINUOUS
10
92.8510489999999891
20
-36.9288510000000016
11
92.8708000000000027
21
-37.1419999999999959
0
LINE
8
BLACK
6
CONTINUOUS
10
92.8708000000000027
20
-37.1419999999999959
11
92.8510489999999891
21
-37.3551489999999973
0
LINE
8
BLACK
6
CONTINUOUS
10
92.8510489999999891
20
-37.3551489999999973
11
92.7924679999999995
21
-37.5610399999999984
0
LINE
8
BLACK
6
CONTINUOUS
10
92.7924679999999995
20
-37.5610399999999984
11
92.6970519999999993
21
-37.7526609999999962
0
LINE
8
BLACK
6
CONTINUOUS
10
92.6970519999999993
20
-37.7526609999999962
11
92.5680499999999995
21
-37.9234870000000015
0
LINE
8
BLACK
6
CONTINUOUS
10
92.5680499999999995
20
-37.9234870000000015
11
92.4098559999999907
21
-38.067699999999995
0
LINE
8
BLACK
6
CONTINUOUS
10
92.4098559999999907
20
-38.067699999999995
11
92.2278560000000027
21
-38.1803889999999981
0
LINE
8
BLACK
6
CONTINUOUS
10
92.2278560000000027
20
-38.1803889999999981
11
92.0282490000000024
21
-38.257717999999997
0
LINE
8
BLACK
6
CONTINUOUS
10
92.0282490000000024
20
-38.257717999999997
11
91.8178309999999982
21
-38.2970520000000008
0
LINE
8
BLACK
6
CONTINUOUS
10
91.8178309999999982
20
-38.2970520000000008
11
91.6037689999999998
21
-38.2970520000000008
0
LINE
8
BLACK
6
CONTINUOUS
10
91.6037689999999998
20
-38.2970520000000008
11
91.3933509999999956
21
-38.257717999999997
0
LINE
8
BLACK
6
CONTINUOUS
10
91.3933509999999956
20
-38.257717999999997
11
91.1937439999999953
21
-38.1803889999999981
0
LINE
8
BLACK
6
CONTINUOUS
10
91.1937439999999953
20
-38.1803889999999981
11
91.0117439999999931
21
-38.067699999999995
0
LINE
8
BLACK
6
CONTINUOUS
10
91.0117439999999931
20
-38.067699999999995
11
90.8535499999999985
21
-37.9234870000000015
0
LINE
8
BLACK
6
CONTINUOUS
10
90.8535499999999985
20
-37.9234870000000015
11
90.7245479999999986
21
-37.7526609999999962
0
LINE
8
BLACK
6
CONTINUOUS
10
90.7245479999999986
20
-37.7526609999999962
11
90.6291319999999985
21
-37.5610399999999984
0
LINE
8
BLACK
6
CONTINUOUS
10
90.6291319999999985
20
-37.5610399999999984
11
90.5705509999999947
21
-37.3551489999999973
0
LINE
8
BLACK
6
CONTINUOUS
10
90.5705509999999947
20
-37.3551489999999973
11
90.5507999999999953
21
-37.1419999999999959
0
LINE
8
BLACK
6
CONTINUOUS
10
90.5507999999999953
20
-37.1419999999999959
11
90.5705509999999947
21
-36.9288510000000016
0
LINE
8
BLACK
6
CONTINUOUS
10
90.5705509999999947
20
-36.9288510000000016
11
90.6291319999999985
21
-36.7229600000000005
0
LINE
8
BLACK
6
CONTINUOUS
10
90.6291319999999985
20
-36.7229600000000005
11
90.7245479999999986
21
-36.5313389999999956
0
LINE
8
BLACK
6
CONTINUOUS
10
90.7245479999999986
20
-36.5313389999999956
11
90.8535499999999985
21
-36.3605129999999974
0
LINE
8
BLACK
6
CONTINUOUS
10
90.8535499999999985
20
-36.3605129999999974
11
91.0117439999999931
21
-36.2162999999999968
0
LINE
8
BLACK
6
CONTINUOUS
10
91.0117439999999931
20
-36.2162999999999968
11
91.1937439999999953
21
-36.1036110000000008
0
LINE
8
BLACK
6
CONTINUOUS
10
91.1937439999999953
20
-36.1036110000000008
11
91.3933509999999956
21
-36.0262820000000019
0
LINE
8
BLACK
6
CONTINUOUS
10
91.3933509999999956
20
-36.0262820000000019
11
91.6037689999999998
21
-35.9869479999999982
0
LINE
8
BLACK
6
CONTINUOUS
10
91.6037689999999998
20
-35.9869479999999982
11
91.8178309999999982
21
-35.9869479999999982
0
LINE
8
BLACK
6
CONTINUOUS
10
91.8178309999999982
20
-35.9869479999999982
11
92.0282490000000024
21
-36.0262820000000019
0
LINE
8
BLACK
6
CONTINUOUS
10
90.6858479999999929
20
-37.345875999999997
11
90.7453160000000025
21
-37.5419160000000005
0
LINE
8
BLACK
6
CONTINUOUS
10
90.7453160000000025
20
-37.5419160000000005
11
90.8418879999999973
21
-37.7225889999999993
0
LINE
8
BLACK
6
CONTINUOUS
10
90.8418879999999973
20
-37.7225889999999993
11
90.9718510000000009
21
-37.8809490000000011
0
LINE
8
BLACK
6
CONTINUOUS
10
90.9718510000000009
20
-37.8809490000000011
11
91.1302110000000027
21
-38.0109119999999976
0
LINE
8
BLACK
6
CONTINUOUS
10
91.1302110000000027
20
-38.0109119999999976
11
91.3108840000000015
21
-38.1074839999999995
0
LINE
8
BLACK
6
CONTINUOUS
10
91.3108840000000015
20
-38.1074839999999995
11
91.5069239999999979
21
-38.1669519999999949
0
LINE
8
BLACK
6
CONTINUOUS
10
91.5069239999999979
20
-38.1669519999999949
11
91.7107999999999919
21
-38.187031999999995
0
LINE
8
BLACK
6
CONTINUOUS
10
91.7107999999999919
20
-38.187031999999995
11
91.914676
21
-38.1669519999999949
0
LINE
8
BLACK
6
CONTINUOUS
10
91.914676
20
-38.1669519999999949
11
92.1107159999999965
21
-38.1074839999999995
0
LINE
8
BLACK
6
CONTINUOUS
10
92.1107159999999965
20
-38.1074839999999995
11
92.2913889999999952
21
-38.0109119999999976
0
LINE
8
BLACK
6
CONTINUOUS
10
92.2913889999999952
20
-38.0109119999999976
11
92.4497489999999971
21
-37.8809490000000011
0
LINE
8
BLACK
6
CONTINUOUS
10
92.4497489999999971
20
-37.8809490000000011
11
92.5797120000000007
21
-37.7225889999999993
0
LINE
8
BLACK
6
CONTINUOUS
10
92.5797120000000007
20
-37.7225889999999993
11
92.6762839999999954
21
-37.5419160000000005
0
LINE
8
BLACK
6
CONTINUOUS
10
92.6762839999999954
20
-37.5419160000000005
11
92.7357519999999909
21
-37.345875999999997
0
LINE
8
BLACK
6
CONTINUOUS
10
92.7357519999999909
20
-37.345875999999997
11
92.7558319999999981
21
-37.1419999999999959
0
LINE
8
BLACK
6
CONTINUOUS
10
92.7558319999999981
20
-37.1419999999999959
11
92.7357519999999909
21
-36.9381239999999949
0
LINE
8
BLACK
6
CONTINUOUS
10
92.7357519999999909
20
-36.9381239999999949
11
92.6762839999999954
21
-36.7420839999999984
0
LINE
8
BLACK
6
CONTINUOUS
10
92.6762839999999954
20
-36.7420839999999984
11
92.5797120000000007
21
-36.5614109999999997
0
LINE
8
BLACK
6
CONTINUOUS
10
92.5797120000000007
20
-36.5614109999999997
11
92.4497489999999971
21
-36.4030509999999978
0
LINE
8
BLACK
6
CONTINUOUS
10
92.4497489999999971
20
-36.4030509999999978
11
92.2913889999999952
21
-36.2730880000000013
0
LINE
8
BLACK
6
CONTINUOUS
10
92.2913889999999952
20
-36.2730880000000013
11
92.1107159999999965
21
-36.1765159999999995
0
LINE
8
BLACK
6
CONTINUOUS
10
92.1107159999999965
20
-36.1765159999999995
11
91.914676
21
-36.1170479999999969
0
LINE
8
BLACK
6
CONTINUOUS
10
91.914676
20
-36.1170479999999969
11
91.7107999999999919
21
-36.0969679999999968
0
LINE
8
BLACK
6
CONTINUOUS
10
91.7107999999999919
20
-36.0969679999999968
11
91.5069239999999979
21
-36.1170479999999969
0
LINE
8
BLACK
6
CONTINUOUS
10
91.5069239999999979
20
-36.1170479999999969
11
91.3108840000000015
21
-36.1765159999999995
0
LINE
8
BLACK
6
CONTINUOUS
10
91.3108840000000015
20
-36.1765159999999995
11
91.1302110000000027
21
-36.2730880000000013
0
LINE
8
BLACK
6
CONTINUOUS
10
91.1302110000000027
20
-36.2730880000000013
11
90.9718510000000009
21
-36.4030509999999978
0
LINE
8
BLACK
6
CONTINUOUS
10
90.9718510000000009
20
-36.4030509999999978
11
90.8418879999999973
21
-36.5614109999999997
0
LINE
8
BLACK
6
CONTINUOUS
10
90.8418879999999973
20
-36.5614109999999997
11
90.7453160000000025
21
-36.7420839999999984
0
LINE
8
BLACK
6
CONTINUOUS
10
90.7453160000000025
20
-36.7420839999999984
11
90.6858479999999929
21
-36.9381239999999949
0
LINE
8
BLACK
6
CONTINUOUS
10
90.6858479999999929
20
-36.9381239999999949
11
90.6657679999999999
21
-37.1419999999999959
0
LINE
8
BLACK
6
CONTINUOUS
10
90.6657679999999999
20
-37.1419999999999959
11
90.6858479999999929
21
-37.345875999999997
0
LINE
8
BLACK
6
CONTINUOUS
10
108.728248999999991
20
-36.0262820000000019
11
108.9278559999999914
21
-36.1036110000000008
0
LINE
8
BLACK
6
CONTINUOUS
10
108.9278559999999914
20
-36.1036110000000008
11
109.1098559999999935
21
-36.2162999999999968
0
LINE
8
BLACK
6
CONTINUOUS
10
109.1098559999999935
20
-36.2162999999999968
11
109.2680499999999881
21
-36.3605129999999974
0
LINE
8
BLACK
6
CONTINUOUS
10
109.2680499999999881
20
-36.3605129999999974
11
109.397051999999988
21
-36.5313389999999956
0
LINE
8
BLACK
6
CONTINUOUS
10
109.397051999999988
20
-36.5313389999999956
11
109.4924679999999881
21
-36.7229600000000005
0
LINE
8
BLACK
6
CONTINUOUS
10
109.4924679999999881
20
-36.7229600000000005
11
109.5510489999999919
21
-36.9288510000000016
0
LINE
8
BLACK
6
CONTINUOUS
10
109.5510489999999919
20
-36.9288510000000016
11
109.5707999999999913
21
-37.1419999999999959
0
LINE
8
BLACK
6
CONTINUOUS
10
109.5707999999999913
20
-37.1419999999999959
11
109.5510489999999919
21
-37.3551489999999973
0
LINE
8
BLACK
6
CONTINUOUS
10
109.5510489999999919
20
-37.3551489999999973
11
109.4924679999999881
21
-37.5610399999999984
0
LINE
8
BLACK
6
CONTINUOUS
10
109.4924679999999881
20
-37.5610399999999984
11
109.397051999999988
21
-37.7526609999999962
0
LINE
8
BLACK
6
CONTINUOUS
10
109.397051999999988
20
-37.7526609999999962
11
109.2680499999999881
21
-37.9234870000000015
0
LINE
8
BLACK
6
CONTINUOUS
10
109.2680499999999881
20
-37.9234870000000015
11
109.1098559999999935
21
-38.067699999999995
0
LINE
8
BLACK
6
CONTINUOUS
10
109.1098559999999935
20
-38.067699999999995
11
108.9278559999999914
21
-38.1803889999999981
0
LINE
8
BLACK
6
CONTINUOUS
10
108.9278559999999914
20
-38.1803889999999981
11
108.728248999999991
21
-38.257717999999997
0
LINE
8
BLACK
6
CONTINUOUS
10
108.728248999999991
20
-38.257717999999997
11
108.517831000000001
21
-38.2970520000000008
0
LINE
8
BLACK
6
CONTINUOUS
10
108.517831000000001
20
-38.2970520000000008
11
108.3037689999999884
21
-38.2970520000000008
0
LINE
8
BLACK
6
CONTINUOUS
10
108.3037689999999884
20
-38.2970520000000008
11
108.0933509999999984
21
-38.257717999999997
0
LINE
8
BLACK
6
CONTINUOUS
10
108.0933509999999984
20
-38.257717999999997
11
107.8937439999999981
21
-38.1803889999999981
0
LINE
8
BLACK
6
CONTINUOUS
10
107.8937439999999981
20
-38.1803889999999981
11
107.7117439999999959
21
-38.067699999999995
0
LINE
8
BLACK
6
CONTINUOUS
10
107.7117439999999959
20
-38.067699999999995
11
107.5535500000000013
21
-37.9234870000000015
0
LINE
8
BLACK
6
CONTINUOUS
10
107.5535500000000013
20
-37.9234870000000015
11
107.4245480000000015
21
-37.7526609999999962
0
LINE
8
BLACK
6
CONTINUOUS
10
107.4245480000000015
20
-37.7526609999999962
11
107.3291320000000013
21
-37.5610399999999984
0
LINE
8
BLACK
6
CONTINUOUS
10
107.3291320000000013
20
-37.5610399999999984
11
107.2705509999999975
21
-37.3551489999999973
0
LINE
8
BLACK
6
CONTINUOUS
10
107.2705509999999975
20
-37.3551489999999973
11
107.2507999999999981
21
-37.1419999999999959
0
LINE
8
BLACK
6
CONTINUOUS
10
107.2507999999999981
20
-37.1419999999999959
11
107.2705509999999975
21
-36.9288510000000016
0
LINE
8
BLACK
6
CONTINUOUS
10
107.2705509999999975
20
-36.9288510000000016
11
107.3291320000000013
21
-36.7229600000000005
0
LINE
8
BLACK
6
CONTINUOUS
10
107.3291320000000013
20
-36.7229600000000005
11
107.4245480000000015
21
-36.5313389999999956
0
LINE
8
BLACK
6
CONTINUOUS
10
107.4245480000000015
20
-36.5313389999999956
11
107.5535500000000013
21
-36.3605129999999974
0
LINE
8
BLACK
6
CONTINUOUS
10
107.5535500000000013
20
-36.3605129999999974
11
107.7117439999999959
21
-36.2162999999999968
0
LINE
8
BLACK
6
CONTINUOUS
10
107.7117439999999959
20
-36.2162999999999968
11
107.8937439999999981
21
-36.1036110000000008
0
LINE
8
BLACK
6
CONTINUOUS
10
107.8937439999999981
20
-36.1036110000000008
11
108.0933509999999984
21
-36.0262820000000019
0
LINE
8
BLACK
6
CONTINUOUS
10
108.0933509999999984
20
-36.0262820000000019
11
108.3037689999999884
21
-35.9869479999999982
0
LINE
8
BLACK
6
CONTINUOUS
10
108.3037689999999884
20
-35.9869479999999982
11
108.517831000000001
21
-35.9869479999999982
0
LINE
8
BLACK
6
CONTINUOUS
10
108.517831000000001
20
-35.9869479999999982
11
108.728248999999991
21
-36.0262820000000019
0
LINE
8
BLACK
6
CONTINUOUS
10
107.3858479999999957
20
-37.345875999999997
11
107.4453159999999912
21
-37.5419160000000005
0
LINE
8
BLACK
6
CONTINUOUS
10
107.4453159999999912
20
-37.5419160000000005
11
107.5418880000000001
21
-37.7225889999999993
0
LINE
8
BLACK
6
CONTINUOUS
10
107.5418880000000001
20
-37.7225889999999993
11
107.6718509999999895
21
-37.8809490000000011
0
LINE
8
BLACK
6
CONTINUOUS
10
107.6718509999999895
20
-37.8809490000000011
11
107.8302109999999914
21
-38.0109119999999976
0
LINE
8
BLACK
6
CONTINUOUS
10
107.8302109999999914
20
-38.0109119999999976
11
108.0108839999999901
21
-38.1074839999999995
0
LINE
8
BLACK
6
CONTINUOUS
10
108.0108839999999901
20
-38.1074839999999995
11
108.2069240000000008
21
-38.1669519999999949
0
LINE
8
BLACK
6
CONTINUOUS
10
108.2069240000000008
20
-38.1669519999999949
11
108.4107999999999947
21
-38.187031999999995
0
LINE
8
BLACK
6
CONTINUOUS
10
108.4107999999999947
20
-38.187031999999995
11
108.6146759999999887
21
-38.1669519999999949
0
LINE
8
BLACK
6
CONTINUOUS
10
108.6146759999999887
20
-38.1669519999999949
11
108.8107159999999993
21
-38.1074839999999995
0
LINE
8
BLACK
6
CONTINUOUS
10
108.8107159999999993
20
-38.1074839999999995
11
108.9913889999999981
21
-38.0109119999999976
0
LINE
8
BLACK
6
CONTINUOUS
10
108.9913889999999981
20
-38.0109119999999976
11
109.1497489999999999
21
-37.8809490000000011
0
LINE
8
BLACK
6
CONTINUOUS
10
109.1497489999999999
20
-37.8809490000000011
11
109.2797119999999893
21
-37.7225889999999993
0
LINE
8
BLACK
6
CONTINUOUS
10
109.2797119999999893
20
-37.7225889999999993
11
109.3762839999999983
21
-37.5419160000000005
0
LINE
8
BLACK
6
CONTINUOUS
10
109.3762839999999983
20
-37.5419160000000005
11
109.4357519999999937
21
-37.345875999999997
0
LINE
8
BLACK
6
CONTINUOUS
10
109.4357519999999937
20
-37.345875999999997
11
109.4558320000000009
21
-37.1419999999999959
0
LINE
8
BLACK
6
CONTINUOUS
10
109.4558320000000009
20
-37.1419999999999959
11
109.4357519999999937
21
-36.9381239999999949
0
LINE
8
BLACK
6
CONTINUOUS
10
109.4357519999999937
20
-36.9381239999999949
11
109.3762839999999983
21
-36.7420839999999984
0
LINE
8
BLACK
6
CONTINUOUS
10
109.3762839999999983
20
-36.7420839999999984
11
109.2797119999999893
21
-36.5614109999999997
0
LINE
8
BLACK
6
CONTINUOUS
10
109.2797119999999893
20
-36.5614109999999997
11
109.1497489999999999
21
-36.4030509999999978
0
LINE
8
BLACK
6
CONTINUOUS
10
109.1497489999999999
20
-36.4030509999999978
11
108.9913889999999981
21
-36.2730880000000013
0
LINE
8
BLACK
6
CONTINUOUS
10
108.9913889999999981
20
-36.2730880000000013
11
108.8107159999999993
21
-36.1765159999999995
0
LINE
8
BLACK
6
CONTINUOUS
10
108.8107159999999993
20
-36.1765159999999995
11
108.6146759999999887
21
-36.1170479999999969
0
LINE
8
BLACK
6
CONTINUOUS
10
108.6146759999999887
20
-36.1170479999999969
11
108.4107999999999947
21
-36.0969679999999968
0
LINE
8
BLACK
6
CONTINUOUS
10
108.4107999999999947
20
-36.0969679999999968
11
108.2069240000000008
21
-36.1170479999999969
0
LINE
8
BLACK
6
CONTINUOUS
10
108.2069240000000008
20
-36.1170479999999969
11
108.0108839999999901
21
-36.1765159999999995
0
LINE
8
BLACK
6
CONTINUOUS
10
108.0108839999999901
20
-36.1765159999999995
11
107.8302109999999914
21
-36.2730880000000013
0
LINE
8
BLACK
6
CONTINUOUS
10
107.8302109999999914
20
-36.2730880000000013
11
107.6718509999999895
21
-36.4030509999999978
0
LINE
8
BLACK
6
CONTINUOUS
10
107.6718509999999895
20
-36.4030509999999978
11
107.5418880000000001
21
-36.5614109999999997
0
LINE
8
BLACK
6
CONTINUOUS
10
107.5418880000000001
20
-36.5614109999999997
11
107.4453159999999912
21
-36.7420839999999984
0
LINE
8
BLACK
6
CONTINUOUS
10
107.4453159999999912
20
-36.7420839999999984
11
107.3858479999999957
21
-36.9381239999999949
0
LINE
8
BLACK
6
CONTINUOUS
10
107.3858479999999957
20
-36.9381239999999949
11
107.3657679999999885
21
-37.1419999999999959
0
LINE
8
BLACK
6
CONTINUOUS
10
107.3657679999999885
20
-37.1419999999999959
11
107.3858479999999957
21
-37.345875999999997
0
LINE
8
BLACK
6
CONTINUOUS
10
85.0352170000000029
20
-29.8800629999999998
11
85.0447509999999909
21
-29.8861899999999991
0
LINE
8
BLACK
6
CONTINUOUS
10
85.0447509999999909
20
-29.8861899999999991
11
85.0559020000000032
21
-29.8881969999999981
0
LINE
8
BLACK
6
CONTINUOUS
10
85.0559020000000032
20
-29.8881969999999981
11
87.0295079999999928
21
-30.875
0
LINE
8
BLACK
6
CONTINUOUS
10
87.0295079999999928
20
-30.875
11
99.9989999999999952
21
-30.875
0
LINE
8
BLACK
6
CONTINUOUS
10
99.9989999999999952
20
-30.875
11
112.9704789999999974
21
-30.875
0
LINE
8
BLACK
6
CONTINUOUS
10
112.9704789999999974
20
-30.875
11
114.9430759999999907
21
-29.8882079999999988
0
LINE
8
BLACK
6
CONTINUOUS
10
114.9430759999999907
20
-29.8882079999999988
11
114.9768369999999891
21
-29.8769799999999996
0
LINE
8
BLACK
6
CONTINUOUS
10
114.9768369999999891
20
-29.8769799999999996
11
114.9881159999999909
21
-29.8781949999999981
0
LINE
8
BLACK
6
CONTINUOUS
10
114.9881159999999909
20
-29.8781949999999981
11
114.9989999999999952
21
-29.875
0
LINE
8
BLACK
6
CONTINUOUS
10
114.9989999999999952
20
-29.875
11
119.
21
-29.875
0
LINE
8
BLACK
6
CONTINUOUS
10
119.
20
-29.875
11
119.1953539999999947
21
-29.8920909999999971
0
LINE
8
BLACK
6
CONTINUOUS
10
119.1953539999999947
20
-29.8920909999999971
11
119.3847729999999956
21
-29.9428459999999994
0
LINE
8
BLACK
6
CONTINUOUS
10
119.3847729999999956
20
-29.9428459999999994
11
119.5625
21
-30.0257209999999972
0
LINE
8
BLACK
6
CONTINUOUS
10
119.5625
20
-30.0257209999999972
11
119.7231359999999967
21
-30.1381999999999977
0
LINE
8
BLACK
6
CONTINUOUS
10
119.7231359999999967
20
-30.1381999999999977
11
119.8617999999999881
21
-30.2768639999999998
0
LINE
8
BLACK
6
CONTINUOUS
10
119.8617999999999881
20
-30.2768639999999998
11
119.9742789999999957
21
-30.4375
0
LINE
8
BLACK
6
CONTINUOUS
10
119.9742789999999957
20
-30.4375
11
120.057153999999997
21
-30.6152269999999973
0
LINE
8
BLACK
6
CONTINUOUS
10
120.057153999999997
20
-30.6152269999999973
11
120.1079089999999923
21
-30.8046459999999982
0
LINE
8
BLACK
6
CONTINUOUS
10
120.1079089999999923
20
-30.8046459999999982
11
120.125
21
-31.
0
LINE
8
BLACK
6
CONTINUOUS
10
120.125
20
-31.
11
120.125
21
-35.
0
LINE
8
BLACK
6
CONTINUOUS
10
120.125
20
-35.
11
120.1199369999999931
21
-35.0352169999999958
0
LINE
8
BLACK
6
CONTINUOUS
10
120.1199369999999931
20
-35.0352169999999958
11
120.1138089999999892
21
-35.044750999999998
0
LINE
8
BLACK
6
CONTINUOUS
10
120.1138089999999892
20
-35.044750999999998
11
120.1118029999999948
21
-35.0559019999999961
0
LINE
8
BLACK
6
CONTINUOUS
10
120.1118029999999948
20
-35.0559019999999961
11
119.125
21
-37.0295079999999999
0
LINE
8
BLACK
6
CONTINUOUS
10
119.125
20
-37.0295079999999999
11
119.125
21
-62.9704920000000001
0
LINE
8
BLACK
6
CONTINUOUS
10
119.125
20
-62.9704920000000001
11
120.1118029999999948
21
-64.9440979999999968
0
LINE
8
BLACK
6
CONTINUOUS
10
120.1118029999999948
20
-64.9440979999999968
11
120.1230240000000009
21
-64.9778620000000018
0
LINE
8
BLACK
6
CONTINUOUS
10
120.1230240000000009
20
-64.9778620000000018
11
120.1218069999999898
21
-64.9891269999999963
0
LINE
8
BLACK
6
CONTINUOUS
10
120.1218069999999898
20
-64.9891269999999963
11
120.125
21
-65.
0
LINE
8
BLACK
6
CONTINUOUS
10
120.125
20
-65.
11
120.125
21
-69.
0
LINE
8
BLACK
6
CONTINUOUS
10
120.125
20
-69.
11
120.1079089999999923
21
-69.1953539999999947
0
LINE
8
BLACK
6
CONTINUOUS
10
120.1079089999999923
20
-69.1953539999999947
11
120.057153999999997
21
-69.3847729999999956
0
LINE
8
BLACK
6
CONTINUOUS
10
120.057153999999997
20
-69.3847729999999956
11
119.9742789999999957
21
-69.5625
0
LINE
8
BLACK
6
CONTINUOUS
10
119.9742789999999957
20
-69.5625
11
119.8617999999999881
21
-69.7231359999999967
0
LINE
8
BLACK
6
CONTINUOUS
10
119.8617999999999881
20
-69.7231359999999967
11
119.7231359999999967
21
-69.8618000000000023
0
LINE
8
BLACK
6
CONTINUOUS
10
119.7231359999999967
20
-69.8618000000000023
11
119.5625
21
-69.9742789999999957
0
LINE
8
BLACK
6
CONTINUOUS
10
119.5625
20
-69.9742789999999957
11
119.3847729999999956
21
-70.057153999999997
0
LINE
8
BLACK
6
CONTINUOUS
10
119.3847729999999956
20
-70.057153999999997
11
119.1953539999999947
21
-70.1079089999999923
0
LINE
8
BLACK
6
CONTINUOUS
10
119.1953539999999947
20
-70.1079089999999923
11
119.
21
-70.125
0
LINE
8
BLACK
6
CONTINUOUS
10
119.
20
-70.125
11
115.
21
-70.125
0
LINE
8
BLACK
6
CONTINUOUS
10
115.
20
-70.125
11
114.9647829999999971
21
-70.1199369999999931
0
LINE
8
BLACK
6
CONTINUOUS
10
114.9647829999999971
20
-70.1199369999999931
11
114.9552479999999974
21
-70.1138090000000034
0
LINE
8
BLACK
6
CONTINUOUS
10
114.9552479999999974
20
-70.1138090000000034
11
114.9440979999999968
21
-70.1118029999999948
0
LINE
8
BLACK
6
CONTINUOUS
10
114.9440979999999968
20
-70.1118029999999948
11
112.970491999999993
21
-69.125
0
LINE
8
BLACK
6
CONTINUOUS
10
112.970491999999993
20
-69.125
11
87.0295079999999928
21
-69.125
0
LINE
8
BLACK
6
CONTINUOUS
10
87.0295079999999928
20
-69.125
11
85.0559020000000032
21
-70.1118029999999948
0
LINE
8
BLACK
6
CONTINUOUS
10
85.0559020000000032
20
-70.1118029999999948
11
85.0221379999999982
21
-70.1230240000000009
0
LINE
8
BLACK
6
CONTINUOUS
10
85.0221379999999982
20
-70.1230240000000009
11
85.010871999999992
21
-70.1218069999999898
0
LINE
8
BLACK
6
CONTINUOUS
10
85.010871999999992
20
-70.1218069999999898
11
85.
21
-70.125
0
LINE
8
BLACK
6
CONTINUOUS
10
85.
20
-70.125
11
81.
21
-70.125
0
LINE
8
BLACK
6
CONTINUOUS
10
81.
20
-70.125
11
80.8046459999999911
21
-70.1079089999999923
0
LINE
8
BLACK
6
CONTINUOUS
10
80.8046459999999911
20
-70.1079089999999923
11
80.6152269999999902
21
-70.057153999999997
0
LINE
8
BLACK
6
CONTINUOUS
10
80.6152269999999902
20
-70.057153999999997
11
80.4375
21
-69.9742789999999957
0
LINE
8
BLACK
6
CONTINUOUS
10
80.4375
20
-69.9742789999999957
11
80.2768640000000033
21
-69.8618000000000023
0
LINE
8
BLACK
6
CONTINUOUS
10
80.2768640000000033
20
-69.8618000000000023
11
80.1381999999999977
21
-69.7231359999999967
0
LINE
8
BLACK
6
CONTINUOUS
10
80.1381999999999977
20
-69.7231359999999967
11
80.0257209999999901
21
-69.5625
0
LINE
8
BLACK
6
CONTINUOUS
10
80.0257209999999901
20
-69.5625
11
79.942846000000003
21
-69.3847729999999956
0
LINE
8
BLACK
6
CONTINUOUS
10
79.942846000000003
20
-69.3847729999999956
11
79.8920909999999935
21
-69.1953539999999947
0
LINE
8
BLACK
6
CONTINUOUS
10
79.8920909999999935
20
-69.1953539999999947
11
79.875
21
-69.
0
LINE
8
BLACK
6
CONTINUOUS
10
79.875
20
-69.
11
79.875
21
-65.
0
LINE
8
BLACK
6
CONTINUOUS
10
79.875
20
-65.
11
79.8800629999999927
21
-64.9647829999999971
0
LINE
8
BLACK
6
CONTINUOUS
10
79.8800629999999927
20
-64.9647829999999971
11
79.8861899999999991
21
-64.9552479999999974
0
LINE
8
BLACK
6
CONTINUOUS
10
79.8861899999999991
20
-64.9552479999999974
11
79.888196999999991
21
-64.9440979999999968
0
LINE
8
BLACK
6
CONTINUOUS
10
79.888196999999991
20
-64.9440979999999968
11
80.875
21
-62.9704920000000001
0
LINE
8
BLACK
6
CONTINUOUS
10
80.875
20
-62.9704920000000001
11
80.875
21
-37.0295079999999999
0
LINE
8
BLACK
6
CONTINUOUS
10
80.875
20
-37.0295079999999999
11
79.888196999999991
21
-35.0559019999999961
0
LINE
8
BLACK
6
CONTINUOUS
10
79.888196999999991
20
-35.0559019999999961
11
79.8769759999999991
21
-35.0221379999999982
0
LINE
8
BLACK
6
CONTINUOUS
10
79.8769759999999991
20
-35.0221379999999982
11
79.8781919999999985
21
-35.0108719999999991
0
LINE
8
BLACK
6
CONTINUOUS
10
79.8781919999999985
20
-35.0108719999999991
11
79.875
21
-35.
0
LINE
8
BLACK
6
CONTINUOUS
10
79.875
20
-35.
11
79.875
21
-31.
0
LINE
8
BLACK
6
CONTINUOUS
10
79.875
20
-31.
11
79.8920909999999935
21
-30.8046459999999982
0
LINE
8
BLACK
6
CONTINUOUS
10
79.8920909999999935
20
-30.8046459999999982
11
79.942846000000003
21
-30.6152269999999973
0
LINE
8
BLACK
6
CONTINUOUS
10
79.942846000000003
20
-30.6152269999999973
11
80.0257209999999901
21
-30.4375
0
LINE
8
BLACK
6
CONTINUOUS
10
80.0257209999999901
20
-30.4375
11
80.1381999999999977
21
-30.2768639999999998
0
LINE
8
BLACK
6
CONTINUOUS
10
80.1381999999999977
20
-30.2768639999999998
11
80.2768640000000033
21
-30.1381999999999977
0
LINE
8
BLACK
6
CONTINUOUS
10
80.2768640000000033
20
-30.1381999999999977
11
80.4375
21
-30.0257209999999972
0
LINE
8
BLACK
6
CONTINUOUS
10
80.4375
20
-30.0257209999999972
11
80.6152269999999902
21
-29.9428459999999994
0
LINE
8
BLACK
6
CONTINUOUS
10
80.6152269999999902
20
-29.9428459999999994
11
80.8046459999999911
21
-29.8920909999999971
0
LINE
8
BLACK
6
CONTINUOUS
10
80.8046459999999911
20
-29.8920909999999971
11
81.
21
-29.875
0
LINE
8
BLACK
6
CONTINUOUS
10
81.
20
-29.875
11
85.
21
-29.875
0
LINE
8
BLACK
6
CONTINUOUS
10
85.
20
-29.875
11
85.0352170000000029
21
-29.8800629999999998
0
LINE
8
BLACK
6
CONTINUOUS
10
81.
20
-30.125
11
80.9138200000000012
21
-30.125
0
LINE
8
BLACK
6
CONTINUOUS
10
80.9138200000000012
20
-30.125
11
80.7447719999999975
21
-30.1586259999999982
0
LINE
8
BLACK
6
CONTINUOUS
10
80.7447719999999975
20
-30.1586259999999982
11
80.5855320000000006
21
-30.2245849999999976
0
LINE
8
BLACK
6
CONTINUOUS
10
80.5855320000000006
20
-30.2245849999999976
11
80.4422199999999918
21
-30.3203429999999976
0
LINE
8
BLACK
6
CONTINUOUS
10
80.4422199999999918
20
-30.3203429999999976
11
80.320342999999994
21
-30.4422199999999989
0
LINE
8
BLACK
6
CONTINUOUS
10
80.320342999999994
20
-30.4422199999999989
11
80.2245849999999905
21
-30.5855319999999971
0
LINE
8
BLACK
6
CONTINUOUS
10
80.2245849999999905
20
-30.5855319999999971
11
80.1586259999999982
21
-30.7447719999999975
0
LINE
8
BLACK
6
CONTINUOUS
10
80.1586259999999982
20
-30.7447719999999975
11
80.125
21
-30.9138199999999976
0
LINE
8
BLACK
6
CONTINUOUS
10
80.125
20
-30.9138199999999976
11
80.125
21
-31.
0
LINE
8
BLACK
6
CONTINUOUS
10
80.125
20
-31.
11
80.125
21
-34.9704920000000001
0
LINE
8
BLACK
6
CONTINUOUS
10
80.125
20
-34.9704920000000001
11
81.1118029999999948
21
-36.9440979999999968
0
LINE
8
BLACK
6
CONTINUOUS
10
81.1118029999999948
20
-36.9440979999999968
11
81.1230240000000009
21
-36.9778620000000018
0
LINE
8
BLACK
6
CONTINUOUS
10
81.1230240000000009
20
-36.9778620000000018
11
81.1218069999999898
21
-36.9891269999999963
0
LINE
8
BLACK
6
CONTINUOUS
10
81.1218069999999898
20
-36.9891269999999963
11
81.125
21
-37.
0
LINE
8
BLACK
6
CONTINUOUS
10
81.125
20
-37.
11
81.125
21
-63.
0
LINE
8
BLACK
6
CONTINUOUS
10
81.125
20
-63.
11
81.1199369999999931
21
-63.0352169999999958
0
LINE
8
BLACK
6
CONTINUOUS
10
81.1199369999999931
20
-63.0352169999999958
11
81.1138090000000034
21
-63.044750999999998
0
LINE
8
BLACK
6
CONTINUOUS
10
81.1138090000000034
20
-63.044750999999998
11
81.1118029999999948
21
-63.0559019999999961
0
LINE
8
BLACK
6
CONTINUOUS
10
81.1118029999999948
20
-63.0559019999999961
11
80.125
21
-65.0295079999999928
0
LINE
8
BLACK
6
CONTINUOUS
10
80.125
20
-65.0295079999999928
11
80.125
21
-69.
0
LINE
8
BLACK
6
CONTINUOUS
10
80.125
20
-69.
11
80.125
21
-69.0861799999999988
0
LINE
8
BLACK
6
CONTINUOUS
10
80.125
20
-69.0861799999999988
11
80.1586259999999982
21
-69.2552280000000025
0
LINE
8
BLACK
6
CONTINUOUS
10
80.1586259999999982
20
-69.2552280000000025
11
80.2245849999999905
21
-69.4144679999999994
0
LINE
8
BLACK
6
CONTINUOUS
10
80.2245849999999905
20
-69.4144679999999994
11
80.320342999999994
21
-69.5577799999999939
0
LINE
8
BLACK
6
CONTINUOUS
10
80.320342999999994
20
-69.5577799999999939
11
80.4422199999999918
21
-69.6796569999999917
0
LINE
8
BLACK
6
CONTINUOUS
10
80.4422199999999918
20
-69.6796569999999917
11
80.5855320000000006
21
-69.7754149999999953
0
LINE
8
BLACK
6
CONTINUOUS
10
80.5855320000000006
20
-69.7754149999999953
11
80.7447719999999975
21
-69.8413740000000018
0
LINE
8
BLACK
6
CONTINUOUS
10
80.7447719999999975
20
-69.8413740000000018
11
80.9138200000000012
21
-69.875
0
LINE
8
BLACK
6
CONTINUOUS
10
80.9138200000000012
20
-69.875
11
81.
21
-69.875
0
LINE
8
BLACK
6
CONTINUOUS
10
81.
20
-69.875
11
84.970491999999993
21
-69.875
0
LINE
8
BLACK
6
CONTINUOUS
10
84.970491999999993
20
-69.875
11
86.9440979999999968
21
-68.888196999999991
0
LINE
8
BLACK
6
CONTINUOUS
10
86.9440979999999968
20
-68.888196999999991
11
86.9778620000000018
21
-68.8769759999999991
0
LINE
8
BLACK
6
CONTINUOUS
10
86.9778620000000018
20
-68.8769759999999991
11
86.9891269999999963
21
-68.8781919999999985
0
LINE
8
BLACK
6
CONTINUOUS
10
86.9891269999999963
20
-68.8781919999999985
11
87.
21
-68.875
0
LINE
8
BLACK
6
CONTINUOUS
10
87.
20
-68.875
11
113.
21
-68.875
0
LINE
8
BLACK
6
CONTINUOUS
10
113.
20
-68.875
11
113.0352169999999887
21
-68.8800629999999927
0
LINE
8
BLACK
6
CONTINUOUS
10
113.0352169999999887
20
-68.8800629999999927
11
113.0447509999999909
21
-68.8861899999999991
0
LINE
8
BLACK
6
CONTINUOUS
10
113.0447509999999909
20
-68.8861899999999991
11
113.055901999999989
21
-68.888196999999991
0
LINE
8
BLACK
6
CONTINUOUS
10
113.055901999999989
20
-68.888196999999991
11
115.0295079999999928
21
-69.875
0
LINE
8
BLACK
6
CONTINUOUS
10
115.0295079999999928
20
-69.875
11
119.
21
-69.875
0
LINE
8
BLACK
6
CONTINUOUS
10
119.
20
-69.875
11
119.0861799999999988
21
-69.875
0
LINE
8
BLACK
6
CONTINUOUS
10
119.0861799999999988
20
-69.875
11
119.2552279999999882
21
-69.8413740000000018
0
LINE
8
BLACK
6
CONTINUOUS
10
119.2552279999999882
20
-69.8413740000000018
11
119.4144679999999994
21
-69.7754149999999953
0
LINE
8
BLACK
6
CONTINUOUS
10
119.4144679999999994
20
-69.7754149999999953
11
119.5577799999999939
21
-69.6796569999999917
0
LINE
8
BLACK
6
CONTINUOUS
10
119.5577799999999939
20
-69.6796569999999917
11
119.6796569999999917
21
-69.5577799999999939
0
LINE
8
BLACK
6
CONTINUOUS
10
119.6796569999999917
20
-69.5577799999999939
11
119.7754149999999953
21
-69.4144679999999994
0
LINE
8
BLACK
6
CONTINUOUS
10
119.7754149999999953
20
-69.4144679999999994
11
119.8413739999999876
21
-69.2552280000000025
0
LINE
8
BLACK
6
CONTINUOUS
10
119.8413739999999876
20
-69.2552280000000025
11
119.875
21
-69.0861799999999988
0
LINE
8
BLACK
6
CONTINUOUS
10
119.875
20
-69.0861799999999988
11
119.875
21
-69.
0
LINE
8
BLACK
6
CONTINUOUS
10
119.875
20
-69.
11
119.875
21
-65.0295079999999928
0
LINE
8
BLACK
6
CONTINUOUS
10
119.875
20
-65.0295079999999928
11
118.888196999999991
21
-63.0559019999999961
0
LINE
8
BLACK
6
CONTINUOUS
10
118.888196999999991
20
-63.0559019999999961
11
118.8769759999999991
21
-63.0221379999999982
0
LINE
8
BLACK
6
CONTINUOUS
10
118.8769759999999991
20
-63.0221379999999982
11
118.8781919999999985
21
-63.0108719999999991
0
LINE
8
BLACK
6
CONTINUOUS
10
118.8781919999999985
20
-63.0108719999999991
11
118.875
21
-63.
0
LINE
8
BLACK
6
CONTINUOUS
10
118.875
20
-63.
11
118.875
21
-37.
0
LINE
8
BLACK
6
CONTINUOUS
10
118.875
20
-37.
11
118.8800629999999927
21
-36.9647829999999971
0
LINE
8
BLACK
6
CONTINUOUS
10
118.8800629999999927
20
-36.9647829999999971
11
118.8861899999999991
21
-36.9552479999999974
0
LINE
8
BLACK
6
CONTINUOUS
10
118.8861899999999991
20
-36.9552479999999974
11
118.888196999999991
21
-36.9440979999999968
0
LINE
8
BLACK
6
CONTINUOUS
10
118.888196999999991
20
-36.9440979999999968
11
119.875
21
-34.9704920000000001
0
LINE
8
BLACK
6
CONTINUOUS
10
119.875
20
-34.9704920000000001
11
119.875
21
-31.
0
LINE
8
BLACK
6
CONTINUOUS
10
119.875
20
-31.
11
119.875
21
-30.9138199999999976
0
LINE
8
BLACK
6
CONTINUOUS
10
119.875
20
-30.9138199999999976
11
119.8413739999999876
21
-30.7447719999999975
0
LINE
8
BLACK
6
CONTINUOUS
10
119.8413739999999876
20
-30.7447719999999975
11
119.7754149999999953
21
-30.5855319999999971
0
LINE
8
BLACK
6
CONTINUOUS
10
119.7754149999999953
20
-30.5855319999999971
11
119.6796569999999917
21
-30.4422199999999989
0
LINE
8
BLACK
6
CONTINUOUS
10
119.6796569999999917
20
-30.4422199999999989
11
119.5577799999999939
21
-30.3203429999999976
0
LINE
8
BLACK
6
CONTINUOUS
10
119.5577799999999939
20
-30.3203429999999976
11
119.4144679999999994
21
-30.2245849999999976
0
LINE
8
BLACK
6
CONTINUOUS
10
119.4144679999999994
20
-30.2245849999999976
11
119.2552279999999882
21
-30.1586259999999982
0
LINE
8
BLACK
6
CONTINUOUS
10
119.2552279999999882
20
-30.1586259999999982
11
119.0861799999999988
21
-30.125
0
LINE
8
BLACK
6
CONTINUOUS
10
119.0861799999999988
20
-30.125
11
119.
21
-30.125
0
LINE
8
BLACK
6
CONTINUOUS
10
119.
20
-30.125
11
115.0285209999999978
21
-30.125
0
LINE
8
BLACK
6
CONTINUOUS
10
115.0285209999999978
20
-30.125
11
113.0559239999999903
21
-31.1117919999999977
0
LINE
8
BLACK
6
CONTINUOUS
10
113.0559239999999903
20
-31.1117919999999977
11
113.0221629999999919
21
-31.1230200000000004
0
LINE
8
BLACK
6
CONTINUOUS
10
113.0221629999999919
20
-31.1230200000000004
11
113.0108829999999926
21
-31.1218039999999974
0
LINE
8
BLACK
6
CONTINUOUS
10
113.0108829999999926
20
-31.1218039999999974
11
113.
21
-31.125
0
LINE
8
BLACK
6
CONTINUOUS
10
113.
20
-31.125
11
99.9989999999999952
21
-31.125
0
LINE
8
BLACK
6
CONTINUOUS
10
99.9989999999999952
20
-31.125
11
87.
21
-31.125
0
LINE
8
BLACK
6
CONTINUOUS
10
87.
20
-31.125
11
86.9647829999999971
21
-31.1199370000000002
0
LINE
8
BLACK
6
CONTINUOUS
10
86.9647829999999971
20
-31.1199370000000002
11
86.9552479999999974
21
-31.1138089999999998
0
LINE
8
BLACK
6
CONTINUOUS
10
86.9552479999999974
20
-31.1138089999999998
11
86.9440979999999968
21
-31.1118029999999983
0
LINE
8
BLACK
6
CONTINUOUS
10
86.9440979999999968
20
-31.1118029999999983
11
84.970491999999993
21
-30.125
0
LINE
8
BLACK
6
CONTINUOUS
10
84.970491999999993
20
-30.125
11
81.
21
-30.125
  0
ENDSEC
  0
EOF
