<?xml version="1.0" standalone="no"?>
 <!DOCTYPE svg PUBLIC "-//W3C//DTD SVG 1.1//EN" 
 "http://www.w3.org/Graphics/SVG/1.1/DTD/svg11.dtd"> 
<svg
  xmlns:svg="http://www.w3.org/2000/svg"
  xmlns="http://www.w3.org/2000/svg"
  xmlns:xlink="http://www.w3.org/1999/xlink"
  version="1.1"
  width="210.007200mm" height="148.005800mm" viewBox="0.000000 0.000000 210.007200 148.005800">
<title>SVG Image created as PQ_PL1-Edge_Cuts.svg date 2024/01/09 11:59:01 </title>
  <desc>Image generated by PCBNEW </desc>
<g style="fill:#000000; fill-opacity:1.000000;stroke:#000000; stroke-opacity:1.000000;
stroke-linecap:round; stroke-linejoin:round;"
 transform="translate(0 0) scale(1 1)">
</g>
<g style="fill:#000000; fill-opacity:0.0; 
stroke:#000000; stroke-width:0.000000; stroke-opacity:1; 
stroke-linecap:round; stroke-linejoin:round;">
</g>
<g style="fill:#000000; fill-opacity:0.0; 
stroke:#000000; stroke-width:0.250000; stroke-opacity:1; 
stroke-linecap:round; stroke-linejoin:round;">
<path d="M85.000000 70.000000
L81.000000 70.000000
" />
<path d="M80.000000 35.000000
L80.000000 31.000000
" />
<path d="M119.000000 37.000000
L119.000000 63.000000
" />
<path d="M80.000000 69.000000
L80.000000 65.000000
" />
<path d="M113.000000 69.000000
L87.000000 69.000000
" />
<path d="M120.000000 65.000000
L120.000000 69.000000
" />
<path d="M87.000000 31.000000
L99.999000 31.000000
" />
<path d="M80.000000 65.000000
L81.000000 63.000000
" />
<path d="M113.000000 31.000000
L114.999000 30.000000
" />
<path d="M80.000000 69.000000 A1.000000 1.000000 0.0 0 0 81.000000 70.000000" />
<path d="M119.000000 63.000000
L120.000000 65.000000
" />
<path d="M81.000000 30.000000
L85.000000 30.000000
" />
<path d="M120.000000 35.000000
L119.000000 37.000000
" />
<path d="M115.000000 70.000000
L119.000000 70.000000
" />
<path d="M119.000000 70.000000 A1.000000 1.000000 0.0 0 0 120.000000 69.000000" />
<path d="M81.000000 30.000000 A1.000000 1.000000 0.0 0 0 80.000000 31.000000" />
<path d="M99.999000 31.000000
L113.000000 31.000000
" />
<path d="M120.000000 35.000000
L120.000000 31.000000
" />
<path d="M114.999000 30.000000
L119.000000 30.000000
" />
<path d="M120.000000 31.000000 A1.000000 1.000000 0.0 0 0 119.000000 30.000000" />
<path d="M113.000000 69.000000
L115.000000 70.000000
" />
<path d="M85.000000 30.000000
L87.000000 31.000000
" />
<path d="M81.000000 37.000000
L80.000000 35.000000
" />
<path d="M81.000000 63.000000
L81.000000 37.000000
" />
<path d="M87.000000 69.000000
L85.000000 70.000000
" />
</g>
<g style="fill:#000000; fill-opacity:0.0; 
stroke:#000000; stroke-width:0.120000; stroke-opacity:1; 
stroke-linecap:round; stroke-linejoin:round;">
<circle cx="108.410800" cy="37.142000" r="1.100000" /> 
<circle cx="91.710800" cy="37.142000" r="1.100000" /> 
<circle cx="108.410800" cy="61.842000" r="1.100000" /> 
<circle cx="91.710800" cy="61.842000" r="1.100000" /> 
<g >
</g>
<g >
</g>
<g >
</g>
<g >
</g>
<g >
</g>
<g >
</g>
<g >
</g>
<g >
</g>
<g >
</g>
<g >
</g>
<g >
</g>
<g >
</g>
</g> 
</svg>
