<?xml version="1.0" standalone="no"?>
 <!DOCTYPE svg PUBLIC "-//W3C//DTD SVG 1.1//EN" 
 "http://www.w3.org/Graphics/SVG/1.1/DTD/svg11.dtd"> 
<svg
  xmlns:svg="http://www.w3.org/2000/svg"
  xmlns="http://www.w3.org/2000/svg"
  xmlns:xlink="http://www.w3.org/1999/xlink"
  version="1.1"
  width="210.007200mm" height="148.005800mm" viewBox="0.000000 0.000000 210.007200 148.005800">
<title>SVG Image created as PQ_MagYBoard-F_Silkscreen.svg date 2024/01/09 12:01:05 </title>
  <desc>Image generated by PCBNEW </desc>
<g style="fill:#000000; fill-opacity:1.000000;stroke:#000000; stroke-opacity:1.000000;
stroke-linecap:round; stroke-linejoin:round;"
 transform="translate(0 0) scale(1 1)">
</g>
<g style="fill:#000000; fill-opacity:0.0; 
stroke:#000000; stroke-width:0.000000; stroke-opacity:1; 
stroke-linecap:round; stroke-linejoin:round;">
</g>
<g style="fill:#000000; fill-opacity:0.0; 
stroke:#000000; stroke-width:0.150000; stroke-opacity:1; 
stroke-linecap:round; stroke-linejoin:round;">
<text x="101.701600" y="77.597600"
textLength="20.381425" font-size="1.600000" lengthAdjust="spacingAndGlyphs"
text-anchor="middle" opacity="0">Y Magnetorquer Board</text>
<g class="stroked-text"><desc>Y Magnetorquer Board</desc>
<path d="M92.130173 76.973514
L92.130173 77.544942
" />
<path d="M91.730173 76.344942
L92.130173 76.973514
" />
<path d="M92.130173 76.973514
L92.530173 76.344942
" />
<path d="M93.844459 77.544942
L93.844459 76.344942
" />
<path d="M93.844459 76.344942
L94.244459 77.202085
" />
<path d="M94.244459 77.202085
L94.644459 76.344942
" />
<path d="M94.644459 76.344942
L94.644459 77.544942
" />
<path d="M95.730174 77.544942
L95.730174 76.916371
" />
<path d="M95.730174 76.916371
L95.673031 76.802085
" />
<path d="M95.673031 76.802085
L95.558745 76.744942
" />
<path d="M95.558745 76.744942
L95.330174 76.744942
" />
<path d="M95.330174 76.744942
L95.215888 76.802085
" />
<path d="M95.730174 77.487800
L95.615888 77.544942
" />
<path d="M95.615888 77.544942
L95.330174 77.544942
" />
<path d="M95.330174 77.544942
L95.215888 77.487800
" />
<path d="M95.215888 77.487800
L95.158745 77.373514
" />
<path d="M95.158745 77.373514
L95.158745 77.259228
" />
<path d="M95.158745 77.259228
L95.215888 77.144942
" />
<path d="M95.215888 77.144942
L95.330174 77.087800
" />
<path d="M95.330174 77.087800
L95.615888 77.087800
" />
<path d="M95.615888 77.087800
L95.730174 77.030657
" />
<path d="M96.815888 76.744942
L96.815888 77.716371
" />
<path d="M96.815888 77.716371
L96.758745 77.830657
" />
<path d="M96.758745 77.830657
L96.701602 77.887800
" />
<path d="M96.701602 77.887800
L96.587316 77.944942
" />
<path d="M96.587316 77.944942
L96.415888 77.944942
" />
<path d="M96.415888 77.944942
L96.301602 77.887800
" />
<path d="M96.815888 77.487800
L96.701602 77.544942
" />
<path d="M96.701602 77.544942
L96.473030 77.544942
" />
<path d="M96.473030 77.544942
L96.358745 77.487800
" />
<path d="M96.358745 77.487800
L96.301602 77.430657
" />
<path d="M96.301602 77.430657
L96.244459 77.316371
" />
<path d="M96.244459 77.316371
L96.244459 76.973514
" />
<path d="M96.244459 76.973514
L96.301602 76.859228
" />
<path d="M96.301602 76.859228
L96.358745 76.802085
" />
<path d="M96.358745 76.802085
L96.473030 76.744942
" />
<path d="M96.473030 76.744942
L96.701602 76.744942
" />
<path d="M96.701602 76.744942
L96.815888 76.802085
" />
<path d="M97.387316 76.744942
L97.387316 77.544942
" />
<path d="M97.387316 76.859228
L97.444459 76.802085
" />
<path d="M97.444459 76.802085
L97.558744 76.744942
" />
<path d="M97.558744 76.744942
L97.730173 76.744942
" />
<path d="M97.730173 76.744942
L97.844459 76.802085
" />
<path d="M97.844459 76.802085
L97.901602 76.916371
" />
<path d="M97.901602 76.916371
L97.901602 77.544942
" />
<path d="M98.930173 77.487800
L98.815887 77.544942
" />
<path d="M98.815887 77.544942
L98.587316 77.544942
" />
<path d="M98.587316 77.544942
L98.473030 77.487800
" />
<path d="M98.473030 77.487800
L98.415887 77.373514
" />
<path d="M98.415887 77.373514
L98.415887 76.916371
" />
<path d="M98.415887 76.916371
L98.473030 76.802085
" />
<path d="M98.473030 76.802085
L98.587316 76.744942
" />
<path d="M98.587316 76.744942
L98.815887 76.744942
" />
<path d="M98.815887 76.744942
L98.930173 76.802085
" />
<path d="M98.930173 76.802085
L98.987316 76.916371
" />
<path d="M98.987316 76.916371
L98.987316 77.030657
" />
<path d="M98.987316 77.030657
L98.415887 77.144942
" />
<path d="M99.330172 76.744942
L99.787315 76.744942
" />
<path d="M99.501601 76.344942
L99.501601 77.373514
" />
<path d="M99.501601 77.373514
L99.558744 77.487800
" />
<path d="M99.558744 77.487800
L99.673029 77.544942
" />
<path d="M99.673029 77.544942
L99.787315 77.544942
" />
<path d="M100.358743 77.544942
L100.244458 77.487800
" />
<path d="M100.244458 77.487800
L100.187315 77.430657
" />
<path d="M100.187315 77.430657
L100.130172 77.316371
" />
<path d="M100.130172 77.316371
L100.130172 76.973514
" />
<path d="M100.130172 76.973514
L100.187315 76.859228
" />
<path d="M100.187315 76.859228
L100.244458 76.802085
" />
<path d="M100.244458 76.802085
L100.358743 76.744942
" />
<path d="M100.358743 76.744942
L100.530172 76.744942
" />
<path d="M100.530172 76.744942
L100.644458 76.802085
" />
<path d="M100.644458 76.802085
L100.701601 76.859228
" />
<path d="M100.701601 76.859228
L100.758743 76.973514
" />
<path d="M100.758743 76.973514
L100.758743 77.316371
" />
<path d="M100.758743 77.316371
L100.701601 77.430657
" />
<path d="M100.701601 77.430657
L100.644458 77.487800
" />
<path d="M100.644458 77.487800
L100.530172 77.544942
" />
<path d="M100.530172 77.544942
L100.358743 77.544942
" />
<path d="M101.273029 77.544942
L101.273029 76.744942
" />
<path d="M101.273029 76.973514
L101.330172 76.859228
" />
<path d="M101.330172 76.859228
L101.387315 76.802085
" />
<path d="M101.387315 76.802085
L101.501600 76.744942
" />
<path d="M101.501600 76.744942
L101.615886 76.744942
" />
<path d="M102.530172 76.744942
L102.530172 77.944942
" />
<path d="M102.530172 77.487800
L102.415886 77.544942
" />
<path d="M102.415886 77.544942
L102.187314 77.544942
" />
<path d="M102.187314 77.544942
L102.073029 77.487800
" />
<path d="M102.073029 77.487800
L102.015886 77.430657
" />
<path d="M102.015886 77.430657
L101.958743 77.316371
" />
<path d="M101.958743 77.316371
L101.958743 76.973514
" />
<path d="M101.958743 76.973514
L102.015886 76.859228
" />
<path d="M102.015886 76.859228
L102.073029 76.802085
" />
<path d="M102.073029 76.802085
L102.187314 76.744942
" />
<path d="M102.187314 76.744942
L102.415886 76.744942
" />
<path d="M102.415886 76.744942
L102.530172 76.802085
" />
<path d="M103.615886 76.744942
L103.615886 77.544942
" />
<path d="M103.101600 76.744942
L103.101600 77.373514
" />
<path d="M103.101600 77.373514
L103.158743 77.487800
" />
<path d="M103.158743 77.487800
L103.273028 77.544942
" />
<path d="M103.273028 77.544942
L103.444457 77.544942
" />
<path d="M103.444457 77.544942
L103.558743 77.487800
" />
<path d="M103.558743 77.487800
L103.615886 77.430657
" />
<path d="M104.644457 77.487800
L104.530171 77.544942
" />
<path d="M104.530171 77.544942
L104.301600 77.544942
" />
<path d="M104.301600 77.544942
L104.187314 77.487800
" />
<path d="M104.187314 77.487800
L104.130171 77.373514
" />
<path d="M104.130171 77.373514
L104.130171 76.916371
" />
<path d="M104.130171 76.916371
L104.187314 76.802085
" />
<path d="M104.187314 76.802085
L104.301600 76.744942
" />
<path d="M104.301600 76.744942
L104.530171 76.744942
" />
<path d="M104.530171 76.744942
L104.644457 76.802085
" />
<path d="M104.644457 76.802085
L104.701600 76.916371
" />
<path d="M104.701600 76.916371
L104.701600 77.030657
" />
<path d="M104.701600 77.030657
L104.130171 77.144942
" />
<path d="M105.215885 77.544942
L105.215885 76.744942
" />
<path d="M105.215885 76.973514
L105.273028 76.859228
" />
<path d="M105.273028 76.859228
L105.330171 76.802085
" />
<path d="M105.330171 76.802085
L105.444456 76.744942
" />
<path d="M105.444456 76.744942
L105.558742 76.744942
" />
<path d="M107.273028 76.916371
L107.444456 76.973514
" />
<path d="M107.444456 76.973514
L107.501599 77.030657
" />
<path d="M107.501599 77.030657
L107.558742 77.144942
" />
<path d="M107.558742 77.144942
L107.558742 77.316371
" />
<path d="M107.558742 77.316371
L107.501599 77.430657
" />
<path d="M107.501599 77.430657
L107.444456 77.487800
" />
<path d="M107.444456 77.487800
L107.330171 77.544942
" />
<path d="M107.330171 77.544942
L106.873028 77.544942
" />
<path d="M106.873028 77.544942
L106.873028 76.344942
" />
<path d="M106.873028 76.344942
L107.273028 76.344942
" />
<path d="M107.273028 76.344942
L107.387314 76.402085
" />
<path d="M107.387314 76.402085
L107.444456 76.459228
" />
<path d="M107.444456 76.459228
L107.501599 76.573514
" />
<path d="M107.501599 76.573514
L107.501599 76.687800
" />
<path d="M107.501599 76.687800
L107.444456 76.802085
" />
<path d="M107.444456 76.802085
L107.387314 76.859228
" />
<path d="M107.387314 76.859228
L107.273028 76.916371
" />
<path d="M107.273028 76.916371
L106.873028 76.916371
" />
<path d="M108.244456 77.544942
L108.130171 77.487800
" />
<path d="M108.130171 77.487800
L108.073028 77.430657
" />
<path d="M108.073028 77.430657
L108.015885 77.316371
" />
<path d="M108.015885 77.316371
L108.015885 76.973514
" />
<path d="M108.015885 76.973514
L108.073028 76.859228
" />
<path d="M108.073028 76.859228
L108.130171 76.802085
" />
<path d="M108.130171 76.802085
L108.244456 76.744942
" />
<path d="M108.244456 76.744942
L108.415885 76.744942
" />
<path d="M108.415885 76.744942
L108.530171 76.802085
" />
<path d="M108.530171 76.802085
L108.587314 76.859228
" />
<path d="M108.587314 76.859228
L108.644456 76.973514
" />
<path d="M108.644456 76.973514
L108.644456 77.316371
" />
<path d="M108.644456 77.316371
L108.587314 77.430657
" />
<path d="M108.587314 77.430657
L108.530171 77.487800
" />
<path d="M108.530171 77.487800
L108.415885 77.544942
" />
<path d="M108.415885 77.544942
L108.244456 77.544942
" />
<path d="M109.673028 77.544942
L109.673028 76.916371
" />
<path d="M109.673028 76.916371
L109.615885 76.802085
" />
<path d="M109.615885 76.802085
L109.501599 76.744942
" />
<path d="M109.501599 76.744942
L109.273028 76.744942
" />
<path d="M109.273028 76.744942
L109.158742 76.802085
" />
<path d="M109.673028 77.487800
L109.558742 77.544942
" />
<path d="M109.558742 77.544942
L109.273028 77.544942
" />
<path d="M109.273028 77.544942
L109.158742 77.487800
" />
<path d="M109.158742 77.487800
L109.101599 77.373514
" />
<path d="M109.101599 77.373514
L109.101599 77.259228
" />
<path d="M109.101599 77.259228
L109.158742 77.144942
" />
<path d="M109.158742 77.144942
L109.273028 77.087800
" />
<path d="M109.273028 77.087800
L109.558742 77.087800
" />
<path d="M109.558742 77.087800
L109.673028 77.030657
" />
<path d="M110.244456 77.544942
L110.244456 76.744942
" />
<path d="M110.244456 76.973514
L110.301599 76.859228
" />
<path d="M110.301599 76.859228
L110.358742 76.802085
" />
<path d="M110.358742 76.802085
L110.473027 76.744942
" />
<path d="M110.473027 76.744942
L110.587313 76.744942
" />
<path d="M111.501599 77.544942
L111.501599 76.344942
" />
<path d="M111.501599 77.487800
L111.387313 77.544942
" />
<path d="M111.387313 77.544942
L111.158741 77.544942
" />
<path d="M111.158741 77.544942
L111.044456 77.487800
" />
<path d="M111.044456 77.487800
L110.987313 77.430657
" />
<path d="M110.987313 77.430657
L110.930170 77.316371
" />
<path d="M110.930170 77.316371
L110.930170 76.973514
" />
<path d="M110.930170 76.973514
L110.987313 76.859228
" />
<path d="M110.987313 76.859228
L111.044456 76.802085
" />
<path d="M111.044456 76.802085
L111.158741 76.744942
" />
<path d="M111.158741 76.744942
L111.387313 76.744942
" />
<path d="M111.387313 76.744942
L111.501599 76.802085
" />
</g></g>
<g style="fill:#000000; fill-opacity:0.0; 
stroke:#000000; stroke-width:0.100000; stroke-opacity:1; 
stroke-linecap:round; stroke-linejoin:round;">
<text x="101.752400" y="63.938800"
textLength="0.905714" font-size="0.533333" lengthAdjust="spacingAndGlyphs"
text-anchor="middle" opacity="0">J1</text>
<g class="stroked-text"><desc>J1</desc>
<path d="M101.619066 63.518647
L101.619066 63.804361
" />
<path d="M101.619066 63.804361
L101.600019 63.861504
" />
<path d="M101.600019 63.861504
L101.561923 63.899600
" />
<path d="M101.561923 63.899600
L101.504781 63.918647
" />
<path d="M101.504781 63.918647
L101.466685 63.918647
" />
<path d="M102.019066 63.918647
L101.790495 63.918647
" />
<path d="M101.904781 63.918647
L101.904781 63.518647
" />
<path d="M101.904781 63.518647
L101.866685 63.575790
" />
<path d="M101.866685 63.575790
L101.828590 63.613885
" />
<path d="M101.828590 63.613885
L101.790495 63.632933
" />
</g><text x="105.816400" y="64.446800"
textLength="1.324762" font-size="0.533333" lengthAdjust="spacingAndGlyphs"
text-anchor="middle" opacity="0">NT1</text>
<g class="stroked-text"><desc>NT1</desc>
<path d="M105.359257 64.426647
L105.359257 64.026647
" />
<path d="M105.359257 64.026647
L105.587828 64.426647
" />
<path d="M105.587828 64.426647
L105.587828 64.026647
" />
<path d="M105.721162 64.026647
L105.949733 64.026647
" />
<path d="M105.835447 64.426647
L105.835447 64.026647
" />
<path d="M106.292590 64.426647
L106.064019 64.426647
" />
<path d="M106.178305 64.426647
L106.178305 64.026647
" />
<path d="M106.178305 64.026647
L106.140209 64.083790
" />
<path d="M106.140209 64.083790
L106.102114 64.121885
" />
<path d="M106.102114 64.121885
L106.064019 64.140933
" />
</g></g>
<g style="fill:#000000; fill-opacity:0.0; 
stroke:#000000; stroke-width:0.200000; stroke-opacity:1; 
stroke-linecap:round; stroke-linejoin:round;">
<path d="M99.208000 62.016000
L104.288000 62.016000
" />
<path d="M104.288000 62.016000
L104.288000 61.476000
" />
<path d="M99.208000 61.476000
L99.208000 62.016000
" />
</g>
<g style="fill:#000000; fill-opacity:1.000000; 
stroke:#000000; stroke-width:0.000000; stroke-opacity:1; 
stroke-linecap:round; stroke-linejoin:round;">
<circle cx="97.448000" cy="60.746000" r="0.050000" /> 
<circle cx="97.548000" cy="60.746000" r="0.050000" /> 
</g>
<g style="fill:#000000; fill-opacity:1.000000; 
stroke:#000000; stroke-width:0.200000; stroke-opacity:1; 
stroke-linecap:round; stroke-linejoin:round;">
</g>
<g style="fill:#000000; fill-opacity:0.0; 
stroke:#000000; stroke-width:0.200000; stroke-opacity:1; 
stroke-linecap:round; stroke-linejoin:round;">
<path d="M99.208000 57.476000
L99.208000 56.936000
" />
<path d="M99.208000 56.936000
L104.288000 56.936000
" />
<path d="M104.288000 56.936000
L104.288000 57.476000
" />
</g>
<g style="fill:#000000; fill-opacity:0.0; 
stroke:#000000; stroke-width:0.100000; stroke-opacity:1; 
stroke-linecap:round; stroke-linejoin:round;">
<path d="M97.548000 60.746000 A0.050000 0.050000 0.0 0 0 97.448000 60.746000" />
<path d="M97.448000 60.746000 A0.050000 0.050000 0.0 0 0 97.548000 60.746000" />
<g >
</g>
<g >
</g>
<g >
</g>
<g >
</g>
<g >
</g>
<g >
</g>
<g >
</g>
<g >
</g>
<g >
</g>
<g >
</g>
<g >
</g>
<g >
</g>
<g >
</g>
</g> 
</svg>
