  0
SECTION
  2
HEADER
  9
$ANGBASE
  50
0.0
  9
$ANGDIR
  70
1
  9
$MEASUREMENT
  70
1
  0
ENDSEC
  0
SECTION
  2
TABLES
  0
TABLE
  2
LTYPE
  70
4
  0
LTYPE
  5
40F
  2
CONTINUOUS
  70
0
  3
Solid line
  72
65
  73
0
  40
0.0
  0
LTYPE
  5
410
  2
DASHDOT
 70
0
  3
Dash Dot ____ _ ____ _
 72
65
 73
4
 40
2.0
 49
1.25
 49
-0.25
 49
0.25
 49
-0.25
  0
LTYPE
  5
411
  2
DASHED
 70
0
  3
Dashed __ __ __ __ __
 72
65
 73
2
 40
0.75
 49
0.5
 49
-0.25
  0
LTYPE
  5
43B
  2
DOTTED
 70
0
  3
Dotted .  .  .  .
 72
65
 73
2
 40
0.2
 49
0.0
 49
-0.2
  0
ENDTAB
  0
TABLE
  2
STYLE
  70
4
  0
STYLE
  2
KICAD
  70
0
  40
0
  41
1
  42
1
  50
0
  71
0
  3
isocp.shx
  0
STYLE
  2
KICADB
  70
0
  40
0
  41
1
  42
1
  50
0
  71
0
  3
isocp.shx
  0
STYLE
  2
KICADI
  70
0
  40
0
  41
1
  42
1
  50
15
  71
0
  3
isocp.shx
  0
STYLE
  2
KICADBI
  70
0
  40
0
  41
1
  42
1
  50
15
  71
0
  3
isocp.shx
  0
ENDTAB
  0
TABLE
  2
LAYER
  70
1
  0
LAYER
  2
BLACK
  70
0
  62
7
  6
CONTINUOUS
  0
ENDTAB
  0
ENDSEC
  0
SECTION
  2
ENTITIES
0
LINE
8
BLACK
6
CONTINUOUS
10
96.7272540000000021
20
-76.6744649999999979
11
96.7306889999999981
21
-76.6773469999999975
0
LINE
8
BLACK
6
CONTINUOUS
10
96.7306889999999981
20
-76.6773469999999975
11
96.7351429999999937
21
-76.6778599999999955
0
LINE
8
BLACK
6
CONTINUOUS
10
96.7351429999999937
20
-76.6778599999999955
11
96.7668649999999957
21
-76.6937209999999965
0
LINE
8
BLACK
6
CONTINUOUS
10
96.7668649999999957
20
-76.6937209999999965
11
96.7783879999999925
21
-76.6799899999999894
0
LINE
8
BLACK
6
CONTINUOUS
10
96.7783879999999925
20
-76.6799899999999894
11
96.8289120000000025
21
-76.6710810000000009
0
LINE
8
BLACK
6
CONTINUOUS
10
96.8289120000000025
20
-76.6710810000000009
11
96.8733409999999964
21
-76.6967329999999947
0
LINE
8
BLACK
6
CONTINUOUS
10
96.8733409999999964
20
-76.6967329999999947
11
96.8908879999999897
21
-76.7449419999999947
0
LINE
8
BLACK
6
CONTINUOUS
10
96.8908879999999897
20
-76.7449419999999947
11
96.8908879999999897
21
-77.7163709999999952
0
LINE
8
BLACK
6
CONTINUOUS
10
96.8908879999999897
20
-77.7163709999999952
11
96.8863649999999978
21
-77.7420230000000032
0
LINE
8
BLACK
6
CONTINUOUS
10
96.8863649999999978
20
-77.7420230000000032
11
96.8834820000000008
21
-77.7454579999999993
0
LINE
8
BLACK
6
CONTINUOUS
10
96.8834820000000008
20
-77.7454579999999993
11
96.8829700000000003
21
-77.7499119999999948
0
LINE
8
BLACK
6
CONTINUOUS
10
96.8829700000000003
20
-77.7499119999999948
11
96.8258269999999897
21
-77.8641980000000018
0
LINE
8
BLACK
6
CONTINUOUS
10
96.8258269999999897
20
-77.8641980000000018
11
96.812468999999993
21
-77.8822079999999914
0
LINE
8
BLACK
6
CONTINUOUS
10
96.812468999999993
20
-77.8822079999999914
11
96.8117779999999897
21
-77.8836900000000014
0
LINE
8
BLACK
6
CONTINUOUS
10
96.8117779999999897
20
-77.8836900000000014
11
96.7546349999999933
21
-77.9408329999999978
0
LINE
8
BLACK
6
CONTINUOUS
10
96.7546349999999933
20
-77.9408329999999978
11
96.7362660000000005
21
-77.9536939999999987
0
LINE
8
BLACK
6
CONTINUOUS
10
96.7362660000000005
20
-77.9536939999999987
11
96.7351419999999962
21
-77.9548819999999978
0
LINE
8
BLACK
6
CONTINUOUS
10
96.7351419999999962
20
-77.9548819999999978
11
96.6208570000000009
21
-78.0120239999999967
0
LINE
8
BLACK
6
CONTINUOUS
10
96.6208570000000009
20
-78.0120239999999967
11
96.5958899999999971
21
-78.0194509999999894
0
LINE
8
BLACK
6
CONTINUOUS
10
96.5958899999999971
20
-78.0194509999999894
11
96.5915279999999967
21
-78.0184079999999938
0
LINE
8
BLACK
6
CONTINUOUS
10
96.5915279999999967
20
-78.0184079999999938
11
96.5873160000000013
21
-78.0199420000000003
0
LINE
8
BLACK
6
CONTINUOUS
10
96.5873160000000013
20
-78.0199420000000003
11
96.4158879999999954
21
-78.0199420000000003
0
LINE
8
BLACK
6
CONTINUOUS
10
96.4158879999999954
20
-78.0199420000000003
11
96.3902360000000016
21
-78.0154189999999943
0
LINE
8
BLACK
6
CONTINUOUS
10
96.3902360000000016
20
-78.0154189999999943
11
96.3867999999999938
21
-78.0125359999999972
0
LINE
8
BLACK
6
CONTINUOUS
10
96.3867999999999938
20
-78.0125359999999972
11
96.3823469999999958
21
-78.0120239999999967
0
LINE
8
BLACK
6
CONTINUOUS
10
96.3823469999999958
20
-78.0120239999999967
11
96.2680609999999888
21
-77.9548819999999978
0
LINE
8
BLACK
6
CONTINUOUS
10
96.2680609999999888
20
-77.9548819999999978
11
96.2471400000000017
21
-77.9393649999999951
0
LINE
8
BLACK
6
CONTINUOUS
10
96.2471400000000017
20
-77.9393649999999951
11
96.226737
21
-77.8922939999999926
0
LINE
8
BLACK
6
CONTINUOUS
10
96.226737
20
-77.8922939999999926
11
96.2413629999999927
21
-77.843119999999999
0
LINE
8
BLACK
6
CONTINUOUS
10
96.2413629999999927
20
-77.843119999999999
11
96.2841760000000022
21
-77.8148529999999994
0
LINE
8
BLACK
6
CONTINUOUS
10
96.2841760000000022
20
-77.8148529999999994
11
96.3351430000000022
21
-77.8207179999999994
0
LINE
8
BLACK
6
CONTINUOUS
10
96.3351430000000022
20
-77.8207179999999994
11
96.4335919999999902
21
-77.8699419999999947
0
LINE
8
BLACK
6
CONTINUOUS
10
96.4335919999999902
20
-77.8699419999999947
11
96.5696109999999948
21
-77.8699419999999947
0
LINE
8
BLACK
6
CONTINUOUS
10
96.5696109999999948
20
-77.8699419999999947
11
96.6571749999999952
21
-77.8261600000000016
0
LINE
8
BLACK
6
CONTINUOUS
10
96.6571749999999952
20
-77.8261600000000016
11
96.6971059999999909
21
-77.7862300000000033
0
LINE
8
BLACK
6
CONTINUOUS
10
96.6971059999999909
20
-77.7862300000000033
11
96.7408879999999982
21
-77.6986660000000029
0
LINE
8
BLACK
6
CONTINUOUS
10
96.7408879999999982
20
-77.6986660000000029
11
96.7408879999999982
21
-77.6091509999999971
0
LINE
8
BLACK
6
CONTINUOUS
10
96.7408879999999982
20
-77.6091509999999971
11
96.7351429999999937
21
-77.612023999999991
0
LINE
8
BLACK
6
CONTINUOUS
10
96.7351429999999937
20
-77.612023999999991
11
96.7101759999999899
21
-77.619450999999998
0
LINE
8
BLACK
6
CONTINUOUS
10
96.7101759999999899
20
-77.619450999999998
11
96.7058139999999895
21
-77.6184080000000023
0
LINE
8
BLACK
6
CONTINUOUS
10
96.7058139999999895
20
-77.6184080000000023
11
96.7016019999999941
21
-77.6199419999999947
0
LINE
8
BLACK
6
CONTINUOUS
10
96.7016019999999941
20
-77.6199419999999947
11
96.4730299999999943
21
-77.6199419999999947
0
LINE
8
BLACK
6
CONTINUOUS
10
96.4730299999999943
20
-77.6199419999999947
11
96.4473780000000005
21
-77.6154190000000028
0
LINE
8
BLACK
6
CONTINUOUS
10
96.4473780000000005
20
-77.6154190000000028
11
96.4439419999999927
21
-77.6125359999999915
0
LINE
8
BLACK
6
CONTINUOUS
10
96.4439419999999927
20
-77.6125359999999915
11
96.4394889999999947
21
-77.612023999999991
0
LINE
8
BLACK
6
CONTINUOUS
10
96.4394889999999947
20
-77.612023999999991
11
96.3252039999999994
21
-77.5548819999999921
0
LINE
8
BLACK
6
CONTINUOUS
10
96.3252039999999994
20
-77.5548819999999921
11
96.3071929999999981
21
-77.5415239999999955
0
LINE
8
BLACK
6
CONTINUOUS
10
96.3071929999999981
20
-77.5415239999999955
11
96.3057119999999998
21
-77.5408329999999921
0
LINE
8
BLACK
6
CONTINUOUS
10
96.3057119999999998
20
-77.5408329999999921
11
96.2485689999999892
21
-77.4836899999999957
0
LINE
8
BLACK
6
CONTINUOUS
10
96.2485689999999892
20
-77.4836899999999957
11
96.2357089999999999
21
-77.4653239999999954
0
LINE
8
BLACK
6
CONTINUOUS
10
96.2357089999999999
20
-77.4653239999999954
11
96.2345199999999892
21
-77.4641979999999961
0
LINE
8
BLACK
6
CONTINUOUS
10
96.2345199999999892
20
-77.4641979999999961
11
96.1773769999999928
21
-77.3499120000000033
0
LINE
8
BLACK
6
CONTINUOUS
10
96.1773769999999928
20
-77.3499120000000033
11
96.1699509999999975
21
-77.3249449999999996
0
LINE
8
BLACK
6
CONTINUOUS
10
96.1699509999999975
20
-77.3249449999999996
11
96.1709919999999983
21
-77.3205839999999966
0
LINE
8
BLACK
6
CONTINUOUS
10
96.1709919999999983
20
-77.3205839999999966
11
96.1694589999999891
21
-77.3163709999999895
0
LINE
8
BLACK
6
CONTINUOUS
10
96.1694589999999891
20
-77.3163709999999895
11
96.1694589999999891
21
-76.9735139999999944
0
LINE
8
BLACK
6
CONTINUOUS
10
96.1694589999999891
20
-76.9735139999999944
11
96.1739819999999952
21
-76.9478620000000006
0
LINE
8
BLACK
6
CONTINUOUS
10
96.1739819999999952
20
-76.9478620000000006
11
96.1768639999999948
21
-76.9444259999999929
0
LINE
8
BLACK
6
CONTINUOUS
10
96.1768639999999948
20
-76.9444259999999929
11
96.1773769999999928
21
-76.9399729999999948
0
LINE
8
BLACK
6
CONTINUOUS
10
96.1773769999999928
20
-76.9399729999999948
11
96.2345199999999892
21
-76.8256870000000021
0
LINE
8
BLACK
6
CONTINUOUS
10
96.2345199999999892
20
-76.8256870000000021
11
96.2478759999999909
21
-76.8076789999999932
0
LINE
8
BLACK
6
CONTINUOUS
10
96.2478759999999909
20
-76.8076789999999932
11
96.2485689999999892
21
-76.8061950000000024
0
LINE
8
BLACK
6
CONTINUOUS
10
96.2485689999999892
20
-76.8061950000000024
11
96.3057119999999998
21
-76.7490519999999918
0
LINE
8
BLACK
6
CONTINUOUS
10
96.3057119999999998
20
-76.7490519999999918
11
96.3240780000000001
21
-76.7361920000000026
0
LINE
8
BLACK
6
CONTINUOUS
10
96.3240780000000001
20
-76.7361920000000026
11
96.3252039999999994
21
-76.7350029999999919
0
LINE
8
BLACK
6
CONTINUOUS
10
96.3252039999999994
20
-76.7350029999999919
11
96.4394889999999947
21
-76.6778599999999955
0
LINE
8
BLACK
6
CONTINUOUS
10
96.4394889999999947
20
-76.6778599999999955
11
96.4644559999999984
21
-76.6704330000000027
0
LINE
8
BLACK
6
CONTINUOUS
10
96.4644559999999984
20
-76.6704330000000027
11
96.4688179999999988
21
-76.6714750000000009
0
LINE
8
BLACK
6
CONTINUOUS
10
96.4688179999999988
20
-76.6714750000000009
11
96.4730299999999943
21
-76.6699419999999918
0
LINE
8
BLACK
6
CONTINUOUS
10
96.4730299999999943
20
-76.6699419999999918
11
96.7016019999999941
21
-76.6699419999999918
0
LINE
8
BLACK
6
CONTINUOUS
10
96.7016019999999941
20
-76.6699419999999918
11
96.7272540000000021
21
-76.6744649999999979
0
LINE
8
BLACK
6
CONTINUOUS
10
96.4031719999999979
20
-76.8637229999999931
11
96.3632410000000021
21
-76.9036550000000005
0
LINE
8
BLACK
6
CONTINUOUS
10
96.3632410000000021
20
-76.9036550000000005
11
96.3194589999999948
21
-76.991219000000001
0
LINE
8
BLACK
6
CONTINUOUS
10
96.3194589999999948
20
-76.991219000000001
11
96.3194589999999948
21
-77.2986659999999972
0
LINE
8
BLACK
6
CONTINUOUS
10
96.3194589999999948
20
-77.2986659999999972
11
96.3632410000000021
21
-77.3862299999999976
0
LINE
8
BLACK
6
CONTINUOUS
10
96.3632410000000021
20
-77.3862299999999976
11
96.4031710000000004
21
-77.4261599999999959
0
LINE
8
BLACK
6
CONTINUOUS
10
96.4031710000000004
20
-77.4261599999999959
11
96.4907350000000008
21
-77.4699420000000032
0
LINE
8
BLACK
6
CONTINUOUS
10
96.4907350000000008
20
-77.4699420000000032
11
96.6838970000000018
21
-77.4699420000000032
0
LINE
8
BLACK
6
CONTINUOUS
10
96.6838970000000018
20
-77.4699420000000032
11
96.7408879999999982
21
-77.4414469999999966
0
LINE
8
BLACK
6
CONTINUOUS
10
96.7408879999999982
20
-77.4414469999999966
11
96.7408879999999982
21
-76.8484369999999899
0
LINE
8
BLACK
6
CONTINUOUS
10
96.7408879999999982
20
-76.8484369999999899
11
96.6838970000000018
21
-76.8199419999999975
0
LINE
8
BLACK
6
CONTINUOUS
10
96.6838970000000018
20
-76.8199419999999975
11
96.4907350000000008
21
-76.8199419999999975
0
LINE
8
BLACK
6
CONTINUOUS
10
96.4907350000000008
20
-76.8199419999999975
11
96.4031719999999979
21
-76.8637229999999931
0
LINE
8
BLACK
6
CONTINUOUS
10
102.4415379999999942
20
-76.6744649999999979
11
102.4449729999999903
21
-76.6773469999999975
0
LINE
8
BLACK
6
CONTINUOUS
10
102.4449729999999903
20
-76.6773469999999975
11
102.449427
21
-76.6778599999999955
0
LINE
8
BLACK
6
CONTINUOUS
10
102.449427
20
-76.6778599999999955
11
102.481149000000002
21
-76.6937209999999965
0
LINE
8
BLACK
6
CONTINUOUS
10
102.481149000000002
20
-76.6937209999999965
11
102.4926719999999989
21
-76.6799899999999894
0
LINE
8
BLACK
6
CONTINUOUS
10
102.4926719999999989
20
-76.6799899999999894
11
102.5431959999999947
21
-76.6710810000000009
0
LINE
8
BLACK
6
CONTINUOUS
10
102.5431959999999947
20
-76.6710810000000009
11
102.5876249999999885
21
-76.6967329999999947
0
LINE
8
BLACK
6
CONTINUOUS
10
102.5876249999999885
20
-76.6967329999999947
11
102.605171999999996
21
-76.7449419999999947
0
LINE
8
BLACK
6
CONTINUOUS
10
102.605171999999996
20
-76.7449419999999947
11
102.605171999999996
21
-77.9449419999999975
0
LINE
8
BLACK
6
CONTINUOUS
10
102.605171999999996
20
-77.9449419999999975
11
102.60064899999999
21
-77.9705939999999913
0
LINE
8
BLACK
6
CONTINUOUS
10
102.60064899999999
20
-77.9705939999999913
11
102.5676720000000017
21
-78.0098940000000027
0
LINE
8
BLACK
6
CONTINUOUS
10
102.5676720000000017
20
-78.0098940000000027
11
102.5171479999999917
21
-78.0188029999999912
0
LINE
8
BLACK
6
CONTINUOUS
10
102.5171479999999917
20
-78.0188029999999912
11
102.4727189999999979
21
-77.9931509999999975
0
LINE
8
BLACK
6
CONTINUOUS
10
102.4727189999999979
20
-77.9931509999999975
11
102.4551719999999904
21
-77.9449419999999975
0
LINE
8
BLACK
6
CONTINUOUS
10
102.4551719999999904
20
-77.9449419999999975
11
102.4551719999999904
21
-77.6091509999999971
0
LINE
8
BLACK
6
CONTINUOUS
10
102.4551719999999904
20
-77.6091509999999971
11
102.449427
21
-77.612023999999991
0
LINE
8
BLACK
6
CONTINUOUS
10
102.449427
20
-77.612023999999991
11
102.4244599999999963
21
-77.619450999999998
0
LINE
8
BLACK
6
CONTINUOUS
10
102.4244599999999963
20
-77.619450999999998
11
102.4200979999999959
21
-77.6184080000000023
0
LINE
8
BLACK
6
CONTINUOUS
10
102.4200979999999959
20
-77.6184080000000023
11
102.4158860000000004
21
-77.6199419999999947
0
LINE
8
BLACK
6
CONTINUOUS
10
102.4158860000000004
20
-77.6199419999999947
11
102.1873140000000006
21
-77.6199419999999947
0
LINE
8
BLACK
6
CONTINUOUS
10
102.1873140000000006
20
-77.6199419999999947
11
102.1616619999999926
21
-77.6154190000000028
0
LINE
8
BLACK
6
CONTINUOUS
10
102.1616619999999926
20
-77.6154190000000028
11
102.1582259999999991
21
-77.6125359999999915
0
LINE
8
BLACK
6
CONTINUOUS
10
102.1582259999999991
20
-77.6125359999999915
11
102.153773000000001
21
-77.612023999999991
0
LINE
8
BLACK
6
CONTINUOUS
10
102.153773000000001
20
-77.612023999999991
11
102.0394879999999915
21
-77.5548819999999921
0
LINE
8
BLACK
6
CONTINUOUS
10
102.0394879999999915
20
-77.5548819999999921
11
102.0214769999999902
21
-77.5415239999999955
0
LINE
8
BLACK
6
CONTINUOUS
10
102.0214769999999902
20
-77.5415239999999955
11
102.0199959999999919
21
-77.5408329999999921
0
LINE
8
BLACK
6
CONTINUOUS
10
102.0199959999999919
20
-77.5408329999999921
11
101.9628529999999955
21
-77.4836899999999957
0
LINE
8
BLACK
6
CONTINUOUS
10
101.9628529999999955
20
-77.4836899999999957
11
101.9499929999999921
21
-77.4653239999999954
0
LINE
8
BLACK
6
CONTINUOUS
10
101.9499929999999921
20
-77.4653239999999954
11
101.9488039999999955
21
-77.4641979999999961
0
LINE
8
BLACK
6
CONTINUOUS
10
101.9488039999999955
20
-77.4641979999999961
11
101.8916609999999991
21
-77.3499120000000033
0
LINE
8
BLACK
6
CONTINUOUS
10
101.8916609999999991
20
-77.3499120000000033
11
101.8842349999999897
21
-77.3249449999999996
0
LINE
8
BLACK
6
CONTINUOUS
10
101.8842349999999897
20
-77.3249449999999996
11
101.8852759999999904
21
-77.3205839999999966
0
LINE
8
BLACK
6
CONTINUOUS
10
101.8852759999999904
20
-77.3205839999999966
11
101.8837429999999955
21
-77.3163709999999895
0
LINE
8
BLACK
6
CONTINUOUS
10
101.8837429999999955
20
-77.3163709999999895
11
101.8837429999999955
21
-76.9735139999999944
0
LINE
8
BLACK
6
CONTINUOUS
10
101.8837429999999955
20
-76.9735139999999944
11
101.8882660000000016
21
-76.9478620000000006
0
LINE
8
BLACK
6
CONTINUOUS
10
101.8882660000000016
20
-76.9478620000000006
11
101.8911480000000012
21
-76.9444259999999929
0
LINE
8
BLACK
6
CONTINUOUS
10
101.8911480000000012
20
-76.9444259999999929
11
101.8916609999999991
21
-76.9399729999999948
0
LINE
8
BLACK
6
CONTINUOUS
10
101.8916609999999991
20
-76.9399729999999948
11
101.9488039999999955
21
-76.8256870000000021
0
LINE
8
BLACK
6
CONTINUOUS
10
101.9488039999999955
20
-76.8256870000000021
11
101.9621599999999972
21
-76.8076789999999932
0
LINE
8
BLACK
6
CONTINUOUS
10
101.9621599999999972
20
-76.8076789999999932
11
101.9628529999999955
21
-76.8061950000000024
0
LINE
8
BLACK
6
CONTINUOUS
10
101.9628529999999955
20
-76.8061950000000024
11
102.0199959999999919
21
-76.7490519999999918
0
LINE
8
BLACK
6
CONTINUOUS
10
102.0199959999999919
20
-76.7490519999999918
11
102.0383619999999922
21
-76.7361920000000026
0
LINE
8
BLACK
6
CONTINUOUS
10
102.0383619999999922
20
-76.7361920000000026
11
102.0394879999999915
21
-76.7350029999999919
0
LINE
8
BLACK
6
CONTINUOUS
10
102.0394879999999915
20
-76.7350029999999919
11
102.153773000000001
21
-76.6778599999999955
0
LINE
8
BLACK
6
CONTINUOUS
10
102.153773000000001
20
-76.6778599999999955
11
102.1787399999999906
21
-76.6704330000000027
0
LINE
8
BLACK
6
CONTINUOUS
10
102.1787399999999906
20
-76.6704330000000027
11
102.183101999999991
21
-76.6714750000000009
0
LINE
8
BLACK
6
CONTINUOUS
10
102.183101999999991
20
-76.6714750000000009
11
102.1873140000000006
21
-76.6699419999999918
0
LINE
8
BLACK
6
CONTINUOUS
10
102.1873140000000006
20
-76.6699419999999918
11
102.4158860000000004
21
-76.6699419999999918
0
LINE
8
BLACK
6
CONTINUOUS
10
102.4158860000000004
20
-76.6699419999999918
11
102.4415379999999942
21
-76.6744649999999979
0
LINE
8
BLACK
6
CONTINUOUS
10
102.11745599999999
20
-76.8637229999999931
11
102.0775249999999943
21
-76.9036550000000005
0
LINE
8
BLACK
6
CONTINUOUS
10
102.0775249999999943
20
-76.9036550000000005
11
102.0337430000000012
21
-76.991219000000001
0
LINE
8
BLACK
6
CONTINUOUS
10
102.0337430000000012
20
-76.991219000000001
11
102.0337430000000012
21
-77.2986659999999972
0
LINE
8
BLACK
6
CONTINUOUS
10
102.0337430000000012
20
-77.2986659999999972
11
102.0775249999999943
21
-77.3862299999999976
0
LINE
8
BLACK
6
CONTINUOUS
10
102.0775249999999943
20
-77.3862299999999976
11
102.1174549999999925
21
-77.4261599999999959
0
LINE
8
BLACK
6
CONTINUOUS
10
102.1174549999999925
20
-77.4261599999999959
11
102.205018999999993
21
-77.4699420000000032
0
LINE
8
BLACK
6
CONTINUOUS
10
102.205018999999993
20
-77.4699420000000032
11
102.3981809999999939
21
-77.4699420000000032
0
LINE
8
BLACK
6
CONTINUOUS
10
102.3981809999999939
20
-77.4699420000000032
11
102.4551719999999904
21
-77.4414469999999966
0
LINE
8
BLACK
6
CONTINUOUS
10
102.4551719999999904
20
-77.4414469999999966
11
102.4551719999999904
21
-76.8484369999999899
0
LINE
8
BLACK
6
CONTINUOUS
10
102.4551719999999904
20
-76.8484369999999899
11
102.3981809999999939
21
-76.8199419999999975
0
LINE
8
BLACK
6
CONTINUOUS
10
102.3981809999999939
20
-76.8199419999999975
11
102.205018999999993
21
-76.8199419999999975
0
LINE
8
BLACK
6
CONTINUOUS
10
102.205018999999993
20
-76.8199419999999975
11
102.11745599999999
21
-76.8637229999999931
0
LINE
8
BLACK
6
CONTINUOUS
10
95.5843969999999956
20
-76.6744649999999979
11
95.5878319999999917
21
-76.6773469999999975
0
LINE
8
BLACK
6
CONTINUOUS
10
95.5878319999999917
20
-76.6773469999999975
11
95.5922860000000014
21
-76.6778599999999955
0
LINE
8
BLACK
6
CONTINUOUS
10
95.5922860000000014
20
-76.6778599999999955
11
95.7065719999999942
21
-76.7350029999999919
0
LINE
8
BLACK
6
CONTINUOUS
10
95.7065719999999942
20
-76.7350029999999919
11
95.7274929999999955
21
-76.750520999999992
0
LINE
8
BLACK
6
CONTINUOUS
10
95.7274929999999955
20
-76.750520999999992
11
95.7319579999999917
21
-76.760823000000002
0
LINE
8
BLACK
6
CONTINUOUS
10
95.7319579999999917
20
-76.760823000000002
11
95.7401129999999938
21
-76.7685439999999915
0
LINE
8
BLACK
6
CONTINUOUS
10
95.7401129999999938
20
-76.7685439999999915
11
95.7972559999999902
21
-76.8828299999999984
0
LINE
8
BLACK
6
CONTINUOUS
10
95.7972559999999902
20
-76.8828299999999984
11
95.8046829999999972
21
-76.9077970000000022
0
LINE
8
BLACK
6
CONTINUOUS
10
95.8046829999999972
20
-76.9077970000000022
11
95.8036400000000015
21
-76.9121590000000026
0
LINE
8
BLACK
6
CONTINUOUS
10
95.8036400000000015
20
-76.9121590000000026
11
95.8051739999999938
21
-76.916370999999998
0
LINE
8
BLACK
6
CONTINUOUS
10
95.8051739999999938
20
-76.916370999999998
11
95.8051739999999938
21
-77.5449419999999918
0
LINE
8
BLACK
6
CONTINUOUS
10
95.8051739999999938
20
-77.5449419999999918
11
95.800651000000002
21
-77.5705939999999998
0
LINE
8
BLACK
6
CONTINUOUS
10
95.800651000000002
20
-77.5705939999999998
11
95.7676739999999995
21
-77.609893999999997
0
LINE
8
BLACK
6
CONTINUOUS
10
95.7676739999999995
20
-77.609893999999997
11
95.7171499999999895
21
-77.6188029999999998
0
LINE
8
BLACK
6
CONTINUOUS
10
95.7171499999999895
20
-77.6188029999999998
11
95.679428999999999
21
-77.5970239999999905
0
LINE
8
BLACK
6
CONTINUOUS
10
95.679428999999999
20
-77.5970239999999905
11
95.6494289999999978
21
-77.612023999999991
0
LINE
8
BLACK
6
CONTINUOUS
10
95.6494289999999978
20
-77.612023999999991
11
95.6244619999999941
21
-77.619450999999998
0
LINE
8
BLACK
6
CONTINUOUS
10
95.6244619999999941
20
-77.619450999999998
11
95.6200999999999937
21
-77.6184080000000023
0
LINE
8
BLACK
6
CONTINUOUS
10
95.6200999999999937
20
-77.6184080000000023
11
95.6158879999999982
21
-77.6199419999999947
0
LINE
8
BLACK
6
CONTINUOUS
10
95.6158879999999982
20
-77.6199419999999947
11
95.3301739999999995
21
-77.6199419999999947
0
LINE
8
BLACK
6
CONTINUOUS
10
95.3301739999999995
20
-77.6199419999999947
11
95.3045219999999915
21
-77.6154190000000028
0
LINE
8
BLACK
6
CONTINUOUS
10
95.3045219999999915
20
-77.6154190000000028
11
95.301085999999998
21
-77.6125359999999915
0
LINE
8
BLACK
6
CONTINUOUS
10
95.301085999999998
20
-77.6125359999999915
11
95.2966329999999999
21
-77.612023999999991
0
LINE
8
BLACK
6
CONTINUOUS
10
95.2966329999999999
20
-77.612023999999991
11
95.1823469999999929
21
-77.5548819999999921
0
LINE
8
BLACK
6
CONTINUOUS
10
95.1823469999999929
20
-77.5548819999999921
11
95.1614259999999916
21
-77.5393649999999894
0
LINE
8
BLACK
6
CONTINUOUS
10
95.1614259999999916
20
-77.5393649999999894
11
95.1569590000000005
21
-77.5290609999999987
0
LINE
8
BLACK
6
CONTINUOUS
10
95.1569590000000005
20
-77.5290609999999987
11
95.1488059999999933
21
-77.5213409999999925
0
LINE
8
BLACK
6
CONTINUOUS
10
95.1488059999999933
20
-77.5213409999999925
11
95.0916629999999969
21
-77.4070549999999997
0
LINE
8
BLACK
6
CONTINUOUS
10
95.0916629999999969
20
-77.4070549999999997
11
95.0842370000000017
21
-77.382087999999996
0
LINE
8
BLACK
6
CONTINUOUS
10
95.0842370000000017
20
-77.382087999999996
11
95.0852780000000024
21
-77.377726999999993
0
LINE
8
BLACK
6
CONTINUOUS
10
95.0852780000000024
20
-77.377726999999993
11
95.0837449999999933
21
-77.3735140000000001
0
LINE
8
BLACK
6
CONTINUOUS
10
95.0837449999999933
20
-77.3735140000000001
11
95.0837449999999933
21
-77.2592279999999931
0
LINE
8
BLACK
6
CONTINUOUS
10
95.0837449999999933
20
-77.2592279999999931
11
95.0882679999999993
21
-77.2335759999999993
0
LINE
8
BLACK
6
CONTINUOUS
10
95.0882679999999993
20
-77.2335759999999993
11
95.091149999999999
21
-77.2301399999999916
0
LINE
8
BLACK
6
CONTINUOUS
10
95.091149999999999
20
-77.2301399999999916
11
95.0916629999999969
21
-77.2256869999999935
0
LINE
8
BLACK
6
CONTINUOUS
10
95.0916629999999969
20
-77.2256869999999935
11
95.1488059999999933
21
-77.1114010000000007
0
LINE
8
BLACK
6
CONTINUOUS
10
95.1488059999999933
20
-77.1114010000000007
11
95.1643239999999935
21
-77.0904799999999994
0
LINE
8
BLACK
6
CONTINUOUS
10
95.1643239999999935
20
-77.0904799999999994
11
95.1746259999999893
21
-77.0860139999999916
0
LINE
8
BLACK
6
CONTINUOUS
10
95.1746259999999893
20
-77.0860139999999916
11
95.1823469999999929
21
-77.0778600000000012
0
LINE
8
BLACK
6
CONTINUOUS
10
95.1823469999999929
20
-77.0778600000000012
11
95.2966329999999999
21
-77.0207180000000022
0
LINE
8
BLACK
6
CONTINUOUS
10
95.2966329999999999
20
-77.0207180000000022
11
95.3215999999999894
21
-77.0132919999999928
0
LINE
8
BLACK
6
CONTINUOUS
10
95.3215999999999894
20
-77.0132919999999928
11
95.3259599999999949
21
-77.0143329999999935
0
LINE
8
BLACK
6
CONTINUOUS
10
95.3259599999999949
20
-77.0143329999999935
11
95.3301739999999995
21
-77.0127999999999986
0
LINE
8
BLACK
6
CONTINUOUS
10
95.3301739999999995
20
-77.0127999999999986
11
95.5981829999999917
21
-77.0127999999999986
0
LINE
8
BLACK
6
CONTINUOUS
10
95.5981829999999917
20
-77.0127999999999986
11
95.6551740000000024
21
-76.9843039999999945
0
LINE
8
BLACK
6
CONTINUOUS
10
95.6551740000000024
20
-76.9843039999999945
11
95.6551740000000024
21
-76.9340759999999904
0
LINE
8
BLACK
6
CONTINUOUS
10
95.6551740000000024
20
-76.9340759999999904
11
95.6171289999999914
21
-76.8579859999999968
0
LINE
8
BLACK
6
CONTINUOUS
10
95.6171289999999914
20
-76.8579859999999968
11
95.5410399999999953
21
-76.8199419999999975
0
LINE
8
BLACK
6
CONTINUOUS
10
95.5410399999999953
20
-76.8199419999999975
11
95.3478789999999918
21
-76.8199419999999975
0
LINE
8
BLACK
6
CONTINUOUS
10
95.3478789999999918
20
-76.8199419999999975
11
95.2494289999999921
21
-76.8691669999999903
0
LINE
8
BLACK
6
CONTINUOUS
10
95.2494289999999921
20
-76.8691669999999903
11
95.2244620000000026
21
-76.8765929999999997
0
LINE
8
BLACK
6
CONTINUOUS
10
95.2244620000000026
20
-76.8765929999999997
11
95.1745639999999895
21
-76.8646729999999963
0
LINE
8
BLACK
6
CONTINUOUS
10
95.1745639999999895
20
-76.8646729999999963
11
95.1439999999999912
21
-76.8234679999999912
0
LINE
8
BLACK
6
CONTINUOUS
10
95.1439999999999912
20
-76.8234679999999912
11
95.147075000000001
21
-76.7722569999999962
0
LINE
8
BLACK
6
CONTINUOUS
10
95.147075000000001
20
-76.7722569999999962
11
95.1823469999999929
21
-76.7350029999999919
0
LINE
8
BLACK
6
CONTINUOUS
10
95.1823469999999929
20
-76.7350029999999919
11
95.2966329999999999
21
-76.6778599999999955
0
LINE
8
BLACK
6
CONTINUOUS
10
95.2966329999999999
20
-76.6778599999999955
11
95.3215999999999894
21
-76.6704330000000027
0
LINE
8
BLACK
6
CONTINUOUS
10
95.3215999999999894
20
-76.6704330000000027
11
95.3259619999999899
21
-76.6714750000000009
0
LINE
8
BLACK
6
CONTINUOUS
10
95.3259619999999899
20
-76.6714750000000009
11
95.3301739999999995
21
-76.6699419999999918
0
LINE
8
BLACK
6
CONTINUOUS
10
95.3301739999999995
20
-76.6699419999999918
11
95.5587450000000018
21
-76.6699419999999918
0
LINE
8
BLACK
6
CONTINUOUS
10
95.5587450000000018
20
-76.6699419999999918
11
95.5843969999999956
21
-76.6744649999999979
0
LINE
8
BLACK
6
CONTINUOUS
10
95.6494289999999978
20
-77.1548820000000006
11
95.6244619999999941
21
-77.1623079999999959
0
LINE
8
BLACK
6
CONTINUOUS
10
95.6244619999999941
20
-77.1623079999999959
11
95.6201009999999911
21
-77.1612659999999977
0
LINE
8
BLACK
6
CONTINUOUS
10
95.6201009999999911
20
-77.1612659999999977
11
95.6158879999999982
21
-77.1627999999999901
0
LINE
8
BLACK
6
CONTINUOUS
10
95.6158879999999982
20
-77.1627999999999901
11
95.3478779999999944
21
-77.1627999999999901
0
LINE
8
BLACK
6
CONTINUOUS
10
95.3478779999999944
20
-77.1627999999999901
11
95.2717889999999983
21
-77.2008429999999919
0
LINE
8
BLACK
6
CONTINUOUS
10
95.2717889999999983
20
-77.2008429999999919
11
95.233744999999999
21
-77.2769329999999997
0
LINE
8
BLACK
6
CONTINUOUS
10
95.233744999999999
20
-77.2769329999999997
11
95.233744999999999
21
-77.3558089999999936
0
LINE
8
BLACK
6
CONTINUOUS
10
95.233744999999999
20
-77.3558089999999936
11
95.2717889999999983
21
-77.4318979999999897
0
LINE
8
BLACK
6
CONTINUOUS
10
95.2717889999999983
20
-77.4318979999999897
11
95.3478779999999944
21
-77.4699420000000032
0
LINE
8
BLACK
6
CONTINUOUS
10
95.3478779999999944
20
-77.4699420000000032
11
95.5981829999999917
21
-77.4699420000000032
0
LINE
8
BLACK
6
CONTINUOUS
10
95.5981829999999917
20
-77.4699420000000032
11
95.6551740000000024
21
-77.4414469999999966
0
LINE
8
BLACK
6
CONTINUOUS
10
95.6551740000000024
20
-77.4414469999999966
11
95.6551740000000024
21
-77.1520089999999925
0
LINE
8
BLACK
6
CONTINUOUS
10
95.6551740000000024
20
-77.1520089999999925
11
95.6494289999999978
21
-77.1548820000000006
0
LINE
8
BLACK
6
CONTINUOUS
10
98.8415389999999974
20
-76.6744649999999979
11
98.8449739999999935
21
-76.6773469999999975
0
LINE
8
BLACK
6
CONTINUOUS
10
98.8449739999999935
20
-76.6773469999999975
11
98.849427999999989
21
-76.6778599999999955
0
LINE
8
BLACK
6
CONTINUOUS
10
98.849427999999989
20
-76.6778599999999955
11
98.963713999999996
21
-76.7350029999999919
0
LINE
8
BLACK
6
CONTINUOUS
10
98.963713999999996
20
-76.7350029999999919
11
98.9846349999999973
21
-76.750520999999992
0
LINE
8
BLACK
6
CONTINUOUS
10
98.9846349999999973
20
-76.750520999999992
11
98.9890999999999934
21
-76.760823000000002
0
LINE
8
BLACK
6
CONTINUOUS
10
98.9890999999999934
20
-76.760823000000002
11
98.9972549999999956
21
-76.7685439999999915
0
LINE
8
BLACK
6
CONTINUOUS
10
98.9972549999999956
20
-76.7685439999999915
11
99.054397999999992
21
-76.8828299999999984
0
LINE
8
BLACK
6
CONTINUOUS
10
99.054397999999992
20
-76.8828299999999984
11
99.0618249999999989
21
-76.9077970000000022
0
LINE
8
BLACK
6
CONTINUOUS
10
99.0618249999999989
20
-76.9077970000000022
11
99.060781999999989
21
-76.9121590000000026
0
LINE
8
BLACK
6
CONTINUOUS
10
99.060781999999989
20
-76.9121590000000026
11
99.0623159999999956
21
-76.916370999999998
0
LINE
8
BLACK
6
CONTINUOUS
10
99.0623159999999956
20
-76.916370999999998
11
99.0623159999999956
21
-77.0306569999999908
0
LINE
8
BLACK
6
CONTINUOUS
10
99.0623159999999956
20
-77.0306569999999908
11
99.0577929999999895
21
-77.0563089999999988
0
LINE
8
BLACK
6
CONTINUOUS
10
99.0577929999999895
20
-77.0563089999999988
11
99.0498259999999959
21
-77.0658019999999908
0
LINE
8
BLACK
6
CONTINUOUS
10
99.0498259999999959
20
-77.0658019999999908
11
99.0458560000000006
21
-77.0775399999999991
0
LINE
8
BLACK
6
CONTINUOUS
10
99.0458560000000006
20
-77.0775399999999991
11
99.033850000000001
21
-77.0848419999999948
0
LINE
8
BLACK
6
CONTINUOUS
10
99.033850000000001
20
-77.0848419999999948
11
99.0248160000000013
21
-77.0956089999999961
0
LINE
8
BLACK
6
CONTINUOUS
10
99.0248160000000013
20
-77.0956089999999961
11
99.0126109999999926
21
-77.0977609999999913
0
LINE
8
BLACK
6
CONTINUOUS
10
99.0126109999999926
20
-77.0977609999999913
11
99.0020239999999916
21
-77.1042010000000033
0
LINE
8
BLACK
6
CONTINUOUS
10
99.0020239999999916
20
-77.1042010000000033
11
98.4908870000000007
21
-77.2064269999999908
0
LINE
8
BLACK
6
CONTINUOUS
10
98.4908870000000007
20
-77.2064269999999908
11
98.4908870000000007
21
-77.3558089999999936
0
LINE
8
BLACK
6
CONTINUOUS
10
98.4908870000000007
20
-77.3558089999999936
11
98.528931
21
-77.4318979999999897
0
LINE
8
BLACK
6
CONTINUOUS
10
98.528931
20
-77.4318979999999897
11
98.6050199999999961
21
-77.4699420000000032
0
LINE
8
BLACK
6
CONTINUOUS
10
98.6050199999999961
20
-77.4699420000000032
11
98.7981819999999971
21
-77.4699420000000032
0
LINE
8
BLACK
6
CONTINUOUS
10
98.7981819999999971
20
-77.4699420000000032
11
98.8966319999999968
21
-77.4207179999999937
0
LINE
8
BLACK
6
CONTINUOUS
10
98.8966319999999968
20
-77.4207179999999937
11
98.9215990000000005
21
-77.4132919999999984
0
LINE
8
BLACK
6
CONTINUOUS
10
98.9215990000000005
20
-77.4132919999999984
11
98.9714979999999969
21
-77.4252120000000019
0
LINE
8
BLACK
6
CONTINUOUS
10
98.9714979999999969
20
-77.4252120000000019
11
99.0020609999999976
21
-77.4664179999999902
0
LINE
8
BLACK
6
CONTINUOUS
10
99.0020609999999976
20
-77.4664179999999902
11
98.9989860000000022
21
-77.517628000000002
0
LINE
8
BLACK
6
CONTINUOUS
10
98.9989860000000022
20
-77.517628000000002
11
98.9637129999999985
21
-77.5548819999999921
0
LINE
8
BLACK
6
CONTINUOUS
10
98.9637129999999985
20
-77.5548819999999921
11
98.849427999999989
21
-77.612023999999991
0
LINE
8
BLACK
6
CONTINUOUS
10
98.849427999999989
20
-77.612023999999991
11
98.8244609999999994
21
-77.619450999999998
0
LINE
8
BLACK
6
CONTINUOUS
10
98.8244609999999994
20
-77.619450999999998
11
98.820098999999999
21
-77.6184080000000023
0
LINE
8
BLACK
6
CONTINUOUS
10
98.820098999999999
20
-77.6184080000000023
11
98.8158869999999894
21
-77.6199419999999947
0
LINE
8
BLACK
6
CONTINUOUS
10
98.8158869999999894
20
-77.6199419999999947
11
98.5873160000000013
21
-77.6199419999999947
0
LINE
8
BLACK
6
CONTINUOUS
10
98.5873160000000013
20
-77.6199419999999947
11
98.5616639999999933
21
-77.6154190000000028
0
LINE
8
BLACK
6
CONTINUOUS
10
98.5616639999999933
20
-77.6154190000000028
11
98.5582279999999997
21
-77.6125359999999915
0
LINE
8
BLACK
6
CONTINUOUS
10
98.5582279999999997
20
-77.6125359999999915
11
98.5537750000000017
21
-77.612023999999991
0
LINE
8
BLACK
6
CONTINUOUS
10
98.5537750000000017
20
-77.612023999999991
11
98.4394889999999947
21
-77.5548819999999921
0
LINE
8
BLACK
6
CONTINUOUS
10
98.4394889999999947
20
-77.5548819999999921
11
98.4185679999999934
21
-77.5393649999999894
0
LINE
8
BLACK
6
CONTINUOUS
10
98.4185679999999934
20
-77.5393649999999894
11
98.4141010000000023
21
-77.5290609999999987
0
LINE
8
BLACK
6
CONTINUOUS
10
98.4141010000000023
20
-77.5290609999999987
11
98.4059479999999951
21
-77.5213409999999925
0
LINE
8
BLACK
6
CONTINUOUS
10
98.4059479999999951
20
-77.5213409999999925
11
98.3488049999999987
21
-77.4070549999999997
0
LINE
8
BLACK
6
CONTINUOUS
10
98.3488049999999987
20
-77.4070549999999997
11
98.3413789999999892
21
-77.382087999999996
0
LINE
8
BLACK
6
CONTINUOUS
10
98.3413789999999892
20
-77.382087999999996
11
98.34241999999999
21
-77.377726999999993
0
LINE
8
BLACK
6
CONTINUOUS
10
98.34241999999999
20
-77.377726999999993
11
98.3408869999999951
21
-77.3735140000000001
0
LINE
8
BLACK
6
CONTINUOUS
10
98.3408869999999951
20
-77.3735140000000001
11
98.3408869999999951
21
-76.916370999999998
0
LINE
8
BLACK
6
CONTINUOUS
10
98.3408869999999951
20
-76.916370999999998
11
98.3454100000000011
21
-76.89071899999999
0
LINE
8
BLACK
6
CONTINUOUS
10
98.3454100000000011
20
-76.89071899999999
11
98.3482920000000007
21
-76.8872829999999965
0
LINE
8
BLACK
6
CONTINUOUS
10
98.3482920000000007
20
-76.8872829999999965
11
98.3488049999999987
21
-76.8828299999999984
0
LINE
8
BLACK
6
CONTINUOUS
10
98.3488049999999987
20
-76.8828299999999984
11
98.4059479999999951
21
-76.7685439999999915
0
LINE
8
BLACK
6
CONTINUOUS
10
98.4059479999999951
20
-76.7685439999999915
11
98.4214659999999952
21
-76.7476229999999902
0
LINE
8
BLACK
6
CONTINUOUS
10
98.4214659999999952
20
-76.7476229999999902
11
98.431767999999991
21
-76.7431569999999965
0
LINE
8
BLACK
6
CONTINUOUS
10
98.431767999999991
20
-76.7431569999999965
11
98.4394889999999947
21
-76.7350029999999919
0
LINE
8
BLACK
6
CONTINUOUS
10
98.4394889999999947
20
-76.7350029999999919
11
98.5537750000000017
21
-76.6778599999999955
0
LINE
8
BLACK
6
CONTINUOUS
10
98.5537750000000017
20
-76.6778599999999955
11
98.5787419999999912
21
-76.6704330000000027
0
LINE
8
BLACK
6
CONTINUOUS
10
98.5787419999999912
20
-76.6704330000000027
11
98.5831039999999916
21
-76.6714750000000009
0
LINE
8
BLACK
6
CONTINUOUS
10
98.5831039999999916
20
-76.6714750000000009
11
98.5873160000000013
21
-76.6699419999999918
0
LINE
8
BLACK
6
CONTINUOUS
10
98.5873160000000013
20
-76.6699419999999918
11
98.8158869999999894
21
-76.6699419999999918
0
LINE
8
BLACK
6
CONTINUOUS
10
98.8158869999999894
20
-76.6699419999999918
11
98.8415389999999974
21
-76.6744649999999979
0
LINE
8
BLACK
6
CONTINUOUS
10
98.528931
20
-76.8579859999999968
11
98.4908870000000007
21
-76.9340759999999904
0
LINE
8
BLACK
6
CONTINUOUS
10
98.4908870000000007
20
-76.9340759999999904
11
98.4908870000000007
21
-77.0534559999999971
0
LINE
8
BLACK
6
CONTINUOUS
10
98.4908870000000007
20
-77.0534559999999971
11
98.9123159999999899
21
-76.9691720000000004
0
LINE
8
BLACK
6
CONTINUOUS
10
98.9123159999999899
20
-76.9691720000000004
11
98.9123159999999899
21
-76.9340759999999904
0
LINE
8
BLACK
6
CONTINUOUS
10
98.9123159999999899
20
-76.9340759999999904
11
98.8742709999999931
21
-76.8579859999999968
0
LINE
8
BLACK
6
CONTINUOUS
10
98.8742709999999931
20
-76.8579859999999968
11
98.7981819999999971
21
-76.8199419999999975
0
LINE
8
BLACK
6
CONTINUOUS
10
98.7981819999999971
20
-76.8199419999999975
11
98.6050209999999936
21
-76.8199419999999975
0
LINE
8
BLACK
6
CONTINUOUS
10
98.6050209999999936
20
-76.8199419999999975
11
98.528931
21
-76.8579859999999968
0
LINE
8
BLACK
6
CONTINUOUS
10
99.5590539999999891
20
-76.2967330000000032
11
99.5766009999999966
21
-76.3449420000000032
0
LINE
8
BLACK
6
CONTINUOUS
10
99.5766009999999966
20
-76.3449420000000032
11
99.5766009999999966
21
-76.6699419999999918
0
LINE
8
BLACK
6
CONTINUOUS
10
99.5766009999999966
20
-76.6699419999999918
11
99.7873149999999924
21
-76.6699419999999918
0
LINE
8
BLACK
6
CONTINUOUS
10
99.7873149999999924
20
-76.6699419999999918
11
99.8129670000000004
21
-76.6744649999999979
0
LINE
8
BLACK
6
CONTINUOUS
10
99.8129670000000004
20
-76.6744649999999979
11
99.8522669999999977
21
-76.7074420000000003
0
LINE
8
BLACK
6
CONTINUOUS
10
99.8522669999999977
20
-76.7074420000000003
11
99.8611760000000004
21
-76.7579659999999961
0
LINE
8
BLACK
6
CONTINUOUS
10
99.8611760000000004
20
-76.7579659999999961
11
99.8355239999999924
21
-76.80239499999999
0
LINE
8
BLACK
6
CONTINUOUS
10
99.8355239999999924
20
-76.80239499999999
11
99.7873149999999924
21
-76.8199419999999975
0
LINE
8
BLACK
6
CONTINUOUS
10
99.7873149999999924
20
-76.8199419999999975
11
99.5766009999999966
21
-76.8199419999999975
0
LINE
8
BLACK
6
CONTINUOUS
10
99.5766009999999966
20
-76.8199419999999975
11
99.5766009999999966
21
-77.3558089999999936
0
LINE
8
BLACK
6
CONTINUOUS
10
99.5766009999999966
20
-77.3558089999999936
11
99.6146449999999959
21
-77.4318979999999897
0
LINE
8
BLACK
6
CONTINUOUS
10
99.6146449999999959
20
-77.4318979999999897
11
99.690733999999992
21
-77.4699420000000032
0
LINE
8
BLACK
6
CONTINUOUS
10
99.690733999999992
20
-77.4699420000000032
11
99.7873149999999924
21
-77.4699420000000032
0
LINE
8
BLACK
6
CONTINUOUS
10
99.7873149999999924
20
-77.4699420000000032
11
99.8129670000000004
21
-77.474464999999995
0
LINE
8
BLACK
6
CONTINUOUS
10
99.8129670000000004
20
-77.474464999999995
11
99.8522669999999977
21
-77.5074419999999975
0
LINE
8
BLACK
6
CONTINUOUS
10
99.8522669999999977
20
-77.5074419999999975
11
99.8611760000000004
21
-77.5579659999999933
0
LINE
8
BLACK
6
CONTINUOUS
10
99.8611760000000004
20
-77.5579659999999933
11
99.8355239999999924
21
-77.6023950000000013
0
LINE
8
BLACK
6
CONTINUOUS
10
99.8355239999999924
20
-77.6023950000000013
11
99.7873149999999924
21
-77.6199419999999947
0
LINE
8
BLACK
6
CONTINUOUS
10
99.7873149999999924
20
-77.6199419999999947
11
99.6730289999999997
21
-77.6199419999999947
0
LINE
8
BLACK
6
CONTINUOUS
10
99.6730289999999997
20
-77.6199419999999947
11
99.6473769999999917
21
-77.6154190000000028
0
LINE
8
BLACK
6
CONTINUOUS
10
99.6473769999999917
20
-77.6154190000000028
11
99.6439409999999981
21
-77.6125359999999915
0
LINE
8
BLACK
6
CONTINUOUS
10
99.6439409999999981
20
-77.6125359999999915
11
99.6394880000000001
21
-77.612023999999991
0
LINE
8
BLACK
6
CONTINUOUS
10
99.6394880000000001
20
-77.612023999999991
11
99.5252029999999905
21
-77.5548819999999921
0
LINE
8
BLACK
6
CONTINUOUS
10
99.5252029999999905
20
-77.5548819999999921
11
99.5042819999999892
21
-77.5393649999999894
0
LINE
8
BLACK
6
CONTINUOUS
10
99.5042819999999892
20
-77.5393649999999894
11
99.4998149999999981
21
-77.5290609999999987
0
LINE
8
BLACK
6
CONTINUOUS
10
99.4998149999999981
20
-77.5290609999999987
11
99.4916619999999909
21
-77.5213409999999925
0
LINE
8
BLACK
6
CONTINUOUS
10
99.4916619999999909
20
-77.5213409999999925
11
99.4345189999999945
21
-77.4070549999999997
0
LINE
8
BLACK
6
CONTINUOUS
10
99.4345189999999945
20
-77.4070549999999997
11
99.4270929999999993
21
-77.382087999999996
0
LINE
8
BLACK
6
CONTINUOUS
10
99.4270929999999993
20
-77.382087999999996
11
99.428134
21
-77.377726999999993
0
LINE
8
BLACK
6
CONTINUOUS
10
99.428134
20
-77.377726999999993
11
99.4266009999999909
21
-77.3735140000000001
0
LINE
8
BLACK
6
CONTINUOUS
10
99.4266009999999909
20
-77.3735140000000001
11
99.4266009999999909
21
-76.8199419999999975
0
LINE
8
BLACK
6
CONTINUOUS
10
99.4266009999999909
20
-76.8199419999999975
11
99.3301719999999904
21
-76.8199419999999975
0
LINE
8
BLACK
6
CONTINUOUS
10
99.3301719999999904
20
-76.8199419999999975
11
99.3045199999999966
21
-76.8154189999999915
0
LINE
8
BLACK
6
CONTINUOUS
10
99.3045199999999966
20
-76.8154189999999915
11
99.2652199999999993
21
-76.7824420000000032
0
LINE
8
BLACK
6
CONTINUOUS
10
99.2652199999999993
20
-76.7824420000000032
11
99.2563109999999966
21
-76.7319179999999932
0
LINE
8
BLACK
6
CONTINUOUS
10
99.2563109999999966
20
-76.7319179999999932
11
99.2819629999999904
21
-76.6874889999999994
0
LINE
8
BLACK
6
CONTINUOUS
10
99.2819629999999904
20
-76.6874889999999994
11
99.3301719999999904
21
-76.6699419999999918
0
LINE
8
BLACK
6
CONTINUOUS
10
99.3301719999999904
20
-76.6699419999999918
11
99.4266009999999909
21
-76.6699419999999918
0
LINE
8
BLACK
6
CONTINUOUS
10
99.4266009999999909
20
-76.6699419999999918
11
99.4266009999999909
21
-76.3449420000000032
0
LINE
8
BLACK
6
CONTINUOUS
10
99.4266009999999909
20
-76.3449420000000032
11
99.431123999999997
21
-76.3192899999999952
0
LINE
8
BLACK
6
CONTINUOUS
10
99.431123999999997
20
-76.3192899999999952
11
99.4641009999999994
21
-76.279989999999998
0
LINE
8
BLACK
6
CONTINUOUS
10
99.4641009999999994
20
-76.279989999999998
11
99.5146249999999952
21
-76.2710809999999952
0
LINE
8
BLACK
6
CONTINUOUS
10
99.5146249999999952
20
-76.2710809999999952
11
99.5590539999999891
21
-76.2967330000000032
0
LINE
8
BLACK
6
CONTINUOUS
10
100.5558240000000012
20
-76.6744649999999979
11
100.5592589999999973
21
-76.6773469999999975
0
LINE
8
BLACK
6
CONTINUOUS
10
100.5592589999999973
20
-76.6773469999999975
11
100.5637129999999928
21
-76.6778599999999955
0
LINE
8
BLACK
6
CONTINUOUS
10
100.5637129999999928
20
-76.6778599999999955
11
100.6779989999999998
21
-76.7350029999999919
0
LINE
8
BLACK
6
CONTINUOUS
10
100.6779989999999998
20
-76.7350029999999919
11
100.696005999999997
21
-76.7483589999999936
0
LINE
8
BLACK
6
CONTINUOUS
10
100.696005999999997
20
-76.7483589999999936
11
100.6974909999999994
21
-76.7490519999999918
0
LINE
8
BLACK
6
CONTINUOUS
10
100.6974909999999994
20
-76.7490519999999918
11
100.7546339999999958
21
-76.8061950000000024
0
LINE
8
BLACK
6
CONTINUOUS
10
100.7546339999999958
20
-76.8061950000000024
11
100.7674930000000018
21
-76.8245610000000028
0
LINE
8
BLACK
6
CONTINUOUS
10
100.7674930000000018
20
-76.8245610000000028
11
100.7686829999999958
21
-76.8256870000000021
0
LINE
8
BLACK
6
CONTINUOUS
10
100.7686829999999958
20
-76.8256870000000021
11
100.8258249999999947
21
-76.9399729999999948
0
LINE
8
BLACK
6
CONTINUOUS
10
100.8258249999999947
20
-76.9399729999999948
11
100.83325099999999
21
-76.9649399999999986
0
LINE
8
BLACK
6
CONTINUOUS
10
100.83325099999999
20
-76.9649399999999986
11
100.8322089999999918
21
-76.9692999999999898
0
LINE
8
BLACK
6
CONTINUOUS
10
100.8322089999999918
20
-76.9692999999999898
11
100.8337429999999983
21
-76.9735139999999944
0
LINE
8
BLACK
6
CONTINUOUS
10
100.8337429999999983
20
-76.9735139999999944
11
100.8337429999999983
21
-77.3163709999999895
0
LINE
8
BLACK
6
CONTINUOUS
10
100.8337429999999983
20
-77.3163709999999895
11
100.8292199999999923
21
-77.3420229999999975
0
LINE
8
BLACK
6
CONTINUOUS
10
100.8292199999999923
20
-77.3420229999999975
11
100.8263369999999952
21
-77.3454579999999936
0
LINE
8
BLACK
6
CONTINUOUS
10
100.8263369999999952
20
-77.3454579999999936
11
100.8258249999999947
21
-77.3499120000000033
0
LINE
8
BLACK
6
CONTINUOUS
10
100.8258249999999947
20
-77.3499120000000033
11
100.7686829999999958
21
-77.4641979999999961
0
LINE
8
BLACK
6
CONTINUOUS
10
100.7686829999999958
20
-77.4641979999999961
11
100.7553249999999991
21
-77.482208
0
LINE
8
BLACK
6
CONTINUOUS
10
100.7553249999999991
20
-77.482208
11
100.7546339999999958
21
-77.4836899999999957
0
LINE
8
BLACK
6
CONTINUOUS
10
100.7546339999999958
20
-77.4836899999999957
11
100.6974909999999994
21
-77.5408329999999921
0
LINE
8
BLACK
6
CONTINUOUS
10
100.6974909999999994
20
-77.5408329999999921
11
100.6791219999999925
21
-77.553693999999993
0
LINE
8
BLACK
6
CONTINUOUS
10
100.6791219999999925
20
-77.553693999999993
11
100.6779980000000023
21
-77.5548819999999921
0
LINE
8
BLACK
6
CONTINUOUS
10
100.6779980000000023
20
-77.5548819999999921
11
100.5637129999999928
21
-77.612023999999991
0
LINE
8
BLACK
6
CONTINUOUS
10
100.5637129999999928
20
-77.612023999999991
11
100.5387459999999891
21
-77.619450999999998
0
LINE
8
BLACK
6
CONTINUOUS
10
100.5387459999999891
20
-77.619450999999998
11
100.5343839999999886
21
-77.6184080000000023
0
LINE
8
BLACK
6
CONTINUOUS
10
100.5343839999999886
20
-77.6184080000000023
11
100.5301719999999932
21
-77.6199419999999947
0
LINE
8
BLACK
6
CONTINUOUS
10
100.5301719999999932
20
-77.6199419999999947
11
100.3587429999999898
21
-77.6199419999999947
0
LINE
8
BLACK
6
CONTINUOUS
10
100.3587429999999898
20
-77.6199419999999947
11
100.333090999999996
21
-77.6154190000000028
0
LINE
8
BLACK
6
CONTINUOUS
10
100.333090999999996
20
-77.6154190000000028
11
100.3296550000000025
21
-77.6125359999999915
0
LINE
8
BLACK
6
CONTINUOUS
10
100.3296550000000025
20
-77.6125359999999915
11
100.3252019999999902
21
-77.612023999999991
0
LINE
8
BLACK
6
CONTINUOUS
10
100.3252019999999902
20
-77.612023999999991
11
100.2109169999999949
21
-77.5548819999999921
0
LINE
8
BLACK
6
CONTINUOUS
10
100.2109169999999949
20
-77.5548819999999921
11
100.1929059999999936
21
-77.5415239999999955
0
LINE
8
BLACK
6
CONTINUOUS
10
100.1929059999999936
20
-77.5415239999999955
11
100.1914249999999953
21
-77.5408329999999921
0
LINE
8
BLACK
6
CONTINUOUS
10
100.1914249999999953
20
-77.5408329999999921
11
100.1342819999999989
21
-77.4836899999999957
0
LINE
8
BLACK
6
CONTINUOUS
10
100.1342819999999989
20
-77.4836899999999957
11
100.1214219999999955
21
-77.4653239999999954
0
LINE
8
BLACK
6
CONTINUOUS
10
100.1214219999999955
20
-77.4653239999999954
11
100.1202329999999989
21
-77.4641979999999961
0
LINE
8
BLACK
6
CONTINUOUS
10
100.1202329999999989
20
-77.4641979999999961
11
100.0630900000000025
21
-77.3499120000000033
0
LINE
8
BLACK
6
CONTINUOUS
10
100.0630900000000025
20
-77.3499120000000033
11
100.0556639999999931
21
-77.3249449999999996
0
LINE
8
BLACK
6
CONTINUOUS
10
100.0556639999999931
20
-77.3249449999999996
11
100.0567049999999938
21
-77.3205839999999966
0
LINE
8
BLACK
6
CONTINUOUS
10
100.0567049999999938
20
-77.3205839999999966
11
100.0551719999999989
21
-77.3163709999999895
0
LINE
8
BLACK
6
CONTINUOUS
10
100.0551719999999989
20
-77.3163709999999895
11
100.0551719999999989
21
-76.9735139999999944
0
LINE
8
BLACK
6
CONTINUOUS
10
100.0551719999999989
20
-76.9735139999999944
11
100.0596949999999907
21
-76.9478620000000006
0
LINE
8
BLACK
6
CONTINUOUS
10
100.0596949999999907
20
-76.9478620000000006
11
100.0625769999999903
21
-76.9444259999999929
0
LINE
8
BLACK
6
CONTINUOUS
10
100.0625769999999903
20
-76.9444259999999929
11
100.0630900000000025
21
-76.9399729999999948
0
LINE
8
BLACK
6
CONTINUOUS
10
100.0630900000000025
20
-76.9399729999999948
11
100.1202329999999989
21
-76.8256870000000021
0
LINE
8
BLACK
6
CONTINUOUS
10
100.1202329999999989
20
-76.8256870000000021
11
100.1335890000000006
21
-76.8076789999999932
0
LINE
8
BLACK
6
CONTINUOUS
10
100.1335890000000006
20
-76.8076789999999932
11
100.1342819999999989
21
-76.8061950000000024
0
LINE
8
BLACK
6
CONTINUOUS
10
100.1342819999999989
20
-76.8061950000000024
11
100.1914249999999953
21
-76.7490519999999918
0
LINE
8
BLACK
6
CONTINUOUS
10
100.1914249999999953
20
-76.7490519999999918
11
100.2097909999999956
21
-76.7361920000000026
0
LINE
8
BLACK
6
CONTINUOUS
10
100.2097909999999956
20
-76.7361920000000026
11
100.2109169999999949
21
-76.7350029999999919
0
LINE
8
BLACK
6
CONTINUOUS
10
100.2109169999999949
20
-76.7350029999999919
11
100.3252019999999902
21
-76.6778599999999955
0
LINE
8
BLACK
6
CONTINUOUS
10
100.3252019999999902
20
-76.6778599999999955
11
100.350168999999994
21
-76.6704330000000027
0
LINE
8
BLACK
6
CONTINUOUS
10
100.350168999999994
20
-76.6704330000000027
11
100.3545309999999944
21
-76.6714750000000009
0
LINE
8
BLACK
6
CONTINUOUS
10
100.3545309999999944
20
-76.6714750000000009
11
100.3587429999999898
21
-76.6699419999999918
0
LINE
8
BLACK
6
CONTINUOUS
10
100.3587429999999898
20
-76.6699419999999918
11
100.5301719999999932
21
-76.6699419999999918
0
LINE
8
BLACK
6
CONTINUOUS
10
100.5301719999999932
20
-76.6699419999999918
11
100.5558240000000012
21
-76.6744649999999979
0
LINE
8
BLACK
6
CONTINUOUS
10
100.2888849999999934
20
-76.8637229999999931
11
100.2489539999999977
21
-76.9036550000000005
0
LINE
8
BLACK
6
CONTINUOUS
10
100.2489539999999977
20
-76.9036550000000005
11
100.2051719999999904
21
-76.991219000000001
0
LINE
8
BLACK
6
CONTINUOUS
10
100.2051719999999904
20
-76.991219000000001
11
100.2051719999999904
21
-77.2986659999999972
0
LINE
8
BLACK
6
CONTINUOUS
10
100.2051719999999904
20
-77.2986659999999972
11
100.2489539999999977
21
-77.3862299999999976
0
LINE
8
BLACK
6
CONTINUOUS
10
100.2489539999999977
20
-77.3862299999999976
11
100.2888839999999959
21
-77.4261599999999959
0
LINE
8
BLACK
6
CONTINUOUS
10
100.2888839999999959
20
-77.4261599999999959
11
100.3764479999999963
21
-77.4699420000000032
0
LINE
8
BLACK
6
CONTINUOUS
10
100.3764479999999963
20
-77.4699420000000032
11
100.5124670000000009
21
-77.4699420000000032
0
LINE
8
BLACK
6
CONTINUOUS
10
100.5124670000000009
20
-77.4699420000000032
11
100.6000310000000013
21
-77.4261599999999959
0
LINE
8
BLACK
6
CONTINUOUS
10
100.6000310000000013
20
-77.4261599999999959
11
100.6399609999999996
21
-77.3862299999999976
0
LINE
8
BLACK
6
CONTINUOUS
10
100.6399609999999996
20
-77.3862299999999976
11
100.6837429999999927
21
-77.2986669999999947
0
LINE
8
BLACK
6
CONTINUOUS
10
100.6837429999999927
20
-77.2986669999999947
11
100.6837429999999927
21
-76.9912169999999918
0
LINE
8
BLACK
6
CONTINUOUS
10
100.6837429999999927
20
-76.9912169999999918
11
100.6399609999999996
21
-76.9036540000000031
0
LINE
8
BLACK
6
CONTINUOUS
10
100.6399609999999996
20
-76.9036540000000031
11
100.6000310000000013
21
-76.8637239999999906
0
LINE
8
BLACK
6
CONTINUOUS
10
100.6000310000000013
20
-76.8637239999999906
11
100.5124670000000009
21
-76.8199419999999975
0
LINE
8
BLACK
6
CONTINUOUS
10
100.5124670000000009
20
-76.8199419999999975
11
100.3764479999999963
21
-76.8199419999999975
0
LINE
8
BLACK
6
CONTINUOUS
10
100.3764479999999963
20
-76.8199419999999975
11
100.2888849999999934
21
-76.8637229999999931
0
LINE
8
BLACK
6
CONTINUOUS
10
103.6733389999999986
20
-76.6967329999999947
11
103.6908859999999919
21
-76.7449419999999947
0
LINE
8
BLACK
6
CONTINUOUS
10
103.6908859999999919
20
-76.7449419999999947
11
103.6908859999999919
21
-77.5449419999999918
0
LINE
8
BLACK
6
CONTINUOUS
10
103.6908859999999919
20
-77.5449419999999918
11
103.6863630000000001
21
-77.5705939999999998
0
LINE
8
BLACK
6
CONTINUOUS
10
103.6863630000000001
20
-77.5705939999999998
11
103.6533859999999976
21
-77.609893999999997
0
LINE
8
BLACK
6
CONTINUOUS
10
103.6533859999999976
20
-77.609893999999997
11
103.6028620000000018
21
-77.6188029999999998
0
LINE
8
BLACK
6
CONTINUOUS
10
103.6028620000000018
20
-77.6188029999999998
11
103.5584329999999937
21
-77.5931509999999918
0
LINE
8
BLACK
6
CONTINUOUS
10
103.5584329999999937
20
-77.5931509999999918
11
103.5518599999999907
21
-77.5750929999999954
0
LINE
8
BLACK
6
CONTINUOUS
10
103.5518599999999907
20
-77.5750929999999954
11
103.4779979999999995
21
-77.612023999999991
0
LINE
8
BLACK
6
CONTINUOUS
10
103.4779979999999995
20
-77.612023999999991
11
103.4530309999999957
21
-77.619450999999998
0
LINE
8
BLACK
6
CONTINUOUS
10
103.4530309999999957
20
-77.619450999999998
11
103.4486689999999953
21
-77.6184080000000023
0
LINE
8
BLACK
6
CONTINUOUS
10
103.4486689999999953
20
-77.6184080000000023
11
103.4444569999999999
21
-77.6199419999999947
0
LINE
8
BLACK
6
CONTINUOUS
10
103.4444569999999999
20
-77.6199419999999947
11
103.2730279999999965
21
-77.6199419999999947
0
LINE
8
BLACK
6
CONTINUOUS
10
103.2730279999999965
20
-77.6199419999999947
11
103.2473759999999885
21
-77.6154190000000028
0
LINE
8
BLACK
6
CONTINUOUS
10
103.2473759999999885
20
-77.6154190000000028
11
103.2439399999999949
21
-77.6125359999999915
0
LINE
8
BLACK
6
CONTINUOUS
10
103.2439399999999949
20
-77.6125359999999915
11
103.2394869999999969
21
-77.612023999999991
0
LINE
8
BLACK
6
CONTINUOUS
10
103.2394869999999969
20
-77.612023999999991
11
103.1252020000000016
21
-77.5548819999999921
0
LINE
8
BLACK
6
CONTINUOUS
10
103.1252020000000016
20
-77.5548819999999921
11
103.1042810000000003
21
-77.5393649999999894
0
LINE
8
BLACK
6
CONTINUOUS
10
103.1042810000000003
20
-77.5393649999999894
11
103.099813999999995
21
-77.5290609999999987
0
LINE
8
BLACK
6
CONTINUOUS
10
103.099813999999995
20
-77.5290609999999987
11
103.091661000000002
21
-77.5213409999999925
0
LINE
8
BLACK
6
CONTINUOUS
10
103.091661000000002
20
-77.5213409999999925
11
103.0345179999999914
21
-77.4070549999999997
0
LINE
8
BLACK
6
CONTINUOUS
10
103.0345179999999914
20
-77.4070549999999997
11
103.0270919999999961
21
-77.382087999999996
0
LINE
8
BLACK
6
CONTINUOUS
10
103.0270919999999961
20
-77.382087999999996
11
103.0281329999999969
21
-77.377726999999993
0
LINE
8
BLACK
6
CONTINUOUS
10
103.0281329999999969
20
-77.377726999999993
11
103.026600000000002
21
-77.3735140000000001
0
LINE
8
BLACK
6
CONTINUOUS
10
103.026600000000002
20
-77.3735140000000001
11
103.026600000000002
21
-76.7449419999999947
0
LINE
8
BLACK
6
CONTINUOUS
10
103.026600000000002
20
-76.7449419999999947
11
103.0311229999999938
21
-76.7192900000000009
0
LINE
8
BLACK
6
CONTINUOUS
10
103.0311229999999938
20
-76.7192900000000009
11
103.0640999999999963
21
-76.6799899999999894
0
LINE
8
BLACK
6
CONTINUOUS
10
103.0640999999999963
20
-76.6799899999999894
11
103.1146239999999921
21
-76.6710810000000009
0
LINE
8
BLACK
6
CONTINUOUS
10
103.1146239999999921
20
-76.6710810000000009
11
103.1590530000000001
21
-76.6967329999999947
0
LINE
8
BLACK
6
CONTINUOUS
10
103.1590530000000001
20
-76.6967329999999947
11
103.1765999999999934
21
-76.7449419999999947
0
LINE
8
BLACK
6
CONTINUOUS
10
103.1765999999999934
20
-76.7449419999999947
11
103.1765999999999934
21
-77.3558089999999936
0
LINE
8
BLACK
6
CONTINUOUS
10
103.1765999999999934
20
-77.3558089999999936
11
103.2146439999999927
21
-77.4318979999999897
0
LINE
8
BLACK
6
CONTINUOUS
10
103.2146439999999927
20
-77.4318979999999897
11
103.2907329999999888
21
-77.4699420000000032
0
LINE
8
BLACK
6
CONTINUOUS
10
103.2907329999999888
20
-77.4699420000000032
11
103.4267519999999934
21
-77.4699420000000032
0
LINE
8
BLACK
6
CONTINUOUS
10
103.4267519999999934
20
-77.4699420000000032
11
103.5143159999999938
21
-77.4261599999999959
0
LINE
8
BLACK
6
CONTINUOUS
10
103.5143159999999938
20
-77.4261599999999959
11
103.5408860000000004
21
-77.3995910000000009
0
LINE
8
BLACK
6
CONTINUOUS
10
103.5408860000000004
20
-77.3995910000000009
11
103.5408860000000004
21
-76.7449419999999947
0
LINE
8
BLACK
6
CONTINUOUS
10
103.5408860000000004
20
-76.7449419999999947
11
103.5454089999999923
21
-76.7192900000000009
0
LINE
8
BLACK
6
CONTINUOUS
10
103.5454089999999923
20
-76.7192900000000009
11
103.5783859999999947
21
-76.6799899999999894
0
LINE
8
BLACK
6
CONTINUOUS
10
103.5783859999999947
20
-76.6799899999999894
11
103.6289099999999905
21
-76.6710810000000009
0
LINE
8
BLACK
6
CONTINUOUS
10
103.6289099999999905
20
-76.6710810000000009
11
103.6733389999999986
21
-76.6967329999999947
0
LINE
8
BLACK
6
CONTINUOUS
10
104.5558229999999895
20
-76.6744649999999979
11
104.5592579999999998
21
-76.6773469999999975
0
LINE
8
BLACK
6
CONTINUOUS
10
104.5592579999999998
20
-76.6773469999999975
11
104.5637119999999953
21
-76.6778599999999955
0
LINE
8
BLACK
6
CONTINUOUS
10
104.5637119999999953
20
-76.6778599999999955
11
104.6779980000000023
21
-76.7350029999999919
0
LINE
8
BLACK
6
CONTINUOUS
10
104.6779980000000023
20
-76.7350029999999919
11
104.6989189999999894
21
-76.750520999999992
0
LINE
8
BLACK
6
CONTINUOUS
10
104.6989189999999894
20
-76.750520999999992
11
104.7033839999999998
21
-76.760823000000002
0
LINE
8
BLACK
6
CONTINUOUS
10
104.7033839999999998
20
-76.760823000000002
11
104.7115390000000019
21
-76.7685439999999915
0
LINE
8
BLACK
6
CONTINUOUS
10
104.7115390000000019
20
-76.7685439999999915
11
104.7686819999999983
21
-76.8828299999999984
0
LINE
8
BLACK
6
CONTINUOUS
10
104.7686819999999983
20
-76.8828299999999984
11
104.7761089999999911
21
-76.9077970000000022
0
LINE
8
BLACK
6
CONTINUOUS
10
104.7761089999999911
20
-76.9077970000000022
11
104.7750659999999954
21
-76.9121590000000026
0
LINE
8
BLACK
6
CONTINUOUS
10
104.7750659999999954
20
-76.9121590000000026
11
104.776600000000002
21
-76.916370999999998
0
LINE
8
BLACK
6
CONTINUOUS
10
104.776600000000002
20
-76.916370999999998
11
104.776600000000002
21
-77.0306569999999908
0
LINE
8
BLACK
6
CONTINUOUS
10
104.776600000000002
20
-77.0306569999999908
11
104.7720769999999959
21
-77.0563089999999988
0
LINE
8
BLACK
6
CONTINUOUS
10
104.7720769999999959
20
-77.0563089999999988
11
104.7641100000000023
21
-77.0658019999999908
0
LINE
8
BLACK
6
CONTINUOUS
10
104.7641100000000023
20
-77.0658019999999908
11
104.7601399999999927
21
-77.0775399999999991
0
LINE
8
BLACK
6
CONTINUOUS
10
104.7601399999999927
20
-77.0775399999999991
11
104.7481339999999932
21
-77.0848419999999948
0
LINE
8
BLACK
6
CONTINUOUS
10
104.7481339999999932
20
-77.0848419999999948
11
104.7390999999999934
21
-77.0956089999999961
0
LINE
8
BLACK
6
CONTINUOUS
10
104.7390999999999934
20
-77.0956089999999961
11
104.726894999999999
21
-77.0977609999999913
0
LINE
8
BLACK
6
CONTINUOUS
10
104.726894999999999
20
-77.0977609999999913
11
104.7163079999999979
21
-77.1042010000000033
0
LINE
8
BLACK
6
CONTINUOUS
10
104.7163079999999979
20
-77.1042010000000033
11
104.2051709999999929
21
-77.2064269999999908
0
LINE
8
BLACK
6
CONTINUOUS
10
104.2051709999999929
20
-77.2064269999999908
11
104.2051709999999929
21
-77.3558089999999936
0
LINE
8
BLACK
6
CONTINUOUS
10
104.2051709999999929
20
-77.3558089999999936
11
104.2432149999999922
21
-77.4318979999999897
0
LINE
8
BLACK
6
CONTINUOUS
10
104.2432149999999922
20
-77.4318979999999897
11
104.3193039999999883
21
-77.4699420000000032
0
LINE
8
BLACK
6
CONTINUOUS
10
104.3193039999999883
20
-77.4699420000000032
11
104.5124659999999892
21
-77.4699420000000032
0
LINE
8
BLACK
6
CONTINUOUS
10
104.5124659999999892
20
-77.4699420000000032
11
104.6109159999999889
21
-77.4207179999999937
0
LINE
8
BLACK
6
CONTINUOUS
10
104.6109159999999889
20
-77.4207179999999937
11
104.6358829999999926
21
-77.4132919999999984
0
LINE
8
BLACK
6
CONTINUOUS
10
104.6358829999999926
20
-77.4132919999999984
11
104.685781999999989
21
-77.4252120000000019
0
LINE
8
BLACK
6
CONTINUOUS
10
104.685781999999989
20
-77.4252120000000019
11
104.7163449999999898
21
-77.4664179999999902
0
LINE
8
BLACK
6
CONTINUOUS
10
104.7163449999999898
20
-77.4664179999999902
11
104.7132699999999943
21
-77.517628000000002
0
LINE
8
BLACK
6
CONTINUOUS
10
104.7132699999999943
20
-77.517628000000002
11
104.6779969999999906
21
-77.5548819999999921
0
LINE
8
BLACK
6
CONTINUOUS
10
104.6779969999999906
20
-77.5548819999999921
11
104.5637119999999953
21
-77.612023999999991
0
LINE
8
BLACK
6
CONTINUOUS
10
104.5637119999999953
20
-77.612023999999991
11
104.5387449999999916
21
-77.619450999999998
0
LINE
8
BLACK
6
CONTINUOUS
10
104.5387449999999916
20
-77.619450999999998
11
104.5343829999999912
21
-77.6184080000000023
0
LINE
8
BLACK
6
CONTINUOUS
10
104.5343829999999912
20
-77.6184080000000023
11
104.5301709999999957
21
-77.6199419999999947
0
LINE
8
BLACK
6
CONTINUOUS
10
104.5301709999999957
20
-77.6199419999999947
11
104.3015999999999934
21
-77.6199419999999947
0
LINE
8
BLACK
6
CONTINUOUS
10
104.3015999999999934
20
-77.6199419999999947
11
104.2759479999999996
21
-77.6154190000000028
0
LINE
8
BLACK
6
CONTINUOUS
10
104.2759479999999996
20
-77.6154190000000028
11
104.2725119999999919
21
-77.6125359999999915
0
LINE
8
BLACK
6
CONTINUOUS
10
104.2725119999999919
20
-77.6125359999999915
11
104.2680589999999938
21
-77.612023999999991
0
LINE
8
BLACK
6
CONTINUOUS
10
104.2680589999999938
20
-77.612023999999991
11
104.153773000000001
21
-77.5548819999999921
0
LINE
8
BLACK
6
CONTINUOUS
10
104.153773000000001
20
-77.5548819999999921
11
104.1328519999999997
21
-77.5393649999999894
0
LINE
8
BLACK
6
CONTINUOUS
10
104.1328519999999997
20
-77.5393649999999894
11
104.1283849999999944
21
-77.5290609999999987
0
LINE
8
BLACK
6
CONTINUOUS
10
104.1283849999999944
20
-77.5290609999999987
11
104.1202320000000014
21
-77.5213409999999925
0
LINE
8
BLACK
6
CONTINUOUS
10
104.1202320000000014
20
-77.5213409999999925
11
104.0630889999999908
21
-77.4070549999999997
0
LINE
8
BLACK
6
CONTINUOUS
10
104.0630889999999908
20
-77.4070549999999997
11
104.0556629999999956
21
-77.382087999999996
0
LINE
8
BLACK
6
CONTINUOUS
10
104.0556629999999956
20
-77.382087999999996
11
104.0567039999999963
21
-77.377726999999993
0
LINE
8
BLACK
6
CONTINUOUS
10
104.0567039999999963
20
-77.377726999999993
11
104.0551710000000014
21
-77.3735140000000001
0
LINE
8
BLACK
6
CONTINUOUS
10
104.0551710000000014
20
-77.3735140000000001
11
104.0551710000000014
21
-76.916370999999998
0
LINE
8
BLACK
6
CONTINUOUS
10
104.0551710000000014
20
-76.916370999999998
11
104.0596939999999933
21
-76.89071899999999
0
LINE
8
BLACK
6
CONTINUOUS
10
104.0596939999999933
20
-76.89071899999999
11
104.0625759999999929
21
-76.8872829999999965
0
LINE
8
BLACK
6
CONTINUOUS
10
104.0625759999999929
20
-76.8872829999999965
11
104.0630889999999908
21
-76.8828299999999984
0
LINE
8
BLACK
6
CONTINUOUS
10
104.0630889999999908
20
-76.8828299999999984
11
104.1202320000000014
21
-76.7685439999999915
0
LINE
8
BLACK
6
CONTINUOUS
10
104.1202320000000014
20
-76.7685439999999915
11
104.1357500000000016
21
-76.7476229999999902
0
LINE
8
BLACK
6
CONTINUOUS
10
104.1357500000000016
20
-76.7476229999999902
11
104.1460519999999974
21
-76.7431569999999965
0
LINE
8
BLACK
6
CONTINUOUS
10
104.1460519999999974
20
-76.7431569999999965
11
104.153773000000001
21
-76.7350029999999919
0
LINE
8
BLACK
6
CONTINUOUS
10
104.153773000000001
20
-76.7350029999999919
11
104.2680589999999938
21
-76.6778599999999955
0
LINE
8
BLACK
6
CONTINUOUS
10
104.2680589999999938
20
-76.6778599999999955
11
104.2930259999999976
21
-76.6704330000000027
0
LINE
8
BLACK
6
CONTINUOUS
10
104.2930259999999976
20
-76.6704330000000027
11
104.297387999999998
21
-76.6714750000000009
0
LINE
8
BLACK
6
CONTINUOUS
10
104.297387999999998
20
-76.6714750000000009
11
104.3015999999999934
21
-76.6699419999999918
0
LINE
8
BLACK
6
CONTINUOUS
10
104.3015999999999934
20
-76.6699419999999918
11
104.5301709999999957
21
-76.6699419999999918
0
LINE
8
BLACK
6
CONTINUOUS
10
104.5301709999999957
20
-76.6699419999999918
11
104.5558229999999895
21
-76.6744649999999979
0
LINE
8
BLACK
6
CONTINUOUS
10
104.2432149999999922
20
-76.8579859999999968
11
104.2051709999999929
21
-76.9340759999999904
0
LINE
8
BLACK
6
CONTINUOUS
10
104.2051709999999929
20
-76.9340759999999904
11
104.2051709999999929
21
-77.0534559999999971
0
LINE
8
BLACK
6
CONTINUOUS
10
104.2051709999999929
20
-77.0534559999999971
11
104.6265999999999963
21
-76.9691720000000004
0
LINE
8
BLACK
6
CONTINUOUS
10
104.6265999999999963
20
-76.9691720000000004
11
104.6265999999999963
21
-76.9340759999999904
0
LINE
8
BLACK
6
CONTINUOUS
10
104.6265999999999963
20
-76.9340759999999904
11
104.5885549999999995
21
-76.8579859999999968
0
LINE
8
BLACK
6
CONTINUOUS
10
104.5885549999999995
20
-76.8579859999999968
11
104.5124659999999892
21
-76.8199419999999975
0
LINE
8
BLACK
6
CONTINUOUS
10
104.5124659999999892
20
-76.8199419999999975
11
104.3193049999999999
21
-76.8199419999999975
0
LINE
8
BLACK
6
CONTINUOUS
10
104.3193049999999999
20
-76.8199419999999975
11
104.2432149999999922
21
-76.8579859999999968
0
LINE
8
BLACK
6
CONTINUOUS
10
107.2986799999999903
20
-76.2744649999999922
11
107.3021150000000006
21
-76.2773469999999918
0
LINE
8
BLACK
6
CONTINUOUS
10
107.3021150000000006
20
-76.2773469999999918
11
107.3065689999999961
21
-76.2778599999999898
0
LINE
8
BLACK
6
CONTINUOUS
10
107.3065689999999961
20
-76.2778599999999898
11
107.4208549999999889
21
-76.3350030000000004
0
LINE
8
BLACK
6
CONTINUOUS
10
107.4208549999999889
20
-76.3350030000000004
11
107.4388609999999886
21
-76.3483590000000021
0
LINE
8
BLACK
6
CONTINUOUS
10
107.4388609999999886
20
-76.3483590000000021
11
107.4403469999999885
21
-76.3490520000000004
0
LINE
8
BLACK
6
CONTINUOUS
10
107.4403469999999885
20
-76.3490520000000004
11
107.4974899999999991
21
-76.4061959999999942
0
LINE
8
BLACK
6
CONTINUOUS
10
107.4974899999999991
20
-76.4061959999999942
11
107.5103489999999908
21
-76.4245609999999971
0
LINE
8
BLACK
6
CONTINUOUS
10
107.5103489999999908
20
-76.4245609999999971
11
107.5115380000000016
21
-76.4256869999999964
0
LINE
8
BLACK
6
CONTINUOUS
10
107.5115380000000016
20
-76.4256869999999964
11
107.568680999999998
21
-76.5399730000000034
0
LINE
8
BLACK
6
CONTINUOUS
10
107.568680999999998
20
-76.5399730000000034
11
107.5761079999999907
21
-76.5649399999999929
0
LINE
8
BLACK
6
CONTINUOUS
10
107.5761079999999907
20
-76.5649399999999929
11
107.5750649999999951
21
-76.5693019999999933
0
LINE
8
BLACK
6
CONTINUOUS
10
107.5750649999999951
20
-76.5693019999999933
11
107.5765990000000016
21
-76.573514000000003
0
LINE
8
BLACK
6
CONTINUOUS
10
107.5765990000000016
20
-76.573514000000003
11
107.5765990000000016
21
-76.6877999999999957
0
LINE
8
BLACK
6
CONTINUOUS
10
107.5765990000000016
20
-76.6877999999999957
11
107.5720759999999956
21
-76.7134519999999895
0
LINE
8
BLACK
6
CONTINUOUS
10
107.5720759999999956
20
-76.7134519999999895
11
107.5691929999999985
21
-76.7168869999999998
0
LINE
8
BLACK
6
CONTINUOUS
10
107.5691929999999985
20
-76.7168869999999998
11
107.568680999999998
21
-76.7213409999999953
0
LINE
8
BLACK
6
CONTINUOUS
10
107.568680999999998
20
-76.7213409999999953
11
107.5115380000000016
21
-76.8356259999999907
0
LINE
8
BLACK
6
CONTINUOUS
10
107.5115380000000016
20
-76.8356259999999907
11
107.4981819999999999
21
-76.8536309999999929
0
LINE
8
BLACK
6
CONTINUOUS
10
107.4981819999999999
20
-76.8536309999999929
11
107.4974899999999991
21
-76.8551169999999928
0
LINE
8
BLACK
6
CONTINUOUS
10
107.4974899999999991
20
-76.8551169999999928
11
107.4547259999999937
21
-76.8978800000000007
0
LINE
8
BLACK
6
CONTINUOUS
10
107.4547259999999937
20
-76.8978800000000007
11
107.4681729999999931
21
-76.902362999999994
0
LINE
8
BLACK
6
CONTINUOUS
10
107.4681729999999931
20
-76.902362999999994
11
107.4910780000000017
21
-76.9147660000000002
0
LINE
8
BLACK
6
CONTINUOUS
10
107.4910780000000017
20
-76.9147660000000002
11
107.4934239999999903
21
-76.9185849999999931
0
LINE
8
BLACK
6
CONTINUOUS
10
107.4934239999999903
20
-76.9185849999999931
11
107.4974890000000016
21
-76.9204809999999952
0
LINE
8
BLACK
6
CONTINUOUS
10
107.4974890000000016
20
-76.9204809999999952
11
107.554631999999998
21
-76.9776239999999916
0
LINE
8
BLACK
6
CONTINUOUS
10
107.554631999999998
20
-76.9776239999999916
11
107.5674909999999898
21
-76.9959899999999919
0
LINE
8
BLACK
6
CONTINUOUS
10
107.5674909999999898
20
-76.9959899999999919
11
107.568680999999998
21
-76.9971159999999912
0
LINE
8
BLACK
6
CONTINUOUS
10
107.568680999999998
20
-76.9971159999999912
11
107.6258239999999944
21
-77.1114010000000007
0
LINE
8
BLACK
6
CONTINUOUS
10
107.6258239999999944
20
-77.1114010000000007
11
107.6332510000000013
21
-77.1363679999999903
0
LINE
8
BLACK
6
CONTINUOUS
10
107.6332510000000013
20
-77.1363679999999903
11
107.6322079999999914
21
-77.1407299999999907
0
LINE
8
BLACK
6
CONTINUOUS
10
107.6322079999999914
20
-77.1407299999999907
11
107.633741999999998
21
-77.1449420000000003
0
LINE
8
BLACK
6
CONTINUOUS
10
107.633741999999998
20
-77.1449420000000003
11
107.633741999999998
21
-77.3163709999999895
0
LINE
8
BLACK
6
CONTINUOUS
10
107.633741999999998
20
-77.3163709999999895
11
107.629218999999992
21
-77.3420229999999975
0
LINE
8
BLACK
6
CONTINUOUS
10
107.629218999999992
20
-77.3420229999999975
11
107.6263359999999949
21
-77.3454579999999936
0
LINE
8
BLACK
6
CONTINUOUS
10
107.6263359999999949
20
-77.3454579999999936
11
107.6258239999999944
21
-77.3499120000000033
0
LINE
8
BLACK
6
CONTINUOUS
10
107.6258239999999944
20
-77.3499120000000033
11
107.568680999999998
21
-77.4641979999999961
0
LINE
8
BLACK
6
CONTINUOUS
10
107.568680999999998
20
-77.4641979999999961
11
107.5553230000000013
21
-77.482208
0
LINE
8
BLACK
6
CONTINUOUS
10
107.5553230000000013
20
-77.482208
11
107.554631999999998
21
-77.4836899999999957
0
LINE
8
BLACK
6
CONTINUOUS
10
107.554631999999998
20
-77.4836899999999957
11
107.4974890000000016
21
-77.5408329999999921
0
LINE
8
BLACK
6
CONTINUOUS
10
107.4974890000000016
20
-77.5408329999999921
11
107.4791219999999896
21
-77.5536919999999981
0
LINE
8
BLACK
6
CONTINUOUS
10
107.4791219999999896
20
-77.5536919999999981
11
107.477997000000002
21
-77.5548819999999921
0
LINE
8
BLACK
6
CONTINUOUS
10
107.477997000000002
20
-77.5548819999999921
11
107.3637119999999925
21
-77.612023999999991
0
LINE
8
BLACK
6
CONTINUOUS
10
107.3637119999999925
20
-77.612023999999991
11
107.3387449999999887
21
-77.6194500000000005
0
LINE
8
BLACK
6
CONTINUOUS
10
107.3387449999999887
20
-77.6194500000000005
11
107.334384
21
-77.6184080000000023
0
LINE
8
BLACK
6
CONTINUOUS
10
107.334384
20
-77.6184080000000023
11
107.3301709999999929
21
-77.6199419999999947
0
LINE
8
BLACK
6
CONTINUOUS
10
107.3301709999999929
20
-77.6199419999999947
11
106.8730279999999908
21
-77.6199419999999947
0
LINE
8
BLACK
6
CONTINUOUS
10
106.8730279999999908
20
-77.6199419999999947
11
106.8632860000000022
21
-77.6182239999999979
0
LINE
8
BLACK
6
CONTINUOUS
10
106.8632860000000022
20
-77.6182239999999979
11
106.8600039999999893
21
-77.6188029999999998
0
LINE
8
BLACK
6
CONTINUOUS
10
106.8600039999999893
20
-77.6188029999999998
11
106.8571179999999998
21
-77.6171360000000021
0
LINE
8
BLACK
6
CONTINUOUS
10
106.8571179999999998
20
-77.6171360000000021
11
106.847375999999997
21
-77.6154190000000028
0
LINE
8
BLACK
6
CONTINUOUS
10
106.847375999999997
20
-77.6154190000000028
11
106.8324479999999994
21
-77.6028929999999946
0
LINE
8
BLACK
6
CONTINUOUS
10
106.8324479999999994
20
-77.6028929999999946
11
106.8155749999999955
21
-77.5931509999999918
0
LINE
8
BLACK
6
CONTINUOUS
10
106.8155749999999955
20
-77.5931509999999918
11
106.8132599999999996
21
-77.5867920000000026
0
LINE
8
BLACK
6
CONTINUOUS
10
106.8132599999999996
20
-77.5867920000000026
11
106.8080759999999998
21
-77.5824420000000003
0
LINE
8
BLACK
6
CONTINUOUS
10
106.8080759999999998
20
-77.5824420000000003
11
106.8046909999999912
21
-77.5632499999999965
0
LINE
8
BLACK
6
CONTINUOUS
10
106.8046909999999912
20
-77.5632499999999965
11
106.7980280000000022
21
-77.5449419999999918
0
LINE
8
BLACK
6
CONTINUOUS
10
106.7980280000000022
20
-77.5449419999999918
11
106.7980280000000022
21
-76.3449420000000032
0
LINE
8
BLACK
6
CONTINUOUS
10
106.7980280000000022
20
-76.3449420000000032
11
106.7997450000000015
21
-76.3352000000000004
0
LINE
8
BLACK
6
CONTINUOUS
10
106.7997450000000015
20
-76.3352000000000004
11
106.7991669999999971
21
-76.3319180000000017
0
LINE
8
BLACK
6
CONTINUOUS
10
106.7991669999999971
20
-76.3319180000000017
11
106.8008329999999972
21
-76.329031999999998
0
LINE
8
BLACK
6
CONTINUOUS
10
106.8008329999999972
20
-76.329031999999998
11
106.802550999999994
21
-76.3192899999999952
0
LINE
8
BLACK
6
CONTINUOUS
10
106.802550999999994
20
-76.3192899999999952
11
106.8150759999999906
21
-76.3043619999999976
0
LINE
8
BLACK
6
CONTINUOUS
10
106.8150759999999906
20
-76.3043619999999976
11
106.8248189999999909
21
-76.2874889999999937
0
LINE
8
BLACK
6
CONTINUOUS
10
106.8248189999999909
20
-76.2874889999999937
11
106.8311769999999967
21
-76.2851739999999978
0
LINE
8
BLACK
6
CONTINUOUS
10
106.8311769999999967
20
-76.2851739999999978
11
106.8355279999999965
21
-76.279989999999998
0
LINE
8
BLACK
6
CONTINUOUS
10
106.8355279999999965
20
-76.279989999999998
11
106.8547189999999887
21
-76.2766050000000035
0
LINE
8
BLACK
6
CONTINUOUS
10
106.8547189999999887
20
-76.2766050000000035
11
106.8730279999999908
21
-76.2699420000000003
0
LINE
8
BLACK
6
CONTINUOUS
10
106.8730279999999908
20
-76.2699420000000003
11
107.2730279999999965
21
-76.2699420000000003
0
LINE
8
BLACK
6
CONTINUOUS
10
107.2730279999999965
20
-76.2699420000000003
11
107.2986799999999903
21
-76.2744649999999922
0
LINE
8
BLACK
6
CONTINUOUS
10
106.9480279999999937
20
-77.4699420000000032
11
107.3124660000000006
21
-77.4699420000000032
0
LINE
8
BLACK
6
CONTINUOUS
10
107.3124660000000006
20
-77.4699420000000032
11
107.4000289999999893
21
-77.4261599999999959
0
LINE
8
BLACK
6
CONTINUOUS
10
107.4000289999999893
20
-77.4261599999999959
11
107.4399599999999992
21
-77.3862299999999976
0
LINE
8
BLACK
6
CONTINUOUS
10
107.4399599999999992
20
-77.3862299999999976
11
107.4837419999999923
21
-77.2986659999999972
0
LINE
8
BLACK
6
CONTINUOUS
10
107.4837419999999923
20
-77.2986659999999972
11
107.4837419999999923
21
-77.1626469999999927
0
LINE
8
BLACK
6
CONTINUOUS
10
107.4837419999999923
20
-77.1626469999999927
11
107.4399599999999992
21
-77.0750839999999897
0
LINE
8
BLACK
6
CONTINUOUS
10
107.4399599999999992
20
-77.0750839999999897
11
107.403940999999989
21
-77.0390649999999937
0
LINE
8
BLACK
6
CONTINUOUS
10
107.403940999999989
20
-77.0390649999999937
11
107.2608579999999989
21
-76.9913710000000009
0
LINE
8
BLACK
6
CONTINUOUS
10
107.2608579999999989
20
-76.9913710000000009
11
106.9480279999999937
21
-76.9913710000000009
0
LINE
8
BLACK
6
CONTINUOUS
10
106.9480279999999937
20
-76.9913710000000009
11
106.9480279999999937
21
-77.4699420000000032
0
LINE
8
BLACK
6
CONTINUOUS
10
106.9480279999999937
20
-76.8413709999999952
11
107.25532299999999
21
-76.8413709999999952
0
LINE
8
BLACK
6
CONTINUOUS
10
107.25532299999999
20
-76.8413709999999952
11
107.3428859999999929
21
-76.7975890000000021
0
LINE
8
BLACK
6
CONTINUOUS
10
107.3428859999999929
20
-76.7975890000000021
11
107.3828159999999912
21
-76.7576579999999922
0
LINE
8
BLACK
6
CONTINUOUS
10
107.3828159999999912
20
-76.7576579999999922
11
107.426598999999996
21
-76.6700939999999918
0
LINE
8
BLACK
6
CONTINUOUS
10
107.426598999999996
20
-76.6700939999999918
11
107.426598999999996
21
-76.5912189999999953
0
LINE
8
BLACK
6
CONTINUOUS
10
107.426598999999996
20
-76.5912189999999953
11
107.3828159999999912
21
-76.5036539999999974
0
LINE
8
BLACK
6
CONTINUOUS
10
107.3828159999999912
20
-76.5036539999999974
11
107.3428859999999929
21
-76.4637230000000017
0
LINE
8
BLACK
6
CONTINUOUS
10
107.3428859999999929
20
-76.4637230000000017
11
107.25532299999999
21
-76.4199419999999918
0
LINE
8
BLACK
6
CONTINUOUS
10
107.25532299999999
20
-76.4199419999999918
11
106.9480279999999937
21
-76.4199419999999918
0
LINE
8
BLACK
6
CONTINUOUS
10
106.9480279999999937
20
-76.4199419999999918
11
106.9480279999999937
21
-76.8413709999999952
0
LINE
8
BLACK
6
CONTINUOUS
10
108.4415369999999967
20
-76.6744649999999979
11
108.4449719999999928
21
-76.6773469999999975
0
LINE
8
BLACK
6
CONTINUOUS
10
108.4449719999999928
20
-76.6773469999999975
11
108.4494259999999883
21
-76.6778599999999955
0
LINE
8
BLACK
6
CONTINUOUS
10
108.4494259999999883
20
-76.6778599999999955
11
108.5637119999999953
21
-76.7350029999999919
0
LINE
8
BLACK
6
CONTINUOUS
10
108.5637119999999953
20
-76.7350029999999919
11
108.5817189999999925
21
-76.7483589999999936
0
LINE
8
BLACK
6
CONTINUOUS
10
108.5817189999999925
20
-76.7483589999999936
11
108.5832039999999949
21
-76.7490519999999918
0
LINE
8
BLACK
6
CONTINUOUS
10
108.5832039999999949
20
-76.7490519999999918
11
108.6403469999999913
21
-76.8061950000000024
0
LINE
8
BLACK
6
CONTINUOUS
10
108.6403469999999913
20
-76.8061950000000024
11
108.6532059999999973
21
-76.8245610000000028
0
LINE
8
BLACK
6
CONTINUOUS
10
108.6532059999999973
20
-76.8245610000000028
11
108.6543959999999913
21
-76.8256870000000021
0
LINE
8
BLACK
6
CONTINUOUS
10
108.6543959999999913
20
-76.8256870000000021
11
108.7115379999999902
21
-76.9399729999999948
0
LINE
8
BLACK
6
CONTINUOUS
10
108.7115379999999902
20
-76.9399729999999948
11
108.7189639999999997
21
-76.9649399999999986
0
LINE
8
BLACK
6
CONTINUOUS
10
108.7189639999999997
20
-76.9649399999999986
11
108.7179220000000015
21
-76.9692999999999898
0
LINE
8
BLACK
6
CONTINUOUS
10
108.7179220000000015
20
-76.9692999999999898
11
108.7194559999999939
21
-76.9735139999999944
0
LINE
8
BLACK
6
CONTINUOUS
10
108.7194559999999939
20
-76.9735139999999944
11
108.7194559999999939
21
-77.3163709999999895
0
LINE
8
BLACK
6
CONTINUOUS
10
108.7194559999999939
20
-77.3163709999999895
11
108.714933000000002
21
-77.3420229999999975
0
LINE
8
BLACK
6
CONTINUOUS
10
108.714933000000002
20
-77.3420229999999975
11
108.7120499999999907
21
-77.3454579999999936
0
LINE
8
BLACK
6
CONTINUOUS
10
108.7120499999999907
20
-77.3454579999999936
11
108.7115379999999902
21
-77.3499120000000033
0
LINE
8
BLACK
6
CONTINUOUS
10
108.7115379999999902
20
-77.3499120000000033
11
108.6543959999999913
21
-77.4641979999999961
0
LINE
8
BLACK
6
CONTINUOUS
10
108.6543959999999913
20
-77.4641979999999961
11
108.6410379999999947
21
-77.482208
0
LINE
8
BLACK
6
CONTINUOUS
10
108.6410379999999947
20
-77.482208
11
108.6403469999999913
21
-77.4836899999999957
0
LINE
8
BLACK
6
CONTINUOUS
10
108.6403469999999913
20
-77.4836899999999957
11
108.5832039999999949
21
-77.5408329999999921
0
LINE
8
BLACK
6
CONTINUOUS
10
108.5832039999999949
20
-77.5408329999999921
11
108.564834999999988
21
-77.553693999999993
0
LINE
8
BLACK
6
CONTINUOUS
10
108.564834999999988
20
-77.553693999999993
11
108.5637109999999979
21
-77.5548819999999921
0
LINE
8
BLACK
6
CONTINUOUS
10
108.5637109999999979
20
-77.5548819999999921
11
108.4494259999999883
21
-77.612023999999991
0
LINE
8
BLACK
6
CONTINUOUS
10
108.4494259999999883
20
-77.612023999999991
11
108.4244589999999988
21
-77.619450999999998
0
LINE
8
BLACK
6
CONTINUOUS
10
108.4244589999999988
20
-77.619450999999998
11
108.4200969999999984
21
-77.6184080000000023
0
LINE
8
BLACK
6
CONTINUOUS
10
108.4200969999999984
20
-77.6184080000000023
11
108.4158849999999887
21
-77.6199419999999947
0
LINE
8
BLACK
6
CONTINUOUS
10
108.4158849999999887
20
-77.6199419999999947
11
108.2444559999999996
21
-77.6199419999999947
0
LINE
8
BLACK
6
CONTINUOUS
10
108.2444559999999996
20
-77.6199419999999947
11
108.2188039999999916
21
-77.6154190000000028
0
LINE
8
BLACK
6
CONTINUOUS
10
108.2188039999999916
20
-77.6154190000000028
11
108.215367999999998
21
-77.6125359999999915
0
LINE
8
BLACK
6
CONTINUOUS
10
108.215367999999998
20
-77.6125359999999915
11
108.210915
21
-77.612023999999991
0
LINE
8
BLACK
6
CONTINUOUS
10
108.210915
20
-77.612023999999991
11
108.0966299999999904
21
-77.5548819999999921
0
LINE
8
BLACK
6
CONTINUOUS
10
108.0966299999999904
20
-77.5548819999999921
11
108.0786189999999891
21
-77.5415239999999955
0
LINE
8
BLACK
6
CONTINUOUS
10
108.0786189999999891
20
-77.5415239999999955
11
108.0771379999999908
21
-77.5408329999999921
0
LINE
8
BLACK
6
CONTINUOUS
10
108.0771379999999908
20
-77.5408329999999921
11
108.0199949999999944
21
-77.4836899999999957
0
LINE
8
BLACK
6
CONTINUOUS
10
108.0199949999999944
20
-77.4836899999999957
11
108.007134999999991
21
-77.4653239999999954
0
LINE
8
BLACK
6
CONTINUOUS
10
108.007134999999991
20
-77.4653239999999954
11
108.0059459999999945
21
-77.4641979999999961
0
LINE
8
BLACK
6
CONTINUOUS
10
108.0059459999999945
20
-77.4641979999999961
11
107.9488029999999981
21
-77.3499120000000033
0
LINE
8
BLACK
6
CONTINUOUS
10
107.9488029999999981
20
-77.3499120000000033
11
107.9413769999999886
21
-77.3249449999999996
0
LINE
8
BLACK
6
CONTINUOUS
10
107.9413769999999886
20
-77.3249449999999996
11
107.9424179999999893
21
-77.3205839999999966
0
LINE
8
BLACK
6
CONTINUOUS
10
107.9424179999999893
20
-77.3205839999999966
11
107.9408849999999944
21
-77.3163709999999895
0
LINE
8
BLACK
6
CONTINUOUS
10
107.9408849999999944
20
-77.3163709999999895
11
107.9408849999999944
21
-76.9735139999999944
0
LINE
8
BLACK
6
CONTINUOUS
10
107.9408849999999944
20
-76.9735139999999944
11
107.9454080000000005
21
-76.9478620000000006
0
LINE
8
BLACK
6
CONTINUOUS
10
107.9454080000000005
20
-76.9478620000000006
11
107.9482900000000001
21
-76.9444259999999929
0
LINE
8
BLACK
6
CONTINUOUS
10
107.9482900000000001
20
-76.9444259999999929
11
107.9488029999999981
21
-76.9399729999999948
0
LINE
8
BLACK
6
CONTINUOUS
10
107.9488029999999981
20
-76.9399729999999948
11
108.0059459999999945
21
-76.8256870000000021
0
LINE
8
BLACK
6
CONTINUOUS
10
108.0059459999999945
20
-76.8256870000000021
11
108.0193019999999962
21
-76.8076789999999932
0
LINE
8
BLACK
6
CONTINUOUS
10
108.0193019999999962
20
-76.8076789999999932
11
108.0199949999999944
21
-76.8061950000000024
0
LINE
8
BLACK
6
CONTINUOUS
10
108.0199949999999944
20
-76.8061950000000024
11
108.0771379999999908
21
-76.7490519999999918
0
LINE
8
BLACK
6
CONTINUOUS
10
108.0771379999999908
20
-76.7490519999999918
11
108.0955039999999912
21
-76.7361920000000026
0
LINE
8
BLACK
6
CONTINUOUS
10
108.0955039999999912
20
-76.7361920000000026
11
108.0966299999999904
21
-76.7350029999999919
0
LINE
8
BLACK
6
CONTINUOUS
10
108.0966299999999904
20
-76.7350029999999919
11
108.210915
21
-76.6778599999999955
0
LINE
8
BLACK
6
CONTINUOUS
10
108.210915
20
-76.6778599999999955
11
108.2358819999999895
21
-76.6704330000000027
0
LINE
8
BLACK
6
CONTINUOUS
10
108.2358819999999895
20
-76.6704330000000027
11
108.2402439999999899
21
-76.6714750000000009
0
LINE
8
BLACK
6
CONTINUOUS
10
108.2402439999999899
20
-76.6714750000000009
11
108.2444559999999996
21
-76.6699419999999918
0
LINE
8
BLACK
6
CONTINUOUS
10
108.2444559999999996
20
-76.6699419999999918
11
108.4158849999999887
21
-76.6699419999999918
0
LINE
8
BLACK
6
CONTINUOUS
10
108.4158849999999887
20
-76.6699419999999918
11
108.4415369999999967
21
-76.6744649999999979
0
LINE
8
BLACK
6
CONTINUOUS
10
108.1745979999999889
20
-76.8637229999999931
11
108.1346669999999932
21
-76.9036550000000005
0
LINE
8
BLACK
6
CONTINUOUS
10
108.1346669999999932
20
-76.9036550000000005
11
108.0908850000000001
21
-76.991219000000001
0
LINE
8
BLACK
6
CONTINUOUS
10
108.0908850000000001
20
-76.991219000000001
11
108.0908850000000001
21
-77.2986659999999972
0
LINE
8
BLACK
6
CONTINUOUS
10
108.0908850000000001
20
-77.2986659999999972
11
108.1346669999999932
21
-77.3862299999999976
0
LINE
8
BLACK
6
CONTINUOUS
10
108.1346669999999932
20
-77.3862299999999976
11
108.1745969999999915
21
-77.4261599999999959
0
LINE
8
BLACK
6
CONTINUOUS
10
108.1745969999999915
20
-77.4261599999999959
11
108.2621609999999919
21
-77.4699420000000032
0
LINE
8
BLACK
6
CONTINUOUS
10
108.2621609999999919
20
-77.4699420000000032
11
108.3981799999999964
21
-77.4699420000000032
0
LINE
8
BLACK
6
CONTINUOUS
10
108.3981799999999964
20
-77.4699420000000032
11
108.4857439999999968
21
-77.4261599999999959
0
LINE
8
BLACK
6
CONTINUOUS
10
108.4857439999999968
20
-77.4261599999999959
11
108.5256739999999951
21
-77.3862299999999976
0
LINE
8
BLACK
6
CONTINUOUS
10
108.5256739999999951
20
-77.3862299999999976
11
108.5694559999999882
21
-77.2986669999999947
0
LINE
8
BLACK
6
CONTINUOUS
10
108.5694559999999882
20
-77.2986669999999947
11
108.5694559999999882
21
-76.9912169999999918
0
LINE
8
BLACK
6
CONTINUOUS
10
108.5694559999999882
20
-76.9912169999999918
11
108.5256739999999951
21
-76.9036540000000031
0
LINE
8
BLACK
6
CONTINUOUS
10
108.5256739999999951
20
-76.9036540000000031
11
108.4857439999999968
21
-76.8637239999999906
0
LINE
8
BLACK
6
CONTINUOUS
10
108.4857439999999968
20
-76.8637239999999906
11
108.3981799999999964
21
-76.8199419999999975
0
LINE
8
BLACK
6
CONTINUOUS
10
108.3981799999999964
20
-76.8199419999999975
11
108.2621609999999919
21
-76.8199419999999975
0
LINE
8
BLACK
6
CONTINUOUS
10
108.2621609999999919
20
-76.8199419999999975
11
108.1745979999999889
21
-76.8637229999999931
0
LINE
8
BLACK
6
CONTINUOUS
10
109.5272509999999926
20
-76.6744649999999979
11
109.5306859999999887
21
-76.6773469999999975
0
LINE
8
BLACK
6
CONTINUOUS
10
109.5306859999999887
20
-76.6773469999999975
11
109.5351399999999984
21
-76.6778599999999955
0
LINE
8
BLACK
6
CONTINUOUS
10
109.5351399999999984
20
-76.6778599999999955
11
109.6494259999999912
21
-76.7350029999999919
0
LINE
8
BLACK
6
CONTINUOUS
10
109.6494259999999912
20
-76.7350029999999919
11
109.6703469999999925
21
-76.750520999999992
0
LINE
8
BLACK
6
CONTINUOUS
10
109.6703469999999925
20
-76.750520999999992
11
109.6748119999999886
21
-76.760823000000002
0
LINE
8
BLACK
6
CONTINUOUS
10
109.6748119999999886
20
-76.760823000000002
11
109.6829669999999908
21
-76.7685439999999915
0
LINE
8
BLACK
6
CONTINUOUS
10
109.6829669999999908
20
-76.7685439999999915
11
109.7401100000000014
21
-76.8828299999999984
0
LINE
8
BLACK
6
CONTINUOUS
10
109.7401100000000014
20
-76.8828299999999984
11
109.7475369999999941
21
-76.9077970000000022
0
LINE
8
BLACK
6
CONTINUOUS
10
109.7475369999999941
20
-76.9077970000000022
11
109.7464939999999984
21
-76.9121590000000026
0
LINE
8
BLACK
6
CONTINUOUS
10
109.7464939999999984
20
-76.9121590000000026
11
109.7480279999999908
21
-76.916370999999998
0
LINE
8
BLACK
6
CONTINUOUS
10
109.7480279999999908
20
-76.916370999999998
11
109.7480279999999908
21
-77.5449419999999918
0
LINE
8
BLACK
6
CONTINUOUS
10
109.7480279999999908
20
-77.5449419999999918
11
109.743504999999999
21
-77.5705939999999998
0
LINE
8
BLACK
6
CONTINUOUS
10
109.743504999999999
20
-77.5705939999999998
11
109.7105279999999965
21
-77.609893999999997
0
LINE
8
BLACK
6
CONTINUOUS
10
109.7105279999999965
20
-77.609893999999997
11
109.6600040000000007
21
-77.6188029999999998
0
LINE
8
BLACK
6
CONTINUOUS
10
109.6600040000000007
20
-77.6188029999999998
11
109.6222829999999959
21
-77.5970239999999905
0
LINE
8
BLACK
6
CONTINUOUS
10
109.6222829999999959
20
-77.5970239999999905
11
109.5922829999999948
21
-77.612023999999991
0
LINE
8
BLACK
6
CONTINUOUS
10
109.5922829999999948
20
-77.612023999999991
11
109.567315999999991
21
-77.619450999999998
0
LINE
8
BLACK
6
CONTINUOUS
10
109.567315999999991
20
-77.619450999999998
11
109.5629539999999906
21
-77.6184080000000023
0
LINE
8
BLACK
6
CONTINUOUS
10
109.5629539999999906
20
-77.6184080000000023
11
109.5587419999999952
21
-77.6199419999999947
0
LINE
8
BLACK
6
CONTINUOUS
10
109.5587419999999952
20
-77.6199419999999947
11
109.2730279999999965
21
-77.6199419999999947
0
LINE
8
BLACK
6
CONTINUOUS
10
109.2730279999999965
20
-77.6199419999999947
11
109.2473759999999885
21
-77.6154190000000028
0
LINE
8
BLACK
6
CONTINUOUS
10
109.2473759999999885
20
-77.6154190000000028
11
109.2439399999999949
21
-77.6125359999999915
0
LINE
8
BLACK
6
CONTINUOUS
10
109.2439399999999949
20
-77.6125359999999915
11
109.2394869999999969
21
-77.612023999999991
0
LINE
8
BLACK
6
CONTINUOUS
10
109.2394869999999969
20
-77.612023999999991
11
109.1252009999999899
21
-77.5548819999999921
0
LINE
8
BLACK
6
CONTINUOUS
10
109.1252009999999899
20
-77.5548819999999921
11
109.1042799999999886
21
-77.5393649999999894
0
LINE
8
BLACK
6
CONTINUOUS
10
109.1042799999999886
20
-77.5393649999999894
11
109.0998129999999975
21
-77.5290609999999987
0
LINE
8
BLACK
6
CONTINUOUS
10
109.0998129999999975
20
-77.5290609999999987
11
109.0916599999999903
21
-77.5213409999999925
0
LINE
8
BLACK
6
CONTINUOUS
10
109.0916599999999903
20
-77.5213409999999925
11
109.0345169999999939
21
-77.4070549999999997
0
LINE
8
BLACK
6
CONTINUOUS
10
109.0345169999999939
20
-77.4070549999999997
11
109.0270909999999986
21
-77.382087999999996
0
LINE
8
BLACK
6
CONTINUOUS
10
109.0270909999999986
20
-77.382087999999996
11
109.0281319999999994
21
-77.377726999999993
0
LINE
8
BLACK
6
CONTINUOUS
10
109.0281319999999994
20
-77.377726999999993
11
109.0265989999999903
21
-77.3735140000000001
0
LINE
8
BLACK
6
CONTINUOUS
10
109.0265989999999903
20
-77.3735140000000001
11
109.0265989999999903
21
-77.2592279999999931
0
LINE
8
BLACK
6
CONTINUOUS
10
109.0265989999999903
20
-77.2592279999999931
11
109.0311219999999963
21
-77.2335759999999993
0
LINE
8
BLACK
6
CONTINUOUS
10
109.0311219999999963
20
-77.2335759999999993
11
109.0340039999999959
21
-77.2301399999999916
0
LINE
8
BLACK
6
CONTINUOUS
10
109.0340039999999959
20
-77.2301399999999916
11
109.0345169999999939
21
-77.2256869999999935
0
LINE
8
BLACK
6
CONTINUOUS
10
109.0345169999999939
20
-77.2256869999999935
11
109.0916599999999903
21
-77.1114010000000007
0
LINE
8
BLACK
6
CONTINUOUS
10
109.0916599999999903
20
-77.1114010000000007
11
109.1071779999999904
21
-77.0904799999999994
0
LINE
8
BLACK
6
CONTINUOUS
10
109.1071779999999904
20
-77.0904799999999994
11
109.1174800000000005
21
-77.0860139999999916
0
LINE
8
BLACK
6
CONTINUOUS
10
109.1174800000000005
20
-77.0860139999999916
11
109.1252009999999899
21
-77.0778600000000012
0
LINE
8
BLACK
6
CONTINUOUS
10
109.1252009999999899
20
-77.0778600000000012
11
109.2394869999999969
21
-77.0207180000000022
0
LINE
8
BLACK
6
CONTINUOUS
10
109.2394869999999969
20
-77.0207180000000022
11
109.2644540000000006
21
-77.0132919999999928
0
LINE
8
BLACK
6
CONTINUOUS
10
109.2644540000000006
20
-77.0132919999999928
11
109.2688139999999919
21
-77.0143329999999935
0
LINE
8
BLACK
6
CONTINUOUS
10
109.2688139999999919
20
-77.0143329999999935
11
109.2730279999999965
21
-77.0127999999999986
0
LINE
8
BLACK
6
CONTINUOUS
10
109.2730279999999965
20
-77.0127999999999986
11
109.5410369999999887
21
-77.0127999999999986
0
LINE
8
BLACK
6
CONTINUOUS
10
109.5410369999999887
20
-77.0127999999999986
11
109.5980279999999993
21
-76.9843039999999945
0
LINE
8
BLACK
6
CONTINUOUS
10
109.5980279999999993
20
-76.9843039999999945
11
109.5980279999999993
21
-76.9340759999999904
0
LINE
8
BLACK
6
CONTINUOUS
10
109.5980279999999993
20
-76.9340759999999904
11
109.5599829999999884
21
-76.8579859999999968
0
LINE
8
BLACK
6
CONTINUOUS
10
109.5599829999999884
20
-76.8579859999999968
11
109.4838939999999923
21
-76.8199419999999975
0
LINE
8
BLACK
6
CONTINUOUS
10
109.4838939999999923
20
-76.8199419999999975
11
109.2907329999999888
21
-76.8199419999999975
0
LINE
8
BLACK
6
CONTINUOUS
10
109.2907329999999888
20
-76.8199419999999975
11
109.1922829999999891
21
-76.8691669999999903
0
LINE
8
BLACK
6
CONTINUOUS
10
109.1922829999999891
20
-76.8691669999999903
11
109.1673159999999996
21
-76.8765929999999997
0
LINE
8
BLACK
6
CONTINUOUS
10
109.1673159999999996
20
-76.8765929999999997
11
109.1174180000000007
21
-76.8646729999999963
0
LINE
8
BLACK
6
CONTINUOUS
10
109.1174180000000007
20
-76.8646729999999963
11
109.0868539999999882
21
-76.8234679999999912
0
LINE
8
BLACK
6
CONTINUOUS
10
109.0868539999999882
20
-76.8234679999999912
11
109.0899289999999979
21
-76.7722569999999962
0
LINE
8
BLACK
6
CONTINUOUS
10
109.0899289999999979
20
-76.7722569999999962
11
109.1252009999999899
21
-76.7350029999999919
0
LINE
8
BLACK
6
CONTINUOUS
10
109.1252009999999899
20
-76.7350029999999919
11
109.2394869999999969
21
-76.6778599999999955
0
LINE
8
BLACK
6
CONTINUOUS
10
109.2394869999999969
20
-76.6778599999999955
11
109.2644540000000006
21
-76.6704330000000027
0
LINE
8
BLACK
6
CONTINUOUS
10
109.2644540000000006
20
-76.6704330000000027
11
109.2688160000000011
21
-76.6714750000000009
0
LINE
8
BLACK
6
CONTINUOUS
10
109.2688160000000011
20
-76.6714750000000009
11
109.2730279999999965
21
-76.6699419999999918
0
LINE
8
BLACK
6
CONTINUOUS
10
109.2730279999999965
20
-76.6699419999999918
11
109.5015989999999988
21
-76.6699419999999918
0
LINE
8
BLACK
6
CONTINUOUS
10
109.5015989999999988
20
-76.6699419999999918
11
109.5272509999999926
21
-76.6744649999999979
0
LINE
8
BLACK
6
CONTINUOUS
10
109.5922829999999948
20
-77.1548820000000006
11
109.567315999999991
21
-77.1623079999999959
0
LINE
8
BLACK
6
CONTINUOUS
10
109.567315999999991
20
-77.1623079999999959
11
109.5629549999999881
21
-77.1612659999999977
0
LINE
8
BLACK
6
CONTINUOUS
10
109.5629549999999881
20
-77.1612659999999977
11
109.5587419999999952
21
-77.1627999999999901
0
LINE
8
BLACK
6
CONTINUOUS
10
109.5587419999999952
20
-77.1627999999999901
11
109.2907319999999913
21
-77.1627999999999901
0
LINE
8
BLACK
6
CONTINUOUS
10
109.2907319999999913
20
-77.1627999999999901
11
109.2146429999999953
21
-77.2008429999999919
0
LINE
8
BLACK
6
CONTINUOUS
10
109.2146429999999953
20
-77.2008429999999919
11
109.176598999999996
21
-77.2769329999999997
0
LINE
8
BLACK
6
CONTINUOUS
10
109.176598999999996
20
-77.2769329999999997
11
109.176598999999996
21
-77.3558089999999936
0
LINE
8
BLACK
6
CONTINUOUS
10
109.176598999999996
20
-77.3558089999999936
11
109.2146429999999953
21
-77.4318979999999897
0
LINE
8
BLACK
6
CONTINUOUS
10
109.2146429999999953
20
-77.4318979999999897
11
109.2907319999999913
21
-77.4699420000000032
0
LINE
8
BLACK
6
CONTINUOUS
10
109.2907319999999913
20
-77.4699420000000032
11
109.5410369999999887
21
-77.4699420000000032
0
LINE
8
BLACK
6
CONTINUOUS
10
109.5410369999999887
20
-77.4699420000000032
11
109.5980279999999993
21
-77.4414469999999966
0
LINE
8
BLACK
6
CONTINUOUS
10
109.5980279999999993
20
-77.4414469999999966
11
109.5980279999999993
21
-77.1520089999999925
0
LINE
8
BLACK
6
CONTINUOUS
10
109.5980279999999993
20
-77.1520089999999925
11
109.5922829999999948
21
-77.1548820000000006
0
LINE
8
BLACK
6
CONTINUOUS
10
111.5590519999999941
20
-76.2967330000000032
11
111.5765990000000016
21
-76.3449420000000032
0
LINE
8
BLACK
6
CONTINUOUS
10
111.5765990000000016
20
-76.3449420000000032
11
111.5765990000000016
21
-77.5449419999999918
0
LINE
8
BLACK
6
CONTINUOUS
10
111.5765990000000016
20
-77.5449419999999918
11
111.5720759999999956
21
-77.5705939999999998
0
LINE
8
BLACK
6
CONTINUOUS
10
111.5720759999999956
20
-77.5705939999999998
11
111.5390989999999931
21
-77.609893999999997
0
LINE
8
BLACK
6
CONTINUOUS
10
111.5390989999999931
20
-77.609893999999997
11
111.4885749999999973
21
-77.6188029999999998
0
LINE
8
BLACK
6
CONTINUOUS
10
111.4885749999999973
20
-77.6188029999999998
11
111.4508539999999925
21
-77.5970239999999905
0
LINE
8
BLACK
6
CONTINUOUS
10
111.4508539999999925
20
-77.5970239999999905
11
111.4208539999999914
21
-77.612023999999991
0
LINE
8
BLACK
6
CONTINUOUS
10
111.4208539999999914
20
-77.612023999999991
11
111.3958870000000019
21
-77.619450999999998
0
LINE
8
BLACK
6
CONTINUOUS
10
111.3958870000000019
20
-77.619450999999998
11
111.3915250000000015
21
-77.6184080000000023
0
LINE
8
BLACK
6
CONTINUOUS
10
111.3915250000000015
20
-77.6184080000000023
11
111.3873129999999918
21
-77.6199419999999947
0
LINE
8
BLACK
6
CONTINUOUS
10
111.3873129999999918
20
-77.6199419999999947
11
111.158740999999992
21
-77.6199419999999947
0
LINE
8
BLACK
6
CONTINUOUS
10
111.158740999999992
20
-77.6199419999999947
11
111.1330889999999982
21
-77.6154190000000028
0
LINE
8
BLACK
6
CONTINUOUS
10
111.1330889999999982
20
-77.6154190000000028
11
111.1296529999999905
21
-77.6125359999999915
0
LINE
8
BLACK
6
CONTINUOUS
10
111.1296529999999905
20
-77.6125359999999915
11
111.1251999999999924
21
-77.612023999999991
0
LINE
8
BLACK
6
CONTINUOUS
10
111.1251999999999924
20
-77.612023999999991
11
111.0109149999999971
21
-77.5548819999999921
0
LINE
8
BLACK
6
CONTINUOUS
10
111.0109149999999971
20
-77.5548819999999921
11
110.9929039999999958
21
-77.5415239999999955
0
LINE
8
BLACK
6
CONTINUOUS
10
110.9929039999999958
20
-77.5415239999999955
11
110.9914229999999975
21
-77.5408329999999921
0
LINE
8
BLACK
6
CONTINUOUS
10
110.9914229999999975
20
-77.5408329999999921
11
110.9342800000000011
21
-77.4836899999999957
0
LINE
8
BLACK
6
CONTINUOUS
10
110.9342800000000011
20
-77.4836899999999957
11
110.9214199999999977
21
-77.4653239999999954
0
LINE
8
BLACK
6
CONTINUOUS
10
110.9214199999999977
20
-77.4653239999999954
11
110.9202310000000011
21
-77.4641979999999961
0
LINE
8
BLACK
6
CONTINUOUS
10
110.9202310000000011
20
-77.4641979999999961
11
110.8630879999999905
21
-77.3499120000000033
0
LINE
8
BLACK
6
CONTINUOUS
10
110.8630879999999905
20
-77.3499120000000033
11
110.8556619999999953
21
-77.3249449999999996
0
LINE
8
BLACK
6
CONTINUOUS
10
110.8556619999999953
20
-77.3249449999999996
11
110.856702999999996
21
-77.3205839999999966
0
LINE
8
BLACK
6
CONTINUOUS
10
110.856702999999996
20
-77.3205839999999966
11
110.8551700000000011
21
-77.3163709999999895
0
LINE
8
BLACK
6
CONTINUOUS
10
110.8551700000000011
20
-77.3163709999999895
11
110.8551700000000011
21
-76.9735139999999944
0
LINE
8
BLACK
6
CONTINUOUS
10
110.8551700000000011
20
-76.9735139999999944
11
110.8596929999999929
21
-76.9478620000000006
0
LINE
8
BLACK
6
CONTINUOUS
10
110.8596929999999929
20
-76.9478620000000006
11
110.8625749999999925
21
-76.9444259999999929
0
LINE
8
BLACK
6
CONTINUOUS
10
110.8625749999999925
20
-76.9444259999999929
11
110.8630879999999905
21
-76.9399729999999948
0
LINE
8
BLACK
6
CONTINUOUS
10
110.8630879999999905
20
-76.9399729999999948
11
110.9202310000000011
21
-76.8256870000000021
0
LINE
8
BLACK
6
CONTINUOUS
10
110.9202310000000011
20
-76.8256870000000021
11
110.9335869999999886
21
-76.8076789999999932
0
LINE
8
BLACK
6
CONTINUOUS
10
110.9335869999999886
20
-76.8076789999999932
11
110.9342800000000011
21
-76.8061950000000024
0
LINE
8
BLACK
6
CONTINUOUS
10
110.9342800000000011
20
-76.8061950000000024
11
110.9914229999999975
21
-76.7490519999999918
0
LINE
8
BLACK
6
CONTINUOUS
10
110.9914229999999975
20
-76.7490519999999918
11
111.0097889999999978
21
-76.7361920000000026
0
LINE
8
BLACK
6
CONTINUOUS
10
111.0097889999999978
20
-76.7361920000000026
11
111.0109149999999971
21
-76.7350029999999919
0
LINE
8
BLACK
6
CONTINUOUS
10
111.0109149999999971
20
-76.7350029999999919
11
111.1251999999999924
21
-76.6778599999999955
0
LINE
8
BLACK
6
CONTINUOUS
10
111.1251999999999924
20
-76.6778599999999955
11
111.1501669999999962
21
-76.6704330000000027
0
LINE
8
BLACK
6
CONTINUOUS
10
111.1501669999999962
20
-76.6704330000000027
11
111.1545289999999966
21
-76.6714750000000009
0
LINE
8
BLACK
6
CONTINUOUS
10
111.1545289999999966
20
-76.6714750000000009
11
111.158740999999992
21
-76.6699419999999918
0
LINE
8
BLACK
6
CONTINUOUS
10
111.158740999999992
20
-76.6699419999999918
11
111.3873129999999918
21
-76.6699419999999918
0
LINE
8
BLACK
6
CONTINUOUS
10
111.3873129999999918
20
-76.6699419999999918
11
111.4129649999999998
21
-76.6744649999999979
0
LINE
8
BLACK
6
CONTINUOUS
10
111.4129649999999998
20
-76.6744649999999979
11
111.4163999999999959
21
-76.6773469999999975
0
LINE
8
BLACK
6
CONTINUOUS
10
111.4163999999999959
20
-76.6773469999999975
11
111.4208539999999914
21
-76.6778599999999955
0
LINE
8
BLACK
6
CONTINUOUS
10
111.4208539999999914
20
-76.6778599999999955
11
111.426598999999996
21
-76.6807319999999919
0
LINE
8
BLACK
6
CONTINUOUS
10
111.426598999999996
20
-76.6807319999999919
11
111.426598999999996
21
-76.3449420000000032
0
LINE
8
BLACK
6
CONTINUOUS
10
111.426598999999996
20
-76.3449420000000032
11
111.431122000000002
21
-76.3192899999999952
0
LINE
8
BLACK
6
CONTINUOUS
10
111.431122000000002
20
-76.3192899999999952
11
111.4640989999999903
21
-76.279989999999998
0
LINE
8
BLACK
6
CONTINUOUS
10
111.4640989999999903
20
-76.279989999999998
11
111.5146230000000003
21
-76.2710809999999952
0
LINE
8
BLACK
6
CONTINUOUS
10
111.5146230000000003
20
-76.2710809999999952
11
111.5590519999999941
21
-76.2967330000000032
0
LINE
8
BLACK
6
CONTINUOUS
10
111.0888829999999956
20
-76.8637229999999931
11
111.0489519999999999
21
-76.9036550000000005
0
LINE
8
BLACK
6
CONTINUOUS
10
111.0489519999999999
20
-76.9036550000000005
11
111.0051699999999926
21
-76.991219000000001
0
LINE
8
BLACK
6
CONTINUOUS
10
111.0051699999999926
20
-76.991219000000001
11
111.0051699999999926
21
-77.2986659999999972
0
LINE
8
BLACK
6
CONTINUOUS
10
111.0051699999999926
20
-77.2986659999999972
11
111.0489519999999999
21
-77.3862299999999976
0
LINE
8
BLACK
6
CONTINUOUS
10
111.0489519999999999
20
-77.3862299999999976
11
111.0888819999999981
21
-77.4261599999999959
0
LINE
8
BLACK
6
CONTINUOUS
10
111.0888819999999981
20
-77.4261599999999959
11
111.1764459999999985
21
-77.4699420000000032
0
LINE
8
BLACK
6
CONTINUOUS
10
111.1764459999999985
20
-77.4699420000000032
11
111.3696079999999995
21
-77.4699420000000032
0
LINE
8
BLACK
6
CONTINUOUS
10
111.3696079999999995
20
-77.4699420000000032
11
111.426598999999996
21
-77.4414469999999966
0
LINE
8
BLACK
6
CONTINUOUS
10
111.426598999999996
20
-77.4414469999999966
11
111.426598999999996
21
-76.8484369999999899
0
LINE
8
BLACK
6
CONTINUOUS
10
111.426598999999996
20
-76.8484369999999899
11
111.3696079999999995
21
-76.8199419999999975
0
LINE
8
BLACK
6
CONTINUOUS
10
111.3696079999999995
20
-76.8199419999999975
11
111.1764459999999985
21
-76.8199419999999975
0
LINE
8
BLACK
6
CONTINUOUS
10
111.1764459999999985
20
-76.8199419999999975
11
111.0888829999999956
21
-76.8637229999999931
0
LINE
8
BLACK
6
CONTINUOUS
10
92.5808150000000012
20
-76.2896209999999968
11
92.6045259999999928
21
-76.3351150000000018
0
LINE
8
BLACK
6
CONTINUOUS
10
92.6045259999999928
20
-76.3351150000000018
11
92.5934479999999951
21
-76.3852079999999916
0
LINE
8
BLACK
6
CONTINUOUS
10
92.5934479999999951
20
-76.3852079999999916
11
92.205173000000002
21
-76.9953539999999919
0
LINE
8
BLACK
6
CONTINUOUS
10
92.205173000000002
20
-76.9953539999999919
11
92.205173000000002
21
-77.5449419999999918
0
LINE
8
BLACK
6
CONTINUOUS
10
92.205173000000002
20
-77.5449419999999918
11
92.200649999999996
21
-77.5705939999999998
0
LINE
8
BLACK
6
CONTINUOUS
10
92.200649999999996
20
-77.5705939999999998
11
92.1676729999999935
21
-77.609893999999997
0
LINE
8
BLACK
6
CONTINUOUS
10
92.1676729999999935
20
-77.609893999999997
11
92.1171489999999977
21
-77.6188029999999998
0
LINE
8
BLACK
6
CONTINUOUS
10
92.1171489999999977
20
-77.6188029999999998
11
92.0727199999999897
21
-77.5931509999999918
0
LINE
8
BLACK
6
CONTINUOUS
10
92.0727199999999897
20
-77.5931509999999918
11
92.0551729999999964
21
-77.5449419999999918
0
LINE
8
BLACK
6
CONTINUOUS
10
92.0551729999999964
20
-77.5449419999999918
11
92.0551729999999964
21
-76.9953539999999919
0
LINE
8
BLACK
6
CONTINUOUS
10
92.0551729999999964
20
-76.9953539999999919
11
91.6668979999999891
21
-76.3852079999999916
0
LINE
8
BLACK
6
CONTINUOUS
10
91.6668979999999891
20
-76.3852079999999916
11
91.6569420000000008
21
-76.3611379999999969
0
LINE
8
BLACK
6
CONTINUOUS
10
91.6569420000000008
20
-76.3611379999999969
11
91.6636649999999946
21
-76.3102769999999992
0
LINE
8
BLACK
6
CONTINUOUS
10
91.6636649999999946
20
-76.3102769999999992
11
91.7015069999999923
21
-76.2756359999999916
0
LINE
8
BLACK
6
CONTINUOUS
10
91.7015069999999923
20
-76.2756359999999916
11
91.7527619999999899
21
-76.2734250000000031
0
LINE
8
BLACK
6
CONTINUOUS
10
91.7527619999999899
20
-76.2734250000000031
11
91.7934479999999979
21
-76.3046760000000006
0
LINE
8
BLACK
6
CONTINUOUS
10
91.7934479999999979
20
-76.3046760000000006
11
92.1301729999999992
21
-76.8338150000000013
0
LINE
8
BLACK
6
CONTINUOUS
10
92.1301729999999992
20
-76.8338150000000013
11
92.4668980000000005
21
-76.3046769999999981
0
LINE
8
BLACK
6
CONTINUOUS
10
92.4668980000000005
20
-76.3046769999999981
11
92.4844859999999898
21
-76.2854629999999929
0
LINE
8
BLACK
6
CONTINUOUS
10
92.4844859999999898
20
-76.2854629999999929
11
92.5334069999999969
21
-76.2700119999999941
0
LINE
8
BLACK
6
CONTINUOUS
10
92.5334069999999969
20
-76.2700119999999941
11
92.5808150000000012
21
-76.2896209999999968
0
LINE
8
BLACK
6
CONTINUOUS
10
94.6476189999999917
20
-76.2728199999999958
11
94.6574829999999992
21
-76.2710809999999952
0
LINE
8
BLACK
6
CONTINUOUS
10
94.6574829999999992
20
-76.2710809999999952
11
94.6716699999999918
21
-76.2792719999999917
0
LINE
8
BLACK
6
CONTINUOUS
10
94.6716699999999918
20
-76.2792719999999917
11
94.6874959999999959
21
-76.2835180000000008
0
LINE
8
BLACK
6
CONTINUOUS
10
94.6874959999999959
20
-76.2835180000000008
11
94.6932389999999913
21
-76.2917249999999996
0
LINE
8
BLACK
6
CONTINUOUS
10
94.6932389999999913
20
-76.2917249999999996
11
94.701911999999993
21
-76.2967330000000032
0
LINE
8
BLACK
6
CONTINUOUS
10
94.701911999999993
20
-76.2967330000000032
11
94.7075150000000008
21
-76.3121269999999896
0
LINE
8
BLACK
6
CONTINUOUS
10
94.7075150000000008
20
-76.3121269999999896
11
94.7169090000000011
21
-76.3255520000000018
0
LINE
8
BLACK
6
CONTINUOUS
10
94.7169090000000011
20
-76.3255520000000018
11
94.7160329999999959
21
-76.335528999999994
0
LINE
8
BLACK
6
CONTINUOUS
10
94.7160329999999959
20
-76.335528999999994
11
94.7194590000000005
21
-76.3449420000000032
0
LINE
8
BLACK
6
CONTINUOUS
10
94.7194590000000005
20
-76.3449420000000032
11
94.7194590000000005
21
-77.5449419999999918
0
LINE
8
BLACK
6
CONTINUOUS
10
94.7194590000000005
20
-77.5449419999999918
11
94.7149359999999945
21
-77.5705939999999998
0
LINE
8
BLACK
6
CONTINUOUS
10
94.7149359999999945
20
-77.5705939999999998
11
94.681958999999992
21
-77.609893999999997
0
LINE
8
BLACK
6
CONTINUOUS
10
94.681958999999992
20
-77.609893999999997
11
94.6314349999999962
21
-77.6188029999999998
0
LINE
8
BLACK
6
CONTINUOUS
10
94.6314349999999962
20
-77.6188029999999998
11
94.5870060000000024
21
-77.5931509999999918
0
LINE
8
BLACK
6
CONTINUOUS
10
94.5870060000000024
20
-77.5931509999999918
11
94.5694589999999948
21
-77.5449419999999918
0
LINE
8
BLACK
6
CONTINUOUS
10
94.5694589999999948
20
-77.5449419999999918
11
94.5694589999999948
21
-76.6830089999999984
0
LINE
8
BLACK
6
CONTINUOUS
10
94.5694589999999948
20
-76.6830089999999984
11
94.3124229999999955
21
-77.2338009999999997
0
LINE
8
BLACK
6
CONTINUOUS
10
94.3124229999999955
20
-77.2338009999999997
11
94.3067669999999936
21
-77.2418720000000008
0
LINE
8
BLACK
6
CONTINUOUS
10
94.3067669999999936
20
-77.2418720000000008
11
94.3059080000000023
21
-77.2450850000000031
0
LINE
8
BLACK
6
CONTINUOUS
10
94.3059080000000023
20
-77.2450850000000031
11
94.303174999999996
21
-77.2469990000000024
0
LINE
8
BLACK
6
CONTINUOUS
10
94.303174999999996
20
-77.2469990000000024
11
94.297475999999989
21
-77.2551339999999982
0
LINE
8
BLACK
6
CONTINUOUS
10
94.297475999999989
20
-77.2551339999999982
11
94.2798339999999939
21
-77.2633529999999951
0
LINE
8
BLACK
6
CONTINUOUS
10
94.2798339999999939
20
-77.2633529999999951
11
94.2638919999999985
21
-77.274524999999997
0
LINE
8
BLACK
6
CONTINUOUS
10
94.2638919999999985
20
-77.274524999999997
11
94.257126999999997
21
-77.273933999999997
0
LINE
8
BLACK
6
CONTINUOUS
10
94.257126999999997
20
-77.273933999999997
11
94.2509739999999994
21
-77.2768020000000035
0
LINE
8
BLACK
6
CONTINUOUS
10
94.2509739999999994
20
-77.2768020000000035
11
94.2321719999999914
21
-77.2717579999999913
0
LINE
8
BLACK
6
CONTINUOUS
10
94.2321719999999914
20
-77.2717579999999913
11
94.2127830000000017
21
-77.2700669999999974
0
LINE
8
BLACK
6
CONTINUOUS
10
94.2127830000000017
20
-77.2700669999999974
11
94.2079809999999895
21
-77.2652679999999918
0
LINE
8
BLACK
6
CONTINUOUS
10
94.2079809999999895
20
-77.2652679999999918
11
94.2014219999999938
21
-77.2635089999999991
0
LINE
8
BLACK
6
CONTINUOUS
10
94.2014219999999938
20
-77.2635089999999991
11
94.190259999999995
21
-77.2475579999999979
0
LINE
8
BLACK
6
CONTINUOUS
10
94.190259999999995
20
-77.2475579999999979
11
94.1764950000000027
21
-77.2338019999999972
0
LINE
8
BLACK
6
CONTINUOUS
10
94.1764950000000027
20
-77.2338019999999972
11
93.9194589999999891
21
-76.6830089999999984
0
LINE
8
BLACK
6
CONTINUOUS
10
93.9194589999999891
20
-76.6830089999999984
11
93.9194589999999891
21
-77.5449419999999918
0
LINE
8
BLACK
6
CONTINUOUS
10
93.9194589999999891
20
-77.5449419999999918
11
93.9149359999999973
21
-77.5705939999999998
0
LINE
8
BLACK
6
CONTINUOUS
10
93.9149359999999973
20
-77.5705939999999998
11
93.8819589999999948
21
-77.609893999999997
0
LINE
8
BLACK
6
CONTINUOUS
10
93.8819589999999948
20
-77.609893999999997
11
93.831434999999999
21
-77.6188029999999998
0
LINE
8
BLACK
6
CONTINUOUS
10
93.831434999999999
20
-77.6188029999999998
11
93.787005999999991
21
-77.5931509999999918
0
LINE
8
BLACK
6
CONTINUOUS
10
93.787005999999991
20
-77.5931509999999918
11
93.7694589999999977
21
-77.5449419999999918
0
LINE
8
BLACK
6
CONTINUOUS
10
93.7694589999999977
20
-77.5449419999999918
11
93.7694589999999977
21
-76.3449420000000032
0
LINE
8
BLACK
6
CONTINUOUS
10
93.7694589999999977
20
-76.3449420000000032
11
93.7739819999999895
21
-76.3192899999999952
0
LINE
8
BLACK
6
CONTINUOUS
10
93.7739819999999895
20
-76.3192899999999952
11
93.7804199999999923
21
-76.3116160000000008
0
LINE
8
BLACK
6
CONTINUOUS
10
93.7804199999999923
20
-76.3116160000000008
11
93.7830099999999902
21
-76.3019419999999968
0
LINE
8
BLACK
6
CONTINUOUS
10
93.7830099999999902
20
-76.3019419999999968
11
93.7964269999999942
21
-76.2925400000000025
0
LINE
8
BLACK
6
CONTINUOUS
10
93.7964269999999942
20
-76.2925400000000025
11
93.806958999999992
21
-76.279989999999998
0
LINE
8
BLACK
6
CONTINUOUS
10
93.806958999999992
20
-76.279989999999998
11
93.8168220000000019
21
-76.2782499999999999
0
LINE
8
BLACK
6
CONTINUOUS
10
93.8168220000000019
20
-76.2782499999999999
11
93.825025999999994
21
-76.2725030000000004
0
LINE
8
BLACK
6
CONTINUOUS
10
93.825025999999994
20
-76.2725030000000004
11
93.841346999999999
21
-76.273926000000003
0
LINE
8
BLACK
6
CONTINUOUS
10
93.841346999999999
20
-76.273926000000003
11
93.857483000000002
21
-76.2710809999999952
0
LINE
8
BLACK
6
CONTINUOUS
10
93.857483000000002
20
-76.2710809999999952
11
93.8661579999999987
21
-76.2760889999999989
0
LINE
8
BLACK
6
CONTINUOUS
10
93.8661579999999987
20
-76.2760889999999989
11
93.8761349999999908
21
-76.2769600000000025
0
LINE
8
BLACK
6
CONTINUOUS
10
93.8761349999999908
20
-76.2769600000000025
11
93.8877219999999966
21
-76.2885399999999976
0
LINE
8
BLACK
6
CONTINUOUS
10
93.8877219999999966
20
-76.2885399999999976
11
93.9019119999999958
21
-76.2967330000000032
0
LINE
8
BLACK
6
CONTINUOUS
10
93.9019119999999958
20
-76.2967330000000032
11
93.9053369999999887
21
-76.3061450000000008
0
LINE
8
BLACK
6
CONTINUOUS
10
93.9053369999999887
20
-76.3061450000000008
11
93.9124229999999898
21
-76.3132260000000002
0
LINE
8
BLACK
6
CONTINUOUS
10
93.9124229999999898
20
-76.3132260000000002
11
94.2444579999999945
21
-77.0247310000000027
0
LINE
8
BLACK
6
CONTINUOUS
10
94.2444579999999945
20
-77.0247310000000027
11
94.5764949999999942
21
-76.3132250000000028
0
LINE
8
BLACK
6
CONTINUOUS
10
94.5764949999999942
20
-76.3132250000000028
11
94.5914420000000007
21
-76.2918930000000017
0
LINE
8
BLACK
6
CONTINUOUS
10
94.5914420000000007
20
-76.2918930000000017
11
94.6005199999999888
21
-76.2876619999999974
0
LINE
8
BLACK
6
CONTINUOUS
10
94.6005199999999888
20
-76.2876619999999974
11
94.6069589999999891
21
-76.279989999999998
0
LINE
8
BLACK
6
CONTINUOUS
10
94.6069589999999891
20
-76.279989999999998
11
94.6230929999999972
21
-76.2771439999999927
0
LINE
8
BLACK
6
CONTINUOUS
10
94.6230929999999972
20
-76.2771439999999927
11
94.637945000000002
21
-76.2702249999999964
0
LINE
8
BLACK
6
CONTINUOUS
10
94.637945000000002
20
-76.2702249999999964
11
94.6476189999999917
21
-76.2728199999999958
0
LINE
8
BLACK
6
CONTINUOUS
10
97.7558250000000015
20
-76.6744649999999979
11
97.7592599999999976
21
-76.6773469999999975
0
LINE
8
BLACK
6
CONTINUOUS
10
97.7592599999999976
20
-76.6773469999999975
11
97.7637139999999931
21
-76.6778599999999955
0
LINE
8
BLACK
6
CONTINUOUS
10
97.7637139999999931
20
-76.6778599999999955
11
97.8780000000000001
21
-76.7350029999999919
0
LINE
8
BLACK
6
CONTINUOUS
10
97.8780000000000001
20
-76.7350029999999919
11
97.8989210000000014
21
-76.750520999999992
0
LINE
8
BLACK
6
CONTINUOUS
10
97.8989210000000014
20
-76.750520999999992
11
97.9033859999999976
21
-76.760823000000002
0
LINE
8
BLACK
6
CONTINUOUS
10
97.9033859999999976
20
-76.760823000000002
11
97.9115409999999997
21
-76.7685439999999915
0
LINE
8
BLACK
6
CONTINUOUS
10
97.9115409999999997
20
-76.7685439999999915
11
97.9686839999999961
21
-76.8828299999999984
0
LINE
8
BLACK
6
CONTINUOUS
10
97.9686839999999961
20
-76.8828299999999984
11
97.9761109999999888
21
-76.9077970000000022
0
LINE
8
BLACK
6
CONTINUOUS
10
97.9761109999999888
20
-76.9077970000000022
11
97.9750679999999932
21
-76.9121590000000026
0
LINE
8
BLACK
6
CONTINUOUS
10
97.9750679999999932
20
-76.9121590000000026
11
97.9766019999999997
21
-76.916370999999998
0
LINE
8
BLACK
6
CONTINUOUS
10
97.9766019999999997
20
-76.916370999999998
11
97.9766019999999997
21
-77.5449419999999918
0
LINE
8
BLACK
6
CONTINUOUS
10
97.9766019999999997
20
-77.5449419999999918
11
97.9720789999999937
21
-77.5705939999999998
0
LINE
8
BLACK
6
CONTINUOUS
10
97.9720789999999937
20
-77.5705939999999998
11
97.9391019999999912
21
-77.609893999999997
0
LINE
8
BLACK
6
CONTINUOUS
10
97.9391019999999912
20
-77.609893999999997
11
97.8885779999999954
21
-77.6188029999999998
0
LINE
8
BLACK
6
CONTINUOUS
10
97.8885779999999954
20
-77.6188029999999998
11
97.8441490000000016
21
-77.5931509999999918
0
LINE
8
BLACK
6
CONTINUOUS
10
97.8441490000000016
20
-77.5931509999999918
11
97.8266019999999941
21
-77.5449419999999918
0
LINE
8
BLACK
6
CONTINUOUS
10
97.8266019999999941
20
-77.5449419999999918
11
97.8266019999999941
21
-76.9340759999999904
0
LINE
8
BLACK
6
CONTINUOUS
10
97.8266019999999941
20
-76.9340759999999904
11
97.7885569999999973
21
-76.8579859999999968
0
LINE
8
BLACK
6
CONTINUOUS
10
97.7885569999999973
20
-76.8579859999999968
11
97.7124680000000012
21
-76.8199419999999975
0
LINE
8
BLACK
6
CONTINUOUS
10
97.7124680000000012
20
-76.8199419999999975
11
97.5764489999999967
21
-76.8199419999999975
0
LINE
8
BLACK
6
CONTINUOUS
10
97.5764489999999967
20
-76.8199419999999975
11
97.4888859999999937
21
-76.8637229999999931
0
LINE
8
BLACK
6
CONTINUOUS
10
97.4888859999999937
20
-76.8637229999999931
11
97.4623160000000013
21
-76.8902939999999973
0
LINE
8
BLACK
6
CONTINUOUS
10
97.4623160000000013
20
-76.8902939999999973
11
97.4623160000000013
21
-77.5449419999999918
0
LINE
8
BLACK
6
CONTINUOUS
10
97.4623160000000013
20
-77.5449419999999918
11
97.4577929999999952
21
-77.5705939999999998
0
LINE
8
BLACK
6
CONTINUOUS
10
97.4577929999999952
20
-77.5705939999999998
11
97.4248159999999928
21
-77.609893999999997
0
LINE
8
BLACK
6
CONTINUOUS
10
97.4248159999999928
20
-77.609893999999997
11
97.374291999999997
21
-77.6188029999999998
0
LINE
8
BLACK
6
CONTINUOUS
10
97.374291999999997
20
-77.6188029999999998
11
97.3298629999999889
21
-77.5931509999999918
0
LINE
8
BLACK
6
CONTINUOUS
10
97.3298629999999889
20
-77.5931509999999918
11
97.3123159999999956
21
-77.5449419999999918
0
LINE
8
BLACK
6
CONTINUOUS
10
97.3123159999999956
20
-77.5449419999999918
11
97.3123159999999956
21
-76.7449419999999947
0
LINE
8
BLACK
6
CONTINUOUS
10
97.3123159999999956
20
-76.7449419999999947
11
97.3168390000000016
21
-76.7192900000000009
0
LINE
8
BLACK
6
CONTINUOUS
10
97.3168390000000016
20
-76.7192900000000009
11
97.3498159999999899
21
-76.6799899999999894
0
LINE
8
BLACK
6
CONTINUOUS
10
97.3498159999999899
20
-76.6799899999999894
11
97.4003399999999999
21
-76.6710810000000009
0
LINE
8
BLACK
6
CONTINUOUS
10
97.4003399999999999
20
-76.6710810000000009
11
97.4447689999999938
21
-76.6967329999999947
0
LINE
8
BLACK
6
CONTINUOUS
10
97.4447689999999938
20
-76.6967329999999947
11
97.4513409999999993
21
-76.7147899999999936
0
LINE
8
BLACK
6
CONTINUOUS
10
97.4513409999999993
20
-76.7147899999999936
11
97.5252029999999905
21
-76.6778599999999955
0
LINE
8
BLACK
6
CONTINUOUS
10
97.5252029999999905
20
-76.6778599999999955
11
97.5501699999999943
21
-76.6704330000000027
0
LINE
8
BLACK
6
CONTINUOUS
10
97.5501699999999943
20
-76.6704330000000027
11
97.5545319999999947
21
-76.6714750000000009
0
LINE
8
BLACK
6
CONTINUOUS
10
97.5545319999999947
20
-76.6714750000000009
11
97.5587439999999901
21
-76.6699419999999918
0
LINE
8
BLACK
6
CONTINUOUS
10
97.5587439999999901
20
-76.6699419999999918
11
97.7301729999999935
21
-76.6699419999999918
0
LINE
8
BLACK
6
CONTINUOUS
10
97.7301729999999935
20
-76.6699419999999918
11
97.7558250000000015
21
-76.6744649999999979
0
LINE
8
BLACK
6
CONTINUOUS
10
101.6415379999999971
20
-76.6744649999999979
11
101.6808379999999943
21
-76.7074420000000003
0
LINE
8
BLACK
6
CONTINUOUS
10
101.6808379999999943
20
-76.7074420000000003
11
101.689746999999997
21
-76.7579659999999961
0
LINE
8
BLACK
6
CONTINUOUS
10
101.689746999999997
20
-76.7579659999999961
11
101.664094999999989
21
-76.80239499999999
0
LINE
8
BLACK
6
CONTINUOUS
10
101.664094999999989
20
-76.80239499999999
11
101.6158859999999891
21
-76.8199419999999975
0
LINE
8
BLACK
6
CONTINUOUS
10
101.6158859999999891
20
-76.8199419999999975
11
101.5193049999999886
21
-76.8199419999999975
0
LINE
8
BLACK
6
CONTINUOUS
10
101.5193049999999886
20
-76.8199419999999975
11
101.4317419999999998
21
-76.8637229999999931
0
LINE
8
BLACK
6
CONTINUOUS
10
101.4317419999999998
20
-76.8637229999999931
11
101.3918109999999899
21
-76.9036550000000005
0
LINE
8
BLACK
6
CONTINUOUS
10
101.3918109999999899
20
-76.9036550000000005
11
101.3480289999999968
21
-76.991219000000001
0
LINE
8
BLACK
6
CONTINUOUS
10
101.3480289999999968
20
-76.991219000000001
11
101.3480289999999968
21
-77.5449419999999918
0
LINE
8
BLACK
6
CONTINUOUS
10
101.3480289999999968
20
-77.5449419999999918
11
101.3435059999999908
21
-77.5705939999999998
0
LINE
8
BLACK
6
CONTINUOUS
10
101.3435059999999908
20
-77.5705939999999998
11
101.3105290000000025
21
-77.609893999999997
0
LINE
8
BLACK
6
CONTINUOUS
10
101.3105290000000025
20
-77.609893999999997
11
101.2600049999999925
21
-77.6188029999999998
0
LINE
8
BLACK
6
CONTINUOUS
10
101.2600049999999925
20
-77.6188029999999998
11
101.2155759999999987
21
-77.5931509999999918
0
LINE
8
BLACK
6
CONTINUOUS
10
101.2155759999999987
20
-77.5931509999999918
11
101.1980289999999911
21
-77.5449419999999918
0
LINE
8
BLACK
6
CONTINUOUS
10
101.1980289999999911
20
-77.5449419999999918
11
101.1980289999999911
21
-76.7449419999999947
0
LINE
8
BLACK
6
CONTINUOUS
10
101.1980289999999911
20
-76.7449419999999947
11
101.2025519999999972
21
-76.7192900000000009
0
LINE
8
BLACK
6
CONTINUOUS
10
101.2025519999999972
20
-76.7192900000000009
11
101.2355289999999997
21
-76.6799899999999894
0
LINE
8
BLACK
6
CONTINUOUS
10
101.2355289999999997
20
-76.6799899999999894
11
101.2860529999999954
21
-76.6710810000000009
0
LINE
8
BLACK
6
CONTINUOUS
10
101.2860529999999954
20
-76.6710810000000009
11
101.3304819999999893
21
-76.6967329999999947
0
LINE
8
BLACK
6
CONTINUOUS
10
101.3304819999999893
20
-76.6967329999999947
11
101.3464290000000005
21
-76.7405459999999948
0
LINE
8
BLACK
6
CONTINUOUS
10
101.3464290000000005
20
-76.7405459999999948
11
101.3526480000000021
21
-76.7361920000000026
0
LINE
8
BLACK
6
CONTINUOUS
10
101.3526480000000021
20
-76.7361920000000026
11
101.3537740000000014
21
-76.7350029999999919
0
LINE
8
BLACK
6
CONTINUOUS
10
101.3537740000000014
20
-76.7350029999999919
11
101.4680589999999967
21
-76.6778599999999955
0
LINE
8
BLACK
6
CONTINUOUS
10
101.4680589999999967
20
-76.6778599999999955
11
101.4930260000000004
21
-76.6704330000000027
0
LINE
8
BLACK
6
CONTINUOUS
10
101.4930260000000004
20
-76.6704330000000027
11
101.4973880000000008
21
-76.6714750000000009
0
LINE
8
BLACK
6
CONTINUOUS
10
101.4973880000000008
20
-76.6714750000000009
11
101.5015999999999963
21
-76.6699419999999918
0
LINE
8
BLACK
6
CONTINUOUS
10
101.5015999999999963
20
-76.6699419999999918
11
101.6158859999999891
21
-76.6699419999999918
0
LINE
8
BLACK
6
CONTINUOUS
10
101.6158859999999891
20
-76.6699419999999918
11
101.6415379999999971
21
-76.6744649999999979
0
LINE
8
BLACK
6
CONTINUOUS
10
105.584393999999989
20
-76.6744649999999979
11
105.6236940000000004
21
-76.7074420000000003
0
LINE
8
BLACK
6
CONTINUOUS
10
105.6236940000000004
20
-76.7074420000000003
11
105.6326029999999889
21
-76.7579659999999961
0
LINE
8
BLACK
6
CONTINUOUS
10
105.6326029999999889
20
-76.7579659999999961
11
105.6069509999999951
21
-76.80239499999999
0
LINE
8
BLACK
6
CONTINUOUS
10
105.6069509999999951
20
-76.80239499999999
11
105.5587419999999952
21
-76.8199419999999975
0
LINE
8
BLACK
6
CONTINUOUS
10
105.5587419999999952
20
-76.8199419999999975
11
105.4621609999999947
21
-76.8199419999999975
0
LINE
8
BLACK
6
CONTINUOUS
10
105.4621609999999947
20
-76.8199419999999975
11
105.3745979999999918
21
-76.8637229999999931
0
LINE
8
BLACK
6
CONTINUOUS
10
105.3745979999999918
20
-76.8637229999999931
11
105.3346669999999961
21
-76.9036550000000005
0
LINE
8
BLACK
6
CONTINUOUS
10
105.3346669999999961
20
-76.9036550000000005
11
105.2908849999999887
21
-76.991219000000001
0
LINE
8
BLACK
6
CONTINUOUS
10
105.2908849999999887
20
-76.991219000000001
11
105.2908849999999887
21
-77.5449419999999918
0
LINE
8
BLACK
6
CONTINUOUS
10
105.2908849999999887
20
-77.5449419999999918
11
105.2863619999999969
21
-77.5705939999999998
0
LINE
8
BLACK
6
CONTINUOUS
10
105.2863619999999969
20
-77.5705939999999998
11
105.2533849999999944
21
-77.609893999999997
0
LINE
8
BLACK
6
CONTINUOUS
10
105.2533849999999944
20
-77.609893999999997
11
105.2028609999999986
21
-77.6188029999999998
0
LINE
8
BLACK
6
CONTINUOUS
10
105.2028609999999986
20
-77.6188029999999998
11
105.1584319999999906
21
-77.5931509999999918
0
LINE
8
BLACK
6
CONTINUOUS
10
105.1584319999999906
20
-77.5931509999999918
11
105.1408849999999973
21
-77.5449419999999918
0
LINE
8
BLACK
6
CONTINUOUS
10
105.1408849999999973
20
-77.5449419999999918
11
105.1408849999999973
21
-76.7449419999999947
0
LINE
8
BLACK
6
CONTINUOUS
10
105.1408849999999973
20
-76.7449419999999947
11
105.1454079999999891
21
-76.7192900000000009
0
LINE
8
BLACK
6
CONTINUOUS
10
105.1454079999999891
20
-76.7192900000000009
11
105.1783849999999916
21
-76.6799899999999894
0
LINE
8
BLACK
6
CONTINUOUS
10
105.1783849999999916
20
-76.6799899999999894
11
105.2289090000000016
21
-76.6710810000000009
0
LINE
8
BLACK
6
CONTINUOUS
10
105.2289090000000016
20
-76.6710810000000009
11
105.2733379999999954
21
-76.6967329999999947
0
LINE
8
BLACK
6
CONTINUOUS
10
105.2733379999999954
20
-76.6967329999999947
11
105.2892849999999925
21
-76.7405459999999948
0
LINE
8
BLACK
6
CONTINUOUS
10
105.2892849999999925
20
-76.7405459999999948
11
105.295503999999994
21
-76.7361920000000026
0
LINE
8
BLACK
6
CONTINUOUS
10
105.295503999999994
20
-76.7361920000000026
11
105.2966299999999933
21
-76.7350029999999919
0
LINE
8
BLACK
6
CONTINUOUS
10
105.2966299999999933
20
-76.7350029999999919
11
105.4109149999999886
21
-76.6778599999999955
0
LINE
8
BLACK
6
CONTINUOUS
10
105.4109149999999886
20
-76.6778599999999955
11
105.4358819999999923
21
-76.6704330000000027
0
LINE
8
BLACK
6
CONTINUOUS
10
105.4358819999999923
20
-76.6704330000000027
11
105.4402439999999928
21
-76.6714750000000009
0
LINE
8
BLACK
6
CONTINUOUS
10
105.4402439999999928
20
-76.6714750000000009
11
105.4444559999999882
21
-76.6699419999999918
0
LINE
8
BLACK
6
CONTINUOUS
10
105.4444559999999882
20
-76.6699419999999918
11
105.5587419999999952
21
-76.6699419999999918
0
LINE
8
BLACK
6
CONTINUOUS
10
105.5587419999999952
20
-76.6699419999999918
11
105.584393999999989
21
-76.6744649999999979
0
LINE
8
BLACK
6
CONTINUOUS
10
110.6129649999999884
20
-76.6744649999999979
11
110.6522649999999999
21
-76.7074420000000003
0
LINE
8
BLACK
6
CONTINUOUS
10
110.6522649999999999
20
-76.7074420000000003
11
110.6611739999999884
21
-76.7579659999999961
0
LINE
8
BLACK
6
CONTINUOUS
10
110.6611739999999884
20
-76.7579659999999961
11
110.6355219999999946
21
-76.80239499999999
0
LINE
8
BLACK
6
CONTINUOUS
10
110.6355219999999946
20
-76.80239499999999
11
110.5873129999999946
21
-76.8199419999999975
0
LINE
8
BLACK
6
CONTINUOUS
10
110.5873129999999946
20
-76.8199419999999975
11
110.4907319999999942
21
-76.8199419999999975
0
LINE
8
BLACK
6
CONTINUOUS
10
110.4907319999999942
20
-76.8199419999999975
11
110.4031689999999912
21
-76.8637229999999931
0
LINE
8
BLACK
6
CONTINUOUS
10
110.4031689999999912
20
-76.8637229999999931
11
110.3632379999999955
21
-76.9036550000000005
0
LINE
8
BLACK
6
CONTINUOUS
10
110.3632379999999955
20
-76.9036550000000005
11
110.3194559999999882
21
-76.991219000000001
0
LINE
8
BLACK
6
CONTINUOUS
10
110.3194559999999882
20
-76.991219000000001
11
110.3194559999999882
21
-77.5449419999999918
0
LINE
8
BLACK
6
CONTINUOUS
10
110.3194559999999882
20
-77.5449419999999918
11
110.3149329999999964
21
-77.5705939999999998
0
LINE
8
BLACK
6
CONTINUOUS
10
110.3149329999999964
20
-77.5705939999999998
11
110.2819559999999939
21
-77.609893999999997
0
LINE
8
BLACK
6
CONTINUOUS
10
110.2819559999999939
20
-77.609893999999997
11
110.2314319999999981
21
-77.6188029999999998
0
LINE
8
BLACK
6
CONTINUOUS
10
110.2314319999999981
20
-77.6188029999999998
11
110.18700299999999
21
-77.5931509999999918
0
LINE
8
BLACK
6
CONTINUOUS
10
110.18700299999999
20
-77.5931509999999918
11
110.1694559999999967
21
-77.5449419999999918
0
LINE
8
BLACK
6
CONTINUOUS
10
110.1694559999999967
20
-77.5449419999999918
11
110.1694559999999967
21
-76.7449419999999947
0
LINE
8
BLACK
6
CONTINUOUS
10
110.1694559999999967
20
-76.7449419999999947
11
110.1739789999999886
21
-76.7192900000000009
0
LINE
8
BLACK
6
CONTINUOUS
10
110.1739789999999886
20
-76.7192900000000009
11
110.206955999999991
21
-76.6799899999999894
0
LINE
8
BLACK
6
CONTINUOUS
10
110.206955999999991
20
-76.6799899999999894
11
110.257480000000001
21
-76.6710810000000009
0
LINE
8
BLACK
6
CONTINUOUS
10
110.257480000000001
20
-76.6710810000000009
11
110.3019089999999949
21
-76.6967329999999947
0
LINE
8
BLACK
6
CONTINUOUS
10
110.3019089999999949
20
-76.6967329999999947
11
110.3178559999999919
21
-76.7405459999999948
0
LINE
8
BLACK
6
CONTINUOUS
10
110.3178559999999919
20
-76.7405459999999948
11
110.3240749999999935
21
-76.7361920000000026
0
LINE
8
BLACK
6
CONTINUOUS
10
110.3240749999999935
20
-76.7361920000000026
11
110.3252009999999927
21
-76.7350029999999919
0
LINE
8
BLACK
6
CONTINUOUS
10
110.3252009999999927
20
-76.7350029999999919
11
110.4394859999999881
21
-76.6778599999999955
0
LINE
8
BLACK
6
CONTINUOUS
10
110.4394859999999881
20
-76.6778599999999955
11
110.4644529999999918
21
-76.6704330000000027
0
LINE
8
BLACK
6
CONTINUOUS
10
110.4644529999999918
20
-76.6704330000000027
11
110.4688149999999922
21
-76.6714750000000009
0
LINE
8
BLACK
6
CONTINUOUS
10
110.4688149999999922
20
-76.6714750000000009
11
110.4730270000000019
21
-76.6699419999999918
0
LINE
8
BLACK
6
CONTINUOUS
10
110.4730270000000019
20
-76.6699419999999918
11
110.5873129999999946
21
-76.6699419999999918
0
LINE
8
BLACK
6
CONTINUOUS
10
110.5873129999999946
20
-76.6699419999999918
11
110.6129649999999884
21
-76.6744649999999979
0
LINE
8
BLACK
6
CONTINUOUS
10
105.6231829999999974
20
-63.9886920000000003
11
105.637827999999999
21
-64.0240469999999959
0
LINE
8
BLACK
6
CONTINUOUS
10
105.637827999999999
20
-64.0240469999999959
11
105.637827999999999
21
-64.4240470000000016
0
LINE
8
BLACK
6
CONTINUOUS
10
105.637827999999999
20
-64.4240470000000016
11
105.6351999999999975
21
-64.4303910000000002
0
LINE
8
BLACK
6
CONTINUOUS
10
105.6351999999999975
20
-64.4303910000000002
11
105.6360659999999996
21
-64.4372029999999967
0
LINE
8
BLACK
6
CONTINUOUS
10
105.6360659999999996
20
-64.4372029999999967
11
105.6281369999999953
21
-64.4474400000000003
0
LINE
8
BLACK
6
CONTINUOUS
10
105.6281369999999953
20
-64.4474400000000003
11
105.6231829999999974
21
-64.4594019999999972
0
LINE
8
BLACK
6
CONTINUOUS
10
105.6231829999999974
20
-64.4594019999999972
11
105.6168389999999988
21
-64.4620290000000011
0
LINE
8
BLACK
6
CONTINUOUS
10
105.6168389999999988
20
-64.4620290000000011
11
105.6126349999999974
21
-64.467458999999991
0
LINE
8
BLACK
6
CONTINUOUS
10
105.6126349999999974
20
-64.467458999999991
11
105.5997899999999987
21
-64.4690909999999917
0
LINE
8
BLACK
6
CONTINUOUS
10
105.5997899999999987
20
-64.4690909999999917
11
105.5878280000000018
21
-64.4740469999999988
0
LINE
8
BLACK
6
CONTINUOUS
10
105.5878280000000018
20
-64.4740469999999988
11
105.5814829999999915
21
-64.4714189999999974
0
LINE
8
BLACK
6
CONTINUOUS
10
105.5814829999999915
20
-64.4714189999999974
11
105.5746719999999925
21
-64.4722849999999994
0
LINE
8
BLACK
6
CONTINUOUS
10
105.5746719999999925
20
-64.4722849999999994
11
105.5644339999999914
21
-64.4643559999999951
0
LINE
8
BLACK
6
CONTINUOUS
10
105.5644339999999914
20
-64.4643559999999951
11
105.552472999999992
21
-64.4594019999999972
0
LINE
8
BLACK
6
CONTINUOUS
10
105.552472999999992
20
-64.4594019999999972
11
105.5498449999999906
21
-64.4530579999999986
0
LINE
8
BLACK
6
CONTINUOUS
10
105.5498449999999906
20
-64.4530579999999986
11
105.5444159999999982
21
-64.4488539999999972
0
LINE
8
BLACK
6
CONTINUOUS
10
105.5444159999999982
20
-64.4488539999999972
11
105.4092569999999967
21
-64.2123249999999928
0
LINE
8
BLACK
6
CONTINUOUS
10
105.4092569999999967
20
-64.2123249999999928
11
105.4092569999999967
21
-64.4240470000000016
0
LINE
8
BLACK
6
CONTINUOUS
10
105.4092569999999967
20
-64.4240470000000016
11
105.3946119999999951
21
-64.4594019999999972
0
LINE
8
BLACK
6
CONTINUOUS
10
105.3946119999999951
20
-64.4594019999999972
11
105.3592569999999995
21
-64.4740469999999988
0
LINE
8
BLACK
6
CONTINUOUS
10
105.3592569999999995
20
-64.4740469999999988
11
105.3239019999999897
21
-64.4594019999999972
0
LINE
8
BLACK
6
CONTINUOUS
10
105.3239019999999897
20
-64.4594019999999972
11
105.3092570000000023
21
-64.4240470000000016
0
LINE
8
BLACK
6
CONTINUOUS
10
105.3092570000000023
20
-64.4240470000000016
11
105.3092570000000023
21
-64.0240469999999959
0
LINE
8
BLACK
6
CONTINUOUS
10
105.3092570000000023
20
-64.0240469999999959
11
105.3118839999999921
21
-64.0177019999999999
0
LINE
8
BLACK
6
CONTINUOUS
10
105.3118839999999921
20
-64.0177019999999999
11
105.3110190000000017
21
-64.0108910000000009
0
LINE
8
BLACK
6
CONTINUOUS
10
105.3110190000000017
20
-64.0108910000000009
11
105.3189469999999943
21
-64.0006529999999998
0
LINE
8
BLACK
6
CONTINUOUS
10
105.3189469999999943
20
-64.0006529999999998
11
105.3239019999999897
21
-63.9886920000000003
0
LINE
8
BLACK
6
CONTINUOUS
10
105.3239019999999897
20
-63.9886920000000003
11
105.3302449999999908
21
-63.9860639999999989
0
LINE
8
BLACK
6
CONTINUOUS
10
105.3302449999999908
20
-63.9860639999999989
11
105.3344499999999897
21
-63.9806349999999995
0
LINE
8
BLACK
6
CONTINUOUS
10
105.3344499999999897
20
-63.9806349999999995
11
105.3472939999999909
21
-63.9790019999999942
0
LINE
8
BLACK
6
CONTINUOUS
10
105.3472939999999909
20
-63.9790019999999942
11
105.3592569999999995
21
-63.9740469999999988
0
LINE
8
BLACK
6
CONTINUOUS
10
105.3592569999999995
20
-63.9740469999999988
11
105.3656009999999981
21
-63.9766739999999956
0
LINE
8
BLACK
6
CONTINUOUS
10
105.3656009999999981
20
-63.9766739999999956
11
105.3724129999999946
21
-63.9758089999999982
0
LINE
8
BLACK
6
CONTINUOUS
10
105.3724129999999946
20
-63.9758089999999982
11
105.3826499999999982
21
-63.9837369999999979
0
LINE
8
BLACK
6
CONTINUOUS
10
105.3826499999999982
20
-63.9837369999999979
11
105.3946119999999951
21
-63.9886920000000003
0
LINE
8
BLACK
6
CONTINUOUS
10
105.3946119999999951
20
-63.9886920000000003
11
105.397238999999999
21
-63.9950349999999943
0
LINE
8
BLACK
6
CONTINUOUS
10
105.397238999999999
20
-63.9950349999999943
11
105.4026689999999888
21
-63.9992400000000004
0
LINE
8
BLACK
6
CONTINUOUS
10
105.4026689999999888
20
-63.9992400000000004
11
105.5378279999999904
21
-64.2357679999999931
0
LINE
8
BLACK
6
CONTINUOUS
10
105.5378279999999904
20
-64.2357679999999931
11
105.5378279999999904
21
-64.0240469999999959
0
LINE
8
BLACK
6
CONTINUOUS
10
105.5378279999999904
20
-64.0240469999999959
11
105.552472999999992
21
-63.9886920000000003
0
LINE
8
BLACK
6
CONTINUOUS
10
105.552472999999992
20
-63.9886920000000003
11
105.5878280000000018
21
-63.9740469999999988
0
LINE
8
BLACK
6
CONTINUOUS
10
105.5878280000000018
20
-63.9740469999999988
11
105.6231829999999974
21
-63.9886920000000003
0
LINE
8
BLACK
6
CONTINUOUS
10
105.9850879999999904
20
-63.9886920000000003
11
105.999732999999992
21
-64.0240469999999959
0
LINE
8
BLACK
6
CONTINUOUS
10
105.999732999999992
20
-64.0240469999999959
11
105.9850879999999904
21
-64.0594019999999915
0
LINE
8
BLACK
6
CONTINUOUS
10
105.9850879999999904
20
-64.0594019999999915
11
105.9497329999999948
21
-64.0740469999999931
0
LINE
8
BLACK
6
CONTINUOUS
10
105.9497329999999948
20
-64.0740469999999931
11
105.8854469999999992
21
-64.0740469999999931
0
LINE
8
BLACK
6
CONTINUOUS
10
105.8854469999999992
20
-64.0740469999999931
11
105.8854469999999992
21
-64.4240470000000016
0
LINE
8
BLACK
6
CONTINUOUS
10
105.8854469999999992
20
-64.4240470000000016
11
105.8708019999999976
21
-64.4594019999999972
0
LINE
8
BLACK
6
CONTINUOUS
10
105.8708019999999976
20
-64.4594019999999972
11
105.835447000000002
21
-64.4740469999999988
0
LINE
8
BLACK
6
CONTINUOUS
10
105.835447000000002
20
-64.4740469999999988
11
105.8000919999999923
21
-64.4594019999999972
0
LINE
8
BLACK
6
CONTINUOUS
10
105.8000919999999923
20
-64.4594019999999972
11
105.7854469999999907
21
-64.4240470000000016
0
LINE
8
BLACK
6
CONTINUOUS
10
105.7854469999999907
20
-64.4240470000000016
11
105.7854469999999907
21
-64.0740469999999931
0
LINE
8
BLACK
6
CONTINUOUS
10
105.7854469999999907
20
-64.0740469999999931
11
105.7211619999999925
21
-64.0740469999999931
0
LINE
8
BLACK
6
CONTINUOUS
10
105.7211619999999925
20
-64.0740469999999931
11
105.6858069999999969
21
-64.0594019999999915
0
LINE
8
BLACK
6
CONTINUOUS
10
105.6858069999999969
20
-64.0594019999999915
11
105.6711619999999954
21
-64.0240469999999959
0
LINE
8
BLACK
6
CONTINUOUS
10
105.6711619999999954
20
-64.0240469999999959
11
105.6858069999999969
21
-63.9886920000000003
0
LINE
8
BLACK
6
CONTINUOUS
10
105.6858069999999969
20
-63.9886920000000003
11
105.7211619999999925
21
-63.9740469999999988
0
LINE
8
BLACK
6
CONTINUOUS
10
105.7211619999999925
20
-63.9740469999999988
11
105.9497329999999948
21
-63.9740469999999988
0
LINE
8
BLACK
6
CONTINUOUS
10
105.9497329999999948
20
-63.9740469999999988
11
105.9850879999999904
21
-63.9886920000000003
0
LINE
8
BLACK
6
CONTINUOUS
10
106.1917529999999914
20
-63.9796169999999975
11
106.206040999999999
21
-63.9824439999999939
0
LINE
8
BLACK
6
CONTINUOUS
10
106.206040999999999
20
-63.9824439999999939
11
106.2089059999999989
21
-63.9867220000000003
0
LINE
8
BLACK
6
CONTINUOUS
10
106.2089059999999989
20
-63.9867220000000003
11
106.2136599999999902
21
-63.9886920000000003
0
LINE
8
BLACK
6
CONTINUOUS
10
106.2136599999999902
20
-63.9886920000000003
11
106.219229999999996
21
-64.0021399999999971
0
LINE
8
BLACK
6
CONTINUOUS
10
106.219229999999996
20
-64.0021399999999971
11
106.227333999999999
21
-64.0142409999999984
0
LINE
8
BLACK
6
CONTINUOUS
10
106.227333999999999
20
-64.0142409999999984
11
106.2263339999999943
21
-64.019289999999998
0
LINE
8
BLACK
6
CONTINUOUS
10
106.2263339999999943
20
-64.019289999999998
11
106.2283049999999918
21
-64.0240469999999959
0
LINE
8
BLACK
6
CONTINUOUS
10
106.2283049999999918
20
-64.0240469999999959
11
106.2283049999999918
21
-64.3740469999999902
0
LINE
8
BLACK
6
CONTINUOUS
10
106.2283049999999918
20
-64.3740469999999902
11
106.2925899999999899
21
-64.3740469999999902
0
LINE
8
BLACK
6
CONTINUOUS
10
106.2925899999999899
20
-64.3740469999999902
11
106.3279449999999997
21
-64.3886919999999918
0
LINE
8
BLACK
6
CONTINUOUS
10
106.3279449999999997
20
-64.3886919999999918
11
106.3425900000000013
21
-64.4240470000000016
0
LINE
8
BLACK
6
CONTINUOUS
10
106.3425900000000013
20
-64.4240470000000016
11
106.3279449999999997
21
-64.4594019999999972
0
LINE
8
BLACK
6
CONTINUOUS
10
106.3279449999999997
20
-64.4594019999999972
11
106.2925899999999899
21
-64.4740469999999988
0
LINE
8
BLACK
6
CONTINUOUS
10
106.2925899999999899
20
-64.4740469999999988
11
106.1783049999999946
21
-64.4740469999999988
0
LINE
8
BLACK
6
CONTINUOUS
10
106.1783049999999946
20
-64.4740469999999988
11
106.0640190000000018
21
-64.4740469999999988
0
LINE
8
BLACK
6
CONTINUOUS
10
106.0640190000000018
20
-64.4740469999999988
11
106.028663999999992
21
-64.4594019999999972
0
LINE
8
BLACK
6
CONTINUOUS
10
106.028663999999992
20
-64.4594019999999972
11
106.0140189999999905
21
-64.4240470000000016
0
LINE
8
BLACK
6
CONTINUOUS
10
106.0140189999999905
20
-64.4240470000000016
11
106.028663999999992
21
-64.3886919999999918
0
LINE
8
BLACK
6
CONTINUOUS
10
106.028663999999992
20
-64.3886919999999918
11
106.0640190000000018
21
-64.3740469999999902
0
LINE
8
BLACK
6
CONTINUOUS
10
106.0640190000000018
20
-64.3740469999999902
11
106.1283049999999974
21
-64.3740469999999902
0
LINE
8
BLACK
6
CONTINUOUS
10
106.1283049999999974
20
-64.3740469999999902
11
106.1283049999999974
21
-64.1595889999999969
0
LINE
8
BLACK
6
CONTINUOUS
10
106.1283049999999974
20
-64.1595889999999969
11
106.1244749999999897
21
-64.1640060000000005
0
LINE
8
BLACK
6
CONTINUOUS
10
106.1244749999999897
20
-64.1640060000000005
11
106.0863799999999912
21
-64.1830539999999985
0
LINE
8
BLACK
6
CONTINUOUS
10
106.0863799999999912
20
-64.1830539999999985
11
106.0482079999999883
21
-64.1857669999999985
0
LINE
8
BLACK
6
CONTINUOUS
10
106.0482079999999883
20
-64.1857669999999985
11
106.019297999999992
21
-64.1606939999999923
0
LINE
8
BLACK
6
CONTINUOUS
10
106.019297999999992
20
-64.1606939999999923
11
106.0165849999999921
21
-64.1225220000000036
0
LINE
8
BLACK
6
CONTINUOUS
10
106.0165849999999921
20
-64.1225220000000036
11
106.0416579999999982
21
-64.0936119999999931
0
LINE
8
BLACK
6
CONTINUOUS
10
106.0416579999999982
20
-64.0936119999999931
11
106.072496000000001
21
-64.0781920000000014
0
LINE
8
BLACK
6
CONTINUOUS
10
106.072496000000001
20
-64.0781920000000014
11
106.1013540000000006
21
-64.0493329999999901
0
LINE
8
BLACK
6
CONTINUOUS
10
106.1013540000000006
20
-64.0493329999999901
11
106.1367029999999971
21
-63.9963109999999986
0
LINE
8
BLACK
6
CONTINUOUS
10
106.1367029999999971
20
-63.9963109999999986
11
106.140979999999999
21
-63.9934459999999987
0
LINE
8
BLACK
6
CONTINUOUS
10
106.140979999999999
20
-63.9934459999999987
11
106.142949999999999
21
-63.9886920000000003
0
LINE
8
BLACK
6
CONTINUOUS
10
106.142949999999999
20
-63.9886920000000003
11
106.1563999999999908
21
-63.9831199999999995
0
LINE
8
BLACK
6
CONTINUOUS
10
106.1563999999999908
20
-63.9831199999999995
11
106.1684999999999945
21
-63.9750179999999986
0
LINE
8
BLACK
6
CONTINUOUS
10
106.1684999999999945
20
-63.9750179999999986
11
106.1735489999999942
21
-63.9760159999999942
0
LINE
8
BLACK
6
CONTINUOUS
10
106.1735489999999942
20
-63.9760159999999942
11
106.1783049999999946
21
-63.9740469999999988
0
LINE
8
BLACK
6
CONTINUOUS
10
106.1783049999999946
20
-63.9740469999999988
11
106.1917529999999914
21
-63.9796169999999975
0
LINE
8
BLACK
6
CONTINUOUS
10
101.6544209999999993
20
-63.4832919999999987
11
101.6690660000000008
21
-63.5186469999999943
0
LINE
8
BLACK
6
CONTINUOUS
10
101.6690660000000008
20
-63.5186469999999943
11
101.6690660000000008
21
-63.8043610000000001
0
LINE
8
BLACK
6
CONTINUOUS
10
101.6690660000000008
20
-63.8043610000000001
11
101.6659159999999957
21
-63.8119629999999987
0
LINE
8
BLACK
6
CONTINUOUS
10
101.6659159999999957
20
-63.8119629999999987
11
101.6664999999999992
21
-63.8201719999999995
0
LINE
8
BLACK
6
CONTINUOUS
10
101.6664999999999992
20
-63.8201719999999995
11
101.6474529999999987
21
-63.8773149999999958
0
LINE
8
BLACK
6
CONTINUOUS
10
101.6474529999999987
20
-63.8773149999999958
11
101.6398269999999968
21
-63.8861069999999955
0
LINE
8
BLACK
6
CONTINUOUS
10
101.6398269999999968
20
-63.8861069999999955
11
101.6353739999999988
21
-63.8968589999999992
0
LINE
8
BLACK
6
CONTINUOUS
10
101.6353739999999988
20
-63.8968589999999992
11
101.5972779999999887
21
-63.9349549999999951
0
LINE
8
BLACK
6
CONTINUOUS
10
101.5972779999999887
20
-63.9349549999999951
11
101.5865259999999921
21
-63.9394080000000002
0
LINE
8
BLACK
6
CONTINUOUS
10
101.5865259999999921
20
-63.9394080000000002
11
101.5777339999999924
21
-63.947033999999995
0
LINE
8
BLACK
6
CONTINUOUS
10
101.5777339999999924
20
-63.947033999999995
11
101.5205919999999935
21
-63.9660809999999955
0
LINE
8
BLACK
6
CONTINUOUS
10
101.5205919999999935
20
-63.9660809999999955
11
101.5123829999999998
21
-63.9654969999999992
0
LINE
8
BLACK
6
CONTINUOUS
10
101.5123829999999998
20
-63.9654969999999992
11
101.5047809999999942
21
-63.9686469999999971
0
LINE
8
BLACK
6
CONTINUOUS
10
101.5047809999999942
20
-63.9686469999999971
11
101.4666849999999982
21
-63.9686469999999971
0
LINE
8
BLACK
6
CONTINUOUS
10
101.4666849999999982
20
-63.9686469999999971
11
101.4313299999999884
21
-63.9540019999999956
0
LINE
8
BLACK
6
CONTINUOUS
10
101.4313299999999884
20
-63.9540019999999956
11
101.4166850000000011
21
-63.918647
0
LINE
8
BLACK
6
CONTINUOUS
10
101.4166850000000011
20
-63.918647
11
101.4313299999999884
21
-63.8832919999999973
0
LINE
8
BLACK
6
CONTINUOUS
10
101.4313299999999884
20
-63.8832919999999973
11
101.4666849999999982
21
-63.8686469999999957
0
LINE
8
BLACK
6
CONTINUOUS
10
101.4666849999999982
20
-63.8686469999999957
11
101.4966679999999997
21
-63.8686469999999957
0
LINE
8
BLACK
6
CONTINUOUS
10
101.4966679999999997
20
-63.8686469999999957
11
101.5349140000000006
21
-63.8558979999999963
0
LINE
8
BLACK
6
CONTINUOUS
10
101.5349140000000006
20
-63.8558979999999963
11
101.5563169999999928
21
-63.8344949999999969
0
LINE
8
BLACK
6
CONTINUOUS
10
101.5563169999999928
20
-63.8344949999999969
11
101.5690659999999923
21
-63.7962479999999985
0
LINE
8
BLACK
6
CONTINUOUS
10
101.5690659999999923
20
-63.7962479999999985
11
101.5690659999999923
21
-63.5186469999999943
0
LINE
8
BLACK
6
CONTINUOUS
10
101.5690659999999923
20
-63.5186469999999943
11
101.5837109999999939
21
-63.4832919999999987
0
LINE
8
BLACK
6
CONTINUOUS
10
101.5837109999999939
20
-63.4832919999999987
11
101.6190659999999895
21
-63.4686469999999971
0
LINE
8
BLACK
6
CONTINUOUS
10
101.6190659999999895
20
-63.4686469999999971
11
101.6544209999999993
21
-63.4832919999999987
0
LINE
8
BLACK
6
CONTINUOUS
10
101.9182289999999966
20
-63.4742169999999959
11
101.93251699999999
21
-63.4770439999999994
0
LINE
8
BLACK
6
CONTINUOUS
10
101.93251699999999
20
-63.4770439999999994
11
101.9353819999999899
21
-63.4813219999999987
0
LINE
8
BLACK
6
CONTINUOUS
10
101.9353819999999899
20
-63.4813219999999987
11
101.9401359999999954
21
-63.4832919999999987
0
LINE
8
BLACK
6
CONTINUOUS
10
101.9401359999999954
20
-63.4832919999999987
11
101.9457060000000013
21
-63.4967399999999955
0
LINE
8
BLACK
6
CONTINUOUS
10
101.9457060000000013
20
-63.4967399999999955
11
101.9538099999999901
21
-63.5088409999999968
0
LINE
8
BLACK
6
CONTINUOUS
10
101.9538099999999901
20
-63.5088409999999968
11
101.9528099999999995
21
-63.5138899999999964
0
LINE
8
BLACK
6
CONTINUOUS
10
101.9528099999999995
20
-63.5138899999999964
11
101.954780999999997
21
-63.5186469999999943
0
LINE
8
BLACK
6
CONTINUOUS
10
101.954780999999997
20
-63.5186469999999943
11
101.954780999999997
21
-63.8686469999999957
0
LINE
8
BLACK
6
CONTINUOUS
10
101.954780999999997
20
-63.8686469999999957
11
102.0190659999999951
21
-63.8686469999999957
0
LINE
8
BLACK
6
CONTINUOUS
10
102.0190659999999951
20
-63.8686469999999957
11
102.0544209999999907
21
-63.8832919999999973
0
LINE
8
BLACK
6
CONTINUOUS
10
102.0544209999999907
20
-63.8832919999999973
11
102.0690659999999923
21
-63.918647
0
LINE
8
BLACK
6
CONTINUOUS
10
102.0690659999999923
20
-63.918647
11
102.0544209999999907
21
-63.9540019999999956
0
LINE
8
BLACK
6
CONTINUOUS
10
102.0544209999999907
20
-63.9540019999999956
11
102.0190659999999951
21
-63.9686469999999971
0
LINE
8
BLACK
6
CONTINUOUS
10
102.0190659999999951
20
-63.9686469999999971
11
101.9047809999999998
21
-63.9686469999999971
0
LINE
8
BLACK
6
CONTINUOUS
10
101.9047809999999998
20
-63.9686469999999971
11
101.7904949999999928
21
-63.9686469999999971
0
LINE
8
BLACK
6
CONTINUOUS
10
101.7904949999999928
20
-63.9686469999999971
11
101.7551399999999973
21
-63.9540019999999956
0
LINE
8
BLACK
6
CONTINUOUS
10
101.7551399999999973
20
-63.9540019999999956
11
101.7404949999999957
21
-63.918647
0
LINE
8
BLACK
6
CONTINUOUS
10
101.7404949999999957
20
-63.918647
11
101.7551399999999973
21
-63.8832919999999973
0
LINE
8
BLACK
6
CONTINUOUS
10
101.7551399999999973
20
-63.8832919999999973
11
101.7904949999999928
21
-63.8686469999999957
0
LINE
8
BLACK
6
CONTINUOUS
10
101.7904949999999928
20
-63.8686469999999957
11
101.8547809999999885
21
-63.8686469999999957
0
LINE
8
BLACK
6
CONTINUOUS
10
101.8547809999999885
20
-63.8686469999999957
11
101.8547809999999885
21
-63.6541889999999952
0
LINE
8
BLACK
6
CONTINUOUS
10
101.8547809999999885
20
-63.6541889999999952
11
101.8509509999999949
21
-63.6586059999999989
0
LINE
8
BLACK
6
CONTINUOUS
10
101.8509509999999949
20
-63.6586059999999989
11
101.8128559999999965
21
-63.6776539999999969
0
LINE
8
BLACK
6
CONTINUOUS
10
101.8128559999999965
20
-63.6776539999999969
11
101.7746839999999935
21
-63.6803669999999968
0
LINE
8
BLACK
6
CONTINUOUS
10
101.7746839999999935
20
-63.6803669999999968
11
101.7457739999999973
21
-63.6552939999999978
0
LINE
8
BLACK
6
CONTINUOUS
10
101.7457739999999973
20
-63.6552939999999978
11
101.7430609999999973
21
-63.6171219999999948
0
LINE
8
BLACK
6
CONTINUOUS
10
101.7430609999999973
20
-63.6171219999999948
11
101.7681339999999892
21
-63.5882119999999986
0
LINE
8
BLACK
6
CONTINUOUS
10
101.7681339999999892
20
-63.5882119999999986
11
101.798971999999992
21
-63.5727919999999997
0
LINE
8
BLACK
6
CONTINUOUS
10
101.798971999999992
20
-63.5727919999999997
11
101.8278299999999916
21
-63.5439329999999956
0
LINE
8
BLACK
6
CONTINUOUS
10
101.8278299999999916
20
-63.5439329999999956
11
101.8631790000000024
21
-63.490910999999997
0
LINE
8
BLACK
6
CONTINUOUS
10
101.8631790000000024
20
-63.490910999999997
11
101.86745599999999
21
-63.4880459999999971
0
LINE
8
BLACK
6
CONTINUOUS
10
101.86745599999999
20
-63.4880459999999971
11
101.86942599999999
21
-63.4832919999999987
0
LINE
8
BLACK
6
CONTINUOUS
10
101.86942599999999
20
-63.4832919999999987
11
101.882875999999996
21
-63.4777199999999979
0
LINE
8
BLACK
6
CONTINUOUS
10
101.882875999999996
20
-63.4777199999999979
11
101.8949759999999998
21
-63.469617999999997
0
LINE
8
BLACK
6
CONTINUOUS
10
101.8949759999999998
20
-63.469617999999997
11
101.9000249999999994
21
-63.4706159999999997
0
LINE
8
BLACK
6
CONTINUOUS
10
101.9000249999999994
20
-63.4706159999999997
11
101.9047809999999998
21
-63.4686469999999971
0
LINE
8
BLACK
6
CONTINUOUS
10
101.9047809999999998
20
-63.4686469999999971
11
101.9182289999999966
21
-63.4742169999999959
0
LINE
8
BLACK
6
CONTINUOUS
10
99.2889019999999931
20
-61.4172209999999978
11
99.3079999999999927
21
-61.4759999999999991
0
LINE
8
BLACK
6
CONTINUOUS
10
99.3079999999999927
20
-61.4759999999999991
11
99.3079999999999927
21
-61.9159999999999968
0
LINE
8
BLACK
6
CONTINUOUS
10
99.3079999999999927
20
-61.9159999999999968
11
104.1880000000000024
21
-61.9159999999999968
0
LINE
8
BLACK
6
CONTINUOUS
10
104.1880000000000024
20
-61.9159999999999968
11
104.1880000000000024
21
-61.4759999999999991
0
LINE
8
BLACK
6
CONTINUOUS
10
104.1880000000000024
20
-61.4759999999999991
11
104.207098000000002
21
-61.4172209999999978
0
LINE
8
BLACK
6
CONTINUOUS
10
104.207098000000002
20
-61.4172209999999978
11
104.2570979999999992
21
-61.3808939999999978
0
LINE
8
BLACK
6
CONTINUOUS
10
104.2570979999999992
20
-61.3808939999999978
11
104.3189019999999942
21
-61.3808939999999978
0
LINE
8
BLACK
6
CONTINUOUS
10
104.3189019999999942
20
-61.3808939999999978
11
104.3689019999999914
21
-61.4172209999999978
0
LINE
8
BLACK
6
CONTINUOUS
10
104.3689019999999914
20
-61.4172209999999978
11
104.387999999999991
21
-61.4759999999999991
0
LINE
8
BLACK
6
CONTINUOUS
10
104.387999999999991
20
-61.4759999999999991
11
104.387999999999991
21
-62.0159999999999982
0
LINE
8
BLACK
6
CONTINUOUS
10
104.387999999999991
20
-62.0159999999999982
11
104.3831059999999979
21
-62.0310619999999986
0
LINE
8
BLACK
6
CONTINUOUS
10
104.3831059999999979
20
-62.0310619999999986
11
104.3831059999999979
21
-62.0469019999999958
0
LINE
8
BLACK
6
CONTINUOUS
10
104.3831059999999979
20
-62.0469019999999958
11
104.3737959999999987
21
-62.0597149999999971
0
LINE
8
BLACK
6
CONTINUOUS
10
104.3737959999999987
20
-62.0597149999999971
11
104.3689019999999914
21
-62.0747789999999995
0
LINE
8
BLACK
6
CONTINUOUS
10
104.3689019999999914
20
-62.0747789999999995
11
104.3560879999999997
21
-62.0840879999999942
0
LINE
8
BLACK
6
CONTINUOUS
10
104.3560879999999997
20
-62.0840879999999942
11
104.3467789999999979
21
-62.096902
0
LINE
8
BLACK
6
CONTINUOUS
10
104.3467789999999979
20
-62.096902
11
104.3317149999999884
21
-62.1017960000000002
0
LINE
8
BLACK
6
CONTINUOUS
10
104.3317149999999884
20
-62.1017960000000002
11
104.3189019999999942
21
-62.1111059999999995
0
LINE
8
BLACK
6
CONTINUOUS
10
104.3189019999999942
20
-62.1111059999999995
11
104.3030629999999945
21
-62.1111059999999995
0
LINE
8
BLACK
6
CONTINUOUS
10
104.3030629999999945
20
-62.1111059999999995
11
104.2879999999999967
21
-62.1159999999999997
0
LINE
8
BLACK
6
CONTINUOUS
10
104.2879999999999967
20
-62.1159999999999997
11
99.2079999999999984
21
-62.1159999999999997
0
LINE
8
BLACK
6
CONTINUOUS
10
99.2079999999999984
20
-62.1159999999999997
11
99.1929370000000006
21
-62.1111059999999995
0
LINE
8
BLACK
6
CONTINUOUS
10
99.1929370000000006
20
-62.1111059999999995
11
99.1770980000000009
21
-62.1111059999999995
0
LINE
8
BLACK
6
CONTINUOUS
10
99.1770980000000009
20
-62.1111059999999995
11
99.164283999999995
21
-62.1017960000000002
0
LINE
8
BLACK
6
CONTINUOUS
10
99.164283999999995
20
-62.1017960000000002
11
99.1492209999999972
21
-62.096902
0
LINE
8
BLACK
6
CONTINUOUS
10
99.1492209999999972
20
-62.096902
11
99.1399109999999979
21
-62.0840879999999942
0
LINE
8
BLACK
6
CONTINUOUS
10
99.1399109999999979
20
-62.0840879999999942
11
99.1270979999999895
21
-62.0747789999999995
0
LINE
8
BLACK
6
CONTINUOUS
10
99.1270979999999895
20
-62.0747789999999995
11
99.122202999999999
21
-62.0597149999999971
0
LINE
8
BLACK
6
CONTINUOUS
10
99.122202999999999
20
-62.0597149999999971
11
99.1128939999999972
21
-62.0469019999999958
0
LINE
8
BLACK
6
CONTINUOUS
10
99.1128939999999972
20
-62.0469019999999958
11
99.1128939999999972
21
-62.0310619999999986
0
LINE
8
BLACK
6
CONTINUOUS
10
99.1128939999999972
20
-62.0310619999999986
11
99.1079999999999899
21
-62.0159999999999982
0
LINE
8
BLACK
6
CONTINUOUS
10
99.1079999999999899
20
-62.0159999999999982
11
99.1079999999999899
21
-61.4759999999999991
0
LINE
8
BLACK
6
CONTINUOUS
10
99.1079999999999899
20
-61.4759999999999991
11
99.1270979999999895
21
-61.4172209999999978
0
LINE
8
BLACK
6
CONTINUOUS
10
99.1270979999999895
20
-61.4172209999999978
11
99.1770980000000009
21
-61.3808939999999978
0
LINE
8
BLACK
6
CONTINUOUS
10
99.1770980000000009
20
-61.3808939999999978
11
99.238901999999996
21
-61.3808939999999978
0
LINE
8
BLACK
6
CONTINUOUS
10
99.238901999999996
20
-61.3808939999999978
11
99.2889019999999931
21
-61.4172209999999978
0
LINE
8
BLACK
6
CONTINUOUS
10
97.5480000000000018
20
-60.6593969999999985
11
97.5846030000000013
21
-60.695999999999998
0
LINE
8
BLACK
6
CONTINUOUS
10
97.5846030000000013
20
-60.695999999999998
11
97.597999999999999
21
-60.7459999999999951
0
LINE
8
BLACK
6
CONTINUOUS
10
97.597999999999999
20
-60.7459999999999951
11
97.5846030000000013
21
-60.7959999999999994
0
LINE
8
BLACK
6
CONTINUOUS
10
97.5846030000000013
20
-60.7959999999999994
11
97.5480000000000018
21
-60.8326029999999989
0
LINE
8
BLACK
6
CONTINUOUS
10
97.5480000000000018
20
-60.8326029999999989
11
97.4979999999999905
21
-60.8459999999999965
0
LINE
8
BLACK
6
CONTINUOUS
10
97.4979999999999905
20
-60.8459999999999965
11
97.4479999999999933
21
-60.8326029999999989
0
LINE
8
BLACK
6
CONTINUOUS
10
97.4479999999999933
20
-60.8326029999999989
11
97.4113969999999938
21
-60.7959999999999994
0
LINE
8
BLACK
6
CONTINUOUS
10
97.4113969999999938
20
-60.7959999999999994
11
97.3979999999999961
21
-60.7459999999999951
0
LINE
8
BLACK
6
CONTINUOUS
10
97.3979999999999961
20
-60.7459999999999951
11
97.4113969999999938
21
-60.695999999999998
0
LINE
8
BLACK
6
CONTINUOUS
10
97.4113969999999938
20
-60.695999999999998
11
97.4479999999999933
21
-60.6593969999999985
0
LINE
8
BLACK
6
CONTINUOUS
10
97.4479999999999933
20
-60.6593969999999985
11
97.4979999999999905
21
-60.6460000000000008
0
LINE
8
BLACK
6
CONTINUOUS
10
97.4979999999999905
20
-60.6460000000000008
11
97.5480000000000018
21
-60.6593969999999985
0
LINE
8
BLACK
6
CONTINUOUS
10
104.3030629999999945
20
-56.8408939999999987
11
104.3189019999999942
21
-56.8408939999999987
0
LINE
8
BLACK
6
CONTINUOUS
10
104.3189019999999942
20
-56.8408939999999987
11
104.3317149999999884
21
-56.8502030000000005
0
LINE
8
BLACK
6
CONTINUOUS
10
104.3317149999999884
20
-56.8502030000000005
11
104.3467789999999979
21
-56.8550979999999981
0
LINE
8
BLACK
6
CONTINUOUS
10
104.3467789999999979
20
-56.8550979999999981
11
104.3560879999999997
21
-56.8679109999999994
0
LINE
8
BLACK
6
CONTINUOUS
10
104.3560879999999997
20
-56.8679109999999994
11
104.3689019999999914
21
-56.8772209999999987
0
LINE
8
BLACK
6
CONTINUOUS
10
104.3689019999999914
20
-56.8772209999999987
11
104.3737959999999987
21
-56.8922839999999965
0
LINE
8
BLACK
6
CONTINUOUS
10
104.3737959999999987
20
-56.8922839999999965
11
104.3831059999999979
21
-56.9050979999999953
0
LINE
8
BLACK
6
CONTINUOUS
10
104.3831059999999979
20
-56.9050979999999953
11
104.3831059999999979
21
-56.920936999999995
0
LINE
8
BLACK
6
CONTINUOUS
10
104.3831059999999979
20
-56.920936999999995
11
104.387999999999991
21
-56.9359999999999999
0
LINE
8
BLACK
6
CONTINUOUS
10
104.387999999999991
20
-56.9359999999999999
11
104.387999999999991
21
-57.4759999999999991
0
LINE
8
BLACK
6
CONTINUOUS
10
104.387999999999991
20
-57.4759999999999991
11
104.3689019999999914
21
-57.5347790000000003
0
LINE
8
BLACK
6
CONTINUOUS
10
104.3689019999999914
20
-57.5347790000000003
11
104.3189019999999942
21
-57.5711060000000003
0
LINE
8
BLACK
6
CONTINUOUS
10
104.3189019999999942
20
-57.5711060000000003
11
104.2570979999999992
21
-57.5711060000000003
0
LINE
8
BLACK
6
CONTINUOUS
10
104.2570979999999992
20
-57.5711060000000003
11
104.207098000000002
21
-57.5347790000000003
0
LINE
8
BLACK
6
CONTINUOUS
10
104.207098000000002
20
-57.5347790000000003
11
104.1880000000000024
21
-57.4759999999999991
0
LINE
8
BLACK
6
CONTINUOUS
10
104.1880000000000024
20
-57.4759999999999991
11
104.1880000000000024
21
-57.0359999999999943
0
LINE
8
BLACK
6
CONTINUOUS
10
104.1880000000000024
20
-57.0359999999999943
11
99.3079999999999927
21
-57.0359999999999943
0
LINE
8
BLACK
6
CONTINUOUS
10
99.3079999999999927
20
-57.0359999999999943
11
99.3079999999999927
21
-57.4759999999999991
0
LINE
8
BLACK
6
CONTINUOUS
10
99.3079999999999927
20
-57.4759999999999991
11
99.2889019999999931
21
-57.5347790000000003
0
LINE
8
BLACK
6
CONTINUOUS
10
99.2889019999999931
20
-57.5347790000000003
11
99.238901999999996
21
-57.5711060000000003
0
LINE
8
BLACK
6
CONTINUOUS
10
99.238901999999996
20
-57.5711060000000003
11
99.1770980000000009
21
-57.5711060000000003
0
LINE
8
BLACK
6
CONTINUOUS
10
99.1770980000000009
20
-57.5711060000000003
11
99.1270979999999895
21
-57.5347790000000003
0
LINE
8
BLACK
6
CONTINUOUS
10
99.1270979999999895
20
-57.5347790000000003
11
99.1079999999999899
21
-57.4759999999999991
0
LINE
8
BLACK
6
CONTINUOUS
10
99.1079999999999899
20
-57.4759999999999991
11
99.1079999999999899
21
-56.9359999999999999
0
LINE
8
BLACK
6
CONTINUOUS
10
99.1079999999999899
20
-56.9359999999999999
11
99.1128939999999972
21
-56.920936999999995
0
LINE
8
BLACK
6
CONTINUOUS
10
99.1128939999999972
20
-56.920936999999995
11
99.1128939999999972
21
-56.9050979999999953
0
LINE
8
BLACK
6
CONTINUOUS
10
99.1128939999999972
20
-56.9050979999999953
11
99.122202999999999
21
-56.8922839999999965
0
LINE
8
BLACK
6
CONTINUOUS
10
99.122202999999999
20
-56.8922839999999965
11
99.1270979999999895
21
-56.8772209999999987
0
LINE
8
BLACK
6
CONTINUOUS
10
99.1270979999999895
20
-56.8772209999999987
11
99.1399109999999979
21
-56.8679109999999994
0
LINE
8
BLACK
6
CONTINUOUS
10
99.1399109999999979
20
-56.8679109999999994
11
99.1492209999999972
21
-56.8550979999999981
0
LINE
8
BLACK
6
CONTINUOUS
10
99.1492209999999972
20
-56.8550979999999981
11
99.164283999999995
21
-56.8502030000000005
0
LINE
8
BLACK
6
CONTINUOUS
10
99.164283999999995
20
-56.8502030000000005
11
99.1770980000000009
21
-56.8408939999999987
0
LINE
8
BLACK
6
CONTINUOUS
10
99.1770980000000009
20
-56.8408939999999987
11
99.1929370000000006
21
-56.8408939999999987
0
LINE
8
BLACK
6
CONTINUOUS
10
99.1929370000000006
20
-56.8408939999999987
11
99.2079999999999984
21
-56.8359999999999985
0
LINE
8
BLACK
6
CONTINUOUS
10
99.2079999999999984
20
-56.8359999999999985
11
104.2879999999999967
21
-56.8359999999999985
0
LINE
8
BLACK
6
CONTINUOUS
10
104.2879999999999967
20
-56.8359999999999985
11
104.3030629999999945
21
-56.8408939999999987
  0
ENDSEC
  0
EOF
