<?xml version="1.0" standalone="no"?>
 <!DOCTYPE svg PUBLIC "-//W3C//DTD SVG 1.1//EN" 
 "http://www.w3.org/Graphics/SVG/1.1/DTD/svg11.dtd"> 
<svg
  xmlns:svg="http://www.w3.org/2000/svg"
  xmlns="http://www.w3.org/2000/svg"
  xmlns:xlink="http://www.w3.org/1999/xlink"
  version="1.1"
  width="210.007200mm" height="148.005800mm" viewBox="0.000000 0.000000 210.007200 148.005800">
<title>SVG Image created as PQ_MagYBoard-Edge_Cuts.svg date 2024/01/09 12:01:05 </title>
  <desc>Image generated by PCBNEW </desc>
<g style="fill:#000000; fill-opacity:1.000000;stroke:#000000; stroke-opacity:1.000000;
stroke-linecap:round; stroke-linejoin:round;"
 transform="translate(0 0) scale(1 1)">
</g>
<g style="fill:#000000; fill-opacity:0.0; 
stroke:#000000; stroke-width:0.000000; stroke-opacity:1; 
stroke-linecap:round; stroke-linejoin:round;">
</g>
<g style="fill:#000000; fill-opacity:0.0; 
stroke:#000000; stroke-width:0.254000; stroke-opacity:1; 
stroke-linecap:round; stroke-linejoin:round;">
<path d="M94.748000 78.746000
L108.748000 78.746000
" />
</g>
<g style="fill:#000000; fill-opacity:0.0; 
stroke:#000000; stroke-width:0.250000; stroke-opacity:1; 
stroke-linecap:round; stroke-linejoin:round;">
<path d="M81.748000 38.246000 A2.500000 2.500000 0.0 0 0 79.248000 40.746000" />
<path d="M121.748000 83.246000
L116.748000 83.246000
" />
<path d="M80.248000 73.746000
L80.248000 47.746000
" />
<path d="M114.748000 39.246000
L116.748000 38.246000
" />
<path d="M81.748000 38.246000
L86.748000 38.246000
" />
<path d="M116.748000 38.246000
L121.748000 38.246000
" />
<path d="M88.748000 39.246000
L114.748000 39.246000
" />
<path d="M123.248000 47.746000
L124.248000 45.746000
" />
<path d="M123.248000 47.746000
L123.248000 73.746000
" />
<path d="M121.748000 83.246000 A2.500000 2.500000 0.0 0 0 124.248000 80.746000" />
<path d="M86.748000 83.246000
L81.748000 83.246000
" />
<path d="M79.248000 80.746000 A2.500000 2.500000 0.0 0 0 81.748000 83.246000" />
<path d="M94.748000 78.746000
L86.748000 83.246000
" />
<path d="M123.248000 73.746000
L124.248000 75.746000
" />
<path d="M124.248000 75.746000
L124.248000 80.746000
" />
<path d="M108.748000 78.746000
L116.748000 83.246000
" />
<path d="M80.248000 47.746000
L79.248000 45.746000
" />
<path d="M86.748000 38.246000
L88.748000 39.246000
" />
<path d="M124.248000 40.746000 A2.500000 2.500000 0.0 0 0 121.748000 38.246000" />
<path d="M79.248000 45.746000
L79.248000 40.746000
" />
<path d="M79.248000 80.746000
L79.248000 75.746000
" />
<path d="M124.248000 40.746000
L124.248000 45.746000
" />
<path d="M80.248000 73.746000
L79.248000 75.746000
" />
<g >
</g>
<g >
</g>
<g >
</g>
<g >
</g>
<g >
</g>
<g >
</g>
<g >
</g>
<g >
</g>
<g >
</g>
<g >
</g>
<g >
</g>
<g >
</g>
<g >
</g>
</g> 
</svg>
