  0
SECTION
  2
HEADER
  9
$ANGBASE
  50
0.0
  9
$ANGDIR
  70
1
  9
$MEASUREMENT
  70
1
  0
ENDSEC
  0
SECTION
  2
TABLES
  0
TABLE
  2
LTYPE
  70
4
  0
LTYPE
  5
40F
  2
CONTINUOUS
  70
0
  3
Solid line
  72
65
  73
0
  40
0.0
  0
LTYPE
  5
410
  2
DASHDOT
 70
0
  3
Dash Dot ____ _ ____ _
 72
65
 73
4
 40
2.0
 49
1.25
 49
-0.25
 49
0.25
 49
-0.25
  0
LTYPE
  5
411
  2
DASHED
 70
0
  3
Dashed __ __ __ __ __
 72
65
 73
2
 40
0.75
 49
0.5
 49
-0.25
  0
LTYPE
  5
43B
  2
DOTTED
 70
0
  3
Dotted .  .  .  .
 72
65
 73
2
 40
0.2
 49
0.0
 49
-0.2
  0
ENDTAB
  0
TABLE
  2
STYLE
  70
4
  0
STYLE
  2
KICAD
  70
0
  40
0
  41
1
  42
1
  50
0
  71
0
  3
isocp.shx
  0
STYLE
  2
KICADB
  70
0
  40
0
  41
1
  42
1
  50
0
  71
0
  3
isocp.shx
  0
STYLE
  2
KICADI
  70
0
  40
0
  41
1
  42
1
  50
15
  71
0
  3
isocp.shx
  0
STYLE
  2
KICADBI
  70
0
  40
0
  41
1
  42
1
  50
15
  71
0
  3
isocp.shx
  0
ENDTAB
  0
TABLE
  2
LAYER
  70
1
  0
LAYER
  2
BLACK
  70
0
  62
7
  6
CONTINUOUS
  0
ENDTAB
  0
ENDSEC
  0
SECTION
  2
ENTITIES
0
LINE
8
BLACK
6
CONTINUOUS
10
86.7832169999999934
20
-38.1260629999999949
11
86.7927509999999955
21
-38.1321900000000014
0
LINE
8
BLACK
6
CONTINUOUS
10
86.7927509999999955
20
-38.1321900000000014
11
86.8039019999999937
21
-38.1341970000000003
0
LINE
8
BLACK
6
CONTINUOUS
10
86.8039019999999937
20
-38.1341970000000003
11
88.7775079999999974
21
-39.1209999999999951
0
LINE
8
BLACK
6
CONTINUOUS
10
88.7775079999999974
20
-39.1209999999999951
11
114.7184919999999977
21
-39.1209999999999951
0
LINE
8
BLACK
6
CONTINUOUS
10
114.7184919999999977
20
-39.1209999999999951
11
116.6920980000000014
21
-38.1341970000000003
0
LINE
8
BLACK
6
CONTINUOUS
10
116.6920980000000014
20
-38.1341970000000003
11
116.7258619999999922
21
-38.1229760000000013
0
LINE
8
BLACK
6
CONTINUOUS
10
116.7258619999999922
20
-38.1229760000000013
11
116.737127000000001
21
-38.1241920000000007
0
LINE
8
BLACK
6
CONTINUOUS
10
116.737127000000001
20
-38.1241920000000007
11
116.7479999999999905
21
-38.1209999999999951
0
LINE
8
BLACK
6
CONTINUOUS
10
116.7479999999999905
20
-38.1209999999999951
11
121.7479999999999905
21
-38.1209999999999951
0
LINE
8
BLACK
6
CONTINUOUS
10
121.7479999999999905
20
-38.1209999999999951
11
122.0419069999999948
21
-38.1375049999999973
0
LINE
8
BLACK
6
CONTINUOUS
10
122.0419069999999948
20
-38.1375049999999973
11
122.3321169999999967
21
-38.1868139999999983
0
LINE
8
BLACK
6
CONTINUOUS
10
122.3321169999999967
20
-38.1868139999999983
11
122.6149829999999952
21
-38.2683059999999955
0
LINE
8
BLACK
6
CONTINUOUS
10
122.6149829999999952
20
-38.2683059999999955
11
122.8869449999999972
21
-38.3809569999999951
0
LINE
8
BLACK
6
CONTINUOUS
10
122.8869449999999972
20
-38.3809569999999951
11
123.1445839999999947
21
-38.5233489999999961
0
LINE
8
BLACK
6
CONTINUOUS
10
123.1445839999999947
20
-38.5233489999999961
11
123.3846609999999941
21
-38.6936919999999986
0
LINE
8
BLACK
6
CONTINUOUS
10
123.3846609999999941
20
-38.6936919999999986
11
123.6041549999999916
21
-38.8898450000000011
0
LINE
8
BLACK
6
CONTINUOUS
10
123.6041549999999916
20
-38.8898450000000011
11
123.8003080000000011
21
-39.1093389999999985
0
LINE
8
BLACK
6
CONTINUOUS
10
123.8003080000000011
20
-39.1093389999999985
11
123.9706509999999895
21
-39.349415999999998
0
LINE
8
BLACK
6
CONTINUOUS
10
123.9706509999999895
20
-39.349415999999998
11
124.1130429999999905
21
-39.6070549999999955
0
LINE
8
BLACK
6
CONTINUOUS
10
124.1130429999999905
20
-39.6070549999999955
11
124.2256939999999901
21
-39.8790169999999975
0
LINE
8
BLACK
6
CONTINUOUS
10
124.2256939999999901
20
-39.8790169999999975
11
124.3071859999999873
21
-40.161882999999996
0
LINE
8
BLACK
6
CONTINUOUS
10
124.3071859999999873
20
-40.161882999999996
11
124.3564949999999953
21
-40.4520929999999979
0
LINE
8
BLACK
6
CONTINUOUS
10
124.3564949999999953
20
-40.4520929999999979
11
124.3729999999999905
21
-40.7459999999999951
0
LINE
8
BLACK
6
CONTINUOUS
10
124.3729999999999905
20
-40.7459999999999951
11
124.3729999999999905
21
-45.7459999999999951
0
LINE
8
BLACK
6
CONTINUOUS
10
124.3729999999999905
20
-45.7459999999999951
11
124.3679369999999977
21
-45.7812169999999981
0
LINE
8
BLACK
6
CONTINUOUS
10
124.3679369999999977
20
-45.7812169999999981
11
124.3618089999999938
21
-45.7907510000000002
0
LINE
8
BLACK
6
CONTINUOUS
10
124.3618089999999938
20
-45.7907510000000002
11
124.3598029999999994
21
-45.8019019999999983
0
LINE
8
BLACK
6
CONTINUOUS
10
124.3598029999999994
20
-45.8019019999999983
11
123.3729999999999905
21
-47.775507999999995
0
LINE
8
BLACK
6
CONTINUOUS
10
123.3729999999999905
20
-47.775507999999995
11
123.3729999999999905
21
-73.7164920000000023
0
LINE
8
BLACK
6
CONTINUOUS
10
123.3729999999999905
20
-73.7164920000000023
11
124.3598029999999994
21
-75.6900979999999919
0
LINE
8
BLACK
6
CONTINUOUS
10
124.3598029999999994
20
-75.6900979999999919
11
124.3710239999999914
21
-75.7238619999999969
0
LINE
8
BLACK
6
CONTINUOUS
10
124.3710239999999914
20
-75.7238619999999969
11
124.3698069999999944
21
-75.7351269999999914
0
LINE
8
BLACK
6
CONTINUOUS
10
124.3698069999999944
20
-75.7351269999999914
11
124.3729999999999905
21
-75.7459999999999951
0
LINE
8
BLACK
6
CONTINUOUS
10
124.3729999999999905
20
-75.7459999999999951
11
124.3729999999999905
21
-80.7459999999999951
0
LINE
8
BLACK
6
CONTINUOUS
10
124.3729999999999905
20
-80.7459999999999951
11
124.3564949999999953
21
-81.0399069999999995
0
LINE
8
BLACK
6
CONTINUOUS
10
124.3564949999999953
20
-81.0399069999999995
11
124.3071859999999873
21
-81.3301170000000013
0
LINE
8
BLACK
6
CONTINUOUS
10
124.3071859999999873
20
-81.3301170000000013
11
124.2256939999999901
21
-81.6129829999999998
0
LINE
8
BLACK
6
CONTINUOUS
10
124.2256939999999901
20
-81.6129829999999998
11
124.1130429999999905
21
-81.8849450000000019
0
LINE
8
BLACK
6
CONTINUOUS
10
124.1130429999999905
20
-81.8849450000000019
11
123.9706509999999895
21
-82.1425839999999994
0
LINE
8
BLACK
6
CONTINUOUS
10
123.9706509999999895
20
-82.1425839999999994
11
123.8003080000000011
21
-82.3826609999999988
0
LINE
8
BLACK
6
CONTINUOUS
10
123.8003080000000011
20
-82.3826609999999988
11
123.6041549999999916
21
-82.6021549999999962
0
LINE
8
BLACK
6
CONTINUOUS
10
123.6041549999999916
20
-82.6021549999999962
11
123.3846609999999941
21
-82.7983079999999916
0
LINE
8
BLACK
6
CONTINUOUS
10
123.3846609999999941
20
-82.7983079999999916
11
123.1445839999999947
21
-82.9686509999999942
0
LINE
8
BLACK
6
CONTINUOUS
10
123.1445839999999947
20
-82.9686509999999942
11
122.8869449999999972
21
-83.1110429999999951
0
LINE
8
BLACK
6
CONTINUOUS
10
122.8869449999999972
20
-83.1110429999999951
11
122.6149829999999952
21
-83.2236939999999947
0
LINE
8
BLACK
6
CONTINUOUS
10
122.6149829999999952
20
-83.2236939999999947
11
122.3321169999999967
21
-83.305185999999992
0
LINE
8
BLACK
6
CONTINUOUS
10
122.3321169999999967
20
-83.305185999999992
11
122.0419069999999948
21
-83.354495
0
LINE
8
BLACK
6
CONTINUOUS
10
122.0419069999999948
20
-83.354495
11
121.7479999999999905
21
-83.3709999999999951
0
LINE
8
BLACK
6
CONTINUOUS
10
121.7479999999999905
20
-83.3709999999999951
11
116.7479999999999905
21
-83.3709999999999951
0
LINE
8
BLACK
6
CONTINUOUS
10
116.7479999999999905
20
-83.3709999999999951
11
116.7127830000000017
21
-83.3659370000000024
0
LINE
8
BLACK
6
CONTINUOUS
10
116.7127830000000017
20
-83.3659370000000024
11
116.7007040000000018
21
-83.3581739999999911
0
LINE
8
BLACK
6
CONTINUOUS
10
116.7007040000000018
20
-83.3581739999999911
11
116.6867170000000016
21
-83.3549469999999957
0
LINE
8
BLACK
6
CONTINUOUS
10
116.6867170000000016
20
-83.3549469999999957
11
108.7188109999999881
21
-78.8729999999999905
0
LINE
8
BLACK
6
CONTINUOUS
10
108.7188109999999881
20
-78.8729999999999905
11
94.7771889999999928
21
-78.8729999999999905
0
LINE
8
BLACK
6
CONTINUOUS
10
94.7771889999999928
20
-78.8729999999999905
11
86.8092829999999935
21
-83.3549469999999957
0
LINE
8
BLACK
6
CONTINUOUS
10
86.8092829999999935
20
-83.3549469999999957
11
86.7761059999999986
21
-83.3678000000000026
0
LINE
8
BLACK
6
CONTINUOUS
10
86.7761059999999986
20
-83.3678000000000026
11
86.7617719999999935
21
-83.3669560000000018
0
LINE
8
BLACK
6
CONTINUOUS
10
86.7617719999999935
20
-83.3669560000000018
11
86.7479999999999905
21
-83.3709999999999951
0
LINE
8
BLACK
6
CONTINUOUS
10
86.7479999999999905
20
-83.3709999999999951
11
81.7479999999999905
21
-83.3709999999999951
0
LINE
8
BLACK
6
CONTINUOUS
10
81.7479999999999905
20
-83.3709999999999951
11
81.4540930000000003
21
-83.354495
0
LINE
8
BLACK
6
CONTINUOUS
10
81.4540930000000003
20
-83.354495
11
81.1638829999999984
21
-83.305185999999992
0
LINE
8
BLACK
6
CONTINUOUS
10
81.1638829999999984
20
-83.305185999999992
11
80.8810169999999999
21
-83.2236939999999947
0
LINE
8
BLACK
6
CONTINUOUS
10
80.8810169999999999
20
-83.2236939999999947
11
80.6090549999999979
21
-83.1110429999999951
0
LINE
8
BLACK
6
CONTINUOUS
10
80.6090549999999979
20
-83.1110429999999951
11
80.3514160000000004
21
-82.9686509999999942
0
LINE
8
BLACK
6
CONTINUOUS
10
80.3514160000000004
20
-82.9686509999999942
11
80.111339000000001
21
-82.7983079999999916
0
LINE
8
BLACK
6
CONTINUOUS
10
80.111339000000001
20
-82.7983079999999916
11
79.8918449999999893
21
-82.6021549999999962
0
LINE
8
BLACK
6
CONTINUOUS
10
79.8918449999999893
20
-82.6021549999999962
11
79.695691999999994
21
-82.3826609999999988
0
LINE
8
BLACK
6
CONTINUOUS
10
79.695691999999994
20
-82.3826609999999988
11
79.5253489999999914
21
-82.1425839999999994
0
LINE
8
BLACK
6
CONTINUOUS
10
79.5253489999999914
20
-82.1425839999999994
11
79.3829569999999904
21
-81.8849450000000019
0
LINE
8
BLACK
6
CONTINUOUS
10
79.3829569999999904
20
-81.8849450000000019
11
79.2703059999999908
21
-81.6129829999999998
0
LINE
8
BLACK
6
CONTINUOUS
10
79.2703059999999908
20
-81.6129829999999998
11
79.1888139999999936
21
-81.3301170000000013
0
LINE
8
BLACK
6
CONTINUOUS
10
79.1888139999999936
20
-81.3301170000000013
11
79.1395049999999998
21
-81.0399069999999995
0
LINE
8
BLACK
6
CONTINUOUS
10
79.1395049999999998
20
-81.0399069999999995
11
79.1229999999999905
21
-80.7459999999999951
0
LINE
8
BLACK
6
CONTINUOUS
10
79.1229999999999905
20
-80.7459999999999951
11
79.1229999999999905
21
-75.7459999999999951
0
LINE
8
BLACK
6
CONTINUOUS
10
79.1229999999999905
20
-75.7459999999999951
11
79.1280629999999974
21
-75.7107829999999922
0
LINE
8
BLACK
6
CONTINUOUS
10
79.1280629999999974
20
-75.7107829999999922
11
79.1341899999999896
21
-75.7012479999999925
0
LINE
8
BLACK
6
CONTINUOUS
10
79.1341899999999896
20
-75.7012479999999925
11
79.1361969999999957
21
-75.6900979999999919
0
LINE
8
BLACK
6
CONTINUOUS
10
79.1361969999999957
20
-75.6900979999999919
11
80.1229999999999905
21
-73.7164920000000023
0
LINE
8
BLACK
6
CONTINUOUS
10
80.1229999999999905
20
-73.7164920000000023
11
80.1229999999999905
21
-47.775507999999995
0
LINE
8
BLACK
6
CONTINUOUS
10
80.1229999999999905
20
-47.775507999999995
11
79.1361969999999957
21
-45.8019019999999983
0
LINE
8
BLACK
6
CONTINUOUS
10
79.1361969999999957
20
-45.8019019999999983
11
79.1249759999999895
21
-45.7681380000000004
0
LINE
8
BLACK
6
CONTINUOUS
10
79.1249759999999895
20
-45.7681380000000004
11
79.1261920000000032
21
-45.7568720000000013
0
LINE
8
BLACK
6
CONTINUOUS
10
79.1261920000000032
20
-45.7568720000000013
11
79.1229999999999905
21
-45.7459999999999951
0
LINE
8
BLACK
6
CONTINUOUS
10
79.1229999999999905
20
-45.7459999999999951
11
79.1229999999999905
21
-40.7459999999999951
0
LINE
8
BLACK
6
CONTINUOUS
10
79.1229999999999905
20
-40.7459999999999951
11
79.1395049999999998
21
-40.4520929999999979
0
LINE
8
BLACK
6
CONTINUOUS
10
79.1395049999999998
20
-40.4520929999999979
11
79.1888139999999936
21
-40.161882999999996
0
LINE
8
BLACK
6
CONTINUOUS
10
79.1888139999999936
20
-40.161882999999996
11
79.2703059999999908
21
-39.8790169999999975
0
LINE
8
BLACK
6
CONTINUOUS
10
79.2703059999999908
20
-39.8790169999999975
11
79.3829569999999904
21
-39.6070549999999955
0
LINE
8
BLACK
6
CONTINUOUS
10
79.3829569999999904
20
-39.6070549999999955
11
79.5253489999999914
21
-39.349415999999998
0
LINE
8
BLACK
6
CONTINUOUS
10
79.5253489999999914
20
-39.349415999999998
11
79.695691999999994
21
-39.1093389999999985
0
LINE
8
BLACK
6
CONTINUOUS
10
79.695691999999994
20
-39.1093389999999985
11
79.8918449999999893
21
-38.8898450000000011
0
LINE
8
BLACK
6
CONTINUOUS
10
79.8918449999999893
20
-38.8898450000000011
11
80.111339000000001
21
-38.6936919999999986
0
LINE
8
BLACK
6
CONTINUOUS
10
80.111339000000001
20
-38.6936919999999986
11
80.3514160000000004
21
-38.5233489999999961
0
LINE
8
BLACK
6
CONTINUOUS
10
80.3514160000000004
20
-38.5233489999999961
11
80.6090549999999979
21
-38.3809569999999951
0
LINE
8
BLACK
6
CONTINUOUS
10
80.6090549999999979
20
-38.3809569999999951
11
80.8810169999999999
21
-38.2683059999999955
0
LINE
8
BLACK
6
CONTINUOUS
10
80.8810169999999999
20
-38.2683059999999955
11
81.1638829999999984
21
-38.1868139999999983
0
LINE
8
BLACK
6
CONTINUOUS
10
81.1638829999999984
20
-38.1868139999999983
11
81.4540930000000003
21
-38.1375049999999973
0
LINE
8
BLACK
6
CONTINUOUS
10
81.4540930000000003
20
-38.1375049999999973
11
81.7479999999999905
21
-38.1209999999999951
0
LINE
8
BLACK
6
CONTINUOUS
10
81.7479999999999905
20
-38.1209999999999951
11
86.7479999999999905
21
-38.1209999999999951
0
LINE
8
BLACK
6
CONTINUOUS
10
86.7479999999999905
20
-38.1209999999999951
11
86.7832169999999934
21
-38.1260629999999949
0
LINE
8
BLACK
6
CONTINUOUS
10
81.7479999999999905
20
-38.3709999999999951
11
81.604338999999996
21
-38.3709999999999951
0
LINE
8
BLACK
6
CONTINUOUS
10
81.604338999999996
20
-38.3709999999999951
11
81.3191119999999898
21
-38.4056330000000017
0
LINE
8
BLACK
6
CONTINUOUS
10
81.3191119999999898
20
-38.4056330000000017
11
81.0401389999999964
21
-38.4743929999999992
0
LINE
8
BLACK
6
CONTINUOUS
10
81.0401389999999964
20
-38.4743929999999992
11
80.7714879999999908
21
-38.5762789999999995
0
LINE
8
BLACK
6
CONTINUOUS
10
80.7714879999999908
20
-38.5762789999999995
11
80.5170770000000005
21
-38.7098049999999958
0
LINE
8
BLACK
6
CONTINUOUS
10
80.5170770000000005
20
-38.7098049999999958
11
80.2806159999999949
21
-38.8730219999999989
0
LINE
8
BLACK
6
CONTINUOUS
10
80.2806159999999949
20
-38.8730219999999989
11
80.0655519999999967
21
-39.0635520000000014
0
LINE
8
BLACK
6
CONTINUOUS
10
80.0655519999999967
20
-39.0635520000000014
11
79.8750220000000013
21
-39.2786159999999995
0
LINE
8
BLACK
6
CONTINUOUS
10
79.8750220000000013
20
-39.2786159999999995
11
79.7118049999999982
21
-39.515076999999998
0
LINE
8
BLACK
6
CONTINUOUS
10
79.7118049999999982
20
-39.515076999999998
11
79.5782789999999949
21
-39.7694879999999955
0
LINE
8
BLACK
6
CONTINUOUS
10
79.5782789999999949
20
-39.7694879999999955
11
79.4763930000000016
21
-40.038139000000001
0
LINE
8
BLACK
6
CONTINUOUS
10
79.4763930000000016
20
-40.038139000000001
11
79.4076329999999899
21
-40.3171120000000016
0
LINE
8
BLACK
6
CONTINUOUS
10
79.4076329999999899
20
-40.3171120000000016
11
79.3729999999999905
21
-40.6023390000000006
0
LINE
8
BLACK
6
CONTINUOUS
10
79.3729999999999905
20
-40.6023390000000006
11
79.3729999999999905
21
-40.7459999999999951
0
LINE
8
BLACK
6
CONTINUOUS
10
79.3729999999999905
20
-40.7459999999999951
11
79.3729999999999905
21
-45.7164919999999952
0
LINE
8
BLACK
6
CONTINUOUS
10
79.3729999999999905
20
-45.7164919999999952
11
80.3598029999999994
21
-47.690097999999999
0
LINE
8
BLACK
6
CONTINUOUS
10
80.3598029999999994
20
-47.690097999999999
11
80.3710239999999914
21
-47.7238619999999969
0
LINE
8
BLACK
6
CONTINUOUS
10
80.3710239999999914
20
-47.7238619999999969
11
80.3698069999999944
21
-47.7351269999999985
0
LINE
8
BLACK
6
CONTINUOUS
10
80.3698069999999944
20
-47.7351269999999985
11
80.3729999999999905
21
-47.7459999999999951
0
LINE
8
BLACK
6
CONTINUOUS
10
80.3729999999999905
20
-47.7459999999999951
11
80.3729999999999905
21
-73.7459999999999951
0
LINE
8
BLACK
6
CONTINUOUS
10
80.3729999999999905
20
-73.7459999999999951
11
80.3679369999999977
21
-73.7812169999999981
0
LINE
8
BLACK
6
CONTINUOUS
10
80.3679369999999977
20
-73.7812169999999981
11
80.3618089999999938
21
-73.7907510000000002
0
LINE
8
BLACK
6
CONTINUOUS
10
80.3618089999999938
20
-73.7907510000000002
11
80.3598029999999994
21
-73.8019019999999983
0
LINE
8
BLACK
6
CONTINUOUS
10
80.3598029999999994
20
-73.8019019999999983
11
79.3729999999999905
21
-75.7755080000000021
0
LINE
8
BLACK
6
CONTINUOUS
10
79.3729999999999905
20
-75.7755080000000021
11
79.3729999999999905
21
-80.7459999999999951
0
LINE
8
BLACK
6
CONTINUOUS
10
79.3729999999999905
20
-80.7459999999999951
11
79.3729999999999905
21
-80.8896609999999896
0
LINE
8
BLACK
6
CONTINUOUS
10
79.3729999999999905
20
-80.8896609999999896
11
79.4076329999999899
21
-81.1748879999999957
0
LINE
8
BLACK
6
CONTINUOUS
10
79.4076329999999899
20
-81.1748879999999957
11
79.4763930000000016
21
-81.4538610000000034
0
LINE
8
BLACK
6
CONTINUOUS
10
79.4763930000000016
20
-81.4538610000000034
11
79.5782789999999949
21
-81.7225119999999947
0
LINE
8
BLACK
6
CONTINUOUS
10
79.5782789999999949
20
-81.7225119999999947
11
79.7118049999999982
21
-81.9769229999999993
0
LINE
8
BLACK
6
CONTINUOUS
10
79.7118049999999982
20
-81.9769229999999993
11
79.8750220000000013
21
-82.2133839999999907
0
LINE
8
BLACK
6
CONTINUOUS
10
79.8750220000000013
20
-82.2133839999999907
11
80.0655519999999967
21
-82.428448000000003
0
LINE
8
BLACK
6
CONTINUOUS
10
80.0655519999999967
20
-82.428448000000003
11
80.2806159999999949
21
-82.6189779999999985
0
LINE
8
BLACK
6
CONTINUOUS
10
80.2806159999999949
20
-82.6189779999999985
11
80.5170770000000005
21
-82.7821950000000015
0
LINE
8
BLACK
6
CONTINUOUS
10
80.5170770000000005
20
-82.7821950000000015
11
80.7714879999999908
21
-82.9157209999999907
0
LINE
8
BLACK
6
CONTINUOUS
10
80.7714879999999908
20
-82.9157209999999907
11
81.0401389999999964
21
-83.0176069999999982
0
LINE
8
BLACK
6
CONTINUOUS
10
81.0401389999999964
20
-83.0176069999999982
11
81.3191119999999898
21
-83.0863669999999956
0
LINE
8
BLACK
6
CONTINUOUS
10
81.3191119999999898
20
-83.0863669999999956
11
81.604338999999996
21
-83.1209999999999951
0
LINE
8
BLACK
6
CONTINUOUS
10
81.604338999999996
20
-83.1209999999999951
11
81.7479999999999905
21
-83.1209999999999951
0
LINE
8
BLACK
6
CONTINUOUS
10
81.7479999999999905
20
-83.1209999999999951
11
86.7152559999999966
21
-83.1209999999999951
0
LINE
8
BLACK
6
CONTINUOUS
10
86.7152559999999966
20
-83.1209999999999951
11
94.6758859999999913
21
-78.6431439999999924
0
LINE
8
BLACK
6
CONTINUOUS
10
94.6758859999999913
20
-78.6431439999999924
11
94.6793389999999988
21
-78.6391610000000014
0
LINE
8
BLACK
6
CONTINUOUS
10
94.6793389999999988
20
-78.6391610000000014
11
94.6873389999999944
21
-78.6368109999999945
0
LINE
8
BLACK
6
CONTINUOUS
10
94.6873389999999944
20
-78.6368109999999945
11
94.7198939999999965
21
-78.6242000000000019
0
LINE
8
BLACK
6
CONTINUOUS
10
94.7198939999999965
20
-78.6242000000000019
11
94.7285540000000026
21
-78.6247089999999957
0
LINE
8
BLACK
6
CONTINUOUS
10
94.7285540000000026
20
-78.6247089999999957
11
94.7479999999999905
21
-78.6189999999999998
0
LINE
8
BLACK
6
CONTINUOUS
10
94.7479999999999905
20
-78.6189999999999998
11
108.7479999999999905
21
-78.6189999999999998
0
LINE
8
BLACK
6
CONTINUOUS
10
108.7479999999999905
20
-78.6189999999999998
11
108.783779999999993
21
-78.6241440000000011
0
LINE
8
BLACK
6
CONTINUOUS
10
108.783779999999993
20
-78.6241440000000011
11
108.8008309999999881
21
-78.6351020000000034
0
LINE
8
BLACK
6
CONTINUOUS
10
108.8008309999999881
20
-78.6351020000000034
11
108.8092829999999935
21
-78.6370529999999945
0
LINE
8
BLACK
6
CONTINUOUS
10
108.8092829999999935
20
-78.6370529999999945
11
116.7807439999999986
21
-83.1209999999999951
0
LINE
8
BLACK
6
CONTINUOUS
10
116.7807439999999986
20
-83.1209999999999951
11
121.7479999999999905
21
-83.1209999999999951
0
LINE
8
BLACK
6
CONTINUOUS
10
121.7479999999999905
20
-83.1209999999999951
11
121.8916609999999991
21
-83.1209999999999951
0
LINE
8
BLACK
6
CONTINUOUS
10
121.8916609999999991
20
-83.1209999999999951
11
122.1768879999999911
21
-83.0863669999999956
0
LINE
8
BLACK
6
CONTINUOUS
10
122.1768879999999911
20
-83.0863669999999956
11
122.4558609999999987
21
-83.0176069999999982
0
LINE
8
BLACK
6
CONTINUOUS
10
122.4558609999999987
20
-83.0176069999999982
11
122.7245119999999901
21
-82.9157209999999907
0
LINE
8
BLACK
6
CONTINUOUS
10
122.7245119999999901
20
-82.9157209999999907
11
122.9789229999999947
21
-82.7821950000000015
0
LINE
8
BLACK
6
CONTINUOUS
10
122.9789229999999947
20
-82.7821950000000015
11
123.2153840000000002
21
-82.6189779999999985
0
LINE
8
BLACK
6
CONTINUOUS
10
123.2153840000000002
20
-82.6189779999999985
11
123.4304479999999984
21
-82.428448000000003
0
LINE
8
BLACK
6
CONTINUOUS
10
123.4304479999999984
20
-82.428448000000003
11
123.6209779999999938
21
-82.2133839999999907
0
LINE
8
BLACK
6
CONTINUOUS
10
123.6209779999999938
20
-82.2133839999999907
11
123.7841949999999969
21
-81.9769229999999993
0
LINE
8
BLACK
6
CONTINUOUS
10
123.7841949999999969
20
-81.9769229999999993
11
123.9177210000000002
21
-81.7225119999999947
0
LINE
8
BLACK
6
CONTINUOUS
10
123.9177210000000002
20
-81.7225119999999947
11
124.0196069999999935
21
-81.4538610000000034
0
LINE
8
BLACK
6
CONTINUOUS
10
124.0196069999999935
20
-81.4538610000000034
11
124.088366999999991
21
-81.1748879999999957
0
LINE
8
BLACK
6
CONTINUOUS
10
124.088366999999991
20
-81.1748879999999957
11
124.1229999999999905
21
-80.8896609999999896
0
LINE
8
BLACK
6
CONTINUOUS
10
124.1229999999999905
20
-80.8896609999999896
11
124.1229999999999905
21
-80.7459999999999951
0
LINE
8
BLACK
6
CONTINUOUS
10
124.1229999999999905
20
-80.7459999999999951
11
124.1229999999999905
21
-75.7755080000000021
0
LINE
8
BLACK
6
CONTINUOUS
10
124.1229999999999905
20
-75.7755080000000021
11
123.1361969999999957
21
-73.8019019999999983
0
LINE
8
BLACK
6
CONTINUOUS
10
123.1361969999999957
20
-73.8019019999999983
11
123.1249759999999895
21
-73.7681379999999933
0
LINE
8
BLACK
6
CONTINUOUS
10
123.1249759999999895
20
-73.7681379999999933
11
123.126191999999989
21
-73.7568720000000013
0
LINE
8
BLACK
6
CONTINUOUS
10
123.126191999999989
20
-73.7568720000000013
11
123.1229999999999905
21
-73.7459999999999951
0
LINE
8
BLACK
6
CONTINUOUS
10
123.1229999999999905
20
-73.7459999999999951
11
123.1229999999999905
21
-47.7459999999999951
0
LINE
8
BLACK
6
CONTINUOUS
10
123.1229999999999905
20
-47.7459999999999951
11
123.1280629999999974
21
-47.7107829999999993
0
LINE
8
BLACK
6
CONTINUOUS
10
123.1280629999999974
20
-47.7107829999999993
11
123.1341899999999896
21
-47.7012479999999996
0
LINE
8
BLACK
6
CONTINUOUS
10
123.1341899999999896
20
-47.7012479999999996
11
123.1361969999999957
21
-47.690097999999999
0
LINE
8
BLACK
6
CONTINUOUS
10
123.1361969999999957
20
-47.690097999999999
11
124.1229999999999905
21
-45.7164919999999952
0
LINE
8
BLACK
6
CONTINUOUS
10
124.1229999999999905
20
-45.7164919999999952
11
124.1229999999999905
21
-40.7459999999999951
0
LINE
8
BLACK
6
CONTINUOUS
10
124.1229999999999905
20
-40.7459999999999951
11
124.1229999999999905
21
-40.6023390000000006
0
LINE
8
BLACK
6
CONTINUOUS
10
124.1229999999999905
20
-40.6023390000000006
11
124.088366999999991
21
-40.3171120000000016
0
LINE
8
BLACK
6
CONTINUOUS
10
124.088366999999991
20
-40.3171120000000016
11
124.0196069999999935
21
-40.038139000000001
0
LINE
8
BLACK
6
CONTINUOUS
10
124.0196069999999935
20
-40.038139000000001
11
123.9177210000000002
21
-39.7694879999999955
0
LINE
8
BLACK
6
CONTINUOUS
10
123.9177210000000002
20
-39.7694879999999955
11
123.7841949999999969
21
-39.515076999999998
0
LINE
8
BLACK
6
CONTINUOUS
10
123.7841949999999969
20
-39.515076999999998
11
123.6209779999999938
21
-39.2786159999999995
0
LINE
8
BLACK
6
CONTINUOUS
10
123.6209779999999938
20
-39.2786159999999995
11
123.4304479999999984
21
-39.0635520000000014
0
LINE
8
BLACK
6
CONTINUOUS
10
123.4304479999999984
20
-39.0635520000000014
11
123.2153840000000002
21
-38.8730219999999989
0
LINE
8
BLACK
6
CONTINUOUS
10
123.2153840000000002
20
-38.8730219999999989
11
122.9789229999999947
21
-38.7098049999999958
0
LINE
8
BLACK
6
CONTINUOUS
10
122.9789229999999947
20
-38.7098049999999958
11
122.7245119999999901
21
-38.5762789999999995
0
LINE
8
BLACK
6
CONTINUOUS
10
122.7245119999999901
20
-38.5762789999999995
11
122.4558609999999987
21
-38.4743929999999992
0
LINE
8
BLACK
6
CONTINUOUS
10
122.4558609999999987
20
-38.4743929999999992
11
122.1768879999999911
21
-38.4056330000000017
0
LINE
8
BLACK
6
CONTINUOUS
10
122.1768879999999911
20
-38.4056330000000017
11
121.8916609999999991
21
-38.3709999999999951
0
LINE
8
BLACK
6
CONTINUOUS
10
121.8916609999999991
20
-38.3709999999999951
11
121.7479999999999905
21
-38.3709999999999951
0
LINE
8
BLACK
6
CONTINUOUS
10
121.7479999999999905
20
-38.3709999999999951
11
116.7775079999999974
21
-38.3709999999999951
0
LINE
8
BLACK
6
CONTINUOUS
10
116.7775079999999974
20
-38.3709999999999951
11
114.8039019999999937
21
-39.357802999999997
0
LINE
8
BLACK
6
CONTINUOUS
10
114.8039019999999937
20
-39.357802999999997
11
114.7701379999999887
21
-39.369023999999996
0
LINE
8
BLACK
6
CONTINUOUS
10
114.7701379999999887
20
-39.369023999999996
11
114.7588719999999967
21
-39.3678069999999991
0
LINE
8
BLACK
6
CONTINUOUS
10
114.7588719999999967
20
-39.3678069999999991
11
114.7479999999999905
21
-39.3709999999999951
0
LINE
8
BLACK
6
CONTINUOUS
10
114.7479999999999905
20
-39.3709999999999951
11
88.7479999999999905
21
-39.3709999999999951
0
LINE
8
BLACK
6
CONTINUOUS
10
88.7479999999999905
20
-39.3709999999999951
11
88.7127830000000017
21
-39.3659369999999953
0
LINE
8
BLACK
6
CONTINUOUS
10
88.7127830000000017
20
-39.3659369999999953
11
88.7032480000000021
21
-39.3598089999999985
0
LINE
8
BLACK
6
CONTINUOUS
10
88.7032480000000021
20
-39.3598089999999985
11
88.6920980000000014
21
-39.357802999999997
0
LINE
8
BLACK
6
CONTINUOUS
10
88.6920980000000014
20
-39.357802999999997
11
86.7184919999999977
21
-38.3709999999999951
0
LINE
8
BLACK
6
CONTINUOUS
10
86.7184919999999977
20
-38.3709999999999951
11
81.7479999999999905
21
-38.3709999999999951
  0
ENDSEC
  0
EOF
