  0
SECTION
  2
HEADER
  9
$ANGBASE
  50
0.0
  9
$ANGDIR
  70
1
  9
$MEASUREMENT
  70
1
  0
ENDSEC
  0
SECTION
  2
TABLES
  0
TABLE
  2
LTYPE
  70
4
  0
LTYPE
  5
40F
  2
CONTINUOUS
  70
0
  3
Solid line
  72
65
  73
0
  40
0.0
  0
LTYPE
  5
410
  2
DASHDOT
 70
0
  3
Dash Dot ____ _ ____ _
 72
65
 73
4
 40
2.0
 49
1.25
 49
-0.25
 49
0.25
 49
-0.25
  0
LTYPE
  5
411
  2
DASHED
 70
0
  3
Dashed __ __ __ __ __
 72
65
 73
2
 40
0.75
 49
0.5
 49
-0.25
  0
LTYPE
  5
43B
  2
DOTTED
 70
0
  3
Dotted .  .  .  .
 72
65
 73
2
 40
0.2
 49
0.0
 49
-0.2
  0
ENDTAB
  0
TABLE
  2
STYLE
  70
4
  0
STYLE
  2
KICAD
  70
0
  40
0
  41
1
  42
1
  50
0
  71
0
  3
isocp.shx
  0
STYLE
  2
KICADB
  70
0
  40
0
  41
1
  42
1
  50
0
  71
0
  3
isocp.shx
  0
STYLE
  2
KICADI
  70
0
  40
0
  41
1
  42
1
  50
15
  71
0
  3
isocp.shx
  0
STYLE
  2
KICADBI
  70
0
  40
0
  41
1
  42
1
  50
15
  71
0
  3
isocp.shx
  0
ENDTAB
  0
TABLE
  2
LAYER
  70
1
  0
LAYER
  2
BLACK
  70
0
  62
7
  6
CONTINUOUS
  0
ENDTAB
  0
ENDSEC
  0
SECTION
  2
ENTITIES
0
LINE
8
BLACK
6
CONTINUOUS
10
118.5665699999999987
20
-46.1693840000000009
11
118.583991999999995
21
-46.1693840000000009
0
LINE
8
BLACK
6
CONTINUOUS
10
118.583991999999995
20
-46.1693840000000009
11
118.598085999999995
21
-46.1796239999999969
0
LINE
8
BLACK
6
CONTINUOUS
10
118.598085999999995
20
-46.1796239999999969
11
118.6146559999999965
21
-46.1850079999999963
0
LINE
8
BLACK
6
CONTINUOUS
10
118.6146559999999965
20
-46.1850079999999963
11
118.6248959999999926
21
-46.1991030000000009
0
LINE
8
BLACK
6
CONTINUOUS
10
118.6248959999999926
20
-46.1991030000000009
11
118.6389919999999876
21
-46.2093439999999944
0
LINE
8
BLACK
6
CONTINUOUS
10
118.6389919999999876
20
-46.2093439999999944
11
118.6443749999999966
21
-46.2259129999999985
0
LINE
8
BLACK
6
CONTINUOUS
10
118.6443749999999966
20
-46.2259129999999985
11
118.6546159999999901
21
-46.240007999999996
0
LINE
8
BLACK
6
CONTINUOUS
10
118.6546159999999901
20
-46.240007999999996
11
118.6546159999999901
21
-46.2574289999999948
0
LINE
8
BLACK
6
CONTINUOUS
10
118.6546159999999901
20
-46.2574289999999948
11
118.6599999999999966
21
-46.2740000000000009
0
LINE
8
BLACK
6
CONTINUOUS
10
118.6599999999999966
20
-46.2740000000000009
11
118.6599999999999966
21
-78.2740000000000009
0
LINE
8
BLACK
6
CONTINUOUS
10
118.6599999999999966
20
-78.2740000000000009
11
118.6546159999999901
21
-78.2905700000000024
0
LINE
8
BLACK
6
CONTINUOUS
10
118.6546159999999901
20
-78.2905700000000024
11
118.6546159999999901
21
-78.3079919999999987
0
LINE
8
BLACK
6
CONTINUOUS
10
118.6546159999999901
20
-78.3079919999999987
11
118.6443749999999966
21
-78.3220859999999988
0
LINE
8
BLACK
6
CONTINUOUS
10
118.6443749999999966
20
-78.3220859999999988
11
118.6389919999999876
21
-78.3386560000000003
0
LINE
8
BLACK
6
CONTINUOUS
10
118.6389919999999876
20
-78.3386560000000003
11
118.6248959999999926
21
-78.3488959999999963
0
LINE
8
BLACK
6
CONTINUOUS
10
118.6248959999999926
20
-78.3488959999999963
11
118.6146559999999965
21
-78.3629919999999913
0
LINE
8
BLACK
6
CONTINUOUS
10
118.6146559999999965
20
-78.3629919999999913
11
118.598085999999995
21
-78.3683750000000003
0
LINE
8
BLACK
6
CONTINUOUS
10
118.598085999999995
20
-78.3683750000000003
11
118.583991999999995
21
-78.3786159999999938
0
LINE
8
BLACK
6
CONTINUOUS
10
118.583991999999995
20
-78.3786159999999938
11
118.5665699999999987
21
-78.3786159999999938
0
LINE
8
BLACK
6
CONTINUOUS
10
118.5665699999999987
20
-78.3786159999999938
11
118.5499999999999972
21
-78.3840000000000003
0
LINE
8
BLACK
6
CONTINUOUS
10
118.5499999999999972
20
-78.3840000000000003
11
86.5499999999999972
21
-78.3840000000000003
0
LINE
8
BLACK
6
CONTINUOUS
10
86.5499999999999972
20
-78.3840000000000003
11
86.5334299999999956
21
-78.3786159999999938
0
LINE
8
BLACK
6
CONTINUOUS
10
86.5334299999999956
20
-78.3786159999999938
11
86.5160079999999994
21
-78.3786159999999938
0
LINE
8
BLACK
6
CONTINUOUS
10
86.5160079999999994
20
-78.3786159999999938
11
86.5019130000000018
21
-78.3683750000000003
0
LINE
8
BLACK
6
CONTINUOUS
10
86.5019130000000018
20
-78.3683750000000003
11
86.4853439999999978
21
-78.3629919999999913
0
LINE
8
BLACK
6
CONTINUOUS
10
86.4853439999999978
20
-78.3629919999999913
11
86.4751029999999901
21
-78.3488959999999963
0
LINE
8
BLACK
6
CONTINUOUS
10
86.4751029999999901
20
-78.3488959999999963
11
86.4610079999999925
21
-78.3386560000000003
0
LINE
8
BLACK
6
CONTINUOUS
10
86.4610079999999925
20
-78.3386560000000003
11
86.4556240000000003
21
-78.3220859999999988
0
LINE
8
BLACK
6
CONTINUOUS
10
86.4556240000000003
20
-78.3220859999999988
11
86.44538399999999
21
-78.3079919999999987
0
LINE
8
BLACK
6
CONTINUOUS
10
86.44538399999999
20
-78.3079919999999987
11
86.44538399999999
21
-78.2905700000000024
0
LINE
8
BLACK
6
CONTINUOUS
10
86.44538399999999
20
-78.2905700000000024
11
86.4399999999999977
21
-78.2740000000000009
0
LINE
8
BLACK
6
CONTINUOUS
10
86.4399999999999977
20
-78.2740000000000009
11
86.4399999999999977
21
-46.2740000000000009
0
LINE
8
BLACK
6
CONTINUOUS
10
86.4399999999999977
20
-46.2740000000000009
11
86.44538399999999
21
-46.2574289999999948
0
LINE
8
BLACK
6
CONTINUOUS
10
86.44538399999999
20
-46.2574289999999948
11
86.44538399999999
21
-46.240007999999996
0
LINE
8
BLACK
6
CONTINUOUS
10
86.44538399999999
20
-46.240007999999996
11
86.4556240000000003
21
-46.2259129999999985
0
LINE
8
BLACK
6
CONTINUOUS
10
86.4556240000000003
20
-46.2259129999999985
11
86.4610079999999925
21
-46.2093439999999944
0
LINE
8
BLACK
6
CONTINUOUS
10
86.4610079999999925
20
-46.2093439999999944
11
86.4751029999999901
21
-46.1991030000000009
0
LINE
8
BLACK
6
CONTINUOUS
10
86.4751029999999901
20
-46.1991030000000009
11
86.4853439999999978
21
-46.1850079999999963
0
LINE
8
BLACK
6
CONTINUOUS
10
86.4853439999999978
20
-46.1850079999999963
11
86.5019130000000018
21
-46.1796239999999969
0
LINE
8
BLACK
6
CONTINUOUS
10
86.5019130000000018
20
-46.1796239999999969
11
86.5160079999999994
21
-46.1693840000000009
0
LINE
8
BLACK
6
CONTINUOUS
10
86.5160079999999994
20
-46.1693840000000009
11
86.5334299999999956
21
-46.1693840000000009
0
LINE
8
BLACK
6
CONTINUOUS
10
86.5334299999999956
20
-46.1693840000000009
11
86.5499999999999972
21
-46.1639999999999944
0
LINE
8
BLACK
6
CONTINUOUS
10
86.5499999999999972
20
-46.1639999999999944
11
118.5499999999999972
21
-46.1639999999999944
0
LINE
8
BLACK
6
CONTINUOUS
10
118.5499999999999972
20
-46.1639999999999944
11
118.5665699999999987
21
-46.1693840000000009
0
LINE
8
BLACK
6
CONTINUOUS
10
86.6599999999999966
20
-46.3840000000000003
11
86.6599999999999966
21
-78.1640000000000015
0
LINE
8
BLACK
6
CONTINUOUS
10
86.6599999999999966
20
-78.1640000000000015
11
118.4399999999999977
21
-78.1640000000000015
0
LINE
8
BLACK
6
CONTINUOUS
10
118.4399999999999977
20
-78.1640000000000015
11
118.4399999999999977
21
-46.3840000000000003
0
LINE
8
BLACK
6
CONTINUOUS
10
118.4399999999999977
20
-46.3840000000000003
11
86.6599999999999966
21
-46.3840000000000003
0
LINE
8
BLACK
6
CONTINUOUS
10
134.5857799999999997
20
-33.1521439999999998
11
134.5935810000000004
21
-33.157156999999998
0
LINE
8
BLACK
6
CONTINUOUS
10
134.5935810000000004
20
-33.157156999999998
11
134.6027579999999944
21
-33.1584769999999978
0
LINE
8
BLACK
6
CONTINUOUS
10
134.6027579999999944
20
-33.1584769999999978
11
134.6232109999999977
21
-33.1762000000000015
0
LINE
8
BLACK
6
CONTINUOUS
10
134.6232109999999977
20
-33.1762000000000015
11
134.6459799999999802
21
-33.1908329999999978
0
LINE
8
BLACK
6
CONTINUOUS
10
134.6459799999999802
20
-33.1908329999999978
11
134.649831000000006
21
-33.199266999999999
0
LINE
8
BLACK
6
CONTINUOUS
10
134.649831000000006
20
-33.199266999999999
11
134.6568389999999908
21
-33.2053389999999951
0
LINE
8
BLACK
6
CONTINUOUS
10
134.6568389999999908
20
-33.2053389999999951
11
134.6644639999999811
21
-33.231307000000001
0
LINE
8
BLACK
6
CONTINUOUS
10
134.6644639999999811
20
-33.231307000000001
11
134.6757069999999885
21
-33.2559259999999952
0
LINE
8
BLACK
6
CONTINUOUS
10
134.6757069999999885
20
-33.2559259999999952
11
134.6743869999999959
21
-33.2651019999999988
0
LINE
8
BLACK
6
CONTINUOUS
10
134.6743869999999959
20
-33.2651019999999988
11
134.6769999999999925
21
-33.2740000000000009
0
LINE
8
BLACK
6
CONTINUOUS
10
134.6769999999999925
20
-33.2740000000000009
11
134.6769999999999925
21
-91.2740000000000009
0
LINE
8
BLACK
6
CONTINUOUS
10
134.6769999999999925
20
-91.2740000000000009
11
134.6718559999999911
21
-91.3097799999999893
0
LINE
8
BLACK
6
CONTINUOUS
10
134.6718559999999911
20
-91.3097799999999893
11
134.6668420000000026
21
-91.3175809999999899
0
LINE
8
BLACK
6
CONTINUOUS
10
134.6668420000000026
20
-91.3175809999999899
11
134.6655230000000074
21
-91.3267579999999981
0
LINE
8
BLACK
6
CONTINUOUS
10
134.6655230000000074
20
-91.3267579999999981
11
134.647798999999992
21
-91.3472110000000015
0
LINE
8
BLACK
6
CONTINUOUS
10
134.647798999999992
20
-91.3472110000000015
11
134.633166999999986
21
-91.3699799999999982
0
LINE
8
BLACK
6
CONTINUOUS
10
134.633166999999986
20
-91.3699799999999982
11
134.6247319999999945
21
-91.3738309999999956
0
LINE
8
BLACK
6
CONTINUOUS
10
134.6247319999999945
20
-91.3738309999999956
11
134.618661000000003
21
-91.3808389999999946
0
LINE
8
BLACK
6
CONTINUOUS
10
134.618661000000003
20
-91.3808389999999946
11
134.5926919999999996
21
-91.388463999999999
0
LINE
8
BLACK
6
CONTINUOUS
10
134.5926919999999996
20
-91.388463999999999
11
134.5680739999999957
21
-91.3997069999999923
0
LINE
8
BLACK
6
CONTINUOUS
10
134.5680739999999957
20
-91.3997069999999923
11
134.5588970000000018
21
-91.3983869999999996
0
LINE
8
BLACK
6
CONTINUOUS
10
134.5588970000000018
20
-91.3983869999999996
11
134.5499999999999829
21
-91.4009999999999962
0
LINE
8
BLACK
6
CONTINUOUS
10
134.5499999999999829
20
-91.4009999999999962
11
70.5499999999999972
21
-91.4009999999999962
0
LINE
8
BLACK
6
CONTINUOUS
10
70.5499999999999972
20
-91.4009999999999962
11
70.5142199999999946
21
-91.3958559999999949
0
LINE
8
BLACK
6
CONTINUOUS
10
70.5142199999999946
20
-91.3958559999999949
11
70.5064179999999965
21
-91.3908419999999921
0
LINE
8
BLACK
6
CONTINUOUS
10
70.5064179999999965
20
-91.3908419999999921
11
70.497242
21
-91.389522999999997
0
LINE
8
BLACK
6
CONTINUOUS
10
70.497242
20
-91.389522999999997
11
70.4767879999999991
21
-91.3717989999999958
0
LINE
8
BLACK
6
CONTINUOUS
10
70.4767879999999991
20
-91.3717989999999958
11
70.4540199999999999
21
-91.3571669999999898
0
LINE
8
BLACK
6
CONTINUOUS
10
70.4540199999999999
20
-91.3571669999999898
11
70.4501679999999908
21
-91.3487319999999983
0
LINE
8
BLACK
6
CONTINUOUS
10
70.4501679999999908
20
-91.3487319999999983
11
70.4431610000000035
21
-91.3426609999999926
0
LINE
8
BLACK
6
CONTINUOUS
10
70.4431610000000035
20
-91.3426609999999926
11
70.4355350000000016
21
-91.3166919999999891
0
LINE
8
BLACK
6
CONTINUOUS
10
70.4355350000000016
20
-91.3166919999999891
11
70.4242929999999916
21
-91.2920739999999995
0
LINE
8
BLACK
6
CONTINUOUS
10
70.4242929999999916
20
-91.2920739999999995
11
70.425612000000001
21
-91.2828969999999913
0
LINE
8
BLACK
6
CONTINUOUS
10
70.425612000000001
20
-91.2828969999999913
11
70.4230000000000018
21
-91.2740000000000009
0
LINE
8
BLACK
6
CONTINUOUS
10
70.4230000000000018
20
-91.2740000000000009
11
70.4230000000000018
21
-33.2740000000000009
0
LINE
8
BLACK
6
CONTINUOUS
10
70.4230000000000018
20
-33.2740000000000009
11
70.4281440000000032
21
-33.2382199999999983
0
LINE
8
BLACK
6
CONTINUOUS
10
70.4281440000000032
20
-33.2382199999999983
11
70.4331569999999942
21
-33.2304180000000002
0
LINE
8
BLACK
6
CONTINUOUS
10
70.4331569999999942
20
-33.2304180000000002
11
70.4344770000000011
21
-33.2212419999999966
0
LINE
8
BLACK
6
CONTINUOUS
10
70.4344770000000011
20
-33.2212419999999966
11
70.4521999999999906
21
-33.2007879999999957
0
LINE
8
BLACK
6
CONTINUOUS
10
70.4521999999999906
20
-33.2007879999999957
11
70.4668329999999941
21
-33.1780199999999965
0
LINE
8
BLACK
6
CONTINUOUS
10
70.4668329999999941
20
-33.1780199999999965
11
70.4752670000000023
21
-33.1741680000000017
0
LINE
8
BLACK
6
CONTINUOUS
10
70.4752670000000023
20
-33.1741680000000017
11
70.4813389999999913
21
-33.1671610000000001
0
LINE
8
BLACK
6
CONTINUOUS
10
70.4813389999999913
20
-33.1671610000000001
11
70.5073069999999973
21
-33.1595349999999982
0
LINE
8
BLACK
6
CONTINUOUS
10
70.5073069999999973
20
-33.1595349999999982
11
70.5319259999999986
21
-33.1482929999999953
0
LINE
8
BLACK
6
CONTINUOUS
10
70.5319259999999986
20
-33.1482929999999953
11
70.5411019999999951
21
-33.1496119999999976
0
LINE
8
BLACK
6
CONTINUOUS
10
70.5411019999999951
20
-33.1496119999999976
11
70.5499999999999972
21
-33.1469999999999985
0
LINE
8
BLACK
6
CONTINUOUS
10
70.5499999999999972
20
-33.1469999999999985
11
134.5499999999999829
21
-33.1469999999999985
0
LINE
8
BLACK
6
CONTINUOUS
10
134.5499999999999829
20
-33.1469999999999985
11
134.5857799999999997
21
-33.1521439999999998
0
LINE
8
BLACK
6
CONTINUOUS
10
70.6769999999999925
20
-33.4009999999999962
11
70.6769999999999925
21
-91.1469999999999914
0
LINE
8
BLACK
6
CONTINUOUS
10
70.6769999999999925
20
-91.1469999999999914
11
134.4230000000000018
21
-91.1469999999999914
0
LINE
8
BLACK
6
CONTINUOUS
10
134.4230000000000018
20
-91.1469999999999914
11
134.4230000000000018
21
-33.4009999999999962
0
LINE
8
BLACK
6
CONTINUOUS
10
134.4230000000000018
20
-33.4009999999999962
11
70.6769999999999925
21
-33.4009999999999962
  0
ENDSEC
  0
EOF
