<?xml version="1.0" standalone="no"?>
 <!DOCTYPE svg PUBLIC "-//W3C//DTD SVG 1.1//EN" 
 "http://www.w3.org/Graphics/SVG/1.1/DTD/svg11.dtd"> 
<svg
  xmlns:svg="http://www.w3.org/2000/svg"
  xmlns="http://www.w3.org/2000/svg"
  xmlns:xlink="http://www.w3.org/1999/xlink"
  version="1.1"
  width="210.007200mm" height="148.005800mm" viewBox="0.000000 0.000000 210.007200 148.005800">
<title>SVG Image created as PQ_Botnotsobot-B_Silkscreen.svg date 2024/01/09 11:53:05 </title>
  <desc>Image generated by PCBNEW </desc>
<g style="fill:#000000; fill-opacity:1.000000;stroke:#000000; stroke-opacity:1.000000;
stroke-linecap:round; stroke-linejoin:round;"
 transform="translate(0 0) scale(1 1)">
</g>
<g style="fill:#000000; fill-opacity:0.0; 
stroke:#000000; stroke-width:0.000000; stroke-opacity:1; 
stroke-linecap:round; stroke-linejoin:round;">
</g>
<g style="fill:#000000; fill-opacity:1.000000; 
stroke:#000000; stroke-width:0.000000; stroke-opacity:1; 
stroke-linecap:round; stroke-linejoin:round;">
<path style="fill:#000000; fill-opacity:1.000000; 
stroke:#000000; stroke-width:0.000000; stroke-opacity:1; 
stroke-linecap:round; stroke-linejoin:round;fill-rule:evenodd;"
d="M 94.746338,33.855080
94.752411,33.855720
94.758194,33.856819
94.760952,33.857544
94.763608,33.858386
94.766154,33.859348
94.768580,33.860431
94.770875,33.861636
94.773032,33.862963
94.776208,33.865178
94.779191,33.867591
94.780613,33.868933
94.781989,33.870397
94.783319,33.872010
94.784605,33.873794
94.785848,33.875776
94.787048,33.877979
94.788205,33.880428
94.789322,33.883148
94.790397,33.886163
94.791433,33.889498
94.792430,33.893178
94.793388,33.897226
94.794309,33.901669
94.795193,33.906530
94.796041,33.911834
94.796854,33.917605
94.797632,33.923869
94.798376,33.930650
94.799765,33.945860
94.801029,33.963433
94.802172,33.983565
94.803200,34.006454
94.804121,34.032296
94.804939,34.061288
94.805660,34.093628
94.806292,34.129511
94.806839,34.169135
94.807308,34.212697
94.807704,34.260394
94.808305,34.368978
94.808688,34.496464
94.808902,34.644426
94.809016,35.008079
94.808305,35.647180
94.804121,35.983863
94.799765,36.070299
94.793388,36.118933
94.789322,36.133011
94.784605,36.142365
94.773032,36.153196
94.768487,36.153989
94.757460,36.154775
94.717320,36.156305
94.574197,36.159017
94.365391,36.160935
94.112633,36.161663
93.463873,36.161663
93.438475,36.135204
93.435736,36.132530
93.433083,36.129685
93.430530,36.126698
93.428089,36.123596
93.425772,36.120407
93.423591,36.117159
93.421559,36.113880
93.419688,36.110598
93.417991,36.107341
93.416481,36.104137
93.415168,36.101013
93.414066,36.097997
93.413188,36.095118
93.412545,36.092404
93.412150,36.089882
93.412016,36.087579
93.412150,36.085277
93.412545,36.082755
93.413188,36.080040
93.414066,36.077161
93.415168,36.074146
93.416481,36.071022
93.417991,36.067818
93.419688,36.064561
93.421559,36.061279
93.423591,36.058000
93.425772,36.054752
93.428089,36.051563
93.430530,36.048461
93.433083,36.045473
93.435736,36.042629
93.438475,36.039954
93.463873,36.013496
94.660848,36.013496
94.660848,34.955163
94.661179,34.348787
94.663494,34.031635
94.666016,33.951100
94.669778,33.906371
94.675029,33.885281
94.682015,33.875663
94.684076,33.873722
94.686282,33.871869
94.688624,33.870106
94.691092,33.868432
94.696371,33.865361
94.702041,33.862665
94.708028,33.860354
94.714256,33.858436
94.720647,33.856921
94.727127,33.855819
94.733620,33.855139
94.740049,33.854889
Z" /> 
<path style="fill:#000000; fill-opacity:1.000000; 
stroke:#000000; stroke-width:0.000000; stroke-opacity:1; 
stroke-linecap:round; stroke-linejoin:round;fill-rule:evenodd;"
d="M 114.123597,35.862865
114.222022,36.148963
114.221997,36.156107
114.221518,36.162862
114.221107,36.166094
114.220581,36.169231
114.219938,36.172274
114.219178,36.175223
114.218301,36.178078
114.217304,36.180842
114.216189,36.183514
114.214953,36.186095
114.213596,36.188587
114.212118,36.190989
114.210517,36.193303
114.208793,36.195529
114.206945,36.197669
114.204972,36.199722
114.202874,36.201691
114.200649,36.203574
114.198297,36.205374
114.195817,36.207091
114.193209,36.208726
114.190471,36.210280
114.187603,36.211753
114.184603,36.213146
114.178209,36.215696
114.171281,36.217935
114.163814,36.219871
114.158555,36.220999
114.153476,36.221773
114.148554,36.222153
114.143766,36.222093
114.139086,36.221552
114.134493,36.220487
114.129960,36.218855
114.125466,36.216613
114.120986,36.213719
114.116495,36.210129
114.111971,36.205800
114.107390,36.200691
114.102727,36.194757
114.097958,36.187957
114.093061,36.180247
114.088011,36.171585
114.082784,36.161927
114.077357,36.151231
114.071705,36.139454
114.065805,36.126554
114.059632,36.112487
114.053164,36.097210
114.046376,36.080681
114.039245,36.062857
114.023856,36.023153
114.006807,35.977755
113.987906,35.926319
113.966964,35.868504
113.883885,35.636729
113.835731,35.500204
113.811389,35.431413
112.835606,35.431413
112.701198,35.803946
112.652938,35.937588
112.614762,36.040236
112.584647,36.115722
112.571981,36.144478
112.560572,36.167880
112.550167,36.186409
112.540515,36.200542
112.531362,36.210759
112.522455,36.217539
112.513542,36.221362
112.504371,36.222705
112.494687,36.222048
112.484240,36.219871
112.477236,36.217890
112.470527,36.215534
112.464134,36.212825
112.458079,36.209784
112.452384,36.206433
112.447070,36.202793
112.442159,36.198887
112.437673,36.194736
112.433633,36.190361
112.430062,36.185785
112.426980,36.181030
112.425630,36.178591
112.424411,36.176116
112.423324,36.173606
112.422374,36.171065
112.421563,36.168496
112.420892,36.165900
112.420367,36.163281
112.419988,36.160642
112.419758,36.157985
112.419681,36.155313
112.732022,35.277954
112.895931,35.277954
112.932098,35.280385
113.027512,35.282122
113.317545,35.283511
113.608966,35.282122
113.706116,35.280385
113.744714,35.277954
113.744284,35.274578
113.741872,35.265825
113.731502,35.233306
113.691401,35.116029
113.630861,34.943984
113.556331,34.735029
113.355115,34.181918
113.329963,34.116649
113.326224,34.110053
113.324556,34.110613
113.260262,34.282989
113.108656,34.692696
112.958637,35.103594
112.895931,35.277954
112.732022,35.277954
112.805444,35.071712
113.229306,33.909529
113.244123,33.875663
113.324556,33.875663
113.343561,33.875861
113.360109,33.876457
113.374227,33.877449
113.380383,33.878094
113.385939,33.878838
113.390901,33.879681
113.395270,33.880624
113.399050,33.881666
113.402244,33.882807
113.404855,33.884047
113.406887,33.885386
113.408341,33.886825
113.409223,33.888363
113.892616,35.215910
113.914768,35.277954
Z" /> 
<path style="fill:#000000; fill-opacity:1.000000; 
stroke:#000000; stroke-width:0.000000; stroke-opacity:1; 
stroke-linecap:round; stroke-linejoin:round;fill-rule:evenodd;"
d="M 108.366264,34.657010
108.366264,35.809238
107.676231,36.209288
107.185694,36.491863
107.033591,36.577786
106.974557,36.609338
106.957820,36.601177
106.915075,36.577786
106.763022,36.491863
106.541318,36.364664
106.272881,36.209288
105.582848,35.810296
105.582848,35.375106
105.732552,35.375106
105.734057,35.585268
105.737745,35.696806
105.740438,35.722878
105.743714,35.733038
105.924243,35.840492
106.306880,36.063238
106.691303,36.285190
106.877189,36.390263
106.878731,36.390714
106.879467,36.390811
106.880182,36.390806
106.880874,36.390686
106.881544,36.390437
106.882193,36.390047
106.882820,36.389502
106.883427,36.388790
106.884013,36.387897
106.884578,36.386811
106.885124,36.385519
106.885650,36.384007
106.886156,36.382263
106.886643,36.380274
106.887111,36.378026
106.887992,36.372703
106.888801,36.366192
106.889540,36.358388
106.890212,36.349186
106.890819,36.338484
106.891362,36.326178
106.891846,36.312163
106.892271,36.296336
106.892640,36.278592
106.892956,36.258829
106.893437,36.212827
106.893491,36.202673
107.045332,36.202673
107.046209,36.350708
107.047581,36.405079
107.094809,36.378538
107.220619,36.306258
107.631781,36.068529
108.212806,35.730921
108.215982,35.040888
108.216775,34.657010
108.215187,34.451925
108.213129,34.399501
108.210028,34.371459
108.208040,34.364466
108.205737,34.361029
108.203098,34.360301
108.200106,34.361438
108.020189,34.464758
107.614848,34.699046
107.048640,35.027130
107.045465,35.716104
107.045363,36.092011
107.045332,36.202673
106.893491,36.202673
106.893731,36.157498
106.893858,36.092011
106.893837,36.015536
106.893685,35.927242
106.893065,35.711871
106.889890,35.026071
106.313098,34.694813
105.736307,34.363555
105.733131,35.043004
105.732552,35.375106
105.582848,35.375106
105.582848,34.235496
105.804833,34.235496
105.804855,34.235843
105.804920,34.236190
105.805028,34.236536
105.805180,34.236881
105.805376,34.237224
105.805615,34.237566
105.805897,34.237905
105.806222,34.238241
105.806591,34.238574
105.807004,34.238904
105.807459,34.239230
105.807959,34.239552
105.808501,34.239869
105.809087,34.240181
105.809717,34.240487
105.810389,34.240788
106.392474,34.574163
106.625786,34.707182
106.809589,34.809642
106.931678,34.874796
106.965765,34.891274
106.975403,34.895120
106.979848,34.895896
107.175210,34.786789
107.569604,34.558817
107.956458,34.332433
108.129198,34.228088
107.553068,33.890876
106.977732,33.559221
106.964484,33.565687
106.929494,33.584952
106.803768,33.656323
106.395648,33.891538
105.810389,34.230205
105.809717,34.230505
105.809087,34.230812
105.808501,34.231124
105.807959,34.231441
105.807459,34.231762
105.807004,34.232088
105.806591,34.232418
105.806222,34.232751
105.805897,34.233087
105.805615,34.233426
105.805376,34.233768
105.805180,34.234111
105.805028,34.234456
105.804920,34.234802
105.804855,34.235149
105.804833,34.235496
105.582848,34.235496
105.582848,34.196338
106.272881,33.796288
106.970323,33.393063
106.985669,33.400572
107.027407,33.423573
107.178550,33.509347
107.400734,33.636992
107.670940,33.793113
108.366264,34.196338
108.366264,34.228088
Z" /> 
<path style="fill:#000000; fill-opacity:1.000000; 
stroke:#000000; stroke-width:0.000000; stroke-opacity:1; 
stroke-linecap:round; stroke-linejoin:round;fill-rule:evenodd;"
d="M 92.497615,36.137321
92.498211,36.140790
92.498612,36.144248
92.498821,36.147691
92.498841,36.151115
92.498676,36.154514
92.498330,36.157885
92.497804,36.161223
92.497103,36.164524
92.496230,36.167782
92.495189,36.170995
92.493981,36.174156
92.492612,36.177263
92.491083,36.180310
92.489399,36.183292
92.487563,36.186206
92.485578,36.189047
92.483447,36.191811
92.481173,36.194492
92.478760,36.197087
92.476212,36.199591
92.473531,36.202000
92.470720,36.204309
92.467784,36.206514
92.464725,36.208610
92.461547,36.210593
92.458252,36.212458
92.454845,36.214201
92.451328,36.215818
92.447705,36.217303
92.443980,36.218653
92.440154,36.219864
92.436232,36.220930
92.430885,36.222061
92.425738,36.222838
92.420760,36.223203
92.415922,36.223100
92.411194,36.222471
92.406546,36.221260
92.404243,36.220418
92.401949,36.219409
92.399660,36.218226
92.397372,36.216861
92.395082,36.215309
92.392786,36.213561
92.388161,36.209449
92.383467,36.204471
92.378674,36.198568
92.373752,36.191684
92.368672,36.183761
92.363403,36.174743
92.357916,36.164573
92.352181,36.153194
92.346169,36.140548
92.339848,36.126580
92.333190,36.111231
92.326165,36.094445
92.318742,36.076165
92.310892,36.056333
92.302585,36.034894
92.284481,35.986964
92.264192,35.931918
92.241477,35.869300
92.216099,35.798654
92.084864,35.431413
91.109082,35.431413
90.977849,35.798654
90.929757,35.931918
90.891364,36.034894
90.860759,36.111231
90.847781,36.140548
90.836033,36.164573
90.825278,36.183761
90.815276,36.198568
90.805788,36.209449
90.796577,36.216861
90.787403,36.221260
90.778027,36.223100
90.768211,36.222838
90.757716,36.220930
90.753794,36.219864
90.749969,36.218653
90.746243,36.217302
90.742622,36.215814
90.739107,36.214193
90.735703,36.212444
90.732412,36.210570
90.729240,36.208577
90.726188,36.206467
90.723260,36.204244
90.720461,36.201914
90.717792,36.199480
90.715259,36.196945
90.712864,36.194315
90.710611,36.191593
90.708503,36.188783
90.706544,36.185889
90.704738,36.182915
90.703087,36.179867
90.701595,36.176746
90.700267,36.173558
90.699104,36.170307
90.698111,36.166996
90.697292,36.163631
90.696649,36.160214
90.696187,36.156750
90.695908,36.153243
90.695816,36.149697
90.695915,36.146116
90.696209,36.142504
90.696699,36.138865
90.697391,36.135204
90.731639,36.035341
90.820556,35.786351
91.003822,35.280071
91.168350,35.280071
91.170570,35.280456
91.177087,35.280815
91.202134,35.281460
91.294159,35.282452
91.430435,35.283048
91.596974,35.283246
91.899791,35.282452
91.991816,35.281460
92.025600,35.280071
91.606499,34.119080
91.586457,34.164712
91.536252,34.292448
91.385837,34.686875
91.236215,35.087653
91.187003,35.223326
91.168350,35.280071
91.003822,35.280071
91.108026,34.992204
91.513364,33.880955
91.593799,33.877779
91.610157,33.877225
91.625648,33.877118
91.639898,33.877407
91.652536,33.878044
91.663190,33.878978
91.671487,33.880161
91.674636,33.880829
91.677057,33.881541
91.678702,33.882291
91.679525,33.883071
92.090554,35.006227
92.189106,35.280071
Z" /> 
<path style="fill:#000000; fill-opacity:1.000000; 
stroke:#000000; stroke-width:0.000000; stroke-opacity:1; 
stroke-linecap:round; stroke-linejoin:round;fill-rule:evenodd;"
d="M 111.216091,33.855554
111.222594,33.856323
111.228973,33.857634
111.235179,33.859485
111.238201,33.860611
111.241161,33.861871
111.244052,33.863265
111.246870,33.864792
111.249606,33.866451
111.252256,33.868242
111.254813,33.870165
111.257271,33.872220
111.259623,33.874405
111.261864,33.876721
111.263598,33.878783
111.265230,33.881125
111.266764,33.883935
111.268204,33.887398
111.269553,33.891702
111.270815,33.897034
111.271993,33.903581
111.273092,33.911531
111.274115,33.921069
111.275066,33.932383
111.275948,33.945661
111.276766,33.961088
111.277522,33.978853
111.278220,33.999141
111.278865,34.022141
111.279459,34.048039
111.280512,34.109277
111.281408,34.184351
111.282178,34.274758
111.282849,34.381993
111.283452,34.507552
111.284017,34.652932
111.285148,35.009138
111.286421,35.718932
111.284757,35.928840
111.280253,36.063899
111.271929,36.140469
111.266028,36.161933
111.258805,36.174908
111.250137,36.181441
111.239902,36.183576
111.214239,36.182829
111.209529,36.182755
111.204929,36.182534
111.200454,36.182167
111.196116,36.181655
111.191926,36.181001
111.187897,36.180206
111.184042,36.179272
111.180373,36.178199
111.176902,36.176990
111.173642,36.175646
111.170606,36.174169
111.167805,36.172560
111.165252,36.170821
111.162960,36.168953
111.160940,36.166958
111.159206,36.164838
111.158043,36.163059
111.156933,36.160243
111.154869,36.151150
111.152997,36.136853
111.151301,36.116650
111.149767,36.089837
111.148379,36.055709
111.145977,35.962696
111.143972,35.831980
111.142240,35.657929
111.139098,35.157304
111.133806,34.167763
110.494573,35.140371
110.036050,35.838342
109.829940,36.148963
109.826074,36.154052
109.822384,36.158622
109.818822,36.162699
109.817073,36.164561
109.815338,36.166309
109.813611,36.167948
109.811885,36.169480
109.810155,36.170908
109.808415,36.172236
109.806659,36.173467
109.804880,36.174604
109.803074,36.175651
109.801232,36.176612
109.799351,36.177488
109.797423,36.178284
109.795443,36.179003
109.793404,36.179648
109.791302,36.180223
109.789128,36.180730
109.786879,36.181173
109.784547,36.181556
109.779612,36.182153
109.774275,36.182546
109.768489,36.182763
109.762206,36.182829
109.748654,36.183244
109.742555,36.183392
109.736886,36.183170
109.734209,36.182844
109.731633,36.182333
109.729156,36.181606
109.726778,36.180632
109.724495,36.179380
109.722306,36.177821
109.720209,36.175921
109.718202,36.173652
109.716283,36.170981
109.714450,36.167878
109.712702,36.164313
109.711035,36.160253
109.709448,36.155669
109.707940,36.150530
109.706507,36.144803
109.705149,36.138460
109.703863,36.131468
109.702648,36.123798
109.701501,36.115417
109.700420,36.106295
109.698450,36.085706
109.696722,36.061783
109.695220,36.034278
109.693929,36.002945
109.692833,35.967537
109.691916,35.927806
109.691163,35.883506
109.690557,35.834389
109.690084,35.780209
109.689727,35.720718
109.689300,35.584816
109.689150,35.424705
109.689181,35.023954
109.689925,34.346588
109.691916,34.141069
109.695928,34.004780
109.702669,33.923061
109.707283,33.898084
109.712845,33.881252
109.719442,33.870733
109.727163,33.864695
109.746331,33.858730
109.752840,33.857377
109.759257,33.856489
109.765565,33.856060
109.771748,33.856084
109.777788,33.856554
109.783669,33.857465
109.789372,33.858809
109.794882,33.860582
109.800182,33.862776
109.805253,33.865385
109.810079,33.868404
109.814643,33.871826
109.818929,33.875645
109.822918,33.879855
109.826594,33.884449
109.829940,33.889421
109.831665,33.895313
109.833274,33.906545
109.834774,33.923568
109.836174,33.946836
109.838702,34.013916
109.840920,34.111407
109.842890,34.242929
109.844674,34.412106
109.847931,34.877904
109.853223,35.843104
110.498806,34.864146
110.960769,34.167101
111.106322,33.951979
111.165556,33.869313
111.168374,33.867400
111.171265,33.865629
111.174225,33.864000
111.177247,33.862512
111.180325,33.861166
111.183453,33.859960
111.189832,33.857969
111.196335,33.856536
111.202912,33.855658
111.209514,33.855332
Z" /> 
<path style="fill:#000000; fill-opacity:1.000000; 
stroke:#000000; stroke-width:0.000000; stroke-opacity:1; 
stroke-linecap:round; stroke-linejoin:round;fill-rule:evenodd;"
d="M 101.366779,35.697088
101.440904,35.907411
101.487098,36.048157
101.509877,36.134233
101.513897,36.161429
101.513755,36.180547
101.510017,36.193453
101.503247,36.202008
101.482866,36.213521
101.479496,36.215025
101.476133,36.216362
101.472780,36.217531
101.469438,36.218534
101.466108,36.219370
101.462792,36.220039
101.459492,36.220543
101.456209,36.220880
101.452944,36.221051
101.449700,36.221057
101.446477,36.220897
101.443277,36.220572
101.440103,36.220082
101.436954,36.219426
101.433834,36.218607
101.430743,36.217622
101.427683,36.216473
101.424655,36.215161
101.421662,36.213684
101.418704,36.212043
101.415784,36.210239
101.412902,36.208272
101.410061,36.206141
101.407261,36.203847
101.404505,36.201391
101.401794,36.198772
101.399129,36.195991
101.396513,36.193047
101.391430,36.186674
101.386558,36.179655
101.384127,36.175061
101.380456,36.166967
101.369690,36.141058
101.354857,36.103492
101.336551,36.055829
101.291902,35.936469
101.240507,35.795479
101.111390,35.436704
100.621382,35.433529
100.276100,35.432868
100.171028,35.433381
100.132432,35.434588
100.092232,35.550575
100.002918,35.798125
99.911422,36.048057
99.864673,36.171188
99.862561,36.175172
99.860394,36.178988
99.858170,36.182637
99.855890,36.186118
99.853553,36.189431
99.851160,36.192575
99.848709,36.195550
99.846202,36.198357
99.843637,36.200995
99.841014,36.203464
99.838334,36.205763
99.835596,36.207892
99.832799,36.209852
99.829945,36.211642
99.827032,36.213262
99.824060,36.214712
99.821029,36.215991
99.817939,36.217099
99.814790,36.218036
99.811581,36.218802
99.808313,36.219397
99.804984,36.219821
99.801596,36.220072
99.798147,36.220152
99.794638,36.220060
99.791068,36.219795
99.787438,36.219358
99.783746,36.218749
99.779993,36.217966
99.776179,36.217011
99.772303,36.215882
99.768365,36.214579
99.761714,36.212343
99.755638,36.209982
99.750117,36.207473
99.747559,36.206155
99.745131,36.204790
99.742832,36.203375
99.740660,36.201908
99.738611,36.200385
99.736683,36.198804
99.734874,36.197160
99.733181,36.195451
99.731601,36.193674
99.730133,36.191825
99.728773,36.189902
99.727519,36.187902
99.726369,36.185821
99.725319,36.183656
99.724368,36.181405
99.723513,36.179063
99.722751,36.176629
99.722080,36.174098
99.721498,36.171468
99.721001,36.168736
99.720255,36.162953
99.719822,36.156722
99.719683,36.150021
100.031594,35.276896
100.195933,35.276896
100.198141,35.277479
100.204621,35.278033
100.229518,35.279046
100.268877,35.279910
100.320948,35.280600
100.456232,35.281361
100.621382,35.281130
100.804821,35.278980
100.937956,35.275838
101.018902,35.271902
101.039215,35.269699
101.044228,35.268549
101.045773,35.267371
101.029402,35.219994
100.986242,35.099493
100.845748,34.711746
100.638314,34.137071
100.635943,34.131290
100.633635,34.125942
100.631450,34.121165
100.629452,34.117095
100.627701,34.113868
100.626938,34.112614
100.626260,34.111622
100.625676,34.110908
100.625192,34.110491
100.624990,34.110399
100.624816,34.110387
100.624672,34.110457
100.624557,34.110613
100.606301,34.157642
100.559470,34.282857
100.408657,34.691638
100.258242,35.102536
100.195933,35.276896
100.031594,35.276896
100.119732,35.030172
100.535657,33.893654
100.536474,33.892299
100.537342,33.891011
100.538269,33.889787
100.539262,33.888627
100.540330,33.887529
100.541480,33.886492
100.542720,33.885514
100.544058,33.884592
100.545501,33.883727
100.547057,33.882916
100.548735,33.882158
100.550540,33.881451
100.552483,33.880793
100.554569,33.880183
100.556807,33.879620
100.559205,33.879102
100.561771,33.878628
100.564512,33.878195
100.567435,33.877803
100.570549,33.877449
100.573862,33.877132
100.577381,33.876851
100.585068,33.876390
100.593673,33.876054
100.603258,33.875828
100.613885,33.875702
100.625615,33.875663
100.644574,33.875861
100.661003,33.876457
100.674951,33.877449
100.681011,33.878094
100.686469,33.878838
100.691332,33.879681
100.695605,33.880624
100.699296,33.881666
100.702410,33.882807
100.704954,33.884047
100.706933,33.885386
100.708354,33.886825
100.709223,33.888363
101.116682,35.008079
101.210800,35.267371
Z" /> 
<path style="fill:#000000; fill-opacity:1.000000; 
stroke:#000000; stroke-width:0.000000; stroke-opacity:1; 
stroke-linecap:round; stroke-linejoin:round;fill-rule:evenodd;"
d="M 98.753292,33.880028
98.905179,33.882261
98.968265,33.885188
98.971697,33.886278
98.975044,33.887559
98.978302,33.889024
98.981468,33.890666
98.984536,33.892476
98.987504,33.894448
98.990366,33.896574
98.993120,33.898847
98.995760,33.901260
98.998283,33.903804
99.000685,33.906474
99.002961,33.909261
99.005108,33.912158
99.007121,33.915158
99.008997,33.918253
99.010731,33.921436
99.012319,33.924699
99.013758,33.928036
99.015043,33.931439
99.016169,33.934901
99.017134,33.938413
99.017933,33.941969
99.018561,33.945562
99.019016,33.949184
99.019292,33.952827
99.019386,33.956485
99.019293,33.960150
99.019010,33.963815
99.018532,33.967471
99.017856,33.971113
99.016977,33.974732
99.015891,33.978321
99.014093,33.983138
99.012234,33.987671
99.010260,33.991931
99.008116,33.995924
99.005749,33.999660
99.003103,34.003147
99.000124,34.006394
98.996758,34.009410
98.994912,34.010833
98.992949,34.012202
98.990863,34.013517
98.988645,34.014779
98.983790,34.017150
98.978330,34.019323
98.972210,34.021308
98.965375,34.023111
98.957773,34.024743
98.949347,34.026211
98.940044,34.027524
98.929809,34.028690
98.918588,34.029719
98.906326,34.030618
98.892968,34.031396
98.878461,34.032062
98.862749,34.032623
98.845779,34.033090
98.807845,34.033771
98.764223,34.034173
98.714478,34.034364
98.658173,34.034413
98.365015,34.034413
98.365015,35.078988
98.364354,35.589104
98.362105,35.914277
98.357871,36.089828
98.354887,36.132534
98.351257,36.151079
98.349526,36.154180
98.347520,36.157129
98.345253,36.159926
98.342743,36.162568
98.340003,36.165054
98.337051,36.167381
98.333901,36.169547
98.330570,36.171552
98.327072,36.173391
98.323425,36.175065
98.319643,36.176570
98.315743,36.177906
98.311739,36.179069
98.307648,36.180058
98.303485,36.180871
98.299266,36.181506
98.295007,36.181962
98.290723,36.182236
98.286431,36.182326
98.282145,36.182230
98.277882,36.181947
98.273656,36.181474
98.269485,36.180810
98.265383,36.179952
98.261367,36.178899
98.257451,36.177649
98.253652,36.176199
98.249986,36.174549
98.246467,36.172695
98.243112,36.170636
98.239937,36.168371
98.236957,36.165896
98.235223,36.164139
98.233592,36.162122
98.232059,36.159667
98.230623,36.156592
98.229280,36.152720
98.228027,36.147872
98.226861,36.141867
98.225778,36.134526
98.224776,36.125672
98.223852,36.115123
98.223001,36.102701
98.222223,36.088226
98.221512,36.071521
98.220867,36.052404
98.220283,36.030697
98.219759,36.006220
98.219290,35.978795
98.218874,35.948242
98.218188,35.877035
98.217675,35.791166
98.217311,35.689200
98.217071,35.569703
98.216931,35.431241
98.216848,35.091688
98.216848,34.035471
97.910991,34.032296
97.743046,34.029998
97.688120,34.028557
97.648523,34.026608
97.621230,34.023914
97.611251,34.022215
97.603214,34.020241
97.596739,34.017964
97.591448,34.015353
97.582908,34.009013
97.580216,34.006451
97.577699,34.003731
97.575355,34.000865
97.573184,33.997863
97.571187,33.994736
97.569364,33.991493
97.567715,33.988146
97.566239,33.984704
97.564937,33.981179
97.563808,33.977581
97.562853,33.973920
97.562072,33.970206
97.561464,33.966451
97.561030,33.962664
97.560769,33.958856
97.560682,33.955038
97.560769,33.951220
97.561030,33.947412
97.561464,33.943625
97.562072,33.939870
97.562853,33.936156
97.563808,33.932495
97.564937,33.928897
97.566239,33.925371
97.567715,33.921930
97.569364,33.918583
97.571187,33.915340
97.573184,33.912213
97.575355,33.909211
97.577699,33.906345
97.580216,33.903625
97.582908,33.901063
97.584932,33.899329
97.587111,33.897697
97.589555,33.896164
97.592374,33.894725
97.595681,33.893378
97.599585,33.892119
97.604198,33.890945
97.609630,33.889851
97.615992,33.888835
97.623395,33.887893
97.631951,33.887022
97.641768,33.886217
97.652960,33.885476
97.665636,33.884796
97.679907,33.884172
97.695884,33.883600
97.733400,33.882604
97.779071,33.881777
97.833783,33.881094
97.898423,33.880525
97.973878,33.880042
98.061034,33.879619
98.273999,33.878838
98.535325,33.878788
Z" /> 
<path style="fill:#000000; fill-opacity:1.000000; 
stroke:#000000; stroke-width:0.000000; stroke-opacity:1; 
stroke-linecap:round; stroke-linejoin:round;fill-rule:evenodd;"
d="M 115.445820,33.855417
115.448943,33.855699
115.452044,33.856135
115.455119,33.856725
115.458166,33.857468
115.461181,33.858364
115.464161,33.859413
115.467102,33.860615
115.470001,33.861968
115.472855,33.863473
115.475661,33.865129
115.478415,33.866936
115.481114,33.868893
115.483754,33.871000
115.486333,33.873257
115.488847,33.875663
115.490770,33.877655
115.492573,33.879778
115.493431,33.880943
115.494260,33.882206
115.495061,33.883590
115.495834,33.885116
115.496580,33.886805
115.497300,33.888680
115.497993,33.890762
115.498661,33.893073
115.499303,33.895636
115.499921,33.898471
115.500515,33.901602
115.501084,33.905048
115.501631,33.908833
115.502155,33.912978
115.503136,33.922437
115.504032,33.933597
115.504847,33.946635
115.505584,33.961725
115.506247,33.979041
115.506841,33.998759
115.507368,34.021051
115.507834,34.046095
115.508242,34.074062
115.508595,34.105130
115.508898,34.139471
115.509368,34.218674
115.509683,34.313069
115.509875,34.424051
115.509973,34.553019
115.510014,34.870496
115.512131,35.558148
115.514479,35.767334
115.517422,35.844163
115.532363,35.823941
115.571464,35.766723
115.711627,35.557222
115.916877,35.247511
116.166181,34.869438
116.626027,34.175171
116.771614,33.959503
116.831872,33.874604
116.834981,33.872205
116.838153,33.869966
116.841381,33.867888
116.844661,33.865970
116.847987,33.864214
116.851353,33.862617
116.854753,33.861180
116.858182,33.859904
116.861634,33.858787
116.865104,33.857829
116.868586,33.857031
116.872075,33.856392
116.875564,33.855911
116.879048,33.855590
116.882522,33.855427
116.885980,33.855422
116.889416,33.855576
116.892824,33.855887
116.896200,33.856356
116.899537,33.856983
116.902831,33.857767
116.906074,33.858708
116.909262,33.859806
116.912388,33.861061
116.915448,33.862473
116.918436,33.864041
116.921346,33.865765
116.924173,33.867645
116.926910,33.869681
116.929552,33.871872
116.932095,33.874219
116.934531,33.876721
116.936265,33.878780
116.937897,33.881109
116.939431,33.883894
116.940870,33.887319
116.942219,33.891568
116.943481,33.896825
116.944660,33.903274
116.945759,33.911101
116.946782,33.920488
116.947733,33.931621
116.948615,33.944684
116.949432,33.959860
116.950188,33.977335
116.950887,33.997293
116.951531,34.019917
116.952126,34.045393
116.953178,34.105635
116.954075,34.179493
116.954844,34.268442
116.955515,34.373956
116.956119,34.497509
116.956683,34.640575
116.957814,34.991146
116.958211,35.771535
116.954639,36.116155
116.953959,36.119760
116.953120,36.123416
116.952135,36.127100
116.951018,36.130789
116.949783,36.134460
116.948444,36.138088
116.947015,36.141651
116.945511,36.145126
116.943944,36.148490
116.942330,36.151718
116.940681,36.154789
116.939012,36.157677
116.937337,36.160362
116.935670,36.162818
116.934024,36.165024
116.932414,36.166954
116.930038,36.169060
116.927482,36.171011
116.924757,36.172808
116.921876,36.174452
116.918851,36.175943
116.915694,36.177282
116.912417,36.178469
116.909031,36.179506
116.905550,36.180392
116.901984,36.181128
116.894649,36.182153
116.887121,36.182587
116.879497,36.182433
116.871874,36.181695
116.864346,36.180380
116.857010,36.178491
116.849963,36.176033
116.846578,36.174592
116.843301,36.173011
116.840144,36.171289
116.837119,36.169429
116.834238,36.167429
116.831513,36.165292
116.828957,36.163016
116.826581,36.160604
116.824847,36.158549
116.823214,36.156244
116.821679,36.153525
116.820237,36.150228
116.818884,36.146190
116.817616,36.141247
116.816429,36.135237
116.815319,36.127994
116.814282,36.119357
116.813314,36.109160
116.812411,36.097242
116.811568,36.083437
116.810781,36.067583
116.810048,36.049516
116.809362,36.029072
116.808721,36.006088
116.807556,35.951845
116.806520,35.885479
116.805580,35.805681
116.804703,35.711143
116.803857,35.600557
116.803010,35.472613
116.801181,35.159421
116.795889,34.180463
116.139722,35.179530
115.483556,36.177538
115.435931,36.177538
115.428928,36.177485
115.422574,36.177312
115.416820,36.177001
115.411622,36.176529
115.406933,36.175878
115.402705,36.175026
115.398893,36.173955
115.395450,36.172643
115.392329,36.171071
115.389484,36.169218
115.386869,36.167064
115.384436,36.164590
115.382140,36.161774
115.379934,36.158597
115.377772,36.155039
115.375606,36.151079
115.373720,36.144499
115.372026,36.132269
115.370518,36.113751
115.369190,36.088307
115.367048,36.014083
115.365552,35.904488
115.364650,35.754411
115.364295,35.558743
115.365023,35.010196
115.367139,33.894713
115.392539,33.874604
115.395534,33.872205
115.398562,33.869966
115.401621,33.867887
115.404708,33.865968
115.407818,33.864209
115.410950,33.862610
115.414098,33.861169
115.417261,33.859887
115.420435,33.858763
115.423616,33.857797
115.426801,33.856988
115.429988,33.856336
115.433172,33.855841
115.436351,33.855501
115.439520,33.855318
115.442678,33.855290
Z" /> 
<path style="fill:#000000; fill-opacity:1.000000; 
stroke:#000000; stroke-width:0.000000; stroke-opacity:1; 
stroke-linecap:round; stroke-linejoin:round;fill-rule:evenodd;"
d="M 89.559682,35.015488
89.559021,35.547846
89.556772,35.885835
89.553793,36.013496
89.552538,36.067256
89.549553,36.111067
89.545924,36.129913
89.532165,36.156371
88.998766,36.156371
88.464309,36.155313
88.362707,36.127796
88.329977,36.118461
88.299207,36.108678
88.270322,36.098396
88.243248,36.087563
88.217910,36.076129
88.194234,36.064042
88.172145,36.051251
88.151570,36.037705
88.132433,36.023354
88.114660,36.008144
88.098177,35.992027
88.082910,35.974950
88.068784,35.956861
88.055724,35.937712
88.043657,35.917448
88.032507,35.896021
88.023411,35.877047
88.015150,35.858082
88.007692,35.838913
88.001005,35.819325
87.995056,35.799104
87.989812,35.778037
87.985241,35.755910
87.981310,35.732508
87.977987,35.707619
87.975239,35.681026
87.973034,35.652518
87.971339,35.621880
87.970121,35.588897
87.969349,35.553357
87.968989,35.515044
87.969003,35.484329
88.125642,35.484329
88.125814,35.551399
88.126419,35.605558
88.127595,35.648878
88.129478,35.683428
88.132205,35.711282
88.135911,35.734509
88.140733,35.755182
88.146807,35.775371
88.152516,35.791336
88.159288,35.807049
88.167071,35.822454
88.175812,35.837499
88.185458,35.852127
88.195957,35.866286
88.207256,35.879922
88.219302,35.892978
88.232043,35.905403
88.245426,35.917140
88.259398,35.928137
88.273906,35.938338
88.288898,35.947689
88.304321,35.956137
88.320122,35.963627
88.336248,35.970104
88.353884,35.976324
88.372209,35.981907
88.391741,35.986889
88.412995,35.991304
88.436487,35.995186
88.462735,35.998568
88.492253,36.001485
88.525559,36.003971
88.563168,36.006060
88.605597,36.007787
88.653363,36.009185
88.706980,36.010288
88.833837,36.011747
88.990299,36.012438
89.411517,36.013496
89.411517,34.955163
88.969132,34.955163
88.792011,34.956072
88.635626,34.958470
88.517143,34.961860
88.477478,34.963772
88.453725,34.965746
88.434337,34.969022
88.414757,34.973250
88.395115,34.978364
88.375541,34.984300
88.356165,34.990993
88.337118,34.998377
88.318530,35.006387
88.300531,35.014959
88.283252,35.024026
88.266821,35.033525
88.251371,35.043389
88.237031,35.053555
88.223930,35.063956
88.212200,35.074527
88.201971,35.085204
88.193373,35.095921
88.183020,35.110759
88.173751,35.125329
88.165508,35.139958
88.161753,35.147397
88.158234,35.154973
88.154942,35.162727
88.151871,35.170701
88.149014,35.178934
88.146363,35.187469
88.143911,35.196346
88.141652,35.205605
88.137680,35.225435
88.134390,35.247286
88.131725,35.271487
88.129627,35.298363
88.128040,35.328242
88.126905,35.361451
88.126165,35.398317
88.125763,35.439168
88.125642,35.484329
87.969003,35.484329
87.969008,35.473746
87.969531,35.413448
87.970414,35.363828
87.971817,35.322965
87.973902,35.288935
87.976831,35.259816
87.980764,35.233686
87.985864,35.208623
87.992290,35.182705
88.000185,35.155411
88.008819,35.129457
88.018233,35.104793
88.028472,35.081369
88.039580,35.059136
88.051599,35.038043
88.064573,35.018043
88.078545,34.999084
88.093560,34.981117
88.109659,34.964092
88.126887,34.947961
88.145287,34.932673
88.164902,34.918179
88.185777,34.904429
88.207953,34.891373
88.231475,34.878963
88.277115,34.855150
88.298149,34.844038
88.298286,34.843787
88.298302,34.843433
88.298199,34.842979
88.297980,34.842428
88.297648,34.841780
88.297205,34.841040
88.296000,34.839292
88.294385,34.837202
88.292382,34.834792
88.290014,34.832081
88.287302,34.829089
88.284267,34.825837
88.280931,34.822344
88.273444,34.814719
88.265015,34.806374
88.255817,34.797471
88.238773,34.781018
88.222953,34.763778
88.208338,34.745707
88.194913,34.726761
88.182660,34.706898
88.171561,34.686073
88.161601,34.664244
88.152761,34.641367
88.145026,34.617398
88.138377,34.592295
88.132798,34.566013
88.128271,34.538510
88.124780,34.509742
88.122308,34.479665
88.120837,34.448237
88.120350,34.415413
88.120609,34.403454
88.272726,34.403454
88.272750,34.429171
88.273518,34.454739
88.275024,34.479826
88.277261,34.504101
88.280224,34.527232
88.283907,34.548887
88.288302,34.568735
88.293405,34.586443
88.299208,34.601679
88.303560,34.611237
88.308090,34.620466
88.312808,34.629375
88.317726,34.637971
88.322854,34.646260
88.328203,34.654251
88.333784,34.661949
88.339606,34.669363
88.345681,34.676500
88.352019,34.683366
88.358632,34.689969
88.365529,34.696316
88.372721,34.702414
88.380220,34.708270
88.388035,34.713892
88.396177,34.719287
88.404657,34.724461
88.413486,34.729423
88.422675,34.734179
88.432233,34.738736
88.442171,34.743101
88.452502,34.747283
88.474378,34.755121
88.497947,34.762309
88.523295,34.768902
88.550505,34.774960
88.579665,34.780538
88.608524,34.784562
88.642256,34.787930
88.682562,34.790677
88.731140,34.792841
88.789689,34.794459
88.859909,34.795569
88.943498,34.796208
89.042156,34.796413
89.411517,34.796413
89.411517,34.034413
89.058032,34.034413
88.914165,34.035339
88.784189,34.037852
88.682390,34.041557
88.646523,34.043731
88.623057,34.046055
88.587374,34.051382
88.554090,34.057473
88.523121,34.064370
88.494387,34.072116
88.467804,34.080755
88.443291,34.090331
88.420766,34.100886
88.400146,34.112465
88.381349,34.125110
88.364293,34.138865
88.348896,34.153774
88.335075,34.169880
88.322749,34.187225
88.311836,34.205855
88.302252,34.225811
88.293916,34.247138
88.288557,34.264607
88.283986,34.284250
88.280196,34.305734
88.277181,34.328729
88.274935,34.352901
88.273452,34.377921
88.272726,34.403454
88.120609,34.403454
88.121336,34.369837
88.124317,34.326734
88.129329,34.286046
88.136407,34.247717
88.145587,34.211688
88.156906,34.177902
88.170397,34.146302
88.186098,34.116831
88.204044,34.089430
88.224270,34.064044
88.246813,34.040614
88.271707,34.019084
88.298989,33.999395
88.328694,33.981490
88.360858,33.965313
88.395516,33.950805
88.423193,33.940299
88.449550,33.930957
88.475303,33.922699
88.501167,33.915450
88.527855,33.909130
88.556082,33.903663
88.586564,33.898972
88.620014,33.894977
88.657148,33.891604
88.698680,33.888772
88.745325,33.886406
88.797798,33.884427
88.923084,33.881322
89.080257,33.878838
89.505706,33.873546
89.532165,33.900004
89.559682,33.927521
89.559682,34.796413
Z" /> 
<path style="fill:#000000; fill-opacity:1.000000; 
stroke:#000000; stroke-width:0.000000; stroke-opacity:1; 
stroke-linecap:round; stroke-linejoin:round;fill-rule:evenodd;"
d="M 103.628493,33.857948
103.679833,33.858994
103.720606,33.860735
103.752709,33.863194
103.778041,33.866398
103.798499,33.870371
103.821714,33.876824
103.844322,33.884262
103.866311,33.892668
103.887669,33.902022
103.908385,33.912307
103.928446,33.923503
103.947841,33.935592
103.966558,33.948556
103.984586,33.962375
104.001911,33.977031
104.018523,33.992506
104.034409,34.008781
104.049559,34.025838
104.063959,34.043657
104.077599,34.062220
104.090466,34.081509
104.102548,34.101504
104.113835,34.122188
104.124313,34.143542
104.133971,34.165547
104.142798,34.188184
104.150781,34.211436
104.157908,34.235282
104.164169,34.259706
104.169550,34.284687
104.174041,34.310208
104.177629,34.336250
104.180302,34.362794
104.182049,34.389822
104.182859,34.417315
104.182718,34.445254
104.181615,34.473621
104.178095,34.519896
104.172658,34.563526
104.165246,34.604595
104.155801,34.643186
104.144267,34.679384
104.130585,34.713272
104.114699,34.744933
104.096551,34.774452
104.076084,34.801913
104.053240,34.827398
104.027962,34.850992
104.000193,34.872778
103.969876,34.892840
103.936952,34.911263
103.901364,34.928128
103.863056,34.943521
103.841611,34.950632
103.804798,34.961314
103.693062,34.991411
103.543820,35.029841
103.373048,35.072638
103.204873,35.114855
103.062692,35.151616
102.961390,35.179050
102.930719,35.188060
102.915848,35.193288
102.909680,35.196699
102.903483,35.200572
102.897269,35.204892
102.891046,35.209642
102.884823,35.214808
102.878611,35.220374
102.866255,35.232645
102.854055,35.246328
102.842085,35.261302
102.830423,35.277442
102.819143,35.294623
102.808322,35.312722
102.798037,35.331615
102.788361,35.351178
102.779373,35.371286
102.771148,35.391816
102.763761,35.412644
102.757288,35.433645
102.751807,35.454696
102.742918,35.500854
102.737602,35.547042
102.735733,35.592941
102.737188,35.638234
102.741843,35.682603
102.749574,35.725731
102.760257,35.767298
102.773767,35.806989
102.789981,35.844484
102.808775,35.879466
102.830024,35.911617
102.853605,35.940620
102.866231,35.953841
102.879393,35.966156
102.893077,35.977525
102.907266,35.987908
102.921944,35.997266
102.937097,36.005558
102.952709,36.012745
102.968765,36.018788
102.976803,36.021245
102.985591,36.023465
102.995359,36.025459
103.006336,36.027238
103.018752,36.028812
103.032836,36.030192
103.048817,36.031389
103.066926,36.032414
103.087391,36.033278
103.110441,36.033991
103.165218,36.035010
103.233092,36.035558
103.315898,36.035721
103.422502,36.034938
103.512103,36.033224
103.587044,36.030345
103.649670,36.026064
103.702324,36.020146
103.747350,36.012355
103.787094,36.002456
103.823897,35.990213
103.836447,35.985323
103.848504,35.980169
103.860076,35.974734
103.871173,35.969000
103.881805,35.962952
103.891980,35.956573
103.901707,35.949845
103.910995,35.942753
103.919854,35.935279
103.928293,35.927408
103.936321,35.919121
103.943946,35.910404
103.951179,35.901238
103.958028,35.891607
103.964501,35.881496
103.970610,35.870886
103.976361,35.859761
103.981765,35.848105
103.986831,35.835901
103.991568,35.823133
103.995984,35.809782
104.000089,35.795834
104.003893,35.781272
104.007404,35.766078
104.010631,35.750236
104.013583,35.733729
104.018700,35.698654
104.022828,35.660721
104.026040,35.619796
104.028438,35.589450
104.030935,35.563953
104.033630,35.542796
104.035084,35.533687
104.036623,35.525472
104.038263,35.518088
104.040013,35.511472
104.041888,35.505559
104.043899,35.500287
104.046059,35.495592
104.048381,35.491409
104.050876,35.487676
104.053557,35.484329
104.055900,35.481923
104.058360,35.479667
104.060932,35.477560
104.063609,35.475602
104.066384,35.473796
104.069251,35.472139
104.072204,35.470635
104.075236,35.469281
104.078341,35.468080
104.081512,35.467031
104.084744,35.466134
104.088029,35.465391
104.091361,35.464801
104.094735,35.464365
104.098142,35.464084
104.101578,35.463957
104.105036,35.463985
104.108509,35.464168
104.111991,35.464507
104.115475,35.465002
104.118956,35.465654
104.122426,35.466463
104.125879,35.467430
104.129310,35.468554
104.132711,35.469836
104.136076,35.471276
104.139399,35.472876
104.142673,35.474635
104.145893,35.476553
104.149051,35.478632
104.152141,35.480871
104.155156,35.483271
104.159453,35.486734
104.161406,35.488415
104.163235,35.490090
104.164942,35.491780
104.166533,35.493505
104.168010,35.495287
104.169378,35.497145
104.170641,35.499101
104.171802,35.501176
104.172865,35.503389
104.173835,35.505763
104.174714,35.508317
104.175508,35.511072
104.176219,35.514050
104.176852,35.517270
104.177411,35.520754
104.177899,35.524522
104.178321,35.528595
104.178680,35.532994
104.178980,35.537740
104.179224,35.542852
104.179418,35.548353
104.179565,35.554262
104.179731,35.567390
104.179755,35.582401
104.179667,35.599462
104.179498,35.618738
104.178498,35.653327
104.176307,35.687192
104.172950,35.720255
104.168452,35.752435
104.162838,35.783654
104.156132,35.813833
104.148360,35.842892
104.139546,35.870753
104.129715,35.897337
104.118892,35.922564
104.107102,35.946356
104.094369,35.968633
104.080718,35.989316
104.066174,36.008326
104.050762,36.025585
104.034506,36.041013
104.022755,36.050741
104.009797,36.060445
103.995741,36.070078
103.980697,36.079592
103.964772,36.088939
103.948074,36.098070
103.930714,36.106937
103.912798,36.115493
103.894436,36.123689
103.875736,36.131477
103.856806,36.138810
103.837756,36.145639
103.818693,36.151916
103.799726,36.157593
103.780964,36.162622
103.762515,36.166954
103.735660,36.171701
103.701070,36.176008
103.613058,36.183226
103.507237,36.188460
103.392363,36.191561
103.277190,36.192379
103.170476,36.190767
103.080977,36.186575
103.045419,36.183465
103.017448,36.179655
102.985186,36.173265
102.954271,36.165594
102.924682,36.156628
102.896402,36.146350
102.869411,36.134745
102.843692,36.121797
102.819225,36.107492
102.795992,36.091813
102.773975,36.074744
102.753155,36.056272
102.733513,36.036379
102.715030,36.015051
102.697688,35.992271
102.681469,35.968025
102.666354,35.942297
102.652324,35.915071
102.643390,35.896298
102.635225,35.877999
102.627804,35.860049
102.621103,35.842327
102.615096,35.824711
102.609759,35.807078
102.605067,35.789305
102.600995,35.771270
102.597518,35.752851
102.594611,35.733924
102.592251,35.714369
102.590411,35.694061
102.589068,35.672879
102.588195,35.650701
102.587769,35.627403
102.587765,35.602863
102.588338,35.565127
102.590068,35.528879
102.592970,35.494069
102.597059,35.460649
102.602351,35.428568
102.608862,35.397778
102.616606,35.368227
102.625600,35.339867
102.635860,35.312648
102.647399,35.286520
102.660235,35.261434
102.674383,35.237341
102.689857,35.214190
102.706674,35.191932
102.724849,35.170517
102.744397,35.149896
102.763978,35.130719
102.773493,35.121856
102.783021,35.113410
102.792707,35.105335
102.802699,35.097581
102.813143,35.090099
102.824186,35.082841
102.835975,35.075758
102.848656,35.068802
102.862377,35.061923
102.877283,35.055074
102.893521,35.048205
102.911239,35.041269
102.930583,35.034216
102.951699,35.026997
102.974734,35.019565
102.999836,35.011870
103.027150,35.003863
103.056823,34.995497
103.123835,34.977491
103.202045,34.957461
103.292625,34.935020
103.396751,34.909776
103.650332,34.849329
103.721869,34.831561
103.752205,34.823406
103.779316,34.815529
103.803501,34.807776
103.825056,34.799993
103.844280,34.792023
103.861469,34.783713
103.876922,34.774906
103.890937,34.765448
103.903810,34.755184
103.915841,34.743959
103.927325,34.731618
103.938562,34.718005
103.949848,34.702966
103.961481,34.686346
103.970973,34.671569
103.979620,34.656930
103.987445,34.642319
103.994471,34.627625
104.000723,34.612739
104.006223,34.597552
104.010994,34.581951
104.015059,34.565828
104.018443,34.549073
104.021167,34.531575
104.023256,34.513225
104.024733,34.493911
104.025621,34.473525
104.025942,34.451956
104.025721,34.429094
104.024981,34.404830
104.023797,34.367701
104.023105,34.352130
104.022253,34.338188
104.021172,34.325597
104.019791,34.314082
104.018042,34.303366
104.015854,34.293175
104.013157,34.283232
104.009882,34.273261
104.005959,34.262986
104.001318,34.252132
103.995890,34.240421
103.989604,34.227579
103.974181,34.197396
103.963924,34.177888
103.953740,34.159801
103.943553,34.143065
103.933287,34.127612
103.922865,34.113375
103.912213,34.100286
103.901254,34.088275
103.889912,34.077275
103.878110,34.067218
103.865775,34.058035
103.852828,34.049658
103.839194,34.042020
103.824798,34.035051
103.809563,34.028683
103.793413,34.022849
103.776273,34.017480
103.766644,34.014849
103.756588,34.012508
103.745780,34.010450
103.733890,34.008666
103.720593,34.007148
103.705561,34.005890
103.688467,34.004882
103.668985,34.004118
103.646786,34.003590
103.621544,34.003289
103.560621,34.003341
103.483600,34.004211
103.387865,34.005838
103.271543,34.007866
103.180001,34.010352
103.108849,34.013856
103.079547,34.016164
103.053696,34.018935
103.030747,34.022239
103.010152,34.026147
102.991361,34.030727
102.973825,34.036050
102.956997,34.042185
102.940327,34.049203
102.905266,34.066163
102.894678,34.071676
102.884540,34.077317
102.874841,34.083108
102.865572,34.089070
102.856721,34.095226
102.848280,34.101598
102.840239,34.108208
102.832587,34.115078
102.825316,34.122230
102.818414,34.129686
102.811872,34.137469
102.805680,34.145600
102.799829,34.154101
102.794308,34.162996
102.789108,34.172305
102.784218,34.182050
102.779629,34.192255
102.775331,34.202941
102.771314,34.214129
102.767568,34.225843
102.764083,34.238104
102.760850,34.250934
102.757858,34.264356
102.755098,34.278392
102.752559,34.293063
102.750232,34.308391
102.746174,34.341110
102.742845,34.376725
102.740166,34.415413
102.738646,34.437776
102.736840,34.458089
102.734708,34.476437
102.732211,34.492903
102.729312,34.507570
102.725971,34.520523
102.722149,34.531845
102.717808,34.541619
102.712909,34.549930
102.710238,34.553563
102.707413,34.556862
102.704429,34.559836
102.701281,34.562497
102.697965,34.564855
102.694475,34.566920
102.690807,34.568703
102.686955,34.570214
102.678684,34.572464
102.669622,34.573752
102.659731,34.574163
102.655428,34.574067
102.651249,34.573778
102.647195,34.573298
102.643267,34.572625
102.639466,34.571760
102.635791,34.570703
102.632244,34.569453
102.628825,34.568011
102.625535,34.566377
102.622374,34.564551
102.619342,34.562533
102.616442,34.560322
102.613672,34.557919
102.611033,34.555324
102.608527,34.552536
102.606154,34.549557
102.603914,34.546385
102.601808,34.543021
102.599836,34.539464
102.597999,34.535716
102.596298,34.531775
102.594734,34.527642
102.593306,34.523316
102.592015,34.518799
102.590863,34.514089
102.589849,34.509187
102.588974,34.504093
102.588239,34.498806
102.587644,34.493327
102.587190,34.487656
102.586877,34.481793
102.586707,34.475738
102.586275,34.435101
102.586624,34.399091
102.587841,34.366777
102.590013,34.337228
102.593228,34.309515
102.597571,34.282708
102.603129,34.255875
102.609990,34.228088
102.619565,34.193459
102.630480,34.160958
102.642813,34.130503
102.656639,34.102014
102.664135,34.088481
102.672034,34.075410
102.680343,34.062789
102.689073,34.050610
102.698233,34.038862
102.707833,34.027535
102.717883,34.016618
102.728391,34.006102
102.739367,33.995977
102.750820,33.986233
102.762761,33.976859
102.775199,33.967845
102.801602,33.950859
102.830106,33.935194
102.860787,33.920769
102.893720,33.907504
102.928982,33.895317
102.966648,33.884129
102.980228,33.880554
102.993480,33.877352
103.006848,33.874500
103.020772,33.871975
103.035694,33.869754
103.052056,33.867814
103.070301,33.866131
103.090870,33.864683
103.114204,33.863445
103.140746,33.862394
103.170937,33.861508
103.205219,33.860764
103.287825,33.859604
103.392098,33.858730
103.564689,33.857572
Z" /> 
<path style="fill:#000000; fill-opacity:1.000000; 
stroke:#000000; stroke-width:0.000000; stroke-opacity:1; 
stroke-linecap:round; stroke-linejoin:round;fill-rule:evenodd;"
d="M 94.873338,88.388350
94.879411,88.388990
94.885194,88.390089
94.887952,88.390814
94.890608,88.391656
94.893154,88.392618
94.895580,88.393701
94.897875,88.394906
94.900032,88.396233
94.903208,88.398448
94.906191,88.400861
94.907613,88.402203
94.908989,88.403667
94.910319,88.405280
94.911605,88.407064
94.912848,88.409046
94.914048,88.411249
94.915205,88.413698
94.916322,88.416418
94.917397,88.419433
94.918433,88.422768
94.919430,88.426448
94.920388,88.430496
94.921309,88.434939
94.922193,88.439800
94.923041,88.445104
94.923854,88.450875
94.924632,88.457139
94.925376,88.463920
94.926765,88.479130
94.928029,88.496703
94.929172,88.516835
94.930200,88.539724
94.931121,88.565566
94.931939,88.594558
94.932660,88.626898
94.933292,88.662781
94.933839,88.702405
94.934308,88.745967
94.934704,88.793664
94.935305,88.902248
94.935688,89.029734
94.935902,89.177696
94.936016,89.541349
94.935305,90.180450
94.931121,90.517133
94.926765,90.603569
94.920388,90.652203
94.916322,90.666281
94.911605,90.675635
94.900032,90.686466
94.895487,90.687259
94.884460,90.688045
94.844320,90.689575
94.701197,90.692287
94.492391,90.694205
94.239633,90.694933
93.590873,90.694933
93.565475,90.668474
93.562736,90.665800
93.560083,90.662955
93.557530,90.659968
93.555089,90.656866
93.552772,90.653677
93.550591,90.650429
93.548559,90.647150
93.546688,90.643868
93.544991,90.640611
93.543481,90.637407
93.542168,90.634283
93.541066,90.631267
93.540188,90.628388
93.539545,90.625674
93.539150,90.623152
93.539016,90.620849
93.539150,90.618547
93.539545,90.616025
93.540188,90.613310
93.541066,90.610431
93.542168,90.607416
93.543481,90.604292
93.544991,90.601088
93.546688,90.597831
93.548559,90.594549
93.550591,90.591270
93.552772,90.588022
93.555089,90.584833
93.557530,90.581731
93.560083,90.578743
93.562736,90.575899
93.565475,90.573224
93.590873,90.546766
94.787848,90.546766
94.787848,89.488433
94.788179,88.882057
94.790494,88.564905
94.793016,88.484370
94.796778,88.439641
94.802029,88.418551
94.809015,88.408933
94.811076,88.406992
94.813282,88.405139
94.815624,88.403376
94.818092,88.401702
94.823371,88.398631
94.829041,88.395935
94.835028,88.393624
94.841256,88.391706
94.847647,88.390191
94.854127,88.389089
94.860620,88.388409
94.867049,88.388159
Z" /> 
<path style="fill:#000000; fill-opacity:1.000000; 
stroke:#000000; stroke-width:0.000000; stroke-opacity:1; 
stroke-linecap:round; stroke-linejoin:round;fill-rule:evenodd;"
d="M 114.250597,90.396135
114.349022,90.682233
114.348997,90.689377
114.348518,90.696132
114.348107,90.699364
114.347581,90.702501
114.346938,90.705544
114.346178,90.708493
114.345301,90.711348
114.344304,90.714112
114.343189,90.716784
114.341953,90.719365
114.340596,90.721857
114.339118,90.724259
114.337517,90.726573
114.335793,90.728799
114.333945,90.730939
114.331972,90.732992
114.329874,90.734961
114.327649,90.736844
114.325297,90.738644
114.322817,90.740361
114.320209,90.741996
114.317471,90.743550
114.314603,90.745023
114.311603,90.746416
114.305209,90.748966
114.298281,90.751205
114.290814,90.753141
114.285555,90.754269
114.280476,90.755043
114.275554,90.755423
114.270766,90.755363
114.266086,90.754822
114.261493,90.753757
114.256960,90.752125
114.252466,90.749883
114.247986,90.746989
114.243495,90.743399
114.238971,90.739070
114.234390,90.733961
114.229727,90.728027
114.224958,90.721227
114.220061,90.713517
114.215011,90.704855
114.209784,90.695197
114.204357,90.684501
114.198705,90.672724
114.192805,90.659824
114.186632,90.645757
114.180164,90.630480
114.173376,90.613951
114.166245,90.596127
114.150856,90.556423
114.133807,90.511025
114.114906,90.459589
114.093964,90.401774
114.010885,90.169999
113.962731,90.033474
113.938389,89.964683
112.962606,89.964683
112.828198,90.337216
112.779938,90.470858
112.741762,90.573506
112.711647,90.648992
112.698981,90.677748
112.687572,90.701150
112.677167,90.719679
112.667515,90.733812
112.658362,90.744029
112.649455,90.750809
112.640542,90.754632
112.631371,90.755975
112.621687,90.755318
112.611240,90.753141
112.604236,90.751160
112.597527,90.748804
112.591134,90.746095
112.585079,90.743054
112.579384,90.739703
112.574070,90.736063
112.569159,90.732157
112.564673,90.728006
112.560633,90.723631
112.557062,90.719055
112.553980,90.714300
112.552630,90.711861
112.551411,90.709386
112.550324,90.706876
112.549374,90.704335
112.548563,90.701766
112.547892,90.699170
112.547367,90.696551
112.546988,90.693912
112.546758,90.691255
112.546681,90.688583
112.859022,89.811224
113.022931,89.811224
113.059098,89.813655
113.154512,89.815392
113.444545,89.816781
113.735966,89.815392
113.833116,89.813655
113.871714,89.811224
113.871284,89.807848
113.868872,89.799095
113.858502,89.766576
113.818401,89.649299
113.757861,89.477254
113.683331,89.268299
113.482115,88.715188
113.456963,88.649919
113.453224,88.643323
113.451556,88.643883
113.387262,88.816259
113.235656,89.225966
113.085637,89.636864
113.022931,89.811224
112.859022,89.811224
112.932444,89.604982
113.356306,88.442799
113.371123,88.408933
113.451556,88.408933
113.470561,88.409131
113.487109,88.409727
113.501227,88.410719
113.507383,88.411364
113.512939,88.412108
113.517901,88.412951
113.522270,88.413894
113.526050,88.414936
113.529244,88.416077
113.531855,88.417317
113.533887,88.418656
113.535341,88.420095
113.536223,88.421633
114.019616,89.749180
114.041768,89.811224
Z" /> 
<path style="fill:#000000; fill-opacity:1.000000; 
stroke:#000000; stroke-width:0.000000; stroke-opacity:1; 
stroke-linecap:round; stroke-linejoin:round;fill-rule:evenodd;"
d="M 108.493264,89.190280
108.493264,90.342508
107.803231,90.742558
107.312694,91.025133
107.160591,91.111056
107.101557,91.142608
107.084820,91.134447
107.042075,91.111056
106.890022,91.025133
106.668318,90.897934
106.399881,90.742558
105.709848,90.343566
105.709848,89.908376
105.859552,89.908376
105.861057,90.118538
105.864745,90.230076
105.867438,90.256148
105.870714,90.266308
106.051243,90.373762
106.433880,90.596508
106.818303,90.818460
107.004189,90.923533
107.005731,90.923984
107.006467,90.924081
107.007182,90.924076
107.007874,90.923956
107.008544,90.923707
107.009193,90.923317
107.009820,90.922772
107.010427,90.922060
107.011013,90.921167
107.011578,90.920081
107.012124,90.918789
107.012650,90.917277
107.013156,90.915533
107.013643,90.913544
107.014111,90.911296
107.014992,90.905973
107.015801,90.899462
107.016540,90.891658
107.017212,90.882456
107.017819,90.871754
107.018362,90.859448
107.018846,90.845433
107.019271,90.829606
107.019640,90.811862
107.019956,90.792099
107.020437,90.746097
107.020491,90.735943
107.172332,90.735943
107.173209,90.883978
107.174581,90.938349
107.221809,90.911808
107.347619,90.839528
107.758781,90.601799
108.339806,90.264191
108.342982,89.574158
108.343775,89.190280
108.342187,88.985195
108.340129,88.932771
108.337028,88.904729
108.335040,88.897736
108.332737,88.894299
108.330098,88.893571
108.327106,88.894708
108.147189,88.998028
107.741848,89.232316
107.175640,89.560400
107.172465,90.249374
107.172363,90.625281
107.172332,90.735943
107.020491,90.735943
107.020731,90.690768
107.020858,90.625281
107.020837,90.548806
107.020685,90.460512
107.020065,90.245141
107.016890,89.559341
106.440098,89.228083
105.863307,88.896825
105.860131,89.576274
105.859552,89.908376
105.709848,89.908376
105.709848,88.768766
105.931833,88.768766
105.931855,88.769113
105.931920,88.769460
105.932028,88.769806
105.932180,88.770151
105.932376,88.770494
105.932615,88.770836
105.932897,88.771175
105.933222,88.771511
105.933591,88.771844
105.934004,88.772174
105.934459,88.772500
105.934959,88.772822
105.935501,88.773139
105.936087,88.773451
105.936717,88.773757
105.937389,88.774058
106.519474,89.107433
106.752786,89.240452
106.936589,89.342912
107.058678,89.408066
107.092765,89.424544
107.102403,89.428390
107.106848,89.429166
107.302210,89.320059
107.696604,89.092087
108.083458,88.865703
108.256198,88.761358
107.680068,88.424146
107.104732,88.092491
107.091484,88.098957
107.056494,88.118222
106.930768,88.189593
106.522648,88.424808
105.937389,88.763475
105.936717,88.763775
105.936087,88.764082
105.935501,88.764394
105.934959,88.764711
105.934459,88.765032
105.934004,88.765358
105.933591,88.765688
105.933222,88.766021
105.932897,88.766357
105.932615,88.766696
105.932376,88.767038
105.932180,88.767381
105.932028,88.767726
105.931920,88.768072
105.931855,88.768419
105.931833,88.768766
105.709848,88.768766
105.709848,88.729608
106.399881,88.329558
107.097323,87.926333
107.112669,87.933842
107.154407,87.956843
107.305550,88.042617
107.527734,88.170262
107.797940,88.326383
108.493264,88.729608
108.493264,88.761358
Z" /> 
<path style="fill:#000000; fill-opacity:1.000000; 
stroke:#000000; stroke-width:0.000000; stroke-opacity:1; 
stroke-linecap:round; stroke-linejoin:round;fill-rule:evenodd;"
d="M 92.624615,90.670591
92.625211,90.674060
92.625612,90.677518
92.625821,90.680961
92.625841,90.684385
92.625676,90.687784
92.625330,90.691155
92.624804,90.694493
92.624103,90.697794
92.623230,90.701052
92.622189,90.704265
92.620981,90.707426
92.619612,90.710533
92.618083,90.713580
92.616399,90.716562
92.614563,90.719476
92.612578,90.722317
92.610447,90.725081
92.608173,90.727762
92.605760,90.730357
92.603212,90.732861
92.600531,90.735270
92.597720,90.737579
92.594784,90.739784
92.591725,90.741880
92.588547,90.743863
92.585252,90.745728
92.581845,90.747471
92.578328,90.749088
92.574705,90.750573
92.570980,90.751923
92.567154,90.753134
92.563232,90.754200
92.557885,90.755331
92.552738,90.756108
92.547760,90.756473
92.542922,90.756370
92.538194,90.755741
92.533546,90.754530
92.531243,90.753688
92.528949,90.752679
92.526660,90.751496
92.524372,90.750131
92.522082,90.748579
92.519786,90.746831
92.515161,90.742719
92.510467,90.737741
92.505674,90.731838
92.500752,90.724954
92.495672,90.717031
92.490403,90.708013
92.484916,90.697843
92.479181,90.686464
92.473169,90.673818
92.466848,90.659850
92.460190,90.644501
92.453165,90.627715
92.445742,90.609435
92.437892,90.589603
92.429585,90.568164
92.411481,90.520234
92.391192,90.465188
92.368477,90.402570
92.343099,90.331924
92.211864,89.964683
91.236082,89.964683
91.104849,90.331924
91.056757,90.465188
91.018364,90.568164
90.987759,90.644501
90.974781,90.673818
90.963033,90.697843
90.952278,90.717031
90.942276,90.731838
90.932788,90.742719
90.923577,90.750131
90.914403,90.754530
90.905027,90.756370
90.895211,90.756108
90.884716,90.754200
90.880794,90.753134
90.876969,90.751923
90.873243,90.750572
90.869622,90.749084
90.866107,90.747463
90.862703,90.745714
90.859412,90.743840
90.856240,90.741847
90.853188,90.739737
90.850260,90.737514
90.847461,90.735184
90.844792,90.732750
90.842259,90.730215
90.839864,90.727585
90.837611,90.724863
90.835503,90.722053
90.833544,90.719159
90.831738,90.716185
90.830087,90.713137
90.828595,90.710016
90.827267,90.706828
90.826104,90.703577
90.825111,90.700266
90.824292,90.696901
90.823649,90.693484
90.823187,90.690020
90.822908,90.686513
90.822816,90.682967
90.822915,90.679386
90.823209,90.675774
90.823699,90.672135
90.824391,90.668474
90.858639,90.568611
90.947556,90.319621
91.130822,89.813341
91.295350,89.813341
91.297570,89.813726
91.304087,89.814085
91.329134,89.814730
91.421159,89.815722
91.557435,89.816318
91.723974,89.816516
92.026791,89.815722
92.118816,89.814730
92.152600,89.813341
91.733499,88.652350
91.713457,88.697982
91.663252,88.825718
91.512837,89.220145
91.363215,89.620923
91.314003,89.756596
91.295350,89.813341
91.130822,89.813341
91.235026,89.525474
91.640364,88.414225
91.720799,88.411049
91.737157,88.410495
91.752648,88.410388
91.766898,88.410677
91.779536,88.411314
91.790190,88.412248
91.798487,88.413431
91.801636,88.414099
91.804057,88.414811
91.805702,88.415561
91.806525,88.416341
92.217554,89.539497
92.316106,89.813341
Z" /> 
<path style="fill:#000000; fill-opacity:1.000000; 
stroke:#000000; stroke-width:0.000000; stroke-opacity:1; 
stroke-linecap:round; stroke-linejoin:round;fill-rule:evenodd;"
d="M 111.343091,88.388824
111.349594,88.389593
111.355973,88.390904
111.362179,88.392755
111.365201,88.393881
111.368161,88.395141
111.371052,88.396535
111.373870,88.398062
111.376606,88.399721
111.379256,88.401512
111.381813,88.403435
111.384271,88.405490
111.386623,88.407675
111.388864,88.409991
111.390598,88.412053
111.392230,88.414395
111.393764,88.417205
111.395204,88.420668
111.396553,88.424972
111.397815,88.430304
111.398993,88.436851
111.400092,88.444801
111.401115,88.454339
111.402066,88.465653
111.402948,88.478931
111.403766,88.494358
111.404522,88.512123
111.405220,88.532411
111.405865,88.555411
111.406459,88.581309
111.407512,88.642547
111.408408,88.717621
111.409178,88.808028
111.409849,88.915263
111.410452,89.040822
111.411017,89.186202
111.412148,89.542408
111.413421,90.252202
111.411757,90.462110
111.407253,90.597169
111.398929,90.673739
111.393028,90.695203
111.385805,90.708178
111.377137,90.714711
111.366902,90.716846
111.341239,90.716099
111.336529,90.716025
111.331929,90.715804
111.327454,90.715437
111.323116,90.714925
111.318926,90.714271
111.314897,90.713476
111.311042,90.712542
111.307373,90.711469
111.303902,90.710260
111.300642,90.708916
111.297606,90.707439
111.294805,90.705830
111.292252,90.704091
111.289960,90.702223
111.287940,90.700228
111.286206,90.698108
111.285043,90.696329
111.283933,90.693513
111.281869,90.684420
111.279997,90.670123
111.278301,90.649920
111.276767,90.623107
111.275379,90.588979
111.272977,90.495966
111.270972,90.365250
111.269240,90.191199
111.266098,89.690574
111.260806,88.701033
110.621573,89.673641
110.163050,90.371612
109.956940,90.682233
109.953074,90.687322
109.949384,90.691892
109.945822,90.695969
109.944073,90.697831
109.942338,90.699579
109.940611,90.701218
109.938885,90.702750
109.937155,90.704178
109.935415,90.705506
109.933659,90.706737
109.931880,90.707874
109.930074,90.708921
109.928232,90.709882
109.926351,90.710758
109.924423,90.711554
109.922443,90.712273
109.920404,90.712918
109.918302,90.713493
109.916128,90.714000
109.913879,90.714443
109.911547,90.714826
109.906612,90.715423
109.901275,90.715816
109.895489,90.716033
109.889206,90.716099
109.875654,90.716514
109.869555,90.716662
109.863886,90.716440
109.861209,90.716114
109.858633,90.715603
109.856156,90.714876
109.853778,90.713902
109.851495,90.712650
109.849306,90.711091
109.847209,90.709191
109.845202,90.706922
109.843283,90.704251
109.841450,90.701148
109.839702,90.697583
109.838035,90.693523
109.836448,90.688939
109.834940,90.683800
109.833507,90.678073
109.832149,90.671730
109.830863,90.664738
109.829648,90.657068
109.828501,90.648687
109.827420,90.639565
109.825450,90.618976
109.823722,90.595053
109.822220,90.567548
109.820929,90.536215
109.819833,90.500807
109.818916,90.461076
109.818163,90.416776
109.817557,90.367659
109.817084,90.313479
109.816727,90.253988
109.816300,90.118086
109.816150,89.957975
109.816181,89.557224
109.816925,88.879858
109.818916,88.674339
109.822928,88.538050
109.829669,88.456331
109.834283,88.431354
109.839845,88.414522
109.846442,88.404003
109.854163,88.397965
109.873331,88.392000
109.879840,88.390647
109.886257,88.389759
109.892565,88.389330
109.898748,88.389354
109.904788,88.389824
109.910669,88.390735
109.916372,88.392079
109.921882,88.393852
109.927182,88.396046
109.932253,88.398655
109.937079,88.401674
109.941643,88.405096
109.945929,88.408915
109.949918,88.413125
109.953594,88.417719
109.956940,88.422691
109.958665,88.428583
109.960274,88.439815
109.961774,88.456838
109.963174,88.480106
109.965702,88.547186
109.967920,88.644677
109.969890,88.776199
109.971674,88.945376
109.974931,89.411174
109.980223,90.376374
110.625806,89.397416
111.087769,88.700371
111.233322,88.485249
111.292556,88.402583
111.295374,88.400670
111.298265,88.398899
111.301225,88.397270
111.304247,88.395782
111.307325,88.394436
111.310453,88.393230
111.316832,88.391239
111.323335,88.389806
111.329912,88.388928
111.336514,88.388602
Z" /> 
<path style="fill:#000000; fill-opacity:1.000000; 
stroke:#000000; stroke-width:0.000000; stroke-opacity:1; 
stroke-linecap:round; stroke-linejoin:round;fill-rule:evenodd;"
d="M 101.493779,90.230358
101.567904,90.440681
101.614098,90.581427
101.636877,90.667503
101.640897,90.694699
101.640755,90.713817
101.637017,90.726723
101.630247,90.735278
101.609866,90.746791
101.606496,90.748295
101.603133,90.749632
101.599780,90.750801
101.596438,90.751804
101.593108,90.752640
101.589792,90.753309
101.586492,90.753813
101.583209,90.754150
101.579944,90.754321
101.576700,90.754327
101.573477,90.754167
101.570277,90.753842
101.567103,90.753352
101.563954,90.752696
101.560834,90.751877
101.557743,90.750892
101.554683,90.749743
101.551655,90.748431
101.548662,90.746954
101.545704,90.745313
101.542784,90.743509
101.539902,90.741542
101.537061,90.739411
101.534261,90.737117
101.531505,90.734661
101.528794,90.732042
101.526129,90.729261
101.523513,90.726317
101.518430,90.719944
101.513558,90.712925
101.511127,90.708331
101.507456,90.700237
101.496690,90.674328
101.481857,90.636762
101.463551,90.589099
101.418902,90.469739
101.367507,90.328749
101.238390,89.969974
100.748382,89.966799
100.403100,89.966138
100.298028,89.966651
100.259432,89.967858
100.219232,90.083845
100.129918,90.331395
100.038422,90.581327
99.991673,90.704458
99.989561,90.708442
99.987394,90.712258
99.985170,90.715907
99.982890,90.719388
99.980553,90.722701
99.978160,90.725845
99.975709,90.728820
99.973202,90.731627
99.970637,90.734265
99.968014,90.736734
99.965334,90.739033
99.962596,90.741162
99.959799,90.743122
99.956945,90.744912
99.954032,90.746532
99.951060,90.747982
99.948029,90.749261
99.944939,90.750369
99.941790,90.751306
99.938581,90.752072
99.935313,90.752667
99.931984,90.753091
99.928596,90.753342
99.925147,90.753422
99.921638,90.753330
99.918068,90.753065
99.914438,90.752628
99.910746,90.752019
99.906993,90.751236
99.903179,90.750281
99.899303,90.749152
99.895365,90.747849
99.888714,90.745613
99.882638,90.743252
99.877117,90.740743
99.874559,90.739425
99.872131,90.738060
99.869832,90.736645
99.867660,90.735178
99.865611,90.733655
99.863683,90.732074
99.861874,90.730430
99.860181,90.728721
99.858601,90.726944
99.857133,90.725095
99.855773,90.723172
99.854519,90.721172
99.853369,90.719091
99.852319,90.716926
99.851368,90.714675
99.850513,90.712333
99.849751,90.709899
99.849080,90.707368
99.848498,90.704738
99.848001,90.702006
99.847255,90.696223
99.846822,90.689992
99.846683,90.683291
100.158594,89.810166
100.322933,89.810166
100.325141,89.810749
100.331621,89.811303
100.356518,89.812316
100.395877,89.813180
100.447948,89.813870
100.583232,89.814631
100.748382,89.814400
100.931821,89.812250
101.064956,89.809108
101.145902,89.805172
101.166215,89.802969
101.171228,89.801819
101.172773,89.800641
101.156402,89.753264
101.113242,89.632763
100.972748,89.245016
100.765314,88.670341
100.762943,88.664560
100.760635,88.659212
100.758450,88.654435
100.756452,88.650365
100.754701,88.647138
100.753938,88.645884
100.753260,88.644892
100.752676,88.644178
100.752192,88.643761
100.751990,88.643669
100.751816,88.643657
100.751672,88.643727
100.751557,88.643883
100.733301,88.690912
100.686470,88.816127
100.535657,89.224908
100.385242,89.635806
100.322933,89.810166
100.158594,89.810166
100.246732,89.563442
100.662657,88.426924
100.663474,88.425569
100.664342,88.424281
100.665269,88.423057
100.666262,88.421897
100.667330,88.420799
100.668480,88.419762
100.669720,88.418784
100.671058,88.417862
100.672501,88.416997
100.674057,88.416186
100.675735,88.415428
100.677540,88.414721
100.679483,88.414063
100.681569,88.413453
100.683807,88.412890
100.686205,88.412372
100.688771,88.411898
100.691512,88.411465
100.694435,88.411073
100.697549,88.410719
100.700862,88.410402
100.704381,88.410121
100.712068,88.409660
100.720673,88.409324
100.730258,88.409098
100.740885,88.408972
100.752615,88.408933
100.771574,88.409131
100.788003,88.409727
100.801951,88.410719
100.808011,88.411364
100.813469,88.412108
100.818332,88.412951
100.822605,88.413894
100.826296,88.414936
100.829410,88.416077
100.831954,88.417317
100.833933,88.418656
100.835354,88.420095
100.836223,88.421633
101.243682,89.541349
101.337800,89.800641
Z" /> 
<path style="fill:#000000; fill-opacity:1.000000; 
stroke:#000000; stroke-width:0.000000; stroke-opacity:1; 
stroke-linecap:round; stroke-linejoin:round;fill-rule:evenodd;"
d="M 98.880292,88.413298
99.032179,88.415531
99.095265,88.418458
99.098697,88.419548
99.102044,88.420829
99.105302,88.422294
99.108468,88.423936
99.111536,88.425746
99.114504,88.427718
99.117366,88.429844
99.120120,88.432117
99.122760,88.434530
99.125283,88.437074
99.127685,88.439744
99.129961,88.442531
99.132108,88.445428
99.134121,88.448428
99.135997,88.451523
99.137731,88.454706
99.139319,88.457969
99.140758,88.461306
99.142043,88.464709
99.143169,88.468171
99.144134,88.471683
99.144933,88.475239
99.145561,88.478832
99.146016,88.482454
99.146292,88.486097
99.146386,88.489755
99.146293,88.493420
99.146010,88.497085
99.145532,88.500741
99.144856,88.504383
99.143977,88.508002
99.142891,88.511591
99.141093,88.516408
99.139234,88.520941
99.137260,88.525201
99.135116,88.529194
99.132749,88.532930
99.130103,88.536417
99.127124,88.539664
99.123758,88.542680
99.121912,88.544103
99.119949,88.545472
99.117863,88.546787
99.115645,88.548049
99.110790,88.550420
99.105330,88.552593
99.099210,88.554578
99.092375,88.556381
99.084773,88.558013
99.076347,88.559481
99.067044,88.560794
99.056809,88.561960
99.045588,88.562989
99.033326,88.563888
99.019968,88.564666
99.005461,88.565332
98.989749,88.565893
98.972779,88.566360
98.934845,88.567041
98.891223,88.567443
98.841478,88.567634
98.785173,88.567683
98.492015,88.567683
98.492015,89.612258
98.491354,90.122374
98.489105,90.447547
98.484871,90.623098
98.481887,90.665804
98.478257,90.684349
98.476526,90.687450
98.474520,90.690399
98.472253,90.693196
98.469743,90.695838
98.467003,90.698324
98.464051,90.700651
98.460901,90.702817
98.457570,90.704822
98.454072,90.706661
98.450425,90.708335
98.446643,90.709840
98.442743,90.711176
98.438739,90.712339
98.434648,90.713328
98.430485,90.714141
98.426266,90.714776
98.422007,90.715232
98.417723,90.715506
98.413431,90.715596
98.409145,90.715500
98.404882,90.715217
98.400656,90.714744
98.396485,90.714080
98.392383,90.713222
98.388367,90.712169
98.384451,90.710919
98.380652,90.709469
98.376986,90.707819
98.373467,90.705965
98.370112,90.703906
98.366937,90.701641
98.363957,90.699166
98.362223,90.697409
98.360592,90.695392
98.359059,90.692937
98.357623,90.689862
98.356280,90.685990
98.355027,90.681142
98.353861,90.675137
98.352778,90.667796
98.351776,90.658942
98.350852,90.648393
98.350001,90.635971
98.349223,90.621496
98.348512,90.604791
98.347867,90.585674
98.347283,90.563967
98.346759,90.539490
98.346290,90.512065
98.345874,90.481512
98.345188,90.410305
98.344675,90.324436
98.344311,90.222470
98.344071,90.102973
98.343931,89.964511
98.343848,89.624958
98.343848,88.568741
98.037991,88.565566
97.870046,88.563268
97.815120,88.561827
97.775523,88.559878
97.748230,88.557184
97.738251,88.555485
97.730214,88.553511
97.723739,88.551234
97.718448,88.548623
97.709908,88.542283
97.707216,88.539721
97.704699,88.537001
97.702355,88.534135
97.700184,88.531133
97.698187,88.528006
97.696364,88.524763
97.694715,88.521416
97.693239,88.517974
97.691937,88.514449
97.690808,88.510851
97.689853,88.507190
97.689072,88.503476
97.688464,88.499721
97.688030,88.495934
97.687769,88.492126
97.687682,88.488308
97.687769,88.484490
97.688030,88.480682
97.688464,88.476895
97.689072,88.473140
97.689853,88.469426
97.690808,88.465765
97.691937,88.462167
97.693239,88.458641
97.694715,88.455200
97.696364,88.451853
97.698187,88.448610
97.700184,88.445483
97.702355,88.442481
97.704699,88.439615
97.707216,88.436895
97.709908,88.434333
97.711932,88.432599
97.714111,88.430967
97.716555,88.429434
97.719374,88.427995
97.722681,88.426648
97.726585,88.425389
97.731198,88.424215
97.736630,88.423121
97.742992,88.422105
97.750395,88.421163
97.758951,88.420292
97.768768,88.419487
97.779960,88.418746
97.792636,88.418066
97.806907,88.417442
97.822884,88.416870
97.860400,88.415874
97.906071,88.415047
97.960783,88.414364
98.025423,88.413795
98.100878,88.413312
98.188034,88.412889
98.400999,88.412108
98.662325,88.412058
Z" /> 
<path style="fill:#000000; fill-opacity:1.000000; 
stroke:#000000; stroke-width:0.000000; stroke-opacity:1; 
stroke-linecap:round; stroke-linejoin:round;fill-rule:evenodd;"
d="M 115.572820,88.388687
115.575943,88.388969
115.579044,88.389405
115.582119,88.389995
115.585166,88.390738
115.588181,88.391634
115.591161,88.392683
115.594102,88.393885
115.597001,88.395238
115.599855,88.396743
115.602661,88.398399
115.605415,88.400206
115.608114,88.402163
115.610754,88.404270
115.613333,88.406527
115.615847,88.408933
115.617770,88.410925
115.619573,88.413048
115.620431,88.414213
115.621260,88.415476
115.622061,88.416860
115.622834,88.418386
115.623580,88.420075
115.624300,88.421950
115.624993,88.424032
115.625661,88.426343
115.626303,88.428906
115.626921,88.431741
115.627515,88.434872
115.628084,88.438318
115.628631,88.442103
115.629155,88.446248
115.630136,88.455707
115.631032,88.466867
115.631847,88.479905
115.632584,88.494995
115.633247,88.512311
115.633841,88.532029
115.634368,88.554321
115.634834,88.579365
115.635242,88.607332
115.635595,88.638400
115.635898,88.672741
115.636368,88.751944
115.636683,88.846339
115.636875,88.957321
115.636973,89.086289
115.637014,89.403766
115.639131,90.091418
115.641479,90.300604
115.644422,90.377433
115.659363,90.357211
115.698464,90.299993
115.838627,90.090492
116.043877,89.780781
116.293181,89.402708
116.753027,88.708441
116.898614,88.492773
116.958872,88.407874
116.961981,88.405475
116.965153,88.403236
116.968381,88.401158
116.971661,88.399240
116.974987,88.397484
116.978353,88.395887
116.981753,88.394450
116.985182,88.393174
116.988634,88.392057
116.992104,88.391099
116.995586,88.390301
116.999075,88.389662
117.002564,88.389181
117.006048,88.388860
117.009522,88.388697
117.012980,88.388692
117.016416,88.388846
117.019824,88.389157
117.023200,88.389626
117.026537,88.390253
117.029831,88.391037
117.033074,88.391978
117.036262,88.393076
117.039388,88.394331
117.042448,88.395743
117.045436,88.397311
117.048346,88.399035
117.051173,88.400915
117.053910,88.402951
117.056552,88.405142
117.059095,88.407489
117.061531,88.409991
117.063265,88.412050
117.064897,88.414379
117.066431,88.417164
117.067870,88.420589
117.069219,88.424838
117.070481,88.430095
117.071660,88.436544
117.072759,88.444371
117.073782,88.453758
117.074733,88.464891
117.075615,88.477954
117.076432,88.493130
117.077188,88.510605
117.077887,88.530563
117.078531,88.553187
117.079126,88.578663
117.080178,88.638905
117.081075,88.712763
117.081844,88.801712
117.082515,88.907226
117.083119,89.030779
117.083683,89.173845
117.084814,89.524416
117.085211,90.304805
117.081639,90.649425
117.080959,90.653030
117.080120,90.656686
117.079135,90.660370
117.078018,90.664059
117.076783,90.667730
117.075444,90.671358
117.074015,90.674921
117.072511,90.678396
117.070944,90.681760
117.069330,90.684988
117.067681,90.688059
117.066012,90.690947
117.064337,90.693632
117.062670,90.696088
117.061024,90.698294
117.059414,90.700224
117.057038,90.702330
117.054482,90.704281
117.051757,90.706078
117.048876,90.707722
117.045851,90.709213
117.042694,90.710552
117.039417,90.711739
117.036031,90.712776
117.032550,90.713662
117.028984,90.714398
117.021649,90.715423
117.014121,90.715857
117.006497,90.715703
116.998874,90.714965
116.991346,90.713650
116.984010,90.711761
116.976963,90.709303
116.973578,90.707862
116.970301,90.706281
116.967144,90.704559
116.964119,90.702699
116.961238,90.700699
116.958513,90.698562
116.955957,90.696286
116.953581,90.693874
116.951847,90.691819
116.950214,90.689514
116.948679,90.686795
116.947237,90.683498
116.945884,90.679460
116.944616,90.674517
116.943429,90.668507
116.942319,90.661264
116.941282,90.652627
116.940314,90.642430
116.939411,90.630512
116.938568,90.616707
116.937781,90.600853
116.937048,90.582786
116.936362,90.562342
116.935721,90.539358
116.934556,90.485115
116.933520,90.418749
116.932580,90.338951
116.931703,90.244413
116.930857,90.133827
116.930010,90.005883
116.928181,89.692691
116.922889,88.713733
116.266722,89.712800
115.610556,90.710808
115.562931,90.710808
115.555928,90.710755
115.549574,90.710582
115.543820,90.710271
115.538622,90.709799
115.533933,90.709148
115.529705,90.708296
115.525893,90.707225
115.522450,90.705913
115.519329,90.704341
115.516484,90.702488
115.513869,90.700334
115.511436,90.697860
115.509140,90.695044
115.506934,90.691867
115.504772,90.688309
115.502606,90.684349
115.500720,90.677769
115.499026,90.665539
115.497518,90.647021
115.496190,90.621577
115.494048,90.547353
115.492552,90.437758
115.491650,90.287681
115.491295,90.092013
115.492023,89.543466
115.494139,88.427983
115.519539,88.407874
115.522534,88.405475
115.525562,88.403236
115.528621,88.401157
115.531708,88.399238
115.534818,88.397479
115.537950,88.395880
115.541098,88.394439
115.544261,88.393157
115.547435,88.392033
115.550616,88.391067
115.553801,88.390258
115.556988,88.389606
115.560172,88.389111
115.563351,88.388771
115.566520,88.388588
115.569678,88.388560
Z" /> 
<path style="fill:#000000; fill-opacity:1.000000; 
stroke:#000000; stroke-width:0.000000; stroke-opacity:1; 
stroke-linecap:round; stroke-linejoin:round;fill-rule:evenodd;"
d="M 89.686682,89.548758
89.686021,90.081116
89.683772,90.419105
89.680793,90.546766
89.679538,90.600526
89.676553,90.644337
89.672924,90.663183
89.659165,90.689641
89.125766,90.689641
88.591309,90.688583
88.489707,90.661066
88.456977,90.651731
88.426207,90.641948
88.397322,90.631666
88.370248,90.620833
88.344910,90.609399
88.321234,90.597312
88.299145,90.584521
88.278570,90.570975
88.259433,90.556624
88.241660,90.541414
88.225177,90.525297
88.209910,90.508220
88.195784,90.490131
88.182724,90.470982
88.170657,90.450718
88.159507,90.429291
88.150411,90.410317
88.142150,90.391352
88.134692,90.372183
88.128005,90.352595
88.122056,90.332374
88.116812,90.311307
88.112241,90.289180
88.108310,90.265778
88.104987,90.240889
88.102239,90.214296
88.100034,90.185788
88.098339,90.155150
88.097121,90.122167
88.096349,90.086627
88.095989,90.048314
88.096003,90.017599
88.252642,90.017599
88.252814,90.084669
88.253419,90.138828
88.254595,90.182148
88.256478,90.216698
88.259205,90.244552
88.262911,90.267779
88.267733,90.288452
88.273807,90.308641
88.279516,90.324606
88.286288,90.340319
88.294071,90.355724
88.302812,90.370769
88.312458,90.385397
88.322957,90.399556
88.334256,90.413192
88.346302,90.426248
88.359043,90.438673
88.372426,90.450410
88.386398,90.461407
88.400906,90.471608
88.415898,90.480959
88.431321,90.489407
88.447122,90.496897
88.463248,90.503374
88.480884,90.509594
88.499209,90.515177
88.518741,90.520159
88.539995,90.524574
88.563487,90.528456
88.589735,90.531838
88.619253,90.534755
88.652559,90.537241
88.690168,90.539330
88.732597,90.541057
88.780363,90.542455
88.833980,90.543558
88.960837,90.545017
89.117299,90.545708
89.538517,90.546766
89.538517,89.488433
89.096132,89.488433
88.919011,89.489342
88.762626,89.491740
88.644143,89.495130
88.604478,89.497042
88.580725,89.499016
88.561337,89.502292
88.541757,89.506520
88.522115,89.511634
88.502541,89.517570
88.483165,89.524263
88.464118,89.531647
88.445530,89.539657
88.427531,89.548229
88.410252,89.557296
88.393821,89.566795
88.378371,89.576659
88.364031,89.586825
88.350930,89.597226
88.339200,89.607797
88.328971,89.618474
88.320373,89.629191
88.310020,89.644029
88.300751,89.658599
88.292508,89.673228
88.288753,89.680667
88.285234,89.688243
88.281942,89.695997
88.278871,89.703971
88.276014,89.712204
88.273363,89.720739
88.270911,89.729616
88.268652,89.738875
88.264680,89.758705
88.261390,89.780556
88.258725,89.804757
88.256627,89.831633
88.255040,89.861512
88.253905,89.894721
88.253165,89.931587
88.252763,89.972438
88.252642,90.017599
88.096003,90.017599
88.096008,90.007016
88.096531,89.946718
88.097414,89.897098
88.098817,89.856235
88.100902,89.822205
88.103831,89.793086
88.107764,89.766956
88.112864,89.741893
88.119290,89.715975
88.127185,89.688681
88.135819,89.662727
88.145233,89.638063
88.155472,89.614639
88.166580,89.592406
88.178599,89.571313
88.191573,89.551313
88.205545,89.532354
88.220560,89.514387
88.236659,89.497362
88.253887,89.481231
88.272287,89.465943
88.291902,89.451449
88.312777,89.437699
88.334953,89.424643
88.358475,89.412233
88.404115,89.388420
88.425149,89.377308
88.425286,89.377057
88.425302,89.376703
88.425199,89.376249
88.424980,89.375698
88.424648,89.375050
88.424205,89.374310
88.423000,89.372562
88.421385,89.370472
88.419382,89.368062
88.417014,89.365351
88.414302,89.362359
88.411267,89.359107
88.407931,89.355614
88.400444,89.347989
88.392015,89.339644
88.382817,89.330741
88.365773,89.314288
88.349953,89.297048
88.335338,89.278977
88.321913,89.260031
88.309660,89.240168
88.298561,89.219343
88.288601,89.197514
88.279761,89.174637
88.272026,89.150668
88.265377,89.125565
88.259798,89.099283
88.255271,89.071780
88.251780,89.043012
88.249308,89.012935
88.247837,88.981507
88.247350,88.948683
88.247609,88.936724
88.399726,88.936724
88.399750,88.962441
88.400518,88.988009
88.402024,89.013096
88.404261,89.037371
88.407224,89.060502
88.410907,89.082157
88.415302,89.102005
88.420405,89.119713
88.426208,89.134949
88.430560,89.144507
88.435090,89.153736
88.439808,89.162645
88.444726,89.171241
88.449854,89.179530
88.455203,89.187521
88.460784,89.195219
88.466606,89.202633
88.472681,89.209770
88.479019,89.216636
88.485632,89.223239
88.492529,89.229586
88.499721,89.235684
88.507220,89.241540
88.515035,89.247162
88.523177,89.252557
88.531657,89.257731
88.540486,89.262693
88.549675,89.267449
88.559233,89.272006
88.569171,89.276371
88.579502,89.280553
88.601378,89.288391
88.624947,89.295579
88.650295,89.302172
88.677505,89.308230
88.706665,89.313808
88.735524,89.317832
88.769256,89.321200
88.809562,89.323947
88.858140,89.326111
88.916689,89.327729
88.986909,89.328839
89.070498,89.329478
89.169156,89.329683
89.538517,89.329683
89.538517,88.567683
89.185032,88.567683
89.041165,88.568609
88.911189,88.571122
88.809390,88.574827
88.773523,88.577001
88.750057,88.579325
88.714374,88.584652
88.681090,88.590743
88.650121,88.597640
88.621387,88.605386
88.594804,88.614025
88.570291,88.623601
88.547766,88.634156
88.527146,88.645735
88.508349,88.658380
88.491293,88.672135
88.475896,88.687044
88.462075,88.703150
88.449749,88.720495
88.438836,88.739125
88.429252,88.759081
88.420916,88.780408
88.415557,88.797877
88.410986,88.817520
88.407196,88.839004
88.404181,88.861999
88.401935,88.886171
88.400452,88.911191
88.399726,88.936724
88.247609,88.936724
88.248336,88.903107
88.251317,88.860004
88.256329,88.819316
88.263407,88.780987
88.272587,88.744958
88.283906,88.711172
88.297397,88.679572
88.313098,88.650101
88.331044,88.622700
88.351270,88.597314
88.373813,88.573884
88.398707,88.552354
88.425989,88.532665
88.455694,88.514760
88.487858,88.498583
88.522516,88.484075
88.550193,88.473569
88.576550,88.464227
88.602303,88.455969
88.628167,88.448720
88.654855,88.442400
88.683082,88.436933
88.713564,88.432242
88.747014,88.428247
88.784148,88.424874
88.825680,88.422042
88.872325,88.419676
88.924798,88.417697
89.050084,88.414592
89.207257,88.412108
89.632706,88.406816
89.659165,88.433274
89.686682,88.460791
89.686682,89.329683
Z" /> 
<path style="fill:#000000; fill-opacity:1.000000; 
stroke:#000000; stroke-width:0.000000; stroke-opacity:1; 
stroke-linecap:round; stroke-linejoin:round;fill-rule:evenodd;"
d="M 103.755493,88.391218
103.806833,88.392264
103.847606,88.394005
103.879709,88.396464
103.905041,88.399668
103.925499,88.403641
103.948714,88.410094
103.971322,88.417532
103.993311,88.425938
104.014669,88.435292
104.035385,88.445577
104.055446,88.456773
104.074841,88.468862
104.093558,88.481826
104.111586,88.495645
104.128911,88.510301
104.145523,88.525776
104.161409,88.542051
104.176559,88.559108
104.190959,88.576927
104.204599,88.595490
104.217466,88.614779
104.229548,88.634774
104.240835,88.655458
104.251313,88.676812
104.260971,88.698817
104.269798,88.721454
104.277781,88.744706
104.284908,88.768552
104.291169,88.792976
104.296550,88.817957
104.301041,88.843478
104.304629,88.869520
104.307302,88.896064
104.309049,88.923092
104.309859,88.950585
104.309718,88.978524
104.308615,89.006891
104.305095,89.053166
104.299658,89.096796
104.292246,89.137865
104.282801,89.176456
104.271267,89.212654
104.257585,89.246542
104.241699,89.278203
104.223551,89.307722
104.203084,89.335183
104.180240,89.360668
104.154962,89.384262
104.127193,89.406048
104.096876,89.426110
104.063952,89.444533
104.028364,89.461398
103.990056,89.476791
103.968611,89.483902
103.931798,89.494584
103.820062,89.524681
103.670820,89.563111
103.500048,89.605908
103.331873,89.648125
103.189692,89.684886
103.088390,89.712320
103.057719,89.721330
103.042848,89.726558
103.036680,89.729969
103.030483,89.733842
103.024269,89.738162
103.018046,89.742912
103.011823,89.748078
103.005611,89.753644
102.993255,89.765915
102.981055,89.779598
102.969085,89.794572
102.957423,89.810712
102.946143,89.827893
102.935322,89.845992
102.925037,89.864885
102.915361,89.884448
102.906373,89.904556
102.898148,89.925086
102.890761,89.945914
102.884288,89.966915
102.878807,89.987966
102.869918,90.034124
102.864602,90.080312
102.862733,90.126211
102.864188,90.171504
102.868843,90.215873
102.876574,90.259001
102.887257,90.300568
102.900767,90.340259
102.916981,90.377754
102.935775,90.412736
102.957024,90.444887
102.980605,90.473890
102.993231,90.487111
103.006393,90.499426
103.020077,90.510795
103.034266,90.521178
103.048944,90.530536
103.064097,90.538828
103.079709,90.546015
103.095765,90.552058
103.103803,90.554515
103.112591,90.556735
103.122359,90.558729
103.133336,90.560508
103.145752,90.562082
103.159836,90.563462
103.175817,90.564659
103.193926,90.565684
103.214391,90.566548
103.237441,90.567261
103.292218,90.568280
103.360092,90.568828
103.442898,90.568991
103.549502,90.568208
103.639103,90.566494
103.714044,90.563615
103.776670,90.559334
103.829324,90.553416
103.874350,90.545625
103.914094,90.535726
103.950897,90.523483
103.963447,90.518593
103.975504,90.513439
103.987076,90.508004
103.998173,90.502270
104.008805,90.496222
104.018980,90.489843
104.028707,90.483115
104.037995,90.476023
104.046854,90.468549
104.055293,90.460678
104.063321,90.452391
104.070946,90.443674
104.078179,90.434508
104.085028,90.424877
104.091501,90.414766
104.097610,90.404156
104.103361,90.393031
104.108765,90.381375
104.113831,90.369171
104.118568,90.356403
104.122984,90.343052
104.127089,90.329104
104.130893,90.314542
104.134404,90.299348
104.137631,90.283506
104.140583,90.266999
104.145700,90.231924
104.149828,90.193991
104.153040,90.153066
104.155438,90.122720
104.157935,90.097223
104.160630,90.076066
104.162084,90.066957
104.163623,90.058742
104.165263,90.051358
104.167013,90.044742
104.168888,90.038829
104.170899,90.033557
104.173059,90.028862
104.175381,90.024679
104.177876,90.020946
104.180557,90.017599
104.182900,90.015193
104.185360,90.012937
104.187932,90.010830
104.190609,90.008872
104.193384,90.007066
104.196251,90.005409
104.199204,90.003905
104.202236,90.002551
104.205341,90.001350
104.208512,90.000301
104.211744,89.999404
104.215029,89.998661
104.218361,89.998071
104.221735,89.997635
104.225142,89.997354
104.228578,89.997227
104.232036,89.997255
104.235509,89.997438
104.238991,89.997777
104.242475,89.998272
104.245956,89.998924
104.249426,89.999733
104.252879,90.000700
104.256310,90.001824
104.259711,90.003106
104.263076,90.004546
104.266399,90.006146
104.269673,90.007905
104.272893,90.009823
104.276051,90.011902
104.279141,90.014141
104.282156,90.016541
104.286453,90.020004
104.288406,90.021685
104.290235,90.023360
104.291942,90.025050
104.293533,90.026775
104.295010,90.028557
104.296378,90.030415
104.297641,90.032371
104.298802,90.034446
104.299865,90.036659
104.300835,90.039033
104.301714,90.041587
104.302508,90.044342
104.303219,90.047320
104.303852,90.050540
104.304411,90.054024
104.304899,90.057792
104.305321,90.061865
104.305680,90.066264
104.305980,90.071010
104.306224,90.076122
104.306418,90.081623
104.306565,90.087532
104.306731,90.100660
104.306755,90.115671
104.306667,90.132732
104.306498,90.152008
104.305498,90.186597
104.303307,90.220462
104.299950,90.253525
104.295452,90.285705
104.289838,90.316924
104.283132,90.347103
104.275360,90.376162
104.266546,90.404023
104.256715,90.430607
104.245892,90.455834
104.234102,90.479626
104.221369,90.501903
104.207718,90.522586
104.193174,90.541596
104.177762,90.558855
104.161506,90.574283
104.149755,90.584011
104.136797,90.593715
104.122741,90.603348
104.107697,90.612862
104.091772,90.622209
104.075074,90.631340
104.057714,90.640207
104.039798,90.648763
104.021436,90.656959
104.002736,90.664747
103.983806,90.672080
103.964756,90.678909
103.945693,90.685186
103.926726,90.690863
103.907964,90.695892
103.889515,90.700224
103.862660,90.704971
103.828070,90.709278
103.740058,90.716496
103.634237,90.721730
103.519363,90.724831
103.404190,90.725649
103.297476,90.724037
103.207977,90.719845
103.172419,90.716735
103.144448,90.712925
103.112186,90.706535
103.081271,90.698864
103.051682,90.689898
103.023402,90.679620
102.996411,90.668015
102.970692,90.655067
102.946225,90.640762
102.922992,90.625083
102.900975,90.608014
102.880155,90.589542
102.860513,90.569649
102.842030,90.548321
102.824688,90.525541
102.808469,90.501295
102.793354,90.475567
102.779324,90.448341
102.770390,90.429568
102.762225,90.411269
102.754804,90.393319
102.748103,90.375597
102.742096,90.357981
102.736759,90.340348
102.732067,90.322575
102.727995,90.304540
102.724518,90.286121
102.721611,90.267194
102.719251,90.247639
102.717411,90.227331
102.716068,90.206149
102.715195,90.183971
102.714769,90.160673
102.714765,90.136133
102.715338,90.098397
102.717068,90.062149
102.719970,90.027339
102.724059,89.993919
102.729351,89.961838
102.735862,89.931048
102.743606,89.901497
102.752600,89.873137
102.762860,89.845918
102.774399,89.819790
102.787235,89.794704
102.801383,89.770611
102.816857,89.747460
102.833674,89.725202
102.851849,89.703787
102.871397,89.683166
102.890978,89.663989
102.900493,89.655126
102.910021,89.646680
102.919707,89.638605
102.929699,89.630851
102.940143,89.623369
102.951186,89.616111
102.962975,89.609028
102.975656,89.602072
102.989377,89.595193
103.004283,89.588344
103.020521,89.581475
103.038239,89.574539
103.057583,89.567486
103.078699,89.560267
103.101734,89.552835
103.126836,89.545140
103.154150,89.537133
103.183823,89.528767
103.250835,89.510761
103.329045,89.490731
103.419625,89.468290
103.523751,89.443046
103.777332,89.382599
103.848869,89.364831
103.879205,89.356676
103.906316,89.348799
103.930501,89.341046
103.952056,89.333263
103.971280,89.325293
103.988469,89.316983
104.003922,89.308176
104.017937,89.298718
104.030810,89.288454
104.042841,89.277229
104.054325,89.264888
104.065562,89.251275
104.076848,89.236236
104.088481,89.219616
104.097973,89.204839
104.106620,89.190200
104.114445,89.175589
104.121471,89.160895
104.127723,89.146009
104.133223,89.130822
104.137994,89.115221
104.142059,89.099098
104.145443,89.082343
104.148167,89.064845
104.150256,89.046495
104.151733,89.027181
104.152621,89.006795
104.152942,88.985226
104.152721,88.962364
104.151981,88.938100
104.150797,88.900971
104.150105,88.885400
104.149253,88.871458
104.148172,88.858867
104.146791,88.847352
104.145042,88.836636
104.142854,88.826445
104.140157,88.816502
104.136882,88.806531
104.132959,88.796256
104.128318,88.785402
104.122890,88.773691
104.116604,88.760849
104.101181,88.730666
104.090924,88.711158
104.080740,88.693071
104.070553,88.676335
104.060287,88.660882
104.049865,88.646645
104.039213,88.633556
104.028254,88.621545
104.016912,88.610545
104.005110,88.600488
103.992775,88.591305
103.979828,88.582928
103.966194,88.575290
103.951798,88.568321
103.936563,88.561953
103.920413,88.556119
103.903273,88.550750
103.893644,88.548119
103.883588,88.545778
103.872780,88.543720
103.860890,88.541936
103.847593,88.540418
103.832561,88.539160
103.815467,88.538152
103.795985,88.537388
103.773786,88.536860
103.748544,88.536559
103.687621,88.536611
103.610600,88.537481
103.514865,88.539108
103.398543,88.541136
103.307001,88.543622
103.235849,88.547126
103.206547,88.549434
103.180696,88.552205
103.157747,88.555509
103.137152,88.559417
103.118361,88.563997
103.100825,88.569320
103.083997,88.575455
103.067327,88.582473
103.032266,88.599433
103.021678,88.604946
103.011540,88.610587
103.001841,88.616378
102.992572,88.622340
102.983721,88.628496
102.975280,88.634868
102.967239,88.641478
102.959587,88.648348
102.952316,88.655500
102.945414,88.662956
102.938872,88.670739
102.932680,88.678870
102.926829,88.687371
102.921308,88.696266
102.916108,88.705575
102.911218,88.715320
102.906629,88.725525
102.902331,88.736211
102.898314,88.747399
102.894568,88.759113
102.891083,88.771374
102.887850,88.784204
102.884858,88.797626
102.882098,88.811662
102.879559,88.826333
102.877232,88.841661
102.873174,88.874380
102.869845,88.909995
102.867166,88.948683
102.865646,88.971046
102.863840,88.991359
102.861708,89.009707
102.859211,89.026173
102.856312,89.040840
102.852971,89.053793
102.849149,89.065115
102.844808,89.074889
102.839909,89.083200
102.837238,89.086833
102.834413,89.090132
102.831429,89.093106
102.828281,89.095767
102.824965,89.098125
102.821475,89.100190
102.817807,89.101973
102.813955,89.103484
102.805684,89.105734
102.796622,89.107022
102.786731,89.107433
102.782428,89.107337
102.778249,89.107048
102.774195,89.106568
102.770267,89.105895
102.766466,89.105030
102.762791,89.103973
102.759244,89.102723
102.755825,89.101281
102.752535,89.099647
102.749374,89.097821
102.746342,89.095803
102.743442,89.093592
102.740672,89.091189
102.738033,89.088594
102.735527,89.085806
102.733154,89.082827
102.730914,89.079655
102.728808,89.076291
102.726836,89.072734
102.724999,89.068986
102.723298,89.065045
102.721734,89.060912
102.720306,89.056586
102.719015,89.052069
102.717863,89.047359
102.716849,89.042457
102.715974,89.037363
102.715239,89.032076
102.714644,89.026597
102.714190,89.020926
102.713877,89.015063
102.713707,89.009008
102.713275,88.968371
102.713624,88.932361
102.714841,88.900047
102.717013,88.870498
102.720228,88.842785
102.724571,88.815978
102.730129,88.789145
102.736990,88.761358
102.746565,88.726729
102.757480,88.694228
102.769813,88.663773
102.783639,88.635284
102.791135,88.621751
102.799034,88.608680
102.807343,88.596059
102.816073,88.583880
102.825233,88.572132
102.834833,88.560805
102.844883,88.549888
102.855391,88.539372
102.866367,88.529247
102.877820,88.519503
102.889761,88.510129
102.902199,88.501115
102.928602,88.484129
102.957106,88.468464
102.987787,88.454039
103.020720,88.440774
103.055982,88.428587
103.093648,88.417399
103.107228,88.413824
103.120480,88.410622
103.133848,88.407770
103.147772,88.405245
103.162694,88.403024
103.179056,88.401084
103.197301,88.399401
103.217870,88.397953
103.241204,88.396715
103.267746,88.395664
103.297937,88.394778
103.332219,88.394034
103.414825,88.392874
103.519098,88.392000
103.691689,88.390842
Z" /> 
<g >
</g>
<g >
</g>
<g >
</g>
<g >
</g>
<g >
</g>
<g >
</g>
<g >
</g>
<g >
</g>
<g >
</g>
<g >
</g>
<g >
</g>
<g >
</g>
<g >
</g>
<g >
</g>
<g >
</g>
<g >
</g>
<g >
</g>
<g >
</g>
<g >
</g>
</g> 
</svg>
